<?xml version="1.0" encoding="UTF-8" standalone="no"?>
<!DOCTYPE svg PUBLIC "-//W3C//DTD SVG 1.1//EN"
 "http://www.w3.org/Graphics/SVG/1.1/DTD/svg11.dtd">
<!-- Generated by graphviz version 12.0.0 (20240803.0821)
 -->
<!-- Title: include/AssemblyCore.hh Pages: 1 -->
<svg width="1502pt" height="382pt"
 viewBox="0.00 0.00 1502.12 382.00" xmlns="http://www.w3.org/2000/svg" xmlns:xlink="http://www.w3.org/1999/xlink">
<g id="graph0" class="graph" transform="scale(1 1) rotate(0) translate(4 378)">
<title>include/AssemblyCore.hh</title>
<!-- Node1 -->
<g id="Node000001" class="node">
<title>Node1</title>
<g id="a_Node000001"><a xlink:title=" ">
<polygon fill="#999999" stroke="#666666" points="885,-374 745.25,-374 745.25,-353.25 885,-353.25 885,-374"/>
<text text-anchor="middle" x="815.12" y="-360.5" font-family="Helvetica,sans-Serif" font-size="10.00">include/AssemblyCore.hh</text>
</a>
</g>
</g>
<!-- Node2 -->
<g id="Node000002" class="node">
<title>Node2</title>
<g id="a_Node000002"><a xlink:href="Linkable_8hh.html" target="_top" xlink:title=" ">
<polygon fill="white" stroke="#666666" points="1321.88,-203.75 1250.38,-203.75 1250.38,-183 1321.88,-183 1321.88,-203.75"/>
<text text-anchor="middle" x="1286.12" y="-190.25" font-family="Helvetica,sans-Serif" font-size="10.00">Linkable.hh</text>
</a>
</g>
</g>
<!-- Node1&#45;&gt;Node2 -->
<g id="edge1_Node000001_Node000002" class="edge">
<title>Node1&#45;&gt;Node2</title>
<g id="a_edge1_Node000001_Node000002"><a xlink:title=" ">
<path fill="none" stroke="#63b8ff" d="M885.49,-359.39C973.47,-352.39 1125.67,-330.28 1234.12,-260.5 1252.11,-248.93 1266.54,-228.95 1275.59,-213.98"/>
<polygon fill="#63b8ff" stroke="#63b8ff" points="1278.53,-215.88 1280.45,-205.47 1272.45,-212.41 1278.53,-215.88"/>
</a>
</g>
</g>
<!-- Node5 -->
<g id="Node000005" class="node">
<title>Node5</title>
<g id="a_Node000005"><a xlink:title=" ">
<polygon fill="#e0e0e0" stroke="#999999" points="1466.12,-140.62 1402.12,-140.62 1402.12,-119.88 1466.12,-119.88 1466.12,-140.62"/>
<text text-anchor="middle" x="1434.12" y="-127.12" font-family="Helvetica,sans-Serif" font-size="10.00">stdexcept</text>
</a>
</g>
</g>
<!-- Node1&#45;&gt;Node5 -->
<g id="edge15_Node000001_Node000005" class="edge">
<title>Node1&#45;&gt;Node5</title>
<g id="a_edge15_Node000001_Node000005"><a xlink:title=" ">
<path fill="none" stroke="#63b8ff" d="M885.1,-359.95C984.25,-353.6 1168.93,-332.27 1307.12,-260.5 1346.13,-240.24 1357.76,-235.53 1388.12,-203.75 1403.2,-187.96 1416.09,-166.51 1424.35,-151.04"/>
<polygon fill="#63b8ff" stroke="#63b8ff" points="1427.36,-152.84 1428.82,-142.35 1421.13,-149.64 1427.36,-152.84"/>
</a>
</g>
</g>
<!-- Node8 -->
<g id="Node000008" class="node">
<title>Node8</title>
<g id="a_Node000008"><a xlink:href="i__shared__ptr_8hh.html" target="_top" xlink:title=" ">
<polygon fill="white" stroke="#666666" points="90.25,-140.62 0,-140.62 0,-119.88 90.25,-119.88 90.25,-140.62"/>
<text text-anchor="middle" x="45.12" y="-127.12" font-family="Helvetica,sans-Serif" font-size="10.00">i_shared_ptr.hh</text>
</a>
</g>
</g>
<!-- Node1&#45;&gt;Node8 -->
<g id="edge7_Node000001_Node000008" class="edge">
<title>Node1&#45;&gt;Node8</title>
<g id="a_edge7_Node000001_Node000008"><a xlink:title=" ">
<path fill="none" stroke="#63b8ff" d="M744.98,-354.97C686.05,-347.73 599.88,-335.29 526.12,-317.25 372.2,-279.61 334.29,-264.96 188.12,-203.75 146.69,-186.4 100.67,-162.11 72.31,-146.53"/>
<polygon fill="#63b8ff" stroke="#63b8ff" points="74.12,-143.53 63.67,-141.75 70.73,-149.65 74.12,-143.53"/>
</a>
</g>
</g>
<!-- Node13 -->
<g id="Node000013" class="node">
<title>Node13</title>
<g id="a_Node000013"><a xlink:href="VolumeBuildersTypes_8hh.html" target="_top" xlink:title=" ">
<polygon fill="white" stroke="#666666" points="494.75,-203.75 359.5,-203.75 359.5,-183 494.75,-183 494.75,-203.75"/>
<text text-anchor="middle" x="427.12" y="-190.25" font-family="Helvetica,sans-Serif" font-size="10.00">VolumeBuildersTypes.hh</text>
</a>
</g>
</g>
<!-- Node1&#45;&gt;Node13 -->
<g id="edge16_Node000001_Node000013" class="edge">
<title>Node1&#45;&gt;Node13</title>
<g id="a_edge16_Node000001_Node000013"><a xlink:title=" ">
<path fill="none" stroke="#63b8ff" d="M744.96,-356.43C670.43,-346.75 552.37,-322.19 471.12,-260.5 455.2,-248.41 443.2,-228.79 435.78,-214.06"/>
<polygon fill="#63b8ff" stroke="#63b8ff" points="439.09,-212.88 431.66,-205.32 432.76,-215.86 439.09,-212.88"/>
</a>
</g>
</g>
<!-- Node19 -->
<g id="Node000019" class="node">
<title>Node19</title>
<g id="a_Node000019"><a xlink:href="StructureBuilderBase_8hh.html" target="_top" xlink:title=" ">
<polygon fill="white" stroke="#666666" points="973,-317.25 839.25,-317.25 839.25,-296.5 973,-296.5 973,-317.25"/>
<text text-anchor="middle" x="906.12" y="-303.75" font-family="Helvetica,sans-Serif" font-size="10.00">StructureBuilderBase.hh</text>
</a>
</g>
</g>
<!-- Node1&#45;&gt;Node19 -->
<g id="edge26_Node000001_Node000019" class="edge">
<title>Node1&#45;&gt;Node19</title>
<g id="a_edge26_Node000001_Node000019"><a xlink:title=" ">
<path fill="none" stroke="#63b8ff" d="M831.39,-352.84C844.98,-344.66 864.6,-332.86 880.33,-323.4"/>
<polygon fill="#63b8ff" stroke="#63b8ff" points="881.94,-326.51 888.7,-318.36 878.33,-320.52 881.94,-326.51"/>
</a>
</g>
</g>
<!-- Node27 -->
<g id="Node000027" class="node">
<title>Node27</title>
<g id="a_Node000027"><a xlink:href="BuilderFactories_8hh.html" target="_top" xlink:title=" ">
<polygon fill="white" stroke="#666666" points="588.62,-260.5 479.62,-260.5 479.62,-239.75 588.62,-239.75 588.62,-260.5"/>
<text text-anchor="middle" x="534.12" y="-247" font-family="Helvetica,sans-Serif" font-size="10.00">BuilderFactories.hh</text>
</a>
</g>
</g>
<!-- Node1&#45;&gt;Node27 -->
<g id="edge58_Node000001_Node000027" class="edge">
<title>Node1&#45;&gt;Node27</title>
<g id="a_edge58_Node000001_Node000027"><a xlink:title=" ">
<path fill="none" stroke="#63b8ff" d="M790.68,-352.93C740.75,-333.11 626.93,-287.95 569.15,-265.02"/>
<polygon fill="#63b8ff" stroke="#63b8ff" points="570.71,-261.88 560.12,-261.44 568.12,-268.38 570.71,-261.88"/>
</a>
</g>
</g>
<!-- Node3 -->
<g id="Node000003" class="node">
<title>Node3</title>
<g id="a_Node000003"><a xlink:title=" ">
<polygon fill="#e0e0e0" stroke="#999999" points="649.75,-77.5 592.5,-77.5 592.5,-56.75 649.75,-56.75 649.75,-77.5"/>
<text text-anchor="middle" x="621.12" y="-64" font-family="Helvetica,sans-Serif" font-size="10.00">memory</text>
</a>
</g>
</g>
<!-- Node2&#45;&gt;Node3 -->
<g id="edge2_Node000002_Node000003" class="edge">
<title>Node2&#45;&gt;Node3</title>
<g id="a_edge2_Node000002_Node000003"><a xlink:title=" ">
<path fill="none" stroke="#63b8ff" d="M1266.36,-182.54C1230.86,-165.35 1153.51,-130.11 1084.12,-113.5 930.99,-76.84 742.58,-69.7 661.43,-68.38"/>
<polygon fill="#63b8ff" stroke="#63b8ff" points="661.59,-64.88 651.54,-68.24 661.49,-71.88 661.59,-64.88"/>
</a>
</g>
</g>
<!-- Node4 -->
<g id="Node000004" class="node">
<title>Node4</title>
<g id="a_Node000004"><a xlink:title=" ">
<polygon fill="#e0e0e0" stroke="#999999" points="1383.88,-140.62 1336.38,-140.62 1336.38,-119.88 1383.88,-119.88 1383.88,-140.62"/>
<text text-anchor="middle" x="1360.12" y="-127.12" font-family="Helvetica,sans-Serif" font-size="10.00">mutex</text>
</a>
</g>
</g>
<!-- Node2&#45;&gt;Node4 -->
<g id="edge3_Node000002_Node000004" class="edge">
<title>Node2&#45;&gt;Node4</title>
<g id="a_edge3_Node000002_Node000004"><a xlink:title=" ">
<path fill="none" stroke="#63b8ff" d="M1298.01,-182.55C1309.3,-173.23 1326.49,-159.03 1339.93,-147.94"/>
<polygon fill="#63b8ff" stroke="#63b8ff" points="1341.86,-150.88 1347.34,-141.81 1337.4,-145.48 1341.86,-150.88"/>
</a>
</g>
</g>
<!-- Node2&#45;&gt;Node5 -->
<g id="edge4_Node000002_Node000005" class="edge">
<title>Node2&#45;&gt;Node5</title>
<g id="a_edge4_Node000002_Node000005"><a xlink:title=" ">
<path fill="none" stroke="#63b8ff" d="M1309.9,-182.55C1334.29,-172.48 1372.44,-156.73 1400.03,-145.33"/>
<polygon fill="#63b8ff" stroke="#63b8ff" points="1401.1,-148.68 1409.01,-141.62 1398.43,-142.21 1401.1,-148.68"/>
</a>
</g>
</g>
<!-- Node6 -->
<g id="Node000006" class="node">
<title>Node6</title>
<g id="a_Node000006"><a xlink:title=" ">
<polygon fill="#e0e0e0" stroke="#999999" points="1318.38,-140.62 1249.88,-140.62 1249.88,-119.88 1318.38,-119.88 1318.38,-140.62"/>
<text text-anchor="middle" x="1284.12" y="-127.12" font-family="Helvetica,sans-Serif" font-size="10.00">type_traits</text>
</a>
</g>
</g>
<!-- Node2&#45;&gt;Node6 -->
<g id="edge5_Node000002_Node000006" class="edge">
<title>Node2&#45;&gt;Node6</title>
<g id="a_edge5_Node000002_Node000006"><a xlink:title=" ">
<path fill="none" stroke="#63b8ff" d="M1285.8,-182.55C1285.54,-174.4 1285.15,-162.51 1284.81,-152.23"/>
<polygon fill="#63b8ff" stroke="#63b8ff" points="1288.31,-152.24 1284.49,-142.36 1281.32,-152.47 1288.31,-152.24"/>
</a>
</g>
</g>
<!-- Node7 -->
<g id="Node000007" class="node">
<title>Node7</title>
<g id="a_Node000007"><a xlink:title=" ">
<polygon fill="#e0e0e0" stroke="#999999" points="948.5,-140.62 901.75,-140.62 901.75,-119.88 948.5,-119.88 948.5,-140.62"/>
<text text-anchor="middle" x="925.12" y="-127.12" font-family="Helvetica,sans-Serif" font-size="10.00">vector</text>
</a>
</g>
</g>
<!-- Node2&#45;&gt;Node7 -->
<g id="edge6_Node000002_Node000007" class="edge">
<title>Node2&#45;&gt;Node7</title>
<g id="a_edge6_Node000002_Node000007"><a xlink:title=" ">
<path fill="none" stroke="#63b8ff" d="M1250.27,-191.17C1188.93,-188.28 1060.5,-178.66 957.12,-147 955.57,-146.52 954,-145.98 952.43,-145.39"/>
<polygon fill="#63b8ff" stroke="#63b8ff" points="954.27,-142.37 943.7,-141.57 951.46,-148.78 954.27,-142.37"/>
</a>
</g>
</g>
<!-- Node8&#45;&gt;Node3 -->
<g id="edge10_Node000008_Node000003" class="edge">
<title>Node8&#45;&gt;Node3</title>
<g id="a_edge10_Node000008_Node000003"><a xlink:title=" ">
<path fill="none" stroke="#63b8ff" d="M74.86,-119.44C82.68,-117.17 91.16,-114.99 99.12,-113.5 276.71,-80.22 492.96,-71.27 580.97,-68.93"/>
<polygon fill="#63b8ff" stroke="#63b8ff" points="580.86,-72.43 590.77,-68.68 580.68,-65.43 580.86,-72.43"/>
</a>
</g>
</g>
<!-- Node9 -->
<g id="Node000009" class="node">
<title>Node9</title>
<g id="a_Node000009"><a xlink:title=" ">
<polygon fill="#e0e0e0" stroke="#999999" points="240,-20.75 124.25,-20.75 124.25,0 240,0 240,-20.75"/>
<text text-anchor="middle" x="182.12" y="-7.25" font-family="Helvetica,sans-Serif" font-size="10.00">G4LogicalVolume.hh</text>
</a>
</g>
</g>
<!-- Node8&#45;&gt;Node9 -->
<g id="edge8_Node000008_Node000009" class="edge">
<title>Node8&#45;&gt;Node9</title>
<g id="a_edge8_Node000008_Node000009"><a xlink:title=" ">
<path fill="none" stroke="#63b8ff" d="M75,-119.4C96.8,-111.01 125.95,-97.17 146.12,-77.5 159.28,-64.67 168.85,-45.98 174.8,-31.74"/>
<polygon fill="#63b8ff" stroke="#63b8ff" points="178.04,-33.06 178.4,-22.47 171.52,-30.52 178.04,-33.06"/>
</a>
</g>
</g>
<!-- Node10 -->
<g id="Node000010" class="node">
<title>Node10</title>
<g id="a_Node000010"><a xlink:title=" ">
<polygon fill="#e0e0e0" stroke="#999999" points="105.75,-20.75 30.5,-20.75 30.5,0 105.75,0 105.75,-20.75"/>
<text text-anchor="middle" x="68.12" y="-7.25" font-family="Helvetica,sans-Serif" font-size="10.00">G4VSolid.hh</text>
</a>
</g>
</g>
<!-- Node8&#45;&gt;Node10 -->
<g id="edge9_Node000008_Node000010" class="edge">
<title>Node8&#45;&gt;Node10</title>
<g id="a_edge9_Node000008_Node000010"><a xlink:title=" ">
<path fill="none" stroke="#63b8ff" d="M38.33,-119.65C29.25,-105.57 15.27,-78.61 24.12,-56.75 28.54,-45.85 36.98,-36.12 45.29,-28.49"/>
<polygon fill="#63b8ff" stroke="#63b8ff" points="47.53,-31.18 52.91,-22.06 43.01,-25.83 47.53,-31.18"/>
</a>
</g>
</g>
<!-- Node11 -->
<g id="Node000011" class="node">
<title>Node11</title>
<g id="a_Node000011"><a xlink:href="IVolumeBuilder_8hh.html" target="_top" xlink:title="Created by.">
<polygon fill="white" stroke="#666666" points="137.38,-77.5 32.88,-77.5 32.88,-56.75 137.38,-56.75 137.38,-77.5"/>
<text text-anchor="middle" x="85.12" y="-64" font-family="Helvetica,sans-Serif" font-size="10.00">IVolumeBuilder.hh</text>
</a>
</g>
</g>
<!-- Node8&#45;&gt;Node11 -->
<g id="edge11_Node000008_Node000011" class="edge">
<title>Node8&#45;&gt;Node11</title>
<g id="a_edge11_Node000008_Node000011"><a xlink:title=" ">
<path fill="none" stroke="#63b8ff" d="M51.55,-119.43C57.24,-110.73 65.71,-97.8 72.71,-87.09"/>
<polygon fill="#63b8ff" stroke="#63b8ff" points="75.47,-89.27 78.02,-78.99 69.61,-85.44 75.47,-89.27"/>
</a>
</g>
</g>
<!-- Node11&#45;&gt;Node9 -->
<g id="edge12_Node000011_Node000009" class="edge">
<title>Node11&#45;&gt;Node9</title>
<g id="a_edge12_Node000011_Node000009"><a xlink:title=" ">
<path fill="none" stroke="#63b8ff" d="M102.47,-56.34C117.09,-48.08 138.26,-36.13 155.1,-26.63"/>
<polygon fill="#63b8ff" stroke="#63b8ff" points="156.63,-29.79 163.62,-21.82 153.19,-23.69 156.63,-29.79"/>
</a>
</g>
</g>
<!-- Node11&#45;&gt;Node10 -->
<g id="edge14_Node000011_Node000010" class="edge">
<title>Node11&#45;&gt;Node10</title>
<g id="a_edge14_Node000011_Node000010"><a xlink:title=" ">
<path fill="none" stroke="#63b8ff" d="M82.09,-56.34C79.98,-49.56 77.11,-40.3 74.51,-31.94"/>
<polygon fill="#63b8ff" stroke="#63b8ff" points="77.89,-31.04 71.59,-22.52 71.21,-33.11 77.89,-31.04"/>
</a>
</g>
</g>
<!-- Node12 -->
<g id="Node000012" class="node">
<title>Node12</title>
<g id="a_Node000012"><a xlink:title=" ">
<polygon fill="#e0e0e0" stroke="#999999" points="1275.5,-20.75 1168.75,-20.75 1168.75,0 1275.5,0 1275.5,-20.75"/>
<text text-anchor="middle" x="1222.12" y="-7.25" font-family="Helvetica,sans-Serif" font-size="10.00">G4Transform3D.hh</text>
</a>
</g>
</g>
<!-- Node11&#45;&gt;Node12 -->
<g id="edge13_Node000011_Node000012" class="edge">
<title>Node11&#45;&gt;Node12</title>
<g id="a_edge13_Node000011_Node000012"><a xlink:title=" ">
<path fill="none" stroke="#63b8ff" d="M137.75,-60.64C152.72,-59.22 169.05,-57.79 184.12,-56.75 551.63,-31.33 993.37,-17.59 1157.02,-13.07"/>
<polygon fill="#63b8ff" stroke="#63b8ff" points="1156.9,-16.58 1166.8,-12.81 1156.71,-9.58 1156.9,-16.58"/>
</a>
</g>
</g>
<!-- Node13&#45;&gt;Node3 -->
<g id="edge18_Node000013_Node000003" class="edge">
<title>Node13&#45;&gt;Node3</title>
<g id="a_edge18_Node000013_Node000003"><a xlink:title=" ">
<path fill="none" stroke="#63b8ff" d="M359.17,-182.75C301.39,-171.81 232.56,-150.47 265.12,-113.5 285.74,-90.09 492.02,-75.53 580.82,-70.31"/>
<polygon fill="#63b8ff" stroke="#63b8ff" points="581,-73.81 590.78,-69.74 580.59,-66.82 581,-73.81"/>
</a>
</g>
</g>
<!-- Node13&#45;&gt;Node7 -->
<g id="edge20_Node000013_Node000007" class="edge">
<title>Node13&#45;&gt;Node7</title>
<g id="a_edge20_Node000013_Node000007"><a xlink:title=" ">
<path fill="none" stroke="#63b8ff" d="M494.91,-187.62C579.57,-181.13 728.69,-167.85 855.12,-147 866.62,-145.1 879.06,-142.49 890.21,-139.94"/>
<polygon fill="#63b8ff" stroke="#63b8ff" points="890.88,-143.38 899.81,-137.68 889.28,-136.56 890.88,-143.38"/>
</a>
</g>
</g>
<!-- Node13&#45;&gt;Node8 -->
<g id="edge25_Node000013_Node000008" class="edge">
<title>Node13&#45;&gt;Node8</title>
<g id="a_edge25_Node000013_Node000008"><a xlink:title=" ">
<path fill="none" stroke="#63b8ff" d="M359.09,-185.9C292.4,-178.86 188.09,-166.02 99.12,-147 95.12,-146.14 90.97,-145.14 86.84,-144.07"/>
<polygon fill="#63b8ff" stroke="#63b8ff" points="88.08,-140.78 77.51,-141.51 86.23,-147.53 88.08,-140.78"/>
</a>
</g>
</g>
<!-- Node14 -->
<g id="Node000014" class="node">
<title>Node14</title>
<g id="a_Node000014"><a xlink:title=" ">
<polygon fill="#e0e0e0" stroke="#999999" points="376.25,-140.62 274,-140.62 274,-119.88 376.25,-119.88 376.25,-140.62"/>
<text text-anchor="middle" x="325.12" y="-127.12" font-family="Helvetica,sans-Serif" font-size="10.00">G4ThreeVector.hh</text>
</a>
</g>
</g>
<!-- Node13&#45;&gt;Node14 -->
<g id="edge17_Node000013_Node000014" class="edge">
<title>Node13&#45;&gt;Node14</title>
<g id="a_edge17_Node000013_Node000014"><a xlink:title=" ">
<path fill="none" stroke="#63b8ff" d="M410.74,-182.55C394.68,-172.93 369.95,-158.11 351.19,-146.87"/>
<polygon fill="#63b8ff" stroke="#63b8ff" points="353.15,-143.96 342.77,-141.82 349.55,-149.97 353.15,-143.96"/>
</a>
</g>
</g>
<!-- Node15 -->
<g id="Node000015" class="node">
<title>Node15</title>
<g id="a_Node000015"><a xlink:title=" ">
<polygon fill="#e0e0e0" stroke="#999999" points="450,-140.62 394.25,-140.62 394.25,-119.88 450,-119.88 450,-140.62"/>
<text text-anchor="middle" x="422.12" y="-127.12" font-family="Helvetica,sans-Serif" font-size="10.00">optional</text>
</a>
</g>
</g>
<!-- Node13&#45;&gt;Node15 -->
<g id="edge19_Node000013_Node000015" class="edge">
<title>Node13&#45;&gt;Node15</title>
<g id="a_edge19_Node000013_Node000015"><a xlink:title=" ">
<path fill="none" stroke="#63b8ff" d="M426.32,-182.55C425.65,-174.4 424.68,-162.51 423.84,-152.23"/>
<polygon fill="#63b8ff" stroke="#63b8ff" points="427.34,-152.03 423.03,-142.35 420.36,-152.61 427.34,-152.03"/>
</a>
</g>
</g>
<!-- Node16 -->
<g id="Node000016" class="node">
<title>Node16</title>
<g id="a_Node000016"><a xlink:href="disableable__shared__from__this_8hh.html" target="_top" xlink:title="Created by.">
<polygon fill="white" stroke="#666666" points="218.38,-147 107.88,-147 107.88,-113.5 218.38,-113.5 218.38,-147"/>
<text text-anchor="start" x="115.88" y="-133.5" font-family="Helvetica,sans-Serif" font-size="10.00">disableable_shared</text>
<text text-anchor="middle" x="163.12" y="-120.75" font-family="Helvetica,sans-Serif" font-size="10.00">_from_this.hh</text>
</a>
</g>
</g>
<!-- Node13&#45;&gt;Node16 -->
<g id="edge21_Node000013_Node000016" class="edge">
<title>Node13&#45;&gt;Node16</title>
<g id="a_edge21_Node000013_Node000016"><a xlink:title=" ">
<path fill="none" stroke="#63b8ff" d="M384.71,-182.55C342.93,-172.88 278.47,-157.96 229.82,-146.69"/>
<polygon fill="#63b8ff" stroke="#63b8ff" points="230.77,-143.32 220.24,-144.47 229.19,-150.14 230.77,-143.32"/>
</a>
</g>
</g>
<!-- Node16&#45;&gt;Node3 -->
<g id="edge24_Node000016_Node000003" class="edge">
<title>Node16&#45;&gt;Node3</title>
<g id="a_edge24_Node000016_Node000003"><a xlink:title=" ">
<path fill="none" stroke="#63b8ff" d="M218.76,-116.01C223.27,-115.1 227.77,-114.25 232.12,-113.5 358.76,-91.73 510.41,-77.37 581.14,-71.35"/>
<polygon fill="#63b8ff" stroke="#63b8ff" points="581,-74.87 590.67,-70.55 580.41,-67.9 581,-74.87"/>
</a>
</g>
</g>
<!-- Node17 -->
<g id="Node000017" class="node">
<title>Node17</title>
<g id="a_Node000017"><a xlink:title=" ">
<polygon fill="#e0e0e0" stroke="#999999" points="243,-77.5 193.25,-77.5 193.25,-56.75 243,-56.75 243,-77.5"/>
<text text-anchor="middle" x="218.12" y="-64" font-family="Helvetica,sans-Serif" font-size="10.00">atomic</text>
</a>
</g>
</g>
<!-- Node16&#45;&gt;Node17 -->
<g id="edge22_Node000016_Node000017" class="edge">
<title>Node16&#45;&gt;Node17</title>
<g id="a_edge22_Node000016_Node000017"><a xlink:title=" ">
<path fill="none" stroke="#63b8ff" d="M177.58,-113.19C184.96,-104.98 193.98,-94.96 201.64,-86.45"/>
<polygon fill="#63b8ff" stroke="#63b8ff" points="204.17,-88.87 208.26,-79.09 198.97,-84.18 204.17,-88.87"/>
</a>
</g>
</g>
<!-- Node18 -->
<g id="Node000018" class="node">
<title>Node18</title>
<g id="a_Node000018"><a xlink:title=" ">
<polygon fill="#e0e0e0" stroke="#999999" points="320.88,-77.5 261.38,-77.5 261.38,-56.75 320.88,-56.75 320.88,-77.5"/>
<text text-anchor="middle" x="291.12" y="-64" font-family="Helvetica,sans-Serif" font-size="10.00">iostream</text>
</a>
</g>
</g>
<!-- Node16&#45;&gt;Node18 -->
<g id="edge23_Node000016_Node000018" class="edge">
<title>Node16&#45;&gt;Node18</title>
<g id="a_edge23_Node000016_Node000018"><a xlink:title=" ">
<path fill="none" stroke="#63b8ff" d="M197.09,-113.03C216.75,-103.64 241.29,-91.92 260.37,-82.81"/>
<polygon fill="#63b8ff" stroke="#63b8ff" points="261.74,-86.03 269.26,-78.57 258.73,-79.72 261.74,-86.03"/>
</a>
</g>
</g>
<!-- Node19&#45;&gt;Node2 -->
<g id="edge28_Node000019_Node000002" class="edge">
<title>Node19&#45;&gt;Node2</title>
<g id="a_edge28_Node000019_Node000002"><a xlink:title=" ">
<path fill="none" stroke="#63b8ff" d="M973.41,-305.55C1035.7,-303 1129.65,-293.3 1204.12,-260.5 1229.87,-249.16 1254.28,-227.58 1269.66,-212.15"/>
<polygon fill="#63b8ff" stroke="#63b8ff" points="1272.15,-214.62 1276.57,-205 1267.11,-209.76 1272.15,-214.62"/>
</a>
</g>
</g>
<!-- Node19&#45;&gt;Node3 -->
<g id="edge54_Node000019_Node000003" class="edge">
<title>Node19&#45;&gt;Node3</title>
<g id="a_edge54_Node000019_Node000003"><a xlink:title=" ">
<path fill="none" stroke="#63b8ff" d="M923.82,-296.01C974.02,-266.83 1110.02,-178.94 1051.12,-113.5 1025.31,-84.82 763.58,-72.94 661.55,-69.37"/>
<polygon fill="#63b8ff" stroke="#63b8ff" points="661.83,-65.88 651.72,-69.04 661.59,-72.88 661.83,-65.88"/>
</a>
</g>
</g>
<!-- Node19&#45;&gt;Node4 -->
<g id="edge53_Node000019_Node000004" class="edge">
<title>Node19&#45;&gt;Node4</title>
<g id="a_edge53_Node000019_Node000004"><a xlink:title=" ">
<path fill="none" stroke="#63b8ff" d="M973.24,-304.22C1040.81,-300.8 1147.21,-290.6 1234.12,-260.5 1281.32,-244.15 1298.53,-241.6 1331.12,-203.75 1343.9,-188.92 1351.49,-167.75 1355.68,-152.12"/>
<polygon fill="#63b8ff" stroke="#63b8ff" points="1359.07,-153 1357.99,-142.46 1352.26,-151.37 1359.07,-153"/>
</a>
</g>
</g>
<!-- Node19&#45;&gt;Node5 -->
<g id="edge55_Node000019_Node000005" class="edge">
<title>Node19&#45;&gt;Node5</title>
<g id="a_edge55_Node000019_Node000005"><a xlink:title=" ">
<path fill="none" stroke="#63b8ff" d="M973.35,-301.68C1064.22,-295.31 1220.97,-281.66 1274.12,-260.5 1335.79,-235.95 1392.26,-178.91 1418.57,-149.5"/>
<polygon fill="#63b8ff" stroke="#63b8ff" points="1421.06,-151.97 1425.02,-142.14 1415.8,-147.35 1421.06,-151.97"/>
</a>
</g>
</g>
<!-- Node19&#45;&gt;Node7 -->
<g id="edge47_Node000019_Node000007" class="edge">
<title>Node19&#45;&gt;Node7</title>
<g id="a_edge47_Node000019_Node000007"><a xlink:title=" ">
<path fill="none" stroke="#63b8ff" d="M907.17,-296.24C910.15,-268.87 918.71,-190.22 922.84,-152.26"/>
<polygon fill="#63b8ff" stroke="#63b8ff" points="926.29,-152.9 923.89,-142.58 919.33,-152.14 926.29,-152.9"/>
</a>
</g>
</g>
<!-- Node19&#45;&gt;Node8 -->
<g id="edge48_Node000019_Node000008" class="edge">
<title>Node19&#45;&gt;Node8</title>
<g id="a_edge48_Node000019_Node000008"><a xlink:title=" ">
<path fill="none" stroke="#63b8ff" d="M838.83,-302.84C752.83,-298.05 599.7,-286.46 471.12,-260.5 323.76,-230.74 154.4,-171.59 81.54,-144.89"/>
<polygon fill="#63b8ff" stroke="#63b8ff" points="83.11,-141.74 72.52,-141.56 80.69,-148.3 83.11,-141.74"/>
</a>
</g>
</g>
<!-- Node19&#45;&gt;Node12 -->
<g id="edge46_Node000019_Node000012" class="edge">
<title>Node19&#45;&gt;Node12</title>
<g id="a_edge46_Node000019_Node000012"><a xlink:title=" ">
<path fill="none" stroke="#63b8ff" d="M973.25,-302.94C1053.53,-298.36 1191.57,-287.1 1307.12,-260.5 1393.03,-240.72 1494.12,-282.53 1494.12,-194.38 1494.12,-194.38 1494.12,-194.38 1494.12,-129.25 1494.12,-39.3 1367.34,-17.23 1286.89,-12.28"/>
<polygon fill="#63b8ff" stroke="#63b8ff" points="1287.55,-8.81 1277.37,-11.77 1287.17,-15.8 1287.55,-8.81"/>
</a>
</g>
</g>
<!-- Node19&#45;&gt;Node13 -->
<g id="edge49_Node000019_Node000013" class="edge">
<title>Node19&#45;&gt;Node13</title>
<g id="a_edge49_Node000019_Node000013"><a xlink:title=" ">
<path fill="none" stroke="#63b8ff" d="M839.01,-299.64C784.68,-293.34 706.7,-281.48 641.12,-260.5 620.91,-254.03 618.03,-247.12 598.12,-239.75 561.12,-226.05 518.19,-214.68 484.6,-206.74"/>
<polygon fill="#63b8ff" stroke="#63b8ff" points="485.59,-203.38 475.06,-204.52 484.01,-210.2 485.59,-203.38"/>
</a>
</g>
</g>
<!-- Node19&#45;&gt;Node14 -->
<g id="edge52_Node000019_Node000014" class="edge">
<title>Node19&#45;&gt;Node14</title>
<g id="a_edge52_Node000019_Node000014"><a xlink:title=" ">
<path fill="none" stroke="#63b8ff" d="M849.7,-296.08C807.72,-288.17 749.26,-275.84 699.12,-260.5 609.95,-233.2 592.36,-213.21 504.12,-183 460.58,-168.09 410.15,-153.77 373.93,-143.99"/>
<polygon fill="#63b8ff" stroke="#63b8ff" points="375.2,-140.7 364.63,-141.49 373.39,-147.46 375.2,-140.7"/>
</a>
</g>
</g>
<!-- Node19&#45;&gt;Node15 -->
<g id="edge27_Node000019_Node000015" class="edge">
<title>Node19&#45;&gt;Node15</title>
<g id="a_edge27_Node000019_Node000015"><a xlink:title=" ">
<path fill="none" stroke="#63b8ff" d="M838.76,-301C801.65,-295.58 756.33,-284.22 722.12,-260.5 687.84,-236.72 704.25,-205.53 669.12,-183 589.42,-131.87 549.97,-173.73 459.12,-147 457.28,-146.46 455.41,-145.85 453.53,-145.2"/>
<polygon fill="#63b8ff" stroke="#63b8ff" points="454.95,-141.99 444.36,-141.66 452.43,-148.52 454.95,-141.99"/>
</a>
</g>
</g>
<!-- Node20 -->
<g id="Node000020" class="node">
<title>Node20</title>
<g id="a_Node000020"><a xlink:href="ISolidBuilder_8hh_source.html" target="_top" xlink:title=" ">
<polygon fill="white" stroke="#666666" points="1195,-260.5 1103.25,-260.5 1103.25,-239.75 1195,-239.75 1195,-260.5"/>
<text text-anchor="middle" x="1149.12" y="-247" font-family="Helvetica,sans-Serif" font-size="10.00">ISolidBuilder.hh</text>
</a>
</g>
</g>
<!-- Node19&#45;&gt;Node20 -->
<g id="edge29_Node000019_Node000020" class="edge">
<title>Node19&#45;&gt;Node20</title>
<g id="a_edge29_Node000019_Node000020"><a xlink:title=" ">
<path fill="none" stroke="#63b8ff" d="M949.85,-296.02C990.32,-286.9 1050.67,-273.31 1094.34,-263.47"/>
<polygon fill="#63b8ff" stroke="#63b8ff" points="1094.88,-266.93 1103.87,-261.32 1093.34,-260.11 1094.88,-266.93"/>
</a>
</g>
</g>
<!-- Node21 -->
<g id="Node000021" class="node">
<title>Node21</title>
<g id="a_Node000021"><a xlink:href="VolumeBuilderConfigs_8hh.html" target="_top" xlink:title=" ">
<polygon fill="white" stroke="#666666" points="859.25,-203.75 721,-203.75 721,-183 859.25,-183 859.25,-203.75"/>
<text text-anchor="middle" x="790.12" y="-190.25" font-family="Helvetica,sans-Serif" font-size="10.00">VolumeBuilderConfigs.hh</text>
</a>
</g>
</g>
<!-- Node19&#45;&gt;Node21 -->
<g id="edge35_Node000019_Node000021" class="edge">
<title>Node19&#45;&gt;Node21</title>
<g id="a_edge35_Node000019_Node000021"><a xlink:title=" ">
<path fill="none" stroke="#63b8ff" d="M902.51,-296.32C896.89,-282.47 884.93,-256.65 868.12,-239.75 855.59,-227.15 838.84,-216.8 824.08,-209.19"/>
<polygon fill="#63b8ff" stroke="#63b8ff" points="825.65,-206.06 815.13,-204.8 822.57,-212.35 825.65,-206.06"/>
</a>
</g>
</g>
<!-- Node22 -->
<g id="Node000022" class="node">
<title>Node22</title>
<g id="a_Node000022"><a xlink:title=" ">
<polygon fill="#e0e0e0" stroke="#999999" points="1041.75,-140.62 966.5,-140.62 966.5,-119.88 1041.75,-119.88 1041.75,-140.62"/>
<text text-anchor="middle" x="1004.12" y="-127.12" font-family="Helvetica,sans-Serif" font-size="10.00">G4Colour.hh</text>
</a>
</g>
</g>
<!-- Node19&#45;&gt;Node22 -->
<g id="edge50_Node000019_Node000022" class="edge">
<title>Node19&#45;&gt;Node22</title>
<g id="a_edge50_Node000019_Node000022"><a xlink:title=" ">
<path fill="none" stroke="#63b8ff" d="M911.53,-296.24C927.09,-268.52 972.18,-188.16 993.16,-150.79"/>
<polygon fill="#63b8ff" stroke="#63b8ff" points="996.03,-152.83 997.87,-142.39 989.93,-149.4 996.03,-152.83"/>
</a>
</g>
</g>
<!-- Node26 -->
<g id="Node000026" class="node">
<title>Node26</title>
<g id="a_Node000026"><a xlink:title=" ">
<polygon fill="#e0e0e0" stroke="#999999" points="859.38,-260.5 730.88,-260.5 730.88,-239.75 859.38,-239.75 859.38,-260.5"/>
<text text-anchor="middle" x="795.12" y="-247" font-family="Helvetica,sans-Serif" font-size="10.00">G4VPhysicalVolume.hh</text>
</a>
</g>
</g>
<!-- Node19&#45;&gt;Node26 -->
<g id="edge51_Node000019_Node000026" class="edge">
<title>Node19&#45;&gt;Node26</title>
<g id="a_edge51_Node000019_Node000026"><a xlink:title=" ">
<path fill="none" stroke="#63b8ff" d="M886.28,-296.09C869.23,-287.68 844.4,-275.43 824.96,-265.84"/>
<polygon fill="#63b8ff" stroke="#63b8ff" points="826.67,-262.78 816.16,-261.5 823.58,-269.06 826.67,-262.78"/>
</a>
</g>
</g>
<!-- Node19&#45;&gt;Node27 -->
<g id="edge56_Node000019_Node000027" class="edge">
<title>Node19&#45;&gt;Node27</title>
<g id="a_edge56_Node000019_Node000027"><a xlink:title=" ">
<path fill="none" stroke="#63b8ff" d="M839.19,-296.02C771.56,-286.07 667.71,-270.79 600.34,-260.87"/>
<polygon fill="#63b8ff" stroke="#63b8ff" points="600.93,-257.42 590.52,-259.43 599.91,-264.34 600.93,-257.42"/>
</a>
</g>
</g>
<!-- Node20&#45;&gt;Node2 -->
<g id="edge33_Node000020_Node000002" class="edge">
<title>Node20&#45;&gt;Node2</title>
<g id="a_edge33_Node000020_Node000002"><a xlink:title=" ">
<path fill="none" stroke="#63b8ff" d="M1173.62,-239.34C1195.24,-230.69 1227.01,-218 1251.28,-208.3"/>
<polygon fill="#63b8ff" stroke="#63b8ff" points="1252.45,-211.6 1260.44,-204.64 1249.85,-205.1 1252.45,-211.6"/>
</a>
</g>
</g>
<!-- Node20&#45;&gt;Node9 -->
<g id="edge30_Node000020_Node000009" class="edge">
<title>Node20&#45;&gt;Node9</title>
<g id="a_edge30_Node000020_Node000009"><a xlink:title=" ">
<path fill="none" stroke="#63b8ff" d="M1153.91,-239.47C1168.66,-208.17 1209.56,-108.53 1160.12,-56.75 1128.81,-23.95 469.92,-14.3 251.66,-12"/>
<polygon fill="#63b8ff" stroke="#63b8ff" points="251.92,-8.5 241.89,-11.9 251.85,-15.5 251.92,-8.5"/>
</a>
</g>
</g>
<!-- Node20&#45;&gt;Node10 -->
<g id="edge32_Node000020_Node000010" class="edge">
<title>Node20&#45;&gt;Node10</title>
<g id="a_edge32_Node000020_Node000010"><a xlink:title=" ">
<path fill="none" stroke="#63b8ff" d="M1146.84,-239.58C1140.23,-214.21 1118.53,-144.94 1072.12,-113.5 985.87,-55.06 220.42,-25.01 117.34,-20.03"/>
<polygon fill="#63b8ff" stroke="#63b8ff" points="117.71,-16.54 107.53,-19.46 117.31,-23.53 117.71,-16.54"/>
</a>
</g>
</g>
<!-- Node20&#45;&gt;Node12 -->
<g id="edge31_Node000020_Node000012" class="edge">
<title>Node20&#45;&gt;Node12</title>
<g id="a_edge31_Node000020_Node000012"><a xlink:title=" ">
<path fill="none" stroke="#63b8ff" d="M1164.21,-239.53C1175.55,-231.45 1190.4,-218.81 1198.12,-203.75 1227.26,-146.96 1226.4,-68.74 1224,-32"/>
<polygon fill="#63b8ff" stroke="#63b8ff" points="1227.51,-32.05 1223.25,-22.35 1220.53,-32.59 1227.51,-32.05"/>
</a>
</g>
</g>
<!-- Node20&#45;&gt;Node13 -->
<g id="edge34_Node000020_Node000013" class="edge">
<title>Node20&#45;&gt;Node13</title>
<g id="a_edge34_Node000020_Node000013"><a xlink:title=" ">
<path fill="none" stroke="#63b8ff" d="M1102.86,-245.62C982.36,-236.48 657.71,-211.86 506.56,-200.4"/>
<polygon fill="#63b8ff" stroke="#63b8ff" points="506.85,-196.91 496.62,-199.64 506.32,-203.89 506.85,-196.91"/>
</a>
</g>
</g>
<!-- Node21&#45;&gt;Node3 -->
<g id="edge40_Node000021_Node000003" class="edge">
<title>Node21&#45;&gt;Node3</title>
<g id="a_edge40_Node000021_Node000003"><a xlink:title=" ">
<path fill="none" stroke="#63b8ff" d="M814.2,-182.59C828.93,-175.19 846.53,-163.47 855.12,-147 862.01,-133.8 864.6,-124.99 855.12,-113.5 831,-84.24 721.48,-73.62 661.2,-69.95"/>
<polygon fill="#63b8ff" stroke="#63b8ff" points="661.54,-66.46 651.35,-69.39 661.14,-73.45 661.54,-66.46"/>
</a>
</g>
</g>
<!-- Node21&#45;&gt;Node7 -->
<g id="edge42_Node000021_Node000007" class="edge">
<title>Node21&#45;&gt;Node7</title>
<g id="a_edge42_Node000021_Node000007"><a xlink:title=" ">
<path fill="none" stroke="#63b8ff" d="M811.82,-182.55C833.76,-172.62 867.94,-157.14 893.02,-145.79"/>
<polygon fill="#63b8ff" stroke="#63b8ff" points="894.44,-148.98 902.11,-141.67 891.56,-142.61 894.44,-148.98"/>
</a>
</g>
</g>
<!-- Node21&#45;&gt;Node8 -->
<g id="edge45_Node000021_Node000008" class="edge">
<title>Node21&#45;&gt;Node8</title>
<g id="a_edge45_Node000021_Node000008"><a xlink:title=" ">
<path fill="none" stroke="#63b8ff" d="M720.7,-189.74C570.01,-183.72 217.08,-167.82 99.12,-147 94.71,-146.22 90.14,-145.21 85.61,-144.09"/>
<polygon fill="#63b8ff" stroke="#63b8ff" points="86.59,-140.72 76.02,-141.49 84.76,-147.48 86.59,-140.72"/>
</a>
</g>
</g>
<!-- Node21&#45;&gt;Node14 -->
<g id="edge37_Node000021_Node000014" class="edge">
<title>Node21&#45;&gt;Node14</title>
<g id="a_edge37_Node000021_Node000014"><a xlink:title=" ">
<path fill="none" stroke="#63b8ff" d="M720.79,-185.83C622.52,-176.36 447.73,-158.66 385.12,-147 380.23,-146.09 375.14,-144.99 370.1,-143.81"/>
<polygon fill="#63b8ff" stroke="#63b8ff" points="371.22,-140.48 360.67,-141.47 369.53,-147.27 371.22,-140.48"/>
</a>
</g>
</g>
<!-- Node21&#45;&gt;Node15 -->
<g id="edge41_Node000021_Node000015" class="edge">
<title>Node21&#45;&gt;Node15</title>
<g id="a_edge41_Node000021_Node000015"><a xlink:title=" ">
<path fill="none" stroke="#63b8ff" d="M720.56,-183.84C630.95,-172.69 483.73,-153.79 459.12,-147 457.14,-146.45 455.12,-145.82 453.11,-145.14"/>
<polygon fill="#63b8ff" stroke="#63b8ff" points="454.52,-141.93 443.93,-141.62 452.02,-148.47 454.52,-141.93"/>
</a>
</g>
</g>
<!-- Node21&#45;&gt;Node16 -->
<g id="edge44_Node000021_Node000016" class="edge">
<title>Node21&#45;&gt;Node16</title>
<g id="a_edge44_Node000021_Node000016"><a xlink:title=" ">
<path fill="none" stroke="#63b8ff" d="M720.76,-187.87C620.14,-180.99 427.94,-166.58 265.12,-147 253.67,-145.62 241.52,-143.94 229.75,-142.19"/>
<polygon fill="#63b8ff" stroke="#63b8ff" points="230.52,-138.77 220.11,-140.74 229.48,-145.69 230.52,-138.77"/>
</a>
</g>
</g>
<!-- Node21&#45;&gt;Node22 -->
<g id="edge36_Node000021_Node000022" class="edge">
<title>Node21&#45;&gt;Node22</title>
<g id="a_edge36_Node000021_Node000022"><a xlink:title=" ">
<path fill="none" stroke="#63b8ff" d="M828.78,-182.55C862.74,-173.76 913.42,-160.25 957.12,-147 959.7,-146.22 962.34,-145.4 965,-144.55"/>
<polygon fill="#63b8ff" stroke="#63b8ff" points="966.01,-147.9 974.44,-141.48 963.85,-141.25 966.01,-147.9"/>
</a>
</g>
</g>
<!-- Node23 -->
<g id="Node000023" class="node">
<title>Node23</title>
<g id="a_Node000023"><a xlink:title=" ">
<polygon fill="#e0e0e0" stroke="#999999" points="846.25,-140.62 774,-140.62 774,-119.88 846.25,-119.88 846.25,-140.62"/>
<text text-anchor="middle" x="810.12" y="-127.12" font-family="Helvetica,sans-Serif" font-size="10.00">G4Types.hh</text>
</a>
</g>
</g>
<!-- Node21&#45;&gt;Node23 -->
<g id="edge38_Node000021_Node000023" class="edge">
<title>Node21&#45;&gt;Node23</title>
<g id="a_edge38_Node000021_Node000023"><a xlink:title=" ">
<path fill="none" stroke="#63b8ff" d="M793.34,-182.55C796.07,-174.22 800.07,-161.98 803.48,-151.55"/>
<polygon fill="#63b8ff" stroke="#63b8ff" points="806.73,-152.88 806.51,-142.28 800.08,-150.7 806.73,-152.88"/>
</a>
</g>
</g>
<!-- Node24 -->
<g id="Node000024" class="node">
<title>Node24</title>
<g id="a_Node000024"><a xlink:title=" ">
<polygon fill="#e0e0e0" stroke="#999999" points="575.88,-140.62 468.38,-140.62 468.38,-119.88 575.88,-119.88 575.88,-140.62"/>
<text text-anchor="middle" x="522.12" y="-127.12" font-family="Helvetica,sans-Serif" font-size="10.00">G4VisAttributes.hh</text>
</a>
</g>
</g>
<!-- Node21&#45;&gt;Node24 -->
<g id="edge39_Node000021_Node000024" class="edge">
<title>Node21&#45;&gt;Node24</title>
<g id="a_edge39_Node000021_Node000024"><a xlink:title=" ">
<path fill="none" stroke="#63b8ff" d="M744.04,-182.55C702.44,-173.59 639.59,-159.83 585.12,-147 580.8,-145.98 576.32,-144.9 571.83,-143.81"/>
<polygon fill="#63b8ff" stroke="#63b8ff" points="572.75,-140.43 562.2,-141.44 571.08,-147.23 572.75,-140.43"/>
</a>
</g>
</g>
<!-- Node25 -->
<g id="Node000025" class="node">
<title>Node25</title>
<g id="a_Node000025"><a xlink:title=" ">
<polygon fill="#e0e0e0" stroke="#999999" points="755.88,-140.62 594.38,-140.62 594.38,-119.88 755.88,-119.88 755.88,-140.62"/>
<text text-anchor="middle" x="675.12" y="-127.12" font-family="Helvetica,sans-Serif" font-size="10.00">CLHEP/Units/SystemOfUnits.h</text>
</a>
</g>
</g>
<!-- Node21&#45;&gt;Node25 -->
<g id="edge43_Node000021_Node000025" class="edge">
<title>Node21&#45;&gt;Node25</title>
<g id="a_edge43_Node000021_Node000025"><a xlink:title=" ">
<path fill="none" stroke="#63b8ff" d="M771.65,-182.55C753.29,-172.8 724.88,-157.7 703.63,-146.4"/>
<polygon fill="#63b8ff" stroke="#63b8ff" points="705.37,-143.36 694.89,-141.76 702.08,-149.54 705.37,-143.36"/>
</a>
</g>
</g>
<!-- Node27&#45;&gt;Node13 -->
<g id="edge57_Node000027_Node000013" class="edge">
<title>Node27&#45;&gt;Node13</title>
<g id="a_edge57_Node000027_Node000013"><a xlink:title=" ">
<path fill="none" stroke="#63b8ff" d="M515,-239.34C498.64,-230.97 474.85,-218.79 456.15,-209.22"/>
<polygon fill="#63b8ff" stroke="#63b8ff" points="457.93,-206.21 447.44,-204.77 454.74,-212.44 457.93,-206.21"/>
</a>
</g>
</g>
</g>
</svg>
