<?xml version="1.0" encoding="UTF-8" standalone="no"?>
<!DOCTYPE svg PUBLIC "-//W3C//DTD SVG 1.1//EN"
 "http://www.w3.org/Graphics/SVG/1.1/DTD/svg11.dtd">
<!-- Generated by graphviz version 12.0.0 (20240803.0821)
 -->
<!-- Title: include/AssemblyCore.hh Pages: 1 -->
<svg width="1563pt" height="269pt"
 viewBox="0.00 0.00 1563.16 268.50" xmlns="http://www.w3.org/2000/svg" xmlns:xlink="http://www.w3.org/1999/xlink">
<g id="graph0" class="graph" transform="scale(1 1) rotate(0) translate(4 264.5)">
<title>include/AssemblyCore.hh</title>
<!-- Node1 -->
<g id="Node000001" class="node">
<title>Node1</title>
<g id="a_Node000001"><a xlink:title=" ">
<polygon fill="#999999" stroke="#666666" points="342.28,-260.5 202.53,-260.5 202.53,-239.75 342.28,-239.75 342.28,-260.5"/>
<text text-anchor="middle" x="272.41" y="-247" font-family="Helvetica,sans-Serif" font-size="10.00">include/AssemblyCore.hh</text>
</a>
</g>
</g>
<!-- Node2 -->
<g id="Node000002" class="node">
<title>Node2</title>
<g id="a_Node000002"><a xlink:href="VolumeBuilderBase_8hh.html" target="_top" xlink:title=" ">
<polygon fill="white" stroke="#666666" points="721.66,-203.75 557.16,-203.75 557.16,-183 721.66,-183 721.66,-203.75"/>
<text text-anchor="middle" x="639.41" y="-190.25" font-family="Helvetica,sans-Serif" font-size="10.00">include/VolumeBuilderBase.hh</text>
</a>
</g>
</g>
<!-- Node1&#45;&gt;Node2 -->
<g id="edge1_Node000001_Node000002" class="edge">
<title>Node1&#45;&gt;Node2</title>
<g id="a_edge1_Node000001_Node000002"><a xlink:title=" ">
<path fill="none" stroke="#63b8ff" d="M349.65,-237.6C415.94,-227.71 510.44,-213.62 573.28,-204.24"/>
<polygon fill="#63b8ff" stroke="#63b8ff" points="349.32,-234.11 339.94,-239.05 350.35,-241.04 349.32,-234.11"/>
</a>
</g>
</g>
<!-- Node4 -->
<g id="Node000004" class="node">
<title>Node4</title>
<g id="a_Node000004"><a xlink:href="VolumeBuilders_8hh.html" target="_top" xlink:title=" ">
<polygon fill="white" stroke="#666666" points="1285.28,-90.25 1139.53,-90.25 1139.53,-69.5 1285.28,-69.5 1285.28,-90.25"/>
<text text-anchor="middle" x="1212.41" y="-76.75" font-family="Helvetica,sans-Serif" font-size="10.00">include/VolumeBuilders.hh</text>
</a>
</g>
</g>
<!-- Node1&#45;&gt;Node4 -->
<g id="edge34_Node000001_Node000004" class="edge">
<title>Node1&#45;&gt;Node4</title>
<g id="a_edge34_Node000001_Node000004"><a xlink:title=" ">
<path fill="none" stroke="#63b8ff" d="M354.06,-241.26C445.69,-232.39 598.74,-217.4 730.41,-203.75 963.41,-179.59 1097.94,-321.33 1254.41,-147 1270.58,-128.98 1243.96,-104.05 1226.23,-90.53"/>
<polygon fill="#63b8ff" stroke="#63b8ff" points="353.77,-237.77 344.16,-242.22 354.45,-244.74 353.77,-237.77"/>
</a>
</g>
</g>
<!-- Node11 -->
<g id="Node000011" class="node">
<title>Node11</title>
<g id="a_Node000011"><a xlink:href="VolumeBuilderBase_8cc.html" target="_top" xlink:title=" ">
<polygon fill="white" stroke="#666666" points="792.41,-27.12 650.41,-27.12 650.41,-6.38 792.41,-6.38 792.41,-27.12"/>
<text text-anchor="middle" x="721.41" y="-13.62" font-family="Helvetica,sans-Serif" font-size="10.00">src/VolumeBuilderBase.cc</text>
</a>
</g>
</g>
<!-- Node1&#45;&gt;Node11 -->
<g id="edge36_Node000001_Node000011" class="edge">
<title>Node1&#45;&gt;Node11</title>
<g id="a_edge36_Node000001_Node000011"><a xlink:title=" ">
<path fill="none" stroke="#63b8ff" d="M222.52,-236.34C129.36,-210.26 -55.42,-146.8 16.41,-69.5 58.91,-23.76 479.33,-18.04 649.98,-17.62"/>
<polygon fill="#63b8ff" stroke="#63b8ff" points="221.38,-239.65 231.95,-238.93 223.23,-232.9 221.38,-239.65"/>
</a>
</g>
</g>
<!-- Node16 -->
<g id="Node000016" class="node">
<title>Node16</title>
<g id="a_Node000016"><a xlink:href="VolumeBuilderBase_8hpp.html" target="_top" xlink:title=" ">
<polygon fill="white" stroke="#666666" points="195.66,-90.25 25.16,-90.25 25.16,-69.5 195.66,-69.5 195.66,-90.25"/>
<text text-anchor="middle" x="110.41" y="-76.75" font-family="Helvetica,sans-Serif" font-size="10.00">include/VolumeBuilderBase.hpp</text>
</a>
</g>
</g>
<!-- Node1&#45;&gt;Node16 -->
<g id="edge33_Node000001_Node000016" class="edge">
<title>Node1&#45;&gt;Node16</title>
<g id="a_edge33_Node000001_Node000016"><a xlink:title=" ">
<path fill="none" stroke="#63b8ff" d="M255.58,-231.65C221.74,-196.5 146.42,-118.28 119.88,-90.72"/>
<polygon fill="#63b8ff" stroke="#63b8ff" points="252.73,-233.73 262.18,-238.51 257.77,-228.88 252.73,-233.73"/>
</a>
</g>
</g>
<!-- Node18 -->
<g id="Node000018" class="node">
<title>Node18</title>
<g id="a_Node000018"><a xlink:href="AssemblyCore_8cc.html" target="_top" xlink:title="Created by.">
<polygon fill="white" stroke="#666666" points="331.03,-90.25 213.78,-90.25 213.78,-69.5 331.03,-69.5 331.03,-90.25"/>
<text text-anchor="middle" x="272.41" y="-76.75" font-family="Helvetica,sans-Serif" font-size="10.00">src/AssemblyCore.cc</text>
</a>
</g>
</g>
<!-- Node1&#45;&gt;Node18 -->
<g id="edge35_Node000001_Node000018" class="edge">
<title>Node1&#45;&gt;Node18</title>
<g id="a_edge35_Node000001_Node000018"><a xlink:title=" ">
<path fill="none" stroke="#63b8ff" d="M272.41,-228.41C272.41,-191.9 272.41,-117.46 272.41,-90.72"/>
<polygon fill="#63b8ff" stroke="#63b8ff" points="268.91,-228.08 272.41,-238.08 275.91,-228.08 268.91,-228.08"/>
</a>
</g>
</g>
<!-- Node3 -->
<g id="Node000003" class="node">
<title>Node3</title>
<g id="a_Node000003"><a xlink:href="BoxBuilderCore_8hh.html" target="_top" xlink:title=" ">
<polygon fill="white" stroke="#666666" points="843.91,-147 698.91,-147 698.91,-126.25 843.91,-126.25 843.91,-147"/>
<text text-anchor="middle" x="771.41" y="-133.5" font-family="Helvetica,sans-Serif" font-size="10.00">include/BoxBuilderCore.hh</text>
</a>
</g>
</g>
<!-- Node2&#45;&gt;Node3 -->
<g id="edge2_Node000002_Node000003" class="edge">
<title>Node2&#45;&gt;Node3</title>
<g id="a_edge2_Node000002_Node000003"><a xlink:title=" ">
<path fill="none" stroke="#63b8ff" d="M673.52,-178.22C696.91,-168.52 727.34,-155.91 748.01,-147.33"/>
<polygon fill="#63b8ff" stroke="#63b8ff" points="672.3,-174.94 664.4,-182.01 674.98,-181.41 672.3,-174.94"/>
</a>
</g>
</g>
<!-- Node2&#45;&gt;Node11 -->
<g id="edge31_Node000002_Node000011" class="edge">
<title>Node2&#45;&gt;Node11</title>
<g id="a_edge31_Node000002_Node000011"><a xlink:title=" ">
<path fill="none" stroke="#63b8ff" d="M733.12,-180.82C781.57,-173.24 834.46,-161.95 853.41,-147 875.34,-129.7 874.26,-117.5 880.41,-90.25 882.44,-81.25 885.83,-76.96 880.41,-69.5 860.28,-41.78 824.93,-28.62 792.66,-22.49"/>
<polygon fill="#63b8ff" stroke="#63b8ff" points="732.76,-177.33 723.4,-182.29 733.81,-184.25 732.76,-177.33"/>
</a>
</g>
</g>
<!-- Node12 -->
<g id="Node000012" class="node">
<title>Node12</title>
<g id="a_Node000012"><a xlink:href="FromG4VSolidCore_8hh.html" target="_top" xlink:title=" ">
<polygon fill="white" stroke="#666666" points="1245.78,-147 1085.03,-147 1085.03,-126.25 1245.78,-126.25 1245.78,-147"/>
<text text-anchor="middle" x="1165.41" y="-133.5" font-family="Helvetica,sans-Serif" font-size="10.00">include/FromG4VSolidCore.hh</text>
</a>
</g>
</g>
<!-- Node2&#45;&gt;Node12 -->
<g id="edge11_Node000002_Node000012" class="edge">
<title>Node2&#45;&gt;Node12</title>
<g id="a_edge11_Node000002_Node000012"><a xlink:title=" ">
<path fill="none" stroke="#63b8ff" d="M733.33,-182.66C821.82,-173.5 958.13,-159.37 1076.41,-147 1079.19,-146.71 1082.02,-146.41 1084.88,-146.11"/>
<polygon fill="#63b8ff" stroke="#63b8ff" points="733.06,-179.17 723.47,-183.68 733.78,-186.14 733.06,-179.17"/>
</a>
</g>
</g>
<!-- Node13 -->
<g id="Node000013" class="node">
<title>Node13</title>
<g id="a_Node000013"><a xlink:href="FromG4VSolidCore_8cc.html" target="_top" xlink:title=" ">
<polygon fill="white" stroke="#666666" points="1441.53,-90.25 1303.28,-90.25 1303.28,-69.5 1441.53,-69.5 1441.53,-90.25"/>
<text text-anchor="middle" x="1372.41" y="-76.75" font-family="Helvetica,sans-Serif" font-size="10.00">src/FromG4VSolidCore.cc</text>
</a>
</g>
</g>
<!-- Node2&#45;&gt;Node13 -->
<g id="edge29_Node000002_Node000013" class="edge">
<title>Node2&#45;&gt;Node13</title>
<g id="a_edge29_Node000002_Node000013"><a xlink:title=" ">
<path fill="none" stroke="#63b8ff" d="M733.36,-190.42C880.84,-186.51 1159.61,-175.52 1254.41,-147 1295.79,-134.55 1338.64,-105.84 1359.48,-90.67"/>
<polygon fill="#63b8ff" stroke="#63b8ff" points="733.53,-186.91 723.62,-190.67 733.71,-193.91 733.53,-186.91"/>
</a>
</g>
</g>
<!-- Node14 -->
<g id="Node000014" class="node">
<title>Node14</title>
<g id="a_Node000014"><a xlink:href="RZBuilderCore_8hh.html" target="_top" xlink:title=" ">
<polygon fill="white" stroke="#666666" points="1067.28,-147 927.53,-147 927.53,-126.25 1067.28,-126.25 1067.28,-147"/>
<text text-anchor="middle" x="997.41" y="-133.5" font-family="Helvetica,sans-Serif" font-size="10.00">include/RZBuilderCore.hh</text>
</a>
</g>
</g>
<!-- Node2&#45;&gt;Node14 -->
<g id="edge15_Node000002_Node000014" class="edge">
<title>Node2&#45;&gt;Node14</title>
<g id="a_edge15_Node000002_Node000014"><a xlink:title=" ">
<path fill="none" stroke="#63b8ff" d="M715.16,-180.79C779.8,-170.9 871.73,-156.85 932.91,-147.49"/>
<polygon fill="#63b8ff" stroke="#63b8ff" points="714.68,-177.32 705.32,-182.29 715.73,-184.24 714.68,-177.32"/>
</a>
</g>
</g>
<!-- Node2&#45;&gt;Node16 -->
<g id="edge19_Node000002_Node000016" class="edge">
<title>Node2&#45;&gt;Node16</title>
<g id="a_edge19_Node000002_Node000016"><a xlink:title=" ">
<path fill="none" stroke="#63b8ff" d="M557.06,-180.88C502,-172.69 428.07,-160.73 363.41,-147 283.92,-130.12 191.9,-104.51 143.73,-90.64"/>
<polygon fill="#63b8ff" stroke="#63b8ff" points="556.26,-184.3 566.67,-182.3 557.28,-177.37 556.26,-184.3"/>
</a>
</g>
</g>
<!-- Node17 -->
<g id="Node000017" class="node">
<title>Node17</title>
<g id="a_Node000017"><a xlink:href="VolumeBuilderCore_8hh.html" target="_top" xlink:title=" ">
<polygon fill="white" stroke="#666666" points="610.91,-147 447.91,-147 447.91,-126.25 610.91,-126.25 610.91,-147"/>
<text text-anchor="middle" x="529.41" y="-133.5" font-family="Helvetica,sans-Serif" font-size="10.00">include/VolumeBuilderCore.hh</text>
</a>
</g>
</g>
<!-- Node2&#45;&gt;Node17 -->
<g id="edge21_Node000002_Node000017" class="edge">
<title>Node2&#45;&gt;Node17</title>
<g id="a_edge21_Node000002_Node000017"><a xlink:title=" ">
<path fill="none" stroke="#63b8ff" d="M609.65,-177.56C590.34,-167.95 565.75,-155.71 548.9,-147.33"/>
<polygon fill="#63b8ff" stroke="#63b8ff" points="607.88,-180.59 618.39,-181.91 610.99,-174.32 607.88,-180.59"/>
</a>
</g>
</g>
<!-- Node2&#45;&gt;Node18 -->
<g id="edge28_Node000002_Node000018" class="edge">
<title>Node2&#45;&gt;Node18</title>
<g id="a_edge28_Node000002_Node000018"><a xlink:title=" ">
<path fill="none" stroke="#63b8ff" d="M564.4,-180.54C522.39,-172.94 469.37,-161.72 423.41,-147 374.35,-131.29 319.63,-104.98 291.46,-90.74"/>
<polygon fill="#63b8ff" stroke="#63b8ff" points="563.72,-183.97 574.17,-182.27 564.94,-177.08 563.72,-183.97"/>
</a>
</g>
</g>
<!-- Node19 -->
<g id="Node000019" class="node">
<title>Node19</title>
<g id="a_Node000019"><a xlink:href="StructureBuilderCore_8cc.html" target="_top" xlink:title="Created by.">
<polygon fill="white" stroke="#666666" points="497.41,-90.25 349.41,-90.25 349.41,-69.5 497.41,-69.5 497.41,-90.25"/>
<text text-anchor="middle" x="423.41" y="-76.75" font-family="Helvetica,sans-Serif" font-size="10.00">src/StructureBuilderCore.cc</text>
</a>
</g>
</g>
<!-- Node2&#45;&gt;Node19 -->
<g id="edge30_Node000002_Node000019" class="edge">
<title>Node2&#45;&gt;Node19</title>
<g id="a_edge30_Node000002_Node000019"><a xlink:title=" ">
<path fill="none" stroke="#63b8ff" d="M545.76,-180.74C501.48,-173.38 454.95,-162.32 439.41,-147 424.1,-131.91 422.47,-104.85 422.81,-90.47"/>
<polygon fill="#63b8ff" stroke="#63b8ff" points="545.02,-184.16 555.45,-182.29 546.13,-177.25 545.02,-184.16"/>
</a>
</g>
</g>
<!-- Node20 -->
<g id="Node000020" class="node">
<title>Node20</title>
<g id="a_Node000020"><a xlink:href="VolumeBuilderCore_8cc.html" target="_top" xlink:title="Created by.">
<polygon fill="white" stroke="#666666" points="693.66,-90.25 553.16,-90.25 553.16,-69.5 693.66,-69.5 693.66,-90.25"/>
<text text-anchor="middle" x="623.41" y="-76.75" font-family="Helvetica,sans-Serif" font-size="10.00">src/VolumeBuilderCore.cc</text>
</a>
</g>
</g>
<!-- Node2&#45;&gt;Node20 -->
<g id="edge32_Node000002_Node000020" class="edge">
<title>Node2&#45;&gt;Node20</title>
<g id="a_edge32_Node000002_Node000020"><a xlink:title=" ">
<path fill="none" stroke="#63b8ff" d="M636.46,-171.8C633,-147.7 627.41,-108.75 624.81,-90.68"/>
<polygon fill="#63b8ff" stroke="#63b8ff" points="632.94,-171.97 637.83,-181.37 639.87,-170.97 632.94,-171.97"/>
</a>
</g>
</g>
<!-- Node3&#45;&gt;Node4 -->
<g id="edge3_Node000003_Node000004" class="edge">
<title>Node3&#45;&gt;Node4</title>
<g id="a_edge3_Node000003_Node000004"><a xlink:title=" ">
<path fill="none" stroke="#63b8ff" d="M855.52,-125.18C937.53,-115 1061,-99.67 1139.11,-89.97"/>
<polygon fill="#63b8ff" stroke="#63b8ff" points="855.22,-121.69 845.73,-126.4 856.09,-128.64 855.22,-121.69"/>
</a>
</g>
</g>
<!-- Node10 -->
<g id="Node000010" class="node">
<title>Node10</title>
<g id="a_Node000010"><a xlink:href="BoxBuilderCore_8cc.html" target="_top" xlink:title=" ">
<polygon fill="white" stroke="#666666" points="871.66,-90.25 749.16,-90.25 749.16,-69.5 871.66,-69.5 871.66,-90.25"/>
<text text-anchor="middle" x="810.41" y="-76.75" font-family="Helvetica,sans-Serif" font-size="10.00">src/BoxBuilderCore.cc</text>
</a>
</g>
</g>
<!-- Node3&#45;&gt;Node10 -->
<g id="edge9_Node000003_Node000010" class="edge">
<title>Node3&#45;&gt;Node10</title>
<g id="a_edge9_Node000003_Node000010"><a xlink:title=" ">
<path fill="none" stroke="#63b8ff" d="M784.91,-116.67C791.17,-107.88 798.35,-97.8 803.5,-90.58"/>
<polygon fill="#63b8ff" stroke="#63b8ff" points="782.21,-114.43 779.26,-124.6 787.91,-118.49 782.21,-114.43"/>
</a>
</g>
</g>
<!-- Node3&#45;&gt;Node11 -->
<g id="edge10_Node000003_Node000011" class="edge">
<title>Node3&#45;&gt;Node11</title>
<g id="a_edge10_Node000003_Node000011"><a xlink:title=" ">
<path fill="none" stroke="#63b8ff" d="M756.41,-116.82C750.74,-108.97 744.64,-99.53 740.41,-90.25 730.69,-68.94 725.24,-41.75 722.87,-27.49"/>
<polygon fill="#63b8ff" stroke="#63b8ff" points="753.46,-118.71 762.28,-124.57 759.04,-114.48 753.46,-118.71"/>
</a>
</g>
</g>
<!-- Node5 -->
<g id="Node000005" class="node">
<title>Node5</title>
<g id="a_Node000005"><a xlink:href="ConstructAssembly_8cc.html" target="_top" xlink:title="Created by.">
<polygon fill="white" stroke="#666666" points="1555.16,-33.5 1429.66,-33.5 1429.66,0 1555.16,0 1555.16,-33.5"/>
<text text-anchor="start" x="1437.66" y="-20" font-family="Helvetica,sans-Serif" font-size="10.00">demo/src/Geometries</text>
<text text-anchor="middle" x="1492.41" y="-7.25" font-family="Helvetica,sans-Serif" font-size="10.00">/ConstructAssembly.cc</text>
</a>
</g>
</g>
<!-- Node4&#45;&gt;Node5 -->
<g id="edge4_Node000004_Node000005" class="edge">
<title>Node4&#45;&gt;Node5</title>
<g id="a_edge4_Node000004_Node000005"><a xlink:title=" ">
<path fill="none" stroke="#63b8ff" d="M1269.21,-66.62C1311.25,-57.52 1369.92,-44.8 1421.41,-33.5 1424,-32.93 1426.64,-32.35 1429.31,-31.76"/>
<polygon fill="#63b8ff" stroke="#63b8ff" points="1268.6,-63.17 1259.56,-68.7 1270.08,-70.01 1268.6,-63.17"/>
</a>
</g>
</g>
<!-- Node6 -->
<g id="Node000006" class="node">
<title>Node6</title>
<g id="a_Node000006"><a xlink:href="ConstructBoxExample_8cc.html" target="_top" xlink:title="Created by.">
<polygon fill="white" stroke="#666666" points="988.66,-33.5 848.16,-33.5 848.16,0 988.66,0 988.66,-33.5"/>
<text text-anchor="start" x="856.16" y="-20" font-family="Helvetica,sans-Serif" font-size="10.00">demo/src/Geometries</text>
<text text-anchor="middle" x="918.41" y="-7.25" font-family="Helvetica,sans-Serif" font-size="10.00">/ConstructBoxExample.cc</text>
</a>
</g>
</g>
<!-- Node4&#45;&gt;Node6 -->
<g id="edge5_Node000004_Node000006" class="edge">
<title>Node4&#45;&gt;Node6</title>
<g id="a_edge5_Node000004_Node000006"><a xlink:title=" ">
<path fill="none" stroke="#63b8ff" d="M1154.17,-66.77C1106.74,-56.91 1039.63,-42.95 989.12,-32.45"/>
<polygon fill="#63b8ff" stroke="#63b8ff" points="1153.19,-70.14 1163.69,-68.75 1154.61,-63.28 1153.19,-70.14"/>
</a>
</g>
</g>
<!-- Node7 -->
<g id="Node000007" class="node">
<title>Node7</title>
<g id="a_Node000007"><a xlink:href="ConstructExample1_8cc.html" target="_top" xlink:title="Created by.">
<polygon fill="white" stroke="#666666" points="1134.28,-33.5 1006.53,-33.5 1006.53,0 1134.28,0 1134.28,-33.5"/>
<text text-anchor="start" x="1014.53" y="-20" font-family="Helvetica,sans-Serif" font-size="10.00">demo/src/Geometries</text>
<text text-anchor="middle" x="1070.41" y="-7.25" font-family="Helvetica,sans-Serif" font-size="10.00">/ConstructExample1.cc</text>
</a>
</g>
</g>
<!-- Node4&#45;&gt;Node7 -->
<g id="edge6_Node000004_Node000007" class="edge">
<title>Node4&#45;&gt;Node7</title>
<g id="a_edge6_Node000004_Node000007"><a xlink:title=" ">
<path fill="none" stroke="#63b8ff" d="M1179.11,-64.54C1157.84,-55.39 1130.21,-43.49 1108.12,-33.98"/>
<polygon fill="#63b8ff" stroke="#63b8ff" points="1177.63,-67.72 1188.2,-68.46 1180.4,-61.29 1177.63,-67.72"/>
</a>
</g>
</g>
<!-- Node8 -->
<g id="Node000008" class="node">
<title>Node8</title>
<g id="a_Node000008"><a xlink:href="ConstructHexPart_8cc.html" target="_top" xlink:title=" ">
<polygon fill="white" stroke="#666666" points="1272.91,-33.5 1151.91,-33.5 1151.91,0 1272.91,0 1272.91,-33.5"/>
<text text-anchor="start" x="1159.91" y="-20" font-family="Helvetica,sans-Serif" font-size="10.00">demo/src/Geometries</text>
<text text-anchor="middle" x="1212.41" y="-7.25" font-family="Helvetica,sans-Serif" font-size="10.00">/ConstructHexPart.cc</text>
</a>
</g>
</g>
<!-- Node4&#45;&gt;Node8 -->
<g id="edge7_Node000004_Node000008" class="edge">
<title>Node4&#45;&gt;Node8</title>
<g id="a_edge7_Node000004_Node000008"><a xlink:title=" ">
<path fill="none" stroke="#63b8ff" d="M1212.41,-57.59C1212.41,-49.85 1212.41,-41.22 1212.41,-33.98"/>
<polygon fill="#63b8ff" stroke="#63b8ff" points="1208.91,-57.54 1212.41,-67.54 1215.91,-57.54 1208.91,-57.54"/>
</a>
</g>
</g>
<!-- Node9 -->
<g id="Node000009" class="node">
<title>Node9</title>
<g id="a_Node000009"><a xlink:href="ConstructWorld_8cc.html" target="_top" xlink:title=" ">
<polygon fill="white" stroke="#666666" points="1411.91,-33.5 1290.91,-33.5 1290.91,0 1411.91,0 1411.91,-33.5"/>
<text text-anchor="start" x="1298.91" y="-20" font-family="Helvetica,sans-Serif" font-size="10.00">demo/src/Geometries</text>
<text text-anchor="middle" x="1351.41" y="-7.25" font-family="Helvetica,sans-Serif" font-size="10.00">/ConstructWorld.cc</text>
</a>
</g>
</g>
<!-- Node4&#45;&gt;Node9 -->
<g id="edge8_Node000004_Node000009" class="edge">
<title>Node4&#45;&gt;Node9</title>
<g id="a_edge8_Node000004_Node000009"><a xlink:title=" ">
<path fill="none" stroke="#63b8ff" d="M1245,-64.54C1265.82,-55.39 1292.87,-43.49 1314.49,-33.98"/>
<polygon fill="#63b8ff" stroke="#63b8ff" points="1243.87,-61.22 1236.13,-68.44 1246.69,-67.62 1243.87,-61.22"/>
</a>
</g>
</g>
<!-- Node12&#45;&gt;Node4 -->
<g id="edge12_Node000012_Node000004" class="edge">
<title>Node12&#45;&gt;Node4</title>
<g id="a_edge12_Node000012_Node000004"><a xlink:title=" ">
<path fill="none" stroke="#63b8ff" d="M1181.19,-117.24C1188.85,-108.31 1197.75,-97.95 1204.08,-90.58"/>
<polygon fill="#63b8ff" stroke="#63b8ff" points="1178.65,-114.82 1174.8,-124.69 1183.97,-119.38 1178.65,-114.82"/>
</a>
</g>
</g>
<!-- Node12&#45;&gt;Node11 -->
<g id="edge14_Node000012_Node000011" class="edge">
<title>Node12&#45;&gt;Node11</title>
<g id="a_edge14_Node000012_Node000011"><a xlink:title=" ">
<path fill="none" stroke="#63b8ff" d="M1146.53,-118.48C1128.39,-103.04 1099.52,-81.05 1070.41,-69.5 1057.63,-64.43 891.19,-41.03 792.85,-27.49"/>
<polygon fill="#63b8ff" stroke="#63b8ff" points="1144.01,-120.93 1153.84,-124.87 1148.61,-115.66 1144.01,-120.93"/>
</a>
</g>
</g>
<!-- Node12&#45;&gt;Node13 -->
<g id="edge13_Node000012_Node000013" class="edge">
<title>Node12&#45;&gt;Node13</title>
<g id="a_edge13_Node000012_Node000013"><a xlink:title=" ">
<path fill="none" stroke="#63b8ff" d="M1213.48,-122.91C1250.64,-113.08 1301.32,-99.68 1335.37,-90.67"/>
<polygon fill="#63b8ff" stroke="#63b8ff" points="1212.65,-119.51 1203.88,-125.45 1214.44,-126.28 1212.65,-119.51"/>
</a>
</g>
</g>
<!-- Node14&#45;&gt;Node4 -->
<g id="edge16_Node000014_Node000004" class="edge">
<title>Node14&#45;&gt;Node4</title>
<g id="a_edge16_Node000014_Node000004"><a xlink:title=" ">
<path fill="none" stroke="#63b8ff" d="M1046.84,-123.04C1085.48,-113.2 1138.42,-99.72 1173.94,-90.67"/>
<polygon fill="#63b8ff" stroke="#63b8ff" points="1046.14,-119.6 1037.31,-125.46 1047.87,-126.39 1046.14,-119.6"/>
</a>
</g>
</g>
<!-- Node14&#45;&gt;Node11 -->
<g id="edge18_Node000014_Node000011" class="edge">
<title>Node14&#45;&gt;Node11</title>
<g id="a_edge18_Node000014_Node000011"><a xlink:title=" ">
<path fill="none" stroke="#63b8ff" d="M1026.15,-119.94C1047.02,-106.56 1069.22,-86.79 1054.41,-69.5 1050.14,-64.52 888.59,-41.14 792.1,-27.57"/>
<polygon fill="#63b8ff" stroke="#63b8ff" points="1024.53,-116.83 1017.78,-125 1028.15,-122.82 1024.53,-116.83"/>
</a>
</g>
</g>
<!-- Node15 -->
<g id="Node000015" class="node">
<title>Node15</title>
<g id="a_Node000015"><a xlink:href="RZBuilderCore_8cc.html" target="_top" xlink:title=" ">
<polygon fill="white" stroke="#666666" points="1045.03,-90.25 927.78,-90.25 927.78,-69.5 1045.03,-69.5 1045.03,-90.25"/>
<text text-anchor="middle" x="986.41" y="-76.75" font-family="Helvetica,sans-Serif" font-size="10.00">src/RZBuilderCore.cc</text>
</a>
</g>
</g>
<!-- Node14&#45;&gt;Node15 -->
<g id="edge17_Node000014_Node000015" class="edge">
<title>Node14&#45;&gt;Node15</title>
<g id="a_edge17_Node000014_Node000015"><a xlink:title=" ">
<path fill="none" stroke="#63b8ff" d="M993.2,-114.67C991.53,-106.38 989.7,-97.25 988.36,-90.58"/>
<polygon fill="#63b8ff" stroke="#63b8ff" points="989.74,-115.24 995.14,-124.35 996.6,-113.86 989.74,-115.24"/>
</a>
</g>
</g>
<!-- Node16&#45;&gt;Node11 -->
<g id="edge20_Node000016_Node000011" class="edge">
<title>Node16&#45;&gt;Node11</title>
<g id="a_edge20_Node000016_Node000011"><a xlink:title=" ">
<path fill="none" stroke="#63b8ff" d="M207.29,-69.18C330.58,-56.85 540.62,-35.84 650.17,-24.88"/>
<polygon fill="#63b8ff" stroke="#63b8ff" points="207.12,-65.68 197.51,-70.16 207.81,-72.65 207.12,-65.68"/>
</a>
</g>
</g>
<!-- Node17&#45;&gt;Node4 -->
<g id="edge23_Node000017_Node000004" class="edge">
<title>Node17&#45;&gt;Node4</title>
<g id="a_edge23_Node000017_Node000004"><a xlink:title=" ">
<path fill="none" stroke="#63b8ff" d="M622.42,-128.17C759.81,-117.16 1014.18,-96.77 1139.19,-86.74"/>
<polygon fill="#63b8ff" stroke="#63b8ff" points="622.31,-124.67 612.62,-128.95 622.87,-131.64 622.31,-124.67"/>
</a>
</g>
</g>
<!-- Node17&#45;&gt;Node11 -->
<g id="edge26_Node000017_Node000011" class="edge">
<title>Node17&#45;&gt;Node11</title>
<g id="a_edge26_Node000017_Node000011"><a xlink:title=" ">
<path fill="none" stroke="#63b8ff" d="M528.89,-114.83C529.65,-100.36 533.06,-81.57 544.41,-69.5 571.5,-40.7 613.64,-27.64 650.01,-21.84"/>
<polygon fill="#63b8ff" stroke="#63b8ff" points="525.39,-114.6 528.78,-124.64 532.39,-114.68 525.39,-114.6"/>
</a>
</g>
</g>
<!-- Node17&#45;&gt;Node16 -->
<g id="edge22_Node000017_Node000016" class="edge">
<title>Node17&#45;&gt;Node16</title>
<g id="a_edge22_Node000017_Node000016"><a xlink:title=" ">
<path fill="none" stroke="#63b8ff" d="M442.62,-124.28C366.88,-114.39 258.1,-100.17 185.9,-90.74"/>
<polygon fill="#63b8ff" stroke="#63b8ff" points="442.15,-127.75 452.51,-125.58 443.05,-120.81 442.15,-127.75"/>
</a>
</g>
</g>
<!-- Node17&#45;&gt;Node18 -->
<g id="edge24_Node000017_Node000018" class="edge">
<title>Node17&#45;&gt;Node18</title>
<g id="a_edge24_Node000017_Node000018"><a xlink:title=" ">
<path fill="none" stroke="#63b8ff" d="M472.12,-123.42C425.9,-113.57 361.72,-99.9 318.71,-90.74"/>
<polygon fill="#63b8ff" stroke="#63b8ff" points="471.17,-126.8 481.68,-125.46 472.63,-119.95 471.17,-126.8"/>
</a>
</g>
</g>
<!-- Node17&#45;&gt;Node19 -->
<g id="edge25_Node000017_Node000019" class="edge">
<title>Node17&#45;&gt;Node19</title>
<g id="a_edge25_Node000017_Node000019"><a xlink:title=" ">
<path fill="none" stroke="#63b8ff" d="M500.47,-120.68C481.91,-111.09 458.35,-98.92 442.19,-90.58"/>
<polygon fill="#63b8ff" stroke="#63b8ff" points="498.62,-123.66 509.11,-125.14 501.83,-117.44 498.62,-123.66"/>
</a>
</g>
</g>
<!-- Node17&#45;&gt;Node20 -->
<g id="edge27_Node000017_Node000020" class="edge">
<title>Node17&#45;&gt;Node20</title>
<g id="a_edge27_Node000017_Node000020"><a xlink:title=" ">
<path fill="none" stroke="#63b8ff" d="M555.76,-120.28C572.11,-110.75 592.62,-98.81 606.75,-90.58"/>
<polygon fill="#63b8ff" stroke="#63b8ff" points="554.4,-117.02 547.52,-125.08 557.92,-123.07 554.4,-117.02"/>
</a>
</g>
</g>
</g>
</svg>
