<?xml version="1.0" encoding="UTF-8" standalone="no"?>
<!DOCTYPE svg PUBLIC "-//W3C//DTD SVG 1.1//EN"
 "http://www.w3.org/Graphics/SVG/1.1/DTD/svg11.dtd">
<!-- Generated by graphviz version 12.0.0 (20240803.0821)
 -->
<!-- Title: include/AssemblyCore.hh Pages: 1 -->
<svg width="1931pt" height="382pt"
 viewBox="0.00 0.00 1930.64 382.00" xmlns="http://www.w3.org/2000/svg" xmlns:xlink="http://www.w3.org/1999/xlink">
<g id="graph0" class="graph" transform="scale(1 1) rotate(0) translate(4 378)">
<title>include/AssemblyCore.hh</title>
<!-- Node1 -->
<g id="Node000001" class="node">
<title>Node1</title>
<g id="a_Node000001"><a xlink:title=" ">
<polygon fill="#999999" stroke="#666666" points="298.88,-374 159.12,-374 159.12,-353.25 298.88,-353.25 298.88,-374"/>
<text text-anchor="middle" x="229" y="-360.5" font-family="Helvetica,sans-Serif" font-size="10.00">include/AssemblyCore.hh</text>
</a>
</g>
</g>
<!-- Node2 -->
<g id="Node000002" class="node">
<title>Node2</title>
<g id="a_Node000002"><a xlink:href="Linkable_8hh.html" target="_top" xlink:title=" ">
<polygon fill="white" stroke="#666666" points="339.75,-203.75 268.25,-203.75 268.25,-183 339.75,-183 339.75,-203.75"/>
<text text-anchor="middle" x="304" y="-190.25" font-family="Helvetica,sans-Serif" font-size="10.00">Linkable.hh</text>
</a>
</g>
</g>
<!-- Node1&#45;&gt;Node2 -->
<g id="edge1_Node000001_Node000002" class="edge">
<title>Node1&#45;&gt;Node2</title>
<g id="a_edge1_Node000001_Node000002"><a xlink:title=" ">
<path fill="none" stroke="#63b8ff" d="M209.91,-352.77C197.15,-345.03 181.39,-332.93 174,-317.25 159.31,-286.09 154.06,-267.83 174,-239.75 192.63,-213.51 227.62,-202.32 256.61,-197.61"/>
<polygon fill="#63b8ff" stroke="#63b8ff" points="256.86,-201.11 266.29,-196.26 255.9,-194.17 256.86,-201.11"/>
</a>
</g>
</g>
<!-- Node5 -->
<g id="Node000005" class="node">
<title>Node5</title>
<g id="a_Node000005"><a xlink:title=" ">
<polygon fill="#e0e0e0" stroke="#999999" points="64,-140.62 0,-140.62 0,-119.88 64,-119.88 64,-140.62"/>
<text text-anchor="middle" x="32" y="-127.12" font-family="Helvetica,sans-Serif" font-size="10.00">stdexcept</text>
</a>
</g>
</g>
<!-- Node1&#45;&gt;Node5 -->
<g id="edge16_Node000001_Node000005" class="edge">
<title>Node1&#45;&gt;Node5</title>
<g id="a_edge16_Node000001_Node000005"><a xlink:title=" ">
<path fill="none" stroke="#63b8ff" d="M210.9,-352.84C196.62,-344.55 176.71,-331.74 162,-317.25 108.34,-264.37 62.31,-186.71 42.45,-150.8"/>
<polygon fill="#63b8ff" stroke="#63b8ff" points="45.73,-149.5 37.87,-142.39 39.58,-152.85 45.73,-149.5"/>
</a>
</g>
</g>
<!-- Node9 -->
<g id="Node000009" class="node">
<title>Node9</title>
<g id="a_Node000009"><a xlink:href="i__shared__ptr_8hh.html" target="_top" xlink:title=" ">
<polygon fill="white" stroke="#666666" points="1313.12,-140.62 1222.88,-140.62 1222.88,-119.88 1313.12,-119.88 1313.12,-140.62"/>
<text text-anchor="middle" x="1268" y="-127.12" font-family="Helvetica,sans-Serif" font-size="10.00">i_shared_ptr.hh</text>
</a>
</g>
</g>
<!-- Node1&#45;&gt;Node9 -->
<g id="edge8_Node000001_Node000009" class="edge">
<title>Node1&#45;&gt;Node9</title>
<g id="a_edge8_Node000001_Node000009"><a xlink:title=" ">
<path fill="none" stroke="#63b8ff" d="M299.3,-361.01C610.59,-353.52 1852.01,-320 1908,-260.5 1918.55,-249.29 1934.35,-212.14 1907,-183 1867.56,-140.98 1473.72,-133.08 1324.71,-131.59"/>
<polygon fill="#63b8ff" stroke="#63b8ff" points="1325.12,-128.1 1315.09,-131.5 1325.06,-135.1 1325.12,-128.1"/>
</a>
</g>
</g>
<!-- Node14 -->
<g id="Node000014" class="node">
<title>Node14</title>
<g id="a_Node000014"><a xlink:href="VolumeBuildersTypes_8hh.html" target="_top" xlink:title=" ">
<polygon fill="white" stroke="#666666" points="779.62,-203.75 644.38,-203.75 644.38,-183 779.62,-183 779.62,-203.75"/>
<text text-anchor="middle" x="712" y="-190.25" font-family="Helvetica,sans-Serif" font-size="10.00">VolumeBuildersTypes.hh</text>
</a>
</g>
</g>
<!-- Node1&#45;&gt;Node14 -->
<g id="edge17_Node000001_Node000014" class="edge">
<title>Node1&#45;&gt;Node14</title>
<g id="a_edge17_Node000001_Node000014"><a xlink:title=" ">
<path fill="none" stroke="#63b8ff" d="M222.53,-352.84C208.24,-329.89 177.46,-272.06 207,-239.75 235.1,-209.01 497.59,-198.92 632.6,-195.75"/>
<polygon fill="#63b8ff" stroke="#63b8ff" points="632.64,-199.25 642.56,-195.53 632.48,-192.25 632.64,-199.25"/>
</a>
</g>
</g>
<!-- Node20 -->
<g id="Node000020" class="node">
<title>Node20</title>
<g id="a_Node000020"><a xlink:href="StructureBuilderBase_8hh.html" target="_top" xlink:title=" ">
<polygon fill="white" stroke="#666666" points="778.88,-317.25 645.12,-317.25 645.12,-296.5 778.88,-296.5 778.88,-317.25"/>
<text text-anchor="middle" x="712" y="-303.75" font-family="Helvetica,sans-Serif" font-size="10.00">StructureBuilderBase.hh</text>
</a>
</g>
</g>
<!-- Node1&#45;&gt;Node20 -->
<g id="edge27_Node000001_Node000020" class="edge">
<title>Node1&#45;&gt;Node20</title>
<g id="a_edge27_Node000001_Node000020"><a xlink:title=" ">
<path fill="none" stroke="#63b8ff" d="M299.23,-354.66C388.14,-344.59 540.87,-327.27 633.53,-316.77"/>
<polygon fill="#63b8ff" stroke="#63b8ff" points="633.75,-320.27 643.29,-315.66 632.96,-313.31 633.75,-320.27"/>
</a>
</g>
</g>
<!-- Node31 -->
<g id="Node000031" class="node">
<title>Node31</title>
<g id="a_Node000031"><a xlink:href="BuilderFactories_8hh.html" target="_top" xlink:title=" ">
<polygon fill="white" stroke="#666666" points="325.5,-260.5 216.5,-260.5 216.5,-239.75 325.5,-239.75 325.5,-260.5"/>
<text text-anchor="middle" x="271" y="-247" font-family="Helvetica,sans-Serif" font-size="10.00">BuilderFactories.hh</text>
</a>
</g>
</g>
<!-- Node1&#45;&gt;Node31 -->
<g id="edge66_Node000001_Node000031" class="edge">
<title>Node1&#45;&gt;Node31</title>
<g id="a_edge66_Node000001_Node000031"><a xlink:title=" ">
<path fill="none" stroke="#63b8ff" d="M232.58,-353.12C239.37,-335.11 254.23,-295.64 263.35,-271.43"/>
<polygon fill="#63b8ff" stroke="#63b8ff" points="266.53,-272.93 266.77,-262.34 259.97,-270.47 266.53,-272.93"/>
</a>
</g>
</g>
<!-- Node3 -->
<g id="Node000003" class="node">
<title>Node3</title>
<g id="a_Node000003"><a xlink:title=" ">
<polygon fill="#e0e0e0" stroke="#999999" points="742.62,-77.5 685.38,-77.5 685.38,-56.75 742.62,-56.75 742.62,-77.5"/>
<text text-anchor="middle" x="714" y="-64" font-family="Helvetica,sans-Serif" font-size="10.00">memory</text>
</a>
</g>
</g>
<!-- Node2&#45;&gt;Node3 -->
<g id="edge2_Node000002_Node000003" class="edge">
<title>Node2&#45;&gt;Node3</title>
<g id="a_edge2_Node000002_Node000003"><a xlink:title=" ">
<path fill="none" stroke="#63b8ff" d="M329.02,-182.52C369.83,-166.66 453.47,-135.07 526,-113.5 576.46,-98.49 635.62,-84.85 673.91,-76.53"/>
<polygon fill="#63b8ff" stroke="#63b8ff" points="674.57,-79.96 683.61,-74.44 673.09,-73.12 674.57,-79.96"/>
</a>
</g>
</g>
<!-- Node4 -->
<g id="Node000004" class="node">
<title>Node4</title>
<g id="a_Node000004"><a xlink:title=" ">
<polygon fill="#e0e0e0" stroke="#999999" points="129.75,-140.62 82.25,-140.62 82.25,-119.88 129.75,-119.88 129.75,-140.62"/>
<text text-anchor="middle" x="106" y="-127.12" font-family="Helvetica,sans-Serif" font-size="10.00">mutex</text>
</a>
</g>
</g>
<!-- Node2&#45;&gt;Node4 -->
<g id="edge3_Node000002_Node000004" class="edge">
<title>Node2&#45;&gt;Node4</title>
<g id="a_edge3_Node000002_Node000004"><a xlink:title=" ">
<path fill="none" stroke="#63b8ff" d="M268.02,-184.42C234.2,-176.5 182.43,-163.19 139,-147 137.84,-146.57 136.67,-146.11 135.48,-145.63"/>
<polygon fill="#63b8ff" stroke="#63b8ff" points="136.9,-142.43 126.33,-141.61 134.08,-148.84 136.9,-142.43"/>
</a>
</g>
</g>
<!-- Node2&#45;&gt;Node5 -->
<g id="edge4_Node000002_Node000005" class="edge">
<title>Node2&#45;&gt;Node5</title>
<g id="a_edge4_Node000002_Node000005"><a xlink:title=" ">
<path fill="none" stroke="#63b8ff" d="M267.93,-187.27C222.08,-180.33 140.75,-166.51 73,-147 70.77,-146.36 68.49,-145.64 66.2,-144.89"/>
<polygon fill="#63b8ff" stroke="#63b8ff" points="67.63,-141.68 57.04,-141.63 65.28,-148.28 67.63,-141.68"/>
</a>
</g>
</g>
<!-- Node6 -->
<g id="Node000006" class="node">
<title>Node6</title>
<g id="a_Node000006"><a xlink:title=" ">
<polygon fill="#e0e0e0" stroke="#999999" points="216.25,-140.62 147.75,-140.62 147.75,-119.88 216.25,-119.88 216.25,-140.62"/>
<text text-anchor="middle" x="182" y="-127.12" font-family="Helvetica,sans-Serif" font-size="10.00">type_traits</text>
</a>
</g>
</g>
<!-- Node2&#45;&gt;Node6 -->
<g id="edge5_Node000002_Node000006" class="edge">
<title>Node2&#45;&gt;Node6</title>
<g id="a_edge5_Node000002_Node000006"><a xlink:title=" ">
<path fill="none" stroke="#63b8ff" d="M284.4,-182.55C264.74,-172.71 234.23,-157.42 211.63,-146.09"/>
<polygon fill="#63b8ff" stroke="#63b8ff" points="213.41,-143.07 202.91,-141.72 210.28,-149.33 213.41,-143.07"/>
</a>
</g>
</g>
<!-- Node7 -->
<g id="Node000007" class="node">
<title>Node7</title>
<g id="a_Node000007"><a xlink:title=" ">
<polygon fill="#e0e0e0" stroke="#999999" points="627.38,-140.62 580.62,-140.62 580.62,-119.88 627.38,-119.88 627.38,-140.62"/>
<text text-anchor="middle" x="604" y="-127.12" font-family="Helvetica,sans-Serif" font-size="10.00">vector</text>
</a>
</g>
</g>
<!-- Node2&#45;&gt;Node7 -->
<g id="edge6_Node000002_Node000007" class="edge">
<title>Node2&#45;&gt;Node7</title>
<g id="a_edge6_Node000002_Node000007"><a xlink:title=" ">
<path fill="none" stroke="#63b8ff" d="M340.19,-185C398.36,-173.15 511.94,-150.01 569.21,-138.34"/>
<polygon fill="#63b8ff" stroke="#63b8ff" points="569.62,-141.83 578.72,-136.4 568.23,-134.97 569.62,-141.83"/>
</a>
</g>
</g>
<!-- Node8 -->
<g id="Node000008" class="node">
<title>Node8</title>
<g id="a_Node000008"><a xlink:title=" ">
<polygon fill="#e0e0e0" stroke="#999999" points="373.5,-140.62 234.5,-140.62 234.5,-119.88 373.5,-119.88 373.5,-140.62"/>
<text text-anchor="middle" x="304" y="-127.12" font-family="Helvetica,sans-Serif" font-size="10.00">sanitizer/lsan_interface.h</text>
</a>
</g>
</g>
<!-- Node2&#45;&gt;Node8 -->
<g id="edge7_Node000002_Node000008" class="edge">
<title>Node2&#45;&gt;Node8</title>
<g id="a_edge7_Node000002_Node000008"><a xlink:title=" ">
<path fill="none" stroke="#63b8ff" d="M304,-182.55C304,-174.4 304,-162.51 304,-152.23"/>
<polygon fill="#63b8ff" stroke="#63b8ff" points="307.5,-152.36 304,-142.36 300.5,-152.36 307.5,-152.36"/>
</a>
</g>
</g>
<!-- Node9&#45;&gt;Node3 -->
<g id="edge11_Node000009_Node000003" class="edge">
<title>Node9&#45;&gt;Node3</title>
<g id="a_edge11_Node000009_Node000003"><a xlink:title=" ">
<path fill="none" stroke="#63b8ff" d="M1222.72,-120.71C1207.88,-118.13 1191.27,-115.45 1176,-113.5 992.5,-90.03 941.25,-106.95 754.21,-77.4"/>
<polygon fill="#63b8ff" stroke="#63b8ff" points="754.79,-73.95 744.36,-75.82 753.68,-80.86 754.79,-73.95"/>
</a>
</g>
</g>
<!-- Node10 -->
<g id="Node000010" class="node">
<title>Node10</title>
<g id="a_Node000010"><a xlink:title=" ">
<polygon fill="#e0e0e0" stroke="#999999" points="1171.88,-20.75 1056.12,-20.75 1056.12,0 1171.88,0 1171.88,-20.75"/>
<text text-anchor="middle" x="1114" y="-7.25" font-family="Helvetica,sans-Serif" font-size="10.00">G4LogicalVolume.hh</text>
</a>
</g>
</g>
<!-- Node9&#45;&gt;Node10 -->
<g id="edge9_Node000009_Node000010" class="edge">
<title>Node9&#45;&gt;Node10</title>
<g id="a_edge9_Node000009_Node000010"><a xlink:title=" ">
<path fill="none" stroke="#63b8ff" d="M1255.13,-119.4C1228.69,-99.16 1167.96,-52.68 1135.46,-27.8"/>
<polygon fill="#63b8ff" stroke="#63b8ff" points="1137.99,-25.33 1127.92,-22.03 1133.74,-30.89 1137.99,-25.33"/>
</a>
</g>
</g>
<!-- Node11 -->
<g id="Node000011" class="node">
<title>Node11</title>
<g id="a_Node000011"><a xlink:title=" ">
<polygon fill="#e0e0e0" stroke="#999999" points="1267.62,-20.75 1192.38,-20.75 1192.38,0 1267.62,0 1267.62,-20.75"/>
<text text-anchor="middle" x="1230" y="-7.25" font-family="Helvetica,sans-Serif" font-size="10.00">G4VSolid.hh</text>
</a>
</g>
</g>
<!-- Node9&#45;&gt;Node11 -->
<g id="edge10_Node000009_Node000011" class="edge">
<title>Node9&#45;&gt;Node11</title>
<g id="a_edge10_Node000009_Node000011"><a xlink:title=" ">
<path fill="none" stroke="#63b8ff" d="M1264.89,-119.6C1258.74,-100.52 1244.9,-57.58 1236.62,-31.9"/>
<polygon fill="#63b8ff" stroke="#63b8ff" points="1240.02,-31.04 1233.62,-22.6 1233.35,-33.19 1240.02,-31.04"/>
</a>
</g>
</g>
<!-- Node12 -->
<g id="Node000012" class="node">
<title>Node12</title>
<g id="a_Node000012"><a xlink:href="IVolumeBuilder_8hh.html" target="_top" xlink:title="Created by.">
<polygon fill="white" stroke="#666666" points="1164.25,-77.5 1059.75,-77.5 1059.75,-56.75 1164.25,-56.75 1164.25,-77.5"/>
<text text-anchor="middle" x="1112" y="-64" font-family="Helvetica,sans-Serif" font-size="10.00">IVolumeBuilder.hh</text>
</a>
</g>
</g>
<!-- Node9&#45;&gt;Node12 -->
<g id="edge12_Node000009_Node000012" class="edge">
<title>Node9&#45;&gt;Node12</title>
<g id="a_edge12_Node000009_Node000012"><a xlink:title=" ">
<path fill="none" stroke="#63b8ff" d="M1242.94,-119.43C1217.12,-109.31 1176.66,-93.46 1147.55,-82.05"/>
<polygon fill="#63b8ff" stroke="#63b8ff" points="1149,-78.86 1138.41,-78.47 1146.45,-85.38 1149,-78.86"/>
</a>
</g>
</g>
<!-- Node12&#45;&gt;Node10 -->
<g id="edge13_Node000012_Node000010" class="edge">
<title>Node12&#45;&gt;Node10</title>
<g id="a_edge13_Node000012_Node000010"><a xlink:title=" ">
<path fill="none" stroke="#63b8ff" d="M1112.36,-56.34C1112.6,-49.72 1112.93,-40.72 1113.23,-32.52"/>
<polygon fill="#63b8ff" stroke="#63b8ff" points="1116.72,-32.71 1113.59,-22.59 1109.73,-32.46 1116.72,-32.71"/>
</a>
</g>
</g>
<!-- Node12&#45;&gt;Node11 -->
<g id="edge15_Node000012_Node000011" class="edge">
<title>Node12&#45;&gt;Node11</title>
<g id="a_edge15_Node000012_Node000011"><a xlink:title=" ">
<path fill="none" stroke="#63b8ff" d="M1133.1,-56.34C1151.39,-47.85 1178.1,-35.45 1198.86,-25.83"/>
<polygon fill="#63b8ff" stroke="#63b8ff" points="1200.12,-29.1 1207.71,-21.72 1197.17,-22.75 1200.12,-29.1"/>
</a>
</g>
</g>
<!-- Node13 -->
<g id="Node000013" class="node">
<title>Node13</title>
<g id="a_Node000013"><a xlink:title=" ">
<polygon fill="#e0e0e0" stroke="#999999" points="1038.38,-20.75 931.62,-20.75 931.62,0 1038.38,0 1038.38,-20.75"/>
<text text-anchor="middle" x="985" y="-7.25" font-family="Helvetica,sans-Serif" font-size="10.00">G4Transform3D.hh</text>
</a>
</g>
</g>
<!-- Node12&#45;&gt;Node13 -->
<g id="edge14_Node000012_Node000013" class="edge">
<title>Node12&#45;&gt;Node13</title>
<g id="a_edge14_Node000012_Node000013"><a xlink:title=" ">
<path fill="none" stroke="#63b8ff" d="M1089.29,-56.34C1069.43,-47.77 1040.33,-35.23 1017.91,-25.56"/>
<polygon fill="#63b8ff" stroke="#63b8ff" points="1019.47,-22.42 1008.9,-21.68 1016.7,-28.85 1019.47,-22.42"/>
</a>
</g>
</g>
<!-- Node14&#45;&gt;Node3 -->
<g id="edge19_Node000014_Node000003" class="edge">
<title>Node14&#45;&gt;Node3</title>
<g id="a_edge19_Node000014_Node000003"><a xlink:title=" ">
<path fill="none" stroke="#63b8ff" d="M712.16,-182.63C712.48,-162.57 713.22,-116.32 713.66,-89.13"/>
<polygon fill="#63b8ff" stroke="#63b8ff" points="717.16,-89.4 713.82,-79.34 710.16,-89.29 717.16,-89.4"/>
</a>
</g>
</g>
<!-- Node14&#45;&gt;Node7 -->
<g id="edge21_Node000014_Node000007" class="edge">
<title>Node14&#45;&gt;Node7</title>
<g id="a_edge21_Node000014_Node000007"><a xlink:title=" ">
<path fill="none" stroke="#63b8ff" d="M694.65,-182.55C677.56,-172.89 651.22,-157.97 631.32,-146.71"/>
<polygon fill="#63b8ff" stroke="#63b8ff" points="633.05,-143.67 622.63,-141.79 629.61,-149.76 633.05,-143.67"/>
</a>
</g>
</g>
<!-- Node14&#45;&gt;Node9 -->
<g id="edge26_Node000014_Node000009" class="edge">
<title>Node14&#45;&gt;Node9</title>
<g id="a_edge26_Node000014_Node000009"><a xlink:title=" ">
<path fill="none" stroke="#63b8ff" d="M779.93,-186.34C889.69,-176.49 1101.3,-157.03 1176,-147 1187.56,-145.45 1199.9,-143.52 1211.66,-141.56"/>
<polygon fill="#63b8ff" stroke="#63b8ff" points="1211.95,-145.06 1221.22,-139.93 1210.77,-138.16 1211.95,-145.06"/>
</a>
</g>
</g>
<!-- Node15 -->
<g id="Node000015" class="node">
<title>Node15</title>
<g id="a_Node000015"><a xlink:title=" ">
<polygon fill="#e0e0e0" stroke="#999999" points="1167.12,-140.62 1064.88,-140.62 1064.88,-119.88 1167.12,-119.88 1167.12,-140.62"/>
<text text-anchor="middle" x="1116" y="-127.12" font-family="Helvetica,sans-Serif" font-size="10.00">G4ThreeVector.hh</text>
</a>
</g>
</g>
<!-- Node14&#45;&gt;Node15 -->
<g id="edge18_Node000014_Node000015" class="edge">
<title>Node14&#45;&gt;Node15</title>
<g id="a_edge18_Node000014_Node000015"><a xlink:title=" ">
<path fill="none" stroke="#63b8ff" d="M779.97,-185.96C849.65,-178.78 960.98,-165.66 1056,-147 1060.7,-146.08 1065.57,-145 1070.42,-143.85"/>
<polygon fill="#63b8ff" stroke="#63b8ff" points="1071.26,-147.25 1080.12,-141.44 1069.57,-140.46 1071.26,-147.25"/>
</a>
</g>
</g>
<!-- Node16 -->
<g id="Node000016" class="node">
<title>Node16</title>
<g id="a_Node000016"><a xlink:title=" ">
<polygon fill="#e0e0e0" stroke="#999999" points="1046.88,-140.62 991.12,-140.62 991.12,-119.88 1046.88,-119.88 1046.88,-140.62"/>
<text text-anchor="middle" x="1019" y="-127.12" font-family="Helvetica,sans-Serif" font-size="10.00">optional</text>
</a>
</g>
</g>
<!-- Node14&#45;&gt;Node16 -->
<g id="edge20_Node000014_Node000016" class="edge">
<title>Node14&#45;&gt;Node16</title>
<g id="a_edge20_Node000014_Node000016"><a xlink:title=" ">
<path fill="none" stroke="#63b8ff" d="M761.32,-182.55C822.09,-170.46 924.09,-150.15 979.79,-139.06"/>
<polygon fill="#63b8ff" stroke="#63b8ff" points="980.33,-142.52 989.46,-137.13 978.97,-135.65 980.33,-142.52"/>
</a>
</g>
</g>
<!-- Node17 -->
<g id="Node000017" class="node">
<title>Node17</title>
<g id="a_Node000017"><a xlink:href="disableable__shared__from__this_8hh.html" target="_top" xlink:title="Created by.">
<polygon fill="white" stroke="#666666" points="850.25,-147 739.75,-147 739.75,-113.5 850.25,-113.5 850.25,-147"/>
<text text-anchor="start" x="747.75" y="-133.5" font-family="Helvetica,sans-Serif" font-size="10.00">disableable_shared</text>
<text text-anchor="middle" x="795" y="-120.75" font-family="Helvetica,sans-Serif" font-size="10.00">_from_this.hh</text>
</a>
</g>
</g>
<!-- Node14&#45;&gt;Node17 -->
<g id="edge22_Node000014_Node000017" class="edge">
<title>Node14&#45;&gt;Node17</title>
<g id="a_edge22_Node000014_Node000017"><a xlink:title=" ">
<path fill="none" stroke="#63b8ff" d="M725.34,-182.55C735.76,-174.88 750.68,-163.89 764.03,-154.06"/>
<polygon fill="#63b8ff" stroke="#63b8ff" points="765.76,-157.13 771.74,-148.38 761.61,-151.49 765.76,-157.13"/>
</a>
</g>
</g>
<!-- Node17&#45;&gt;Node3 -->
<g id="edge25_Node000017_Node000003" class="edge">
<title>Node17&#45;&gt;Node3</title>
<g id="a_edge25_Node000017_Node000003"><a xlink:title=" ">
<path fill="none" stroke="#63b8ff" d="M773.72,-113.19C762.15,-104.46 747.85,-93.67 736.15,-84.84"/>
<polygon fill="#63b8ff" stroke="#63b8ff" points="738.34,-82.11 728.25,-78.88 734.12,-87.7 738.34,-82.11"/>
</a>
</g>
</g>
<!-- Node18 -->
<g id="Node000018" class="node">
<title>Node18</title>
<g id="a_Node000018"><a xlink:title=" ">
<polygon fill="#e0e0e0" stroke="#999999" points="889.88,-77.5 840.12,-77.5 840.12,-56.75 889.88,-56.75 889.88,-77.5"/>
<text text-anchor="middle" x="865" y="-64" font-family="Helvetica,sans-Serif" font-size="10.00">atomic</text>
</a>
</g>
</g>
<!-- Node17&#45;&gt;Node18 -->
<g id="edge23_Node000017_Node000018" class="edge">
<title>Node17&#45;&gt;Node18</title>
<g id="a_edge23_Node000017_Node000018"><a xlink:title=" ">
<path fill="none" stroke="#63b8ff" d="M813.39,-113.19C823.19,-104.63 835.25,-94.1 845.25,-85.37"/>
<polygon fill="#63b8ff" stroke="#63b8ff" points="847.36,-88.18 852.59,-78.96 842.75,-82.9 847.36,-88.18"/>
</a>
</g>
</g>
<!-- Node19 -->
<g id="Node000019" class="node">
<title>Node19</title>
<g id="a_Node000019"><a xlink:title=" ">
<polygon fill="#e0e0e0" stroke="#999999" points="821.75,-77.5 762.25,-77.5 762.25,-56.75 821.75,-56.75 821.75,-77.5"/>
<text text-anchor="middle" x="792" y="-64" font-family="Helvetica,sans-Serif" font-size="10.00">iostream</text>
</a>
</g>
</g>
<!-- Node17&#45;&gt;Node19 -->
<g id="edge24_Node000017_Node000019" class="edge">
<title>Node17&#45;&gt;Node19</title>
<g id="a_edge24_Node000017_Node000019"><a xlink:title=" ">
<path fill="none" stroke="#63b8ff" d="M794.21,-113.19C793.85,-105.85 793.42,-97.07 793.03,-89.21"/>
<polygon fill="#63b8ff" stroke="#63b8ff" points="796.54,-89.3 792.56,-79.48 789.55,-89.64 796.54,-89.3"/>
</a>
</g>
</g>
<!-- Node20&#45;&gt;Node2 -->
<g id="edge29_Node000020_Node000002" class="edge">
<title>Node20&#45;&gt;Node2</title>
<g id="a_edge29_Node000020_Node000002"><a xlink:title=" ">
<path fill="none" stroke="#63b8ff" d="M644.93,-303.47C582.63,-299.46 488.15,-288.8 411,-260.5 378.76,-248.67 345.75,-226.42 325.08,-211.02"/>
<polygon fill="#63b8ff" stroke="#63b8ff" points="327.27,-208.28 317.19,-205 323.02,-213.85 327.27,-208.28"/>
</a>
</g>
</g>
<!-- Node20&#45;&gt;Node3 -->
<g id="edge62_Node000020_Node000003" class="edge">
<title>Node20&#45;&gt;Node3</title>
<g id="a_edge62_Node000020_Node000003"><a xlink:title=" ">
<path fill="none" stroke="#63b8ff" d="M688.93,-296.02C672.65,-288.2 651.13,-276.01 636,-260.5 586.24,-209.49 529.98,-171.05 572,-113.5 595.07,-81.9 640.42,-71.8 673.68,-68.82"/>
<polygon fill="#63b8ff" stroke="#63b8ff" points="673.64,-72.34 683.37,-68.15 673.16,-65.35 673.64,-72.34"/>
</a>
</g>
</g>
<!-- Node20&#45;&gt;Node4 -->
<g id="edge61_Node000020_Node000004" class="edge">
<title>Node20&#45;&gt;Node4</title>
<g id="a_edge61_Node000020_Node000004"><a xlink:title=" ">
<path fill="none" stroke="#63b8ff" d="M644.67,-306.36C524.96,-306.16 280.74,-300.64 207,-260.5 161.51,-235.74 129.68,-180.93 115.06,-151.26"/>
<polygon fill="#63b8ff" stroke="#63b8ff" points="118.25,-149.81 110.8,-142.27 111.92,-152.81 118.25,-149.81"/>
</a>
</g>
</g>
<!-- Node20&#45;&gt;Node5 -->
<g id="edge63_Node000020_Node000005" class="edge">
<title>Node20&#45;&gt;Node5</title>
<g id="a_edge63_Node000020_Node000005"><a xlink:title=" ">
<path fill="none" stroke="#63b8ff" d="M644.79,-305.19C574.03,-302.6 460.3,-293.1 368,-260.5 351.31,-254.6 349.98,-247.37 334,-239.75 222.87,-186.79 188.47,-189.69 73,-147 71.23,-146.35 69.42,-145.67 67.59,-144.98"/>
<polygon fill="#63b8ff" stroke="#63b8ff" points="69.12,-141.82 58.53,-141.55 66.64,-148.37 69.12,-141.82"/>
</a>
</g>
</g>
<!-- Node20&#45;&gt;Node7 -->
<g id="edge55_Node000020_Node000007" class="edge">
<title>Node20&#45;&gt;Node7</title>
<g id="a_edge55_Node000020_Node000007"><a xlink:title=" ">
<path fill="none" stroke="#63b8ff" d="M698.34,-296.04C676.69,-279.62 634.89,-244.38 615,-203.75 607.04,-187.49 604.53,-166.93 603.87,-151.86"/>
<polygon fill="#63b8ff" stroke="#63b8ff" points="607.38,-152.15 603.7,-142.22 600.38,-152.28 607.38,-152.15"/>
</a>
</g>
</g>
<!-- Node20&#45;&gt;Node9 -->
<g id="edge56_Node000020_Node000009" class="edge">
<title>Node20&#45;&gt;Node9</title>
<g id="a_edge56_Node000020_Node000009"><a xlink:title=" ">
<path fill="none" stroke="#63b8ff" d="M779.01,-305.82C1022.54,-305.31 1848.41,-300.61 1887,-260.5 1910.88,-235.68 1910.32,-208.35 1887,-183 1849.33,-142.04 1469.99,-133.49 1324.44,-131.71"/>
<polygon fill="#63b8ff" stroke="#63b8ff" points="1324.7,-128.22 1314.66,-131.6 1324.62,-135.22 1324.7,-128.22"/>
</a>
</g>
</g>
<!-- Node20&#45;&gt;Node13 -->
<g id="edge54_Node000020_Node000013" class="edge">
<title>Node20&#45;&gt;Node13</title>
<g id="a_edge54_Node000020_Node000013"><a xlink:title=" ">
<path fill="none" stroke="#63b8ff" d="M779.21,-305.26C968.05,-303.11 1500.71,-294.16 1672,-260.5 1746.04,-245.95 1788.47,-265.38 1832,-203.75 1911.57,-91.11 1341.54,-199.48 1214,-147 1193.18,-138.43 1195.74,-124.32 1176,-113.5 1125.3,-85.71 1100.78,-106.9 1051,-77.5 1030.15,-65.19 1011.17,-44.75 998.97,-29.85"/>
<polygon fill="#63b8ff" stroke="#63b8ff" points="1001.87,-27.86 992.92,-22.18 996.37,-32.2 1001.87,-27.86"/>
</a>
</g>
</g>
<!-- Node20&#45;&gt;Node14 -->
<g id="edge57_Node000020_Node000014" class="edge">
<title>Node20&#45;&gt;Node14</title>
<g id="a_edge57_Node000020_Node000014"><a xlink:title=" ">
<path fill="none" stroke="#63b8ff" d="M712,-296.37C712,-278.6 712,-239.97 712,-215.68"/>
<polygon fill="#63b8ff" stroke="#63b8ff" points="715.5,-215.69 712,-205.69 708.5,-215.69 715.5,-215.69"/>
</a>
</g>
</g>
<!-- Node20&#45;&gt;Node15 -->
<g id="edge60_Node000020_Node000015" class="edge">
<title>Node20&#45;&gt;Node15</title>
<g id="a_edge60_Node000020_Node000015"><a xlink:title=" ">
<path fill="none" stroke="#63b8ff" d="M779.09,-304.97C1008.08,-301.16 1748.39,-282.78 1816,-203.75 1821.99,-196.74 1822.33,-189.7 1816,-183 1767.46,-131.63 1250.9,-157.36 1181,-147 1174.97,-146.11 1168.68,-144.92 1162.49,-143.59"/>
<polygon fill="#63b8ff" stroke="#63b8ff" points="1163.54,-140.24 1153.01,-141.43 1161.98,-147.06 1163.54,-140.24"/>
</a>
</g>
</g>
<!-- Node20&#45;&gt;Node16 -->
<g id="edge28_Node000020_Node000016" class="edge">
<title>Node20&#45;&gt;Node16</title>
<g id="a_edge28_Node000020_Node000016"><a xlink:title=" ">
<path fill="none" stroke="#63b8ff" d="M779.22,-306.84C867.55,-306.51 1015.55,-299.88 1050,-260.5 1077.35,-229.24 1050.91,-178.04 1032.8,-150.39"/>
<polygon fill="#63b8ff" stroke="#63b8ff" points="1035.79,-148.57 1027.26,-142.29 1030.02,-152.52 1035.79,-148.57"/>
</a>
</g>
</g>
<!-- Node21 -->
<g id="Node000021" class="node">
<title>Node21</title>
<g id="a_Node000021"><a xlink:href="ISolidBuilder_8hh_source.html" target="_top" xlink:title=" ">
<polygon fill="white" stroke="#666666" points="511.88,-260.5 420.12,-260.5 420.12,-239.75 511.88,-239.75 511.88,-260.5"/>
<text text-anchor="middle" x="466" y="-247" font-family="Helvetica,sans-Serif" font-size="10.00">ISolidBuilder.hh</text>
</a>
</g>
</g>
<!-- Node20&#45;&gt;Node21 -->
<g id="edge30_Node000020_Node000021" class="edge">
<title>Node20&#45;&gt;Node21</title>
<g id="a_edge30_Node000020_Node000021"><a xlink:title=" ">
<path fill="none" stroke="#63b8ff" d="M667.74,-296.02C626.76,-286.9 565.67,-273.31 521.46,-263.47"/>
<polygon fill="#63b8ff" stroke="#63b8ff" points="522.32,-260.07 511.8,-261.32 520.8,-266.91 522.32,-260.07"/>
</a>
</g>
</g>
<!-- Node22 -->
<g id="Node000022" class="node">
<title>Node22</title>
<g id="a_Node000022"><a xlink:href="VolumeBuilderConfigs_8hh.html" target="_top" xlink:title=" ">
<polygon fill="white" stroke="#666666" points="1041.12,-260.5 902.88,-260.5 902.88,-239.75 1041.12,-239.75 1041.12,-260.5"/>
<text text-anchor="middle" x="972" y="-247" font-family="Helvetica,sans-Serif" font-size="10.00">VolumeBuilderConfigs.hh</text>
</a>
</g>
</g>
<!-- Node20&#45;&gt;Node22 -->
<g id="edge36_Node000020_Node000022" class="edge">
<title>Node20&#45;&gt;Node22</title>
<g id="a_edge36_Node000020_Node000022"><a xlink:title=" ">
<path fill="none" stroke="#63b8ff" d="M758.78,-296.02C802.27,-286.87 867.2,-273.19 913.98,-263.34"/>
<polygon fill="#63b8ff" stroke="#63b8ff" points="914.61,-266.79 923.67,-261.3 913.17,-259.94 914.61,-266.79"/>
</a>
</g>
</g>
<!-- Node23 -->
<g id="Node000023" class="node">
<title>Node23</title>
<g id="a_Node000023"><a xlink:title=" ">
<polygon fill="#e0e0e0" stroke="#999999" points="1477.62,-203.75 1402.38,-203.75 1402.38,-183 1477.62,-183 1477.62,-203.75"/>
<text text-anchor="middle" x="1440" y="-190.25" font-family="Helvetica,sans-Serif" font-size="10.00">G4Colour.hh</text>
</a>
</g>
</g>
<!-- Node20&#45;&gt;Node23 -->
<g id="edge58_Node000020_Node000023" class="edge">
<title>Node20&#45;&gt;Node23</title>
<g id="a_edge58_Node000020_Node000023"><a xlink:title=" ">
<path fill="none" stroke="#63b8ff" d="M779.31,-306.57C949.9,-307.65 1388.96,-305.95 1435,-260.5 1446.65,-249 1446.9,-229.87 1444.82,-215.14"/>
<polygon fill="#63b8ff" stroke="#63b8ff" points="1448.3,-214.73 1443.01,-205.55 1441.43,-216.03 1448.3,-214.73"/>
</a>
</g>
</g>
<!-- Node26 -->
<g id="Node000026" class="node">
<title>Node26</title>
<g id="a_Node000026"><a xlink:href="DLG4Units_8hh.html" target="_top" xlink:title="Typesafe units, for VolumeBuilders, Geant, ETC !! No accidental mixing values and units.">
<polygon fill="white" stroke="#666666" points="1279.38,-260.5 1196.62,-260.5 1196.62,-239.75 1279.38,-239.75 1279.38,-260.5"/>
<text text-anchor="middle" x="1238" y="-247" font-family="Helvetica,sans-Serif" font-size="10.00">DLG4Units.hh</text>
</a>
</g>
</g>
<!-- Node20&#45;&gt;Node26 -->
<g id="edge47_Node000020_Node000026" class="edge">
<title>Node20&#45;&gt;Node26</title>
<g id="a_edge47_Node000020_Node000026"><a xlink:title=" ">
<path fill="none" stroke="#63b8ff" d="M779.15,-298.89C885.08,-287.86 1088.78,-266.66 1185.08,-256.63"/>
<polygon fill="#63b8ff" stroke="#63b8ff" points="1185.19,-260.14 1194.78,-255.62 1184.47,-253.18 1185.19,-260.14"/>
</a>
</g>
</g>
<!-- Node30 -->
<g id="Node000030" class="node">
<title>Node30</title>
<g id="a_Node000030"><a xlink:title=" ">
<polygon fill="#e0e0e0" stroke="#999999" points="1426.25,-260.5 1297.75,-260.5 1297.75,-239.75 1426.25,-239.75 1426.25,-260.5"/>
<text text-anchor="middle" x="1362" y="-247" font-family="Helvetica,sans-Serif" font-size="10.00">G4VPhysicalVolume.hh</text>
</a>
</g>
</g>
<!-- Node20&#45;&gt;Node30 -->
<g id="edge59_Node000020_Node000030" class="edge">
<title>Node20&#45;&gt;Node30</title>
<g id="a_edge59_Node000020_Node000030"><a xlink:title=" ">
<path fill="none" stroke="#63b8ff" d="M779.05,-301.63C884.47,-294.72 1095.69,-279.97 1286.09,-260.65"/>
<polygon fill="#63b8ff" stroke="#63b8ff" points="1286.35,-264.14 1295.94,-259.64 1285.64,-257.17 1286.35,-264.14"/>
</a>
</g>
</g>
<!-- Node20&#45;&gt;Node31 -->
<g id="edge64_Node000020_Node000031" class="edge">
<title>Node20&#45;&gt;Node31</title>
<g id="a_edge64_Node000020_Node000031"><a xlink:title=" ">
<path fill="none" stroke="#63b8ff" d="M644.76,-297.95C570.23,-289.11 446.47,-274.23 340,-260.5 339,-260.37 338,-260.24 336.99,-260.11"/>
<polygon fill="#63b8ff" stroke="#63b8ff" points="337.85,-256.69 327.48,-258.86 336.94,-263.63 337.85,-256.69"/>
</a>
</g>
</g>
<!-- Node21&#45;&gt;Node2 -->
<g id="edge34_Node000021_Node000002" class="edge">
<title>Node21&#45;&gt;Node2</title>
<g id="a_edge34_Node000021_Node000002"><a xlink:title=" ">
<path fill="none" stroke="#63b8ff" d="M437.04,-239.34C410.97,-230.53 372.44,-217.5 343.54,-207.74"/>
<polygon fill="#63b8ff" stroke="#63b8ff" points="345.01,-204.54 334.42,-204.66 342.77,-211.17 345.01,-204.54"/>
</a>
</g>
</g>
<!-- Node21&#45;&gt;Node10 -->
<g id="edge31_Node000021_Node000010" class="edge">
<title>Node21&#45;&gt;Node10</title>
<g id="a_edge31_Node000021_Node000010"><a xlink:title=" ">
<path fill="none" stroke="#63b8ff" d="M467.8,-239.59C470.61,-226.22 476.92,-201.47 488,-183 539.78,-96.69 578.89,-83.21 676,-56.75 832.4,-14.13 880.43,-39.1 1044.91,-20.92"/>
<polygon fill="#63b8ff" stroke="#63b8ff" points="1044.87,-24.44 1054.41,-19.83 1044.08,-17.49 1044.87,-24.44"/>
</a>
</g>
</g>
<!-- Node21&#45;&gt;Node11 -->
<g id="edge33_Node000021_Node000011" class="edge">
<title>Node21&#45;&gt;Node11</title>
<g id="a_edge33_Node000021_Node000011"><a xlink:title=" ">
<path fill="none" stroke="#63b8ff" d="M486.85,-239.29C518.28,-224.84 579.98,-198 635,-183 732.28,-156.48 760.44,-168.28 859,-147 914.38,-135.04 926.78,-126.2 982,-113.5 1066.18,-94.13 1098.16,-120.63 1173,-77.5 1192.63,-66.19 1208.77,-45.53 1218.81,-30.31"/>
<polygon fill="#63b8ff" stroke="#63b8ff" points="1221.6,-32.44 1223.94,-22.1 1215.67,-28.72 1221.6,-32.44"/>
</a>
</g>
</g>
<!-- Node21&#45;&gt;Node13 -->
<g id="edge32_Node000021_Node000013" class="edge">
<title>Node21&#45;&gt;Node13</title>
<g id="a_edge32_Node000021_Node000013"><a xlink:title=" ">
<path fill="none" stroke="#63b8ff" d="M461.73,-239.32C448.62,-207.57 412.87,-106.69 464,-56.75 496.03,-25.47 788.01,-15.45 920.34,-12.5"/>
<polygon fill="#63b8ff" stroke="#63b8ff" points="920.06,-16.01 929.98,-12.3 919.91,-9.01 920.06,-16.01"/>
</a>
</g>
</g>
<!-- Node21&#45;&gt;Node14 -->
<g id="edge35_Node000021_Node000014" class="edge">
<title>Node21&#45;&gt;Node14</title>
<g id="a_edge35_Node000021_Node000014"><a xlink:title=" ">
<path fill="none" stroke="#63b8ff" d="M510.26,-239.27C551.24,-230.15 612.33,-216.56 656.54,-206.72"/>
<polygon fill="#63b8ff" stroke="#63b8ff" points="657.2,-210.16 666.2,-204.57 655.68,-203.32 657.2,-210.16"/>
</a>
</g>
</g>
<!-- Node22&#45;&gt;Node3 -->
<g id="edge41_Node000022_Node000003" class="edge">
<title>Node22&#45;&gt;Node3</title>
<g id="a_edge41_Node000022_Node000003"><a xlink:title=" ">
<path fill="none" stroke="#63b8ff" d="M971.16,-239.31C969.58,-225.61 965.13,-200.46 953,-183 923.36,-140.32 905.32,-137.03 859,-113.5 840.51,-104.11 790.03,-89.14 753.84,-78.98"/>
<polygon fill="#63b8ff" stroke="#63b8ff" points="755.15,-75.71 744.57,-76.4 753.27,-82.46 755.15,-75.71"/>
</a>
</g>
</g>
<!-- Node22&#45;&gt;Node7 -->
<g id="edge43_Node000022_Node000007" class="edge">
<title>Node22&#45;&gt;Node7</title>
<g id="a_edge43_Node000022_Node000007"><a xlink:title=" ">
<path fill="none" stroke="#63b8ff" d="M902.63,-247.7C816.47,-244.6 675.82,-234.8 635,-203.75 618.69,-191.35 610.86,-168.66 607.16,-151.96"/>
<polygon fill="#63b8ff" stroke="#63b8ff" points="610.69,-151.77 605.42,-142.58 603.8,-153.05 610.69,-151.77"/>
</a>
</g>
</g>
<!-- Node22&#45;&gt;Node9 -->
<g id="edge46_Node000022_Node000009" class="edge">
<title>Node22&#45;&gt;Node9</title>
<g id="a_edge46_Node000022_Node000009"><a xlink:title=" ">
<path fill="none" stroke="#63b8ff" d="M996.73,-239.28C1049.31,-218.34 1172.37,-169.33 1232.99,-145.19"/>
<polygon fill="#63b8ff" stroke="#63b8ff" points="1234.15,-148.5 1242.14,-141.55 1231.56,-141.99 1234.15,-148.5"/>
</a>
</g>
</g>
<!-- Node22&#45;&gt;Node14 -->
<g id="edge44_Node000022_Node000014" class="edge">
<title>Node22&#45;&gt;Node14</title>
<g id="a_edge44_Node000022_Node000014"><a xlink:title=" ">
<path fill="none" stroke="#63b8ff" d="M925.22,-239.27C881.73,-230.12 816.8,-216.44 770.02,-206.59"/>
<polygon fill="#63b8ff" stroke="#63b8ff" points="770.83,-203.19 760.33,-204.55 769.39,-210.04 770.83,-203.19"/>
</a>
</g>
</g>
<!-- Node22&#45;&gt;Node15 -->
<g id="edge38_Node000022_Node000015" class="edge">
<title>Node22&#45;&gt;Node15</title>
<g id="a_edge38_Node000022_Node000015"><a xlink:title=" ">
<path fill="none" stroke="#63b8ff" d="M983.78,-239.48C1008.26,-219.45 1064.84,-173.13 1095.45,-148.07"/>
<polygon fill="#63b8ff" stroke="#63b8ff" points="1097.36,-151.03 1102.88,-141.99 1092.93,-145.61 1097.36,-151.03"/>
</a>
</g>
</g>
<!-- Node22&#45;&gt;Node16 -->
<g id="edge42_Node000022_Node000016" class="edge">
<title>Node22&#45;&gt;Node16</title>
<g id="a_edge42_Node000022_Node000016"><a xlink:title=" ">
<path fill="none" stroke="#63b8ff" d="M975.85,-239.48C983.49,-220.31 1000.73,-177.07 1010.96,-151.42"/>
<polygon fill="#63b8ff" stroke="#63b8ff" points="1014.09,-153.02 1014.54,-142.44 1007.59,-150.43 1014.09,-153.02"/>
</a>
</g>
</g>
<!-- Node22&#45;&gt;Node17 -->
<g id="edge45_Node000022_Node000017" class="edge">
<title>Node22&#45;&gt;Node17</title>
<g id="a_edge45_Node000022_Node000017"><a xlink:title=" ">
<path fill="none" stroke="#63b8ff" d="M902.47,-239.83C876.29,-233.36 847.85,-222.38 827,-203.75 813.76,-191.92 805.73,-173.58 801.03,-158.31"/>
<polygon fill="#63b8ff" stroke="#63b8ff" points="804.46,-157.58 798.45,-148.85 797.7,-159.42 804.46,-157.58"/>
</a>
</g>
</g>
<!-- Node22&#45;&gt;Node23 -->
<g id="edge37_Node000022_Node000023" class="edge">
<title>Node22&#45;&gt;Node23</title>
<g id="a_edge37_Node000022_Node000023"><a xlink:title=" ">
<path fill="none" stroke="#63b8ff" d="M1041.53,-243.55C1122.83,-236.6 1261.69,-223.41 1390.82,-203.96"/>
<polygon fill="#63b8ff" stroke="#63b8ff" points="1391.23,-207.43 1400.59,-202.47 1390.18,-200.51 1391.23,-207.43"/>
</a>
</g>
</g>
<!-- Node24 -->
<g id="Node000024" class="node">
<title>Node24</title>
<g id="a_Node000024"><a xlink:title=" ">
<polygon fill="#e0e0e0" stroke="#999999" points="1224.12,-203.75 1151.88,-203.75 1151.88,-183 1224.12,-183 1224.12,-203.75"/>
<text text-anchor="middle" x="1188" y="-190.25" font-family="Helvetica,sans-Serif" font-size="10.00">G4Types.hh</text>
</a>
</g>
</g>
<!-- Node22&#45;&gt;Node24 -->
<g id="edge39_Node000022_Node000024" class="edge">
<title>Node22&#45;&gt;Node24</title>
<g id="a_edge39_Node000022_Node000024"><a xlink:title=" ">
<path fill="none" stroke="#63b8ff" d="M1010.62,-239.34C1046.95,-230.13 1101.46,-216.31 1140.45,-206.43"/>
<polygon fill="#63b8ff" stroke="#63b8ff" points="1141.22,-209.84 1150.05,-203.99 1139.5,-203.06 1141.22,-209.84"/>
</a>
</g>
</g>
<!-- Node25 -->
<g id="Node000025" class="node">
<title>Node25</title>
<g id="a_Node000025"><a xlink:title=" ">
<polygon fill="#e0e0e0" stroke="#999999" points="943.75,-203.75 836.25,-203.75 836.25,-183 943.75,-183 943.75,-203.75"/>
<text text-anchor="middle" x="890" y="-190.25" font-family="Helvetica,sans-Serif" font-size="10.00">G4VisAttributes.hh</text>
</a>
</g>
</g>
<!-- Node22&#45;&gt;Node25 -->
<g id="edge40_Node000022_Node000025" class="edge">
<title>Node22&#45;&gt;Node25</title>
<g id="a_edge40_Node000022_Node000025"><a xlink:title=" ">
<path fill="none" stroke="#63b8ff" d="M957.34,-239.34C945.33,-231.32 928.09,-219.81 914.06,-210.44"/>
<polygon fill="#63b8ff" stroke="#63b8ff" points="916.05,-207.56 905.79,-204.92 912.16,-213.38 916.05,-207.56"/>
</a>
</g>
</g>
<!-- Node26&#45;&gt;Node15 -->
<g id="edge52_Node000026_Node000015" class="edge">
<title>Node26&#45;&gt;Node15</title>
<g id="a_edge52_Node000026_Node000015"><a xlink:title=" ">
<path fill="none" stroke="#63b8ff" d="M1247.8,-239.48C1260.31,-225.98 1278.88,-201.07 1266,-183 1259.67,-174.12 1203.78,-156.43 1162.06,-144.22"/>
<polygon fill="#63b8ff" stroke="#63b8ff" points="1163.3,-140.93 1152.72,-141.51 1161.35,-147.66 1163.3,-140.93"/>
</a>
</g>
</g>
<!-- Node26&#45;&gt;Node16 -->
<g id="edge53_Node000026_Node000016" class="edge">
<title>Node26&#45;&gt;Node16</title>
<g id="a_edge53_Node000026_Node000016"><a xlink:title=" ">
<path fill="none" stroke="#63b8ff" d="M1240.46,-239.68C1243.54,-225.51 1246.86,-198.71 1233,-183 1179.9,-122.8 1132.66,-170.84 1056,-147 1054.17,-146.43 1052.3,-145.8 1050.43,-145.13"/>
<polygon fill="#63b8ff" stroke="#63b8ff" points="1051.85,-141.93 1041.27,-141.55 1049.3,-148.45 1051.85,-141.93"/>
</a>
</g>
</g>
<!-- Node26&#45;&gt;Node24 -->
<g id="edge48_Node000026_Node000024" class="edge">
<title>Node26&#45;&gt;Node24</title>
<g id="a_edge48_Node000026_Node000024"><a xlink:title=" ">
<path fill="none" stroke="#63b8ff" d="M1229.06,-239.34C1222.24,-231.86 1212.64,-221.36 1204.44,-212.38"/>
<polygon fill="#63b8ff" stroke="#63b8ff" points="1207.21,-210.22 1197.88,-205.2 1202.04,-214.94 1207.21,-210.22"/>
</a>
</g>
</g>
<!-- Node27 -->
<g id="Node000027" class="node">
<title>Node27</title>
<g id="a_Node000027"><a xlink:title=" ">
<polygon fill="#e0e0e0" stroke="#999999" points="1806.75,-203.75 1675.25,-203.75 1675.25,-183 1806.75,-183 1806.75,-203.75"/>
<text text-anchor="middle" x="1741" y="-190.25" font-family="Helvetica,sans-Serif" font-size="10.00">G4ExceptionSeverity.hh</text>
</a>
</g>
</g>
<!-- Node26&#45;&gt;Node27 -->
<g id="edge49_Node000026_Node000027" class="edge">
<title>Node26&#45;&gt;Node27</title>
<g id="a_edge49_Node000026_Node000027"><a xlink:title=" ">
<path fill="none" stroke="#63b8ff" d="M1279.7,-241.16C1282.84,-240.65 1285.97,-240.17 1289,-239.75 1452.12,-217.01 1496.79,-221.96 1663.59,-203.98"/>
<polygon fill="#63b8ff" stroke="#63b8ff" points="1663.69,-207.49 1673.25,-202.93 1662.93,-200.53 1663.69,-207.49"/>
</a>
</g>
</g>
<!-- Node28 -->
<g id="Node000028" class="node">
<title>Node28</title>
<g id="a_Node000028"><a xlink:title=" ">
<polygon fill="#e0e0e0" stroke="#999999" points="1384.12,-203.75 1317.88,-203.75 1317.88,-183 1384.12,-183 1384.12,-203.75"/>
<text text-anchor="middle" x="1351" y="-190.25" font-family="Helvetica,sans-Serif" font-size="10.00">globals.hh</text>
</a>
</g>
</g>
<!-- Node26&#45;&gt;Node28 -->
<g id="edge50_Node000026_Node000028" class="edge">
<title>Node26&#45;&gt;Node28</title>
<g id="a_edge50_Node000026_Node000028"><a xlink:title=" ">
<path fill="none" stroke="#63b8ff" d="M1258.2,-239.34C1275.56,-230.93 1300.83,-218.68 1320.63,-209.09"/>
<polygon fill="#63b8ff" stroke="#63b8ff" points="1322.14,-212.25 1329.61,-204.74 1319.09,-205.95 1322.14,-212.25"/>
</a>
</g>
</g>
<!-- Node29 -->
<g id="Node000029" class="node">
<title>Node29</title>
<g id="a_Node000029"><a xlink:title=" ">
<polygon fill="#e0e0e0" stroke="#999999" points="1656.75,-203.75 1495.25,-203.75 1495.25,-183 1656.75,-183 1656.75,-203.75"/>
<text text-anchor="middle" x="1576" y="-190.25" font-family="Helvetica,sans-Serif" font-size="10.00">CLHEP/Units/SystemOfUnits.h</text>
</a>
</g>
</g>
<!-- Node26&#45;&gt;Node29 -->
<g id="edge51_Node000026_Node000029" class="edge">
<title>Node26&#45;&gt;Node29</title>
<g id="a_edge51_Node000026_Node000029"><a xlink:title=" ">
<path fill="none" stroke="#63b8ff" d="M1279.73,-241.37C1282.87,-240.81 1285.98,-240.27 1289,-239.75 1360.21,-227.58 1441.56,-214.83 1499.42,-205.95"/>
<polygon fill="#63b8ff" stroke="#63b8ff" points="1499.82,-209.43 1509.17,-204.46 1498.76,-202.51 1499.82,-209.43"/>
</a>
</g>
</g>
<!-- Node31&#45;&gt;Node14 -->
<g id="edge65_Node000031_Node000014" class="edge">
<title>Node31&#45;&gt;Node14</title>
<g id="a_edge65_Node000031_Node000014"><a xlink:title=" ">
<path fill="none" stroke="#63b8ff" d="M325.96,-242.3C403.16,-232.72 544.15,-215.21 632.7,-204.22"/>
<polygon fill="#63b8ff" stroke="#63b8ff" points="633.04,-207.7 642.53,-203 632.18,-200.76 633.04,-207.7"/>
</a>
</g>
</g>
</g>
</svg>
