<?xml version="1.0" encoding="UTF-8" standalone="no"?>
<!DOCTYPE svg PUBLIC "-//W3C//DTD SVG 1.1//EN"
 "http://www.w3.org/Graphics/SVG/1.1/DTD/svg11.dtd">
<!-- Generated by graphviz version 12.0.0 (20240803.0821)
 -->
<!-- Title: include/BoxBuilderCore.hh Pages: 1 -->
<svg width="747pt" height="155pt"
 viewBox="0.00 0.00 746.75 155.00" xmlns="http://www.w3.org/2000/svg" xmlns:xlink="http://www.w3.org/1999/xlink">
<g id="graph0" class="graph" transform="scale(1 1) rotate(0) translate(4 151)">
<title>include/BoxBuilderCore.hh</title>
<!-- Node1 -->
<g id="Node000001" class="node">
<title>Node1</title>
<g id="a_Node000001"><a xlink:title=" ">
<polygon fill="#999999" stroke="#666666" points="590.25,-147 445.25,-147 445.25,-126.25 590.25,-126.25 590.25,-147"/>
<text text-anchor="middle" x="517.75" y="-133.5" font-family="Helvetica,sans-Serif" font-size="10.00">include/BoxBuilderCore.hh</text>
</a>
</g>
</g>
<!-- Node2 -->
<g id="Node000002" class="node">
<title>Node2</title>
<g id="a_Node000002"><a xlink:href="VolumeBuilders_8hh.html" target="_top" xlink:title=" ">
<polygon fill="white" stroke="#666666" points="438.62,-90.25 292.88,-90.25 292.88,-69.5 438.62,-69.5 438.62,-90.25"/>
<text text-anchor="middle" x="365.75" y="-76.75" font-family="Helvetica,sans-Serif" font-size="10.00">include/VolumeBuilders.hh</text>
</a>
</g>
</g>
<!-- Node1&#45;&gt;Node2 -->
<g id="edge1_Node000001_Node000002" class="edge">
<title>Node1&#45;&gt;Node2</title>
<g id="a_edge1_Node000001_Node000002"><a xlink:title=" ">
<path fill="none" stroke="#63b8ff" d="M479.95,-122.01C452.93,-112.28 417.19,-99.4 392.95,-90.67"/>
<polygon fill="#63b8ff" stroke="#63b8ff" points="478.56,-125.23 489.15,-125.32 480.93,-118.64 478.56,-125.23"/>
</a>
</g>
</g>
<!-- Node8 -->
<g id="Node000008" class="node">
<title>Node8</title>
<g id="a_Node000008"><a xlink:href="BoxBuilderCore_8cc.html" target="_top" xlink:title=" ">
<polygon fill="white" stroke="#666666" points="579,-90.25 456.5,-90.25 456.5,-69.5 579,-69.5 579,-90.25"/>
<text text-anchor="middle" x="517.75" y="-76.75" font-family="Helvetica,sans-Serif" font-size="10.00">src/BoxBuilderCore.cc</text>
</a>
</g>
</g>
<!-- Node1&#45;&gt;Node8 -->
<g id="edge7_Node000001_Node000008" class="edge">
<title>Node1&#45;&gt;Node8</title>
<g id="a_edge7_Node000001_Node000008"><a xlink:title=" ">
<path fill="none" stroke="#63b8ff" d="M517.75,-114.38C517.75,-106.16 517.75,-97.18 517.75,-90.58"/>
<polygon fill="#63b8ff" stroke="#63b8ff" points="514.25,-114.32 517.75,-124.32 521.25,-114.32 514.25,-114.32"/>
</a>
</g>
</g>
<!-- Node9 -->
<g id="Node000009" class="node">
<title>Node9</title>
<g id="a_Node000009"><a xlink:href="VolumeBuilderBase_8cc.html" target="_top" xlink:title=" ">
<polygon fill="white" stroke="#666666" points="738.75,-90.25 596.75,-90.25 596.75,-69.5 738.75,-69.5 738.75,-90.25"/>
<text text-anchor="middle" x="667.75" y="-76.75" font-family="Helvetica,sans-Serif" font-size="10.00">src/VolumeBuilderBase.cc</text>
</a>
</g>
</g>
<!-- Node1&#45;&gt;Node9 -->
<g id="edge8_Node000001_Node000009" class="edge">
<title>Node1&#45;&gt;Node9</title>
<g id="a_edge8_Node000001_Node000009"><a xlink:title=" ">
<path fill="none" stroke="#63b8ff" d="M555.05,-122.01C581.72,-112.28 616.98,-99.4 640.91,-90.67"/>
<polygon fill="#63b8ff" stroke="#63b8ff" points="554.18,-118.6 545.99,-125.32 556.58,-125.18 554.18,-118.6"/>
</a>
</g>
</g>
<!-- Node3 -->
<g id="Node000003" class="node">
<title>Node3</title>
<g id="a_Node000003"><a xlink:href="ConstructAssembly_8cc.html" target="_top" xlink:title="Created by.">
<polygon fill="white" stroke="#666666" points="125.5,-33.5 0,-33.5 0,0 125.5,0 125.5,-33.5"/>
<text text-anchor="start" x="8" y="-20" font-family="Helvetica,sans-Serif" font-size="10.00">demo/src/Geometries</text>
<text text-anchor="middle" x="62.75" y="-7.25" font-family="Helvetica,sans-Serif" font-size="10.00">/ConstructAssembly.cc</text>
</a>
</g>
</g>
<!-- Node2&#45;&gt;Node3 -->
<g id="edge2_Node000002_Node000003" class="edge">
<title>Node2&#45;&gt;Node3</title>
<g id="a_edge2_Node000002_Node000003"><a xlink:title=" ">
<path fill="none" stroke="#63b8ff" d="M302.74,-66.88C256.26,-57.93 191.5,-45.28 134.75,-33.5 131.87,-32.9 128.92,-32.28 125.95,-31.66"/>
<polygon fill="#63b8ff" stroke="#63b8ff" points="301.88,-70.27 312.36,-68.72 303.2,-63.4 301.88,-70.27"/>
</a>
</g>
</g>
<!-- Node4 -->
<g id="Node000004" class="node">
<title>Node4</title>
<g id="a_Node000004"><a xlink:href="ConstructBoxExample_8cc.html" target="_top" xlink:title="Created by.">
<polygon fill="white" stroke="#666666" points="284,-33.5 143.5,-33.5 143.5,0 284,0 284,-33.5"/>
<text text-anchor="start" x="151.5" y="-20" font-family="Helvetica,sans-Serif" font-size="10.00">demo/src/Geometries</text>
<text text-anchor="middle" x="213.75" y="-7.25" font-family="Helvetica,sans-Serif" font-size="10.00">/ConstructBoxExample.cc</text>
</a>
</g>
</g>
<!-- Node2&#45;&gt;Node4 -->
<g id="edge3_Node000002_Node000004" class="edge">
<title>Node2&#45;&gt;Node4</title>
<g id="a_edge3_Node000002_Node000004"><a xlink:title=" ">
<path fill="none" stroke="#63b8ff" d="M330.73,-64.79C307.88,-55.6 277.98,-43.58 254.12,-33.98"/>
<polygon fill="#63b8ff" stroke="#63b8ff" points="329.34,-68.01 339.92,-68.49 331.95,-61.51 329.34,-68.01"/>
</a>
</g>
</g>
<!-- Node5 -->
<g id="Node000005" class="node">
<title>Node5</title>
<g id="a_Node000005"><a xlink:href="ConstructExample1_8cc.html" target="_top" xlink:title="Created by.">
<polygon fill="white" stroke="#666666" points="429.62,-33.5 301.88,-33.5 301.88,0 429.62,0 429.62,-33.5"/>
<text text-anchor="start" x="309.88" y="-20" font-family="Helvetica,sans-Serif" font-size="10.00">demo/src/Geometries</text>
<text text-anchor="middle" x="365.75" y="-7.25" font-family="Helvetica,sans-Serif" font-size="10.00">/ConstructExample1.cc</text>
</a>
</g>
</g>
<!-- Node2&#45;&gt;Node5 -->
<g id="edge4_Node000002_Node000005" class="edge">
<title>Node2&#45;&gt;Node5</title>
<g id="a_edge4_Node000002_Node000005"><a xlink:title=" ">
<path fill="none" stroke="#63b8ff" d="M365.75,-57.59C365.75,-49.85 365.75,-41.22 365.75,-33.98"/>
<polygon fill="#63b8ff" stroke="#63b8ff" points="362.25,-57.54 365.75,-67.54 369.25,-57.54 362.25,-57.54"/>
</a>
</g>
</g>
<!-- Node6 -->
<g id="Node000006" class="node">
<title>Node6</title>
<g id="a_Node000006"><a xlink:href="ConstructHexPart_8cc.html" target="_top" xlink:title=" ">
<polygon fill="white" stroke="#666666" points="568.25,-33.5 447.25,-33.5 447.25,0 568.25,0 568.25,-33.5"/>
<text text-anchor="start" x="455.25" y="-20" font-family="Helvetica,sans-Serif" font-size="10.00">demo/src/Geometries</text>
<text text-anchor="middle" x="507.75" y="-7.25" font-family="Helvetica,sans-Serif" font-size="10.00">/ConstructHexPart.cc</text>
</a>
</g>
</g>
<!-- Node2&#45;&gt;Node6 -->
<g id="edge5_Node000002_Node000006" class="edge">
<title>Node2&#45;&gt;Node6</title>
<g id="a_edge5_Node000002_Node000006"><a xlink:title=" ">
<path fill="none" stroke="#63b8ff" d="M399.05,-64.54C420.32,-55.39 447.95,-43.49 470.03,-33.98"/>
<polygon fill="#63b8ff" stroke="#63b8ff" points="397.76,-61.29 389.95,-68.46 400.52,-67.72 397.76,-61.29"/>
</a>
</g>
</g>
<!-- Node7 -->
<g id="Node000007" class="node">
<title>Node7</title>
<g id="a_Node000007"><a xlink:href="ConstructWorld_8cc.html" target="_top" xlink:title=" ">
<polygon fill="white" stroke="#666666" points="707.25,-33.5 586.25,-33.5 586.25,0 707.25,0 707.25,-33.5"/>
<text text-anchor="start" x="594.25" y="-20" font-family="Helvetica,sans-Serif" font-size="10.00">demo/src/Geometries</text>
<text text-anchor="middle" x="646.75" y="-7.25" font-family="Helvetica,sans-Serif" font-size="10.00">/ConstructWorld.cc</text>
</a>
</g>
</g>
<!-- Node2&#45;&gt;Node7 -->
<g id="edge6_Node000002_Node000007" class="edge">
<title>Node2&#45;&gt;Node7</title>
<g id="a_edge6_Node000002_Node000007"><a xlink:title=" ">
<path fill="none" stroke="#63b8ff" d="M423.54,-66.73C466.19,-57.71 525.63,-45.03 577.75,-33.5 580.39,-32.92 583.08,-32.32 585.81,-31.71"/>
<polygon fill="#63b8ff" stroke="#63b8ff" points="423.07,-63.25 414.01,-68.74 424.51,-70.1 423.07,-63.25"/>
</a>
</g>
</g>
</g>
</svg>
