<?xml version="1.0" encoding="UTF-8" standalone="no"?>
<!DOCTYPE svg PUBLIC "-//W3C//DTD SVG 1.1//EN"
 "http://www.w3.org/Graphics/SVG/1.1/DTD/svg11.dtd">
<!-- Generated by graphviz version 12.0.0 (20240803.0821)
 -->
<!-- Title: include/BuilderFactories.hh Pages: 1 -->
<svg width="1886pt" height="420pt"
 viewBox="0.00 0.00 1885.91 420.25" xmlns="http://www.w3.org/2000/svg" xmlns:xlink="http://www.w3.org/1999/xlink">
<g id="graph0" class="graph" transform="scale(1 1) rotate(0) translate(4 416.25)">
<title>include/BuilderFactories.hh</title>
<!-- Node1 -->
<g id="Node000001" class="node">
<title>Node1</title>
<g id="a_Node000001"><a xlink:title=" ">
<polygon fill="#999999" stroke="#666666" points="944.88,-412.25 797.62,-412.25 797.62,-391.5 944.88,-391.5 944.88,-412.25"/>
<text text-anchor="middle" x="871.25" y="-398.75" font-family="Helvetica,sans-Serif" font-size="10.00">include/BuilderFactories.hh</text>
</a>
</g>
</g>
<!-- Node2 -->
<g id="Node000002" class="node">
<title>Node2</title>
<g id="a_Node000002"><a xlink:href="AssemblyCore_8hh.html" target="_top" xlink:title=" ">
<polygon fill="white" stroke="#666666" points="1499.12,-286 1359.38,-286 1359.38,-265.25 1499.12,-265.25 1499.12,-286"/>
<text text-anchor="middle" x="1429.25" y="-272.5" font-family="Helvetica,sans-Serif" font-size="10.00">include/AssemblyCore.hh</text>
</a>
</g>
</g>
<!-- Node1&#45;&gt;Node2 -->
<g id="edge1_Node000001_Node000002" class="edge">
<title>Node1&#45;&gt;Node2</title>
<g id="a_edge1_Node000001_Node000002"><a xlink:title=" ">
<path fill="none" stroke="#63b8ff" d="M926.41,-388.59C1037.04,-363.96 1284.06,-308.95 1384.99,-286.48"/>
<polygon fill="#63b8ff" stroke="#63b8ff" points="925.98,-385.1 916.98,-390.69 927.5,-391.94 925.98,-385.1"/>
</a>
</g>
</g>
<!-- Node5 -->
<g id="Node000005" class="node">
<title>Node5</title>
<g id="a_Node000005"><a xlink:href="VolumeBuilders_8hh.html" target="_top" xlink:title=" ">
<polygon fill="white" stroke="#666666" points="437.12,-90.25 291.38,-90.25 291.38,-69.5 437.12,-69.5 437.12,-90.25"/>
<text text-anchor="middle" x="364.25" y="-76.75" font-family="Helvetica,sans-Serif" font-size="10.00">include/VolumeBuilders.hh</text>
</a>
</g>
</g>
<!-- Node1&#45;&gt;Node5 -->
<g id="edge63_Node000001_Node000005" class="edge">
<title>Node1&#45;&gt;Node5</title>
<g id="a_edge63_Node000001_Node000005"><a xlink:title=" ">
<path fill="none" stroke="#63b8ff" d="M786.07,-400.22C624.22,-396.67 288.25,-377.18 288.25,-276.62 288.25,-276.62 288.25,-276.62 288.25,-211.5 288.25,-160.08 332.8,-110.82 353.68,-90.56"/>
<polygon fill="#63b8ff" stroke="#63b8ff" points="785.83,-403.72 795.9,-400.42 785.97,-396.72 785.83,-403.72"/>
</a>
</g>
</g>
<!-- Node13 -->
<g id="Node000013" class="node">
<title>Node13</title>
<g id="a_Node000013"><a xlink:href="FromG4VSolidCore_8hh.html" target="_top" xlink:title=" ">
<polygon fill="white" stroke="#666666" points="590.62,-153.38 429.88,-153.38 429.88,-132.62 590.62,-132.62 590.62,-153.38"/>
<text text-anchor="middle" x="510.25" y="-139.88" font-family="Helvetica,sans-Serif" font-size="10.00">include/FromG4VSolidCore.hh</text>
</a>
</g>
</g>
<!-- Node1&#45;&gt;Node13 -->
<g id="edge38_Node000001_Node000013" class="edge">
<title>Node1&#45;&gt;Node13</title>
<g id="a_edge38_Node000001_Node000013"><a xlink:title=" ">
<path fill="none" stroke="#63b8ff" d="M844.19,-385.32C829.75,-376.82 811.81,-365.93 796.25,-355.5 686.98,-282.27 561.55,-184.48 522.5,-153.7"/>
<polygon fill="#63b8ff" stroke="#63b8ff" points="842.28,-388.26 852.68,-390.28 845.81,-382.22 842.28,-388.26"/>
</a>
</g>
</g>
<!-- Node18 -->
<g id="Node000018" class="node">
<title>Node18</title>
<g id="a_Node000018"><a xlink:href="VolumeBuilderCore_8hh.html" target="_top" xlink:title=" ">
<polygon fill="white" stroke="#666666" points="1586.75,-153.38 1423.75,-153.38 1423.75,-132.62 1586.75,-132.62 1586.75,-153.38"/>
<text text-anchor="middle" x="1505.25" y="-139.88" font-family="Helvetica,sans-Serif" font-size="10.00">include/VolumeBuilderCore.hh</text>
</a>
</g>
</g>
<!-- Node1&#45;&gt;Node18 -->
<g id="edge62_Node000001_Node000018" class="edge">
<title>Node1&#45;&gt;Node18</title>
<g id="a_edge62_Node000001_Node000018"><a xlink:title=" ">
<path fill="none" stroke="#63b8ff" d="M956.54,-397.16C1111.8,-388.57 1431.65,-361.92 1508.25,-286 1544.51,-250.07 1520.17,-179.4 1509.52,-153.67"/>
<polygon fill="#63b8ff" stroke="#63b8ff" points="956.51,-393.65 946.71,-397.69 956.89,-400.64 956.51,-393.65"/>
</a>
</g>
</g>
<!-- Node22 -->
<g id="Node000022" class="node">
<title>Node22</title>
<g id="a_Node000022"><a xlink:href="StructureBuilderBase_8hh.html" target="_top" xlink:title=" ">
<polygon fill="white" stroke="#666666" points="937.75,-355.5 804.75,-355.5 804.75,-322 937.75,-322 937.75,-355.5"/>
<text text-anchor="start" x="812.75" y="-342" font-family="Helvetica,sans-Serif" font-size="10.00">include/StructureBuilder</text>
<text text-anchor="middle" x="871.25" y="-329.25" font-family="Helvetica,sans-Serif" font-size="10.00">Base.hh</text>
</a>
</g>
</g>
<!-- Node1&#45;&gt;Node22 -->
<g id="edge39_Node000001_Node000022" class="edge">
<title>Node1&#45;&gt;Node22</title>
<g id="a_edge39_Node000001_Node000022"><a xlink:title=" ">
<path fill="none" stroke="#63b8ff" d="M871.25,-379.59C871.25,-371.85 871.25,-363.22 871.25,-355.98"/>
<polygon fill="#63b8ff" stroke="#63b8ff" points="867.75,-379.54 871.25,-389.54 874.75,-379.54 867.75,-379.54"/>
</a>
</g>
</g>
<!-- Node3 -->
<g id="Node000003" class="node">
<title>Node3</title>
<g id="a_Node000003"><a xlink:href="VolumeBuilderBase_8hh.html" target="_top" xlink:title=" ">
<polygon fill="white" stroke="#666666" points="1511.5,-222.88 1347,-222.88 1347,-202.12 1511.5,-202.12 1511.5,-222.88"/>
<text text-anchor="middle" x="1429.25" y="-209.38" font-family="Helvetica,sans-Serif" font-size="10.00">include/VolumeBuilderBase.hh</text>
</a>
</g>
</g>
<!-- Node2&#45;&gt;Node3 -->
<g id="edge2_Node000002_Node000003" class="edge">
<title>Node2&#45;&gt;Node3</title>
<g id="a_edge2_Node000002_Node000003"><a xlink:title=" ">
<path fill="none" stroke="#63b8ff" d="M1429.25,-253.36C1429.25,-243.05 1429.25,-231.18 1429.25,-223.09"/>
<polygon fill="#63b8ff" stroke="#63b8ff" points="1425.75,-253.29 1429.25,-263.29 1432.75,-253.29 1425.75,-253.29"/>
</a>
</g>
</g>
<!-- Node2&#45;&gt;Node5 -->
<g id="edge35_Node000002_Node000005" class="edge">
<title>Node2&#45;&gt;Node5</title>
<g id="a_edge35_Node000002_Node000005"><a xlink:title=" ">
<path fill="none" stroke="#63b8ff" d="M1347.85,-273.69C1136.9,-269.97 578.1,-251.49 421.25,-159.75 393.54,-143.54 375.56,-107.95 368.14,-90.67"/>
<polygon fill="#63b8ff" stroke="#63b8ff" points="1347.56,-277.19 1357.62,-273.86 1347.68,-270.19 1347.56,-277.19"/>
</a>
</g>
</g>
<!-- Node12 -->
<g id="Node000012" class="node">
<title>Node12</title>
<g id="a_Node000012"><a xlink:href="VolumeBuilderBase_8cc.html" target="_top" xlink:title=" ">
<polygon fill="white" stroke="#666666" points="1111.25,-27.12 969.25,-27.12 969.25,-6.38 1111.25,-6.38 1111.25,-27.12"/>
<text text-anchor="middle" x="1040.25" y="-13.62" font-family="Helvetica,sans-Serif" font-size="10.00">src/VolumeBuilderBase.cc</text>
</a>
</g>
</g>
<!-- Node2&#45;&gt;Node12 -->
<g id="edge37_Node000002_Node000012" class="edge">
<title>Node2&#45;&gt;Node12</title>
<g id="a_edge37_Node000002_Node000012"><a xlink:title=" ">
<path fill="none" stroke="#63b8ff" d="M1510.48,-264.84C1662.05,-243.6 1963.16,-185.56 1854.25,-69.5 1829.01,-42.6 1305.55,-25.21 1111.66,-19.66"/>
<polygon fill="#63b8ff" stroke="#63b8ff" points="1510.32,-261.33 1500.89,-266.16 1511.28,-268.26 1510.32,-261.33"/>
</a>
</g>
</g>
<!-- Node17 -->
<g id="Node000017" class="node">
<title>Node17</title>
<g id="a_Node000017"><a xlink:href="VolumeBuilderBase_8hpp.html" target="_top" xlink:title=" ">
<polygon fill="white" stroke="#666666" points="1825.5,-90.25 1655,-90.25 1655,-69.5 1825.5,-69.5 1825.5,-90.25"/>
<text text-anchor="middle" x="1740.25" y="-76.75" font-family="Helvetica,sans-Serif" font-size="10.00">include/VolumeBuilderBase.hpp</text>
</a>
</g>
</g>
<!-- Node2&#45;&gt;Node17 -->
<g id="edge34_Node000002_Node000017" class="edge">
<title>Node2&#45;&gt;Node17</title>
<g id="a_edge34_Node000002_Node000017"><a xlink:title=" ">
<path fill="none" stroke="#63b8ff" d="M1510.88,-268.88C1583.27,-258.96 1685.07,-232.12 1735.25,-159.75 1749.79,-138.78 1745.84,-106.64 1742.59,-90.64"/>
<polygon fill="#63b8ff" stroke="#63b8ff" points="1510.5,-265.4 1501.03,-270.14 1511.39,-272.34 1510.5,-265.4"/>
</a>
</g>
</g>
<!-- Node19 -->
<g id="Node000019" class="node">
<title>Node19</title>
<g id="a_Node000019"><a xlink:href="AssemblyCore_8cc.html" target="_top" xlink:title="Created by.">
<polygon fill="white" stroke="#666666" points="1636.88,-90.25 1519.62,-90.25 1519.62,-69.5 1636.88,-69.5 1636.88,-90.25"/>
<text text-anchor="middle" x="1578.25" y="-76.75" font-family="Helvetica,sans-Serif" font-size="10.00">src/AssemblyCore.cc</text>
</a>
</g>
</g>
<!-- Node2&#45;&gt;Node19 -->
<g id="edge36_Node000002_Node000019" class="edge">
<title>Node2&#45;&gt;Node19</title>
<g id="a_edge36_Node000002_Node000019"><a xlink:title=" ">
<path fill="none" stroke="#63b8ff" d="M1475.45,-261.23C1520.52,-245.32 1586.13,-213.87 1613.25,-159.75 1619.92,-146.44 1618.05,-140.34 1613.25,-126.25 1608.44,-112.12 1597.25,-98.97 1588.81,-90.51"/>
<polygon fill="#63b8ff" stroke="#63b8ff" points="1474.54,-257.84 1466.19,-264.36 1476.78,-264.47 1474.54,-257.84"/>
</a>
</g>
</g>
<!-- Node4 -->
<g id="Node000004" class="node">
<title>Node4</title>
<g id="a_Node000004"><a xlink:href="BoxBuilderCore_8hh.html" target="_top" xlink:title=" ">
<polygon fill="white" stroke="#666666" points="1063.75,-153.38 918.75,-153.38 918.75,-132.62 1063.75,-132.62 1063.75,-153.38"/>
<text text-anchor="middle" x="991.25" y="-139.88" font-family="Helvetica,sans-Serif" font-size="10.00">include/BoxBuilderCore.hh</text>
</a>
</g>
</g>
<!-- Node3&#45;&gt;Node4 -->
<g id="edge3_Node000003_Node000004" class="edge">
<title>Node3&#45;&gt;Node4</title>
<g id="a_edge3_Node000003_Node000004"><a xlink:title=" ">
<path fill="none" stroke="#63b8ff" d="M1343.14,-200.1C1270.93,-190.27 1165.18,-175.25 1073.25,-159.75 1062.67,-157.97 1051.36,-155.9 1040.62,-153.86"/>
<polygon fill="#63b8ff" stroke="#63b8ff" points="1342.55,-203.55 1352.93,-201.43 1343.49,-196.61 1342.55,-203.55"/>
</a>
</g>
</g>
<!-- Node3&#45;&gt;Node12 -->
<g id="edge32_Node000003_Node000012" class="edge">
<title>Node3&#45;&gt;Node12</title>
<g id="a_edge32_Node000003_Node000012"><a xlink:title=" ">
<path fill="none" stroke="#63b8ff" d="M1522.99,-208.24C1670.17,-200 1929.39,-171.05 1834.25,-69.5 1809.72,-43.32 1302.1,-25.55 1111.62,-19.78"/>
<polygon fill="#63b8ff" stroke="#63b8ff" points="1523.03,-204.73 1513.23,-208.76 1523.4,-211.72 1523.03,-204.73"/>
</a>
</g>
</g>
<!-- Node3&#45;&gt;Node13 -->
<g id="edge12_Node000003_Node000013" class="edge">
<title>Node3&#45;&gt;Node13</title>
<g id="a_edge12_Node000003_Node000013"><a xlink:title=" ">
<path fill="none" stroke="#63b8ff" d="M1335.8,-204.1C1300.81,-201.39 1260.72,-198.35 1224.25,-195.75 980.34,-178.38 918.99,-179.37 675.25,-159.75 647.71,-157.53 617.63,-154.76 590.77,-152.17"/>
<polygon fill="#63b8ff" stroke="#63b8ff" points="1335.22,-207.56 1345.46,-204.85 1335.76,-200.59 1335.22,-207.56"/>
</a>
</g>
</g>
<!-- Node14 -->
<g id="Node000014" class="node">
<title>Node14</title>
<g id="a_Node000014"><a xlink:href="FromG4VSolidCore_8cc.html" target="_top" xlink:title=" ">
<polygon fill="white" stroke="#666666" points="787.38,-90.25 649.12,-90.25 649.12,-69.5 787.38,-69.5 787.38,-90.25"/>
<text text-anchor="middle" x="718.25" y="-76.75" font-family="Helvetica,sans-Serif" font-size="10.00">src/FromG4VSolidCore.cc</text>
</a>
</g>
</g>
<!-- Node3&#45;&gt;Node14 -->
<g id="edge30_Node000003_Node000014" class="edge">
<title>Node3&#45;&gt;Node14</title>
<g id="a_edge30_Node000003_Node000014"><a xlink:title=" ">
<path fill="none" stroke="#63b8ff" d="M1335.34,-203.73C1196.95,-192.03 950.23,-170.17 910.25,-159.75 874.13,-150.34 867.72,-140.55 833.25,-126.25 802.72,-113.59 767.3,-99.74 743.93,-90.72"/>
<polygon fill="#63b8ff" stroke="#63b8ff" points="1334.99,-207.21 1345.24,-204.56 1335.57,-200.23 1334.99,-207.21"/>
</a>
</g>
</g>
<!-- Node15 -->
<g id="Node000015" class="node">
<title>Node15</title>
<g id="a_Node000015"><a xlink:href="RZBuilderCore_8hh.html" target="_top" xlink:title=" ">
<polygon fill="white" stroke="#666666" points="824.12,-153.38 684.38,-153.38 684.38,-132.62 824.12,-132.62 824.12,-153.38"/>
<text text-anchor="middle" x="754.25" y="-139.88" font-family="Helvetica,sans-Serif" font-size="10.00">include/RZBuilderCore.hh</text>
</a>
</g>
</g>
<!-- Node3&#45;&gt;Node15 -->
<g id="edge16_Node000003_Node000015" class="edge">
<title>Node3&#45;&gt;Node15</title>
<g id="a_edge16_Node000003_Node000015"><a xlink:title=" ">
<path fill="none" stroke="#63b8ff" d="M1335.32,-203.72C1225.21,-194.37 1037.3,-177.68 876.25,-159.75 859.48,-157.88 841.44,-155.67 824.52,-153.5"/>
<polygon fill="#63b8ff" stroke="#63b8ff" points="1334.94,-207.2 1345.2,-204.56 1335.53,-200.23 1334.94,-207.2"/>
</a>
</g>
</g>
<!-- Node3&#45;&gt;Node17 -->
<g id="edge20_Node000003_Node000017" class="edge">
<title>Node3&#45;&gt;Node17</title>
<g id="a_edge20_Node000003_Node000017"><a xlink:title=" ">
<path fill="none" stroke="#63b8ff" d="M1523,-204.25C1593.71,-196.99 1683.15,-183.42 1711.25,-159.75 1732.34,-141.99 1738.1,-107.46 1739.66,-90.6"/>
<polygon fill="#63b8ff" stroke="#63b8ff" points="1522.93,-200.74 1513.33,-205.21 1523.63,-207.71 1522.93,-200.74"/>
</a>
</g>
</g>
<!-- Node3&#45;&gt;Node18 -->
<g id="edge22_Node000003_Node000018" class="edge">
<title>Node3&#45;&gt;Node18</title>
<g id="a_edge22_Node000003_Node000018"><a xlink:title=" ">
<path fill="none" stroke="#63b8ff" d="M1448.39,-194.5C1462.84,-181.67 1482.14,-164.52 1494.13,-153.87"/>
<polygon fill="#63b8ff" stroke="#63b8ff" points="1446.42,-191.57 1441.27,-200.82 1451.07,-196.8 1446.42,-191.57"/>
</a>
</g>
</g>
<!-- Node3&#45;&gt;Node19 -->
<g id="edge29_Node000003_Node000019" class="edge">
<title>Node3&#45;&gt;Node19</title>
<g id="a_edge29_Node000003_Node000019"><a xlink:title=" ">
<path fill="none" stroke="#63b8ff" d="M1522.95,-203.66C1551.02,-196.41 1578.92,-183.26 1596.25,-159.75 1611.75,-138.72 1595.22,-106.61 1585.03,-90.62"/>
<polygon fill="#63b8ff" stroke="#63b8ff" points="1522.21,-200.24 1513.26,-205.91 1523.79,-207.06 1522.21,-200.24"/>
</a>
</g>
</g>
<!-- Node20 -->
<g id="Node000020" class="node">
<title>Node20</title>
<g id="a_Node000020"><a xlink:href="StructureBuilderCore_8cc.html" target="_top" xlink:title="Created by.">
<polygon fill="white" stroke="#666666" points="1305.25,-90.25 1157.25,-90.25 1157.25,-69.5 1305.25,-69.5 1305.25,-90.25"/>
<text text-anchor="middle" x="1231.25" y="-76.75" font-family="Helvetica,sans-Serif" font-size="10.00">src/StructureBuilderCore.cc</text>
</a>
</g>
</g>
<!-- Node3&#45;&gt;Node20 -->
<g id="edge31_Node000003_Node000020" class="edge">
<title>Node3&#45;&gt;Node20</title>
<g id="a_edge31_Node000003_Node000020"><a xlink:title=" ">
<path fill="none" stroke="#63b8ff" d="M1412.34,-193.51C1394.14,-174.9 1363.68,-145.86 1333.25,-126.25 1309.79,-111.13 1280.45,-98.67 1259.27,-90.65"/>
<polygon fill="#63b8ff" stroke="#63b8ff" points="1409.74,-195.85 1419.19,-200.64 1414.78,-191 1409.74,-195.85"/>
</a>
</g>
</g>
<!-- Node21 -->
<g id="Node000021" class="node">
<title>Node21</title>
<g id="a_Node000021"><a xlink:href="VolumeBuilderCore_8cc.html" target="_top" xlink:title="Created by.">
<polygon fill="white" stroke="#666666" points="1463.5,-90.25 1323,-90.25 1323,-69.5 1463.5,-69.5 1463.5,-90.25"/>
<text text-anchor="middle" x="1393.25" y="-76.75" font-family="Helvetica,sans-Serif" font-size="10.00">src/VolumeBuilderCore.cc</text>
</a>
</g>
</g>
<!-- Node3&#45;&gt;Node21 -->
<g id="edge33_Node000003_Node000021" class="edge">
<title>Node3&#45;&gt;Node21</title>
<g id="a_edge33_Node000003_Node000021"><a xlink:title=" ">
<path fill="none" stroke="#63b8ff" d="M1423.57,-190.91C1415.68,-162.25 1401.69,-111.51 1395.89,-90.45"/>
<polygon fill="#63b8ff" stroke="#63b8ff" points="1420.11,-191.51 1426.14,-200.22 1426.86,-189.65 1420.11,-191.51"/>
</a>
</g>
</g>
<!-- Node4&#45;&gt;Node5 -->
<g id="edge4_Node000004_Node000005" class="edge">
<title>Node4&#45;&gt;Node5</title>
<g id="a_edge4_Node000004_Node000005"><a xlink:title=" ">
<path fill="none" stroke="#63b8ff" d="M907.31,-133.59C883.38,-131.2 857.29,-128.61 833.25,-126.25 693.22,-112.5 529.64,-96.74 437.37,-87.88"/>
<polygon fill="#63b8ff" stroke="#63b8ff" points="906.69,-137.04 916.99,-134.55 907.39,-130.08 906.69,-137.04"/>
</a>
</g>
</g>
<!-- Node11 -->
<g id="Node000011" class="node">
<title>Node11</title>
<g id="a_Node000011"><a xlink:href="BoxBuilderCore_8cc.html" target="_top" xlink:title=" ">
<polygon fill="white" stroke="#666666" points="1101.5,-90.25 979,-90.25 979,-69.5 1101.5,-69.5 1101.5,-90.25"/>
<text text-anchor="middle" x="1040.25" y="-76.75" font-family="Helvetica,sans-Serif" font-size="10.00">src/BoxBuilderCore.cc</text>
</a>
</g>
</g>
<!-- Node4&#45;&gt;Node11 -->
<g id="edge10_Node000004_Node000011" class="edge">
<title>Node4&#45;&gt;Node11</title>
<g id="a_edge10_Node000004_Node000011"><a xlink:title=" ">
<path fill="none" stroke="#63b8ff" d="M1006.15,-123.42C1014.86,-112.54 1025.51,-99.27 1032.56,-90.47"/>
<polygon fill="#63b8ff" stroke="#63b8ff" points="1003.59,-121.01 1000.07,-131 1009.06,-125.38 1003.59,-121.01"/>
</a>
</g>
</g>
<!-- Node4&#45;&gt;Node12 -->
<g id="edge11_Node000004_Node000012" class="edge">
<title>Node4&#45;&gt;Node12</title>
<g id="a_edge11_Node000004_Node000012"><a xlink:title=" ">
<path fill="none" stroke="#63b8ff" d="M977.98,-122.45C969.55,-107.43 961.7,-86.45 970.25,-69.5 980.12,-49.93 1001.26,-35.93 1017.75,-27.46"/>
<polygon fill="#63b8ff" stroke="#63b8ff" points="974.96,-124.23 983.19,-130.91 980.92,-120.56 974.96,-124.23"/>
</a>
</g>
</g>
<!-- Node6 -->
<g id="Node000006" class="node">
<title>Node6</title>
<g id="a_Node000006"><a xlink:href="ConstructAssembly_8cc.html" target="_top" xlink:title="Created by.">
<polygon fill="white" stroke="#666666" points="707,-33.5 581.5,-33.5 581.5,0 707,0 707,-33.5"/>
<text text-anchor="start" x="589.5" y="-20" font-family="Helvetica,sans-Serif" font-size="10.00">demo/src/Geometries</text>
<text text-anchor="middle" x="644.25" y="-7.25" font-family="Helvetica,sans-Serif" font-size="10.00">/ConstructAssembly.cc</text>
</a>
</g>
</g>
<!-- Node5&#45;&gt;Node6 -->
<g id="edge5_Node000005_Node000006" class="edge">
<title>Node5&#45;&gt;Node6</title>
<g id="a_edge5_Node000005_Node000006"><a xlink:title=" ">
<path fill="none" stroke="#63b8ff" d="M421.05,-66.62C463.09,-57.52 521.76,-44.8 573.25,-33.5 575.84,-32.93 578.48,-32.35 581.15,-31.76"/>
<polygon fill="#63b8ff" stroke="#63b8ff" points="420.44,-63.17 411.41,-68.7 421.92,-70.01 420.44,-63.17"/>
</a>
</g>
</g>
<!-- Node7 -->
<g id="Node000007" class="node">
<title>Node7</title>
<g id="a_Node000007"><a xlink:href="ConstructBoxExample_8cc.html" target="_top" xlink:title="Created by.">
<polygon fill="white" stroke="#666666" points="140.5,-33.5 0,-33.5 0,0 140.5,0 140.5,-33.5"/>
<text text-anchor="start" x="8" y="-20" font-family="Helvetica,sans-Serif" font-size="10.00">demo/src/Geometries</text>
<text text-anchor="middle" x="70.25" y="-7.25" font-family="Helvetica,sans-Serif" font-size="10.00">/ConstructBoxExample.cc</text>
</a>
</g>
</g>
<!-- Node5&#45;&gt;Node7 -->
<g id="edge6_Node000005_Node000007" class="edge">
<title>Node5&#45;&gt;Node7</title>
<g id="a_edge6_Node000005_Node000007"><a xlink:title=" ">
<path fill="none" stroke="#63b8ff" d="M306.01,-66.77C258.59,-56.91 191.47,-42.95 140.97,-32.45"/>
<polygon fill="#63b8ff" stroke="#63b8ff" points="305.03,-70.14 315.53,-68.75 306.45,-63.28 305.03,-70.14"/>
</a>
</g>
</g>
<!-- Node8 -->
<g id="Node000008" class="node">
<title>Node8</title>
<g id="a_Node000008"><a xlink:href="ConstructExample1_8cc.html" target="_top" xlink:title="Created by.">
<polygon fill="white" stroke="#666666" points="286.12,-33.5 158.38,-33.5 158.38,0 286.12,0 286.12,-33.5"/>
<text text-anchor="start" x="166.38" y="-20" font-family="Helvetica,sans-Serif" font-size="10.00">demo/src/Geometries</text>
<text text-anchor="middle" x="222.25" y="-7.25" font-family="Helvetica,sans-Serif" font-size="10.00">/ConstructExample1.cc</text>
</a>
</g>
</g>
<!-- Node5&#45;&gt;Node8 -->
<g id="edge7_Node000005_Node000008" class="edge">
<title>Node5&#45;&gt;Node8</title>
<g id="a_edge7_Node000005_Node000008"><a xlink:title=" ">
<path fill="none" stroke="#63b8ff" d="M330.95,-64.54C309.68,-55.39 282.05,-43.49 259.97,-33.98"/>
<polygon fill="#63b8ff" stroke="#63b8ff" points="329.48,-67.72 340.05,-68.46 332.24,-61.29 329.48,-67.72"/>
</a>
</g>
</g>
<!-- Node9 -->
<g id="Node000009" class="node">
<title>Node9</title>
<g id="a_Node000009"><a xlink:href="ConstructHexPart_8cc.html" target="_top" xlink:title=" ">
<polygon fill="white" stroke="#666666" points="424.75,-33.5 303.75,-33.5 303.75,0 424.75,0 424.75,-33.5"/>
<text text-anchor="start" x="311.75" y="-20" font-family="Helvetica,sans-Serif" font-size="10.00">demo/src/Geometries</text>
<text text-anchor="middle" x="364.25" y="-7.25" font-family="Helvetica,sans-Serif" font-size="10.00">/ConstructHexPart.cc</text>
</a>
</g>
</g>
<!-- Node5&#45;&gt;Node9 -->
<g id="edge8_Node000005_Node000009" class="edge">
<title>Node5&#45;&gt;Node9</title>
<g id="a_edge8_Node000005_Node000009"><a xlink:title=" ">
<path fill="none" stroke="#63b8ff" d="M364.25,-57.59C364.25,-49.85 364.25,-41.22 364.25,-33.98"/>
<polygon fill="#63b8ff" stroke="#63b8ff" points="360.75,-57.54 364.25,-67.54 367.75,-57.54 360.75,-57.54"/>
</a>
</g>
</g>
<!-- Node10 -->
<g id="Node000010" class="node">
<title>Node10</title>
<g id="a_Node000010"><a xlink:href="ConstructWorld_8cc.html" target="_top" xlink:title=" ">
<polygon fill="white" stroke="#666666" points="563.75,-33.5 442.75,-33.5 442.75,0 563.75,0 563.75,-33.5"/>
<text text-anchor="start" x="450.75" y="-20" font-family="Helvetica,sans-Serif" font-size="10.00">demo/src/Geometries</text>
<text text-anchor="middle" x="503.25" y="-7.25" font-family="Helvetica,sans-Serif" font-size="10.00">/ConstructWorld.cc</text>
</a>
</g>
</g>
<!-- Node5&#45;&gt;Node10 -->
<g id="edge9_Node000005_Node000010" class="edge">
<title>Node5&#45;&gt;Node10</title>
<g id="a_edge9_Node000005_Node000010"><a xlink:title=" ">
<path fill="none" stroke="#63b8ff" d="M396.84,-64.54C417.67,-55.39 444.72,-43.49 466.33,-33.98"/>
<polygon fill="#63b8ff" stroke="#63b8ff" points="395.71,-61.22 387.97,-68.44 398.53,-67.62 395.71,-61.22"/>
</a>
</g>
</g>
<!-- Node13&#45;&gt;Node5 -->
<g id="edge13_Node000013_Node000005" class="edge">
<title>Node13&#45;&gt;Node5</title>
<g id="a_edge13_Node000013_Node000005"><a xlink:title=" ">
<path fill="none" stroke="#63b8ff" d="M476.19,-127.74C448.98,-116.35 411.57,-100.69 387.65,-90.67"/>
<polygon fill="#63b8ff" stroke="#63b8ff" points="474.82,-130.96 485.4,-131.59 477.52,-124.5 474.82,-130.96"/>
</a>
</g>
</g>
<!-- Node13&#45;&gt;Node12 -->
<g id="edge15_Node000013_Node000012" class="edge">
<title>Node13&#45;&gt;Node12</title>
<g id="a_edge15_Node000013_Node000012"><a xlink:title=" ">
<path fill="none" stroke="#63b8ff" d="M520.55,-122.13C530.54,-105.07 547.39,-81.4 569.25,-69.5 636.44,-32.92 854.63,-22.18 968.93,-19.04"/>
<polygon fill="#63b8ff" stroke="#63b8ff" points="517.49,-120.43 515.72,-130.88 523.62,-123.81 517.49,-120.43"/>
</a>
</g>
</g>
<!-- Node13&#45;&gt;Node14 -->
<g id="edge14_Node000013_Node000014" class="edge">
<title>Node13&#45;&gt;Node14</title>
<g id="a_edge14_Node000013_Node000014"><a xlink:title=" ">
<path fill="none" stroke="#63b8ff" d="M554.7,-128.94C593.72,-117.47 649.62,-101.04 684.91,-90.67"/>
<polygon fill="#63b8ff" stroke="#63b8ff" points="553.73,-125.57 545.12,-131.75 555.7,-132.29 553.73,-125.57"/>
</a>
</g>
</g>
<!-- Node15&#45;&gt;Node5 -->
<g id="edge17_Node000015_Node000005" class="edge">
<title>Node15&#45;&gt;Node5</title>
<g id="a_edge17_Node000015_Node000005"><a xlink:title=" ">
<path fill="none" stroke="#63b8ff" d="M680.62,-130.46C607.4,-118.98 496.27,-101.57 427.08,-90.72"/>
<polygon fill="#63b8ff" stroke="#63b8ff" points="679.67,-133.85 690.09,-131.94 680.76,-126.94 679.67,-133.85"/>
</a>
</g>
</g>
<!-- Node15&#45;&gt;Node12 -->
<g id="edge19_Node000015_Node000012" class="edge">
<title>Node15&#45;&gt;Node12</title>
<g id="a_edge19_Node000015_Node000012"><a xlink:title=" ">
<path fill="none" stroke="#63b8ff" d="M701.12,-128.99C661.08,-116.71 616.78,-96.21 640.25,-69.5 661.57,-45.24 859.93,-29.07 969.06,-21.93"/>
<polygon fill="#63b8ff" stroke="#63b8ff" points="699.94,-132.29 710.52,-131.73 701.9,-125.57 699.94,-132.29"/>
</a>
</g>
</g>
<!-- Node16 -->
<g id="Node000016" class="node">
<title>Node16</title>
<g id="a_Node000016"><a xlink:href="RZBuilderCore_8cc.html" target="_top" xlink:title=" ">
<polygon fill="white" stroke="#666666" points="922.88,-90.25 805.62,-90.25 805.62,-69.5 922.88,-69.5 922.88,-90.25"/>
<text text-anchor="middle" x="864.25" y="-76.75" font-family="Helvetica,sans-Serif" font-size="10.00">src/RZBuilderCore.cc</text>
</a>
</g>
</g>
<!-- Node15&#45;&gt;Node16 -->
<g id="edge18_Node000015_Node000016" class="edge">
<title>Node15&#45;&gt;Node16</title>
<g id="a_edge18_Node000015_Node000016"><a xlink:title=" ">
<path fill="none" stroke="#63b8ff" d="M781.85,-126.67C802.15,-115.38 829.16,-100.38 846.62,-90.67"/>
<polygon fill="#63b8ff" stroke="#63b8ff" points="780.29,-123.53 773.25,-131.44 783.69,-129.65 780.29,-123.53"/>
</a>
</g>
</g>
<!-- Node17&#45;&gt;Node12 -->
<g id="edge21_Node000017_Node000012" class="edge">
<title>Node17&#45;&gt;Node12</title>
<g id="a_edge21_Node000017_Node000012"><a xlink:title=" ">
<path fill="none" stroke="#63b8ff" d="M1643.45,-69.25C1444.63,-50.92 1222.89,-32.57 1111.65,-23.52"/>
<polygon fill="#63b8ff" stroke="#63b8ff" points="1642.91,-72.72 1653.19,-70.15 1643.56,-65.75 1642.91,-72.72"/>
</a>
</g>
</g>
<!-- Node18&#45;&gt;Node5 -->
<g id="edge24_Node000018_Node000005" class="edge">
<title>Node18&#45;&gt;Node5</title>
<g id="a_edge24_Node000018_Node000005"><a xlink:title=" ">
<path fill="none" stroke="#63b8ff" d="M1412.06,-136.7C1357.36,-133.61 1286.88,-129.66 1224.25,-126.25 932.94,-110.4 586.08,-92.35 437.59,-84.66"/>
<polygon fill="#63b8ff" stroke="#63b8ff" points="1411.79,-140.19 1421.97,-137.26 1412.19,-133.2 1411.79,-140.19"/>
</a>
</g>
</g>
<!-- Node18&#45;&gt;Node12 -->
<g id="edge27_Node000018_Node000012" class="edge">
<title>Node18&#45;&gt;Node12</title>
<g id="a_edge27_Node000018_Node000012"><a xlink:title=" ">
<path fill="none" stroke="#63b8ff" d="M1501.61,-121.46C1497.5,-104.68 1489.05,-81.78 1472.25,-69.5 1416.39,-28.64 1219.14,-19.76 1111.55,-18.01"/>
<polygon fill="#63b8ff" stroke="#63b8ff" points="1498.11,-121.82 1503.59,-130.88 1504.96,-120.38 1498.11,-121.82"/>
</a>
</g>
</g>
<!-- Node18&#45;&gt;Node17 -->
<g id="edge23_Node000018_Node000017" class="edge">
<title>Node18&#45;&gt;Node17</title>
<g id="a_edge23_Node000018_Node000017"><a xlink:title=" ">
<path fill="none" stroke="#63b8ff" d="M1554.05,-129.31C1598.2,-117.82 1662.28,-101.16 1702.59,-90.67"/>
<polygon fill="#63b8ff" stroke="#63b8ff" points="1553.27,-125.89 1544.47,-131.8 1555.03,-132.67 1553.27,-125.89"/>
</a>
</g>
</g>
<!-- Node18&#45;&gt;Node19 -->
<g id="edge25_Node000018_Node000019" class="edge">
<title>Node18&#45;&gt;Node19</title>
<g id="a_edge25_Node000018_Node000019"><a xlink:title=" ">
<path fill="none" stroke="#63b8ff" d="M1525.5,-125.04C1538.81,-113.9 1555.75,-99.71 1566.79,-90.47"/>
<polygon fill="#63b8ff" stroke="#63b8ff" points="1523.56,-122.1 1518.14,-131.21 1528.05,-127.47 1523.56,-122.1"/>
</a>
</g>
</g>
<!-- Node18&#45;&gt;Node20 -->
<g id="edge26_Node000018_Node000020" class="edge">
<title>Node18&#45;&gt;Node20</title>
<g id="a_edge26_Node000018_Node000020"><a xlink:title=" ">
<path fill="none" stroke="#63b8ff" d="M1450.3,-129.74C1398.79,-118.25 1322.76,-101.29 1275.16,-90.67"/>
<polygon fill="#63b8ff" stroke="#63b8ff" points="1449.23,-133.09 1459.75,-131.85 1450.75,-126.26 1449.23,-133.09"/>
</a>
</g>
</g>
<!-- Node18&#45;&gt;Node21 -->
<g id="edge28_Node000018_Node000021" class="edge">
<title>Node18&#45;&gt;Node21</title>
<g id="a_edge28_Node000018_Node000021"><a xlink:title=" ">
<path fill="none" stroke="#63b8ff" d="M1477.15,-126.67C1456.48,-115.38 1428.98,-100.38 1411.2,-90.67"/>
<polygon fill="#63b8ff" stroke="#63b8ff" points="1475.47,-129.74 1485.93,-131.45 1478.83,-123.59 1475.47,-129.74"/>
</a>
</g>
</g>
<!-- Node22&#45;&gt;Node2 -->
<g id="edge40_Node000022_Node000002" class="edge">
<title>Node22&#45;&gt;Node2</title>
<g id="a_edge40_Node000022_Node000002"><a xlink:title=" ">
<path fill="none" stroke="#63b8ff" d="M949.23,-329.21C1058.16,-317.28 1254.24,-295.8 1358.91,-284.33"/>
<polygon fill="#63b8ff" stroke="#63b8ff" points="949.07,-325.7 939.51,-330.27 949.83,-332.66 949.07,-325.7"/>
</a>
</g>
</g>
<!-- Node22&#45;&gt;Node5 -->
<g id="edge57_Node000022_Node000005" class="edge">
<title>Node22&#45;&gt;Node5</title>
<g id="a_edge57_Node000022_Node000005"><a xlink:title=" ">
<path fill="none" stroke="#63b8ff" d="M793.23,-334.65C663.89,-328.74 416.42,-313.9 388.25,-286 333.22,-231.5 353.97,-122.94 361.79,-90.34"/>
<polygon fill="#63b8ff" stroke="#63b8ff" points="792.95,-338.14 803.1,-335.09 793.27,-331.14 792.95,-338.14"/>
</a>
</g>
</g>
<!-- Node22&#45;&gt;Node12 -->
<g id="edge61_Node000022_Node000012" class="edge">
<title>Node22&#45;&gt;Node12</title>
<g id="a_edge61_Node000022_Node000012"><a xlink:title=" ">
<path fill="none" stroke="#63b8ff" d="M794.92,-318.63C678.31,-287.7 464.72,-223.69 421.25,-159.75 412.88,-147.44 413.33,-138.85 421.25,-126.25 452.22,-76.98 483.25,-85.34 539.25,-69.5 688.18,-27.38 870.67,-18.77 969.11,-17.46"/>
<polygon fill="#63b8ff" stroke="#63b8ff" points="793.86,-321.97 804.43,-321.13 795.65,-315.2 793.86,-321.97"/>
</a>
</g>
</g>
<!-- Node22&#45;&gt;Node14 -->
<g id="edge58_Node000022_Node000014" class="edge">
<title>Node22&#45;&gt;Node14</title>
<g id="a_edge58_Node000022_Node000014"><a xlink:title=" ">
<path fill="none" stroke="#63b8ff" d="M831.56,-315.84C784.11,-287.1 707.13,-231.76 675.25,-159.75 669.22,-146.14 669.74,-140.08 675.25,-126.25 681.12,-111.53 694.28,-98.84 704.5,-90.66"/>
<polygon fill="#63b8ff" stroke="#63b8ff" points="829.52,-318.7 839.91,-320.79 833.09,-312.68 829.52,-318.7"/>
</a>
</g>
</g>
<!-- Node22&#45;&gt;Node16 -->
<g id="edge59_Node000022_Node000016" class="edge">
<title>Node22&#45;&gt;Node16</title>
<g id="a_edge59_Node000022_Node000016"><a xlink:title=" ">
<path fill="none" stroke="#63b8ff" d="M870.51,-310.48C868.97,-254.09 865.51,-126.94 864.52,-90.69"/>
<polygon fill="#63b8ff" stroke="#63b8ff" points="867,-310.27 870.77,-320.17 874,-310.08 867,-310.27"/>
</a>
</g>
</g>
<!-- Node22&#45;&gt;Node20 -->
<g id="edge60_Node000022_Node000020" class="edge">
<title>Node22&#45;&gt;Node20</title>
<g id="a_edge60_Node000022_Node000020"><a xlink:title=" ">
<path fill="none" stroke="#63b8ff" d="M949.15,-335.05C1029.27,-328 1152.2,-304.6 1224.25,-229.25 1261.32,-190.48 1242.77,-116.76 1234.51,-90.48"/>
<polygon fill="#63b8ff" stroke="#63b8ff" points="949.34,-331.52 939.65,-335.82 949.9,-338.5 949.34,-331.52"/>
</a>
</g>
</g>
<!-- Node23 -->
<g id="Node000023" class="node">
<title>Node23</title>
<g id="a_Node000023"><a xlink:href="StructureBuilderBase_8hpp.html" target="_top" xlink:title="Created by.">
<polygon fill="white" stroke="#666666" points="1214.75,-159.75 1081.75,-159.75 1081.75,-126.25 1214.75,-126.25 1214.75,-159.75"/>
<text text-anchor="start" x="1089.75" y="-146.25" font-family="Helvetica,sans-Serif" font-size="10.00">include/StructureBuilder</text>
<text text-anchor="middle" x="1148.25" y="-133.5" font-family="Helvetica,sans-Serif" font-size="10.00">Base.hpp</text>
</a>
</g>
</g>
<!-- Node22&#45;&gt;Node23 -->
<g id="edge41_Node000022_Node000023" class="edge">
<title>Node22&#45;&gt;Node23</title>
<g id="a_edge41_Node000022_Node000023"><a xlink:title=" ">
<path fill="none" stroke="#63b8ff" d="M903.12,-315.22C942.87,-287.14 1012.97,-237.73 1073.25,-195.75 1090.52,-183.73 1110.08,-170.23 1124.9,-160.03"/>
<polygon fill="#63b8ff" stroke="#63b8ff" points="901.31,-312.21 895.16,-320.84 905.35,-317.93 901.31,-312.21"/>
</a>
</g>
</g>
<!-- Node24 -->
<g id="Node000024" class="node">
<title>Node24</title>
<g id="a_Node000024"><a xlink:href="StructureBuilderCore_8hh.html" target="_top" xlink:title=" ">
<polygon fill="white" stroke="#666666" points="1214.75,-229.25 1081.75,-229.25 1081.75,-195.75 1214.75,-195.75 1214.75,-229.25"/>
<text text-anchor="start" x="1089.75" y="-215.75" font-family="Helvetica,sans-Serif" font-size="10.00">include/StructureBuilder</text>
<text text-anchor="middle" x="1148.25" y="-203" font-family="Helvetica,sans-Serif" font-size="10.00">Core.hh</text>
</a>
</g>
</g>
<!-- Node22&#45;&gt;Node24 -->
<g id="edge50_Node000022_Node000024" class="edge">
<title>Node22&#45;&gt;Node24</title>
<g id="a_edge50_Node000022_Node000024"><a xlink:title=" ">
<path fill="none" stroke="#63b8ff" d="M917.93,-316.81C972.67,-292.26 1062.25,-252.07 1112.03,-229.75"/>
<polygon fill="#63b8ff" stroke="#63b8ff" points="916.54,-313.6 908.84,-320.89 919.4,-319.99 916.54,-313.6"/>
</a>
</g>
</g>
<!-- Node23&#45;&gt;Node5 -->
<g id="edge42_Node000023_Node000005" class="edge">
<title>Node23&#45;&gt;Node5</title>
<g id="a_edge42_Node000023_Node000005"><a xlink:title=" ">
<path fill="none" stroke="#63b8ff" d="M1070.17,-125.99C932.55,-108.74 588.69,-91.37 437.42,-84.23"/>
<polygon fill="#63b8ff" stroke="#63b8ff" points="1069.4,-129.42 1079.77,-127.24 1070.31,-122.48 1069.4,-129.42"/>
</a>
</g>
</g>
<!-- Node23&#45;&gt;Node11 -->
<g id="edge44_Node000023_Node000011" class="edge">
<title>Node23&#45;&gt;Node11</title>
<g id="a_edge44_Node000023_Node000011"><a xlink:title=" ">
<path fill="none" stroke="#63b8ff" d="M1109.96,-120.33C1092.06,-110.2 1071.64,-98.64 1057.55,-90.67"/>
<polygon fill="#63b8ff" stroke="#63b8ff" points="1107.85,-123.15 1118.27,-125.03 1111.3,-117.06 1107.85,-123.15"/>
</a>
</g>
</g>
<!-- Node23&#45;&gt;Node12 -->
<g id="edge48_Node000023_Node000012" class="edge">
<title>Node23&#45;&gt;Node12</title>
<g id="a_edge48_Node000023_Node000012"><a xlink:title=" ">
<path fill="none" stroke="#63b8ff" d="M1137.8,-115.39C1131.27,-100.85 1121.89,-83.09 1110.25,-69.5 1095.2,-51.94 1073.14,-36.89 1057.82,-27.61"/>
<polygon fill="#63b8ff" stroke="#63b8ff" points="1134.49,-116.54 1141.64,-124.36 1140.93,-113.79 1134.49,-116.54"/>
</a>
</g>
</g>
<!-- Node23&#45;&gt;Node14 -->
<g id="edge45_Node000023_Node000014" class="edge">
<title>Node23&#45;&gt;Node14</title>
<g id="a_edge45_Node000023_Node000014"><a xlink:title=" ">
<path fill="none" stroke="#63b8ff" d="M1070.38,-125.95C1019.6,-118.35 875.37,-100.32 787.84,-89.47"/>
<polygon fill="#63b8ff" stroke="#63b8ff" points="1069.73,-129.39 1080.15,-127.49 1070.82,-122.48 1069.73,-129.39"/>
</a>
</g>
</g>
<!-- Node23&#45;&gt;Node16 -->
<g id="edge46_Node000023_Node000016" class="edge">
<title>Node23&#45;&gt;Node16</title>
<g id="a_edge46_Node000023_Node000016"><a xlink:title=" ">
<path fill="none" stroke="#63b8ff" d="M1070.22,-125.21C1018.75,-114.13 953.1,-100 909.92,-90.71"/>
<polygon fill="#63b8ff" stroke="#63b8ff" points="1069.31,-128.59 1079.83,-127.27 1070.79,-121.75 1069.31,-128.59"/>
</a>
</g>
</g>
<!-- Node23&#45;&gt;Node19 -->
<g id="edge43_Node000023_Node000019" class="edge">
<title>Node23&#45;&gt;Node19</title>
<g id="a_edge43_Node000023_Node000019"><a xlink:title=" ">
<path fill="none" stroke="#63b8ff" d="M1226.29,-130.91C1310.66,-118.91 1443.27,-100.06 1519.34,-89.25"/>
<polygon fill="#63b8ff" stroke="#63b8ff" points="1225.87,-127.43 1216.46,-132.3 1226.86,-134.36 1225.87,-127.43"/>
</a>
</g>
</g>
<!-- Node23&#45;&gt;Node20 -->
<g id="edge47_Node000023_Node000020" class="edge">
<title>Node23&#45;&gt;Node20</title>
<g id="a_edge47_Node000023_Node000020"><a xlink:title=" ">
<path fill="none" stroke="#63b8ff" d="M1179,-119.35C1192.4,-109.49 1207.41,-98.44 1217.89,-90.72"/>
<polygon fill="#63b8ff" stroke="#63b8ff" points="1177.25,-116.29 1171.28,-125.04 1181.4,-121.93 1177.25,-116.29"/>
</a>
</g>
</g>
<!-- Node23&#45;&gt;Node21 -->
<g id="edge49_Node000023_Node000021" class="edge">
<title>Node23&#45;&gt;Node21</title>
<g id="a_edge49_Node000023_Node000021"><a xlink:title=" ">
<path fill="none" stroke="#63b8ff" d="M1224.26,-123.04C1267.23,-112.32 1319.16,-99.36 1354.01,-90.67"/>
<polygon fill="#63b8ff" stroke="#63b8ff" points="1223.59,-119.6 1214.73,-125.41 1225.28,-126.39 1223.59,-119.6"/>
</a>
</g>
</g>
<!-- Node24&#45;&gt;Node12 -->
<g id="edge55_Node000024_Node000012" class="edge">
<title>Node24&#45;&gt;Node12</title>
<g id="a_edge55_Node000024_Node000012"><a xlink:title=" ">
<path fill="none" stroke="#63b8ff" d="M1070.02,-204.68C939.98,-193.11 691.85,-169.87 675.25,-159.75 643.62,-140.47 639.93,-125.72 629.25,-90.25 626.59,-81.42 623.15,-76.42 629.25,-69.5 651.31,-44.49 857.2,-28.55 968.93,-21.67"/>
<polygon fill="#63b8ff" stroke="#63b8ff" points="1069.69,-208.17 1079.96,-205.57 1070.31,-201.19 1069.69,-208.17"/>
</a>
</g>
</g>
<!-- Node24&#45;&gt;Node15 -->
<g id="edge51_Node000024_Node000015" class="edge">
<title>Node24&#45;&gt;Node15</title>
<g id="a_edge51_Node000024_Node000015"><a xlink:title=" ">
<path fill="none" stroke="#63b8ff" d="M1070.47,-198.17C994.32,-185.13 880.1,-165.56 811.79,-153.86"/>
<polygon fill="#63b8ff" stroke="#63b8ff" points="1069.47,-201.56 1079.92,-199.79 1070.66,-194.66 1069.47,-201.56"/>
</a>
</g>
</g>
<!-- Node24&#45;&gt;Node17 -->
<g id="edge53_Node000024_Node000017" class="edge">
<title>Node24&#45;&gt;Node17</title>
<g id="a_edge53_Node000024_Node000017"><a xlink:title=" ">
<path fill="none" stroke="#63b8ff" d="M1226.36,-204.13C1345.36,-192.64 1561.92,-170.67 1596.25,-159.75 1647.86,-143.33 1702.18,-107.84 1726.76,-90.63"/>
<polygon fill="#63b8ff" stroke="#63b8ff" points="1226.29,-200.62 1216.67,-205.06 1226.96,-207.58 1226.29,-200.62"/>
</a>
</g>
</g>
<!-- Node24&#45;&gt;Node20 -->
<g id="edge54_Node000024_Node000020" class="edge">
<title>Node24&#45;&gt;Node20</title>
<g id="a_edge54_Node000024_Node000020"><a xlink:title=" ">
<path fill="none" stroke="#63b8ff" d="M1194.49,-189.41C1206.06,-181.65 1217.18,-171.8 1224.25,-159.75 1237.19,-137.7 1235.02,-106.05 1232.87,-90.4"/>
<polygon fill="#63b8ff" stroke="#63b8ff" points="1192.7,-186.4 1186.04,-194.64 1196.38,-192.36 1192.7,-186.4"/>
</a>
</g>
</g>
<!-- Node24&#45;&gt;Node21 -->
<g id="edge56_Node000024_Node000021" class="edge">
<title>Node24&#45;&gt;Node21</title>
<g id="a_edge56_Node000024_Node000021"><a xlink:title=" ">
<path fill="none" stroke="#63b8ff" d="M1188.17,-190.22C1241.93,-161.55 1335.42,-111.71 1374.86,-90.68"/>
<polygon fill="#63b8ff" stroke="#63b8ff" points="1186.8,-186.98 1179.63,-194.77 1190.1,-193.15 1186.8,-186.98"/>
</a>
</g>
</g>
<!-- Node24&#45;&gt;Node23 -->
<g id="edge52_Node000024_Node000023" class="edge">
<title>Node24&#45;&gt;Node23</title>
<g id="a_edge52_Node000024_Node000023"><a xlink:title=" ">
<path fill="none" stroke="#63b8ff" d="M1148.25,-184.06C1148.25,-175.84 1148.25,-167.09 1148.25,-159.88"/>
<polygon fill="#63b8ff" stroke="#63b8ff" points="1144.75,-183.99 1148.25,-193.99 1151.75,-183.99 1144.75,-183.99"/>
</a>
</g>
</g>
</g>
</svg>
