<?xml version="1.0" encoding="UTF-8" standalone="no"?>
<!DOCTYPE svg PUBLIC "-//W3C//DTD SVG 1.1//EN"
 "http://www.w3.org/Graphics/SVG/1.1/DTD/svg11.dtd">
<!-- Generated by graphviz version 12.0.0 (20240803.0821)
 -->
<!-- Title: include/BuilderFactories.hh Pages: 1 -->
<svg width="548pt" height="269pt"
 viewBox="0.00 0.00 547.75 268.50" xmlns="http://www.w3.org/2000/svg" xmlns:xlink="http://www.w3.org/1999/xlink">
<g id="graph0" class="graph" transform="scale(1 1) rotate(0) translate(4 264.5)">
<title>include/BuilderFactories.hh</title>
<!-- Node1 -->
<g id="Node000001" class="node">
<title>Node1</title>
<g id="a_Node000001"><a xlink:title=" ">
<polygon fill="#999999" stroke="#666666" points="367.75,-260.5 220.5,-260.5 220.5,-239.75 367.75,-239.75 367.75,-260.5"/>
<text text-anchor="middle" x="294.12" y="-247" font-family="Helvetica,sans-Serif" font-size="10.00">include/BuilderFactories.hh</text>
</a>
</g>
</g>
<!-- Node2 -->
<g id="Node000002" class="node">
<title>Node2</title>
<g id="a_Node000002"><a xlink:href="VolumeBuildersTypes_8hh.html" target="_top" xlink:title=" ">
<polygon fill="white" stroke="#666666" points="361.75,-203.75 226.5,-203.75 226.5,-183 361.75,-183 361.75,-203.75"/>
<text text-anchor="middle" x="294.12" y="-190.25" font-family="Helvetica,sans-Serif" font-size="10.00">VolumeBuildersTypes.hh</text>
</a>
</g>
</g>
<!-- Node1&#45;&gt;Node2 -->
<g id="edge1_Node000001_Node000002" class="edge">
<title>Node1&#45;&gt;Node2</title>
<g id="a_edge1_Node000001_Node000002"><a xlink:title=" ">
<path fill="none" stroke="#63b8ff" d="M294.12,-239.34C294.12,-232.72 294.12,-223.72 294.12,-215.52"/>
<polygon fill="#63b8ff" stroke="#63b8ff" points="297.63,-215.59 294.13,-205.59 290.63,-215.59 297.63,-215.59"/>
</a>
</g>
</g>
<!-- Node3 -->
<g id="Node000003" class="node">
<title>Node3</title>
<g id="a_Node000003"><a xlink:title=" ">
<polygon fill="#e0e0e0" stroke="#999999" points="102.25,-140.62 0,-140.62 0,-119.88 102.25,-119.88 102.25,-140.62"/>
<text text-anchor="middle" x="51.12" y="-127.12" font-family="Helvetica,sans-Serif" font-size="10.00">G4ThreeVector.hh</text>
</a>
</g>
</g>
<!-- Node2&#45;&gt;Node3 -->
<g id="edge2_Node000002_Node000003" class="edge">
<title>Node2&#45;&gt;Node3</title>
<g id="a_edge2_Node000002_Node000003"><a xlink:title=" ">
<path fill="none" stroke="#63b8ff" d="M253.74,-182.53C216.64,-173.44 160.13,-159.51 111.12,-147 107.19,-146 103.11,-144.95 99.02,-143.88"/>
<polygon fill="#63b8ff" stroke="#63b8ff" points="100.26,-140.59 89.7,-141.46 98.49,-147.36 100.26,-140.59"/>
</a>
</g>
</g>
<!-- Node4 -->
<g id="Node000004" class="node">
<title>Node4</title>
<g id="a_Node000004"><a xlink:title=" ">
<polygon fill="#e0e0e0" stroke="#999999" points="284.75,-77.5 227.5,-77.5 227.5,-56.75 284.75,-56.75 284.75,-77.5"/>
<text text-anchor="middle" x="256.12" y="-64" font-family="Helvetica,sans-Serif" font-size="10.00">memory</text>
</a>
</g>
</g>
<!-- Node2&#45;&gt;Node4 -->
<g id="edge3_Node000002_Node000004" class="edge">
<title>Node2&#45;&gt;Node4</title>
<g id="a_edge3_Node000002_Node000004"><a xlink:title=" ">
<path fill="none" stroke="#63b8ff" d="M290.2,-182.74C286.56,-173.62 281.12,-159.5 277.12,-147 270.87,-127.42 264.96,-104.71 261.01,-88.7"/>
<polygon fill="#63b8ff" stroke="#63b8ff" points="264.52,-88.3 258.76,-79.4 257.71,-89.94 264.52,-88.3"/>
</a>
</g>
</g>
<!-- Node5 -->
<g id="Node000005" class="node">
<title>Node5</title>
<g id="a_Node000005"><a xlink:title=" ">
<polygon fill="#e0e0e0" stroke="#999999" points="450,-140.62 394.25,-140.62 394.25,-119.88 450,-119.88 450,-140.62"/>
<text text-anchor="middle" x="422.12" y="-127.12" font-family="Helvetica,sans-Serif" font-size="10.00">optional</text>
</a>
</g>
</g>
<!-- Node2&#45;&gt;Node5 -->
<g id="edge4_Node000002_Node000005" class="edge">
<title>Node2&#45;&gt;Node5</title>
<g id="a_edge4_Node000002_Node000005"><a xlink:title=" ">
<path fill="none" stroke="#63b8ff" d="M314.69,-182.55C335.4,-172.66 367.61,-157.28 391.36,-145.94"/>
<polygon fill="#63b8ff" stroke="#63b8ff" points="392.73,-149.17 400.24,-141.7 389.71,-142.85 392.73,-149.17"/>
</a>
</g>
</g>
<!-- Node6 -->
<g id="Node000006" class="node">
<title>Node6</title>
<g id="a_Node000006"><a xlink:title=" ">
<polygon fill="#e0e0e0" stroke="#999999" points="514.5,-140.62 467.75,-140.62 467.75,-119.88 514.5,-119.88 514.5,-140.62"/>
<text text-anchor="middle" x="491.12" y="-127.12" font-family="Helvetica,sans-Serif" font-size="10.00">vector</text>
</a>
</g>
</g>
<!-- Node2&#45;&gt;Node6 -->
<g id="edge5_Node000002_Node000006" class="edge">
<title>Node2&#45;&gt;Node6</title>
<g id="a_edge5_Node000002_Node000006"><a xlink:title=" ">
<path fill="none" stroke="#63b8ff" d="M338.62,-182.56C372.25,-174.56 419.27,-162.13 459.12,-147 460.25,-146.57 461.4,-146.12 462.54,-145.64"/>
<polygon fill="#63b8ff" stroke="#63b8ff" points="463.73,-148.95 471.4,-141.64 460.84,-142.57 463.73,-148.95"/>
</a>
</g>
</g>
<!-- Node7 -->
<g id="Node000007" class="node">
<title>Node7</title>
<g id="a_Node000007"><a xlink:href="disableable__shared__from__this_8hh.html" target="_top" xlink:title="Created by.">
<polygon fill="white" stroke="#666666" points="230.38,-147 119.88,-147 119.88,-113.5 230.38,-113.5 230.38,-147"/>
<text text-anchor="start" x="127.88" y="-133.5" font-family="Helvetica,sans-Serif" font-size="10.00">disableable_shared</text>
<text text-anchor="middle" x="175.12" y="-120.75" font-family="Helvetica,sans-Serif" font-size="10.00">_from_this.hh</text>
</a>
</g>
</g>
<!-- Node2&#45;&gt;Node7 -->
<g id="edge6_Node000002_Node000007" class="edge">
<title>Node2&#45;&gt;Node7</title>
<g id="a_edge6_Node000002_Node000007"><a xlink:title=" ">
<path fill="none" stroke="#63b8ff" d="M275.01,-182.55C259.34,-174.51 236.6,-162.83 216.78,-152.65"/>
<polygon fill="#63b8ff" stroke="#63b8ff" points="218.57,-149.63 208.08,-148.18 215.37,-155.86 218.57,-149.63"/>
</a>
</g>
</g>
<!-- Node10 -->
<g id="Node000010" class="node">
<title>Node10</title>
<g id="a_Node000010"><a xlink:href="i__shared__ptr_8hh.html" target="_top" xlink:title=" ">
<polygon fill="white" stroke="#666666" points="376.25,-140.62 286,-140.62 286,-119.88 376.25,-119.88 376.25,-140.62"/>
<text text-anchor="middle" x="331.12" y="-127.12" font-family="Helvetica,sans-Serif" font-size="10.00">i_shared_ptr.hh</text>
</a>
</g>
</g>
<!-- Node2&#45;&gt;Node10 -->
<g id="edge10_Node000002_Node000010" class="edge">
<title>Node2&#45;&gt;Node10</title>
<g id="a_edge10_Node000002_Node000010"><a xlink:title=" ">
<path fill="none" stroke="#63b8ff" d="M300.07,-182.55C305.28,-173.95 313,-161.19 319.44,-150.55"/>
<polygon fill="#63b8ff" stroke="#63b8ff" points="322.35,-152.51 324.53,-142.14 316.36,-148.88 322.35,-152.51"/>
</a>
</g>
</g>
<!-- Node7&#45;&gt;Node4 -->
<g id="edge9_Node000007_Node000004" class="edge">
<title>Node7&#45;&gt;Node4</title>
<g id="a_edge9_Node000007_Node000004"><a xlink:title=" ">
<path fill="none" stroke="#63b8ff" d="M196.41,-113.19C207.98,-104.46 222.28,-93.67 233.98,-84.84"/>
<polygon fill="#63b8ff" stroke="#63b8ff" points="236,-87.7 241.87,-78.88 231.78,-82.11 236,-87.7"/>
</a>
</g>
</g>
<!-- Node8 -->
<g id="Node000008" class="node">
<title>Node8</title>
<g id="a_Node000008"><a xlink:title=" ">
<polygon fill="#e0e0e0" stroke="#999999" points="129,-77.5 79.25,-77.5 79.25,-56.75 129,-56.75 129,-77.5"/>
<text text-anchor="middle" x="104.12" y="-64" font-family="Helvetica,sans-Serif" font-size="10.00">atomic</text>
</a>
</g>
</g>
<!-- Node7&#45;&gt;Node8 -->
<g id="edge7_Node000007_Node000008" class="edge">
<title>Node7&#45;&gt;Node8</title>
<g id="a_edge7_Node000007_Node000008"><a xlink:title=" ">
<path fill="none" stroke="#63b8ff" d="M156.47,-113.19C146.53,-104.63 134.3,-94.1 124.16,-85.37"/>
<polygon fill="#63b8ff" stroke="#63b8ff" points="126.57,-82.83 116.7,-78.95 122,-88.13 126.57,-82.83"/>
</a>
</g>
</g>
<!-- Node9 -->
<g id="Node000009" class="node">
<title>Node9</title>
<g id="a_Node000009"><a xlink:title=" ">
<polygon fill="#e0e0e0" stroke="#999999" points="206.88,-77.5 147.38,-77.5 147.38,-56.75 206.88,-56.75 206.88,-77.5"/>
<text text-anchor="middle" x="177.12" y="-64" font-family="Helvetica,sans-Serif" font-size="10.00">iostream</text>
</a>
</g>
</g>
<!-- Node7&#45;&gt;Node9 -->
<g id="edge8_Node000007_Node000009" class="edge">
<title>Node7&#45;&gt;Node9</title>
<g id="a_edge8_Node000007_Node000009"><a xlink:title=" ">
<path fill="none" stroke="#63b8ff" d="M175.65,-113.19C175.89,-105.85 176.18,-97.07 176.44,-89.21"/>
<polygon fill="#63b8ff" stroke="#63b8ff" points="179.92,-89.59 176.75,-79.48 172.93,-89.36 179.92,-89.59"/>
</a>
</g>
</g>
<!-- Node10&#45;&gt;Node4 -->
<g id="edge13_Node000010_Node000004" class="edge">
<title>Node10&#45;&gt;Node4</title>
<g id="a_edge13_Node000010_Node000004"><a xlink:title=" ">
<path fill="none" stroke="#63b8ff" d="M319.07,-119.43C307.64,-110.11 290.22,-95.91 276.6,-84.81"/>
<polygon fill="#63b8ff" stroke="#63b8ff" points="279.03,-82.28 269.07,-78.68 274.61,-87.71 279.03,-82.28"/>
</a>
</g>
</g>
<!-- Node11 -->
<g id="Node000011" class="node">
<title>Node11</title>
<g id="a_Node000011"><a xlink:title=" ">
<polygon fill="#e0e0e0" stroke="#999999" points="322,-20.75 206.25,-20.75 206.25,0 322,0 322,-20.75"/>
<text text-anchor="middle" x="264.12" y="-7.25" font-family="Helvetica,sans-Serif" font-size="10.00">G4LogicalVolume.hh</text>
</a>
</g>
</g>
<!-- Node10&#45;&gt;Node11 -->
<g id="edge11_Node000010_Node000011" class="edge">
<title>Node10&#45;&gt;Node11</title>
<g id="a_edge11_Node000010_Node000011"><a xlink:title=" ">
<path fill="none" stroke="#63b8ff" d="M326.67,-119.68C320.03,-105.64 306.94,-78.72 294.12,-56.75 288.96,-47.9 282.79,-38.41 277.39,-30.4"/>
<polygon fill="#63b8ff" stroke="#63b8ff" points="280.28,-28.43 271.74,-22.16 274.51,-32.39 280.28,-28.43"/>
</a>
</g>
</g>
<!-- Node12 -->
<g id="Node000012" class="node">
<title>Node12</title>
<g id="a_Node000012"><a xlink:title=" ">
<polygon fill="#e0e0e0" stroke="#999999" points="539.75,-20.75 464.5,-20.75 464.5,0 539.75,0 539.75,-20.75"/>
<text text-anchor="middle" x="502.12" y="-7.25" font-family="Helvetica,sans-Serif" font-size="10.00">G4VSolid.hh</text>
</a>
</g>
</g>
<!-- Node10&#45;&gt;Node12 -->
<g id="edge12_Node000010_Node000012" class="edge">
<title>Node10&#45;&gt;Node12</title>
<g id="a_edge12_Node000010_Node000012"><a xlink:title=" ">
<path fill="none" stroke="#63b8ff" d="M359.33,-119.4C390.67,-108.1 438.88,-89.59 454.12,-77.5 470.07,-64.86 483.21,-45.62 491.69,-31.15"/>
<polygon fill="#63b8ff" stroke="#63b8ff" points="494.69,-32.96 496.5,-22.53 488.57,-29.56 494.69,-32.96"/>
</a>
</g>
</g>
<!-- Node13 -->
<g id="Node000013" class="node">
<title>Node13</title>
<g id="a_Node000013"><a xlink:href="IVolumeBuilder_8hh.html" target="_top" xlink:title="Created by.">
<polygon fill="white" stroke="#666666" points="445.38,-77.5 340.88,-77.5 340.88,-56.75 445.38,-56.75 445.38,-77.5"/>
<text text-anchor="middle" x="393.12" y="-64" font-family="Helvetica,sans-Serif" font-size="10.00">IVolumeBuilder.hh</text>
</a>
</g>
</g>
<!-- Node10&#45;&gt;Node13 -->
<g id="edge14_Node000010_Node000013" class="edge">
<title>Node10&#45;&gt;Node13</title>
<g id="a_edge14_Node000010_Node000013"><a xlink:title=" ">
<path fill="none" stroke="#63b8ff" d="M341.09,-119.43C350.27,-110.38 364.12,-96.72 375.22,-85.78"/>
<polygon fill="#63b8ff" stroke="#63b8ff" points="377.65,-88.3 382.31,-78.78 372.74,-83.31 377.65,-88.3"/>
</a>
</g>
</g>
<!-- Node13&#45;&gt;Node11 -->
<g id="edge15_Node000013_Node000011" class="edge">
<title>Node13&#45;&gt;Node11</title>
<g id="a_edge15_Node000013_Node000011"><a xlink:title=" ">
<path fill="none" stroke="#63b8ff" d="M370.06,-56.34C349.88,-47.77 320.32,-35.23 297.55,-25.56"/>
<polygon fill="#63b8ff" stroke="#63b8ff" points="298.95,-22.35 288.38,-21.67 296.22,-28.8 298.95,-22.35"/>
</a>
</g>
</g>
<!-- Node13&#45;&gt;Node12 -->
<g id="edge17_Node000013_Node000012" class="edge">
<title>Node13&#45;&gt;Node12</title>
<g id="a_edge17_Node000013_Node000012"><a xlink:title=" ">
<path fill="none" stroke="#63b8ff" d="M412.61,-56.34C429.27,-47.97 453.51,-35.79 472.56,-26.22"/>
<polygon fill="#63b8ff" stroke="#63b8ff" points="474.09,-29.37 481.45,-21.76 470.95,-23.12 474.09,-29.37"/>
</a>
</g>
</g>
<!-- Node14 -->
<g id="Node000014" class="node">
<title>Node14</title>
<g id="a_Node000014"><a xlink:title=" ">
<polygon fill="#e0e0e0" stroke="#999999" points="446.5,-20.75 339.75,-20.75 339.75,0 446.5,0 446.5,-20.75"/>
<text text-anchor="middle" x="393.12" y="-7.25" font-family="Helvetica,sans-Serif" font-size="10.00">G4Transform3D.hh</text>
</a>
</g>
</g>
<!-- Node13&#45;&gt;Node14 -->
<g id="edge16_Node000013_Node000014" class="edge">
<title>Node13&#45;&gt;Node14</title>
<g id="a_edge16_Node000013_Node000014"><a xlink:title=" ">
<path fill="none" stroke="#63b8ff" d="M393.12,-56.34C393.12,-49.72 393.12,-40.72 393.12,-32.52"/>
<polygon fill="#63b8ff" stroke="#63b8ff" points="396.63,-32.59 393.13,-22.59 389.63,-32.59 396.63,-32.59"/>
</a>
</g>
</g>
</g>
</svg>
