<?xml version="1.0" encoding="UTF-8" standalone="no"?>
<!DOCTYPE svg PUBLIC "-//W3C//DTD SVG 1.1//EN"
 "http://www.w3.org/Graphics/SVG/1.1/DTD/svg11.dtd">
<!-- Generated by graphviz version 12.0.0 (20240803.0821)
 -->
<!-- Title: VolumeBuilderBase&lt; U &gt; Pages: 1 -->
<svg width="395pt" height="155pt"
 viewBox="0.00 0.00 394.75 155.00" xmlns="http://www.w3.org/2000/svg" xmlns:xlink="http://www.w3.org/1999/xlink">
<g id="graph0" class="graph" transform="scale(1 1) rotate(0) translate(4 151)">
<title>VolumeBuilderBase&lt; U &gt;</title>
<!-- Node1 -->
<g id="Node000001" class="node">
<title>Node1</title>
<g id="a_Node000001"><a xlink:title="VolumeBuilder: Common functionality for volume builder classes.">
<polygon fill="#999999" stroke="#666666" points="310.25,-20.75 169,-20.75 169,0 310.25,0 310.25,-20.75"/>
<text text-anchor="middle" x="239.62" y="-7.25" font-family="Helvetica,sans-Serif" font-size="10.00">VolumeBuilderBase&lt; U &gt;</text>
</a>
</g>
</g>
<!-- Node2 -->
<g id="Node000002" class="node">
<title>Node2</title>
<g id="a_Node000002"><a xlink:href="classDLG4_1_1Utilities_1_1disableable__shared__from__this.html" target="_top" xlink:title=" ">
<polygon fill="white" stroke="#666666" points="183.25,-77.5 0,-77.5 0,-56.75 183.25,-56.75 183.25,-77.5"/>
<text text-anchor="middle" x="91.62" y="-64" font-family="Helvetica,sans-Serif" font-size="10.00">ENABLE_SHARED_WRAPPER&lt; U &gt;</text>
</a>
</g>
</g>
<!-- Node2&#45;&gt;Node1 -->
<g id="edge1_Node000001_Node000002" class="edge">
<title>Node2&#45;&gt;Node1</title>
<g id="a_edge1_Node000001_Node000002"><a xlink:title=" ">
<path fill="none" stroke="#63b8ff" d="M128.81,-52.37C155.17,-42.62 189.9,-29.77 213.39,-21.08"/>
<polygon fill="#63b8ff" stroke="#63b8ff" points="127.67,-49.06 119.5,-55.81 130.1,-55.62 127.67,-49.06"/>
</a>
</g>
</g>
<!-- Node3 -->
<g id="Node000003" class="node">
<title>Node3</title>
<g id="a_Node000003"><a xlink:title=" ">
<polygon fill="white" stroke="#666666" points="149.5,-147 33.75,-147 33.75,-113.5 149.5,-113.5 149.5,-147"/>
<text text-anchor="start" x="41.75" y="-133.5" font-family="Helvetica,sans-Serif" font-size="10.00">enable_shared_from</text>
<text text-anchor="middle" x="91.62" y="-120.75" font-family="Helvetica,sans-Serif" font-size="10.00">_this&lt; T &gt;</text>
</a>
</g>
</g>
<!-- Node3&#45;&gt;Node2 -->
<g id="edge2_Node000002_Node000003" class="edge">
<title>Node3&#45;&gt;Node2</title>
<g id="a_edge2_Node000002_Node000003"><a xlink:title=" ">
<path fill="none" stroke="#63b8ff" d="M91.62,-101.69C91.62,-93.21 91.62,-84.42 91.62,-77.97"/>
<polygon fill="#63b8ff" stroke="#63b8ff" points="88.13,-101.68 91.63,-111.68 95.13,-101.68 88.13,-101.68"/>
</a>
</g>
</g>
<!-- Node4 -->
<g id="Node000004" class="node">
<title>Node4</title>
<g id="a_Node000004"><a xlink:title=" ">
<polygon fill="white" stroke="#666666" points="278.38,-77.5 200.88,-77.5 200.88,-56.75 278.38,-56.75 278.38,-77.5"/>
<text text-anchor="middle" x="239.62" y="-64" font-family="Helvetica,sans-Serif" font-size="10.00">ISolidBuilder</text>
</a>
</g>
</g>
<!-- Node4&#45;&gt;Node1 -->
<g id="edge3_Node000001_Node000004" class="edge">
<title>Node4&#45;&gt;Node1</title>
<g id="a_edge3_Node000001_Node000004"><a xlink:title=" ">
<path fill="none" stroke="#63b8ff" d="M239.62,-44.88C239.62,-36.66 239.62,-27.68 239.62,-21.08"/>
<polygon fill="#63b8ff" stroke="#63b8ff" points="236.13,-44.82 239.63,-54.82 243.13,-44.82 236.13,-44.82"/>
</a>
</g>
</g>
<!-- Node5 -->
<g id="Node000005" class="node">
<title>Node5</title>
<g id="a_Node000005"><a xlink:href="classDLG4_1_1VolumeBuilders_1_1__internals___1_1IStructureBuilder.html" target="_top" xlink:title="a non&#45;fluent polymorphic class to access the derived solid&#45;builder from a base reference: This gets u...">
<polygon fill="white" stroke="#666666" points="288.5,-140.62 190.75,-140.62 190.75,-119.88 288.5,-119.88 288.5,-140.62"/>
<text text-anchor="middle" x="239.62" y="-127.12" font-family="Helvetica,sans-Serif" font-size="10.00">IStructureBuilder</text>
</a>
</g>
</g>
<!-- Node5&#45;&gt;Node4 -->
<g id="edge4_Node000004_Node000005" class="edge">
<title>Node5&#45;&gt;Node4</title>
<g id="a_edge4_Node000004_Node000005"><a xlink:title=" ">
<path fill="none" stroke="#63b8ff" d="M239.62,-107.99C239.62,-97.68 239.62,-85.81 239.62,-77.72"/>
<polygon fill="#63b8ff" stroke="#63b8ff" points="236.13,-107.92 239.63,-117.92 243.13,-107.92 236.13,-107.92"/>
</a>
</g>
</g>
<!-- Node6 -->
<g id="Node000006" class="node">
<title>Node6</title>
<g id="a_Node000006"><a xlink:href="classDLG4_1_1VolumeBuilders_1_1__internals___1_1IVolumeBuilder.html" target="_top" xlink:title="Might make this public.">
<polygon fill="white" stroke="#666666" points="386.75,-77.5 296.5,-77.5 296.5,-56.75 386.75,-56.75 386.75,-77.5"/>
<text text-anchor="middle" x="341.62" y="-64" font-family="Helvetica,sans-Serif" font-size="10.00">IVolumeBuilder</text>
</a>
</g>
</g>
<!-- Node6&#45;&gt;Node1 -->
<g id="edge5_Node000001_Node000006" class="edge">
<title>Node6&#45;&gt;Node1</title>
<g id="a_edge5_Node000001_Node000006"><a xlink:title=" ">
<path fill="none" stroke="#63b8ff" d="M313.28,-50.91C295.5,-41.36 273.1,-29.34 257.7,-21.08"/>
<polygon fill="#63b8ff" stroke="#63b8ff" points="311.59,-53.98 322.06,-55.62 314.9,-47.81 311.59,-53.98"/>
</a>
</g>
</g>
</g>
</svg>
