<?xml version="1.0" encoding="UTF-8" standalone="no"?>
<!DOCTYPE svg PUBLIC "-//W3C//DTD SVG 1.1//EN"
 "http://www.w3.org/Graphics/SVG/1.1/DTD/svg11.dtd">
<!-- Generated by graphviz version 12.0.0 (20240803.0821)
 -->
<!-- Title: RZBuilderCore Pages: 1 -->
<svg width="365pt" height="237pt"
 viewBox="0.00 0.00 364.75 237.25" xmlns="http://www.w3.org/2000/svg" xmlns:xlink="http://www.w3.org/1999/xlink">
<g id="graph0" class="graph" transform="scale(1 1) rotate(0) translate(4 233.25)">
<title>RZBuilderCore</title>
<!-- Node1 -->
<g id="Node000001" class="node">
<title>Node1</title>
<g id="a_Node000001"><a xlink:title="Builder class for RZ mult&#45;plane defined solids.">
<polygon fill="#999999" stroke="#666666" points="252.88,-20.75 166.38,-20.75 166.38,0 252.88,0 252.88,-20.75"/>
<text text-anchor="middle" x="209.62" y="-7.25" font-family="Helvetica,sans-Serif" font-size="10.00">RZBuilderCore</text>
</a>
</g>
</g>
<!-- Node2 -->
<g id="Node000002" class="node">
<title>Node2</title>
<g id="a_Node000002"><a xlink:href="classDLG4_1_1VolumeBuilders_1_1__internals___1_1VolumeBuilderBase.html" target="_top" xlink:title=" ">
<polygon fill="white" stroke="#666666" points="269.38,-90.25 149.88,-90.25 149.88,-56.75 269.38,-56.75 269.38,-90.25"/>
<text text-anchor="start" x="157.88" y="-76.75" font-family="Helvetica,sans-Serif" font-size="10.00">VolumeBuilderBase&lt;</text>
<text text-anchor="middle" x="209.62" y="-64" font-family="Helvetica,sans-Serif" font-size="10.00"> RZBuilderCore &gt;</text>
</a>
</g>
</g>
<!-- Node2&#45;&gt;Node1 -->
<g id="edge1_Node000001_Node000002" class="edge">
<title>Node2&#45;&gt;Node1</title>
<g id="a_edge1_Node000001_Node000002"><a xlink:title=" ">
<path fill="none" stroke="#63b8ff" d="M209.62,-44.94C209.62,-36.46 209.62,-27.67 209.62,-21.22"/>
<polygon fill="#63b8ff" stroke="#63b8ff" points="206.13,-44.93 209.63,-54.93 213.13,-44.93 206.13,-44.93"/>
</a>
</g>
</g>
<!-- Node3 -->
<g id="Node000003" class="node">
<title>Node3</title>
<g id="a_Node000003"><a xlink:href="classDLG4_1_1Utilities_1_1disableable__shared__from__this.html" target="_top" xlink:title=" ">
<polygon fill="white" stroke="#666666" points="153.25,-159.75 0,-159.75 0,-126.25 153.25,-126.25 153.25,-159.75"/>
<text text-anchor="start" x="8" y="-146.25" font-family="Helvetica,sans-Serif" font-size="10.00">ENABLE_SHARED_WRAPPER</text>
<text text-anchor="middle" x="76.62" y="-133.5" font-family="Helvetica,sans-Serif" font-size="10.00">&lt; RZBuilderCore &#160;&gt;</text>
</a>
</g>
</g>
<!-- Node3&#45;&gt;Node2 -->
<g id="edge2_Node000002_Node000003" class="edge">
<title>Node3&#45;&gt;Node2</title>
<g id="a_edge2_Node000002_Node000003"><a xlink:title=" ">
<path fill="none" stroke="#63b8ff" d="M118.51,-120.74C137.76,-110.97 160.22,-99.57 178.03,-90.54"/>
<polygon fill="#63b8ff" stroke="#63b8ff" points="117.16,-117.5 109.83,-125.15 120.33,-123.74 117.16,-117.5"/>
</a>
</g>
</g>
<!-- Node4 -->
<g id="Node000004" class="node">
<title>Node4</title>
<g id="a_Node000004"><a xlink:title=" ">
<polygon fill="white" stroke="#666666" points="134.5,-229.25 18.75,-229.25 18.75,-195.75 134.5,-195.75 134.5,-229.25"/>
<text text-anchor="start" x="26.75" y="-215.75" font-family="Helvetica,sans-Serif" font-size="10.00">enable_shared_from</text>
<text text-anchor="middle" x="76.62" y="-203" font-family="Helvetica,sans-Serif" font-size="10.00">_this&lt; T &gt;</text>
</a>
</g>
</g>
<!-- Node4&#45;&gt;Node3 -->
<g id="edge3_Node000003_Node000004" class="edge">
<title>Node4&#45;&gt;Node3</title>
<g id="a_edge3_Node000003_Node000004"><a xlink:title=" ">
<path fill="none" stroke="#63b8ff" d="M76.62,-184.06C76.62,-175.84 76.62,-167.09 76.62,-159.88"/>
<polygon fill="#63b8ff" stroke="#63b8ff" points="73.13,-183.99 76.63,-193.99 80.13,-183.99 73.13,-183.99"/>
</a>
</g>
</g>
<!-- Node5 -->
<g id="Node000005" class="node">
<title>Node5</title>
<g id="a_Node000005"><a xlink:title=" ">
<polygon fill="white" stroke="#666666" points="248.38,-153.38 170.88,-153.38 170.88,-132.62 248.38,-132.62 248.38,-153.38"/>
<text text-anchor="middle" x="209.62" y="-139.88" font-family="Helvetica,sans-Serif" font-size="10.00">ISolidBuilder</text>
</a>
</g>
</g>
<!-- Node5&#45;&gt;Node2 -->
<g id="edge4_Node000002_Node000005" class="edge">
<title>Node5&#45;&gt;Node2</title>
<g id="a_edge4_Node000002_Node000005"><a xlink:title=" ">
<path fill="none" stroke="#63b8ff" d="M209.62,-121.13C209.62,-111.32 209.62,-99.8 209.62,-90.67"/>
<polygon fill="#63b8ff" stroke="#63b8ff" points="206.13,-120.82 209.63,-130.82 213.13,-120.82 206.13,-120.82"/>
</a>
</g>
</g>
<!-- Node6 -->
<g id="Node000006" class="node">
<title>Node6</title>
<g id="a_Node000006"><a xlink:href="classDLG4_1_1VolumeBuilders_1_1__internals___1_1IStructureBuilder.html" target="_top" xlink:title="a non&#45;fluent polymorphic class to access the derived solid&#45;builder from a base reference: This gets u...">
<polygon fill="white" stroke="#666666" points="258.5,-222.88 160.75,-222.88 160.75,-202.12 258.5,-202.12 258.5,-222.88"/>
<text text-anchor="middle" x="209.62" y="-209.38" font-family="Helvetica,sans-Serif" font-size="10.00">IStructureBuilder</text>
</a>
</g>
</g>
<!-- Node6&#45;&gt;Node5 -->
<g id="edge5_Node000005_Node000006" class="edge">
<title>Node6&#45;&gt;Node5</title>
<g id="a_edge5_Node000005_Node000006"><a xlink:title=" ">
<path fill="none" stroke="#63b8ff" d="M209.62,-190.69C209.62,-178.34 209.62,-163.27 209.62,-153.65"/>
<polygon fill="#63b8ff" stroke="#63b8ff" points="206.13,-190.32 209.63,-200.32 213.13,-190.32 206.13,-190.32"/>
</a>
</g>
</g>
<!-- Node7 -->
<g id="Node000007" class="node">
<title>Node7</title>
<g id="a_Node000007"><a xlink:href="classDLG4_1_1VolumeBuilders_1_1__internals___1_1IVolumeBuilder.html" target="_top" xlink:title="Might make this public.">
<polygon fill="white" stroke="#666666" points="356.75,-153.38 266.5,-153.38 266.5,-132.62 356.75,-132.62 356.75,-153.38"/>
<text text-anchor="middle" x="311.62" y="-139.88" font-family="Helvetica,sans-Serif" font-size="10.00">IVolumeBuilder</text>
</a>
</g>
</g>
<!-- Node7&#45;&gt;Node2 -->
<g id="edge6_Node000002_Node000007" class="edge">
<title>Node7&#45;&gt;Node2</title>
<g id="a_edge6_Node000002_Node000007"><a xlink:title=" ">
<path fill="none" stroke="#63b8ff" d="M287.71,-126.17C271.56,-115.49 250.31,-101.43 234.06,-90.67"/>
<polygon fill="#63b8ff" stroke="#63b8ff" points="285.48,-128.89 295.75,-131.49 289.34,-123.06 285.48,-128.89"/>
</a>
</g>
</g>
</g>
</svg>
