<?xml version="1.0" encoding="UTF-8" standalone="no"?>
<!DOCTYPE svg PUBLIC "-//W3C//DTD SVG 1.1//EN"
 "http://www.w3.org/Graphics/SVG/1.1/DTD/svg11.dtd">
<!-- Generated by graphviz version 12.0.0 (20240803.0821)
 -->
<!-- Title: StructureBuilderBase&lt; U &gt; Pages: 1 -->
<svg width="308pt" height="155pt"
 viewBox="0.00 0.00 307.50 155.00" xmlns="http://www.w3.org/2000/svg" xmlns:xlink="http://www.w3.org/1999/xlink">
<g id="graph0" class="graph" transform="scale(1 1) rotate(0) translate(4 151)">
<title>StructureBuilderBase&lt; U &gt;</title>
<!-- Node1 -->
<g id="Node000001" class="node">
<title>Node1</title>
<g id="a_Node000001"><a xlink:title="A type&#45;erased (data shared view) view of a builder or assembly, ie a &quot;structure.&quot;.">
<polygon fill="#999999" stroke="#666666" points="245,-20.75 96.25,-20.75 96.25,0 245,0 245,-20.75"/>
<text text-anchor="middle" x="170.62" y="-7.25" font-family="Helvetica,sans-Serif" font-size="10.00">StructureBuilderBase&lt; U &gt;</text>
</a>
</g>
</g>
<!-- Node2 -->
<g id="Node000002" class="node">
<title>Node2</title>
<g id="a_Node000002"><a xlink:href="classDLG4_1_1Utilities_1_1disableable__shared__from__this.html" target="_top" xlink:title=" ">
<polygon fill="white" stroke="#666666" points="183.25,-77.5 0,-77.5 0,-56.75 183.25,-56.75 183.25,-77.5"/>
<text text-anchor="middle" x="91.62" y="-64" font-family="Helvetica,sans-Serif" font-size="10.00">ENABLE_SHARED_WRAPPER&lt; U &gt;</text>
</a>
</g>
</g>
<!-- Node2&#45;&gt;Node1 -->
<g id="edge1_Node000001_Node000002" class="edge">
<title>Node2&#45;&gt;Node1</title>
<g id="a_edge1_Node000001_Node000002"><a xlink:title=" ">
<path fill="none" stroke="#63b8ff" d="M114.95,-49.96C128.49,-40.58 145.09,-29.07 156.62,-21.08"/>
<polygon fill="#63b8ff" stroke="#63b8ff" points="113.22,-46.9 106.99,-55.47 117.21,-52.66 113.22,-46.9"/>
</a>
</g>
</g>
<!-- Node3 -->
<g id="Node000003" class="node">
<title>Node3</title>
<g id="a_Node000003"><a xlink:title=" ">
<polygon fill="white" stroke="#666666" points="149.5,-147 33.75,-147 33.75,-113.5 149.5,-113.5 149.5,-147"/>
<text text-anchor="start" x="41.75" y="-133.5" font-family="Helvetica,sans-Serif" font-size="10.00">enable_shared_from</text>
<text text-anchor="middle" x="91.62" y="-120.75" font-family="Helvetica,sans-Serif" font-size="10.00">_this&lt; T &gt;</text>
</a>
</g>
</g>
<!-- Node3&#45;&gt;Node2 -->
<g id="edge2_Node000002_Node000003" class="edge">
<title>Node3&#45;&gt;Node2</title>
<g id="a_edge2_Node000002_Node000003"><a xlink:title=" ">
<path fill="none" stroke="#63b8ff" d="M91.62,-101.69C91.62,-93.21 91.62,-84.42 91.62,-77.97"/>
<polygon fill="#63b8ff" stroke="#63b8ff" points="88.13,-101.68 91.63,-111.68 95.13,-101.68 88.13,-101.68"/>
</a>
</g>
</g>
<!-- Node4 -->
<g id="Node000004" class="node">
<title>Node4</title>
<g id="a_Node000004"><a xlink:href="classDLG4_1_1VolumeBuilders_1_1__internals___1_1IStructureBuilder.html" target="_top" xlink:title="a non&#45;fluent polymorphic class to access the derived solid&#45;builder from a base reference: This gets u...">
<polygon fill="white" stroke="#666666" points="299.5,-77.5 201.75,-77.5 201.75,-56.75 299.5,-56.75 299.5,-77.5"/>
<text text-anchor="middle" x="250.62" y="-64" font-family="Helvetica,sans-Serif" font-size="10.00">IStructureBuilder</text>
</a>
</g>
</g>
<!-- Node4&#45;&gt;Node1 -->
<g id="edge3_Node000001_Node000004" class="edge">
<title>Node4&#45;&gt;Node1</title>
<g id="a_edge3_Node000001_Node000004"><a xlink:title=" ">
<path fill="none" stroke="#63b8ff" d="M227.01,-49.96C213.3,-40.58 196.48,-29.07 184.8,-21.08"/>
<polygon fill="#63b8ff" stroke="#63b8ff" points="224.84,-52.72 235.07,-55.48 228.8,-46.95 224.84,-52.72"/>
</a>
</g>
</g>
</g>
</svg>
