<?xml version="1.0" encoding="UTF-8" standalone="no"?>
<!DOCTYPE svg PUBLIC "-//W3C//DTD SVG 1.1//EN"
 "http://www.w3.org/Graphics/SVG/1.1/DTD/svg11.dtd">
<!-- Generated by graphviz version 12.0.0 (20240803.0821)
 -->
<!-- Title: StructureBuilderCore Pages: 1 -->
<svg width="278pt" height="237pt"
 viewBox="0.00 0.00 277.50 237.25" xmlns="http://www.w3.org/2000/svg" xmlns:xlink="http://www.w3.org/1999/xlink">
<g id="graph0" class="graph" transform="scale(1 1) rotate(0) translate(4 233.25)">
<title>StructureBuilderCore</title>
<!-- Node1 -->
<g id="Node000001" class="node">
<title>Node1</title>
<g id="a_Node000001"><a xlink:title="A type&#45;erased (data shared view) view of a builder or assembly, ie a &quot;structure.&quot;.">
<polygon fill="#999999" stroke="#666666" points="207.25,-20.75 90,-20.75 90,0 207.25,0 207.25,-20.75"/>
<text text-anchor="middle" x="148.62" y="-7.25" font-family="Helvetica,sans-Serif" font-size="10.00">StructureBuilderCore</text>
</a>
</g>
</g>
<!-- Node2 -->
<g id="Node000002" class="node">
<title>Node2</title>
<g id="a_Node000002"><a xlink:href="classDLG4_1_1VolumeBuilders_1_1__internals___1_1StructureBuilderBase.html" target="_top" xlink:title=" ">
<polygon fill="white" stroke="#666666" points="218.5,-90.25 78.75,-90.25 78.75,-56.75 218.5,-56.75 218.5,-90.25"/>
<text text-anchor="start" x="86.75" y="-76.75" font-family="Helvetica,sans-Serif" font-size="10.00">StructureBuilderBase</text>
<text text-anchor="middle" x="148.62" y="-64" font-family="Helvetica,sans-Serif" font-size="10.00">&lt; StructureBuilderCore &gt;</text>
</a>
</g>
</g>
<!-- Node2&#45;&gt;Node1 -->
<g id="edge1_Node000001_Node000002" class="edge">
<title>Node2&#45;&gt;Node1</title>
<g id="a_edge1_Node000001_Node000002"><a xlink:title=" ">
<path fill="none" stroke="#63b8ff" d="M148.62,-44.94C148.62,-36.46 148.62,-27.67 148.62,-21.22"/>
<polygon fill="#63b8ff" stroke="#63b8ff" points="145.13,-44.93 148.63,-54.93 152.13,-44.93 145.13,-44.93"/>
</a>
</g>
</g>
<!-- Node3 -->
<g id="Node000003" class="node">
<title>Node3</title>
<g id="a_Node000003"><a xlink:href="classDLG4_1_1Utilities_1_1disableable__shared__from__this.html" target="_top" xlink:title=" ">
<polygon fill="white" stroke="#666666" points="153.25,-159.75 0,-159.75 0,-126.25 153.25,-126.25 153.25,-159.75"/>
<text text-anchor="start" x="8" y="-146.25" font-family="Helvetica,sans-Serif" font-size="10.00">ENABLE_SHARED_WRAPPER</text>
<text text-anchor="middle" x="76.62" y="-133.5" font-family="Helvetica,sans-Serif" font-size="10.00">&lt; StructureBuilderCore &#160;&gt;</text>
</a>
</g>
</g>
<!-- Node3&#45;&gt;Node2 -->
<g id="edge2_Node000002_Node000003" class="edge">
<title>Node3&#45;&gt;Node2</title>
<g id="a_edge2_Node000002_Node000003"><a xlink:title=" ">
<path fill="none" stroke="#63b8ff" d="M101.96,-118.25C111.81,-109.02 122.83,-98.69 131.68,-90.38"/>
<polygon fill="#63b8ff" stroke="#63b8ff" points="99.69,-115.58 94.79,-124.97 104.48,-120.68 99.69,-115.58"/>
</a>
</g>
</g>
<!-- Node4 -->
<g id="Node000004" class="node">
<title>Node4</title>
<g id="a_Node000004"><a xlink:title=" ">
<polygon fill="white" stroke="#666666" points="134.5,-229.25 18.75,-229.25 18.75,-195.75 134.5,-195.75 134.5,-229.25"/>
<text text-anchor="start" x="26.75" y="-215.75" font-family="Helvetica,sans-Serif" font-size="10.00">enable_shared_from</text>
<text text-anchor="middle" x="76.62" y="-203" font-family="Helvetica,sans-Serif" font-size="10.00">_this&lt; T &gt;</text>
</a>
</g>
</g>
<!-- Node4&#45;&gt;Node3 -->
<g id="edge3_Node000003_Node000004" class="edge">
<title>Node4&#45;&gt;Node3</title>
<g id="a_edge3_Node000003_Node000004"><a xlink:title=" ">
<path fill="none" stroke="#63b8ff" d="M76.62,-184.06C76.62,-175.84 76.62,-167.09 76.62,-159.88"/>
<polygon fill="#63b8ff" stroke="#63b8ff" points="73.13,-183.99 76.63,-193.99 80.13,-183.99 73.13,-183.99"/>
</a>
</g>
</g>
<!-- Node5 -->
<g id="Node000005" class="node">
<title>Node5</title>
<g id="a_Node000005"><a xlink:href="classDLG4_1_1VolumeBuilders_1_1__internals___1_1IStructureBuilder.html" target="_top" xlink:title="a non&#45;fluent polymorphic class to access the derived solid&#45;builder from a base reference: This gets u...">
<polygon fill="white" stroke="#666666" points="269.5,-153.38 171.75,-153.38 171.75,-132.62 269.5,-132.62 269.5,-153.38"/>
<text text-anchor="middle" x="220.62" y="-139.88" font-family="Helvetica,sans-Serif" font-size="10.00">IStructureBuilder</text>
</a>
</g>
</g>
<!-- Node5&#45;&gt;Node2 -->
<g id="edge4_Node000002_Node000005" class="edge">
<title>Node5&#45;&gt;Node2</title>
<g id="a_edge4_Node000002_Node000005"><a xlink:title=" ">
<path fill="none" stroke="#63b8ff" d="M202.11,-124.64C190.94,-114.17 176.8,-100.92 165.87,-90.67"/>
<polygon fill="#63b8ff" stroke="#63b8ff" points="199.52,-127.01 209.2,-131.29 204.3,-121.9 199.52,-127.01"/>
</a>
</g>
</g>
</g>
</svg>
