<?xml version="1.0" encoding="UTF-8" standalone="no"?>
<!DOCTYPE svg PUBLIC "-//W3C//DTD SVG 1.1//EN"
 "http://www.w3.org/Graphics/SVG/1.1/DTD/svg11.dtd">
<!-- Generated by graphviz version 12.0.0 (20240803.0821)
 -->
<!-- Title: include/disableable_shared_from_this.hh Pages: 1 -->
<svg width="211pt" height="98pt"
 viewBox="0.00 0.00 210.50 98.25" xmlns="http://www.w3.org/2000/svg" xmlns:xlink="http://www.w3.org/1999/xlink">
<g id="graph0" class="graph" transform="scale(1 1) rotate(0) translate(4 94.25)">
<title>include/disableable_shared_from_this.hh</title>
<!-- Node1 -->
<g id="Node000001" class="node">
<title>Node1</title>
<g id="a_Node000001"><a xlink:title="Created by.">
<polygon fill="#999999" stroke="#666666" points="158.38,-90.25 37.38,-90.25 37.38,-56.75 158.38,-56.75 158.38,-90.25"/>
<text text-anchor="start" x="45.38" y="-76.75" font-family="Helvetica,sans-Serif" font-size="10.00">include/disableable</text>
<text text-anchor="middle" x="97.88" y="-64" font-family="Helvetica,sans-Serif" font-size="10.00">_shared_from_this.hh</text>
</a>
</g>
</g>
<!-- Node2 -->
<g id="Node000002" class="node">
<title>Node2</title>
<g id="a_Node000002"><a xlink:title=" ">
<polygon fill="#e0e0e0" stroke="#999999" points="49.75,-20.75 0,-20.75 0,0 49.75,0 49.75,-20.75"/>
<text text-anchor="middle" x="24.88" y="-7.25" font-family="Helvetica,sans-Serif" font-size="10.00">atomic</text>
</a>
</g>
</g>
<!-- Node1&#45;&gt;Node2 -->
<g id="edge1_Node000001_Node000002" class="edge">
<title>Node1&#45;&gt;Node2</title>
<g id="a_edge1_Node000001_Node000002"><a xlink:title=" ">
<path fill="none" stroke="#63b8ff" d="M78.7,-56.44C68.37,-47.8 55.64,-37.13 45.15,-28.35"/>
<polygon fill="#63b8ff" stroke="#63b8ff" points="47.7,-25.93 37.79,-22.19 43.21,-31.29 47.7,-25.93"/>
</a>
</g>
</g>
<!-- Node3 -->
<g id="Node000003" class="node">
<title>Node3</title>
<g id="a_Node000003"><a xlink:title=" ">
<polygon fill="#e0e0e0" stroke="#999999" points="127.62,-20.75 68.12,-20.75 68.12,0 127.62,0 127.62,-20.75"/>
<text text-anchor="middle" x="97.88" y="-7.25" font-family="Helvetica,sans-Serif" font-size="10.00">iostream</text>
</a>
</g>
</g>
<!-- Node1&#45;&gt;Node3 -->
<g id="edge2_Node000001_Node000003" class="edge">
<title>Node1&#45;&gt;Node3</title>
<g id="a_edge2_Node000001_Node000003"><a xlink:title=" ">
<path fill="none" stroke="#63b8ff" d="M97.88,-56.44C97.88,-49.1 97.88,-40.32 97.88,-32.46"/>
<polygon fill="#63b8ff" stroke="#63b8ff" points="101.38,-32.73 97.88,-22.73 94.38,-32.73 101.38,-32.73"/>
</a>
</g>
</g>
<!-- Node4 -->
<g id="Node000004" class="node">
<title>Node4</title>
<g id="a_Node000004"><a xlink:title=" ">
<polygon fill="#e0e0e0" stroke="#999999" points="202.5,-20.75 145.25,-20.75 145.25,0 202.5,0 202.5,-20.75"/>
<text text-anchor="middle" x="173.88" y="-7.25" font-family="Helvetica,sans-Serif" font-size="10.00">memory</text>
</a>
</g>
</g>
<!-- Node1&#45;&gt;Node4 -->
<g id="edge3_Node000001_Node000004" class="edge">
<title>Node1&#45;&gt;Node4</title>
<g id="a_edge3_Node000001_Node000004"><a xlink:title=" ">
<path fill="none" stroke="#63b8ff" d="M117.84,-56.44C128.59,-47.8 141.85,-37.13 152.77,-28.35"/>
<polygon fill="#63b8ff" stroke="#63b8ff" points="154.86,-31.16 160.46,-22.17 150.47,-25.71 154.86,-31.16"/>
</a>
</g>
</g>
</g>
</svg>
