<?xml version="1.0" encoding="UTF-8" standalone="no"?>
<!DOCTYPE svg PUBLIC "-//W3C//DTD SVG 1.1//EN"
 "http://www.w3.org/Graphics/SVG/1.1/DTD/svg11.dtd">
<!-- Generated by graphviz version 12.0.0 (20240803.0821)
 -->
<!-- Title: include/i_shared_ptr.hh Pages: 1 -->
<svg width="361pt" height="142pt"
 viewBox="0.00 0.00 360.50 142.25" xmlns="http://www.w3.org/2000/svg" xmlns:xlink="http://www.w3.org/1999/xlink">
<g id="graph0" class="graph" transform="scale(1 1) rotate(0) translate(4 138.25)">
<title>include/i_shared_ptr.hh</title>
<!-- Node1 -->
<g id="Node000001" class="node">
<title>Node1</title>
<g id="a_Node000001"><a xlink:title=" ">
<polygon fill="#999999" stroke="#666666" points="291.12,-134.25 162.62,-134.25 162.62,-113.5 291.12,-113.5 291.12,-134.25"/>
<text text-anchor="middle" x="226.88" y="-120.75" font-family="Helvetica,sans-Serif" font-size="10.00">include/i_shared_ptr.hh</text>
</a>
</g>
</g>
<!-- Node2 -->
<g id="Node000002" class="node">
<title>Node2</title>
<g id="a_Node000002"><a xlink:title=" ">
<polygon fill="#e0e0e0" stroke="#999999" points="115.75,-20.75 0,-20.75 0,0 115.75,0 115.75,-20.75"/>
<text text-anchor="middle" x="57.88" y="-7.25" font-family="Helvetica,sans-Serif" font-size="10.00">G4LogicalVolume.hh</text>
</a>
</g>
</g>
<!-- Node1&#45;&gt;Node2 -->
<g id="edge1_Node000001_Node000002" class="edge">
<title>Node1&#45;&gt;Node2</title>
<g id="a_edge1_Node000001_Node000002"><a xlink:title=" ">
<path fill="none" stroke="#63b8ff" d="M198.06,-113.02C177.06,-105.12 148.45,-92.84 125.88,-77.5 105.76,-63.83 86.23,-43.93 73.3,-29.54"/>
<polygon fill="#63b8ff" stroke="#63b8ff" points="76.03,-27.35 66.81,-22.13 70.77,-31.96 76.03,-27.35"/>
</a>
</g>
</g>
<!-- Node3 -->
<g id="Node000003" class="node">
<title>Node3</title>
<g id="a_Node000003"><a xlink:title=" ">
<polygon fill="#e0e0e0" stroke="#999999" points="333.5,-20.75 258.25,-20.75 258.25,0 333.5,0 333.5,-20.75"/>
<text text-anchor="middle" x="295.88" y="-7.25" font-family="Helvetica,sans-Serif" font-size="10.00">G4VSolid.hh</text>
</a>
</g>
</g>
<!-- Node1&#45;&gt;Node3 -->
<g id="edge2_Node000001_Node000003" class="edge">
<title>Node1&#45;&gt;Node3</title>
<g id="a_edge2_Node000001_Node000003"><a xlink:title=" ">
<path fill="none" stroke="#63b8ff" d="M232.76,-113.37C244.06,-95.11 268.99,-54.81 283.92,-30.7"/>
<polygon fill="#63b8ff" stroke="#63b8ff" points="286.73,-32.81 289.01,-22.46 280.78,-29.12 286.73,-32.81"/>
</a>
</g>
</g>
<!-- Node4 -->
<g id="Node000004" class="node">
<title>Node4</title>
<g id="a_Node000004"><a xlink:title=" ">
<polygon fill="#e0e0e0" stroke="#999999" points="352.5,-77.5 295.25,-77.5 295.25,-56.75 352.5,-56.75 352.5,-77.5"/>
<text text-anchor="middle" x="323.88" y="-64" font-family="Helvetica,sans-Serif" font-size="10.00">memory</text>
</a>
</g>
</g>
<!-- Node1&#45;&gt;Node4 -->
<g id="edge3_Node000001_Node000004" class="edge">
<title>Node1&#45;&gt;Node4</title>
<g id="a_edge3_Node000001_Node000004"><a xlink:title=" ">
<path fill="none" stroke="#63b8ff" d="M244.22,-113.09C258.84,-104.83 280.01,-92.88 296.85,-83.38"/>
<polygon fill="#63b8ff" stroke="#63b8ff" points="298.38,-86.54 305.37,-78.57 294.94,-80.44 298.38,-86.54"/>
</a>
</g>
</g>
<!-- Node5 -->
<g id="Node000005" class="node">
<title>Node5</title>
<g id="a_Node000005"><a xlink:href="IVolumeBuilder_8hh.html" target="_top" xlink:title="Created by.">
<polygon fill="white" stroke="#666666" points="239.12,-77.5 134.62,-77.5 134.62,-56.75 239.12,-56.75 239.12,-77.5"/>
<text text-anchor="middle" x="186.88" y="-64" font-family="Helvetica,sans-Serif" font-size="10.00">IVolumeBuilder.hh</text>
</a>
</g>
</g>
<!-- Node1&#45;&gt;Node5 -->
<g id="edge4_Node000001_Node000005" class="edge">
<title>Node1&#45;&gt;Node5</title>
<g id="a_edge4_Node000001_Node000005"><a xlink:title=" ">
<path fill="none" stroke="#63b8ff" d="M219.72,-113.09C214.43,-105.85 207.06,-95.76 200.65,-86.97"/>
<polygon fill="#63b8ff" stroke="#63b8ff" points="203.58,-85.06 194.86,-79.05 197.93,-89.19 203.58,-85.06"/>
</a>
</g>
</g>
<!-- Node5&#45;&gt;Node2 -->
<g id="edge5_Node000005_Node000002" class="edge">
<title>Node5&#45;&gt;Node2</title>
<g id="a_edge5_Node000005_Node000002"><a xlink:title=" ">
<path fill="none" stroke="#63b8ff" d="M163.81,-56.34C143.63,-47.77 114.07,-35.23 91.3,-25.56"/>
<polygon fill="#63b8ff" stroke="#63b8ff" points="92.7,-22.35 82.13,-21.67 89.97,-28.8 92.7,-22.35"/>
</a>
</g>
</g>
<!-- Node5&#45;&gt;Node3 -->
<g id="edge7_Node000005_Node000003" class="edge">
<title>Node5&#45;&gt;Node3</title>
<g id="a_edge7_Node000005_Node000003"><a xlink:title=" ">
<path fill="none" stroke="#63b8ff" d="M206.36,-56.34C223.02,-47.97 247.26,-35.79 266.31,-26.22"/>
<polygon fill="#63b8ff" stroke="#63b8ff" points="267.84,-29.37 275.2,-21.76 264.7,-23.12 267.84,-29.37"/>
</a>
</g>
</g>
<!-- Node6 -->
<g id="Node000006" class="node">
<title>Node6</title>
<g id="a_Node000006"><a xlink:title=" ">
<polygon fill="#e0e0e0" stroke="#999999" points="240.25,-20.75 133.5,-20.75 133.5,0 240.25,0 240.25,-20.75"/>
<text text-anchor="middle" x="186.88" y="-7.25" font-family="Helvetica,sans-Serif" font-size="10.00">G4Transform3D.hh</text>
</a>
</g>
</g>
<!-- Node5&#45;&gt;Node6 -->
<g id="edge6_Node000005_Node000006" class="edge">
<title>Node5&#45;&gt;Node6</title>
<g id="a_edge6_Node000005_Node000006"><a xlink:title=" ">
<path fill="none" stroke="#63b8ff" d="M186.88,-56.34C186.88,-49.72 186.88,-40.72 186.88,-32.52"/>
<polygon fill="#63b8ff" stroke="#63b8ff" points="190.38,-32.59 186.88,-22.59 183.38,-32.59 190.38,-32.59"/>
</a>
</g>
</g>
</g>
</svg>
