<?xml version="1.0" encoding="UTF-8" standalone="no"?>
<!DOCTYPE svg PUBLIC "-//W3C//DTD SVG 1.1//EN"
 "http://www.w3.org/Graphics/SVG/1.1/DTD/svg11.dtd">
<!-- Generated by graphviz version 12.0.0 (20240803.0821)
 -->
<!-- Title: Graphical Class Hierarchy Pages: 1 -->
<svg width="270pt" height="132pt"
 viewBox="0.00 0.00 270.25 132.12" xmlns="http://www.w3.org/2000/svg" xmlns:xlink="http://www.w3.org/1999/xlink">
<g id="graph0" class="graph" transform="scale(1 1) rotate(0) translate(4 128.12)">
<title>Graphical Class Hierarchy</title>
<!-- Node0 -->
<g id="Node000000" class="node">
<title>Node0</title>
<g id="a_Node000000"><a xlink:title=" ">
<polygon fill="#e0e0e0" stroke="#999999" points="67.75,-65.75 0,-65.75 0,-45 67.75,-45 67.75,-65.75"/>
<text text-anchor="middle" x="33.88" y="-52.25" font-family="Helvetica,sans-Serif" font-size="10.00">shared_ptr</text>
</a>
</g>
</g>
<!-- Node1 -->
<g id="Node000001" class="node">
<title>Node1</title>
<g id="a_Node000001"><a xlink:href="classDLG4_1_1VolumeBuilders_1_1__internals___1_1i__shared__ptr.html" target="_top" xlink:title=" ">
<polygon fill="white" stroke="#666666" points="262.25,-124.12 103.75,-124.12 103.75,-90.62 262.25,-90.62 262.25,-124.12"/>
<text text-anchor="start" x="111.75" y="-110.62" font-family="Helvetica,sans-Serif" font-size="10.00">i_shared_ptr&lt; VolumeBuilder</text>
<text text-anchor="middle" x="183" y="-97.88" font-family="Helvetica,sans-Serif" font-size="10.00">Core &gt;</text>
</a>
</g>
</g>
<!-- Node0&#45;&gt;Node1 -->
<g id="edge31_Node000000_Node000001" class="edge">
<title>Node0&#45;&gt;Node1</title>
<g id="a_edge31_Node000000_Node000001"><a xlink:title=" ">
<path fill="none" stroke="#63b8ff" d="M73.35,-70.21C83.23,-73.93 93.86,-77.87 103.75,-81.38 111.98,-84.29 120.73,-87.3 129.29,-90.18"/>
<polygon fill="#63b8ff" stroke="#63b8ff" points="74.6,-66.94 64.01,-66.67 72.12,-73.49 74.6,-66.94"/>
</a>
</g>
</g>
<!-- Node2 -->
<g id="Node000002" class="node">
<title>Node2</title>
<g id="a_Node000002"><a xlink:href="classDLG4_1_1VolumeBuilders_1_1__internals___1_1i__shared__ptr.html" target="_top" xlink:title=" ">
<polygon fill="white" stroke="#666666" points="250.25,-72.12 115.75,-72.12 115.75,-38.62 250.25,-38.62 250.25,-72.12"/>
<text text-anchor="start" x="123.75" y="-58.62" font-family="Helvetica,sans-Serif" font-size="10.00">i_shared_ptr&lt; IStructure</text>
<text text-anchor="middle" x="183" y="-45.88" font-family="Helvetica,sans-Serif" font-size="10.00">Builder &gt;</text>
</a>
</g>
</g>
<!-- Node0&#45;&gt;Node2 -->
<g id="edge32_Node000000_Node000002" class="edge">
<title>Node0&#45;&gt;Node2</title>
<g id="a_edge32_Node000000_Node000002"><a xlink:title=" ">
<path fill="none" stroke="#63b8ff" d="M79.29,-55.38C90.66,-55.38 103.14,-55.38 115.37,-55.38"/>
<polygon fill="#63b8ff" stroke="#63b8ff" points="79.41,-51.88 69.41,-55.38 79.41,-58.88 79.41,-51.88"/>
</a>
</g>
</g>
<!-- Node3 -->
<g id="Node000003" class="node">
<title>Node3</title>
<g id="a_Node000003"><a xlink:href="classDLG4_1_1VolumeBuilders_1_1__internals___1_1i__shared__ptr.html" target="_top" xlink:title=" ">
<polygon fill="white" stroke="#666666" points="235.25,-20.75 130.75,-20.75 130.75,0 235.25,0 235.25,-20.75"/>
<text text-anchor="middle" x="183" y="-7.25" font-family="Helvetica,sans-Serif" font-size="10.00">i_shared_ptr&lt; T &gt;</text>
</a>
</g>
</g>
<!-- Node0&#45;&gt;Node3 -->
<g id="edge33_Node000000_Node000003" class="edge">
<title>Node0&#45;&gt;Node3</title>
<g id="a_edge33_Node000000_Node000003"><a xlink:title=" ">
<path fill="none" stroke="#63b8ff" d="M71.79,-40.49C82.05,-36.61 93.26,-32.62 103.75,-29.38 113.23,-26.45 123.48,-23.68 133.33,-21.21"/>
<polygon fill="#63b8ff" stroke="#63b8ff" points="70.59,-37.2 62.52,-44.06 73.11,-43.73 70.59,-37.2"/>
</a>
</g>
</g>
</g>
</svg>
