<?xml version="1.0" encoding="UTF-8" standalone="no"?>
<!DOCTYPE svg PUBLIC "-//W3C//DTD SVG 1.1//EN"
 "http://www.w3.org/Graphics/SVG/1.1/DTD/svg11.dtd">
<!-- Generated by graphviz version 12.0.0 (20240803.0821)
 -->
<!-- Title: Graphical Class Hierarchy Pages: 1 -->
<svg width="632pt" height="378pt"
 viewBox="0.00 0.00 631.50 377.50" xmlns="http://www.w3.org/2000/svg" xmlns:xlink="http://www.w3.org/1999/xlink">
<g id="graph0" class="graph" transform="scale(1 1) rotate(0) translate(4 373.5)">
<title>Graphical Class Hierarchy</title>
<!-- Node0 -->
<g id="Node000000" class="node">
<title>Node0</title>
<g id="a_Node000000"><a xlink:title=" ">
<polygon fill="#e0e0e0" stroke="#999999" points="139,-218.12 0,-218.12 0,-197.38 139,-197.38 139,-218.12"/>
<text text-anchor="middle" x="69.5" y="-204.62" font-family="Helvetica,sans-Serif" font-size="10.00">enable_shared_from_this</text>
</a>
</g>
</g>
<!-- Node1 -->
<g id="Node000001" class="node">
<title>Node1</title>
<g id="a_Node000001"><a xlink:href="classDLG4_1_1Utilities_1_1disableable__shared__from__this.html" target="_top" xlink:title=" ">
<polygon fill="white" stroke="#666666" points="285.5,-224.5 175,-224.5 175,-191 285.5,-191 285.5,-224.5"/>
<text text-anchor="start" x="183" y="-211" font-family="Helvetica,sans-Serif" font-size="10.00">disableable_shared</text>
<text text-anchor="middle" x="230.25" y="-198.25" font-family="Helvetica,sans-Serif" font-size="10.00">_from_this&lt; T &gt;</text>
</a>
</g>
</g>
<!-- Node0&#45;&gt;Node1 -->
<g id="edge1_Node000000_Node000001" class="edge">
<title>Node0&#45;&gt;Node1</title>
<g id="a_edge1_Node000000_Node000001"><a xlink:title=" ">
<path fill="none" stroke="#63b8ff" d="M150.71,-207.75C158.86,-207.75 167,-207.75 174.79,-207.75"/>
<polygon fill="#63b8ff" stroke="#63b8ff" points="150.72,-204.25 140.72,-207.75 150.72,-211.25 150.72,-204.25"/>
</a>
</g>
</g>
<!-- Node2 -->
<g id="Node000002" class="node">
<title>Node2</title>
<g id="a_Node000002"><a xlink:href="classDLG4_1_1VolumeBuilders_1_1__internals___1_1StructureBuilderBase.html" target="_top" xlink:title=" ">
<polygon fill="white" stroke="#666666" points="455.25,-369.5 336.5,-369.5 336.5,-336 455.25,-336 455.25,-369.5"/>
<text text-anchor="start" x="344.5" y="-356" font-family="Helvetica,sans-Serif" font-size="10.00">StructureBuilderBase</text>
<text text-anchor="middle" x="395.88" y="-343.25" font-family="Helvetica,sans-Serif" font-size="10.00">&lt; AssemblyCore &gt;</text>
</a>
</g>
</g>
<!-- Node1&#45;&gt;Node2 -->
<g id="edge2_Node000001_Node000002" class="edge">
<title>Node1&#45;&gt;Node2</title>
<g id="a_edge2_Node000001_Node000002"><a xlink:title=" ">
<path fill="none" stroke="#63b8ff" d="M245.48,-234.74C260.9,-261.56 287.87,-302.16 321.5,-326.75 326.08,-330.1 331.14,-333.05 336.38,-335.64"/>
<polygon fill="#63b8ff" stroke="#63b8ff" points="248.63,-233.2 240.7,-226.17 242.52,-236.61 248.63,-233.2"/>
</a>
</g>
</g>
<!-- Node5 -->
<g id="Node000005" class="node">
<title>Node5</title>
<g id="a_Node000005"><a xlink:href="classDLG4_1_1VolumeBuilders_1_1__internals___1_1StructureBuilderBase.html" target="_top" xlink:title=" ">
<polygon fill="white" stroke="#666666" points="465.75,-317.5 326,-317.5 326,-284 465.75,-284 465.75,-317.5"/>
<text text-anchor="start" x="334" y="-304" font-family="Helvetica,sans-Serif" font-size="10.00">StructureBuilderBase</text>
<text text-anchor="middle" x="395.88" y="-291.25" font-family="Helvetica,sans-Serif" font-size="10.00">&lt; StructureBuilderCore &gt;</text>
</a>
</g>
</g>
<!-- Node1&#45;&gt;Node5 -->
<g id="edge4_Node000001_Node000005" class="edge">
<title>Node1&#45;&gt;Node5</title>
<g id="a_edge4_Node000001_Node000005"><a xlink:title=" ">
<path fill="none" stroke="#63b8ff" d="M258.93,-231.7C276.09,-245.65 299.06,-262.79 321.5,-274.75 327.46,-277.93 333.9,-280.86 340.39,-283.51"/>
<polygon fill="#63b8ff" stroke="#63b8ff" points="261.63,-229.39 251.69,-225.71 257.16,-234.78 261.63,-229.39"/>
</a>
</g>
</g>
<!-- Node8 -->
<g id="Node000008" class="node">
<title>Node8</title>
<g id="a_Node000008"><a xlink:href="classDLG4_1_1VolumeBuilders_1_1__internals___1_1VolumeBuilderBase.html" target="_top" xlink:title=" ">
<polygon fill="white" stroke="#666666" points="455.62,-227.5 336.12,-227.5 336.12,-194 455.62,-194 455.62,-227.5"/>
<text text-anchor="start" x="344.12" y="-214" font-family="Helvetica,sans-Serif" font-size="10.00">VolumeBuilderBase&lt;</text>
<text text-anchor="middle" x="395.88" y="-201.25" font-family="Helvetica,sans-Serif" font-size="10.00"> BoxBuilderCore &gt;</text>
</a>
</g>
</g>
<!-- Node1&#45;&gt;Node8 -->
<g id="edge6_Node000001_Node000008" class="edge">
<title>Node1&#45;&gt;Node8</title>
<g id="a_edge6_Node000001_Node000008"><a xlink:title=" ">
<path fill="none" stroke="#63b8ff" d="M296.88,-208.95C309.76,-209.19 323.2,-209.44 335.85,-209.67"/>
<polygon fill="#63b8ff" stroke="#63b8ff" points="297.31,-205.46 287.25,-208.78 297.18,-212.46 297.31,-205.46"/>
</a>
</g>
</g>
<!-- Node11 -->
<g id="Node000011" class="node">
<title>Node11</title>
<g id="a_Node000011"><a xlink:href="classDLG4_1_1VolumeBuilders_1_1__internals___1_1VolumeBuilderBase.html" target="_top" xlink:title=" ">
<polygon fill="white" stroke="#666666" points="456.75,-175.5 335,-175.5 335,-142 456.75,-142 456.75,-175.5"/>
<text text-anchor="start" x="343" y="-162" font-family="Helvetica,sans-Serif" font-size="10.00">VolumeBuilderBase&lt;</text>
<text text-anchor="middle" x="395.88" y="-149.25" font-family="Helvetica,sans-Serif" font-size="10.00"> FromG4VSolidCore &gt;</text>
</a>
</g>
</g>
<!-- Node1&#45;&gt;Node11 -->
<g id="edge8_Node000001_Node000011" class="edge">
<title>Node1&#45;&gt;Node11</title>
<g id="a_edge8_Node000001_Node000011"><a xlink:title=" ">
<path fill="none" stroke="#63b8ff" d="M296.46,-188.22C310.05,-184.15 324.27,-179.89 337.54,-175.92"/>
<polygon fill="#63b8ff" stroke="#63b8ff" points="295.76,-184.78 287.18,-191 297.77,-191.48 295.76,-184.78"/>
</a>
</g>
</g>
<!-- Node13 -->
<g id="Node000013" class="node">
<title>Node13</title>
<g id="a_Node000013"><a xlink:href="classDLG4_1_1VolumeBuilders_1_1__internals___1_1VolumeBuilderBase.html" target="_top" xlink:title=" ">
<polygon fill="white" stroke="#666666" points="455.62,-85.5 336.12,-85.5 336.12,-52 455.62,-52 455.62,-85.5"/>
<text text-anchor="start" x="344.12" y="-72" font-family="Helvetica,sans-Serif" font-size="10.00">VolumeBuilderBase&lt;</text>
<text text-anchor="middle" x="395.88" y="-59.25" font-family="Helvetica,sans-Serif" font-size="10.00"> RZBuilderCore &gt;</text>
</a>
</g>
</g>
<!-- Node1&#45;&gt;Node13 -->
<g id="edge10_Node000001_Node000013" class="edge">
<title>Node1&#45;&gt;Node13</title>
<g id="a_edge10_Node000001_Node000013"><a xlink:title=" ">
<path fill="none" stroke="#63b8ff" d="M275.73,-183.96C279.26,-181.12 282.59,-178.05 285.5,-174.75 311.31,-145.53 292.82,-121.16 321.5,-94.75 325.77,-90.81 330.68,-87.47 335.89,-84.62"/>
<polygon fill="#63b8ff" stroke="#63b8ff" points="273.91,-180.95 267.84,-189.63 278,-186.63 273.91,-180.95"/>
</a>
</g>
</g>
<!-- Node15 -->
<g id="Node000015" class="node">
<title>Node15</title>
<g id="a_Node000015"><a xlink:href="classDLG4_1_1VolumeBuilders_1_1__internals___1_1VolumeBuilderBase.html" target="_top" xlink:title=" ">
<polygon fill="white" stroke="#666666" points="457.88,-33.5 333.88,-33.5 333.88,0 457.88,0 457.88,-33.5"/>
<text text-anchor="start" x="341.88" y="-20" font-family="Helvetica,sans-Serif" font-size="10.00">VolumeBuilderBase&lt;</text>
<text text-anchor="middle" x="395.88" y="-7.25" font-family="Helvetica,sans-Serif" font-size="10.00"> VolumeBuilderCore &gt;</text>
</a>
</g>
</g>
<!-- Node1&#45;&gt;Node15 -->
<g id="edge12_Node000001_Node000015" class="edge">
<title>Node1&#45;&gt;Node15</title>
<g id="a_edge12_Node000001_Node000015"><a xlink:title=" ">
<path fill="none" stroke="#63b8ff" d="M277.27,-183.57C280.31,-180.87 283.11,-177.93 285.5,-174.75 322.07,-126.17 280.13,-87.32 321.5,-42.75 324.99,-38.99 329.07,-35.77 333.47,-33.01"/>
<polygon fill="#63b8ff" stroke="#63b8ff" points="275.18,-180.76 269.4,-189.64 279.45,-186.31 275.18,-180.76"/>
</a>
</g>
</g>
<!-- Node18 -->
<g id="Node000018" class="node">
<title>Node18</title>
<g id="a_Node000018"><a xlink:href="classDLG4_1_1VolumeBuilders_1_1__internals___1_1StructureBuilderBase.html" target="_top" xlink:title="A type&#45;erased (data shared view) view of a builder or assembly, ie a &quot;structure.&quot;.">
<polygon fill="white" stroke="#666666" points="470.25,-266.12 321.5,-266.12 321.5,-245.38 470.25,-245.38 470.25,-266.12"/>
<text text-anchor="middle" x="395.88" y="-252.62" font-family="Helvetica,sans-Serif" font-size="10.00">StructureBuilderBase&lt; U &gt;</text>
</a>
</g>
</g>
<!-- Node1&#45;&gt;Node18 -->
<g id="edge14_Node000001_Node000018" class="edge">
<title>Node1&#45;&gt;Node18</title>
<g id="a_edge14_Node000001_Node000018"><a xlink:title=" ">
<path fill="none" stroke="#63b8ff" d="M293.84,-228.38C303.09,-231.27 312.52,-234.15 321.5,-236.75 331.11,-239.53 341.47,-242.34 351.31,-244.91"/>
<polygon fill="#63b8ff" stroke="#63b8ff" points="295.15,-225.12 284.56,-225.44 293.03,-231.79 295.15,-225.12"/>
</a>
</g>
</g>
<!-- Node17 -->
<g id="Node000017" class="node">
<title>Node17</title>
<g id="a_Node000017"><a xlink:href="classDLG4_1_1VolumeBuilders_1_1__internals___1_1VolumeBuilderBase.html" target="_top" xlink:title="VolumeBuilder: Common functionality for volume builder classes.">
<polygon fill="white" stroke="#666666" points="466.5,-124.12 325.25,-124.12 325.25,-103.38 466.5,-103.38 466.5,-124.12"/>
<text text-anchor="middle" x="395.88" y="-110.62" font-family="Helvetica,sans-Serif" font-size="10.00">VolumeBuilderBase&lt; U &gt;</text>
</a>
</g>
</g>
<!-- Node1&#45;&gt;Node17 -->
<g id="edge15_Node000001_Node000017" class="edge">
<title>Node1&#45;&gt;Node17</title>
<g id="a_edge15_Node000001_Node000017"><a xlink:title=" ">
<path fill="none" stroke="#63b8ff" d="M273,-184.24C277.36,-181.24 281.61,-178.05 285.5,-174.75 304.24,-158.83 300.64,-145.76 321.5,-132.75 326.75,-129.48 332.54,-126.76 338.5,-124.52"/>
<polygon fill="#63b8ff" stroke="#63b8ff" points="271.13,-181.29 264.66,-189.68 274.95,-187.15 271.13,-181.29"/>
</a>
</g>
</g>
<!-- Node3 -->
<g id="Node000003" class="node">
<title>Node3</title>
<g id="a_Node000003"><a xlink:href="classDLG4_1_1VolumeBuilders_1_1__internals___1_1AssemblyCore.html" target="_top" xlink:title="A type&#45;erased (data shared view) view of a builder or assembly, ie a &quot;structure.&quot;.">
<polygon fill="white" stroke="#666666" points="608.12,-363.12 521.62,-363.12 521.62,-342.38 608.12,-342.38 608.12,-363.12"/>
<text text-anchor="middle" x="564.88" y="-349.62" font-family="Helvetica,sans-Serif" font-size="10.00">AssemblyCore</text>
</a>
</g>
</g>
<!-- Node2&#45;&gt;Node3 -->
<g id="edge3_Node000002_Node000003" class="edge">
<title>Node2&#45;&gt;Node3</title>
<g id="a_edge3_Node000002_Node000003"><a xlink:title=" ">
<path fill="none" stroke="#63b8ff" d="M466.67,-352.75C485.22,-352.75 504.68,-352.75 521.28,-352.75"/>
<polygon fill="#63b8ff" stroke="#63b8ff" points="466.8,-349.25 456.8,-352.75 466.8,-356.25 466.8,-349.25"/>
</a>
</g>
</g>
<!-- Node6 -->
<g id="Node000006" class="node">
<title>Node6</title>
<g id="a_Node000006"><a xlink:href="classDLG4_1_1VolumeBuilders_1_1__internals___1_1StructureBuilderCore.html" target="_top" xlink:title="A type&#45;erased (data shared view) view of a builder or assembly, ie a &quot;structure.&quot;.">
<polygon fill="white" stroke="#666666" points="623.5,-311.12 506.25,-311.12 506.25,-290.38 623.5,-290.38 623.5,-311.12"/>
<text text-anchor="middle" x="564.88" y="-297.62" font-family="Helvetica,sans-Serif" font-size="10.00">StructureBuilderCore</text>
</a>
</g>
</g>
<!-- Node5&#45;&gt;Node6 -->
<g id="edge5_Node000005_Node000006" class="edge">
<title>Node5&#45;&gt;Node6</title>
<g id="a_edge5_Node000005_Node000006"><a xlink:title=" ">
<path fill="none" stroke="#63b8ff" d="M477.76,-300.75C487.24,-300.75 496.77,-300.75 505.85,-300.75"/>
<polygon fill="#63b8ff" stroke="#63b8ff" points="477.76,-297.25 467.76,-300.75 477.76,-304.25 477.76,-297.25"/>
</a>
</g>
</g>
<!-- Node9 -->
<g id="Node000009" class="node">
<title>Node9</title>
<g id="a_Node000009"><a xlink:href="classDLG4_1_1VolumeBuilders_1_1__internals___1_1BoxBuilderCore.html" target="_top" xlink:title="Builder class for simple Box solids.">
<polygon fill="white" stroke="#666666" points="610.75,-221.12 519,-221.12 519,-200.38 610.75,-200.38 610.75,-221.12"/>
<text text-anchor="middle" x="564.88" y="-207.62" font-family="Helvetica,sans-Serif" font-size="10.00">BoxBuilderCore</text>
</a>
</g>
</g>
<!-- Node8&#45;&gt;Node9 -->
<g id="edge7_Node000008_Node000009" class="edge">
<title>Node8&#45;&gt;Node9</title>
<g id="a_edge7_Node000008_Node000009"><a xlink:title=" ">
<path fill="none" stroke="#63b8ff" d="M467.07,-210.75C484.52,-210.75 502.76,-210.75 518.64,-210.75"/>
<polygon fill="#63b8ff" stroke="#63b8ff" points="467.27,-207.25 457.27,-210.75 467.27,-214.25 467.27,-207.25"/>
</a>
</g>
</g>
<!-- Node12 -->
<g id="Node000012" class="node">
<title>Node12</title>
<g id="a_Node000012"><a xlink:href="classDLG4_1_1VolumeBuilders_1_1__internals___1_1FromG4VSolidCore.html" target="_top" xlink:title="A solid buider class that just wrap an existing G4VSolid.">
<polygon fill="white" stroke="#666666" points="618.62,-169.12 511.12,-169.12 511.12,-148.38 618.62,-148.38 618.62,-169.12"/>
<text text-anchor="middle" x="564.88" y="-155.62" font-family="Helvetica,sans-Serif" font-size="10.00">FromG4VSolidCore</text>
</a>
</g>
</g>
<!-- Node11&#45;&gt;Node12 -->
<g id="edge9_Node000011_Node000012" class="edge">
<title>Node11&#45;&gt;Node12</title>
<g id="a_edge9_Node000011_Node000012"><a xlink:title=" ">
<path fill="none" stroke="#63b8ff" d="M468.45,-158.75C482.68,-158.75 497.39,-158.75 510.86,-158.75"/>
<polygon fill="#63b8ff" stroke="#63b8ff" points="468.68,-155.25 458.68,-158.75 468.68,-162.25 468.68,-155.25"/>
</a>
</g>
</g>
<!-- Node14 -->
<g id="Node000014" class="node">
<title>Node14</title>
<g id="a_Node000014"><a xlink:href="classDLG4_1_1VolumeBuilders_1_1__internals___1_1RZBuilderCore.html" target="_top" xlink:title="Builder class for RZ mult&#45;plane defined solids.">
<polygon fill="white" stroke="#666666" points="608.12,-79.12 521.62,-79.12 521.62,-58.38 608.12,-58.38 608.12,-79.12"/>
<text text-anchor="middle" x="564.88" y="-65.62" font-family="Helvetica,sans-Serif" font-size="10.00">RZBuilderCore</text>
</a>
</g>
</g>
<!-- Node13&#45;&gt;Node14 -->
<g id="edge11_Node000013_Node000014" class="edge">
<title>Node13&#45;&gt;Node14</title>
<g id="a_edge11_Node000013_Node000014"><a xlink:title=" ">
<path fill="none" stroke="#63b8ff" d="M467.07,-68.75C485.48,-68.75 504.78,-68.75 521.26,-68.75"/>
<polygon fill="#63b8ff" stroke="#63b8ff" points="467.27,-65.25 457.27,-68.75 467.27,-72.25 467.27,-65.25"/>
</a>
</g>
</g>
<!-- Node16 -->
<g id="Node000016" class="node">
<title>Node16</title>
<g id="a_Node000016"><a xlink:href="classDLG4_1_1VolumeBuilders_1_1__internals___1_1VolumeBuilderCore.html" target="_top" xlink:title="A polymorphic, type&#45;erased &quot;view&quot; of any specialized builder.">
<polygon fill="white" stroke="#666666" points="619.75,-27.12 510,-27.12 510,-6.38 619.75,-6.38 619.75,-27.12"/>
<text text-anchor="middle" x="564.88" y="-13.62" font-family="Helvetica,sans-Serif" font-size="10.00">VolumeBuilderCore</text>
</a>
</g>
</g>
<!-- Node15&#45;&gt;Node16 -->
<g id="edge13_Node000015_Node000016" class="edge">
<title>Node15&#45;&gt;Node16</title>
<g id="a_edge13_Node000015_Node000016"><a xlink:title=" ">
<path fill="none" stroke="#63b8ff" d="M469.32,-16.75C482.82,-16.75 496.71,-16.75 509.54,-16.75"/>
<polygon fill="#63b8ff" stroke="#63b8ff" points="469.62,-13.25 459.62,-16.75 469.62,-20.25 469.62,-13.25"/>
</a>
</g>
</g>
<!-- Node4 -->
<g id="Node000004" class="node">
<title>Node4</title>
<g id="a_Node000004"><a xlink:href="classDLG4_1_1VolumeBuilders_1_1__internals___1_1IStructureBuilder.html" target="_top" xlink:title="a non&#45;fluent polymorphic class to access the derived solid&#45;builder from a base reference: This gets u...">
<polygon fill="white" stroke="#666666" points="118.38,-288.12 20.62,-288.12 20.62,-267.38 118.38,-267.38 118.38,-288.12"/>
<text text-anchor="middle" x="69.5" y="-274.62" font-family="Helvetica,sans-Serif" font-size="10.00">IStructureBuilder</text>
</a>
</g>
</g>
<!-- Node4&#45;&gt;Node2 -->
<g id="edge16_Node000004_Node000002" class="edge">
<title>Node4&#45;&gt;Node2</title>
<g id="a_edge16_Node000004_Node000002"><a xlink:title=" ">
<path fill="none" stroke="#63b8ff" d="M126.38,-291.24C142.1,-295 159.21,-299.07 175,-302.75 229.52,-315.47 291.73,-329.58 336.04,-339.56"/>
<polygon fill="#63b8ff" stroke="#63b8ff" points="127.24,-287.85 116.7,-288.92 125.6,-294.65 127.24,-287.85"/>
</a>
</g>
</g>
<!-- Node4&#45;&gt;Node5 -->
<g id="edge17_Node000004_Node000005" class="edge">
<title>Node4&#45;&gt;Node5</title>
<g id="a_edge17_Node000004_Node000005"><a xlink:title=" ">
<path fill="none" stroke="#63b8ff" d="M130.07,-281.97C185.33,-285.89 267.55,-291.72 325.68,-295.84"/>
<polygon fill="#63b8ff" stroke="#63b8ff" points="130.44,-278.49 120.22,-281.28 129.95,-285.47 130.44,-278.49"/>
</a>
</g>
</g>
<!-- Node4&#45;&gt;Node18 -->
<g id="edge24_Node000004_Node000018" class="edge">
<title>Node4&#45;&gt;Node18</title>
<g id="a_edge24_Node000004_Node000018"><a xlink:title=" ">
<path fill="none" stroke="#63b8ff" d="M130.13,-273.71C183.95,-270.06 263.33,-264.67 321.12,-260.75"/>
<polygon fill="#63b8ff" stroke="#63b8ff" points="129.96,-270.21 120.22,-274.38 130.44,-277.19 129.96,-270.21"/>
</a>
</g>
</g>
<!-- Node7 -->
<g id="Node000007" class="node">
<title>Node7</title>
<g id="a_Node000007"><a xlink:title=" ">
<polygon fill="#e0e0e0" stroke="#999999" points="269,-166.12 191.5,-166.12 191.5,-145.38 269,-145.38 269,-166.12"/>
<text text-anchor="middle" x="230.25" y="-152.62" font-family="Helvetica,sans-Serif" font-size="10.00">ISolidBuilder</text>
</a>
</g>
</g>
<!-- Node4&#45;&gt;Node7 -->
<g id="edge18_Node000004_Node000007" class="edge">
<title>Node4&#45;&gt;Node7</title>
<g id="a_edge18_Node000004_Node000007"><a xlink:title=" ">
<path fill="none" stroke="#63b8ff" d="M96.62,-260.67C109.95,-251.39 126.04,-239.27 139,-226.75 157.42,-208.96 154.95,-197.68 175,-181.75 182.6,-175.71 191.84,-170.62 200.53,-166.6"/>
<polygon fill="#63b8ff" stroke="#63b8ff" points="95.03,-257.52 88.74,-266.05 98.98,-263.31 95.03,-257.52"/>
</a>
</g>
</g>
<!-- Node7&#45;&gt;Node8 -->
<g id="edge19_Node000007_Node000008" class="edge">
<title>Node7&#45;&gt;Node8</title>
<g id="a_edge19_Node000007_Node000008"><a xlink:title=" ">
<path fill="none" stroke="#63b8ff" d="M274.24,-170.2C295.5,-177.35 321.33,-186.03 343.61,-193.52"/>
<polygon fill="#63b8ff" stroke="#63b8ff" points="275.61,-166.97 265.01,-167.1 273.38,-173.6 275.61,-166.97"/>
</a>
</g>
</g>
<!-- Node7&#45;&gt;Node11 -->
<g id="edge20_Node000007_Node000011" class="edge">
<title>Node7&#45;&gt;Node11</title>
<g id="a_edge20_Node000007_Node000011"><a xlink:title=" ">
<path fill="none" stroke="#63b8ff" d="M280.59,-156.65C297.62,-156.97 316.9,-157.32 334.7,-157.65"/>
<polygon fill="#63b8ff" stroke="#63b8ff" points="280.78,-153.16 270.71,-156.47 280.65,-160.16 280.78,-153.16"/>
</a>
</g>
</g>
<!-- Node7&#45;&gt;Node13 -->
<g id="edge21_Node000007_Node000013" class="edge">
<title>Node7&#45;&gt;Node13</title>
<g id="a_edge21_Node000007_Node000013"><a xlink:title=" ">
<path fill="none" stroke="#63b8ff" d="M273.04,-140.15C277.38,-137.91 281.62,-135.44 285.5,-132.75 304.61,-119.49 302,-107.43 321.5,-94.75 326.6,-91.44 332.17,-88.48 337.9,-85.87"/>
<polygon fill="#63b8ff" stroke="#63b8ff" points="271.75,-136.88 264.19,-144.3 274.73,-143.22 271.75,-136.88"/>
</a>
</g>
</g>
<!-- Node7&#45;&gt;Node15 -->
<g id="edge22_Node000007_Node000015" class="edge">
<title>Node7&#45;&gt;Node15</title>
<g id="a_edge22_Node000007_Node000015"><a xlink:title=" ">
<path fill="none" stroke="#63b8ff" d="M277.82,-139.17C280.59,-137.25 283.18,-135.11 285.5,-132.75 315.65,-101.98 290.43,-72.6 321.5,-42.75 325.11,-39.29 329.2,-36.28 333.57,-33.67"/>
<polygon fill="#63b8ff" stroke="#63b8ff" points="276.09,-136.13 269.2,-144.17 279.61,-142.18 276.09,-136.13"/>
</a>
</g>
</g>
<!-- Node7&#45;&gt;Node17 -->
<g id="edge23_Node000007_Node000017" class="edge">
<title>Node7&#45;&gt;Node17</title>
<g id="a_edge23_Node000007_Node000017"><a xlink:title=" ">
<path fill="none" stroke="#63b8ff" d="M280.13,-143.2C303.17,-137.29 330.38,-130.3 352.52,-124.62"/>
<polygon fill="#63b8ff" stroke="#63b8ff" points="279.48,-139.76 270.67,-145.63 281.22,-146.54 279.48,-139.76"/>
</a>
</g>
</g>
<!-- Node10 -->
<g id="Node000010" class="node">
<title>Node10</title>
<g id="a_Node000010"><a xlink:href="classDLG4_1_1VolumeBuilders_1_1__internals___1_1IVolumeBuilder.html" target="_top" xlink:title="Might make this public.">
<polygon fill="white" stroke="#666666" points="275.38,-124.12 185.12,-124.12 185.12,-103.38 275.38,-103.38 275.38,-124.12"/>
<text text-anchor="middle" x="230.25" y="-110.62" font-family="Helvetica,sans-Serif" font-size="10.00">IVolumeBuilder</text>
</a>
</g>
</g>
<!-- Node10&#45;&gt;Node8 -->
<g id="edge25_Node000010_Node000008" class="edge">
<title>Node10&#45;&gt;Node8</title>
<g id="a_edge25_Node000010_Node000008"><a xlink:title=" ">
<path fill="none" stroke="#63b8ff" d="M274.32,-129.44C278.27,-131.63 282.06,-134.06 285.5,-136.75 306.5,-153.19 300.01,-168.96 321.5,-184.75 326.07,-188.11 331.12,-191.07 336.36,-193.67"/>
<polygon fill="#63b8ff" stroke="#63b8ff" points="276.22,-126.48 265.7,-125.18 273.12,-132.75 276.22,-126.48"/>
</a>
</g>
</g>
<!-- Node10&#45;&gt;Node11 -->
<g id="edge26_Node000010_Node000011" class="edge">
<title>Node10&#45;&gt;Node11</title>
<g id="a_edge26_Node000010_Node000011"><a xlink:title=" ">
<path fill="none" stroke="#63b8ff" d="M281.17,-127.48C298.02,-132.11 317.02,-137.34 334.59,-142.17"/>
<polygon fill="#63b8ff" stroke="#63b8ff" points="282.47,-124.21 271.9,-124.93 280.62,-130.96 282.47,-124.21"/>
</a>
</g>
</g>
<!-- Node10&#45;&gt;Node13 -->
<g id="edge27_Node000010_Node000013" class="edge">
<title>Node10&#45;&gt;Node13</title>
<g id="a_edge27_Node000010_Node000013"><a xlink:title=" ">
<path fill="none" stroke="#63b8ff" d="M281.39,-99.96C298.59,-95.23 318.01,-89.89 335.85,-84.98"/>
<polygon fill="#63b8ff" stroke="#63b8ff" points="280.62,-96.54 271.9,-102.57 282.47,-103.29 280.62,-96.54"/>
</a>
</g>
</g>
<!-- Node10&#45;&gt;Node15 -->
<g id="edge28_Node000010_Node000015" class="edge">
<title>Node10&#45;&gt;Node15</title>
<g id="a_edge28_Node000010_Node000015"><a xlink:title=" ">
<path fill="none" stroke="#63b8ff" d="M250.54,-95.49C267.97,-79.79 294.88,-57.41 321.5,-42.75 327.3,-39.55 333.57,-36.63 339.91,-33.99"/>
<polygon fill="#63b8ff" stroke="#63b8ff" points="248.46,-92.65 243.46,-101.99 253.2,-97.81 248.46,-92.65"/>
</a>
</g>
</g>
<!-- Node10&#45;&gt;Node17 -->
<g id="edge29_Node000010_Node000017" class="edge">
<title>Node10&#45;&gt;Node17</title>
<g id="a_edge29_Node000010_Node000017"><a xlink:title=" ">
<path fill="none" stroke="#63b8ff" d="M286.95,-113.75C299.18,-113.75 312.28,-113.75 324.99,-113.75"/>
<polygon fill="#63b8ff" stroke="#63b8ff" points="287.04,-110.25 277.04,-113.75 287.04,-117.25 287.04,-110.25"/>
</a>
</g>
</g>
</g>
</svg>
