<?xml version="1.0" encoding="UTF-8" standalone="no"?>
<!DOCTYPE svg PUBLIC "-//W3C//DTD SVG 1.1//EN"
 "http://www.w3.org/Graphics/SVG/1.1/DTD/svg11.dtd">
<!-- Generated by graphviz version 12.0.0 (20240803.0821)
 -->
<!-- Title: Graphical Class Hierarchy Pages: 1 -->
<svg width="536pt" height="287pt"
 viewBox="0.00 0.00 536.25 286.75" xmlns="http://www.w3.org/2000/svg" xmlns:xlink="http://www.w3.org/1999/xlink">
<g id="graph0" class="graph" transform="scale(1 1) rotate(0) translate(4 282.75)">
<title>Graphical Class Hierarchy</title>
<!-- Node0 -->
<g id="Node000000" class="node">
<title>Node0</title>
<g id="a_Node000000"><a xlink:href="structDLG4_1_1Units_1_1UnitTag.html" target="_top" xlink:title=" ">
<polygon fill="white" stroke="#666666" points="52.75,-143.75 0,-143.75 0,-123 52.75,-123 52.75,-143.75"/>
<text text-anchor="middle" x="26.38" y="-130.25" font-family="Helvetica,sans-Serif" font-size="10.00">UnitTag</text>
</a>
</g>
</g>
<!-- Node1 -->
<g id="Node000001" class="node">
<title>Node1</title>
<g id="a_Node000001"><a xlink:href="classDLG4_1_1Units_1_1UnitBase.html" target="_top" xlink:title=" ">
<polygon fill="white" stroke="#666666" points="256.25,-278.75 93.25,-278.75 93.25,-258 256.25,-258 256.25,-278.75"/>
<text text-anchor="middle" x="174.75" y="-265.25" font-family="Helvetica,sans-Serif" font-size="10.00">UnitBase&lt; Angle, G4double &gt;</text>
</a>
</g>
</g>
<!-- Node0&#45;&gt;Node1 -->
<g id="edge36_Node000000_Node000001" class="edge">
<title>Node0&#45;&gt;Node1</title>
<g id="a_edge36_Node000000_Node000001"><a xlink:title=" ">
<path fill="none" stroke="#63b8ff" d="M32.83,-155.06C40.64,-181.51 57.64,-225.62 88.75,-249.38 92.96,-252.59 97.6,-255.27 102.49,-257.52"/>
<polygon fill="#63b8ff" stroke="#63b8ff" points="36.21,-154.15 30.19,-145.43 29.46,-156 36.21,-154.15"/>
</a>
</g>
</g>
<!-- Node3 -->
<g id="Node000003" class="node">
<title>Node3</title>
<g id="a_Node000003"><a xlink:href="classDLG4_1_1Units_1_1UnitBase.html" target="_top" xlink:title=" ">
<polygon fill="white" stroke="#666666" points="230.75,-240.12 118.75,-240.12 118.75,-206.62 230.75,-206.62 230.75,-240.12"/>
<text text-anchor="start" x="126.75" y="-226.62" font-family="Helvetica,sans-Serif" font-size="10.00">UnitBase&lt; Density,</text>
<text text-anchor="middle" x="174.75" y="-213.88" font-family="Helvetica,sans-Serif" font-size="10.00"> G4double &gt;</text>
</a>
</g>
</g>
<!-- Node0&#45;&gt;Node3 -->
<g id="edge38_Node000000_Node000003" class="edge">
<title>Node0&#45;&gt;Node3</title>
<g id="a_edge38_Node000000_Node000003"><a xlink:title=" ">
<path fill="none" stroke="#63b8ff" d="M41.73,-153.03C53.05,-167.22 70,-185.84 88.75,-197.38 97.82,-202.95 108.17,-207.42 118.46,-210.96"/>
<polygon fill="#63b8ff" stroke="#63b8ff" points="44.63,-151.06 35.77,-145.26 39.08,-155.32 44.63,-151.06"/>
</a>
</g>
</g>
<!-- Node5 -->
<g id="Node000005" class="node">
<title>Node5</title>
<g id="a_Node000005"><a xlink:href="classDLG4_1_1Units_1_1UnitBase.html" target="_top" xlink:title=" ">
<polygon fill="white" stroke="#666666" points="258.88,-188.75 90.62,-188.75 90.62,-168 258.88,-168 258.88,-188.75"/>
<text text-anchor="middle" x="174.75" y="-175.25" font-family="Helvetica,sans-Serif" font-size="10.00">UnitBase&lt; Length, G4double &gt;</text>
</a>
</g>
</g>
<!-- Node0&#45;&gt;Node5 -->
<g id="edge40_Node000000_Node000005" class="edge">
<title>Node0&#45;&gt;Node5</title>
<g id="a_edge40_Node000000_Node000005"><a xlink:title=" ">
<path fill="none" stroke="#63b8ff" d="M60.53,-148.71C69.56,-152.53 79.43,-156.39 88.75,-159.38 98.25,-162.42 108.51,-165.16 118.49,-167.55"/>
<polygon fill="#63b8ff" stroke="#63b8ff" points="61.98,-145.53 51.41,-144.74 59.18,-151.94 61.98,-145.53"/>
</a>
</g>
</g>
<!-- Node7 -->
<g id="Node000007" class="node">
<title>Node7</title>
<g id="a_Node000007"><a xlink:href="classDLG4_1_1Units_1_1UnitBase.html" target="_top" xlink:title=" ">
<polygon fill="white" stroke="#666666" points="240.12,-150.12 109.38,-150.12 109.38,-116.62 240.12,-116.62 240.12,-150.12"/>
<text text-anchor="start" x="117.38" y="-136.62" font-family="Helvetica,sans-Serif" font-size="10.00">UnitBase&lt; Length3Vec,</text>
<text text-anchor="middle" x="174.75" y="-123.88" font-family="Helvetica,sans-Serif" font-size="10.00"> G4ThreeVector &gt;</text>
</a>
</g>
</g>
<!-- Node0&#45;&gt;Node7 -->
<g id="edge42_Node000000_Node000007" class="edge">
<title>Node0&#45;&gt;Node7</title>
<g id="a_edge42_Node000000_Node000007"><a xlink:title=" ">
<path fill="none" stroke="#63b8ff" d="M64.45,-133.38C77.96,-133.38 93.66,-133.38 108.88,-133.38"/>
<polygon fill="#63b8ff" stroke="#63b8ff" points="64.72,-129.88 54.72,-133.38 64.72,-136.88 64.72,-129.88"/>
</a>
</g>
</g>
<!-- Node10 -->
<g id="Node000010" class="node">
<title>Node10</title>
<g id="a_Node000010"><a xlink:href="classDLG4_1_1Units_1_1UnitBase.html" target="_top" xlink:title=" ">
<polygon fill="white" stroke="#666666" points="255.12,-98.75 94.38,-98.75 94.38,-78 255.12,-78 255.12,-98.75"/>
<text text-anchor="middle" x="174.75" y="-85.25" font-family="Helvetica,sans-Serif" font-size="10.00">UnitBase&lt; Mass, G4double &gt;</text>
</a>
</g>
</g>
<!-- Node0&#45;&gt;Node10 -->
<g id="edge45_Node000000_Node000010" class="edge">
<title>Node0&#45;&gt;Node10</title>
<g id="a_edge45_Node000000_Node000010"><a xlink:title=" ">
<path fill="none" stroke="#63b8ff" d="M60.53,-118.04C69.56,-114.22 79.43,-110.36 88.75,-107.38 98.25,-104.33 108.51,-101.59 118.49,-99.2"/>
<polygon fill="#63b8ff" stroke="#63b8ff" points="59.18,-114.81 51.41,-122.01 61.98,-121.22 59.18,-114.81"/>
</a>
</g>
</g>
<!-- Node12 -->
<g id="Node000012" class="node">
<title>Node12</title>
<g id="a_Node000012"><a xlink:href="classDLG4_1_1Units_1_1UnitBase.html" target="_top" xlink:title=" ">
<polygon fill="white" stroke="#666666" points="260.75,-59.75 88.75,-59.75 88.75,-39 260.75,-39 260.75,-59.75"/>
<text text-anchor="middle" x="174.75" y="-46.25" font-family="Helvetica,sans-Serif" font-size="10.00">UnitBase&lt; Volume, G4double &gt;</text>
</a>
</g>
</g>
<!-- Node0&#45;&gt;Node12 -->
<g id="edge47_Node000000_Node000012" class="edge">
<title>Node0&#45;&gt;Node12</title>
<g id="a_edge47_Node000000_Node000012"><a xlink:title=" ">
<path fill="none" stroke="#63b8ff" d="M41.14,-113.84C52.34,-99.41 69.41,-80.41 88.75,-69.38 95.2,-65.69 102.3,-62.69 109.55,-60.23"/>
<polygon fill="#63b8ff" stroke="#63b8ff" points="38.42,-111.63 35.27,-121.74 44.04,-115.8 38.42,-111.63"/>
</a>
</g>
</g>
<!-- Node14 -->
<g id="Node000014" class="node">
<title>Node14</title>
<g id="a_Node000014"><a xlink:href="classDLG4_1_1Units_1_1UnitBase.html" target="_top" xlink:title="CRTP base methods for Unit classes.">
<polygon fill="white" stroke="#666666" points="249.5,-20.75 100,-20.75 100,0 249.5,0 249.5,-20.75"/>
<text text-anchor="middle" x="174.75" y="-7.25" font-family="Helvetica,sans-Serif" font-size="10.00">UnitBase&lt; T, NativeType &gt;</text>
</a>
</g>
</g>
<!-- Node0&#45;&gt;Node14 -->
<g id="edge49_Node000000_Node000014" class="edge">
<title>Node0&#45;&gt;Node14</title>
<g id="a_edge49_Node000000_Node000014"><a xlink:title=" ">
<path fill="none" stroke="#63b8ff" d="M34.33,-112.05C43.17,-88.41 60.74,-50.9 88.75,-30.38 93.76,-26.7 99.35,-23.69 105.2,-21.23"/>
<polygon fill="#63b8ff" stroke="#63b8ff" points="31.11,-110.68 31.09,-121.28 37.71,-113 31.11,-110.68"/>
</a>
</g>
</g>
<!-- Node2 -->
<g id="Node000002" class="node">
<title>Node2</title>
<g id="a_Node000002"><a xlink:href="classDLG4_1_1Units_1_1Angle.html" target="_top" xlink:title=" ">
<polygon fill="white" stroke="#666666" points="354.75,-278.75 311,-278.75 311,-258 354.75,-258 354.75,-278.75"/>
<text text-anchor="middle" x="332.88" y="-265.25" font-family="Helvetica,sans-Serif" font-size="10.00">Angle</text>
</a>
</g>
</g>
<!-- Node1&#45;&gt;Node2 -->
<g id="edge37_Node000001_Node000002" class="edge">
<title>Node1&#45;&gt;Node2</title>
<g id="a_edge37_Node000001_Node000002"><a xlink:title=" ">
<path fill="none" stroke="#63b8ff" d="M267.8,-268.38C283.89,-268.38 299.17,-268.38 310.77,-268.38"/>
<polygon fill="#63b8ff" stroke="#63b8ff" points="268.07,-264.88 258.07,-268.38 268.07,-271.88 268.07,-264.88"/>
</a>
</g>
</g>
<!-- Node4 -->
<g id="Node000004" class="node">
<title>Node4</title>
<g id="a_Node000004"><a xlink:href="classDLG4_1_1Units_1_1Density.html" target="_top" xlink:title=" ">
<polygon fill="white" stroke="#666666" points="359.62,-233.75 306.12,-233.75 306.12,-213 359.62,-213 359.62,-233.75"/>
<text text-anchor="middle" x="332.88" y="-220.25" font-family="Helvetica,sans-Serif" font-size="10.00">Density</text>
</a>
</g>
</g>
<!-- Node3&#45;&gt;Node4 -->
<g id="edge39_Node000003_Node000004" class="edge">
<title>Node3&#45;&gt;Node4</title>
<g id="a_edge39_Node000003_Node000004"><a xlink:title=" ">
<path fill="none" stroke="#63b8ff" d="M242.74,-223.38C265.04,-223.38 288.57,-223.38 305.86,-223.38"/>
<polygon fill="#63b8ff" stroke="#63b8ff" points="242.75,-219.88 232.75,-223.38 242.75,-226.88 242.75,-219.88"/>
</a>
</g>
</g>
<!-- Node6 -->
<g id="Node000006" class="node">
<title>Node6</title>
<g id="a_Node000006"><a xlink:href="classDLG4_1_1Units_1_1Length.html" target="_top" xlink:title=" ">
<polygon fill="white" stroke="#666666" points="357.38,-188.75 308.38,-188.75 308.38,-168 357.38,-168 357.38,-188.75"/>
<text text-anchor="middle" x="332.88" y="-175.25" font-family="Helvetica,sans-Serif" font-size="10.00">Length</text>
</a>
</g>
</g>
<!-- Node5&#45;&gt;Node6 -->
<g id="edge41_Node000005_Node000006" class="edge">
<title>Node5&#45;&gt;Node6</title>
<g id="a_edge41_Node000005_Node000006"><a xlink:title=" ">
<path fill="none" stroke="#63b8ff" d="M270.5,-178.38C284.31,-178.38 297.39,-178.38 307.9,-178.38"/>
<polygon fill="#63b8ff" stroke="#63b8ff" points="270.81,-174.88 260.81,-178.38 270.81,-181.88 270.81,-174.88"/>
</a>
</g>
</g>
<!-- Node8 -->
<g id="Node000008" class="node">
<title>Node8</title>
<g id="a_Node000008"><a xlink:href="classDLG4_1_1Units_1_1Length3Vec.html" target="_top" xlink:title="A 3 vector that is scalable with/to Units.">
<polygon fill="white" stroke="#666666" points="369,-143.75 296.75,-143.75 296.75,-123 369,-123 369,-143.75"/>
<text text-anchor="middle" x="332.88" y="-130.25" font-family="Helvetica,sans-Serif" font-size="10.00">Length3Vec</text>
</a>
</g>
</g>
<!-- Node7&#45;&gt;Node8 -->
<g id="edge43_Node000007_Node000008" class="edge">
<title>Node7&#45;&gt;Node8</title>
<g id="a_edge43_Node000007_Node000008"><a xlink:title=" ">
<path fill="none" stroke="#63b8ff" d="M251.89,-133.38C267.45,-133.38 283.12,-133.38 296.41,-133.38"/>
<polygon fill="#63b8ff" stroke="#63b8ff" points="252.12,-129.88 242.12,-133.38 252.12,-136.88 252.12,-129.88"/>
</a>
</g>
</g>
<!-- Node9 -->
<g id="Node000009" class="node">
<title>Node9</title>
<g id="a_Node000009"><a xlink:href="classDLG4_1_1VolumeBuilders_1_1ThreeVecDimensioner.html" target="_top" xlink:title="A 3D vector that manages unit policy for parameter passing If constructed with a unit,...">
<polygon fill="white" stroke="#666666" points="528.25,-143.75 405,-143.75 405,-123 528.25,-123 528.25,-143.75"/>
<text text-anchor="middle" x="466.62" y="-130.25" font-family="Helvetica,sans-Serif" font-size="10.00">ThreeVecDimensioner</text>
</a>
</g>
</g>
<!-- Node8&#45;&gt;Node9 -->
<g id="edge44_Node000008_Node000009" class="edge">
<title>Node8&#45;&gt;Node9</title>
<g id="a_edge44_Node000008_Node000009"><a xlink:title=" ">
<path fill="none" stroke="#63b8ff" d="M380.59,-133.38C388.34,-133.38 396.49,-133.38 404.53,-133.38"/>
<polygon fill="#63b8ff" stroke="#63b8ff" points="380.7,-129.88 370.7,-133.38 380.7,-136.88 380.7,-129.88"/>
</a>
</g>
</g>
<!-- Node11 -->
<g id="Node000011" class="node">
<title>Node11</title>
<g id="a_Node000011"><a xlink:href="classDLG4_1_1Units_1_1Mass.html" target="_top" xlink:title=" ">
<polygon fill="white" stroke="#666666" points="353.62,-98.75 312.12,-98.75 312.12,-78 353.62,-78 353.62,-98.75"/>
<text text-anchor="middle" x="332.88" y="-85.25" font-family="Helvetica,sans-Serif" font-size="10.00">Mass</text>
</a>
</g>
</g>
<!-- Node10&#45;&gt;Node11 -->
<g id="edge46_Node000010_Node000011" class="edge">
<title>Node10&#45;&gt;Node11</title>
<g id="a_edge46_Node000010_Node000011"><a xlink:title=" ">
<path fill="none" stroke="#63b8ff" d="M266.51,-88.38C283.61,-88.38 299.87,-88.38 311.9,-88.38"/>
<polygon fill="#63b8ff" stroke="#63b8ff" points="266.7,-84.88 256.7,-88.38 266.7,-91.88 266.7,-84.88"/>
</a>
</g>
</g>
<!-- Node13 -->
<g id="Node000013" class="node">
<title>Node13</title>
<g id="a_Node000013"><a xlink:href="classDLG4_1_1Units_1_1Volume.html" target="_top" xlink:title=" ">
<polygon fill="white" stroke="#666666" points="359.25,-59.75 306.5,-59.75 306.5,-39 359.25,-39 359.25,-59.75"/>
<text text-anchor="middle" x="332.88" y="-46.25" font-family="Helvetica,sans-Serif" font-size="10.00">Volume</text>
</a>
</g>
</g>
<!-- Node12&#45;&gt;Node13 -->
<g id="edge48_Node000012_Node000013" class="edge">
<title>Node12&#45;&gt;Node13</title>
<g id="a_edge48_Node000012_Node000013"><a xlink:title=" ">
<path fill="none" stroke="#63b8ff" d="M272.53,-49.38C284.78,-49.38 296.39,-49.38 306.03,-49.38"/>
<polygon fill="#63b8ff" stroke="#63b8ff" points="272.63,-45.88 262.63,-49.38 272.63,-52.88 272.63,-45.88"/>
</a>
</g>
</g>
</g>
</svg>
