<?xml version="1.0" encoding="UTF-8" standalone="no"?>
<!DOCTYPE svg PUBLIC "-//W3C//DTD SVG 1.1//EN"
 "http://www.w3.org/Graphics/SVG/1.1/DTD/svg11.dtd">
<!-- Generated by graphviz version 12.0.0 (20240803.0821)
 -->
<!-- Title: include/ISolidBuilder.hh Pages: 1 -->
<svg width="888pt" height="269pt"
 viewBox="0.00 0.00 888.11 268.50" xmlns="http://www.w3.org/2000/svg" xmlns:xlink="http://www.w3.org/1999/xlink">
<g id="graph0" class="graph" transform="scale(1 1) rotate(0) translate(4 264.5)">
<title>include/ISolidBuilder.hh</title>
<!-- Node1 -->
<g id="Node000001" class="node">
<title>Node1</title>
<g id="a_Node000001"><a xlink:title=" ">
<polygon fill="#999999" stroke="#666666" points="322.26,-260.5 192.26,-260.5 192.26,-239.75 322.26,-239.75 322.26,-260.5"/>
<text text-anchor="middle" x="257.26" y="-247" font-family="Helvetica,sans-Serif" font-size="10.00">include/ISolidBuilder.hh</text>
</a>
</g>
</g>
<!-- Node2 -->
<g id="Node000002" class="node">
<title>Node2</title>
<g id="a_Node000002"><a xlink:title=" ">
<polygon fill="#e0e0e0" stroke="#999999" points="730.14,-20.75 614.39,-20.75 614.39,0 730.14,0 730.14,-20.75"/>
<text text-anchor="middle" x="672.26" y="-7.25" font-family="Helvetica,sans-Serif" font-size="10.00">G4LogicalVolume.hh</text>
</a>
</g>
</g>
<!-- Node1&#45;&gt;Node2 -->
<g id="edge1_Node000001_Node000002" class="edge">
<title>Node1&#45;&gt;Node2</title>
<g id="a_edge1_Node000001_Node000002"><a xlink:title=" ">
<path fill="none" stroke="#63b8ff" d="M217.33,-239.28C147.52,-220.21 15.17,-174.66 64.26,-113.5 130.55,-30.91 457.66,-14.98 602.75,-12.01"/>
<polygon fill="#63b8ff" stroke="#63b8ff" points="602.68,-15.51 612.62,-11.82 602.55,-8.51 602.68,-15.51"/>
</a>
</g>
</g>
<!-- Node3 -->
<g id="Node000003" class="node">
<title>Node3</title>
<g id="a_Node000003"><a xlink:title=" ">
<polygon fill="#e0e0e0" stroke="#999999" points="337.64,-20.75 230.89,-20.75 230.89,0 337.64,0 337.64,-20.75"/>
<text text-anchor="middle" x="284.26" y="-7.25" font-family="Helvetica,sans-Serif" font-size="10.00">G4Transform3D.hh</text>
</a>
</g>
</g>
<!-- Node1&#45;&gt;Node3 -->
<g id="edge2_Node000001_Node000003" class="edge">
<title>Node1&#45;&gt;Node3</title>
<g id="a_edge2_Node000001_Node000003"><a xlink:title=" ">
<path fill="none" stroke="#63b8ff" d="M191.79,-244.99C132.43,-239.72 51.27,-228.17 31.26,-203.75 -10.14,-153.21 -10.66,-106.86 31.26,-56.75 54.78,-28.64 152.26,-17.92 219.12,-13.85"/>
<polygon fill="#63b8ff" stroke="#63b8ff" points="219.1,-17.36 228.89,-13.29 218.71,-10.37 219.1,-17.36"/>
</a>
</g>
</g>
<!-- Node4 -->
<g id="Node000004" class="node">
<title>Node4</title>
<g id="a_Node000004"><a xlink:title=" ">
<polygon fill="#e0e0e0" stroke="#999999" points="869.89,-20.75 794.64,-20.75 794.64,0 869.89,0 869.89,-20.75"/>
<text text-anchor="middle" x="832.26" y="-7.25" font-family="Helvetica,sans-Serif" font-size="10.00">G4VSolid.hh</text>
</a>
</g>
</g>
<!-- Node1&#45;&gt;Node4 -->
<g id="edge3_Node000001_Node000004" class="edge">
<title>Node1&#45;&gt;Node4</title>
<g id="a_edge3_Node000001_Node000004"><a xlink:title=" ">
<path fill="none" stroke="#63b8ff" d="M322.69,-248.93C466.82,-246.89 804.11,-232.87 869.26,-147 896.07,-111.67 866.19,-58.18 846.58,-30.1"/>
<polygon fill="#63b8ff" stroke="#63b8ff" points="849.55,-28.23 840.84,-22.2 843.89,-32.35 849.55,-28.23"/>
</a>
</g>
</g>
<!-- Node5 -->
<g id="Node000005" class="node">
<title>Node5</title>
<g id="a_Node000005"><a xlink:href="Linkable_8hh.html" target="_top" xlink:title=" ">
<polygon fill="white" stroke="#666666" points="293.01,-203.75 221.51,-203.75 221.51,-183 293.01,-183 293.01,-203.75"/>
<text text-anchor="middle" x="257.26" y="-190.25" font-family="Helvetica,sans-Serif" font-size="10.00">Linkable.hh</text>
</a>
</g>
</g>
<!-- Node1&#45;&gt;Node5 -->
<g id="edge4_Node000001_Node000005" class="edge">
<title>Node1&#45;&gt;Node5</title>
<g id="a_edge4_Node000001_Node000005"><a xlink:title=" ">
<path fill="none" stroke="#63b8ff" d="M257.26,-239.34C257.26,-232.72 257.26,-223.72 257.26,-215.52"/>
<polygon fill="#63b8ff" stroke="#63b8ff" points="260.76,-215.59 257.26,-205.59 253.76,-215.59 260.76,-215.59"/>
</a>
</g>
</g>
<!-- Node11 -->
<g id="Node000011" class="node">
<title>Node11</title>
<g id="a_Node000011"><a xlink:href="VolumeBuildersTypes_8hh.html" target="_top" xlink:title=" ">
<polygon fill="white" stroke="#666666" points="656.89,-203.75 521.64,-203.75 521.64,-183 656.89,-183 656.89,-203.75"/>
<text text-anchor="middle" x="589.26" y="-190.25" font-family="Helvetica,sans-Serif" font-size="10.00">VolumeBuildersTypes.hh</text>
</a>
</g>
</g>
<!-- Node1&#45;&gt;Node11 -->
<g id="edge10_Node000001_Node000011" class="edge">
<title>Node1&#45;&gt;Node11</title>
<g id="a_edge10_Node000001_Node000011"><a xlink:title=" ">
<path fill="none" stroke="#63b8ff" d="M317,-239.27C373.48,-229.96 458.26,-215.98 518.18,-206.1"/>
<polygon fill="#63b8ff" stroke="#63b8ff" points="518.65,-209.57 527.95,-204.49 517.52,-202.66 518.65,-209.57"/>
</a>
</g>
</g>
<!-- Node6 -->
<g id="Node000006" class="node">
<title>Node6</title>
<g id="a_Node000006"><a xlink:title=" ">
<polygon fill="#e0e0e0" stroke="#999999" points="590.89,-77.5 533.64,-77.5 533.64,-56.75 590.89,-56.75 590.89,-77.5"/>
<text text-anchor="middle" x="562.26" y="-64" font-family="Helvetica,sans-Serif" font-size="10.00">memory</text>
</a>
</g>
</g>
<!-- Node5&#45;&gt;Node6 -->
<g id="edge5_Node000005_Node000006" class="edge">
<title>Node5&#45;&gt;Node6</title>
<g id="a_edge5_Node000005_Node000006"><a xlink:title=" ">
<path fill="none" stroke="#63b8ff" d="M293.37,-192.34C341.53,-190.81 428.05,-182.75 491.26,-147 504.76,-139.37 531.21,-107.67 547.74,-86.85"/>
<polygon fill="#63b8ff" stroke="#63b8ff" points="550.39,-89.14 553.82,-79.11 544.89,-84.81 550.39,-89.14"/>
</a>
</g>
</g>
<!-- Node7 -->
<g id="Node000007" class="node">
<title>Node7</title>
<g id="a_Node000007"><a xlink:title=" ">
<polygon fill="#e0e0e0" stroke="#999999" points="207.01,-140.62 159.51,-140.62 159.51,-119.88 207.01,-119.88 207.01,-140.62"/>
<text text-anchor="middle" x="183.26" y="-127.12" font-family="Helvetica,sans-Serif" font-size="10.00">mutex</text>
</a>
</g>
</g>
<!-- Node5&#45;&gt;Node7 -->
<g id="edge6_Node000005_Node000007" class="edge">
<title>Node5&#45;&gt;Node7</title>
<g id="a_edge6_Node000005_Node000007"><a xlink:title=" ">
<path fill="none" stroke="#63b8ff" d="M245.37,-182.55C234.09,-173.23 216.9,-159.03 203.46,-147.94"/>
<polygon fill="#63b8ff" stroke="#63b8ff" points="205.98,-145.48 196.05,-141.81 201.53,-150.88 205.98,-145.48"/>
</a>
</g>
</g>
<!-- Node8 -->
<g id="Node000008" class="node">
<title>Node8</title>
<g id="a_Node000008"><a xlink:title=" ">
<polygon fill="#e0e0e0" stroke="#999999" points="289.26,-140.62 225.26,-140.62 225.26,-119.88 289.26,-119.88 289.26,-140.62"/>
<text text-anchor="middle" x="257.26" y="-127.12" font-family="Helvetica,sans-Serif" font-size="10.00">stdexcept</text>
</a>
</g>
</g>
<!-- Node5&#45;&gt;Node8 -->
<g id="edge7_Node000005_Node000008" class="edge">
<title>Node5&#45;&gt;Node8</title>
<g id="a_edge7_Node000005_Node000008"><a xlink:title=" ">
<path fill="none" stroke="#63b8ff" d="M257.26,-182.55C257.26,-174.4 257.26,-162.51 257.26,-152.23"/>
<polygon fill="#63b8ff" stroke="#63b8ff" points="260.76,-152.36 257.26,-142.36 253.76,-152.36 260.76,-152.36"/>
</a>
</g>
</g>
<!-- Node9 -->
<g id="Node000009" class="node">
<title>Node9</title>
<g id="a_Node000009"><a xlink:title=" ">
<polygon fill="#e0e0e0" stroke="#999999" points="141.51,-140.62 73.01,-140.62 73.01,-119.88 141.51,-119.88 141.51,-140.62"/>
<text text-anchor="middle" x="107.26" y="-127.12" font-family="Helvetica,sans-Serif" font-size="10.00">type_traits</text>
</a>
</g>
</g>
<!-- Node5&#45;&gt;Node9 -->
<g id="edge8_Node000005_Node000009" class="edge">
<title>Node5&#45;&gt;Node9</title>
<g id="a_edge8_Node000005_Node000009"><a xlink:title=" ">
<path fill="none" stroke="#63b8ff" d="M233.16,-182.55C208.45,-172.48 169.78,-156.73 141.82,-145.33"/>
<polygon fill="#63b8ff" stroke="#63b8ff" points="143.29,-142.15 132.7,-141.62 140.64,-148.63 143.29,-142.15"/>
</a>
</g>
</g>
<!-- Node10 -->
<g id="Node000010" class="node">
<title>Node10</title>
<g id="a_Node000010"><a xlink:title=" ">
<polygon fill="#e0e0e0" stroke="#999999" points="353.64,-140.62 306.89,-140.62 306.89,-119.88 353.64,-119.88 353.64,-140.62"/>
<text text-anchor="middle" x="330.26" y="-127.12" font-family="Helvetica,sans-Serif" font-size="10.00">vector</text>
</a>
</g>
</g>
<!-- Node5&#45;&gt;Node10 -->
<g id="edge9_Node000005_Node000010" class="edge">
<title>Node5&#45;&gt;Node10</title>
<g id="a_edge9_Node000005_Node000010"><a xlink:title=" ">
<path fill="none" stroke="#63b8ff" d="M268.99,-182.55C280.13,-173.23 297.08,-159.03 310.34,-147.94"/>
<polygon fill="#63b8ff" stroke="#63b8ff" points="312.22,-150.92 317.64,-141.82 307.73,-145.55 312.22,-150.92"/>
</a>
</g>
</g>
<!-- Node11&#45;&gt;Node6 -->
<g id="edge12_Node000011_Node000006" class="edge">
<title>Node11&#45;&gt;Node6</title>
<g id="a_edge12_Node000011_Node000006"><a xlink:title=" ">
<path fill="none" stroke="#63b8ff" d="M657.04,-185.86C682.02,-179.79 707.95,-168.36 723.26,-147 731.94,-134.9 732.25,-125.37 723.26,-113.5 708.69,-94.25 645.14,-80.87 602.38,-73.85"/>
<polygon fill="#63b8ff" stroke="#63b8ff" points="603.11,-70.42 592.69,-72.32 602.02,-77.34 603.11,-70.42"/>
</a>
</g>
</g>
<!-- Node11&#45;&gt;Node10 -->
<g id="edge14_Node000011_Node000010" class="edge">
<title>Node11&#45;&gt;Node10</title>
<g id="a_edge14_Node000011_Node000010"><a xlink:title=" ">
<path fill="none" stroke="#63b8ff" d="M521.38,-183.24C475.9,-176.03 415.09,-164.27 363.26,-147 361.91,-146.55 360.54,-146.05 359.16,-145.53"/>
<polygon fill="#63b8ff" stroke="#63b8ff" points="360.74,-142.4 350.17,-141.67 357.98,-148.83 360.74,-142.4"/>
</a>
</g>
</g>
<!-- Node12 -->
<g id="Node000012" class="node">
<title>Node12</title>
<g id="a_Node000012"><a xlink:title=" ">
<polygon fill="#e0e0e0" stroke="#999999" points="640.39,-140.62 538.14,-140.62 538.14,-119.88 640.39,-119.88 640.39,-140.62"/>
<text text-anchor="middle" x="589.26" y="-127.12" font-family="Helvetica,sans-Serif" font-size="10.00">G4ThreeVector.hh</text>
</a>
</g>
</g>
<!-- Node11&#45;&gt;Node12 -->
<g id="edge11_Node000011_Node000012" class="edge">
<title>Node11&#45;&gt;Node12</title>
<g id="a_edge11_Node000011_Node000012"><a xlink:title=" ">
<path fill="none" stroke="#63b8ff" d="M589.26,-182.55C589.26,-174.4 589.26,-162.51 589.26,-152.23"/>
<polygon fill="#63b8ff" stroke="#63b8ff" points="592.76,-152.36 589.26,-142.36 585.76,-152.36 592.76,-152.36"/>
</a>
</g>
</g>
<!-- Node13 -->
<g id="Node000013" class="node">
<title>Node13</title>
<g id="a_Node000013"><a xlink:title=" ">
<polygon fill="#e0e0e0" stroke="#999999" points="714.14,-140.62 658.39,-140.62 658.39,-119.88 714.14,-119.88 714.14,-140.62"/>
<text text-anchor="middle" x="686.26" y="-127.12" font-family="Helvetica,sans-Serif" font-size="10.00">optional</text>
</a>
</g>
</g>
<!-- Node11&#45;&gt;Node13 -->
<g id="edge13_Node000011_Node000013" class="edge">
<title>Node11&#45;&gt;Node13</title>
<g id="a_edge13_Node000011_Node000013"><a xlink:title=" ">
<path fill="none" stroke="#63b8ff" d="M604.85,-182.55C619.98,-173.02 643.2,-158.38 660.98,-147.18"/>
<polygon fill="#63b8ff" stroke="#63b8ff" points="662.84,-150.15 669.44,-141.85 659.11,-144.22 662.84,-150.15"/>
</a>
</g>
</g>
<!-- Node14 -->
<g id="Node000014" class="node">
<title>Node14</title>
<g id="a_Node000014"><a xlink:href="disableable__shared__from__this_8hh.html" target="_top" xlink:title="Created by.">
<polygon fill="white" stroke="#666666" points="482.51,-147 372.01,-147 372.01,-113.5 482.51,-113.5 482.51,-147"/>
<text text-anchor="start" x="380.01" y="-133.5" font-family="Helvetica,sans-Serif" font-size="10.00">disableable_shared</text>
<text text-anchor="middle" x="427.26" y="-120.75" font-family="Helvetica,sans-Serif" font-size="10.00">_from_this.hh</text>
</a>
</g>
</g>
<!-- Node11&#45;&gt;Node14 -->
<g id="edge15_Node000011_Node000014" class="edge">
<title>Node11&#45;&gt;Node14</title>
<g id="a_edge15_Node000011_Node000014"><a xlink:title=" ">
<path fill="none" stroke="#63b8ff" d="M563.23,-182.55C541.13,-174.21 508.67,-161.97 481.02,-151.53"/>
<polygon fill="#63b8ff" stroke="#63b8ff" points="482.3,-148.27 471.71,-148.02 479.83,-154.82 482.3,-148.27"/>
</a>
</g>
</g>
<!-- Node17 -->
<g id="Node000017" class="node">
<title>Node17</title>
<g id="a_Node000017"><a xlink:href="i__shared__ptr_8hh.html" target="_top" xlink:title=" ">
<polygon fill="white" stroke="#666666" points="860.39,-140.62 770.14,-140.62 770.14,-119.88 860.39,-119.88 860.39,-140.62"/>
<text text-anchor="middle" x="815.26" y="-127.12" font-family="Helvetica,sans-Serif" font-size="10.00">i_shared_ptr.hh</text>
</a>
</g>
</g>
<!-- Node11&#45;&gt;Node17 -->
<g id="edge19_Node000011_Node000017" class="edge">
<title>Node11&#45;&gt;Node17</title>
<g id="a_edge19_Node000011_Node000017"><a xlink:title=" ">
<path fill="none" stroke="#63b8ff" d="M625.57,-182.55C664.29,-172.08 725.74,-155.46 768.16,-143.99"/>
<polygon fill="#63b8ff" stroke="#63b8ff" points="768.84,-147.43 777.58,-141.44 767.01,-140.67 768.84,-147.43"/>
</a>
</g>
</g>
<!-- Node14&#45;&gt;Node6 -->
<g id="edge18_Node000014_Node000006" class="edge">
<title>Node14&#45;&gt;Node6</title>
<g id="a_edge18_Node000014_Node000006"><a xlink:title=" ">
<path fill="none" stroke="#63b8ff" d="M463.09,-113.03C484.01,-103.56 510.18,-91.7 530.39,-82.56"/>
<polygon fill="#63b8ff" stroke="#63b8ff" points="531.6,-85.85 539.26,-78.54 528.71,-79.48 531.6,-85.85"/>
</a>
</g>
</g>
<!-- Node15 -->
<g id="Node000015" class="node">
<title>Node15</title>
<g id="a_Node000015"><a xlink:title=" ">
<polygon fill="#e0e0e0" stroke="#999999" points="457.14,-77.5 407.39,-77.5 407.39,-56.75 457.14,-56.75 457.14,-77.5"/>
<text text-anchor="middle" x="432.26" y="-64" font-family="Helvetica,sans-Serif" font-size="10.00">atomic</text>
</a>
</g>
</g>
<!-- Node14&#45;&gt;Node15 -->
<g id="edge16_Node000014_Node000015" class="edge">
<title>Node14&#45;&gt;Node15</title>
<g id="a_edge16_Node000014_Node000015"><a xlink:title=" ">
<path fill="none" stroke="#63b8ff" d="M428.58,-113.19C429.18,-105.85 429.9,-97.07 430.54,-89.21"/>
<polygon fill="#63b8ff" stroke="#63b8ff" points="434.01,-89.73 431.33,-79.48 427.03,-89.16 434.01,-89.73"/>
</a>
</g>
</g>
<!-- Node16 -->
<g id="Node000016" class="node">
<title>Node16</title>
<g id="a_Node000016"><a xlink:title=" ">
<polygon fill="#e0e0e0" stroke="#999999" points="389.01,-77.5 329.51,-77.5 329.51,-56.75 389.01,-56.75 389.01,-77.5"/>
<text text-anchor="middle" x="359.26" y="-64" font-family="Helvetica,sans-Serif" font-size="10.00">iostream</text>
</a>
</g>
</g>
<!-- Node14&#45;&gt;Node16 -->
<g id="edge17_Node000014_Node000016" class="edge">
<title>Node14&#45;&gt;Node16</title>
<g id="a_edge17_Node000014_Node000016"><a xlink:title=" ">
<path fill="none" stroke="#63b8ff" d="M409.4,-113.19C399.97,-104.72 388.4,-94.31 378.74,-85.64"/>
<polygon fill="#63b8ff" stroke="#63b8ff" points="381.11,-83.06 371.34,-78.98 376.43,-88.27 381.11,-83.06"/>
</a>
</g>
</g>
<!-- Node17&#45;&gt;Node2 -->
<g id="edge20_Node000017_Node000002" class="edge">
<title>Node17&#45;&gt;Node2</title>
<g id="a_edge20_Node000017_Node000002"><a xlink:title=" ">
<path fill="none" stroke="#63b8ff" d="M769.68,-120.52C743.34,-113.24 711.51,-100.23 691.26,-77.5 680.2,-65.08 675.55,-46.61 673.61,-32.35"/>
<polygon fill="#63b8ff" stroke="#63b8ff" points="677.12,-32.27 672.66,-22.66 670.16,-32.95 677.12,-32.27"/>
</a>
</g>
</g>
<!-- Node17&#45;&gt;Node4 -->
<g id="edge21_Node000017_Node000004" class="edge">
<title>Node17&#45;&gt;Node4</title>
<g id="a_edge21_Node000017_Node000004"><a xlink:title=" ">
<path fill="none" stroke="#63b8ff" d="M816.65,-119.6C819.39,-100.61 825.54,-57.97 829.25,-32.25"/>
<polygon fill="#63b8ff" stroke="#63b8ff" points="832.67,-33.05 830.64,-22.65 825.74,-32.05 832.67,-33.05"/>
</a>
</g>
</g>
<!-- Node17&#45;&gt;Node6 -->
<g id="edge22_Node000017_Node000006" class="edge">
<title>Node17&#45;&gt;Node6</title>
<g id="a_edge22_Node000017_Node000006"><a xlink:title=" ">
<path fill="none" stroke="#63b8ff" d="M779.11,-119.41C771.57,-117.41 763.67,-115.35 756.26,-113.5 703.24,-100.23 641.75,-86.05 602.46,-77.14"/>
<polygon fill="#63b8ff" stroke="#63b8ff" points="603.26,-73.73 592.73,-74.94 601.71,-80.56 603.26,-73.73"/>
</a>
</g>
</g>
<!-- Node18 -->
<g id="Node000018" class="node">
<title>Node18</title>
<g id="a_Node000018"><a xlink:href="IVolumeBuilder_8hh.html" target="_top" xlink:title="Created by.">
<polygon fill="white" stroke="#666666" points="804.51,-77.5 700.01,-77.5 700.01,-56.75 804.51,-56.75 804.51,-77.5"/>
<text text-anchor="middle" x="752.26" y="-64" font-family="Helvetica,sans-Serif" font-size="10.00">IVolumeBuilder.hh</text>
</a>
</g>
</g>
<!-- Node17&#45;&gt;Node18 -->
<g id="edge23_Node000017_Node000018" class="edge">
<title>Node17&#45;&gt;Node18</title>
<g id="a_edge23_Node000017_Node000018"><a xlink:title=" ">
<path fill="none" stroke="#63b8ff" d="M805.14,-119.43C795.72,-110.29 781.46,-96.45 770.12,-85.45"/>
<polygon fill="#63b8ff" stroke="#63b8ff" points="772.85,-83.23 763.24,-78.77 767.98,-88.25 772.85,-83.23"/>
</a>
</g>
</g>
<!-- Node18&#45;&gt;Node2 -->
<g id="edge24_Node000018_Node000002" class="edge">
<title>Node18&#45;&gt;Node2</title>
<g id="a_edge24_Node000018_Node000002"><a xlink:title=" ">
<path fill="none" stroke="#63b8ff" d="M737.96,-56.34C726.24,-48.32 709.42,-36.81 695.74,-27.44"/>
<polygon fill="#63b8ff" stroke="#63b8ff" points="697.92,-24.69 687.69,-21.93 693.97,-30.47 697.92,-24.69"/>
</a>
</g>
</g>
<!-- Node18&#45;&gt;Node3 -->
<g id="edge25_Node000018_Node000003" class="edge">
<title>Node18&#45;&gt;Node3</title>
<g id="a_edge25_Node000018_Node000003"><a xlink:title=" ">
<path fill="none" stroke="#63b8ff" d="M699.94,-60C613.96,-49.95 443.01,-29.95 349.35,-18.99"/>
<polygon fill="#63b8ff" stroke="#63b8ff" points="349.89,-15.53 339.55,-17.84 349.07,-22.48 349.89,-15.53"/>
</a>
</g>
</g>
<!-- Node18&#45;&gt;Node4 -->
<g id="edge26_Node000018_Node000004" class="edge">
<title>Node18&#45;&gt;Node4</title>
<g id="a_edge26_Node000018_Node000004"><a xlink:title=" ">
<path fill="none" stroke="#63b8ff" d="M766.57,-56.34C778.28,-48.32 795.1,-36.81 808.79,-27.44"/>
<polygon fill="#63b8ff" stroke="#63b8ff" points="810.56,-30.47 816.84,-21.93 806.61,-24.69 810.56,-30.47"/>
</a>
</g>
</g>
</g>
</svg>
