<?xml version="1.0" encoding="UTF-8" standalone="no"?>
<!DOCTYPE svg PUBLIC "-//W3C//DTD SVG 1.1//EN"
 "http://www.w3.org/Graphics/SVG/1.1/DTD/svg11.dtd">
<!-- Generated by graphviz version 12.0.0 (20240803.0821)
 -->
<!-- Title: include/ISolidBuilder.hh Pages: 1 -->
<svg width="1806pt" height="420pt"
 viewBox="0.00 0.00 1805.55 420.25" xmlns="http://www.w3.org/2000/svg" xmlns:xlink="http://www.w3.org/1999/xlink">
<g id="graph0" class="graph" transform="scale(1 1) rotate(0) translate(4 416.25)">
<title>include/ISolidBuilder.hh</title>
<!-- Node1 -->
<g id="Node000001" class="node">
<title>Node1</title>
<g id="a_Node000001"><a xlink:title=" ">
<polygon fill="#999999" stroke="#666666" points="1597.25,-412.25 1467.25,-412.25 1467.25,-391.5 1597.25,-391.5 1597.25,-412.25"/>
<text text-anchor="middle" x="1532.25" y="-398.75" font-family="Helvetica,sans-Serif" font-size="10.00">include/ISolidBuilder.hh</text>
</a>
</g>
</g>
<!-- Node2 -->
<g id="Node000002" class="node">
<title>Node2</title>
<g id="a_Node000002"><a xlink:href="StructureBuilderBase_8hh.html" target="_top" xlink:title=" ">
<polygon fill="white" stroke="#666666" points="1204.75,-355.5 1071.75,-355.5 1071.75,-322 1204.75,-322 1204.75,-355.5"/>
<text text-anchor="start" x="1079.75" y="-342" font-family="Helvetica,sans-Serif" font-size="10.00">include/StructureBuilder</text>
<text text-anchor="middle" x="1138.25" y="-329.25" font-family="Helvetica,sans-Serif" font-size="10.00">Base.hh</text>
</a>
</g>
</g>
<!-- Node1&#45;&gt;Node2 -->
<g id="edge1_Node000001_Node000002" class="edge">
<title>Node1&#45;&gt;Node2</title>
<g id="a_edge1_Node000001_Node000002"><a xlink:title=" ">
<path fill="none" stroke="#63b8ff" d="M1457.59,-389.29C1384.76,-377.99 1275.02,-360.97 1205.02,-350.11"/>
<polygon fill="#63b8ff" stroke="#63b8ff" points="1457.03,-392.75 1467.45,-390.82 1458.11,-385.83 1457.03,-392.75"/>
</a>
</g>
</g>
<!-- Node4 -->
<g id="Node000004" class="node">
<title>Node4</title>
<g id="a_Node000004"><a xlink:href="VolumeBuilderBase_8hh.html" target="_top" xlink:title=" ">
<polygon fill="white" stroke="#666666" points="1520.5,-222.88 1356,-222.88 1356,-202.12 1520.5,-202.12 1520.5,-222.88"/>
<text text-anchor="middle" x="1438.25" y="-209.38" font-family="Helvetica,sans-Serif" font-size="10.00">include/VolumeBuilderBase.hh</text>
</a>
</g>
</g>
<!-- Node1&#45;&gt;Node4 -->
<g id="edge60_Node000001_Node000004" class="edge">
<title>Node1&#45;&gt;Node4</title>
<g id="a_edge60_Node000001_Node000004"><a xlink:title=" ">
<path fill="none" stroke="#63b8ff" d="M1522.27,-380.98C1502.26,-341.09 1457.87,-252.62 1443.12,-223.21"/>
<polygon fill="#63b8ff" stroke="#63b8ff" points="1519.04,-382.34 1526.65,-389.71 1525.29,-379.2 1519.04,-382.34"/>
</a>
</g>
</g>
<!-- Node6 -->
<g id="Node000006" class="node">
<title>Node6</title>
<g id="a_Node000006"><a xlink:href="VolumeBuilders_8hh.html" target="_top" xlink:title=" ">
<polygon fill="white" stroke="#666666" points="437.12,-90.25 291.38,-90.25 291.38,-69.5 437.12,-69.5 437.12,-90.25"/>
<text text-anchor="middle" x="364.25" y="-76.75" font-family="Helvetica,sans-Serif" font-size="10.00">include/VolumeBuilders.hh</text>
</a>
</g>
</g>
<!-- Node1&#45;&gt;Node6 -->
<g id="edge62_Node000001_Node000006" class="edge">
<title>Node1&#45;&gt;Node6</title>
<g id="a_edge62_Node000001_Node000006"><a xlink:title=" ">
<path fill="none" stroke="#63b8ff" d="M1455.33,-397.8C1170.65,-385.91 193.25,-340.45 193.25,-276.62 193.25,-276.62 193.25,-276.62 193.25,-211.5 193.25,-144.07 278.26,-106.79 328.4,-90.66"/>
<polygon fill="#63b8ff" stroke="#63b8ff" points="1455.11,-401.29 1465.25,-398.21 1455.4,-394.3 1455.11,-401.29"/>
</a>
</g>
</g>
<!-- Node19 -->
<g id="Node000019" class="node">
<title>Node19</title>
<g id="a_Node000019"><a xlink:href="VolumeBuilderCore_8hh.html" target="_top" xlink:title=" ">
<polygon fill="white" stroke="#666666" points="1529.75,-153.38 1366.75,-153.38 1366.75,-132.62 1529.75,-132.62 1529.75,-153.38"/>
<text text-anchor="middle" x="1448.25" y="-139.88" font-family="Helvetica,sans-Serif" font-size="10.00">include/VolumeBuilderCore.hh</text>
</a>
</g>
</g>
<!-- Node1&#45;&gt;Node19 -->
<g id="edge61_Node000001_Node000019" class="edge">
<title>Node1&#45;&gt;Node19</title>
<g id="a_edge61_Node000001_Node000019"><a xlink:title=" ">
<path fill="none" stroke="#63b8ff" d="M1537.99,-380.15C1547.55,-341.18 1562.57,-255.54 1529.25,-195.75 1517.96,-175.49 1495.05,-161.97 1476.47,-153.85"/>
<polygon fill="#63b8ff" stroke="#63b8ff" points="1534.66,-379.04 1535.53,-389.6 1541.44,-380.81 1534.66,-379.04"/>
</a>
</g>
</g>
<!-- Node21 -->
<g id="Node000021" class="node">
<title>Node21</title>
<g id="a_Node000021"><a xlink:href="StructureBuilderCore_8cc.html" target="_top" xlink:title="Created by.">
<polygon fill="white" stroke="#666666" points="1755.25,-90.25 1607.25,-90.25 1607.25,-69.5 1755.25,-69.5 1755.25,-90.25"/>
<text text-anchor="middle" x="1681.25" y="-76.75" font-family="Helvetica,sans-Serif" font-size="10.00">src/StructureBuilderCore.cc</text>
</a>
</g>
</g>
<!-- Node1&#45;&gt;Node21 -->
<g id="edge63_Node000001_Node000021" class="edge">
<title>Node1&#45;&gt;Node21</title>
<g id="a_edge63_Node000001_Node000021"><a xlink:title=" ">
<path fill="none" stroke="#63b8ff" d="M1608.94,-395.21C1683.72,-385.01 1786.25,-356.47 1786.25,-276.62 1786.25,-276.62 1786.25,-276.62 1786.25,-211.5 1786.25,-155.34 1726.57,-109.62 1697.2,-90.51"/>
<polygon fill="#63b8ff" stroke="#63b8ff" points="1608.64,-391.72 1599.16,-396.45 1609.52,-398.66 1608.64,-391.72"/>
</a>
</g>
</g>
<!-- Node22 -->
<g id="Node000022" class="node">
<title>Node22</title>
<g id="a_Node000022"><a xlink:href="VolumeBuilderCore_8cc.html" target="_top" xlink:title="Created by.">
<polygon fill="white" stroke="#666666" points="1589.5,-90.25 1449,-90.25 1449,-69.5 1589.5,-69.5 1589.5,-90.25"/>
<text text-anchor="middle" x="1519.25" y="-76.75" font-family="Helvetica,sans-Serif" font-size="10.00">src/VolumeBuilderCore.cc</text>
</a>
</g>
</g>
<!-- Node1&#45;&gt;Node22 -->
<g id="edge64_Node000001_Node000022" class="edge">
<title>Node1&#45;&gt;Node22</title>
<g id="a_edge64_Node000001_Node000022"><a xlink:title=" ">
<path fill="none" stroke="#63b8ff" d="M1585.74,-387.89C1638.16,-371.59 1710.25,-338.02 1710.25,-276.62 1710.25,-276.62 1710.25,-276.62 1710.25,-211.5 1710.25,-141.2 1621,-105.97 1564.51,-90.72"/>
<polygon fill="#63b8ff" stroke="#63b8ff" points="1584.93,-384.48 1576.34,-390.68 1586.92,-391.19 1584.93,-384.48"/>
</a>
</g>
</g>
<!-- Node3 -->
<g id="Node000003" class="node">
<title>Node3</title>
<g id="a_Node000003"><a xlink:href="AssemblyCore_8hh.html" target="_top" xlink:title=" ">
<polygon fill="white" stroke="#666666" points="1208.12,-286 1068.38,-286 1068.38,-265.25 1208.12,-265.25 1208.12,-286"/>
<text text-anchor="middle" x="1138.25" y="-272.5" font-family="Helvetica,sans-Serif" font-size="10.00">include/AssemblyCore.hh</text>
</a>
</g>
</g>
<!-- Node2&#45;&gt;Node3 -->
<g id="edge2_Node000002_Node000003" class="edge">
<title>Node2&#45;&gt;Node3</title>
<g id="a_edge2_Node000002_Node000003"><a xlink:title=" ">
<path fill="none" stroke="#63b8ff" d="M1138.25,-310.19C1138.25,-301.71 1138.25,-292.92 1138.25,-286.47"/>
<polygon fill="#63b8ff" stroke="#63b8ff" points="1134.75,-310.18 1138.25,-320.18 1141.75,-310.18 1134.75,-310.18"/>
</a>
</g>
</g>
<!-- Node2&#45;&gt;Node6 -->
<g id="edge55_Node000002_Node000006" class="edge">
<title>Node2&#45;&gt;Node6</title>
<g id="a_edge55_Node000002_Node000006"><a xlink:title=" ">
<path fill="none" stroke="#63b8ff" d="M1060.25,-332.82C874.36,-319.3 413.8,-274.63 321.25,-159.75 303.15,-137.28 333.67,-106.1 351.99,-90.53"/>
<polygon fill="#63b8ff" stroke="#63b8ff" points="1059.83,-336.3 1070.05,-333.53 1060.33,-329.32 1059.83,-336.3"/>
</a>
</g>
</g>
<!-- Node13 -->
<g id="Node000013" class="node">
<title>Node13</title>
<g id="a_Node000013"><a xlink:href="VolumeBuilderBase_8cc.html" target="_top" xlink:title=" ">
<polygon fill="white" stroke="#666666" points="1003.25,-27.12 861.25,-27.12 861.25,-6.38 1003.25,-6.38 1003.25,-27.12"/>
<text text-anchor="middle" x="932.25" y="-13.62" font-family="Helvetica,sans-Serif" font-size="10.00">src/VolumeBuilderBase.cc</text>
</a>
</g>
</g>
<!-- Node2&#45;&gt;Node13 -->
<g id="edge59_Node000002_Node000013" class="edge">
<title>Node2&#45;&gt;Node13</title>
<g id="a_edge59_Node000002_Node000013"><a xlink:title=" ">
<path fill="none" stroke="#63b8ff" d="M1216.39,-331.66C1418.6,-313.23 1931.94,-247.95 1764.25,-69.5 1738.36,-41.95 1200.2,-24.89 1003.47,-19.56"/>
<polygon fill="#63b8ff" stroke="#63b8ff" points="1216.13,-328.17 1206.48,-332.55 1216.75,-335.14 1216.13,-328.17"/>
</a>
</g>
</g>
<!-- Node15 -->
<g id="Node000015" class="node">
<title>Node15</title>
<g id="a_Node000015"><a xlink:href="FromG4VSolidCore_8cc.html" target="_top" xlink:title=" ">
<polygon fill="white" stroke="#666666" points="815.38,-90.25 677.12,-90.25 677.12,-69.5 815.38,-69.5 815.38,-90.25"/>
<text text-anchor="middle" x="746.25" y="-76.75" font-family="Helvetica,sans-Serif" font-size="10.00">src/FromG4VSolidCore.cc</text>
</a>
</g>
</g>
<!-- Node2&#45;&gt;Node15 -->
<g id="edge56_Node000002_Node000015" class="edge">
<title>Node2&#45;&gt;Node15</title>
<g id="a_edge56_Node000002_Node000015"><a xlink:title=" ">
<path fill="none" stroke="#63b8ff" d="M1060.52,-319.27C977.85,-295.73 848.68,-247.2 772.25,-159.75 754.51,-139.45 748.81,-106.72 747.03,-90.55"/>
<polygon fill="#63b8ff" stroke="#63b8ff" points="1059.34,-322.57 1069.91,-321.89 1061.22,-315.83 1059.34,-322.57"/>
</a>
</g>
</g>
<!-- Node17 -->
<g id="Node000017" class="node">
<title>Node17</title>
<g id="a_Node000017"><a xlink:href="RZBuilderCore_8cc.html" target="_top" xlink:title=" ">
<polygon fill="white" stroke="#666666" points="272.88,-90.25 155.62,-90.25 155.62,-69.5 272.88,-69.5 272.88,-90.25"/>
<text text-anchor="middle" x="214.25" y="-76.75" font-family="Helvetica,sans-Serif" font-size="10.00">src/RZBuilderCore.cc</text>
</a>
</g>
</g>
<!-- Node2&#45;&gt;Node17 -->
<g id="edge57_Node000002_Node000017" class="edge">
<title>Node2&#45;&gt;Node17</title>
<g id="a_edge57_Node000002_Node000017"><a xlink:title=" ">
<path fill="none" stroke="#63b8ff" d="M1060.2,-331.67C910.73,-317.7 576.32,-275.15 321.25,-159.75 281.51,-141.77 242.13,-107.35 224.24,-90.56"/>
<polygon fill="#63b8ff" stroke="#63b8ff" points="1059.71,-335.14 1069.99,-332.56 1060.35,-328.17 1059.71,-335.14"/>
</a>
</g>
</g>
<!-- Node2&#45;&gt;Node21 -->
<g id="edge58_Node000002_Node000021" class="edge">
<title>Node2&#45;&gt;Node21</title>
<g id="a_edge58_Node000002_Node000021"><a xlink:title=" ">
<path fill="none" stroke="#63b8ff" d="M1216.32,-324.7C1297.43,-309.2 1426.62,-278.97 1529.25,-229.25 1576.33,-206.44 1587.37,-196.85 1624.25,-159.75 1646.41,-137.46 1666.46,-105.93 1675.76,-90.34"/>
<polygon fill="#63b8ff" stroke="#63b8ff" points="1215.87,-321.22 1206.69,-326.51 1217.16,-328.1 1215.87,-321.22"/>
</a>
</g>
</g>
<!-- Node23 -->
<g id="Node000023" class="node">
<title>Node23</title>
<g id="a_Node000023"><a xlink:href="StructureBuilderBase_8hpp.html" target="_top" xlink:title="Created by.">
<polygon fill="white" stroke="#666666" points="1119.75,-159.75 986.75,-159.75 986.75,-126.25 1119.75,-126.25 1119.75,-159.75"/>
<text text-anchor="start" x="994.75" y="-146.25" font-family="Helvetica,sans-Serif" font-size="10.00">include/StructureBuilder</text>
<text text-anchor="middle" x="1053.25" y="-133.5" font-family="Helvetica,sans-Serif" font-size="10.00">Base.hpp</text>
</a>
</g>
</g>
<!-- Node2&#45;&gt;Node23 -->
<g id="edge39_Node000002_Node000023" class="edge">
<title>Node2&#45;&gt;Node23</title>
<g id="a_edge39_Node000002_Node000023"><a xlink:title=" ">
<path fill="none" stroke="#63b8ff" d="M1089.22,-315.82C1077.42,-308.13 1066.21,-298.26 1059.25,-286 1036.34,-245.66 1043.84,-187.99 1049.45,-160.2"/>
<polygon fill="#63b8ff" stroke="#63b8ff" points="1087.08,-318.61 1097.45,-320.75 1090.67,-312.61 1087.08,-318.61"/>
</a>
</g>
</g>
<!-- Node24 -->
<g id="Node000024" class="node">
<title>Node24</title>
<g id="a_Node000024"><a xlink:href="StructureBuilderCore_8hh.html" target="_top" xlink:title=" ">
<polygon fill="white" stroke="#666666" points="1337.75,-229.25 1204.75,-229.25 1204.75,-195.75 1337.75,-195.75 1337.75,-229.25"/>
<text text-anchor="start" x="1212.75" y="-215.75" font-family="Helvetica,sans-Serif" font-size="10.00">include/StructureBuilder</text>
<text text-anchor="middle" x="1271.25" y="-203" font-family="Helvetica,sans-Serif" font-size="10.00">Core.hh</text>
</a>
</g>
</g>
<!-- Node2&#45;&gt;Node24 -->
<g id="edge48_Node000002_Node000024" class="edge">
<title>Node2&#45;&gt;Node24</title>
<g id="a_edge48_Node000002_Node000024"><a xlink:title=" ">
<path fill="none" stroke="#63b8ff" d="M1177.62,-315.78C1190.95,-307.38 1205.43,-297.12 1217.25,-286 1235.42,-268.89 1251.85,-245.07 1261.69,-229.47"/>
<polygon fill="#63b8ff" stroke="#63b8ff" points="1176.17,-312.56 1169.47,-320.76 1179.82,-318.54 1176.17,-312.56"/>
</a>
</g>
</g>
<!-- Node3&#45;&gt;Node4 -->
<g id="edge3_Node000003_Node000004" class="edge">
<title>Node3&#45;&gt;Node4</title>
<g id="a_edge3_Node000003_Node000004"><a xlink:title=" ">
<path fill="none" stroke="#63b8ff" d="M1197.7,-262.51C1254.12,-251.02 1337.84,-233.96 1390.17,-223.3"/>
<polygon fill="#63b8ff" stroke="#63b8ff" points="1197.03,-259.08 1187.93,-264.5 1198.43,-265.94 1197.03,-259.08"/>
</a>
</g>
</g>
<!-- Node3&#45;&gt;Node6 -->
<g id="edge36_Node000003_Node000006" class="edge">
<title>Node3&#45;&gt;Node6</title>
<g id="a_edge36_Node000003_Node000006"><a xlink:title=" ">
<path fill="none" stroke="#63b8ff" d="M1056.86,-269.01C861.46,-254.72 378.48,-214.18 331.25,-159.75 313.16,-138.9 338.77,-106.71 354.14,-90.66"/>
<polygon fill="#63b8ff" stroke="#63b8ff" points="1056.45,-272.49 1066.68,-269.73 1056.96,-265.51 1056.45,-272.49"/>
</a>
</g>
</g>
<!-- Node3&#45;&gt;Node13 -->
<g id="edge38_Node000003_Node000013" class="edge">
<title>Node3&#45;&gt;Node13</title>
<g id="a_edge38_Node000003_Node000013"><a xlink:title=" ">
<path fill="none" stroke="#63b8ff" d="M1056.64,-263.93C860.05,-237.99 375.56,-172.86 364.25,-159.75 354.53,-148.48 356.11,-138.72 364.25,-126.25 386.01,-92.93 410.02,-106.74 446.25,-90.25 465.93,-81.29 469.46,-75.45 490.25,-69.5 558.12,-50.08 754.34,-32.02 861.07,-23.27"/>
<polygon fill="#63b8ff" stroke="#63b8ff" points="1056.17,-267.4 1066.54,-265.24 1057.08,-260.46 1056.17,-267.4"/>
</a>
</g>
</g>
<!-- Node18 -->
<g id="Node000018" class="node">
<title>Node18</title>
<g id="a_Node000018"><a xlink:href="VolumeBuilderBase_8hpp.html" target="_top" xlink:title=" ">
<polygon fill="white" stroke="#666666" points="1355.5,-90.25 1185,-90.25 1185,-69.5 1355.5,-69.5 1355.5,-90.25"/>
<text text-anchor="middle" x="1270.25" y="-76.75" font-family="Helvetica,sans-Serif" font-size="10.00">include/VolumeBuilderBase.hpp</text>
</a>
</g>
</g>
<!-- Node3&#45;&gt;Node18 -->
<g id="edge35_Node000003_Node000018" class="edge">
<title>Node3&#45;&gt;Node18</title>
<g id="a_edge35_Node000003_Node000018"><a xlink:title=" ">
<path fill="none" stroke="#63b8ff" d="M1151.36,-255.39C1179.13,-214.62 1243.05,-120.8 1263.69,-90.5"/>
<polygon fill="#63b8ff" stroke="#63b8ff" points="1148.57,-253.26 1145.83,-263.5 1154.35,-257.21 1148.57,-253.26"/>
</a>
</g>
</g>
<!-- Node20 -->
<g id="Node000020" class="node">
<title>Node20</title>
<g id="a_Node000020"><a xlink:href="AssemblyCore_8cc.html" target="_top" xlink:title="Created by.">
<polygon fill="white" stroke="#666666" points="1166.88,-90.25 1049.62,-90.25 1049.62,-69.5 1166.88,-69.5 1166.88,-90.25"/>
<text text-anchor="middle" x="1108.25" y="-76.75" font-family="Helvetica,sans-Serif" font-size="10.00">src/AssemblyCore.cc</text>
</a>
</g>
</g>
<!-- Node3&#45;&gt;Node20 -->
<g id="edge37_Node000003_Node000020" class="edge">
<title>Node3&#45;&gt;Node20</title>
<g id="a_edge37_Node000003_Node000020"><a xlink:title=" ">
<path fill="none" stroke="#63b8ff" d="M1139.1,-253.59C1139.77,-224.51 1139.16,-170.6 1128.25,-126.25 1125.08,-113.38 1118.49,-99.57 1113.74,-90.61"/>
<polygon fill="#63b8ff" stroke="#63b8ff" points="1135.6,-253.46 1138.79,-263.56 1142.6,-253.68 1135.6,-253.46"/>
</a>
</g>
</g>
<!-- Node5 -->
<g id="Node000005" class="node">
<title>Node5</title>
<g id="a_Node000005"><a xlink:href="BoxBuilderCore_8hh.html" target="_top" xlink:title=" ">
<polygon fill="white" stroke="#666666" points="968.75,-153.38 823.75,-153.38 823.75,-132.62 968.75,-132.62 968.75,-153.38"/>
<text text-anchor="middle" x="896.25" y="-139.88" font-family="Helvetica,sans-Serif" font-size="10.00">include/BoxBuilderCore.hh</text>
</a>
</g>
</g>
<!-- Node4&#45;&gt;Node5 -->
<g id="edge4_Node000004_Node000005" class="edge">
<title>Node4&#45;&gt;Node5</title>
<g id="a_edge4_Node000004_Node000005"><a xlink:title=" ">
<path fill="none" stroke="#63b8ff" d="M1374.13,-199.79C1365.12,-198.32 1355.96,-196.93 1347.25,-195.75 1183.51,-173.65 1140.75,-183.54 977.25,-159.75 966.05,-158.12 954.05,-156 942.81,-153.84"/>
<polygon fill="#63b8ff" stroke="#63b8ff" points="1373.49,-203.23 1383.93,-201.42 1374.64,-196.32 1373.49,-203.23"/>
</a>
</g>
</g>
<!-- Node4&#45;&gt;Node13 -->
<g id="edge33_Node000004_Node000013" class="edge">
<title>Node4&#45;&gt;Node13</title>
<g id="a_edge33_Node000004_Node000013"><a xlink:title=" ">
<path fill="none" stroke="#63b8ff" d="M1400.39,-196.87C1384.36,-188.57 1367.33,-176.44 1358.25,-159.75 1339.04,-124.44 1390.93,-99.57 1364.25,-69.5 1340.75,-43.02 1119.93,-27.57 1003.44,-21.19"/>
<polygon fill="#63b8ff" stroke="#63b8ff" points="1398.78,-199.98 1409.31,-201.13 1401.79,-193.66 1398.78,-199.98"/>
</a>
</g>
</g>
<!-- Node14 -->
<g id="Node000014" class="node">
<title>Node14</title>
<g id="a_Node000014"><a xlink:href="FromG4VSolidCore_8hh.html" target="_top" xlink:title=" ">
<polygon fill="white" stroke="#666666" points="729.62,-153.38 568.88,-153.38 568.88,-132.62 729.62,-132.62 729.62,-153.38"/>
<text text-anchor="middle" x="649.25" y="-139.88" font-family="Helvetica,sans-Serif" font-size="10.00">include/FromG4VSolidCore.hh</text>
</a>
</g>
</g>
<!-- Node4&#45;&gt;Node14 -->
<g id="edge13_Node000004_Node000014" class="edge">
<title>Node4&#45;&gt;Node14</title>
<g id="a_edge13_Node000004_Node000014"><a xlink:title=" ">
<path fill="none" stroke="#63b8ff" d="M1376.18,-199.84C1366.52,-198.29 1356.63,-196.86 1347.25,-195.75 1096.92,-166.21 1032.27,-182.69 781.25,-159.75 763.21,-158.1 743.82,-155.98 725.61,-153.84"/>
<polygon fill="#63b8ff" stroke="#63b8ff" points="1375.44,-203.26 1385.88,-201.45 1376.59,-196.36 1375.44,-203.26"/>
</a>
</g>
</g>
<!-- Node4&#45;&gt;Node15 -->
<g id="edge31_Node000004_Node000015" class="edge">
<title>Node4&#45;&gt;Node15</title>
<g id="a_edge31_Node000004_Node000015"><a xlink:title=" ">
<path fill="none" stroke="#63b8ff" d="M1375.82,-199.81C1366.28,-198.28 1356.52,-196.86 1347.25,-195.75 1229.38,-181.61 920.45,-212.81 814.25,-159.75 783.36,-144.31 760.71,-108.01 751.2,-90.56"/>
<polygon fill="#63b8ff" stroke="#63b8ff" points="1374.96,-203.22 1385.4,-201.4 1376.11,-196.31 1374.96,-203.22"/>
</a>
</g>
</g>
<!-- Node16 -->
<g id="Node000016" class="node">
<title>Node16</title>
<g id="a_Node000016"><a xlink:href="RZBuilderCore_8hh.html" target="_top" xlink:title=" ">
<polygon fill="white" stroke="#666666" points="513.12,-153.38 373.38,-153.38 373.38,-132.62 513.12,-132.62 513.12,-153.38"/>
<text text-anchor="middle" x="443.25" y="-139.88" font-family="Helvetica,sans-Serif" font-size="10.00">include/RZBuilderCore.hh</text>
</a>
</g>
</g>
<!-- Node4&#45;&gt;Node16 -->
<g id="edge17_Node000004_Node000016" class="edge">
<title>Node4&#45;&gt;Node16</title>
<g id="a_edge17_Node000004_Node000016"><a xlink:title=" ">
<path fill="none" stroke="#63b8ff" d="M1377.23,-199.85C1367.24,-198.26 1356.98,-196.81 1347.25,-195.75 999.17,-157.82 908.98,-191.14 560.25,-159.75 543.51,-158.24 525.49,-156.09 508.73,-153.85"/>
<polygon fill="#63b8ff" stroke="#63b8ff" points="1376.41,-203.27 1386.85,-201.45 1377.56,-196.36 1376.41,-203.27"/>
</a>
</g>
</g>
<!-- Node4&#45;&gt;Node18 -->
<g id="edge21_Node000004_Node000018" class="edge">
<title>Node4&#45;&gt;Node18</title>
<g id="a_edge21_Node000004_Node000018"><a xlink:title=" ">
<path fill="none" stroke="#63b8ff" d="M1393.96,-197.83C1371.42,-189.36 1344.57,-176.8 1324.25,-159.75 1300.48,-139.8 1282.62,-106.91 1274.72,-90.63"/>
<polygon fill="#63b8ff" stroke="#63b8ff" points="1392.61,-201.06 1403.2,-201.15 1394.97,-194.47 1392.61,-201.06"/>
</a>
</g>
</g>
<!-- Node4&#45;&gt;Node19 -->
<g id="edge23_Node000004_Node000019" class="edge">
<title>Node4&#45;&gt;Node19</title>
<g id="a_edge23_Node000004_Node000019"><a xlink:title=" ">
<path fill="none" stroke="#63b8ff" d="M1441.33,-190.69C1443.16,-178.34 1445.4,-163.27 1446.82,-153.65"/>
<polygon fill="#63b8ff" stroke="#63b8ff" points="1437.91,-189.93 1439.9,-200.33 1444.83,-190.95 1437.91,-189.93"/>
</a>
</g>
</g>
<!-- Node4&#45;&gt;Node20 -->
<g id="edge30_Node000004_Node000020" class="edge">
<title>Node4&#45;&gt;Node20</title>
<g id="a_edge30_Node000004_Node000020"><a xlink:title=" ">
<path fill="none" stroke="#63b8ff" d="M1397.98,-198.01C1368.52,-187.94 1327.67,-173.6 1292.25,-159.75 1232.85,-136.52 1164.07,-106.07 1129.87,-90.68"/>
<polygon fill="#63b8ff" stroke="#63b8ff" points="1396.65,-201.25 1407.25,-201.16 1398.91,-194.62 1396.65,-201.25"/>
</a>
</g>
</g>
<!-- Node4&#45;&gt;Node21 -->
<g id="edge32_Node000004_Node000021" class="edge">
<title>Node4&#45;&gt;Node21</title>
<g id="a_edge32_Node000004_Node000021"><a xlink:title=" ">
<path fill="none" stroke="#63b8ff" d="M1490.8,-198.56C1520.55,-189.99 1557.79,-177.1 1588.25,-159.75 1622.65,-140.15 1656.42,-107.1 1672.12,-90.71"/>
<polygon fill="#63b8ff" stroke="#63b8ff" points="1489.94,-195.17 1481.25,-201.23 1491.82,-201.91 1489.94,-195.17"/>
</a>
</g>
</g>
<!-- Node4&#45;&gt;Node22 -->
<g id="edge34_Node000004_Node000022" class="edge">
<title>Node4&#45;&gt;Node22</title>
<g id="a_edge34_Node000004_Node000022"><a xlink:title=" ">
<path fill="none" stroke="#63b8ff" d="M1517.12,-198.18C1538.53,-190.56 1559.34,-178.58 1572.25,-159.75 1580.67,-147.47 1578.48,-139.77 1572.25,-126.25 1565.11,-110.74 1549.76,-98.55 1537.4,-90.73"/>
<polygon fill="#63b8ff" stroke="#63b8ff" points="1516.14,-194.82 1507.69,-201.21 1518.29,-201.48 1516.14,-194.82"/>
</a>
</g>
</g>
<!-- Node5&#45;&gt;Node6 -->
<g id="edge5_Node000005_Node000006" class="edge">
<title>Node5&#45;&gt;Node6</title>
<g id="a_edge5_Node000005_Node000006"><a xlink:title=" ">
<path fill="none" stroke="#63b8ff" d="M812.09,-132.33C708.84,-120.47 535.5,-100.55 437.51,-89.29"/>
<polygon fill="#63b8ff" stroke="#63b8ff" points="811.56,-135.79 821.89,-133.46 812.35,-128.84 811.56,-135.79"/>
</a>
</g>
</g>
<!-- Node12 -->
<g id="Node000012" class="node">
<title>Node12</title>
<g id="a_Node000012"><a xlink:href="BoxBuilderCore_8cc.html" target="_top" xlink:title=" ">
<polygon fill="white" stroke="#666666" points="993.5,-90.25 871,-90.25 871,-69.5 993.5,-69.5 993.5,-90.25"/>
<text text-anchor="middle" x="932.25" y="-76.75" font-family="Helvetica,sans-Serif" font-size="10.00">src/BoxBuilderCore.cc</text>
</a>
</g>
</g>
<!-- Node5&#45;&gt;Node12 -->
<g id="edge11_Node000005_Node000012" class="edge">
<title>Node5&#45;&gt;Node12</title>
<g id="a_edge11_Node000005_Node000012"><a xlink:title=" ">
<path fill="none" stroke="#63b8ff" d="M907.78,-122.42C914.07,-111.74 921.57,-99 926.6,-90.47"/>
<polygon fill="#63b8ff" stroke="#63b8ff" points="904.86,-120.48 902.8,-130.88 910.89,-124.03 904.86,-120.48"/>
</a>
</g>
</g>
<!-- Node5&#45;&gt;Node13 -->
<g id="edge12_Node000005_Node000013" class="edge">
<title>Node5&#45;&gt;Node13</title>
<g id="a_edge12_Node000005_Node000013"><a xlink:title=" ">
<path fill="none" stroke="#63b8ff" d="M878.52,-124.3C865.98,-109.54 852.92,-88 862.25,-69.5 872.12,-49.93 893.26,-35.93 909.75,-27.46"/>
<polygon fill="#63b8ff" stroke="#63b8ff" points="875.7,-126.41 885.04,-131.42 880.87,-121.68 875.7,-126.41"/>
</a>
</g>
</g>
<!-- Node7 -->
<g id="Node000007" class="node">
<title>Node7</title>
<g id="a_Node000007"><a xlink:href="ConstructAssembly_8cc.html" target="_top" xlink:title="Created by.">
<polygon fill="white" stroke="#666666" points="707,-33.5 581.5,-33.5 581.5,0 707,0 707,-33.5"/>
<text text-anchor="start" x="589.5" y="-20" font-family="Helvetica,sans-Serif" font-size="10.00">demo/src/Geometries</text>
<text text-anchor="middle" x="644.25" y="-7.25" font-family="Helvetica,sans-Serif" font-size="10.00">/ConstructAssembly.cc</text>
</a>
</g>
</g>
<!-- Node6&#45;&gt;Node7 -->
<g id="edge6_Node000006_Node000007" class="edge">
<title>Node6&#45;&gt;Node7</title>
<g id="a_edge6_Node000006_Node000007"><a xlink:title=" ">
<path fill="none" stroke="#63b8ff" d="M420.36,-66.64C462.22,-57.52 520.82,-44.74 572.25,-33.5 575.13,-32.87 578.06,-32.23 581.03,-31.58"/>
<polygon fill="#63b8ff" stroke="#63b8ff" points="419.79,-63.19 410.77,-68.74 421.28,-70.02 419.79,-63.19"/>
</a>
</g>
</g>
<!-- Node8 -->
<g id="Node000008" class="node">
<title>Node8</title>
<g id="a_Node000008"><a xlink:href="ConstructBoxExample_8cc.html" target="_top" xlink:title="Created by.">
<polygon fill="white" stroke="#666666" points="140.5,-33.5 0,-33.5 0,0 140.5,0 140.5,-33.5"/>
<text text-anchor="start" x="8" y="-20" font-family="Helvetica,sans-Serif" font-size="10.00">demo/src/Geometries</text>
<text text-anchor="middle" x="70.25" y="-7.25" font-family="Helvetica,sans-Serif" font-size="10.00">/ConstructBoxExample.cc</text>
</a>
</g>
</g>
<!-- Node6&#45;&gt;Node8 -->
<g id="edge7_Node000006_Node000008" class="edge">
<title>Node6&#45;&gt;Node8</title>
<g id="a_edge7_Node000006_Node000008"><a xlink:title=" ">
<path fill="none" stroke="#63b8ff" d="M306.01,-66.77C258.59,-56.91 191.47,-42.95 140.97,-32.45"/>
<polygon fill="#63b8ff" stroke="#63b8ff" points="305.03,-70.14 315.53,-68.75 306.45,-63.28 305.03,-70.14"/>
</a>
</g>
</g>
<!-- Node9 -->
<g id="Node000009" class="node">
<title>Node9</title>
<g id="a_Node000009"><a xlink:href="ConstructExample1_8cc.html" target="_top" xlink:title="Created by.">
<polygon fill="white" stroke="#666666" points="286.12,-33.5 158.38,-33.5 158.38,0 286.12,0 286.12,-33.5"/>
<text text-anchor="start" x="166.38" y="-20" font-family="Helvetica,sans-Serif" font-size="10.00">demo/src/Geometries</text>
<text text-anchor="middle" x="222.25" y="-7.25" font-family="Helvetica,sans-Serif" font-size="10.00">/ConstructExample1.cc</text>
</a>
</g>
</g>
<!-- Node6&#45;&gt;Node9 -->
<g id="edge8_Node000006_Node000009" class="edge">
<title>Node6&#45;&gt;Node9</title>
<g id="a_edge8_Node000006_Node000009"><a xlink:title=" ">
<path fill="none" stroke="#63b8ff" d="M330.95,-64.54C309.68,-55.39 282.05,-43.49 259.97,-33.98"/>
<polygon fill="#63b8ff" stroke="#63b8ff" points="329.48,-67.72 340.05,-68.46 332.24,-61.29 329.48,-67.72"/>
</a>
</g>
</g>
<!-- Node10 -->
<g id="Node000010" class="node">
<title>Node10</title>
<g id="a_Node000010"><a xlink:href="ConstructHexPart_8cc.html" target="_top" xlink:title=" ">
<polygon fill="white" stroke="#666666" points="424.75,-33.5 303.75,-33.5 303.75,0 424.75,0 424.75,-33.5"/>
<text text-anchor="start" x="311.75" y="-20" font-family="Helvetica,sans-Serif" font-size="10.00">demo/src/Geometries</text>
<text text-anchor="middle" x="364.25" y="-7.25" font-family="Helvetica,sans-Serif" font-size="10.00">/ConstructHexPart.cc</text>
</a>
</g>
</g>
<!-- Node6&#45;&gt;Node10 -->
<g id="edge9_Node000006_Node000010" class="edge">
<title>Node6&#45;&gt;Node10</title>
<g id="a_edge9_Node000006_Node000010"><a xlink:title=" ">
<path fill="none" stroke="#63b8ff" d="M364.25,-57.59C364.25,-49.85 364.25,-41.22 364.25,-33.98"/>
<polygon fill="#63b8ff" stroke="#63b8ff" points="360.75,-57.54 364.25,-67.54 367.75,-57.54 360.75,-57.54"/>
</a>
</g>
</g>
<!-- Node11 -->
<g id="Node000011" class="node">
<title>Node11</title>
<g id="a_Node000011"><a xlink:href="ConstructWorld_8cc.html" target="_top" xlink:title=" ">
<polygon fill="white" stroke="#666666" points="563.75,-33.5 442.75,-33.5 442.75,0 563.75,0 563.75,-33.5"/>
<text text-anchor="start" x="450.75" y="-20" font-family="Helvetica,sans-Serif" font-size="10.00">demo/src/Geometries</text>
<text text-anchor="middle" x="503.25" y="-7.25" font-family="Helvetica,sans-Serif" font-size="10.00">/ConstructWorld.cc</text>
</a>
</g>
</g>
<!-- Node6&#45;&gt;Node11 -->
<g id="edge10_Node000006_Node000011" class="edge">
<title>Node6&#45;&gt;Node11</title>
<g id="a_edge10_Node000006_Node000011"><a xlink:title=" ">
<path fill="none" stroke="#63b8ff" d="M396.84,-64.54C417.67,-55.39 444.72,-43.49 466.33,-33.98"/>
<polygon fill="#63b8ff" stroke="#63b8ff" points="395.71,-61.22 387.97,-68.44 398.53,-67.62 395.71,-61.22"/>
</a>
</g>
</g>
<!-- Node14&#45;&gt;Node6 -->
<g id="edge14_Node000014_Node000006" class="edge">
<title>Node14&#45;&gt;Node6</title>
<g id="a_edge14_Node000014_Node000006"><a xlink:title=" ">
<path fill="none" stroke="#63b8ff" d="M592.43,-129.81C538.84,-118.32 459.53,-101.31 409.93,-90.67"/>
<polygon fill="#63b8ff" stroke="#63b8ff" points="591.47,-133.19 601.98,-131.86 592.94,-126.34 591.47,-133.19"/>
</a>
</g>
</g>
<!-- Node14&#45;&gt;Node13 -->
<g id="edge16_Node000014_Node000013" class="edge">
<title>Node14&#45;&gt;Node13</title>
<g id="a_edge16_Node000014_Node000013"><a xlink:title=" ">
<path fill="none" stroke="#63b8ff" d="M649.04,-121.29C650.04,-104.92 654.19,-82.7 668.25,-69.5 695.57,-43.84 792.4,-30.01 860.85,-23.27"/>
<polygon fill="#63b8ff" stroke="#63b8ff" points="645.55,-120.83 648.81,-130.91 652.55,-120.99 645.55,-120.83"/>
</a>
</g>
</g>
<!-- Node14&#45;&gt;Node15 -->
<g id="edge15_Node000014_Node000015" class="edge">
<title>Node14&#45;&gt;Node15</title>
<g id="a_edge15_Node000014_Node000015"><a xlink:title=" ">
<path fill="none" stroke="#63b8ff" d="M674.33,-126.2C692.15,-114.97 715.52,-100.24 730.7,-90.67"/>
<polygon fill="#63b8ff" stroke="#63b8ff" points="672.71,-123.08 666.12,-131.37 676.44,-129 672.71,-123.08"/>
</a>
</g>
</g>
<!-- Node16&#45;&gt;Node6 -->
<g id="edge18_Node000016_Node000006" class="edge">
<title>Node16&#45;&gt;Node6</title>
<g id="a_edge18_Node000016_Node000006"><a xlink:title=" ">
<path fill="none" stroke="#63b8ff" d="M421.81,-125.41C407.43,-114.29 388.99,-100.02 376.91,-90.67"/>
<polygon fill="#63b8ff" stroke="#63b8ff" points="419.31,-127.9 429.36,-131.25 423.59,-122.37 419.31,-127.9"/>
</a>
</g>
</g>
<!-- Node16&#45;&gt;Node13 -->
<g id="edge20_Node000016_Node000013" class="edge">
<title>Node16&#45;&gt;Node13</title>
<g id="a_edge20_Node000016_Node000013"><a xlink:title=" ">
<path fill="none" stroke="#63b8ff" d="M458.6,-123.64C474.04,-106.54 499.49,-81.88 527.25,-69.5 585.35,-43.58 761.09,-28.57 860.93,-21.91"/>
<polygon fill="#63b8ff" stroke="#63b8ff" points="456.03,-121.26 452.09,-131.1 461.3,-125.86 456.03,-121.26"/>
</a>
</g>
</g>
<!-- Node16&#45;&gt;Node17 -->
<g id="edge19_Node000016_Node000017" class="edge">
<title>Node16&#45;&gt;Node17</title>
<g id="a_edge19_Node000016_Node000017"><a xlink:title=" ">
<path fill="none" stroke="#63b8ff" d="M395.42,-129.23C352.41,-117.75 290.14,-101.13 250.95,-90.67"/>
<polygon fill="#63b8ff" stroke="#63b8ff" points="394.43,-132.59 404.99,-131.79 396.24,-125.83 394.43,-132.59"/>
</a>
</g>
</g>
<!-- Node18&#45;&gt;Node13 -->
<g id="edge22_Node000018_Node000013" class="edge">
<title>Node18&#45;&gt;Node13</title>
<g id="a_edge22_Node000018_Node000013"><a xlink:title=" ">
<path fill="none" stroke="#63b8ff" d="M1204.87,-67.05C1141.4,-55.57 1046.17,-38.35 986.7,-27.6"/>
<polygon fill="#63b8ff" stroke="#63b8ff" points="1203.99,-70.45 1214.46,-68.78 1205.24,-63.56 1203.99,-70.45"/>
</a>
</g>
</g>
<!-- Node19&#45;&gt;Node6 -->
<g id="edge25_Node000019_Node000006" class="edge">
<title>Node19&#45;&gt;Node6</title>
<g id="a_edge25_Node000019_Node000006"><a xlink:title=" ">
<path fill="none" stroke="#63b8ff" d="M1354.94,-136.74C1142.98,-124.79 628.82,-95.79 437.54,-85.01"/>
<polygon fill="#63b8ff" stroke="#63b8ff" points="1354.64,-140.23 1364.82,-137.3 1355.03,-133.24 1354.64,-140.23"/>
</a>
</g>
</g>
<!-- Node19&#45;&gt;Node13 -->
<g id="edge28_Node000019_Node000013" class="edge">
<title>Node19&#45;&gt;Node13</title>
<g id="a_edge28_Node000019_Node000013"><a xlink:title=" ">
<path fill="none" stroke="#63b8ff" d="M1440.03,-122.19C1431.85,-105.17 1417.57,-81.52 1397.25,-69.5 1332.32,-31.08 1116.81,-21.17 1003.41,-18.62"/>
<polygon fill="#63b8ff" stroke="#63b8ff" points="1436.63,-123.16 1443.91,-130.85 1443.02,-120.29 1436.63,-123.16"/>
</a>
</g>
</g>
<!-- Node19&#45;&gt;Node18 -->
<g id="edge24_Node000019_Node000018" class="edge">
<title>Node19&#45;&gt;Node18</title>
<g id="a_edge24_Node000019_Node000018"><a xlink:title=" ">
<path fill="none" stroke="#63b8ff" d="M1408.92,-128.49C1375.59,-117.05 1328.59,-100.91 1298.78,-90.67"/>
<polygon fill="#63b8ff" stroke="#63b8ff" points="1407.63,-131.75 1418.22,-131.69 1409.9,-125.13 1407.63,-131.75"/>
</a>
</g>
</g>
<!-- Node19&#45;&gt;Node20 -->
<g id="edge26_Node000019_Node000020" class="edge">
<title>Node19&#45;&gt;Node20</title>
<g id="a_edge26_Node000019_Node000020"><a xlink:title=" ">
<path fill="none" stroke="#63b8ff" d="M1382.48,-130.18C1318.64,-118.7 1222.85,-101.48 1163.02,-90.72"/>
<polygon fill="#63b8ff" stroke="#63b8ff" points="1381.67,-133.59 1392.13,-131.91 1382.91,-126.7 1381.67,-133.59"/>
</a>
</g>
</g>
<!-- Node19&#45;&gt;Node21 -->
<g id="edge27_Node000019_Node000021" class="edge">
<title>Node19&#45;&gt;Node21</title>
<g id="a_edge27_Node000019_Node000021"><a xlink:title=" ">
<path fill="none" stroke="#63b8ff" d="M1496.64,-129.31C1540.41,-117.82 1603.95,-101.16 1643.91,-90.67"/>
<polygon fill="#63b8ff" stroke="#63b8ff" points="1495.93,-125.87 1487.15,-131.8 1497.71,-132.64 1495.93,-125.87"/>
</a>
</g>
</g>
<!-- Node19&#45;&gt;Node22 -->
<g id="edge29_Node000019_Node000022" class="edge">
<title>Node19&#45;&gt;Node22</title>
<g id="a_edge29_Node000019_Node000022"><a xlink:title=" ">
<path fill="none" stroke="#63b8ff" d="M1468.32,-124.72C1481.21,-113.62 1497.47,-99.62 1508.11,-90.47"/>
<polygon fill="#63b8ff" stroke="#63b8ff" points="1466.1,-122.01 1460.8,-131.19 1470.67,-127.32 1466.1,-122.01"/>
</a>
</g>
</g>
<!-- Node23&#45;&gt;Node6 -->
<g id="edge40_Node000023_Node000006" class="edge">
<title>Node23&#45;&gt;Node6</title>
<g id="a_edge40_Node000023_Node000006"><a xlink:title=" ">
<path fill="none" stroke="#63b8ff" d="M975.26,-126.1C774.79,-98.67 550.31,-87.48 437.24,-83.2"/>
<polygon fill="#63b8ff" stroke="#63b8ff" points="974.72,-129.56 985.11,-127.47 975.68,-122.63 974.72,-129.56"/>
</a>
</g>
</g>
<!-- Node23&#45;&gt;Node12 -->
<g id="edge42_Node000023_Node000012" class="edge">
<title>Node23&#45;&gt;Node12</title>
<g id="a_edge42_Node000023_Node000012"><a xlink:title=" ">
<path fill="none" stroke="#63b8ff" d="M1010.91,-120.61C990.72,-110.41 967.56,-98.71 951.63,-90.67"/>
<polygon fill="#63b8ff" stroke="#63b8ff" points="1009.29,-123.71 1019.79,-125.1 1012.44,-117.46 1009.29,-123.71"/>
</a>
</g>
</g>
<!-- Node23&#45;&gt;Node13 -->
<g id="edge46_Node000023_Node000013" class="edge">
<title>Node23&#45;&gt;Node13</title>
<g id="a_edge46_Node000023_Node000013"><a xlink:title=" ">
<path fill="none" stroke="#63b8ff" d="M1038.15,-116.45C1028.84,-101.82 1016.05,-83.63 1002.25,-69.5 985.78,-52.63 963.39,-37.11 948.41,-27.55"/>
<polygon fill="#63b8ff" stroke="#63b8ff" points="1034.98,-117.97 1043.22,-124.62 1040.93,-114.28 1034.98,-117.97"/>
</a>
</g>
</g>
<!-- Node23&#45;&gt;Node15 -->
<g id="edge43_Node000023_Node000015" class="edge">
<title>Node23&#45;&gt;Node15</title>
<g id="a_edge43_Node000023_Node000015"><a xlink:title=" ">
<path fill="none" stroke="#63b8ff" d="M975.27,-125.86C907.9,-112.3 841.56,-99.34 797.2,-90.73"/>
<polygon fill="#63b8ff" stroke="#63b8ff" points="974.55,-129.29 985.05,-127.83 975.94,-122.43 974.55,-129.29"/>
</a>
</g>
</g>
<!-- Node23&#45;&gt;Node17 -->
<g id="edge44_Node000023_Node000017" class="edge">
<title>Node23&#45;&gt;Node17</title>
<g id="a_edge44_Node000023_Node000017"><a xlink:title=" ">
<path fill="none" stroke="#63b8ff" d="M975.6,-126.19C668.57,-87.51 586.57,-119.06 282.25,-90.25 279.28,-89.97 276.25,-89.65 273.19,-89.31"/>
<polygon fill="#63b8ff" stroke="#63b8ff" points="974.76,-129.61 985.12,-127.4 975.64,-122.66 974.76,-129.61"/>
</a>
</g>
</g>
<!-- Node23&#45;&gt;Node20 -->
<g id="edge41_Node000023_Node000020" class="edge">
<title>Node23&#45;&gt;Node20</title>
<g id="a_edge41_Node000023_Node000020"><a xlink:title=" ">
<path fill="none" stroke="#63b8ff" d="M1075.17,-117.63C1083.64,-108.22 1092.85,-97.99 1099.39,-90.72"/>
<polygon fill="#63b8ff" stroke="#63b8ff" points="1072.8,-115.04 1068.71,-124.82 1078,-119.72 1072.8,-115.04"/>
</a>
</g>
</g>
<!-- Node23&#45;&gt;Node21 -->
<g id="edge45_Node000023_Node000021" class="edge">
<title>Node23&#45;&gt;Node21</title>
<g id="a_edge45_Node000023_Node000021"><a xlink:title=" ">
<path fill="none" stroke="#63b8ff" d="M1131.19,-135.04C1237.01,-125.49 1432.02,-107.53 1598.25,-90.25 1601.13,-89.95 1604.08,-89.64 1607.05,-89.32"/>
<polygon fill="#63b8ff" stroke="#63b8ff" points="1131.14,-131.53 1121.49,-135.91 1131.77,-138.5 1131.14,-131.53"/>
</a>
</g>
</g>
<!-- Node23&#45;&gt;Node22 -->
<g id="edge47_Node000023_Node000022" class="edge">
<title>Node23&#45;&gt;Node22</title>
<g id="a_edge47_Node000023_Node000022"><a xlink:title=" ">
<path fill="none" stroke="#63b8ff" d="M1131.35,-131.76C1220.03,-120.12 1363.42,-101.31 1448.79,-90.12"/>
<polygon fill="#63b8ff" stroke="#63b8ff" points="1130.98,-128.27 1121.52,-133.05 1131.89,-135.22 1130.98,-128.27"/>
</a>
</g>
</g>
<!-- Node24&#45;&gt;Node13 -->
<g id="edge53_Node000024_Node000013" class="edge">
<title>Node24&#45;&gt;Node13</title>
<g id="a_edge53_Node000024_Node000013"><a xlink:title=" ">
<path fill="none" stroke="#63b8ff" d="M1193.3,-208.65C1013.13,-201.68 581.56,-182.67 560.25,-159.75 469.04,-61.67 728.98,-30.71 860.78,-21.46"/>
<polygon fill="#63b8ff" stroke="#63b8ff" points="1192.9,-212.14 1203.02,-209.02 1193.16,-205.14 1192.9,-212.14"/>
</a>
</g>
</g>
<!-- Node24&#45;&gt;Node16 -->
<g id="edge49_Node000024_Node000016" class="edge">
<title>Node24&#45;&gt;Node16</title>
<g id="a_edge49_Node000024_Node000016"><a xlink:title=" ">
<path fill="none" stroke="#63b8ff" d="M1192.81,-209.03C1056.82,-204.09 768.72,-190.68 527.25,-159.75 515.18,-158.2 502.23,-156.03 490.19,-153.79"/>
<polygon fill="#63b8ff" stroke="#63b8ff" points="1192.67,-212.53 1202.79,-209.39 1192.92,-205.54 1192.67,-212.53"/>
</a>
</g>
</g>
<!-- Node24&#45;&gt;Node18 -->
<g id="edge51_Node000024_Node000018" class="edge">
<title>Node24&#45;&gt;Node18</title>
<g id="a_edge51_Node000024_Node000018"><a xlink:title=" ">
<path fill="none" stroke="#63b8ff" d="M1271.04,-184.03C1270.82,-154.85 1270.47,-110.26 1270.33,-90.68"/>
<polygon fill="#63b8ff" stroke="#63b8ff" points="1267.54,-184 1271.12,-193.97 1274.54,-183.94 1267.54,-184"/>
</a>
</g>
</g>
<!-- Node24&#45;&gt;Node21 -->
<g id="edge52_Node000024_Node000021" class="edge">
<title>Node24&#45;&gt;Node21</title>
<g id="a_edge52_Node000024_Node000021"><a xlink:title=" ">
<path fill="none" stroke="#63b8ff" d="M1349,-195.53C1442.05,-179.26 1471.53,-192.29 1556.25,-159.75 1559.23,-158.61 1633.11,-111.58 1665.86,-90.69"/>
<polygon fill="#63b8ff" stroke="#63b8ff" points="1348.65,-192.03 1339.44,-197.27 1349.91,-198.92 1348.65,-192.03"/>
</a>
</g>
</g>
<!-- Node24&#45;&gt;Node22 -->
<g id="edge54_Node000024_Node000022" class="edge">
<title>Node24&#45;&gt;Node22</title>
<g id="a_edge54_Node000024_Node000022"><a xlink:title=" ">
<path fill="none" stroke="#63b8ff" d="M1349.17,-195.75C1405.59,-187.94 1513.37,-190.94 1539.25,-159.75 1556.12,-139.42 1537.67,-106.71 1526.5,-90.55"/>
<polygon fill="#63b8ff" stroke="#63b8ff" points="1348.76,-192.27 1339.46,-197.35 1349.89,-199.18 1348.76,-192.27"/>
</a>
</g>
</g>
<!-- Node24&#45;&gt;Node23 -->
<g id="edge50_Node000024_Node000023" class="edge">
<title>Node24&#45;&gt;Node23</title>
<g id="a_edge50_Node000024_Node000023"><a xlink:title=" ">
<path fill="none" stroke="#63b8ff" d="M1208.25,-191.99C1175.64,-181.9 1136.3,-169.72 1105.42,-160.15"/>
<polygon fill="#63b8ff" stroke="#63b8ff" points="1207,-195.27 1217.59,-194.88 1209.07,-188.58 1207,-195.27"/>
</a>
</g>
</g>
</g>
</svg>
