<?xml version="1.0" encoding="UTF-8" standalone="no"?>
<!DOCTYPE svg PUBLIC "-//W3C//DTD SVG 1.1//EN"
 "http://www.w3.org/Graphics/SVG/1.1/DTD/svg11.dtd">
<!-- Generated by graphviz version 12.0.0 (20240803.0821)
 -->
<!-- Title: include/IVolumeBuilder.hh Pages: 1 -->
<svg width="342pt" height="86pt"
 viewBox="0.00 0.00 341.50 85.50" xmlns="http://www.w3.org/2000/svg" xmlns:xlink="http://www.w3.org/1999/xlink">
<g id="graph0" class="graph" transform="scale(1 1) rotate(0) translate(4 81.5)">
<title>include/IVolumeBuilder.hh</title>
<!-- Node1 -->
<g id="Node000001" class="node">
<title>Node1</title>
<g id="a_Node000001"><a xlink:title="Created by.">
<polygon fill="#999999" stroke="#666666" points="258.25,-77.5 115.5,-77.5 115.5,-56.75 258.25,-56.75 258.25,-77.5"/>
<text text-anchor="middle" x="186.88" y="-64" font-family="Helvetica,sans-Serif" font-size="10.00">include/IVolumeBuilder.hh</text>
</a>
</g>
</g>
<!-- Node2 -->
<g id="Node000002" class="node">
<title>Node2</title>
<g id="a_Node000002"><a xlink:title=" ">
<polygon fill="#e0e0e0" stroke="#999999" points="115.75,-20.75 0,-20.75 0,0 115.75,0 115.75,-20.75"/>
<text text-anchor="middle" x="57.88" y="-7.25" font-family="Helvetica,sans-Serif" font-size="10.00">G4LogicalVolume.hh</text>
</a>
</g>
</g>
<!-- Node1&#45;&gt;Node2 -->
<g id="edge1_Node000001_Node000002" class="edge">
<title>Node1&#45;&gt;Node2</title>
<g id="a_edge1_Node000001_Node000002"><a xlink:title=" ">
<path fill="none" stroke="#63b8ff" d="M163.81,-56.34C143.63,-47.77 114.07,-35.23 91.3,-25.56"/>
<polygon fill="#63b8ff" stroke="#63b8ff" points="92.7,-22.35 82.13,-21.67 89.97,-28.8 92.7,-22.35"/>
</a>
</g>
</g>
<!-- Node3 -->
<g id="Node000003" class="node">
<title>Node3</title>
<g id="a_Node000003"><a xlink:title=" ">
<polygon fill="#e0e0e0" stroke="#999999" points="240.25,-20.75 133.5,-20.75 133.5,0 240.25,0 240.25,-20.75"/>
<text text-anchor="middle" x="186.88" y="-7.25" font-family="Helvetica,sans-Serif" font-size="10.00">G4Transform3D.hh</text>
</a>
</g>
</g>
<!-- Node1&#45;&gt;Node3 -->
<g id="edge2_Node000001_Node000003" class="edge">
<title>Node1&#45;&gt;Node3</title>
<g id="a_edge2_Node000001_Node000003"><a xlink:title=" ">
<path fill="none" stroke="#63b8ff" d="M186.88,-56.34C186.88,-49.72 186.88,-40.72 186.88,-32.52"/>
<polygon fill="#63b8ff" stroke="#63b8ff" points="190.38,-32.59 186.88,-22.59 183.38,-32.59 190.38,-32.59"/>
</a>
</g>
</g>
<!-- Node4 -->
<g id="Node000004" class="node">
<title>Node4</title>
<g id="a_Node000004"><a xlink:title=" ">
<polygon fill="#e0e0e0" stroke="#999999" points="333.5,-20.75 258.25,-20.75 258.25,0 333.5,0 333.5,-20.75"/>
<text text-anchor="middle" x="295.88" y="-7.25" font-family="Helvetica,sans-Serif" font-size="10.00">G4VSolid.hh</text>
</a>
</g>
</g>
<!-- Node1&#45;&gt;Node4 -->
<g id="edge3_Node000001_Node000004" class="edge">
<title>Node1&#45;&gt;Node4</title>
<g id="a_edge3_Node000001_Node000004"><a xlink:title=" ">
<path fill="none" stroke="#63b8ff" d="M206.36,-56.34C223.02,-47.97 247.26,-35.79 266.31,-26.22"/>
<polygon fill="#63b8ff" stroke="#63b8ff" points="267.84,-29.37 275.2,-21.76 264.7,-23.12 267.84,-29.37"/>
</a>
</g>
</g>
</g>
</svg>
