<?xml version="1.0" encoding="UTF-8" standalone="no"?>
<!DOCTYPE svg PUBLIC "-//W3C//DTD SVG 1.1//EN"
 "http://www.w3.org/Graphics/SVG/1.1/DTD/svg11.dtd">
<!-- Generated by graphviz version 12.0.0 (20240803.0821)
 -->
<!-- Title: include/Linkable.hh Pages: 1 -->
<svg width="521pt" height="86pt"
 viewBox="0.00 0.00 521.12 85.50" xmlns="http://www.w3.org/2000/svg" xmlns:xlink="http://www.w3.org/1999/xlink">
<g id="graph0" class="graph" transform="scale(1 1) rotate(0) translate(4 81.5)">
<title>include/Linkable.hh</title>
<!-- Node1 -->
<g id="Node000001" class="node">
<title>Node1</title>
<g id="a_Node000001"><a xlink:title=" ">
<polygon fill="#999999" stroke="#666666" points="269.5,-77.5 159.75,-77.5 159.75,-56.75 269.5,-56.75 269.5,-77.5"/>
<text text-anchor="middle" x="214.62" y="-64" font-family="Helvetica,sans-Serif" font-size="10.00">include/Linkable.hh</text>
</a>
</g>
</g>
<!-- Node2 -->
<g id="Node000002" class="node">
<title>Node2</title>
<g id="a_Node000002"><a xlink:title=" ">
<polygon fill="#e0e0e0" stroke="#999999" points="57.25,-20.75 0,-20.75 0,0 57.25,0 57.25,-20.75"/>
<text text-anchor="middle" x="28.62" y="-7.25" font-family="Helvetica,sans-Serif" font-size="10.00">memory</text>
</a>
</g>
</g>
<!-- Node1&#45;&gt;Node2 -->
<g id="edge1_Node000001_Node000002" class="edge">
<title>Node1&#45;&gt;Node2</title>
<g id="a_edge1_Node000001_Node000002"><a xlink:title=" ">
<path fill="none" stroke="#63b8ff" d="M181.37,-56.34C149.73,-47.02 102.1,-33 68.45,-23.1"/>
<polygon fill="#63b8ff" stroke="#63b8ff" points="69.65,-19.8 59.07,-20.34 67.68,-26.52 69.65,-19.8"/>
</a>
</g>
</g>
<!-- Node3 -->
<g id="Node000003" class="node">
<title>Node3</title>
<g id="a_Node000003"><a xlink:title=" ">
<polygon fill="#e0e0e0" stroke="#999999" points="122.38,-20.75 74.88,-20.75 74.88,0 122.38,0 122.38,-20.75"/>
<text text-anchor="middle" x="98.62" y="-7.25" font-family="Helvetica,sans-Serif" font-size="10.00">mutex</text>
</a>
</g>
</g>
<!-- Node1&#45;&gt;Node3 -->
<g id="edge2_Node000001_Node000003" class="edge">
<title>Node1&#45;&gt;Node3</title>
<g id="a_edge2_Node000001_Node000003"><a xlink:title=" ">
<path fill="none" stroke="#63b8ff" d="M193.89,-56.34C175.99,-47.89 149.88,-35.57 129.52,-25.96"/>
<polygon fill="#63b8ff" stroke="#63b8ff" points="131.09,-22.83 120.55,-21.72 128.1,-29.16 131.09,-22.83"/>
</a>
</g>
</g>
<!-- Node4 -->
<g id="Node000004" class="node">
<title>Node4</title>
<g id="a_Node000004"><a xlink:title=" ">
<polygon fill="#e0e0e0" stroke="#999999" points="204.62,-20.75 140.62,-20.75 140.62,0 204.62,0 204.62,-20.75"/>
<text text-anchor="middle" x="172.62" y="-7.25" font-family="Helvetica,sans-Serif" font-size="10.00">stdexcept</text>
</a>
</g>
</g>
<!-- Node1&#45;&gt;Node4 -->
<g id="edge3_Node000001_Node000004" class="edge">
<title>Node1&#45;&gt;Node4</title>
<g id="a_edge3_Node000001_Node000004"><a xlink:title=" ">
<path fill="none" stroke="#63b8ff" d="M207.12,-56.34C201.5,-49.02 193.66,-38.79 186.87,-29.94"/>
<polygon fill="#63b8ff" stroke="#63b8ff" points="189.85,-28.08 180.99,-22.28 184.3,-32.34 189.85,-28.08"/>
</a>
</g>
</g>
<!-- Node5 -->
<g id="Node000005" class="node">
<title>Node5</title>
<g id="a_Node000005"><a xlink:title=" ">
<polygon fill="#e0e0e0" stroke="#999999" points="290.88,-20.75 222.38,-20.75 222.38,0 290.88,0 290.88,-20.75"/>
<text text-anchor="middle" x="256.62" y="-7.25" font-family="Helvetica,sans-Serif" font-size="10.00">type_traits</text>
</a>
</g>
</g>
<!-- Node1&#45;&gt;Node5 -->
<g id="edge4_Node000001_Node000005" class="edge">
<title>Node1&#45;&gt;Node5</title>
<g id="a_edge4_Node000001_Node000005"><a xlink:title=" ">
<path fill="none" stroke="#63b8ff" d="M222.13,-56.34C227.75,-49.02 235.59,-38.79 242.38,-29.94"/>
<polygon fill="#63b8ff" stroke="#63b8ff" points="244.95,-32.34 248.26,-22.28 239.4,-28.08 244.95,-32.34"/>
</a>
</g>
</g>
<!-- Node6 -->
<g id="Node000006" class="node">
<title>Node6</title>
<g id="a_Node000006"><a xlink:title=" ">
<polygon fill="#e0e0e0" stroke="#999999" points="356,-20.75 309.25,-20.75 309.25,0 356,0 356,-20.75"/>
<text text-anchor="middle" x="332.62" y="-7.25" font-family="Helvetica,sans-Serif" font-size="10.00">vector</text>
</a>
</g>
</g>
<!-- Node1&#45;&gt;Node6 -->
<g id="edge5_Node000001_Node000006" class="edge">
<title>Node1&#45;&gt;Node6</title>
<g id="a_edge5_Node000001_Node000006"><a xlink:title=" ">
<path fill="none" stroke="#63b8ff" d="M235.72,-56.34C254.01,-47.85 280.73,-35.45 301.48,-25.83"/>
<polygon fill="#63b8ff" stroke="#63b8ff" points="302.74,-29.1 310.34,-21.72 299.79,-22.75 302.74,-29.1"/>
</a>
</g>
</g>
<!-- Node7 -->
<g id="Node000007" class="node">
<title>Node7</title>
<g id="a_Node000007"><a xlink:title=" ">
<polygon fill="#e0e0e0" stroke="#999999" points="513.12,-20.75 374.12,-20.75 374.12,0 513.12,0 513.12,-20.75"/>
<text text-anchor="middle" x="443.62" y="-7.25" font-family="Helvetica,sans-Serif" font-size="10.00">sanitizer/lsan_interface.h</text>
</a>
</g>
</g>
<!-- Node1&#45;&gt;Node7 -->
<g id="edge6_Node000001_Node000007" class="edge">
<title>Node1&#45;&gt;Node7</title>
<g id="a_edge6_Node000001_Node000007"><a xlink:title=" ">
<path fill="none" stroke="#63b8ff" d="M255.83,-56.27C293.73,-47.21 350.12,-33.73 391.21,-23.91"/>
<polygon fill="#63b8ff" stroke="#63b8ff" points="391.98,-27.32 400.89,-21.59 390.35,-20.51 391.98,-27.32"/>
</a>
</g>
</g>
</g>
</svg>
