<?xml version="1.0" encoding="UTF-8" standalone="no"?>
<!DOCTYPE svg PUBLIC "-//W3C//DTD SVG 1.1//EN"
 "http://www.w3.org/Graphics/SVG/1.1/DTD/svg11.dtd">
<!-- Generated by graphviz version 12.0.0 (20240803.0821)
 -->
<!-- Title: include/Linkable.hh Pages: 1 -->
<svg width="1909pt" height="477pt"
 viewBox="0.00 0.00 1909.00 477.00" xmlns="http://www.w3.org/2000/svg" xmlns:xlink="http://www.w3.org/1999/xlink">
<g id="graph0" class="graph" transform="scale(1 1) rotate(0) translate(4 473)">
<title>include/Linkable.hh</title>
<!-- Node1 -->
<g id="Node000001" class="node">
<title>Node1</title>
<g id="a_Node000001"><a xlink:title=" ">
<polygon fill="#999999" stroke="#666666" points="692.12,-469 582.38,-469 582.38,-448.25 692.12,-448.25 692.12,-469"/>
<text text-anchor="middle" x="637.25" y="-455.5" font-family="Helvetica,sans-Serif" font-size="10.00">include/Linkable.hh</text>
</a>
</g>
</g>
<!-- Node2 -->
<g id="Node000002" class="node">
<title>Node2</title>
<g id="a_Node000002"><a xlink:href="AssemblyCore_8hh.html" target="_top" xlink:title=" ">
<polygon fill="white" stroke="#666666" points="590.12,-286 450.38,-286 450.38,-265.25 590.12,-265.25 590.12,-286"/>
<text text-anchor="middle" x="520.25" y="-272.5" font-family="Helvetica,sans-Serif" font-size="10.00">include/AssemblyCore.hh</text>
</a>
</g>
</g>
<!-- Node1&#45;&gt;Node2 -->
<g id="edge1_Node000001_Node000002" class="edge">
<title>Node1&#45;&gt;Node2</title>
<g id="a_edge1_Node000001_Node000002"><a xlink:title=" ">
<path fill="none" stroke="#63b8ff" d="M623.27,-439.06C617.27,-430.93 610.28,-421.22 604.25,-412.25 573.2,-366.04 539.12,-308.79 525.92,-286.32"/>
<polygon fill="#63b8ff" stroke="#63b8ff" points="620.27,-440.89 629.05,-446.82 625.89,-436.71 620.27,-440.89"/>
</a>
</g>
</g>
<!-- Node3 -->
<g id="Node000003" class="node">
<title>Node3</title>
<g id="a_Node000003"><a xlink:href="VolumeBuilderBase_8hh.html" target="_top" xlink:title=" ">
<polygon fill="white" stroke="#666666" points="725.5,-222.88 561,-222.88 561,-202.12 725.5,-202.12 725.5,-222.88"/>
<text text-anchor="middle" x="643.25" y="-209.38" font-family="Helvetica,sans-Serif" font-size="10.00">include/VolumeBuilderBase.hh</text>
</a>
</g>
</g>
<!-- Node1&#45;&gt;Node3 -->
<g id="edge70_Node000001_Node000003" class="edge">
<title>Node1&#45;&gt;Node3</title>
<g id="a_edge70_Node000001_Node000003"><a xlink:title=" ">
<path fill="none" stroke="#63b8ff" d="M637.77,-436.34C639.02,-385.64 642.13,-259.26 643.01,-223.23"/>
<polygon fill="#63b8ff" stroke="#63b8ff" points="634.28,-436.16 637.53,-446.24 641.27,-436.33 634.28,-436.16"/>
</a>
</g>
</g>
<!-- Node17 -->
<g id="Node000017" class="node">
<title>Node17</title>
<g id="a_Node000017"><a xlink:href="VolumeBuilderBase_8hpp.html" target="_top" xlink:title=" ">
<polygon fill="white" stroke="#666666" points="170.5,-90.25 0,-90.25 0,-69.5 170.5,-69.5 170.5,-90.25"/>
<text text-anchor="middle" x="85.25" y="-76.75" font-family="Helvetica,sans-Serif" font-size="10.00">include/VolumeBuilderBase.hpp</text>
</a>
</g>
</g>
<!-- Node1&#45;&gt;Node17 -->
<g id="edge71_Node000001_Node000017" class="edge">
<title>Node1&#45;&gt;Node17</title>
<g id="a_edge71_Node000001_Node000017"><a xlink:title=" ">
<path fill="none" stroke="#63b8ff" d="M570.84,-458.19C416.62,-457.72 47.25,-445.54 47.25,-339.75 47.25,-339.75 47.25,-339.75 47.25,-211.5 47.25,-164.5 70.21,-111.64 80.44,-90.43"/>
<polygon fill="#63b8ff" stroke="#63b8ff" points="570.49,-461.69 580.5,-458.2 570.5,-454.69 570.49,-461.69"/>
</a>
</g>
</g>
<!-- Node18 -->
<g id="Node000018" class="node">
<title>Node18</title>
<g id="a_Node000018"><a xlink:href="VolumeBuilderCore_8hh.html" target="_top" xlink:title=" ">
<polygon fill="white" stroke="#666666" points="466.75,-153.38 303.75,-153.38 303.75,-132.62 466.75,-132.62 466.75,-153.38"/>
<text text-anchor="middle" x="385.25" y="-139.88" font-family="Helvetica,sans-Serif" font-size="10.00">include/VolumeBuilderCore.hh</text>
</a>
</g>
</g>
<!-- Node1&#45;&gt;Node18 -->
<g id="edge72_Node000001_Node000018" class="edge">
<title>Node1&#45;&gt;Node18</title>
<g id="a_edge72_Node000001_Node000018"><a xlink:title=" ">
<path fill="none" stroke="#63b8ff" d="M574.96,-445.39C489.74,-426.83 347.25,-388.51 347.25,-339.75 347.25,-339.75 347.25,-339.75 347.25,-274.62 347.25,-227.63 370.21,-174.76 380.44,-153.55"/>
<polygon fill="#63b8ff" stroke="#63b8ff" points="574.08,-448.78 584.59,-447.45 575.55,-441.93 574.08,-448.78"/>
</a>
</g>
</g>
<!-- Node22 -->
<g id="Node000022" class="node">
<title>Node22</title>
<g id="a_Node000022"><a xlink:href="ISolidBuilder_8hh_source.html" target="_top" xlink:title=" ">
<polygon fill="white" stroke="#666666" points="1030.25,-412.25 900.25,-412.25 900.25,-391.5 1030.25,-391.5 1030.25,-412.25"/>
<text text-anchor="middle" x="965.25" y="-398.75" font-family="Helvetica,sans-Serif" font-size="10.00">include/ISolidBuilder.hh</text>
</a>
</g>
</g>
<!-- Node1&#45;&gt;Node22 -->
<g id="edge38_Node000001_Node000022" class="edge">
<title>Node1&#45;&gt;Node22</title>
<g id="a_edge38_Node000001_Node000022"><a xlink:title=" ">
<path fill="none" stroke="#63b8ff" d="M703.65,-446.54C762.99,-436.64 849.14,-422.26 906.15,-412.74"/>
<polygon fill="#63b8ff" stroke="#63b8ff" points="703.3,-443.05 694.01,-448.15 704.45,-449.96 703.3,-443.05"/>
</a>
</g>
</g>
<!-- Node23 -->
<g id="Node000023" class="node">
<title>Node23</title>
<g id="a_Node000023"><a xlink:href="StructureBuilderBase_8hh.html" target="_top" xlink:title=" ">
<polygon fill="white" stroke="#666666" points="1123.75,-355.5 990.75,-355.5 990.75,-322 1123.75,-322 1123.75,-355.5"/>
<text text-anchor="start" x="998.75" y="-342" font-family="Helvetica,sans-Serif" font-size="10.00">include/StructureBuilder</text>
<text text-anchor="middle" x="1057.25" y="-329.25" font-family="Helvetica,sans-Serif" font-size="10.00">Base.hh</text>
</a>
</g>
</g>
<!-- Node1&#45;&gt;Node23 -->
<g id="edge67_Node000001_Node000023" class="edge">
<title>Node1&#45;&gt;Node23</title>
<g id="a_edge67_Node000001_Node000023"><a xlink:title=" ">
<path fill="none" stroke="#63b8ff" d="M703.85,-454.22C811.57,-448.12 1014.57,-433.89 1039.25,-412.25 1055.14,-398.31 1058.1,-372.73 1058.14,-355.98"/>
<polygon fill="#63b8ff" stroke="#63b8ff" points="703.76,-450.72 693.97,-454.78 704.15,-457.71 703.76,-450.72"/>
</a>
</g>
</g>
<!-- Node24 -->
<g id="Node000024" class="node">
<title>Node24</title>
<g id="a_Node000024"><a xlink:href="StructureBuilderBase_8hpp.html" target="_top" xlink:title="Created by.">
<polygon fill="white" stroke="#666666" points="1010.75,-159.75 877.75,-159.75 877.75,-126.25 1010.75,-126.25 1010.75,-159.75"/>
<text text-anchor="start" x="885.75" y="-146.25" font-family="Helvetica,sans-Serif" font-size="10.00">include/StructureBuilder</text>
<text text-anchor="middle" x="944.25" y="-133.5" font-family="Helvetica,sans-Serif" font-size="10.00">Base.hpp</text>
</a>
</g>
</g>
<!-- Node1&#45;&gt;Node24 -->
<g id="edge68_Node000001_Node000024" class="edge">
<title>Node1&#45;&gt;Node24</title>
<g id="a_edge68_Node000001_Node000024"><a xlink:title=" ">
<path fill="none" stroke="#63b8ff" d="M658.8,-440.81C704.04,-404.93 810.93,-316.92 886.25,-229.25 905.5,-206.85 924.03,-177.91 934.77,-160.17"/>
<polygon fill="#63b8ff" stroke="#63b8ff" points="656.75,-437.97 651.07,-446.91 661.09,-443.47 656.75,-437.97"/>
</a>
</g>
</g>
<!-- Node25 -->
<g id="Node000025" class="node">
<title>Node25</title>
<g id="a_Node000025"><a xlink:href="StructureBuilderCore_8hh.html" target="_top" xlink:title=" ">
<polygon fill="white" stroke="#666666" points="876.75,-229.25 743.75,-229.25 743.75,-195.75 876.75,-195.75 876.75,-229.25"/>
<text text-anchor="start" x="751.75" y="-215.75" font-family="Helvetica,sans-Serif" font-size="10.00">include/StructureBuilder</text>
<text text-anchor="middle" x="810.25" y="-203" font-family="Helvetica,sans-Serif" font-size="10.00">Core.hh</text>
</a>
</g>
</g>
<!-- Node1&#45;&gt;Node25 -->
<g id="edge69_Node000001_Node000025" class="edge">
<title>Node1&#45;&gt;Node25</title>
<g id="a_edge69_Node000001_Node000025"><a xlink:title=" ">
<path fill="none" stroke="#63b8ff" d="M650.83,-438.46C683.92,-391.76 768.26,-272.75 798.9,-229.51"/>
<polygon fill="#63b8ff" stroke="#63b8ff" points="648.05,-436.34 645.12,-446.52 653.76,-440.38 648.05,-436.34"/>
</a>
</g>
</g>
<!-- Node2&#45;&gt;Node3 -->
<g id="edge2_Node000002_Node000003" class="edge">
<title>Node2&#45;&gt;Node3</title>
<g id="a_edge2_Node000002_Node000003"><a xlink:title=" ">
<path fill="none" stroke="#63b8ff" d="M550.17,-259.75C572.98,-248.42 603.74,-233.13 623.54,-223.3"/>
<polygon fill="#63b8ff" stroke="#63b8ff" points="548.77,-256.55 541.37,-264.13 551.88,-262.81 548.77,-256.55"/>
</a>
</g>
</g>
<!-- Node5 -->
<g id="Node000005" class="node">
<title>Node5</title>
<g id="a_Node000005"><a xlink:href="VolumeBuilders_8hh.html" target="_top" xlink:title=" ">
<polygon fill="white" stroke="#666666" points="1631.12,-90.25 1485.38,-90.25 1485.38,-69.5 1631.12,-69.5 1631.12,-90.25"/>
<text text-anchor="middle" x="1558.25" y="-76.75" font-family="Helvetica,sans-Serif" font-size="10.00">include/VolumeBuilders.hh</text>
</a>
</g>
</g>
<!-- Node2&#45;&gt;Node5 -->
<g id="edge35_Node000002_Node000005" class="edge">
<title>Node2&#45;&gt;Node5</title>
<g id="a_edge35_Node000002_Node000005"><a xlink:title=" ">
<path fill="none" stroke="#63b8ff" d="M601.82,-269.76C798.76,-257.19 1295.31,-220.29 1449.25,-159.75 1490.55,-143.51 1530.59,-107.93 1548.49,-90.66"/>
<polygon fill="#63b8ff" stroke="#63b8ff" points="601.68,-266.26 591.92,-270.39 602.12,-273.25 601.68,-266.26"/>
</a>
</g>
</g>
<!-- Node12 -->
<g id="Node000012" class="node">
<title>Node12</title>
<g id="a_Node000012"><a xlink:href="VolumeBuilderBase_8cc.html" target="_top" xlink:title=" ">
<polygon fill="white" stroke="#666666" points="759.25,-27.12 617.25,-27.12 617.25,-6.38 759.25,-6.38 759.25,-27.12"/>
<text text-anchor="middle" x="688.25" y="-13.62" font-family="Helvetica,sans-Serif" font-size="10.00">src/VolumeBuilderBase.cc</text>
</a>
</g>
</g>
<!-- Node2&#45;&gt;Node12 -->
<g id="edge37_Node000002_Node000012" class="edge">
<title>Node2&#45;&gt;Node12</title>
<g id="a_edge37_Node000002_Node000012"><a xlink:title=" ">
<path fill="none" stroke="#63b8ff" d="M513.79,-253.98C499.92,-207.82 470.25,-98.06 492.25,-69.5 507.66,-49.49 567.38,-35.66 616.89,-27.36"/>
<polygon fill="#63b8ff" stroke="#63b8ff" points="510.44,-254.98 516.72,-263.52 517.13,-252.93 510.44,-254.98"/>
</a>
</g>
</g>
<!-- Node2&#45;&gt;Node17 -->
<g id="edge34_Node000002_Node000017" class="edge">
<title>Node2&#45;&gt;Node17</title>
<g id="a_edge34_Node000002_Node000017"><a xlink:title=" ">
<path fill="none" stroke="#63b8ff" d="M444.13,-262.88C338.23,-245.02 154.27,-207.94 108.25,-159.75 89.73,-140.36 86.01,-106.91 85.34,-90.51"/>
<polygon fill="#63b8ff" stroke="#63b8ff" points="443.45,-266.32 453.89,-264.51 444.6,-259.41 443.45,-266.32"/>
</a>
</g>
</g>
<!-- Node19 -->
<g id="Node000019" class="node">
<title>Node19</title>
<g id="a_Node000019"><a xlink:href="AssemblyCore_8cc.html" target="_top" xlink:title="Created by.">
<polygon fill="white" stroke="#666666" points="359.88,-90.25 242.62,-90.25 242.62,-69.5 359.88,-69.5 359.88,-90.25"/>
<text text-anchor="middle" x="301.25" y="-76.75" font-family="Helvetica,sans-Serif" font-size="10.00">src/AssemblyCore.cc</text>
</a>
</g>
</g>
<!-- Node2&#45;&gt;Node19 -->
<g id="edge36_Node000002_Node000019" class="edge">
<title>Node2&#45;&gt;Node19</title>
<g id="a_edge36_Node000002_Node000019"><a xlink:title=" ">
<path fill="none" stroke="#63b8ff" d="M451.5,-262.1C395.21,-247.83 319.07,-218.4 282.25,-159.75 268.32,-137.56 284.66,-105.98 294.64,-90.36"/>
<polygon fill="#63b8ff" stroke="#63b8ff" points="450.46,-265.45 461,-264.4 452.11,-258.64 450.46,-265.45"/>
</a>
</g>
</g>
<!-- Node4 -->
<g id="Node000004" class="node">
<title>Node4</title>
<g id="a_Node000004"><a xlink:href="BoxBuilderCore_8hh.html" target="_top" xlink:title=" ">
<polygon fill="white" stroke="#666666" points="820.75,-153.38 675.75,-153.38 675.75,-132.62 820.75,-132.62 820.75,-153.38"/>
<text text-anchor="middle" x="748.25" y="-139.88" font-family="Helvetica,sans-Serif" font-size="10.00">include/BoxBuilderCore.hh</text>
</a>
</g>
</g>
<!-- Node3&#45;&gt;Node4 -->
<g id="edge3_Node000003_Node000004" class="edge">
<title>Node3&#45;&gt;Node4</title>
<g id="a_edge3_Node000003_Node000004"><a xlink:title=" ">
<path fill="none" stroke="#63b8ff" d="M667.74,-195.75C687.88,-182.81 715.78,-164.87 732.89,-153.87"/>
<polygon fill="#63b8ff" stroke="#63b8ff" points="666.09,-192.66 659.57,-201.01 669.87,-198.55 666.09,-192.66"/>
</a>
</g>
</g>
<!-- Node3&#45;&gt;Node12 -->
<g id="edge32_Node000003_Node000012" class="edge">
<title>Node3&#45;&gt;Node12</title>
<g id="a_edge32_Node000003_Node000012"><a xlink:title=" ">
<path fill="none" stroke="#63b8ff" d="M549.22,-209C401.12,-201.88 139.5,-174.52 233.25,-69.5 258.33,-41.4 495.6,-26.55 617.17,-20.72"/>
<polygon fill="#63b8ff" stroke="#63b8ff" points="548.9,-212.49 559.05,-209.45 549.22,-205.5 548.9,-212.49"/>
</a>
</g>
</g>
<!-- Node13 -->
<g id="Node000013" class="node">
<title>Node13</title>
<g id="a_Node000013"><a xlink:href="FromG4VSolidCore_8hh.html" target="_top" xlink:title=" ">
<polygon fill="white" stroke="#666666" points="1227.62,-153.38 1066.88,-153.38 1066.88,-132.62 1227.62,-132.62 1227.62,-153.38"/>
<text text-anchor="middle" x="1147.25" y="-139.88" font-family="Helvetica,sans-Serif" font-size="10.00">include/FromG4VSolidCore.hh</text>
</a>
</g>
</g>
<!-- Node3&#45;&gt;Node13 -->
<g id="edge12_Node000003_Node000013" class="edge">
<title>Node3&#45;&gt;Node13</title>
<g id="a_edge12_Node000003_Node000013"><a xlink:title=" ">
<path fill="none" stroke="#63b8ff" d="M709.45,-199.8C718.12,-198.38 726.89,-196.99 735.25,-195.75 751.47,-193.34 952.87,-168.2 1067.94,-153.87"/>
<polygon fill="#63b8ff" stroke="#63b8ff" points="708.94,-196.34 699.65,-201.44 710.09,-203.24 708.94,-196.34"/>
</a>
</g>
</g>
<!-- Node14 -->
<g id="Node000014" class="node">
<title>Node14</title>
<g id="a_Node000014"><a xlink:href="FromG4VSolidCore_8cc.html" target="_top" xlink:title=" ">
<polygon fill="white" stroke="#666666" points="1051.38,-90.25 913.12,-90.25 913.12,-69.5 1051.38,-69.5 1051.38,-90.25"/>
<text text-anchor="middle" x="982.25" y="-76.75" font-family="Helvetica,sans-Serif" font-size="10.00">src/FromG4VSolidCore.cc</text>
</a>
</g>
</g>
<!-- Node3&#45;&gt;Node14 -->
<g id="edge30_Node000003_Node000014" class="edge">
<title>Node3&#45;&gt;Node14</title>
<g id="a_edge30_Node000003_Node000014"><a xlink:title=" ">
<path fill="none" stroke="#63b8ff" d="M715.23,-199.32C751.21,-191.34 794.56,-178.78 830.25,-159.75 850.41,-149 849.72,-138.11 869.25,-126.25 894.91,-110.67 926.87,-98.41 950.25,-90.59"/>
<polygon fill="#63b8ff" stroke="#63b8ff" points="714.85,-195.82 705.8,-201.33 716.31,-202.67 714.85,-195.82"/>
</a>
</g>
</g>
<!-- Node15 -->
<g id="Node000015" class="node">
<title>Node15</title>
<g id="a_Node000015"><a xlink:href="RZBuilderCore_8hh.html" target="_top" xlink:title=" ">
<polygon fill="white" stroke="#666666" points="1423.12,-153.38 1283.38,-153.38 1283.38,-132.62 1423.12,-132.62 1423.12,-153.38"/>
<text text-anchor="middle" x="1353.25" y="-139.88" font-family="Helvetica,sans-Serif" font-size="10.00">include/RZBuilderCore.hh</text>
</a>
</g>
</g>
<!-- Node3&#45;&gt;Node15 -->
<g id="edge16_Node000003_Node000015" class="edge">
<title>Node3&#45;&gt;Node15</title>
<g id="a_edge16_Node000003_Node000015"><a xlink:title=" ">
<path fill="none" stroke="#63b8ff" d="M706.36,-199.82C716.02,-198.29 725.88,-196.86 735.25,-195.75 971.46,-167.64 1033.27,-189.72 1269.25,-159.75 1281.32,-158.22 1294.28,-156.05 1306.31,-153.81"/>
<polygon fill="#63b8ff" stroke="#63b8ff" points="705.97,-196.34 696.67,-201.41 707.1,-203.24 705.97,-196.34"/>
</a>
</g>
</g>
<!-- Node3&#45;&gt;Node17 -->
<g id="edge20_Node000003_Node000017" class="edge">
<title>Node3&#45;&gt;Node17</title>
<g id="a_edge20_Node000003_Node000017"><a xlink:title=" ">
<path fill="none" stroke="#63b8ff" d="M549.3,-210.32C425.12,-207.31 214.23,-196.72 147.25,-159.75 118.28,-143.76 98.16,-108.06 89.71,-90.71"/>
<polygon fill="#63b8ff" stroke="#63b8ff" points="549.08,-213.82 559.16,-210.55 549.24,-206.82 549.08,-213.82"/>
</a>
</g>
</g>
<!-- Node3&#45;&gt;Node18 -->
<g id="edge22_Node000003_Node000018" class="edge">
<title>Node3&#45;&gt;Node18</title>
<g id="a_edge22_Node000003_Node000018"><a xlink:title=" ">
<path fill="none" stroke="#63b8ff" d="M594.91,-198.85C545.04,-185.8 468.31,-165.73 422.81,-153.83"/>
<polygon fill="#63b8ff" stroke="#63b8ff" points="593.71,-202.16 604.27,-201.3 595.48,-195.38 593.71,-202.16"/>
</a>
</g>
</g>
<!-- Node3&#45;&gt;Node19 -->
<g id="edge29_Node000003_Node000019" class="edge">
<title>Node3&#45;&gt;Node19</title>
<g id="a_edge29_Node000003_Node000019"><a xlink:title=" ">
<path fill="none" stroke="#63b8ff" d="M549.36,-203.86C451.73,-194.94 310.8,-178.93 294.25,-159.75 277.46,-140.28 288.93,-107.17 296.34,-90.73"/>
<polygon fill="#63b8ff" stroke="#63b8ff" points="548.96,-207.34 559.23,-204.75 549.59,-200.36 548.96,-207.34"/>
</a>
</g>
</g>
<!-- Node20 -->
<g id="Node000020" class="node">
<title>Node20</title>
<g id="a_Node000020"><a xlink:href="StructureBuilderCore_8cc.html" target="_top" xlink:title="Created by.">
<polygon fill="white" stroke="#666666" points="1391.25,-90.25 1243.25,-90.25 1243.25,-69.5 1391.25,-69.5 1391.25,-90.25"/>
<text text-anchor="middle" x="1317.25" y="-76.75" font-family="Helvetica,sans-Serif" font-size="10.00">src/StructureBuilderCore.cc</text>
</a>
</g>
</g>
<!-- Node3&#45;&gt;Node20 -->
<g id="edge31_Node000003_Node000020" class="edge">
<title>Node3&#45;&gt;Node20</title>
<g id="a_edge31_Node000003_Node000020"><a xlink:title=" ">
<path fill="none" stroke="#63b8ff" d="M706.37,-199.86C716.02,-198.32 725.88,-196.89 735.25,-195.75 846.06,-182.32 1134.42,-205.46 1236.25,-159.75 1245.11,-155.77 1288.72,-110.76 1308.03,-90.57"/>
<polygon fill="#63b8ff" stroke="#63b8ff" points="705.97,-196.37 696.67,-201.45 707.11,-203.28 705.97,-196.37"/>
</a>
</g>
</g>
<!-- Node21 -->
<g id="Node000021" class="node">
<title>Node21</title>
<g id="a_Node000021"><a xlink:href="VolumeBuilderCore_8cc.html" target="_top" xlink:title="Created by.">
<polygon fill="white" stroke="#666666" points="641.5,-90.25 501,-90.25 501,-69.5 641.5,-69.5 641.5,-90.25"/>
<text text-anchor="middle" x="571.25" y="-76.75" font-family="Helvetica,sans-Serif" font-size="10.00">src/VolumeBuilderCore.cc</text>
</a>
</g>
</g>
<!-- Node3&#45;&gt;Node21 -->
<g id="edge33_Node000003_Node000021" class="edge">
<title>Node3&#45;&gt;Node21</title>
<g id="a_edge33_Node000003_Node000021"><a xlink:title=" ">
<path fill="none" stroke="#63b8ff" d="M623.44,-194.22C613.76,-184.86 602.64,-172.6 595.25,-159.75 582.13,-136.92 575.47,-106.16 572.76,-90.66"/>
<polygon fill="#63b8ff" stroke="#63b8ff" points="620.95,-196.68 630.66,-200.91 625.7,-191.55 620.95,-196.68"/>
</a>
</g>
</g>
<!-- Node4&#45;&gt;Node5 -->
<g id="edge4_Node000004_Node000005" class="edge">
<title>Node4&#45;&gt;Node5</title>
<g id="a_edge4_Node000004_Node000005"><a xlink:title=" ">
<path fill="none" stroke="#63b8ff" d="M829.06,-130.76C842.47,-129.1 856.24,-127.52 869.25,-126.25 929.24,-120.38 1320.24,-95.72 1485.12,-85.43"/>
<polygon fill="#63b8ff" stroke="#63b8ff" points="828.89,-127.25 819.41,-131.97 829.77,-134.19 828.89,-127.25"/>
</a>
</g>
</g>
<!-- Node11 -->
<g id="Node000011" class="node">
<title>Node11</title>
<g id="a_Node000011"><a xlink:href="BoxBuilderCore_8cc.html" target="_top" xlink:title=" ">
<polygon fill="white" stroke="#666666" points="857.5,-90.25 735,-90.25 735,-69.5 857.5,-69.5 857.5,-90.25"/>
<text text-anchor="middle" x="796.25" y="-76.75" font-family="Helvetica,sans-Serif" font-size="10.00">src/BoxBuilderCore.cc</text>
</a>
</g>
</g>
<!-- Node4&#45;&gt;Node11 -->
<g id="edge10_Node000004_Node000011" class="edge">
<title>Node4&#45;&gt;Node11</title>
<g id="a_edge10_Node000004_Node000011"><a xlink:title=" ">
<path fill="none" stroke="#63b8ff" d="M762.84,-123.42C771.38,-112.54 781.81,-99.27 788.72,-90.47"/>
<polygon fill="#63b8ff" stroke="#63b8ff" points="760.32,-120.96 756.9,-130.99 765.83,-125.29 760.32,-120.96"/>
</a>
</g>
</g>
<!-- Node4&#45;&gt;Node12 -->
<g id="edge11_Node000004_Node000012" class="edge">
<title>Node4&#45;&gt;Node12</title>
<g id="a_edge11_Node000004_Node000012"><a xlink:title=" ">
<path fill="none" stroke="#63b8ff" d="M738.61,-122.03C725.54,-94.98 702.73,-47.74 692.94,-27.45"/>
<polygon fill="#63b8ff" stroke="#63b8ff" points="735.38,-123.4 742.88,-130.89 741.69,-120.36 735.38,-123.4"/>
</a>
</g>
</g>
<!-- Node6 -->
<g id="Node000006" class="node">
<title>Node6</title>
<g id="a_Node000006"><a xlink:href="ConstructAssembly_8cc.html" target="_top" xlink:title="Created by.">
<polygon fill="white" stroke="#666666" points="1901,-33.5 1775.5,-33.5 1775.5,0 1901,0 1901,-33.5"/>
<text text-anchor="start" x="1783.5" y="-20" font-family="Helvetica,sans-Serif" font-size="10.00">demo/src/Geometries</text>
<text text-anchor="middle" x="1838.25" y="-7.25" font-family="Helvetica,sans-Serif" font-size="10.00">/ConstructAssembly.cc</text>
</a>
</g>
</g>
<!-- Node5&#45;&gt;Node6 -->
<g id="edge5_Node000005_Node000006" class="edge">
<title>Node5&#45;&gt;Node6</title>
<g id="a_edge5_Node000005_Node000006"><a xlink:title=" ">
<path fill="none" stroke="#63b8ff" d="M1615.05,-66.62C1657.09,-57.52 1715.76,-44.8 1767.25,-33.5 1769.84,-32.93 1772.48,-32.35 1775.15,-31.76"/>
<polygon fill="#63b8ff" stroke="#63b8ff" points="1614.44,-63.17 1605.41,-68.7 1615.92,-70.01 1614.44,-63.17"/>
</a>
</g>
</g>
<!-- Node7 -->
<g id="Node000007" class="node">
<title>Node7</title>
<g id="a_Node000007"><a xlink:href="ConstructBoxExample_8cc.html" target="_top" xlink:title="Created by.">
<polygon fill="white" stroke="#666666" points="1334.5,-33.5 1194,-33.5 1194,0 1334.5,0 1334.5,-33.5"/>
<text text-anchor="start" x="1202" y="-20" font-family="Helvetica,sans-Serif" font-size="10.00">demo/src/Geometries</text>
<text text-anchor="middle" x="1264.25" y="-7.25" font-family="Helvetica,sans-Serif" font-size="10.00">/ConstructBoxExample.cc</text>
</a>
</g>
</g>
<!-- Node5&#45;&gt;Node7 -->
<g id="edge6_Node000005_Node000007" class="edge">
<title>Node5&#45;&gt;Node7</title>
<g id="a_edge6_Node000005_Node000007"><a xlink:title=" ">
<path fill="none" stroke="#63b8ff" d="M1500.01,-66.77C1452.59,-56.91 1385.47,-42.95 1334.97,-32.45"/>
<polygon fill="#63b8ff" stroke="#63b8ff" points="1499.03,-70.14 1509.53,-68.75 1500.45,-63.28 1499.03,-70.14"/>
</a>
</g>
</g>
<!-- Node8 -->
<g id="Node000008" class="node">
<title>Node8</title>
<g id="a_Node000008"><a xlink:href="ConstructExample1_8cc.html" target="_top" xlink:title="Created by.">
<polygon fill="white" stroke="#666666" points="1480.12,-33.5 1352.38,-33.5 1352.38,0 1480.12,0 1480.12,-33.5"/>
<text text-anchor="start" x="1360.38" y="-20" font-family="Helvetica,sans-Serif" font-size="10.00">demo/src/Geometries</text>
<text text-anchor="middle" x="1416.25" y="-7.25" font-family="Helvetica,sans-Serif" font-size="10.00">/ConstructExample1.cc</text>
</a>
</g>
</g>
<!-- Node5&#45;&gt;Node8 -->
<g id="edge7_Node000005_Node000008" class="edge">
<title>Node5&#45;&gt;Node8</title>
<g id="a_edge7_Node000005_Node000008"><a xlink:title=" ">
<path fill="none" stroke="#63b8ff" d="M1524.95,-64.54C1503.68,-55.39 1476.05,-43.49 1453.97,-33.98"/>
<polygon fill="#63b8ff" stroke="#63b8ff" points="1523.48,-67.72 1534.05,-68.46 1526.24,-61.29 1523.48,-67.72"/>
</a>
</g>
</g>
<!-- Node9 -->
<g id="Node000009" class="node">
<title>Node9</title>
<g id="a_Node000009"><a xlink:href="ConstructHexPart_8cc.html" target="_top" xlink:title=" ">
<polygon fill="white" stroke="#666666" points="1618.75,-33.5 1497.75,-33.5 1497.75,0 1618.75,0 1618.75,-33.5"/>
<text text-anchor="start" x="1505.75" y="-20" font-family="Helvetica,sans-Serif" font-size="10.00">demo/src/Geometries</text>
<text text-anchor="middle" x="1558.25" y="-7.25" font-family="Helvetica,sans-Serif" font-size="10.00">/ConstructHexPart.cc</text>
</a>
</g>
</g>
<!-- Node5&#45;&gt;Node9 -->
<g id="edge8_Node000005_Node000009" class="edge">
<title>Node5&#45;&gt;Node9</title>
<g id="a_edge8_Node000005_Node000009"><a xlink:title=" ">
<path fill="none" stroke="#63b8ff" d="M1558.25,-57.59C1558.25,-49.85 1558.25,-41.22 1558.25,-33.98"/>
<polygon fill="#63b8ff" stroke="#63b8ff" points="1554.75,-57.54 1558.25,-67.54 1561.75,-57.54 1554.75,-57.54"/>
</a>
</g>
</g>
<!-- Node10 -->
<g id="Node000010" class="node">
<title>Node10</title>
<g id="a_Node000010"><a xlink:href="ConstructWorld_8cc.html" target="_top" xlink:title=" ">
<polygon fill="white" stroke="#666666" points="1757.75,-33.5 1636.75,-33.5 1636.75,0 1757.75,0 1757.75,-33.5"/>
<text text-anchor="start" x="1644.75" y="-20" font-family="Helvetica,sans-Serif" font-size="10.00">demo/src/Geometries</text>
<text text-anchor="middle" x="1697.25" y="-7.25" font-family="Helvetica,sans-Serif" font-size="10.00">/ConstructWorld.cc</text>
</a>
</g>
</g>
<!-- Node5&#45;&gt;Node10 -->
<g id="edge9_Node000005_Node000010" class="edge">
<title>Node5&#45;&gt;Node10</title>
<g id="a_edge9_Node000005_Node000010"><a xlink:title=" ">
<path fill="none" stroke="#63b8ff" d="M1590.84,-64.54C1611.67,-55.39 1638.72,-43.49 1660.33,-33.98"/>
<polygon fill="#63b8ff" stroke="#63b8ff" points="1589.71,-61.22 1581.97,-68.44 1592.53,-67.62 1589.71,-61.22"/>
</a>
</g>
</g>
<!-- Node13&#45;&gt;Node5 -->
<g id="edge13_Node000013_Node000005" class="edge">
<title>Node13&#45;&gt;Node5</title>
<g id="a_edge13_Node000013_Node000005"><a xlink:title=" ">
<path fill="none" stroke="#63b8ff" d="M1224.37,-130.53C1301.53,-119.06 1418.97,-101.59 1492.04,-90.72"/>
<polygon fill="#63b8ff" stroke="#63b8ff" points="1224.16,-127.02 1214.78,-131.96 1225.19,-133.95 1224.16,-127.02"/>
</a>
</g>
</g>
<!-- Node13&#45;&gt;Node12 -->
<g id="edge15_Node000013_Node000012" class="edge">
<title>Node13&#45;&gt;Node12</title>
<g id="a_edge15_Node000013_Node000012"><a xlink:title=" ">
<path fill="none" stroke="#63b8ff" d="M1131.63,-124.19C1115.56,-107.13 1088.88,-82.17 1060.25,-69.5 1007.85,-46.32 852.07,-30.58 759.55,-22.98"/>
<polygon fill="#63b8ff" stroke="#63b8ff" points="1128.67,-126.14 1138,-131.16 1133.84,-121.42 1128.67,-126.14"/>
</a>
</g>
</g>
<!-- Node13&#45;&gt;Node14 -->
<g id="edge14_Node000013_Node000014" class="edge">
<title>Node13&#45;&gt;Node14</title>
<g id="a_edge14_Node000013_Node000014"><a xlink:title=" ">
<path fill="none" stroke="#63b8ff" d="M1109.98,-128.19C1079.14,-116.77 1036.09,-100.82 1008.69,-90.67"/>
<polygon fill="#63b8ff" stroke="#63b8ff" points="1108.73,-131.46 1119.32,-131.65 1111.16,-124.9 1108.73,-131.46"/>
</a>
</g>
</g>
<!-- Node15&#45;&gt;Node5 -->
<g id="edge17_Node000015_Node000005" class="edge">
<title>Node15&#45;&gt;Node5</title>
<g id="a_edge17_Node000015_Node000005"><a xlink:title=" ">
<path fill="none" stroke="#63b8ff" d="M1397.05,-128.94C1435.52,-117.47 1490.61,-101.04 1525.39,-90.67"/>
<polygon fill="#63b8ff" stroke="#63b8ff" points="1396.22,-125.54 1387.64,-131.75 1398.22,-132.24 1396.22,-125.54"/>
</a>
</g>
</g>
<!-- Node15&#45;&gt;Node12 -->
<g id="edge19_Node000015_Node000012" class="edge">
<title>Node15&#45;&gt;Node12</title>
<g id="a_edge19_Node000015_Node000012"><a xlink:title=" ">
<path fill="none" stroke="#63b8ff" d="M1376.31,-125.42C1395.14,-109.93 1416.23,-86.68 1400.25,-69.5 1378.64,-46.26 935.6,-27.07 759.51,-20.34"/>
<polygon fill="#63b8ff" stroke="#63b8ff" points="1374.36,-122.51 1368.62,-131.41 1378.66,-128.03 1374.36,-122.51"/>
</a>
</g>
</g>
<!-- Node16 -->
<g id="Node000016" class="node">
<title>Node16</title>
<g id="a_Node000016"><a xlink:href="RZBuilderCore_8cc.html" target="_top" xlink:title=" ">
<polygon fill="white" stroke="#666666" points="1224.88,-90.25 1107.62,-90.25 1107.62,-69.5 1224.88,-69.5 1224.88,-90.25"/>
<text text-anchor="middle" x="1166.25" y="-76.75" font-family="Helvetica,sans-Serif" font-size="10.00">src/RZBuilderCore.cc</text>
</a>
</g>
</g>
<!-- Node15&#45;&gt;Node16 -->
<g id="edge18_Node000015_Node000016" class="edge">
<title>Node15&#45;&gt;Node16</title>
<g id="a_edge18_Node000015_Node000016"><a xlink:title=" ">
<path fill="none" stroke="#63b8ff" d="M1312.38,-128.64C1277.35,-117.19 1227.68,-100.95 1196.22,-90.67"/>
<polygon fill="#63b8ff" stroke="#63b8ff" points="1311.17,-131.93 1321.77,-131.71 1313.35,-125.28 1311.17,-131.93"/>
</a>
</g>
</g>
<!-- Node17&#45;&gt;Node12 -->
<g id="edge21_Node000017_Node000012" class="edge">
<title>Node17&#45;&gt;Node12</title>
<g id="a_edge21_Node000017_Node000012"><a xlink:title=" ">
<path fill="none" stroke="#63b8ff" d="M181.8,-69.09C303.17,-56.78 508.69,-35.95 616.83,-24.99"/>
<polygon fill="#63b8ff" stroke="#63b8ff" points="181.79,-65.57 172.19,-70.06 182.49,-72.54 181.79,-65.57"/>
</a>
</g>
</g>
<!-- Node18&#45;&gt;Node5 -->
<g id="edge24_Node000018_Node000005" class="edge">
<title>Node18&#45;&gt;Node5</title>
<g id="a_edge24_Node000018_Node000005"><a xlink:title=" ">
<path fill="none" stroke="#63b8ff" d="M478.47,-136.64C533.41,-133.51 604.28,-129.55 667.25,-126.25 992.97,-109.16 1074.56,-107.91 1400.25,-90.25 1427.96,-88.75 1458.4,-86.97 1485.1,-85.37"/>
<polygon fill="#63b8ff" stroke="#63b8ff" points="478.29,-133.14 468.51,-137.2 478.69,-140.13 478.29,-133.14"/>
</a>
</g>
</g>
<!-- Node18&#45;&gt;Node12 -->
<g id="edge27_Node000018_Node000012" class="edge">
<title>Node18&#45;&gt;Node12</title>
<g id="a_edge27_Node000018_Node000012"><a xlink:title=" ">
<path fill="none" stroke="#63b8ff" d="M399.16,-123.43C412.67,-106.75 434.69,-82.88 459.25,-69.5 508.02,-42.94 569.75,-29.99 616.82,-23.69"/>
<polygon fill="#63b8ff" stroke="#63b8ff" points="396.57,-121.06 393.17,-131.1 402.08,-125.38 396.57,-121.06"/>
</a>
</g>
</g>
<!-- Node18&#45;&gt;Node17 -->
<g id="edge23_Node000018_Node000017" class="edge">
<title>Node18&#45;&gt;Node17</title>
<g id="a_edge23_Node000018_Node000017"><a xlink:title=" ">
<path fill="none" stroke="#63b8ff" d="M325.8,-129.89C269.38,-118.39 185.66,-101.33 133.33,-90.67"/>
<polygon fill="#63b8ff" stroke="#63b8ff" points="325.07,-133.31 335.57,-131.88 326.47,-126.45 325.07,-133.31"/>
</a>
</g>
</g>
<!-- Node18&#45;&gt;Node19 -->
<g id="edge25_Node000018_Node000019" class="edge">
<title>Node18&#45;&gt;Node19</title>
<g id="a_edge25_Node000018_Node000019"><a xlink:title=" ">
<path fill="none" stroke="#63b8ff" d="M362.45,-125.41C347.17,-114.29 327.56,-100.02 314.71,-90.67"/>
<polygon fill="#63b8ff" stroke="#63b8ff" points="360.38,-128.23 370.53,-131.29 364.5,-122.57 360.38,-128.23"/>
</a>
</g>
</g>
<!-- Node18&#45;&gt;Node20 -->
<g id="edge26_Node000018_Node000020" class="edge">
<title>Node18&#45;&gt;Node20</title>
<g id="a_edge26_Node000018_Node000020"><a xlink:title=" ">
<path fill="none" stroke="#63b8ff" d="M478.51,-136.59C683.44,-124.66 1160.66,-96.64 1234.25,-90.25 1237.14,-90 1240.08,-89.73 1243.06,-89.45"/>
<polygon fill="#63b8ff" stroke="#63b8ff" points="478.48,-133.08 468.7,-137.16 478.88,-140.07 478.48,-133.08"/>
</a>
</g>
</g>
<!-- Node18&#45;&gt;Node21 -->
<g id="edge28_Node000018_Node000021" class="edge">
<title>Node18&#45;&gt;Node21</title>
<g id="a_edge28_Node000018_Node000021"><a xlink:title=" ">
<path fill="none" stroke="#63b8ff" d="M425.9,-128.64C460.75,-117.19 510.15,-100.95 541.44,-90.67"/>
<polygon fill="#63b8ff" stroke="#63b8ff" points="424.98,-125.26 416.57,-131.71 427.16,-131.91 424.98,-125.26"/>
</a>
</g>
</g>
<!-- Node22&#45;&gt;Node3 -->
<g id="edge62_Node000022_Node000003" class="edge">
<title>Node22&#45;&gt;Node3</title>
<g id="a_edge62_Node000022_Node000003"><a xlink:title=" ">
<path fill="none" stroke="#63b8ff" d="M938.61,-385.37C874.38,-347.99 712.42,-253.75 659.94,-223.21"/>
<polygon fill="#63b8ff" stroke="#63b8ff" points="936.68,-388.3 947.08,-390.3 940.2,-382.25 936.68,-388.3"/>
</a>
</g>
</g>
<!-- Node22&#45;&gt;Node5 -->
<g id="edge64_Node000022_Node000005" class="edge">
<title>Node22&#45;&gt;Node5</title>
<g id="a_edge64_Node000022_Node000005"><a xlink:title=" ">
<path fill="none" stroke="#63b8ff" d="M1041.71,-398.49C1178.33,-393.63 1458.88,-380.87 1553.25,-355.5 1631.36,-334.5 1717.25,-357.51 1717.25,-276.62 1717.25,-276.62 1717.25,-276.62 1717.25,-211.5 1717.25,-169.83 1708.69,-154.7 1678.25,-126.25 1659.21,-108.46 1632.51,-97.45 1609.13,-90.74"/>
<polygon fill="#63b8ff" stroke="#63b8ff" points="1041.92,-394.98 1032.05,-398.82 1042.16,-401.97 1041.92,-394.98"/>
</a>
</g>
</g>
<!-- Node22&#45;&gt;Node18 -->
<g id="edge63_Node000022_Node000018" class="edge">
<title>Node22&#45;&gt;Node18</title>
<g id="a_edge63_Node000022_Node000018"><a xlink:title=" ">
<path fill="none" stroke="#63b8ff" d="M888.82,-393.47C759.72,-379.48 506.15,-345.15 441.25,-286 400.71,-249.05 389.12,-179.01 386.16,-153.55"/>
<polygon fill="#63b8ff" stroke="#63b8ff" points="888.34,-396.94 898.66,-394.52 889.09,-389.98 888.34,-396.94"/>
</a>
</g>
</g>
<!-- Node22&#45;&gt;Node20 -->
<g id="edge65_Node000022_Node000020" class="edge">
<title>Node22&#45;&gt;Node20</title>
<g id="a_edge65_Node000022_Node000020"><a xlink:title=" ">
<path fill="none" stroke="#63b8ff" d="M1041.85,-401.84C1211.35,-401.91 1603.25,-389.83 1603.25,-276.62 1603.25,-276.62 1603.25,-276.62 1603.25,-211.5 1603.25,-118.43 1476.39,-91.39 1391.65,-83.71"/>
<polygon fill="#63b8ff" stroke="#63b8ff" points="1042.05,-398.34 1032.04,-401.82 1042.04,-405.34 1042.05,-398.34"/>
</a>
</g>
</g>
<!-- Node22&#45;&gt;Node21 -->
<g id="edge66_Node000022_Node000021" class="edge">
<title>Node22&#45;&gt;Node21</title>
<g id="a_edge66_Node000022_Node000021"><a xlink:title=" ">
<path fill="none" stroke="#63b8ff" d="M920.92,-387.7C893.63,-379.24 858.1,-367.61 827.25,-355.5 795.95,-343.22 570.4,-257.55 552.25,-229.25 523.37,-184.22 553.27,-115.58 566.05,-90.49"/>
<polygon fill="#63b8ff" stroke="#63b8ff" points="919.66,-390.97 930.25,-390.56 921.71,-384.28 919.66,-390.97"/>
</a>
</g>
</g>
<!-- Node22&#45;&gt;Node23 -->
<g id="edge39_Node000022_Node000023" class="edge">
<title>Node22&#45;&gt;Node23</title>
<g id="a_edge39_Node000022_Node000023"><a xlink:title=" ">
<path fill="none" stroke="#63b8ff" d="M989.53,-384.75C1002.89,-375.87 1019.43,-364.88 1032.81,-355.98"/>
<polygon fill="#63b8ff" stroke="#63b8ff" points="987.68,-381.77 981.29,-390.22 991.56,-387.6 987.68,-381.77"/>
</a>
</g>
</g>
<!-- Node23&#45;&gt;Node2 -->
<g id="edge40_Node000023_Node000002" class="edge">
<title>Node23&#45;&gt;Node2</title>
<g id="a_edge40_Node000023_Node000002"><a xlink:title=" ">
<path fill="none" stroke="#63b8ff" d="M978.91,-328.83C874.39,-316.94 690.88,-296.05 590.58,-284.63"/>
<polygon fill="#63b8ff" stroke="#63b8ff" points="978.49,-332.31 988.82,-329.96 979.28,-325.35 978.49,-332.31"/>
</a>
</g>
</g>
<!-- Node23&#45;&gt;Node5 -->
<g id="edge57_Node000023_Node000005" class="edge">
<title>Node23&#45;&gt;Node5</title>
<g id="a_edge57_Node000023_Node000005"><a xlink:title=" ">
<path fill="none" stroke="#63b8ff" d="M1135.36,-336.74C1289.46,-333.95 1620.78,-323.58 1655.25,-286 1703.24,-233.68 1693.36,-186.15 1655.25,-126.25 1643.82,-108.29 1623.21,-97.32 1603.92,-90.68"/>
<polygon fill="#63b8ff" stroke="#63b8ff" points="1135.58,-333.24 1125.64,-336.91 1135.7,-340.24 1135.58,-333.24"/>
</a>
</g>
</g>
<!-- Node23&#45;&gt;Node12 -->
<g id="edge61_Node000023_Node000012" class="edge">
<title>Node23&#45;&gt;Node12</title>
<g id="a_edge61_Node000023_Node000012"><a xlink:title=" ">
<path fill="none" stroke="#63b8ff" d="M1135.37,-334.92C1308.18,-325.71 1698.76,-286.99 1583.25,-126.25 1553.97,-85.5 1523.74,-106.45 1476.25,-90.25 1449.54,-81.14 1443.89,-75.16 1416.25,-69.5 1292.12,-44.08 917.61,-26.79 759.7,-20.45"/>
<polygon fill="#63b8ff" stroke="#63b8ff" points="1135.38,-331.41 1125.57,-335.42 1135.73,-338.4 1135.38,-331.41"/>
</a>
</g>
</g>
<!-- Node23&#45;&gt;Node14 -->
<g id="edge58_Node000023_Node000014" class="edge">
<title>Node23&#45;&gt;Node14</title>
<g id="a_edge58_Node000023_Node000014"><a xlink:title=" ">
<path fill="none" stroke="#63b8ff" d="M1056.92,-310.12C1055.46,-268.4 1048.79,-187.65 1020.25,-126.25 1013.75,-112.27 1001.82,-99.1 993.06,-90.58"/>
<polygon fill="#63b8ff" stroke="#63b8ff" points="1053.42,-310.1 1057.18,-320.01 1060.42,-309.92 1053.42,-310.1"/>
</a>
</g>
</g>
<!-- Node23&#45;&gt;Node16 -->
<g id="edge59_Node000023_Node000016" class="edge">
<title>Node23&#45;&gt;Node16</title>
<g id="a_edge59_Node000023_Node000016"><a xlink:title=" ">
<path fill="none" stroke="#63b8ff" d="M1135.16,-325.72C1224.55,-307.3 1367.16,-262.7 1432.25,-159.75 1440.21,-147.17 1441.85,-137.63 1432.25,-126.25 1425.58,-118.35 1301.67,-99.78 1225.35,-89"/>
<polygon fill="#63b8ff" stroke="#63b8ff" points="1134.6,-322.27 1125.48,-327.65 1135.97,-329.13 1134.6,-322.27"/>
</a>
</g>
</g>
<!-- Node23&#45;&gt;Node20 -->
<g id="edge60_Node000023_Node000020" class="edge">
<title>Node23&#45;&gt;Node20</title>
<g id="a_edge60_Node000023_Node000020"><a xlink:title=" ">
<path fill="none" stroke="#63b8ff" d="M1135.33,-331.59C1211.34,-321.72 1325.85,-296.04 1399.25,-229.25 1436.89,-195 1478.81,-167.67 1449.25,-126.25 1435.74,-107.31 1413.79,-96.2 1391.65,-89.7"/>
<polygon fill="#63b8ff" stroke="#63b8ff" points="1134.94,-328.11 1125.44,-332.81 1135.79,-335.06 1134.94,-328.11"/>
</a>
</g>
</g>
<!-- Node23&#45;&gt;Node24 -->
<g id="edge41_Node000023_Node000024" class="edge">
<title>Node23&#45;&gt;Node24</title>
<g id="a_edge41_Node000023_Node000024"><a xlink:title=" ">
<path fill="none" stroke="#63b8ff" d="M1042.13,-311.83C1018.4,-271.15 973.11,-193.48 953.58,-160"/>
<polygon fill="#63b8ff" stroke="#63b8ff" points="1038.99,-313.38 1047.05,-320.26 1045.03,-309.86 1038.99,-313.38"/>
</a>
</g>
</g>
<!-- Node23&#45;&gt;Node25 -->
<g id="edge50_Node000023_Node000025" class="edge">
<title>Node23&#45;&gt;Node25</title>
<g id="a_edge50_Node000023_Node000025"><a xlink:title=" ">
<path fill="none" stroke="#63b8ff" d="M1014.71,-316.35C965.82,-291.76 886.65,-251.93 842.55,-229.75"/>
<polygon fill="#63b8ff" stroke="#63b8ff" points="1013.1,-319.46 1023.61,-320.83 1016.25,-313.21 1013.1,-319.46"/>
</a>
</g>
</g>
<!-- Node24&#45;&gt;Node5 -->
<g id="edge42_Node000024_Node000005" class="edge">
<title>Node24&#45;&gt;Node5</title>
<g id="a_edge42_Node000024_Node000005"><a xlink:title=" ">
<path fill="none" stroke="#63b8ff" d="M1022.47,-130.7C1034.44,-129.11 1046.67,-127.57 1058.25,-126.25 1209.8,-108.91 1387.8,-94.08 1485.27,-86.42"/>
<polygon fill="#63b8ff" stroke="#63b8ff" points="1022.04,-127.23 1012.6,-132.03 1022.97,-134.16 1022.04,-127.23"/>
</a>
</g>
</g>
<!-- Node24&#45;&gt;Node11 -->
<g id="edge44_Node000024_Node000011" class="edge">
<title>Node24&#45;&gt;Node11</title>
<g id="a_edge44_Node000024_Node000011"><a xlink:title=" ">
<path fill="none" stroke="#63b8ff" d="M894.49,-121.45C869.34,-111.06 839.98,-98.94 819.95,-90.67"/>
<polygon fill="#63b8ff" stroke="#63b8ff" points="893,-124.62 903.58,-125.2 895.67,-118.15 893,-124.62"/>
</a>
</g>
</g>
<!-- Node24&#45;&gt;Node12 -->
<g id="edge48_Node000024_Node000012" class="edge">
<title>Node24&#45;&gt;Node12</title>
<g id="a_edge48_Node000024_Node000012"><a xlink:title=" ">
<path fill="none" stroke="#63b8ff" d="M923.54,-117.56C908.98,-101.79 888.23,-81.97 866.25,-69.5 829.16,-48.46 782.78,-35.34 746.66,-27.57"/>
<polygon fill="#63b8ff" stroke="#63b8ff" points="920.67,-119.6 929.95,-124.7 925.88,-114.92 920.67,-119.6"/>
</a>
</g>
</g>
<!-- Node24&#45;&gt;Node14 -->
<g id="edge45_Node000024_Node000014" class="edge">
<title>Node24&#45;&gt;Node14</title>
<g id="a_edge45_Node000024_Node000014"><a xlink:title=" ">
<path fill="none" stroke="#63b8ff" d="M960.3,-116.19C965.89,-107.18 971.84,-97.62 976.13,-90.72"/>
<polygon fill="#63b8ff" stroke="#63b8ff" points="957.34,-114.31 955.03,-124.65 963.29,-118.01 957.34,-114.31"/>
</a>
</g>
</g>
<!-- Node24&#45;&gt;Node16 -->
<g id="edge46_Node000024_Node000016" class="edge">
<title>Node24&#45;&gt;Node16</title>
<g id="a_edge46_Node000024_Node000016"><a xlink:title=" ">
<path fill="none" stroke="#63b8ff" d="M1013.87,-122.83C1052.66,-112.15 1099.31,-99.31 1130.69,-90.67"/>
<polygon fill="#63b8ff" stroke="#63b8ff" points="1013.33,-119.35 1004.62,-125.38 1015.19,-126.1 1013.33,-119.35"/>
</a>
</g>
</g>
<!-- Node24&#45;&gt;Node19 -->
<g id="edge43_Node000024_Node000019" class="edge">
<title>Node24&#45;&gt;Node19</title>
<g id="a_edge43_Node000024_Node000019"><a xlink:title=" ">
<path fill="none" stroke="#63b8ff" d="M866.04,-130.65C854.06,-129.07 841.84,-127.55 830.25,-126.25 659.86,-107.19 457.81,-91.87 360.06,-84.92"/>
<polygon fill="#63b8ff" stroke="#63b8ff" points="865.53,-134.11 875.91,-131.98 866.47,-127.18 865.53,-134.11"/>
</a>
</g>
</g>
<!-- Node24&#45;&gt;Node20 -->
<g id="edge47_Node000024_Node000020" class="edge">
<title>Node24&#45;&gt;Node20</title>
<g id="a_edge47_Node000024_Node000020"><a xlink:title=" ">
<path fill="none" stroke="#63b8ff" d="M1021.87,-129.28C1091.76,-117.83 1193.05,-101.23 1257,-90.75"/>
<polygon fill="#63b8ff" stroke="#63b8ff" points="1021.73,-125.76 1012.43,-130.83 1022.86,-132.66 1021.73,-125.76"/>
</a>
</g>
</g>
<!-- Node24&#45;&gt;Node21 -->
<g id="edge49_Node000024_Node000021" class="edge">
<title>Node24&#45;&gt;Node21</title>
<g id="a_edge49_Node000024_Node000021"><a xlink:title=" ">
<path fill="none" stroke="#63b8ff" d="M866.63,-129.28C796.74,-117.83 695.45,-101.23 631.5,-90.75"/>
<polygon fill="#63b8ff" stroke="#63b8ff" points="865.64,-132.66 876.07,-130.83 866.77,-125.76 865.64,-132.66"/>
</a>
</g>
</g>
<!-- Node25&#45;&gt;Node12 -->
<g id="edge55_Node000025_Node000012" class="edge">
<title>Node25&#45;&gt;Node12</title>
<g id="a_edge55_Node000025_Node000012"><a xlink:title=" ">
<path fill="none" stroke="#63b8ff" d="M732.95,-192.13C703.83,-183.13 675.69,-171.78 667.25,-159.75 637.91,-117.93 669.03,-52.03 682.59,-27.43"/>
<polygon fill="#63b8ff" stroke="#63b8ff" points="731.65,-195.39 742.23,-194.89 733.65,-188.68 731.65,-195.39"/>
</a>
</g>
</g>
<!-- Node25&#45;&gt;Node15 -->
<g id="edge51_Node000025_Node000015" class="edge">
<title>Node25&#45;&gt;Node15</title>
<g id="a_edge51_Node000025_Node000015"><a xlink:title=" ">
<path fill="none" stroke="#63b8ff" d="M888.34,-204.45C979.86,-195.78 1135.97,-179.73 1269.25,-159.75 1280.55,-158.06 1292.65,-155.96 1304.05,-153.85"/>
<polygon fill="#63b8ff" stroke="#63b8ff" points="888.1,-200.96 878.47,-205.38 888.75,-207.93 888.1,-200.96"/>
</a>
</g>
</g>
<!-- Node25&#45;&gt;Node17 -->
<g id="edge53_Node000025_Node000017" class="edge">
<title>Node25&#45;&gt;Node17</title>
<g id="a_edge53_Node000025_Node000017"><a xlink:title=" ">
<path fill="none" stroke="#63b8ff" d="M732.42,-195.63C537.98,-169.06 482.12,-202.01 294.25,-159.75 222.36,-143.58 142.06,-107.96 105.43,-90.68"/>
<polygon fill="#63b8ff" stroke="#63b8ff" points="731.71,-199.07 742.1,-197 732.69,-192.14 731.71,-199.07"/>
</a>
</g>
</g>
<!-- Node25&#45;&gt;Node20 -->
<g id="edge54_Node000025_Node000020" class="edge">
<title>Node25&#45;&gt;Node20</title>
<g id="a_edge54_Node000025_Node000020"><a xlink:title=" ">
<path fill="none" stroke="#63b8ff" d="M888.2,-205.1C1055.03,-191.39 1431.68,-160.37 1432.25,-159.75 1442.33,-148.79 1440.63,-138.56 1432.25,-126.25 1419.93,-108.15 1399.18,-97.27 1378.66,-90.73"/>
<polygon fill="#63b8ff" stroke="#63b8ff" points="888.23,-201.58 878.55,-205.89 888.8,-208.56 888.23,-201.58"/>
</a>
</g>
</g>
<!-- Node25&#45;&gt;Node21 -->
<g id="edge56_Node000025_Node000021" class="edge">
<title>Node25&#45;&gt;Node21</title>
<g id="a_edge56_Node000025_Node000021"><a xlink:title=" ">
<path fill="none" stroke="#63b8ff" d="M732.3,-193.68C692.88,-183.7 649.92,-171.02 633.25,-159.75 606.12,-141.41 585.4,-107.47 576.31,-90.73"/>
<polygon fill="#63b8ff" stroke="#63b8ff" points="731.29,-197.04 741.84,-196.06 732.98,-190.24 731.29,-197.04"/>
</a>
</g>
</g>
<!-- Node25&#45;&gt;Node24 -->
<g id="edge52_Node000025_Node000024" class="edge">
<title>Node25&#45;&gt;Node24</title>
<g id="a_edge52_Node000025_Node000024"><a xlink:title=" ">
<path fill="none" stroke="#63b8ff" d="M852.45,-190.24C871.85,-180.47 894.48,-169.07 912.42,-160.04"/>
<polygon fill="#63b8ff" stroke="#63b8ff" points="851.05,-187.03 843.7,-194.65 854.2,-193.28 851.05,-187.03"/>
</a>
</g>
</g>
</g>
</svg>
