<?xml version="1.0" encoding="UTF-8" standalone="no"?>
<!DOCTYPE svg PUBLIC "-//W3C//DTD SVG 1.1//EN"
 "http://www.w3.org/Graphics/SVG/1.1/DTD/svg11.dtd">
<!-- Generated by graphviz version 12.0.0 (20240803.0821)
 -->
<!-- Title: include/Linkable.hh Pages: 1 -->
<svg width="364pt" height="86pt"
 viewBox="0.00 0.00 364.00 85.50" xmlns="http://www.w3.org/2000/svg" xmlns:xlink="http://www.w3.org/1999/xlink">
<g id="graph0" class="graph" transform="scale(1 1) rotate(0) translate(4 81.5)">
<title>include/Linkable.hh</title>
<!-- Node1 -->
<g id="Node000001" class="node">
<title>Node1</title>
<g id="a_Node000001"><a xlink:title=" ">
<polygon fill="#999999" stroke="#666666" points="227.5,-77.5 117.75,-77.5 117.75,-56.75 227.5,-56.75 227.5,-77.5"/>
<text text-anchor="middle" x="172.62" y="-64" font-family="Helvetica,sans-Serif" font-size="10.00">include/Linkable.hh</text>
</a>
</g>
</g>
<!-- Node2 -->
<g id="Node000002" class="node">
<title>Node2</title>
<g id="a_Node000002"><a xlink:title=" ">
<polygon fill="#e0e0e0" stroke="#999999" points="57.25,-20.75 0,-20.75 0,0 57.25,0 57.25,-20.75"/>
<text text-anchor="middle" x="28.62" y="-7.25" font-family="Helvetica,sans-Serif" font-size="10.00">memory</text>
</a>
</g>
</g>
<!-- Node1&#45;&gt;Node2 -->
<g id="edge1_Node000001_Node000002" class="edge">
<title>Node1&#45;&gt;Node2</title>
<g id="a_edge1_Node000001_Node000002"><a xlink:title=" ">
<path fill="none" stroke="#63b8ff" d="M146.88,-56.34C124.05,-47.66 90.45,-34.88 64.9,-25.17"/>
<polygon fill="#63b8ff" stroke="#63b8ff" points="66.15,-21.9 55.56,-21.62 63.66,-28.44 66.15,-21.9"/>
</a>
</g>
</g>
<!-- Node3 -->
<g id="Node000003" class="node">
<title>Node3</title>
<g id="a_Node000003"><a xlink:title=" ">
<polygon fill="#e0e0e0" stroke="#999999" points="122.38,-20.75 74.88,-20.75 74.88,0 122.38,0 122.38,-20.75"/>
<text text-anchor="middle" x="98.62" y="-7.25" font-family="Helvetica,sans-Serif" font-size="10.00">mutex</text>
</a>
</g>
</g>
<!-- Node1&#45;&gt;Node3 -->
<g id="edge2_Node000001_Node000003" class="edge">
<title>Node1&#45;&gt;Node3</title>
<g id="a_edge2_Node000001_Node000003"><a xlink:title=" ">
<path fill="none" stroke="#63b8ff" d="M159.4,-56.34C148.66,-48.4 133.3,-37.03 120.71,-27.71"/>
<polygon fill="#63b8ff" stroke="#63b8ff" points="123.08,-25.11 112.96,-21.98 118.91,-30.74 123.08,-25.11"/>
</a>
</g>
</g>
<!-- Node4 -->
<g id="Node000004" class="node">
<title>Node4</title>
<g id="a_Node000004"><a xlink:title=" ">
<polygon fill="#e0e0e0" stroke="#999999" points="204.62,-20.75 140.62,-20.75 140.62,0 204.62,0 204.62,-20.75"/>
<text text-anchor="middle" x="172.62" y="-7.25" font-family="Helvetica,sans-Serif" font-size="10.00">stdexcept</text>
</a>
</g>
</g>
<!-- Node1&#45;&gt;Node4 -->
<g id="edge3_Node000001_Node000004" class="edge">
<title>Node1&#45;&gt;Node4</title>
<g id="a_edge3_Node000001_Node000004"><a xlink:title=" ">
<path fill="none" stroke="#63b8ff" d="M172.62,-56.34C172.62,-49.72 172.62,-40.72 172.62,-32.52"/>
<polygon fill="#63b8ff" stroke="#63b8ff" points="176.13,-32.59 172.63,-22.59 169.13,-32.59 176.13,-32.59"/>
</a>
</g>
</g>
<!-- Node5 -->
<g id="Node000005" class="node">
<title>Node5</title>
<g id="a_Node000005"><a xlink:title=" ">
<polygon fill="#e0e0e0" stroke="#999999" points="290.88,-20.75 222.38,-20.75 222.38,0 290.88,0 290.88,-20.75"/>
<text text-anchor="middle" x="256.62" y="-7.25" font-family="Helvetica,sans-Serif" font-size="10.00">type_traits</text>
</a>
</g>
</g>
<!-- Node1&#45;&gt;Node5 -->
<g id="edge4_Node000001_Node000005" class="edge">
<title>Node1&#45;&gt;Node5</title>
<g id="a_edge4_Node000001_Node000005"><a xlink:title=" ">
<path fill="none" stroke="#63b8ff" d="M187.64,-56.34C200.07,-48.24 217.95,-36.58 232.4,-27.17"/>
<polygon fill="#63b8ff" stroke="#63b8ff" points="234,-30.3 240.47,-21.9 230.18,-24.43 234,-30.3"/>
</a>
</g>
</g>
<!-- Node6 -->
<g id="Node000006" class="node">
<title>Node6</title>
<g id="a_Node000006"><a xlink:title=" ">
<polygon fill="#e0e0e0" stroke="#999999" points="356,-20.75 309.25,-20.75 309.25,0 356,0 356,-20.75"/>
<text text-anchor="middle" x="332.62" y="-7.25" font-family="Helvetica,sans-Serif" font-size="10.00">vector</text>
</a>
</g>
</g>
<!-- Node1&#45;&gt;Node6 -->
<g id="edge5_Node000001_Node000006" class="edge">
<title>Node1&#45;&gt;Node6</title>
<g id="a_edge5_Node000001_Node000006"><a xlink:title=" ">
<path fill="none" stroke="#63b8ff" d="M201.23,-56.34C228.37,-47.05 269.19,-33.08 298.12,-23.18"/>
<polygon fill="#63b8ff" stroke="#63b8ff" points="299.19,-26.51 307.52,-19.96 296.93,-19.89 299.19,-26.51"/>
</a>
</g>
</g>
</g>
</svg>
