<?xml version="1.0" encoding="UTF-8" standalone="no"?>
<!DOCTYPE svg PUBLIC "-//W3C//DTD SVG 1.1//EN"
 "http://www.w3.org/Graphics/SVG/1.1/DTD/svg11.dtd">
<!-- Generated by graphviz version 12.0.0 (20240803.0821)
 -->
<!-- Title: include/MaterialsHelpers.hh Pages: 1 -->
<svg width="1069pt" height="325pt"
 viewBox="0.00 0.00 1068.88 325.25" xmlns="http://www.w3.org/2000/svg" xmlns:xlink="http://www.w3.org/1999/xlink">
<g id="graph0" class="graph" transform="scale(1 1) rotate(0) translate(4 321.25)">
<title>include/MaterialsHelpers.hh</title>
<!-- Node1 -->
<g id="Node000001" class="node">
<title>Node1</title>
<g id="a_Node000001"><a xlink:title=" ">
<polygon fill="#999999" stroke="#666666" points="835.38,-317.25 682.88,-317.25 682.88,-296.5 835.38,-296.5 835.38,-317.25"/>
<text text-anchor="middle" x="759.12" y="-303.75" font-family="Helvetica,sans-Serif" font-size="10.00">include/MaterialsHelpers.hh</text>
</a>
</g>
</g>
<!-- Node2 -->
<g id="Node000002" class="node">
<title>Node2</title>
<g id="a_Node000002"><a xlink:href="VolumeBuildersTypes_8hh.html" target="_top" xlink:title=" ">
<polygon fill="white" stroke="#666666" points="810.75,-203.75 675.5,-203.75 675.5,-183 810.75,-183 810.75,-203.75"/>
<text text-anchor="middle" x="743.12" y="-190.25" font-family="Helvetica,sans-Serif" font-size="10.00">VolumeBuildersTypes.hh</text>
</a>
</g>
</g>
<!-- Node1&#45;&gt;Node2 -->
<g id="edge1_Node000001_Node000002" class="edge">
<title>Node1&#45;&gt;Node2</title>
<g id="a_edge1_Node000001_Node000002"><a xlink:title=" ">
<path fill="none" stroke="#63b8ff" d="M741.89,-296.03C729.95,-288.14 715.02,-275.85 708.12,-260.5 700.61,-243.75 712.07,-225.33 723.84,-212.2"/>
<polygon fill="#63b8ff" stroke="#63b8ff" points="726.27,-214.72 730.75,-205.12 721.26,-209.83 726.27,-214.72"/>
</a>
</g>
</g>
<!-- Node15 -->
<g id="Node000015" class="node">
<title>Node15</title>
<g id="a_Node000015"><a xlink:href="VolumeBuildersUnitTypes_8hh.html" target="_top" xlink:title=" ">
<polygon fill="white" stroke="#666666" points="605.88,-260.5 450.38,-260.5 450.38,-239.75 605.88,-239.75 605.88,-260.5"/>
<text text-anchor="middle" x="528.12" y="-247" font-family="Helvetica,sans-Serif" font-size="10.00">VolumeBuildersUnitTypes.hh</text>
</a>
</g>
</g>
<!-- Node1&#45;&gt;Node15 -->
<g id="edge18_Node000001_Node000015" class="edge">
<title>Node1&#45;&gt;Node15</title>
<g id="a_edge18_Node000001_Node000015"><a xlink:title=" ">
<path fill="none" stroke="#63b8ff" d="M717.56,-296.02C679.25,-286.94 622.21,-273.42 580.73,-263.59"/>
<polygon fill="#63b8ff" stroke="#63b8ff" points="581.76,-260.24 571.22,-261.34 580.14,-267.05 581.76,-260.24"/>
</a>
</g>
</g>
<!-- Node21 -->
<g id="Node000021" class="node">
<title>Node21</title>
<g id="a_Node000021"><a xlink:title=" ">
<polygon fill="#e0e0e0" stroke="#999999" points="801.62,-260.5 716.62,-260.5 716.62,-239.75 801.62,-239.75 801.62,-260.5"/>
<text text-anchor="middle" x="759.12" y="-247" font-family="Helvetica,sans-Serif" font-size="10.00">G4Material.hh</text>
</a>
</g>
</g>
<!-- Node1&#45;&gt;Node21 -->
<g id="edge26_Node000001_Node000021" class="edge">
<title>Node1&#45;&gt;Node21</title>
<g id="a_edge26_Node000001_Node000021"><a xlink:title=" ">
<path fill="none" stroke="#63b8ff" d="M759.12,-296.09C759.12,-289.47 759.12,-280.47 759.12,-272.27"/>
<polygon fill="#63b8ff" stroke="#63b8ff" points="762.63,-272.34 759.13,-262.34 755.63,-272.34 762.63,-272.34"/>
</a>
</g>
</g>
<!-- Node22 -->
<g id="Node000022" class="node">
<title>Node22</title>
<g id="a_Node000022"><a xlink:title=" ">
<polygon fill="#e0e0e0" stroke="#999999" points="892.62,-260.5 819.62,-260.5 819.62,-239.75 892.62,-239.75 892.62,-260.5"/>
<text text-anchor="middle" x="856.12" y="-247" font-family="Helvetica,sans-Serif" font-size="10.00">G4String.hh</text>
</a>
</g>
</g>
<!-- Node1&#45;&gt;Node22 -->
<g id="edge27_Node000001_Node000022" class="edge">
<title>Node1&#45;&gt;Node22</title>
<g id="a_edge27_Node000001_Node000022"><a xlink:title=" ">
<path fill="none" stroke="#63b8ff" d="M776.47,-296.09C791.09,-287.83 812.26,-275.88 829.1,-266.38"/>
<polygon fill="#63b8ff" stroke="#63b8ff" points="830.63,-269.54 837.62,-261.57 827.19,-263.44 830.63,-269.54"/>
</a>
</g>
</g>
<!-- Node23 -->
<g id="Node000023" class="node">
<title>Node23</title>
<g id="a_Node000023"><a xlink:title=" ">
<polygon fill="#e0e0e0" stroke="#999999" points="995.62,-260.5 910.62,-260.5 910.62,-239.75 995.62,-239.75 995.62,-260.5"/>
<text text-anchor="middle" x="953.12" y="-247" font-family="Helvetica,sans-Serif" font-size="10.00">G4Element.hh</text>
</a>
</g>
</g>
<!-- Node1&#45;&gt;Node23 -->
<g id="edge28_Node000001_Node000023" class="edge">
<title>Node1&#45;&gt;Node23</title>
<g id="a_edge28_Node000001_Node000023"><a xlink:title=" ">
<path fill="none" stroke="#63b8ff" d="M793.81,-296.09C825.57,-287.12 872.8,-273.79 907.59,-263.98"/>
<polygon fill="#63b8ff" stroke="#63b8ff" points="908.29,-267.42 916.96,-261.33 906.38,-260.68 908.29,-267.42"/>
</a>
</g>
</g>
<!-- Node3 -->
<g id="Node000003" class="node">
<title>Node3</title>
<g id="a_Node000003"><a xlink:title=" ">
<polygon fill="#e0e0e0" stroke="#999999" points="680.25,-140.62 578,-140.62 578,-119.88 680.25,-119.88 680.25,-140.62"/>
<text text-anchor="middle" x="629.12" y="-127.12" font-family="Helvetica,sans-Serif" font-size="10.00">G4ThreeVector.hh</text>
</a>
</g>
</g>
<!-- Node2&#45;&gt;Node3 -->
<g id="edge2_Node000002_Node000003" class="edge">
<title>Node2&#45;&gt;Node3</title>
<g id="a_edge2_Node000002_Node000003"><a xlink:title=" ">
<path fill="none" stroke="#63b8ff" d="M724.81,-182.55C706.61,-172.8 678.45,-157.7 657.38,-146.4"/>
<polygon fill="#63b8ff" stroke="#63b8ff" points="659.2,-143.4 648.73,-141.76 655.89,-149.57 659.2,-143.4"/>
</a>
</g>
</g>
<!-- Node4 -->
<g id="Node000004" class="node">
<title>Node4</title>
<g id="a_Node000004"><a xlink:title=" ">
<polygon fill="#e0e0e0" stroke="#999999" points="909.75,-77.5 852.5,-77.5 852.5,-56.75 909.75,-56.75 909.75,-77.5"/>
<text text-anchor="middle" x="881.12" y="-64" font-family="Helvetica,sans-Serif" font-size="10.00">memory</text>
</a>
</g>
</g>
<!-- Node2&#45;&gt;Node4 -->
<g id="edge3_Node000002_Node000004" class="edge">
<title>Node2&#45;&gt;Node4</title>
<g id="a_edge3_Node000002_Node000004"><a xlink:title=" ">
<path fill="none" stroke="#63b8ff" d="M800.03,-182.57C822.27,-176.01 846.21,-165.1 862.12,-147 876.06,-131.16 880.19,-106.87 881.22,-89.42"/>
<polygon fill="#63b8ff" stroke="#63b8ff" points="884.72,-89.52 881.48,-79.43 877.72,-89.34 884.72,-89.52"/>
</a>
</g>
</g>
<!-- Node5 -->
<g id="Node000005" class="node">
<title>Node5</title>
<g id="a_Node000005"><a xlink:title=" ">
<polygon fill="#e0e0e0" stroke="#999999" points="560,-140.62 504.25,-140.62 504.25,-119.88 560,-119.88 560,-140.62"/>
<text text-anchor="middle" x="532.12" y="-127.12" font-family="Helvetica,sans-Serif" font-size="10.00">optional</text>
</a>
</g>
</g>
<!-- Node2&#45;&gt;Node5 -->
<g id="edge4_Node000002_Node000005" class="edge">
<title>Node2&#45;&gt;Node5</title>
<g id="a_edge4_Node000002_Node000005"><a xlink:title=" ">
<path fill="none" stroke="#63b8ff" d="M697.88,-182.51C662.45,-174.32 612.12,-161.67 569.12,-147 567.56,-146.46 565.96,-145.89 564.35,-145.3"/>
<polygon fill="#63b8ff" stroke="#63b8ff" points="565.82,-142.11 555.24,-141.68 563.24,-148.62 565.82,-142.11"/>
</a>
</g>
</g>
<!-- Node6 -->
<g id="Node000006" class="node">
<title>Node6</title>
<g id="a_Node000006"><a xlink:title=" ">
<polygon fill="#e0e0e0" stroke="#999999" points="853.5,-140.62 806.75,-140.62 806.75,-119.88 853.5,-119.88 853.5,-140.62"/>
<text text-anchor="middle" x="830.12" y="-127.12" font-family="Helvetica,sans-Serif" font-size="10.00">vector</text>
</a>
</g>
</g>
<!-- Node2&#45;&gt;Node6 -->
<g id="edge5_Node000002_Node000006" class="edge">
<title>Node2&#45;&gt;Node6</title>
<g id="a_edge5_Node000002_Node000006"><a xlink:title=" ">
<path fill="none" stroke="#63b8ff" d="M757.1,-182.55C770.55,-173.11 791.12,-158.66 807,-147.5"/>
<polygon fill="#63b8ff" stroke="#63b8ff" points="808.77,-150.53 814.94,-141.92 804.75,-144.8 808.77,-150.53"/>
</a>
</g>
</g>
<!-- Node7 -->
<g id="Node000007" class="node">
<title>Node7</title>
<g id="a_Node000007"><a xlink:href="disableable__shared__from__this_8hh.html" target="_top" xlink:title="Created by.">
<polygon fill="white" stroke="#666666" points="1019.38,-147 908.88,-147 908.88,-113.5 1019.38,-113.5 1019.38,-147"/>
<text text-anchor="start" x="916.88" y="-133.5" font-family="Helvetica,sans-Serif" font-size="10.00">disableable_shared</text>
<text text-anchor="middle" x="964.12" y="-120.75" font-family="Helvetica,sans-Serif" font-size="10.00">_from_this.hh</text>
</a>
</g>
</g>
<!-- Node2&#45;&gt;Node7 -->
<g id="edge6_Node000002_Node000007" class="edge">
<title>Node2&#45;&gt;Node7</title>
<g id="a_edge6_Node000002_Node000007"><a xlink:title=" ">
<path fill="none" stroke="#63b8ff" d="M778.63,-182.55C810.57,-173.72 858.34,-160.51 897.4,-149.7"/>
<polygon fill="#63b8ff" stroke="#63b8ff" points="898.27,-153.1 906.97,-147.06 896.4,-146.35 898.27,-153.1"/>
</a>
</g>
</g>
<!-- Node10 -->
<g id="Node000010" class="node">
<title>Node10</title>
<g id="a_Node000010"><a xlink:href="i__shared__ptr_8hh.html" target="_top" xlink:title=" ">
<polygon fill="white" stroke="#666666" points="788.25,-140.62 698,-140.62 698,-119.88 788.25,-119.88 788.25,-140.62"/>
<text text-anchor="middle" x="743.12" y="-127.12" font-family="Helvetica,sans-Serif" font-size="10.00">i_shared_ptr.hh</text>
</a>
</g>
</g>
<!-- Node2&#45;&gt;Node10 -->
<g id="edge10_Node000002_Node000010" class="edge">
<title>Node2&#45;&gt;Node10</title>
<g id="a_edge10_Node000002_Node000010"><a xlink:title=" ">
<path fill="none" stroke="#63b8ff" d="M743.12,-182.55C743.12,-174.4 743.12,-162.51 743.12,-152.23"/>
<polygon fill="#63b8ff" stroke="#63b8ff" points="746.63,-152.36 743.13,-142.36 739.63,-152.36 746.63,-152.36"/>
</a>
</g>
</g>
<!-- Node7&#45;&gt;Node4 -->
<g id="edge9_Node000007_Node000004" class="edge">
<title>Node7&#45;&gt;Node4</title>
<g id="a_edge9_Node000007_Node000004"><a xlink:title=" ">
<path fill="none" stroke="#63b8ff" d="M942.32,-113.19C930.34,-104.37 915.52,-93.45 903.46,-84.57"/>
<polygon fill="#63b8ff" stroke="#63b8ff" points="905.84,-81.98 895.71,-78.86 901.68,-87.61 905.84,-81.98"/>
</a>
</g>
</g>
<!-- Node8 -->
<g id="Node000008" class="node">
<title>Node8</title>
<g id="a_Node000008"><a xlink:title=" ">
<polygon fill="#e0e0e0" stroke="#999999" points="983,-77.5 933.25,-77.5 933.25,-56.75 983,-56.75 983,-77.5"/>
<text text-anchor="middle" x="958.12" y="-64" font-family="Helvetica,sans-Serif" font-size="10.00">atomic</text>
</a>
</g>
</g>
<!-- Node7&#45;&gt;Node8 -->
<g id="edge7_Node000007_Node000008" class="edge">
<title>Node7&#45;&gt;Node8</title>
<g id="a_edge7_Node000007_Node000008"><a xlink:title=" ">
<path fill="none" stroke="#63b8ff" d="M962.55,-113.19C961.83,-105.85 960.97,-97.07 960.19,-89.21"/>
<polygon fill="#63b8ff" stroke="#63b8ff" points="963.7,-89.08 959.24,-79.47 956.73,-89.77 963.7,-89.08"/>
</a>
</g>
</g>
<!-- Node9 -->
<g id="Node000009" class="node">
<title>Node9</title>
<g id="a_Node000009"><a xlink:title=" ">
<polygon fill="#e0e0e0" stroke="#999999" points="1060.88,-77.5 1001.38,-77.5 1001.38,-56.75 1060.88,-56.75 1060.88,-77.5"/>
<text text-anchor="middle" x="1031.12" y="-64" font-family="Helvetica,sans-Serif" font-size="10.00">iostream</text>
</a>
</g>
</g>
<!-- Node7&#45;&gt;Node9 -->
<g id="edge8_Node000007_Node000009" class="edge">
<title>Node7&#45;&gt;Node9</title>
<g id="a_edge8_Node000007_Node000009"><a xlink:title=" ">
<path fill="none" stroke="#63b8ff" d="M981.73,-113.19C991.01,-104.72 1002.42,-94.31 1011.93,-85.64"/>
<polygon fill="#63b8ff" stroke="#63b8ff" points="1014.19,-88.31 1019.22,-78.99 1009.47,-83.14 1014.19,-88.31"/>
</a>
</g>
</g>
<!-- Node10&#45;&gt;Node4 -->
<g id="edge13_Node000010_Node000004" class="edge">
<title>Node10&#45;&gt;Node4</title>
<g id="a_edge13_Node000010_Node000004"><a xlink:title=" ">
<path fill="none" stroke="#63b8ff" d="M765.3,-119.43C787.83,-109.45 822.98,-93.88 848.65,-82.51"/>
<polygon fill="#63b8ff" stroke="#63b8ff" points="849.9,-85.78 857.62,-78.53 847.06,-79.38 849.9,-85.78"/>
</a>
</g>
</g>
<!-- Node11 -->
<g id="Node000011" class="node">
<title>Node11</title>
<g id="a_Node000011"><a xlink:title=" ">
<polygon fill="#e0e0e0" stroke="#999999" points="672,-20.75 556.25,-20.75 556.25,0 672,0 672,-20.75"/>
<text text-anchor="middle" x="614.12" y="-7.25" font-family="Helvetica,sans-Serif" font-size="10.00">G4LogicalVolume.hh</text>
</a>
</g>
</g>
<!-- Node10&#45;&gt;Node11 -->
<g id="edge11_Node000010_Node000011" class="edge">
<title>Node10&#45;&gt;Node11</title>
<g id="a_edge11_Node000010_Node000011"><a xlink:title=" ">
<path fill="none" stroke="#63b8ff" d="M731.23,-119.56C718.78,-109.33 698.78,-92.63 682.12,-77.5 664.53,-61.51 645.15,-42.53 631.6,-29.01"/>
<polygon fill="#63b8ff" stroke="#63b8ff" points="634.22,-26.68 624.68,-22.07 629.27,-31.63 634.22,-26.68"/>
</a>
</g>
</g>
<!-- Node12 -->
<g id="Node000012" class="node">
<title>Node12</title>
<g id="a_Node000012"><a xlink:title=" ">
<polygon fill="#e0e0e0" stroke="#999999" points="889.75,-20.75 814.5,-20.75 814.5,0 889.75,0 889.75,-20.75"/>
<text text-anchor="middle" x="852.12" y="-7.25" font-family="Helvetica,sans-Serif" font-size="10.00">G4VSolid.hh</text>
</a>
</g>
</g>
<!-- Node10&#45;&gt;Node12 -->
<g id="edge12_Node000010_Node000012" class="edge">
<title>Node10&#45;&gt;Node12</title>
<g id="a_edge12_Node000010_Node000012"><a xlink:title=" ">
<path fill="none" stroke="#63b8ff" d="M756.54,-119.38C769.47,-109.53 789.21,-93.59 804.12,-77.5 817.8,-62.74 831.06,-44.04 840.16,-30.29"/>
<polygon fill="#63b8ff" stroke="#63b8ff" points="842.93,-32.46 845.43,-22.16 837.06,-28.65 842.93,-32.46"/>
</a>
</g>
</g>
<!-- Node13 -->
<g id="Node000013" class="node">
<title>Node13</title>
<g id="a_Node000013"><a xlink:href="IVolumeBuilder_8hh.html" target="_top" xlink:title="Created by.">
<polygon fill="white" stroke="#666666" points="795.38,-77.5 690.88,-77.5 690.88,-56.75 795.38,-56.75 795.38,-77.5"/>
<text text-anchor="middle" x="743.12" y="-64" font-family="Helvetica,sans-Serif" font-size="10.00">IVolumeBuilder.hh</text>
</a>
</g>
</g>
<!-- Node10&#45;&gt;Node13 -->
<g id="edge14_Node000010_Node000013" class="edge">
<title>Node10&#45;&gt;Node13</title>
<g id="a_edge14_Node000010_Node000013"><a xlink:title=" ">
<path fill="none" stroke="#63b8ff" d="M743.12,-119.43C743.12,-111.27 743.12,-99.38 743.12,-89.1"/>
<polygon fill="#63b8ff" stroke="#63b8ff" points="746.63,-89.23 743.13,-79.23 739.63,-89.23 746.63,-89.23"/>
</a>
</g>
</g>
<!-- Node13&#45;&gt;Node11 -->
<g id="edge15_Node000013_Node000011" class="edge">
<title>Node13&#45;&gt;Node11</title>
<g id="a_edge15_Node000013_Node000011"><a xlink:title=" ">
<path fill="none" stroke="#63b8ff" d="M720.06,-56.34C699.88,-47.77 670.32,-35.23 647.55,-25.56"/>
<polygon fill="#63b8ff" stroke="#63b8ff" points="648.95,-22.35 638.38,-21.67 646.22,-28.8 648.95,-22.35"/>
</a>
</g>
</g>
<!-- Node13&#45;&gt;Node12 -->
<g id="edge17_Node000013_Node000012" class="edge">
<title>Node13&#45;&gt;Node12</title>
<g id="a_edge17_Node000013_Node000012"><a xlink:title=" ">
<path fill="none" stroke="#63b8ff" d="M762.61,-56.34C779.27,-47.97 803.51,-35.79 822.56,-26.22"/>
<polygon fill="#63b8ff" stroke="#63b8ff" points="824.09,-29.37 831.45,-21.76 820.95,-23.12 824.09,-29.37"/>
</a>
</g>
</g>
<!-- Node14 -->
<g id="Node000014" class="node">
<title>Node14</title>
<g id="a_Node000014"><a xlink:title=" ">
<polygon fill="#e0e0e0" stroke="#999999" points="796.5,-20.75 689.75,-20.75 689.75,0 796.5,0 796.5,-20.75"/>
<text text-anchor="middle" x="743.12" y="-7.25" font-family="Helvetica,sans-Serif" font-size="10.00">G4Transform3D.hh</text>
</a>
</g>
</g>
<!-- Node13&#45;&gt;Node14 -->
<g id="edge16_Node000013_Node000014" class="edge">
<title>Node13&#45;&gt;Node14</title>
<g id="a_edge16_Node000013_Node000014"><a xlink:title=" ">
<path fill="none" stroke="#63b8ff" d="M743.12,-56.34C743.12,-49.72 743.12,-40.72 743.12,-32.52"/>
<polygon fill="#63b8ff" stroke="#63b8ff" points="746.63,-32.59 743.13,-22.59 739.63,-32.59 746.63,-32.59"/>
</a>
</g>
</g>
<!-- Node16 -->
<g id="Node000016" class="node">
<title>Node16</title>
<g id="a_Node000016"><a xlink:href="DLG4Units_8hh.html" target="_top" xlink:title="Typesafe units, for VolumeBuilders, Geant, ETC !! No accidental mixing values and units.">
<polygon fill="white" stroke="#666666" points="461.5,-203.75 378.75,-203.75 378.75,-183 461.5,-183 461.5,-203.75"/>
<text text-anchor="middle" x="420.12" y="-190.25" font-family="Helvetica,sans-Serif" font-size="10.00">DLG4Units.hh</text>
</a>
</g>
</g>
<!-- Node15&#45;&gt;Node16 -->
<g id="edge19_Node000015_Node000016" class="edge">
<title>Node15&#45;&gt;Node16</title>
<g id="a_edge19_Node000015_Node000016"><a xlink:title=" ">
<path fill="none" stroke="#63b8ff" d="M508.82,-239.34C492.31,-230.97 468.29,-218.79 449.42,-209.22"/>
<polygon fill="#63b8ff" stroke="#63b8ff" points="451.12,-206.16 440.62,-204.76 447.95,-212.41 451.12,-206.16"/>
</a>
</g>
</g>
<!-- Node16&#45;&gt;Node3 -->
<g id="edge24_Node000016_Node000003" class="edge">
<title>Node16&#45;&gt;Node3</title>
<g id="a_edge24_Node000016_Node000003"><a xlink:title=" ">
<path fill="none" stroke="#63b8ff" d="M453.7,-182.55C489.28,-172.15 545.61,-155.67 584.81,-144.21"/>
<polygon fill="#63b8ff" stroke="#63b8ff" points="585.56,-147.64 594.18,-141.47 583.6,-140.92 585.56,-147.64"/>
</a>
</g>
</g>
<!-- Node16&#45;&gt;Node5 -->
<g id="edge25_Node000016_Node000005" class="edge">
<title>Node16&#45;&gt;Node5</title>
<g id="a_edge25_Node000016_Node000005"><a xlink:title=" ">
<path fill="none" stroke="#63b8ff" d="M438.12,-182.55C455.92,-172.84 483.41,-157.83 504.08,-146.56"/>
<polygon fill="#63b8ff" stroke="#63b8ff" points="505.75,-149.63 512.85,-141.77 502.39,-143.49 505.75,-149.63"/>
</a>
</g>
</g>
<!-- Node17 -->
<g id="Node000017" class="node">
<title>Node17</title>
<g id="a_Node000017"><a xlink:title=" ">
<polygon fill="#e0e0e0" stroke="#999999" points="336.25,-140.62 264,-140.62 264,-119.88 336.25,-119.88 336.25,-140.62"/>
<text text-anchor="middle" x="300.12" y="-127.12" font-family="Helvetica,sans-Serif" font-size="10.00">G4Types.hh</text>
</a>
</g>
</g>
<!-- Node16&#45;&gt;Node17 -->
<g id="edge20_Node000016_Node000017" class="edge">
<title>Node16&#45;&gt;Node17</title>
<g id="a_edge20_Node000016_Node000017"><a xlink:title=" ">
<path fill="none" stroke="#63b8ff" d="M400.84,-182.55C381.6,-172.75 351.77,-157.56 329.57,-146.25"/>
<polygon fill="#63b8ff" stroke="#63b8ff" points="331.21,-143.15 320.71,-141.73 328.03,-149.39 331.21,-143.15"/>
</a>
</g>
</g>
<!-- Node18 -->
<g id="Node000018" class="node">
<title>Node18</title>
<g id="a_Node000018"><a xlink:title=" ">
<polygon fill="#e0e0e0" stroke="#999999" points="485.88,-140.62 354.38,-140.62 354.38,-119.88 485.88,-119.88 485.88,-140.62"/>
<text text-anchor="middle" x="420.12" y="-127.12" font-family="Helvetica,sans-Serif" font-size="10.00">G4ExceptionSeverity.hh</text>
</a>
</g>
</g>
<!-- Node16&#45;&gt;Node18 -->
<g id="edge21_Node000016_Node000018" class="edge">
<title>Node16&#45;&gt;Node18</title>
<g id="a_edge21_Node000016_Node000018"><a xlink:title=" ">
<path fill="none" stroke="#63b8ff" d="M420.12,-182.55C420.12,-174.4 420.12,-162.51 420.12,-152.23"/>
<polygon fill="#63b8ff" stroke="#63b8ff" points="423.63,-152.36 420.13,-142.36 416.63,-152.36 423.63,-152.36"/>
</a>
</g>
</g>
<!-- Node19 -->
<g id="Node000019" class="node">
<title>Node19</title>
<g id="a_Node000019"><a xlink:title=" ">
<polygon fill="#e0e0e0" stroke="#999999" points="66.25,-140.62 0,-140.62 0,-119.88 66.25,-119.88 66.25,-140.62"/>
<text text-anchor="middle" x="33.12" y="-127.12" font-family="Helvetica,sans-Serif" font-size="10.00">globals.hh</text>
</a>
</g>
</g>
<!-- Node16&#45;&gt;Node19 -->
<g id="edge22_Node000016_Node000019" class="edge">
<title>Node16&#45;&gt;Node19</title>
<g id="a_edge22_Node000016_Node000019"><a xlink:title=" ">
<path fill="none" stroke="#63b8ff" d="M378.4,-189.96C312.95,-185.5 182.53,-173.83 75.12,-147 72.51,-146.35 69.84,-145.58 67.17,-144.75"/>
<polygon fill="#63b8ff" stroke="#63b8ff" points="68.4,-141.47 57.8,-141.53 66.12,-148.09 68.4,-141.47"/>
</a>
</g>
</g>
<!-- Node20 -->
<g id="Node000020" class="node">
<title>Node20</title>
<g id="a_Node000020"><a xlink:title=" ">
<polygon fill="#e0e0e0" stroke="#999999" points="245.88,-140.62 84.38,-140.62 84.38,-119.88 245.88,-119.88 245.88,-140.62"/>
<text text-anchor="middle" x="165.12" y="-127.12" font-family="Helvetica,sans-Serif" font-size="10.00">CLHEP/Units/SystemOfUnits.h</text>
</a>
</g>
</g>
<!-- Node16&#45;&gt;Node20 -->
<g id="edge23_Node000016_Node000020" class="edge">
<title>Node16&#45;&gt;Node20</title>
<g id="a_edge23_Node000016_Node000020"><a xlink:title=" ">
<path fill="none" stroke="#63b8ff" d="M379.15,-182.55C335.1,-171.99 264.95,-155.18 217.06,-143.7"/>
<polygon fill="#63b8ff" stroke="#63b8ff" points="218.01,-140.33 207.47,-141.4 216.37,-147.13 218.01,-140.33"/>
</a>
</g>
</g>
</g>
</svg>
