<?xml version="1.0" encoding="UTF-8" standalone="no"?>
<!DOCTYPE svg PUBLIC "-//W3C//DTD SVG 1.1//EN"
 "http://www.w3.org/Graphics/SVG/1.1/DTD/svg11.dtd">
<!-- Generated by graphviz version 12.0.0 (20240803.0821)
 -->
<!-- Title: include/PlacementNameRegistry.hh Pages: 1 -->
<svg width="235pt" height="86pt"
 viewBox="0.00 0.00 234.88 85.50" xmlns="http://www.w3.org/2000/svg" xmlns:xlink="http://www.w3.org/1999/xlink">
<g id="graph0" class="graph" transform="scale(1 1) rotate(0) translate(4 81.5)">
<title>include/PlacementNameRegistry.hh</title>
<!-- Node1 -->
<g id="Node000001" class="node">
<title>Node1</title>
<g id="a_Node000001"><a xlink:title=" ">
<polygon fill="#999999" stroke="#666666" points="189.25,-77.5 0,-77.5 0,-56.75 189.25,-56.75 189.25,-77.5"/>
<text text-anchor="middle" x="94.62" y="-64" font-family="Helvetica,sans-Serif" font-size="10.00">include/PlacementNameRegistry.hh</text>
</a>
</g>
</g>
<!-- Node2 -->
<g id="Node000002" class="node">
<title>Node2</title>
<g id="a_Node000002"><a xlink:title=" ">
<polygon fill="#e0e0e0" stroke="#999999" points="54.38,-20.75 6.88,-20.75 6.88,0 54.38,0 54.38,-20.75"/>
<text text-anchor="middle" x="30.62" y="-7.25" font-family="Helvetica,sans-Serif" font-size="10.00">mutex</text>
</a>
</g>
</g>
<!-- Node1&#45;&gt;Node2 -->
<g id="edge1_Node000001_Node000002" class="edge">
<title>Node1&#45;&gt;Node2</title>
<g id="a_edge1_Node000001_Node000002"><a xlink:title=" ">
<path fill="none" stroke="#63b8ff" d="M83.18,-56.34C74.17,-48.63 61.39,-37.7 50.69,-28.54"/>
<polygon fill="#63b8ff" stroke="#63b8ff" points="52.99,-25.9 43.12,-22.06 48.44,-31.22 52.99,-25.9"/>
</a>
</g>
</g>
<!-- Node3 -->
<g id="Node000003" class="node">
<title>Node3</title>
<g id="a_Node000003"><a xlink:title=" ">
<polygon fill="#e0e0e0" stroke="#999999" points="116.5,-20.75 72.75,-20.75 72.75,0 116.5,0 116.5,-20.75"/>
<text text-anchor="middle" x="94.62" y="-7.25" font-family="Helvetica,sans-Serif" font-size="10.00">string</text>
</a>
</g>
</g>
<!-- Node1&#45;&gt;Node3 -->
<g id="edge2_Node000001_Node000003" class="edge">
<title>Node1&#45;&gt;Node3</title>
<g id="a_edge2_Node000001_Node000003"><a xlink:title=" ">
<path fill="none" stroke="#63b8ff" d="M94.62,-56.34C94.62,-49.72 94.62,-40.72 94.62,-32.52"/>
<polygon fill="#63b8ff" stroke="#63b8ff" points="98.13,-32.59 94.63,-22.59 91.13,-32.59 98.13,-32.59"/>
</a>
</g>
</g>
<!-- Node4 -->
<g id="Node000004" class="node">
<title>Node4</title>
<g id="a_Node000004"><a xlink:title=" ">
<polygon fill="#e0e0e0" stroke="#999999" points="226.88,-20.75 134.38,-20.75 134.38,0 226.88,0 226.88,-20.75"/>
<text text-anchor="middle" x="180.62" y="-7.25" font-family="Helvetica,sans-Serif" font-size="10.00">unordered_map</text>
</a>
</g>
</g>
<!-- Node1&#45;&gt;Node4 -->
<g id="edge3_Node000001_Node000004" class="edge">
<title>Node1&#45;&gt;Node4</title>
<g id="a_edge3_Node000001_Node000004"><a xlink:title=" ">
<path fill="none" stroke="#63b8ff" d="M110,-56.34C122.72,-48.24 141.03,-36.58 155.82,-27.17"/>
<polygon fill="#63b8ff" stroke="#63b8ff" points="157.55,-30.21 164.11,-21.89 153.79,-24.31 157.55,-30.21"/>
</a>
</g>
</g>
</g>
</svg>
