<?xml version="1.0" encoding="UTF-8" standalone="no"?>
<!DOCTYPE svg PUBLIC "-//W3C//DTD SVG 1.1//EN"
 "http://www.w3.org/Graphics/SVG/1.1/DTD/svg11.dtd">
<!-- Generated by graphviz version 12.0.0 (20240803.0821)
 -->
<!-- Title: src/PlacementNameRegistry.cc Pages: 1 -->
<svg width="276pt" height="142pt"
 viewBox="0.00 0.00 276.00 142.25" xmlns="http://www.w3.org/2000/svg" xmlns:xlink="http://www.w3.org/1999/xlink">
<g id="graph0" class="graph" transform="scale(1 1) rotate(0) translate(4 138.25)">
<title>src/PlacementNameRegistry.cc</title>
<!-- Node1 -->
<g id="Node000001" class="node">
<title>Node1</title>
<g id="a_Node000001"><a xlink:title=" ">
<polygon fill="#999999" stroke="#666666" points="229.12,-134.25 62.38,-134.25 62.38,-113.5 229.12,-113.5 229.12,-134.25"/>
<text text-anchor="middle" x="145.75" y="-120.75" font-family="Helvetica,sans-Serif" font-size="10.00">src/PlacementNameRegistry.cc</text>
</a>
</g>
</g>
<!-- Node2 -->
<g id="Node000002" class="node">
<title>Node2</title>
<g id="a_Node000002"><a xlink:href="PlacementNameRegistry_8hh_source.html" target="_top" xlink:title=" ">
<polygon fill="white" stroke="#666666" points="169.25,-77.5 18.25,-77.5 18.25,-56.75 169.25,-56.75 169.25,-77.5"/>
<text text-anchor="middle" x="93.75" y="-64" font-family="Helvetica,sans-Serif" font-size="10.00">PlacementNameRegistry.hh</text>
</a>
</g>
</g>
<!-- Node1&#45;&gt;Node2 -->
<g id="edge1_Node000001_Node000002" class="edge">
<title>Node1&#45;&gt;Node2</title>
<g id="a_edge1_Node000001_Node000002"><a xlink:title=" ">
<path fill="none" stroke="#63b8ff" d="M136.45,-113.09C129.35,-105.61 119.38,-95.11 110.85,-86.13"/>
<polygon fill="#63b8ff" stroke="#63b8ff" points="113.43,-83.77 104.01,-78.93 108.36,-88.59 113.43,-83.77"/>
</a>
</g>
</g>
<!-- Node3 -->
<g id="Node000003" class="node">
<title>Node3</title>
<g id="a_Node000003"><a xlink:title=" ">
<polygon fill="#e0e0e0" stroke="#999999" points="47.5,-20.75 0,-20.75 0,0 47.5,0 47.5,-20.75"/>
<text text-anchor="middle" x="23.75" y="-7.25" font-family="Helvetica,sans-Serif" font-size="10.00">mutex</text>
</a>
</g>
</g>
<!-- Node1&#45;&gt;Node3 -->
<g id="edge5_Node000001_Node000003" class="edge">
<title>Node1&#45;&gt;Node3</title>
<g id="a_edge5_Node000001_Node000003"><a xlink:title=" ">
<path fill="none" stroke="#63b8ff" d="M63.22,-113.11C42.11,-106.45 21.73,-95.48 8.75,-77.5 -1.14,-63.81 4.77,-44.7 11.87,-30.55"/>
<polygon fill="#63b8ff" stroke="#63b8ff" points="14.72,-32.61 16.55,-22.18 8.61,-29.19 14.72,-32.61"/>
</a>
</g>
</g>
<!-- Node4 -->
<g id="Node000004" class="node">
<title>Node4</title>
<g id="a_Node000004"><a xlink:title=" ">
<polygon fill="#e0e0e0" stroke="#999999" points="129.62,-20.75 85.88,-20.75 85.88,0 129.62,0 129.62,-20.75"/>
<text text-anchor="middle" x="107.75" y="-7.25" font-family="Helvetica,sans-Serif" font-size="10.00">string</text>
</a>
</g>
</g>
<!-- Node1&#45;&gt;Node4 -->
<g id="edge6_Node000001_Node000004" class="edge">
<title>Node1&#45;&gt;Node4</title>
<g id="a_edge6_Node000001_Node000004"><a xlink:title=" ">
<path fill="none" stroke="#63b8ff" d="M156.58,-113.34C169.93,-100.38 189.6,-76.56 178.75,-56.75 170.44,-41.57 154.65,-30.73 140.07,-23.46"/>
<polygon fill="#63b8ff" stroke="#63b8ff" points="141.72,-20.37 131.16,-19.42 138.82,-26.74 141.72,-20.37"/>
</a>
</g>
</g>
<!-- Node5 -->
<g id="Node000005" class="node">
<title>Node5</title>
<g id="a_Node000005"><a xlink:title=" ">
<polygon fill="#e0e0e0" stroke="#999999" points="268,-20.75 175.5,-20.75 175.5,0 268,0 268,-20.75"/>
<text text-anchor="middle" x="221.75" y="-7.25" font-family="Helvetica,sans-Serif" font-size="10.00">unordered_map</text>
</a>
</g>
</g>
<!-- Node1&#45;&gt;Node5 -->
<g id="edge7_Node000001_Node000005" class="edge">
<title>Node1&#45;&gt;Node5</title>
<g id="a_edge7_Node000001_Node000005"><a xlink:title=" ">
<path fill="none" stroke="#63b8ff" d="M158.58,-113.25C169.14,-104.78 183.94,-91.63 193.75,-77.5 203.54,-63.4 210.9,-45.34 215.61,-31.66"/>
<polygon fill="#63b8ff" stroke="#63b8ff" points="218.85,-33.01 218.6,-22.41 212.19,-30.85 218.85,-33.01"/>
</a>
</g>
</g>
<!-- Node2&#45;&gt;Node3 -->
<g id="edge2_Node000002_Node000003" class="edge">
<title>Node2&#45;&gt;Node3</title>
<g id="a_edge2_Node000002_Node000003"><a xlink:title=" ">
<path fill="none" stroke="#63b8ff" d="M81.24,-56.34C71.18,-48.47 56.84,-37.25 44.99,-27.99"/>
<polygon fill="#63b8ff" stroke="#63b8ff" points="47.38,-25.41 37.35,-22.01 43.07,-30.93 47.38,-25.41"/>
</a>
</g>
</g>
<!-- Node2&#45;&gt;Node4 -->
<g id="edge3_Node000002_Node000004" class="edge">
<title>Node2&#45;&gt;Node4</title>
<g id="a_edge3_Node000002_Node000004"><a xlink:title=" ">
<path fill="none" stroke="#63b8ff" d="M96.25,-56.34C97.97,-49.64 100.3,-40.51 102.42,-32.23"/>
<polygon fill="#63b8ff" stroke="#63b8ff" points="105.81,-33.1 104.89,-22.54 99.03,-31.37 105.81,-33.1"/>
</a>
</g>
</g>
<!-- Node2&#45;&gt;Node5 -->
<g id="edge4_Node000002_Node000005" class="edge">
<title>Node2&#45;&gt;Node5</title>
<g id="a_edge4_Node000002_Node000005"><a xlink:title=" ">
<path fill="none" stroke="#63b8ff" d="M116.63,-56.34C136.66,-47.77 165.99,-35.23 188.58,-25.56"/>
<polygon fill="#63b8ff" stroke="#63b8ff" points="189.85,-28.82 197.67,-21.67 187.1,-22.39 189.85,-28.82"/>
</a>
</g>
</g>
</g>
</svg>
