<?xml version="1.0" encoding="UTF-8" standalone="no"?>
<!DOCTYPE svg PUBLIC "-//W3C//DTD SVG 1.1//EN"
 "http://www.w3.org/Graphics/SVG/1.1/DTD/svg11.dtd">
<!-- Generated by graphviz version 12.0.0 (20240803.0821)
 -->
<!-- Title: include/StructureBuilderCore.hh Pages: 1 -->
<svg width="1338pt" height="237pt"
 viewBox="0.00 0.00 1338.00 237.25" xmlns="http://www.w3.org/2000/svg" xmlns:xlink="http://www.w3.org/1999/xlink">
<g id="graph0" class="graph" transform="scale(1 1) rotate(0) translate(4 233.25)">
<title>include/StructureBuilderCore.hh</title>
<!-- Node1 -->
<g id="Node000001" class="node">
<title>Node1</title>
<g id="a_Node000001"><a xlink:title=" ">
<polygon fill="#999999" stroke="#666666" points="639.25,-229.25 506.25,-229.25 506.25,-195.75 639.25,-195.75 639.25,-229.25"/>
<text text-anchor="start" x="514.25" y="-215.75" font-family="Helvetica,sans-Serif" font-size="10.00">include/StructureBuilder</text>
<text text-anchor="middle" x="572.75" y="-203" font-family="Helvetica,sans-Serif" font-size="10.00">Core.hh</text>
</a>
</g>
</g>
<!-- Node2 -->
<g id="Node000002" class="node">
<title>Node2</title>
<g id="a_Node000002"><a xlink:href="RZBuilderCore_8hh.html" target="_top" xlink:title=" ">
<polygon fill="white" stroke="#666666" points="565.62,-153.38 425.88,-153.38 425.88,-132.62 565.62,-132.62 565.62,-153.38"/>
<text text-anchor="middle" x="495.75" y="-139.88" font-family="Helvetica,sans-Serif" font-size="10.00">include/RZBuilderCore.hh</text>
</a>
</g>
</g>
<!-- Node1&#45;&gt;Node2 -->
<g id="edge1_Node000001_Node000002" class="edge">
<title>Node1&#45;&gt;Node2</title>
<g id="a_edge1_Node000001_Node000002"><a xlink:title=" ">
<path fill="none" stroke="#63b8ff" d="M546.08,-188.12C532.69,-176.38 517.18,-162.78 506.95,-153.82"/>
<polygon fill="#63b8ff" stroke="#63b8ff" points="543.54,-190.55 553.36,-194.51 548.15,-185.28 543.54,-190.55"/>
</a>
</g>
</g>
<!-- Node10 -->
<g id="Node000010" class="node">
<title>Node10</title>
<g id="a_Node000010"><a xlink:href="VolumeBuilderBase_8cc.html" target="_top" xlink:title=" ">
<polygon fill="white" stroke="#666666" points="274.75,-90.25 132.75,-90.25 132.75,-69.5 274.75,-69.5 274.75,-90.25"/>
<text text-anchor="middle" x="203.75" y="-76.75" font-family="Helvetica,sans-Serif" font-size="10.00">src/VolumeBuilderBase.cc</text>
</a>
</g>
</g>
<!-- Node1&#45;&gt;Node10 -->
<g id="edge22_Node000001_Node000010" class="edge">
<title>Node1&#45;&gt;Node10</title>
<g id="a_edge22_Node000001_Node000010"><a xlink:title=" ">
<path fill="none" stroke="#63b8ff" d="M494.32,-209.37C404.75,-205.32 265.54,-193.62 226.75,-159.75 206.44,-142.02 203.58,-107.48 203.48,-90.61"/>
<polygon fill="#63b8ff" stroke="#63b8ff" points="494.15,-212.86 504.29,-209.79 494.45,-205.87 494.15,-212.86"/>
</a>
</g>
</g>
<!-- Node11 -->
<g id="Node000011" class="node">
<title>Node11</title>
<g id="a_Node000011"><a xlink:href="StructureBuilderBase_8hpp.html" target="_top" xlink:title="Created by.">
<polygon fill="white" stroke="#666666" points="717.25,-159.75 584.25,-159.75 584.25,-126.25 717.25,-126.25 717.25,-159.75"/>
<text text-anchor="start" x="592.25" y="-146.25" font-family="Helvetica,sans-Serif" font-size="10.00">include/StructureBuilder</text>
<text text-anchor="middle" x="650.75" y="-133.5" font-family="Helvetica,sans-Serif" font-size="10.00">Base.hpp</text>
</a>
</g>
</g>
<!-- Node1&#45;&gt;Node11 -->
<g id="edge10_Node000001_Node000011" class="edge">
<title>Node1&#45;&gt;Node11</title>
<g id="a_edge10_Node000001_Node000011"><a xlink:title=" ">
<path fill="none" stroke="#63b8ff" d="M599.81,-188.09C610.47,-178.85 622.46,-168.48 632.13,-160.12"/>
<polygon fill="#63b8ff" stroke="#63b8ff" points="597.65,-185.32 592.38,-194.51 602.23,-190.62 597.65,-185.32"/>
</a>
</g>
</g>
<!-- Node15 -->
<g id="Node000015" class="node">
<title>Node15</title>
<g id="a_Node000015"><a xlink:href="StructureBuilderCore_8cc.html" target="_top" xlink:title="Created by.">
<polygon fill="white" stroke="#666666" points="1171.75,-90.25 1023.75,-90.25 1023.75,-69.5 1171.75,-69.5 1171.75,-90.25"/>
<text text-anchor="middle" x="1097.75" y="-76.75" font-family="Helvetica,sans-Serif" font-size="10.00">src/StructureBuilderCore.cc</text>
</a>
</g>
</g>
<!-- Node1&#45;&gt;Node15 -->
<g id="edge21_Node000001_Node000015" class="edge">
<title>Node1&#45;&gt;Node15</title>
<g id="a_edge21_Node000001_Node000015"><a xlink:title=" ">
<path fill="none" stroke="#63b8ff" d="M648.91,-192.55C762.22,-164.36 971.17,-112.37 1058.15,-90.73"/>
<polygon fill="#63b8ff" stroke="#63b8ff" points="648.24,-189.11 639.38,-194.92 649.93,-195.9 648.24,-189.11"/>
</a>
</g>
</g>
<!-- Node16 -->
<g id="Node000016" class="node">
<title>Node16</title>
<g id="a_Node000016"><a xlink:href="VolumeBuilderCore_8cc.html" target="_top" xlink:title="Created by.">
<polygon fill="white" stroke="#666666" points="1330,-90.25 1189.5,-90.25 1189.5,-69.5 1330,-69.5 1330,-90.25"/>
<text text-anchor="middle" x="1259.75" y="-76.75" font-family="Helvetica,sans-Serif" font-size="10.00">src/VolumeBuilderCore.cc</text>
</a>
</g>
</g>
<!-- Node1&#45;&gt;Node16 -->
<g id="edge23_Node000001_Node000016" class="edge">
<title>Node1&#45;&gt;Node16</title>
<g id="a_edge23_Node000001_Node000016"><a xlink:title=" ">
<path fill="none" stroke="#63b8ff" d="M650.6,-198.1C709.26,-187.9 791.63,-173.34 863.75,-159.75 989.64,-136.02 1137.6,-105.98 1211.96,-90.72"/>
<polygon fill="#63b8ff" stroke="#63b8ff" points="650.31,-194.6 641.06,-199.76 651.51,-201.5 650.31,-194.6"/>
</a>
</g>
</g>
<!-- Node17 -->
<g id="Node000017" class="node">
<title>Node17</title>
<g id="a_Node000017"><a xlink:href="VolumeBuilderBase_8hpp.html" target="_top" xlink:title=" ">
<polygon fill="white" stroke="#666666" points="406,-153.38 235.5,-153.38 235.5,-132.62 406,-132.62 406,-153.38"/>
<text text-anchor="middle" x="320.75" y="-139.88" font-family="Helvetica,sans-Serif" font-size="10.00">include/VolumeBuilderBase.hpp</text>
</a>
</g>
</g>
<!-- Node1&#45;&gt;Node17 -->
<g id="edge19_Node000001_Node000017" class="edge">
<title>Node1&#45;&gt;Node17</title>
<g id="a_edge19_Node000001_Node000017"><a xlink:title=" ">
<path fill="none" stroke="#63b8ff" d="M501.38,-192.38C454.54,-179.84 395.2,-163.94 357.6,-153.87"/>
<polygon fill="#63b8ff" stroke="#63b8ff" points="500.36,-195.73 510.93,-194.94 502.17,-188.97 500.36,-195.73"/>
</a>
</g>
</g>
<!-- Node3 -->
<g id="Node000003" class="node">
<title>Node3</title>
<g id="a_Node000003"><a xlink:href="VolumeBuilders_8hh.html" target="_top" xlink:title=" ">
<polygon fill="white" stroke="#666666" points="438.62,-90.25 292.88,-90.25 292.88,-69.5 438.62,-69.5 438.62,-90.25"/>
<text text-anchor="middle" x="365.75" y="-76.75" font-family="Helvetica,sans-Serif" font-size="10.00">include/VolumeBuilders.hh</text>
</a>
</g>
</g>
<!-- Node2&#45;&gt;Node3 -->
<g id="edge2_Node000002_Node000003" class="edge">
<title>Node2&#45;&gt;Node3</title>
<g id="a_edge2_Node000002_Node000003"><a xlink:title=" ">
<path fill="none" stroke="#63b8ff" d="M464.45,-127.28C440.31,-115.93 407.6,-100.55 386.58,-90.67"/>
<polygon fill="#63b8ff" stroke="#63b8ff" points="462.95,-130.45 473.49,-131.54 465.93,-124.11 462.95,-130.45"/>
</a>
</g>
</g>
<!-- Node9 -->
<g id="Node000009" class="node">
<title>Node9</title>
<g id="a_Node000009"><a xlink:href="RZBuilderCore_8cc.html" target="_top" xlink:title=" ">
<polygon fill="white" stroke="#666666" points="574.38,-90.25 457.12,-90.25 457.12,-69.5 574.38,-69.5 574.38,-90.25"/>
<text text-anchor="middle" x="515.75" y="-76.75" font-family="Helvetica,sans-Serif" font-size="10.00">src/RZBuilderCore.cc</text>
</a>
</g>
</g>
<!-- Node2&#45;&gt;Node9 -->
<g id="edge8_Node000002_Node000009" class="edge">
<title>Node2&#45;&gt;Node9</title>
<g id="a_edge8_Node000002_Node000009"><a xlink:title=" ">
<path fill="none" stroke="#63b8ff" d="M502.49,-121.41C505.91,-110.95 509.91,-98.74 512.61,-90.47"/>
<polygon fill="#63b8ff" stroke="#63b8ff" points="499.22,-120.15 499.43,-130.74 505.87,-122.32 499.22,-120.15"/>
</a>
</g>
</g>
<!-- Node2&#45;&gt;Node10 -->
<g id="edge9_Node000002_Node000010" class="edge">
<title>Node2&#45;&gt;Node10</title>
<g id="a_edge9_Node000002_Node000010"><a xlink:title=" ">
<path fill="none" stroke="#63b8ff" d="M437.88,-129.89C382.97,-118.39 301.48,-101.33 250.55,-90.67"/>
<polygon fill="#63b8ff" stroke="#63b8ff" points="436.85,-133.25 447.35,-131.87 438.28,-126.39 436.85,-133.25"/>
</a>
</g>
</g>
<!-- Node4 -->
<g id="Node000004" class="node">
<title>Node4</title>
<g id="a_Node000004"><a xlink:href="ConstructAssembly_8cc.html" target="_top" xlink:title="Created by.">
<polygon fill="white" stroke="#666666" points="125.5,-33.5 0,-33.5 0,0 125.5,0 125.5,-33.5"/>
<text text-anchor="start" x="8" y="-20" font-family="Helvetica,sans-Serif" font-size="10.00">demo/src/Geometries</text>
<text text-anchor="middle" x="62.75" y="-7.25" font-family="Helvetica,sans-Serif" font-size="10.00">/ConstructAssembly.cc</text>
</a>
</g>
</g>
<!-- Node3&#45;&gt;Node4 -->
<g id="edge3_Node000003_Node000004" class="edge">
<title>Node3&#45;&gt;Node4</title>
<g id="a_edge3_Node000003_Node000004"><a xlink:title=" ">
<path fill="none" stroke="#63b8ff" d="M302.74,-66.88C256.26,-57.93 191.5,-45.28 134.75,-33.5 131.87,-32.9 128.92,-32.28 125.95,-31.66"/>
<polygon fill="#63b8ff" stroke="#63b8ff" points="301.88,-70.27 312.36,-68.72 303.2,-63.4 301.88,-70.27"/>
</a>
</g>
</g>
<!-- Node5 -->
<g id="Node000005" class="node">
<title>Node5</title>
<g id="a_Node000005"><a xlink:href="ConstructBoxExample_8cc.html" target="_top" xlink:title="Created by.">
<polygon fill="white" stroke="#666666" points="284,-33.5 143.5,-33.5 143.5,0 284,0 284,-33.5"/>
<text text-anchor="start" x="151.5" y="-20" font-family="Helvetica,sans-Serif" font-size="10.00">demo/src/Geometries</text>
<text text-anchor="middle" x="213.75" y="-7.25" font-family="Helvetica,sans-Serif" font-size="10.00">/ConstructBoxExample.cc</text>
</a>
</g>
</g>
<!-- Node3&#45;&gt;Node5 -->
<g id="edge4_Node000003_Node000005" class="edge">
<title>Node3&#45;&gt;Node5</title>
<g id="a_edge4_Node000003_Node000005"><a xlink:title=" ">
<path fill="none" stroke="#63b8ff" d="M330.73,-64.79C307.88,-55.6 277.98,-43.58 254.12,-33.98"/>
<polygon fill="#63b8ff" stroke="#63b8ff" points="329.34,-68.01 339.92,-68.49 331.95,-61.51 329.34,-68.01"/>
</a>
</g>
</g>
<!-- Node6 -->
<g id="Node000006" class="node">
<title>Node6</title>
<g id="a_Node000006"><a xlink:href="ConstructExample1_8cc.html" target="_top" xlink:title="Created by.">
<polygon fill="white" stroke="#666666" points="429.62,-33.5 301.88,-33.5 301.88,0 429.62,0 429.62,-33.5"/>
<text text-anchor="start" x="309.88" y="-20" font-family="Helvetica,sans-Serif" font-size="10.00">demo/src/Geometries</text>
<text text-anchor="middle" x="365.75" y="-7.25" font-family="Helvetica,sans-Serif" font-size="10.00">/ConstructExample1.cc</text>
</a>
</g>
</g>
<!-- Node3&#45;&gt;Node6 -->
<g id="edge5_Node000003_Node000006" class="edge">
<title>Node3&#45;&gt;Node6</title>
<g id="a_edge5_Node000003_Node000006"><a xlink:title=" ">
<path fill="none" stroke="#63b8ff" d="M365.75,-57.59C365.75,-49.85 365.75,-41.22 365.75,-33.98"/>
<polygon fill="#63b8ff" stroke="#63b8ff" points="362.25,-57.54 365.75,-67.54 369.25,-57.54 362.25,-57.54"/>
</a>
</g>
</g>
<!-- Node7 -->
<g id="Node000007" class="node">
<title>Node7</title>
<g id="a_Node000007"><a xlink:href="ConstructHexPart_8cc.html" target="_top" xlink:title=" ">
<polygon fill="white" stroke="#666666" points="568.25,-33.5 447.25,-33.5 447.25,0 568.25,0 568.25,-33.5"/>
<text text-anchor="start" x="455.25" y="-20" font-family="Helvetica,sans-Serif" font-size="10.00">demo/src/Geometries</text>
<text text-anchor="middle" x="507.75" y="-7.25" font-family="Helvetica,sans-Serif" font-size="10.00">/ConstructHexPart.cc</text>
</a>
</g>
</g>
<!-- Node3&#45;&gt;Node7 -->
<g id="edge6_Node000003_Node000007" class="edge">
<title>Node3&#45;&gt;Node7</title>
<g id="a_edge6_Node000003_Node000007"><a xlink:title=" ">
<path fill="none" stroke="#63b8ff" d="M399.05,-64.54C420.32,-55.39 447.95,-43.49 470.03,-33.98"/>
<polygon fill="#63b8ff" stroke="#63b8ff" points="397.76,-61.29 389.95,-68.46 400.52,-67.72 397.76,-61.29"/>
</a>
</g>
</g>
<!-- Node8 -->
<g id="Node000008" class="node">
<title>Node8</title>
<g id="a_Node000008"><a xlink:href="ConstructWorld_8cc.html" target="_top" xlink:title=" ">
<polygon fill="white" stroke="#666666" points="707.25,-33.5 586.25,-33.5 586.25,0 707.25,0 707.25,-33.5"/>
<text text-anchor="start" x="594.25" y="-20" font-family="Helvetica,sans-Serif" font-size="10.00">demo/src/Geometries</text>
<text text-anchor="middle" x="646.75" y="-7.25" font-family="Helvetica,sans-Serif" font-size="10.00">/ConstructWorld.cc</text>
</a>
</g>
</g>
<!-- Node3&#45;&gt;Node8 -->
<g id="edge7_Node000003_Node000008" class="edge">
<title>Node3&#45;&gt;Node8</title>
<g id="a_edge7_Node000003_Node000008"><a xlink:title=" ">
<path fill="none" stroke="#63b8ff" d="M423.54,-66.73C466.19,-57.71 525.63,-45.03 577.75,-33.5 580.39,-32.92 583.08,-32.32 585.81,-31.71"/>
<polygon fill="#63b8ff" stroke="#63b8ff" points="423.07,-63.25 414.01,-68.74 424.51,-70.1 423.07,-63.25"/>
</a>
</g>
</g>
<!-- Node11&#45;&gt;Node3 -->
<g id="edge11_Node000011_Node000003" class="edge">
<title>Node11&#45;&gt;Node3</title>
<g id="a_edge11_Node000011_Node000003"><a xlink:title=" ">
<path fill="none" stroke="#63b8ff" d="M572.8,-125.28C521.14,-114.2 455.13,-100.04 411.7,-90.73"/>
<polygon fill="#63b8ff" stroke="#63b8ff" points="571.94,-128.68 582.45,-127.35 573.41,-121.83 571.94,-128.68"/>
</a>
</g>
</g>
<!-- Node11&#45;&gt;Node9 -->
<g id="edge15_Node000011_Node000009" class="edge">
<title>Node11&#45;&gt;Node9</title>
<g id="a_edge15_Node000011_Node000009"><a xlink:title=" ">
<path fill="none" stroke="#63b8ff" d="M604.44,-121.03C581.7,-110.74 555.4,-98.83 537.37,-90.67"/>
<polygon fill="#63b8ff" stroke="#63b8ff" points="602.99,-124.22 613.55,-125.16 605.88,-117.84 602.99,-124.22"/>
</a>
</g>
</g>
<!-- Node11&#45;&gt;Node10 -->
<g id="edge17_Node000011_Node000010" class="edge">
<title>Node11&#45;&gt;Node10</title>
<g id="a_edge17_Node000011_Node000010"><a xlink:title=" ">
<path fill="none" stroke="#63b8ff" d="M572.81,-126.12C519.65,-118.37 366.93,-100.14 275.23,-89.29"/>
<polygon fill="#63b8ff" stroke="#63b8ff" points="572.17,-129.57 582.58,-127.63 573.23,-122.65 572.17,-129.57"/>
</a>
</g>
</g>
<!-- Node12 -->
<g id="Node000012" class="node">
<title>Node12</title>
<g id="a_Node000012"><a xlink:href="AssemblyCore_8cc.html" target="_top" xlink:title="Created by.">
<polygon fill="white" stroke="#666666" points="709.38,-90.25 592.12,-90.25 592.12,-69.5 709.38,-69.5 709.38,-90.25"/>
<text text-anchor="middle" x="650.75" y="-76.75" font-family="Helvetica,sans-Serif" font-size="10.00">src/AssemblyCore.cc</text>
</a>
</g>
</g>
<!-- Node11&#45;&gt;Node12 -->
<g id="edge12_Node000011_Node000012" class="edge">
<title>Node11&#45;&gt;Node12</title>
<g id="a_edge12_Node000011_Node000012"><a xlink:title=" ">
<path fill="none" stroke="#63b8ff" d="M650.75,-114.44C650.75,-105.96 650.75,-97.17 650.75,-90.72"/>
<polygon fill="#63b8ff" stroke="#63b8ff" points="647.25,-114.43 650.75,-124.43 654.25,-114.43 647.25,-114.43"/>
</a>
</g>
</g>
<!-- Node13 -->
<g id="Node000013" class="node">
<title>Node13</title>
<g id="a_Node000013"><a xlink:href="BoxBuilderCore_8cc.html" target="_top" xlink:title=" ">
<polygon fill="white" stroke="#666666" points="850,-90.25 727.5,-90.25 727.5,-69.5 850,-69.5 850,-90.25"/>
<text text-anchor="middle" x="788.75" y="-76.75" font-family="Helvetica,sans-Serif" font-size="10.00">src/BoxBuilderCore.cc</text>
</a>
</g>
</g>
<!-- Node11&#45;&gt;Node13 -->
<g id="edge13_Node000011_Node000013" class="edge">
<title>Node11&#45;&gt;Node13</title>
<g id="a_edge13_Node000011_Node000013"><a xlink:title=" ">
<path fill="none" stroke="#63b8ff" d="M697.77,-121.17C721.09,-110.84 748.14,-98.86 766.65,-90.67"/>
<polygon fill="#63b8ff" stroke="#63b8ff" points="696.48,-117.92 688.75,-125.17 699.31,-124.32 696.48,-117.92"/>
</a>
</g>
</g>
<!-- Node14 -->
<g id="Node000014" class="node">
<title>Node14</title>
<g id="a_Node000014"><a xlink:href="FromG4VSolidCore_8cc.html" target="_top" xlink:title=" ">
<polygon fill="white" stroke="#666666" points="1005.88,-90.25 867.62,-90.25 867.62,-69.5 1005.88,-69.5 1005.88,-90.25"/>
<text text-anchor="middle" x="936.75" y="-76.75" font-family="Helvetica,sans-Serif" font-size="10.00">src/FromG4VSolidCore.cc</text>
</a>
</g>
</g>
<!-- Node11&#45;&gt;Node14 -->
<g id="edge14_Node000011_Node000014" class="edge">
<title>Node11&#45;&gt;Node14</title>
<g id="a_edge14_Node000011_Node000014"><a xlink:title=" ">
<path fill="none" stroke="#63b8ff" d="M728.64,-125.35C780.66,-114.24 847.29,-99.99 890.96,-90.66"/>
<polygon fill="#63b8ff" stroke="#63b8ff" points="727.97,-121.92 718.92,-127.43 729.43,-128.76 727.97,-121.92"/>
</a>
</g>
</g>
<!-- Node11&#45;&gt;Node15 -->
<g id="edge16_Node000011_Node000015" class="edge">
<title>Node11&#45;&gt;Node15</title>
<g id="a_edge16_Node000011_Node000015"><a xlink:title=" ">
<path fill="none" stroke="#63b8ff" d="M728.89,-131.31C812.57,-119.87 944.24,-101.87 1025.55,-90.75"/>
<polygon fill="#63b8ff" stroke="#63b8ff" points="728.6,-127.82 719.17,-132.64 729.55,-134.76 728.6,-127.82"/>
</a>
</g>
</g>
<!-- Node11&#45;&gt;Node16 -->
<g id="edge18_Node000011_Node000016" class="edge">
<title>Node11&#45;&gt;Node16</title>
<g id="a_edge18_Node000011_Node000016"><a xlink:title=" ">
<path fill="none" stroke="#63b8ff" d="M729,-134.87C832.46,-125.33 1020.39,-107.59 1180.75,-90.25 1183.5,-89.95 1186.3,-89.65 1189.12,-89.33"/>
<polygon fill="#63b8ff" stroke="#63b8ff" points="728.87,-131.37 719.24,-135.77 729.51,-138.34 728.87,-131.37"/>
</a>
</g>
</g>
<!-- Node17&#45;&gt;Node10 -->
<g id="edge20_Node000017_Node000010" class="edge">
<title>Node17&#45;&gt;Node10</title>
<g id="a_edge20_Node000017_Node000010"><a xlink:title=" ">
<path fill="none" stroke="#63b8ff" d="M291.99,-126.97C270.33,-115.66 241.25,-100.47 222.5,-90.67"/>
<polygon fill="#63b8ff" stroke="#63b8ff" points="290.13,-129.95 300.61,-131.48 293.37,-123.75 290.13,-129.95"/>
</a>
</g>
</g>
</g>
</svg>
