<?xml version="1.0" encoding="UTF-8" standalone="no"?>
<!DOCTYPE svg PUBLIC "-//W3C//DTD SVG 1.1//EN"
 "http://www.w3.org/Graphics/SVG/1.1/DTD/svg11.dtd">
<!-- Generated by graphviz version 12.0.0 (20240803.0821)
 -->
<!-- Title: include/StructureBuilderCore.hh Pages: 1 -->
<svg width="1499pt" height="395pt"
 viewBox="0.00 0.00 1498.62 394.75" xmlns="http://www.w3.org/2000/svg" xmlns:xlink="http://www.w3.org/1999/xlink">
<g id="graph0" class="graph" transform="scale(1 1) rotate(0) translate(4 390.75)">
<title>include/StructureBuilderCore.hh</title>
<!-- Node1 -->
<g id="Node000001" class="node">
<title>Node1</title>
<g id="a_Node000001"><a xlink:title=" ">
<polygon fill="#999999" stroke="#666666" points="740.12,-386.75 607.12,-386.75 607.12,-353.25 740.12,-353.25 740.12,-386.75"/>
<text text-anchor="start" x="615.12" y="-373.25" font-family="Helvetica,sans-Serif" font-size="10.00">include/StructureBuilder</text>
<text text-anchor="middle" x="673.62" y="-360.5" font-family="Helvetica,sans-Serif" font-size="10.00">Core.hh</text>
</a>
</g>
</g>
<!-- Node2 -->
<g id="Node000002" class="node">
<title>Node2</title>
<g id="a_Node000002"><a xlink:href="Linkable_8hh.html" target="_top" xlink:title=" ">
<polygon fill="white" stroke="#666666" points="1271.38,-203.75 1199.88,-203.75 1199.88,-183 1271.38,-183 1271.38,-203.75"/>
<text text-anchor="middle" x="1235.62" y="-190.25" font-family="Helvetica,sans-Serif" font-size="10.00">Linkable.hh</text>
</a>
</g>
</g>
<!-- Node1&#45;&gt;Node2 -->
<g id="edge1_Node000001_Node000002" class="edge">
<title>Node1&#45;&gt;Node2</title>
<g id="a_edge1_Node000001_Node000002"><a xlink:title=" ">
<path fill="none" stroke="#63b8ff" d="M740.49,-363.5C868.18,-351.75 1140.32,-320.24 1210.62,-260.5 1223.92,-249.2 1230.16,-230.05 1233.08,-215.26"/>
<polygon fill="#63b8ff" stroke="#63b8ff" points="1236.5,-216.05 1234.6,-205.63 1229.58,-214.96 1236.5,-216.05"/>
</a>
</g>
</g>
<!-- Node5 -->
<g id="Node000005" class="node">
<title>Node5</title>
<g id="a_Node000005"><a xlink:title=" ">
<polygon fill="#e0e0e0" stroke="#999999" points="1490.62,-140.62 1426.62,-140.62 1426.62,-119.88 1490.62,-119.88 1490.62,-140.62"/>
<text text-anchor="middle" x="1458.62" y="-127.12" font-family="Helvetica,sans-Serif" font-size="10.00">stdexcept</text>
</a>
</g>
</g>
<!-- Node1&#45;&gt;Node5 -->
<g id="edge15_Node000001_Node000005" class="edge">
<title>Node1&#45;&gt;Node5</title>
<g id="a_edge15_Node000001_Node000005"><a xlink:title=" ">
<path fill="none" stroke="#63b8ff" d="M740.26,-365.23C827.04,-359.4 983.06,-345.75 1113.62,-317.25 1273.81,-282.29 1368.16,-336.32 1464.62,-203.75 1475.46,-188.86 1472.01,-167.41 1467.02,-151.7"/>
<polygon fill="#63b8ff" stroke="#63b8ff" points="1470.36,-150.63 1463.65,-142.44 1463.78,-153.03 1470.36,-150.63"/>
</a>
</g>
</g>
<!-- Node8 -->
<g id="Node000008" class="node">
<title>Node8</title>
<g id="a_Node000008"><a xlink:href="i__shared__ptr_8hh.html" target="_top" xlink:title=" ">
<polygon fill="white" stroke="#666666" points="113.75,-140.62 23.5,-140.62 23.5,-119.88 113.75,-119.88 113.75,-140.62"/>
<text text-anchor="middle" x="68.62" y="-127.12" font-family="Helvetica,sans-Serif" font-size="10.00">i_shared_ptr.hh</text>
</a>
</g>
</g>
<!-- Node1&#45;&gt;Node8 -->
<g id="edge7_Node000001_Node000008" class="edge">
<title>Node1&#45;&gt;Node8</title>
<g id="a_edge7_Node000001_Node000008"><a xlink:title=" ">
<path fill="none" stroke="#63b8ff" d="M606.84,-364.36C540.7,-358.35 437.22,-345.15 351.62,-317.25 245.89,-282.79 215.44,-273.26 128.62,-203.75 109.48,-188.42 92.16,-166.14 81.1,-150.33"/>
<polygon fill="#63b8ff" stroke="#63b8ff" points="84.14,-148.58 75.63,-142.27 78.35,-152.51 84.14,-148.58"/>
</a>
</g>
</g>
<!-- Node13 -->
<g id="Node000013" class="node">
<title>Node13</title>
<g id="a_Node000013"><a xlink:href="StructureBuilderBase_8hh.html" target="_top" xlink:title=" ">
<polygon fill="white" stroke="#666666" points="740.5,-317.25 606.75,-317.25 606.75,-296.5 740.5,-296.5 740.5,-317.25"/>
<text text-anchor="middle" x="673.62" y="-303.75" font-family="Helvetica,sans-Serif" font-size="10.00">StructureBuilderBase.hh</text>
</a>
</g>
</g>
<!-- Node1&#45;&gt;Node13 -->
<g id="edge16_Node000001_Node000013" class="edge">
<title>Node1&#45;&gt;Node13</title>
<g id="a_edge16_Node000001_Node000013"><a xlink:title=" ">
<path fill="none" stroke="#63b8ff" d="M673.62,-352.94C673.62,-345.6 673.62,-336.82 673.62,-328.96"/>
<polygon fill="#63b8ff" stroke="#63b8ff" points="677.13,-329.23 673.63,-319.23 670.13,-329.23 677.13,-329.23"/>
</a>
</g>
</g>
<!-- Node16 -->
<g id="Node000016" class="node">
<title>Node16</title>
<g id="a_Node000016"><a xlink:href="VolumeBuildersTypes_8hh.html" target="_top" xlink:title=" ">
<polygon fill="white" stroke="#666666" points="411.25,-203.75 276,-203.75 276,-183 411.25,-183 411.25,-203.75"/>
<text text-anchor="middle" x="343.62" y="-190.25" font-family="Helvetica,sans-Serif" font-size="10.00">VolumeBuildersTypes.hh</text>
</a>
</g>
</g>
<!-- Node1&#45;&gt;Node16 -->
<g id="edge57_Node000001_Node000016" class="edge">
<title>Node1&#45;&gt;Node16</title>
<g id="a_edge57_Node000001_Node000016"><a xlink:title=" ">
<path fill="none" stroke="#63b8ff" d="M606.68,-359.46C508.72,-343.97 333.9,-310.02 296.62,-260.5 284.12,-243.89 301.67,-224.44 318.77,-210.95"/>
<polygon fill="#63b8ff" stroke="#63b8ff" points="320.84,-213.78 326.82,-205.03 316.69,-208.14 320.84,-213.78"/>
</a>
</g>
</g>
<!-- Node3 -->
<g id="Node000003" class="node">
<title>Node3</title>
<g id="a_Node000003"><a xlink:title=" ">
<polygon fill="#e0e0e0" stroke="#999999" points="481.25,-77.5 424,-77.5 424,-56.75 481.25,-56.75 481.25,-77.5"/>
<text text-anchor="middle" x="452.62" y="-64" font-family="Helvetica,sans-Serif" font-size="10.00">memory</text>
</a>
</g>
</g>
<!-- Node2&#45;&gt;Node3 -->
<g id="edge2_Node000002_Node000003" class="edge">
<title>Node2&#45;&gt;Node3</title>
<g id="a_edge2_Node000002_Node000003"><a xlink:title=" ">
<path fill="none" stroke="#63b8ff" d="M1236.73,-182.52C1238.04,-165.47 1237.88,-130.66 1217.62,-113.5 1162.09,-66.45 642.55,-66.68 492.82,-67.74"/>
<polygon fill="#63b8ff" stroke="#63b8ff" points="492.98,-64.24 483,-67.82 493.03,-71.24 492.98,-64.24"/>
</a>
</g>
</g>
<!-- Node4 -->
<g id="Node000004" class="node">
<title>Node4</title>
<g id="a_Node000004"><a xlink:title=" ">
<polygon fill="#e0e0e0" stroke="#999999" points="1208.38,-140.62 1160.88,-140.62 1160.88,-119.88 1208.38,-119.88 1208.38,-140.62"/>
<text text-anchor="middle" x="1184.62" y="-127.12" font-family="Helvetica,sans-Serif" font-size="10.00">mutex</text>
</a>
</g>
</g>
<!-- Node2&#45;&gt;Node4 -->
<g id="edge3_Node000002_Node000004" class="edge">
<title>Node2&#45;&gt;Node4</title>
<g id="a_edge3_Node000002_Node000004"><a xlink:title=" ">
<path fill="none" stroke="#63b8ff" d="M1227.43,-182.55C1220.03,-173.68 1208.94,-160.39 1199.9,-149.56"/>
<polygon fill="#63b8ff" stroke="#63b8ff" points="1202.69,-147.44 1193.6,-142.01 1197.32,-151.93 1202.69,-147.44"/>
</a>
</g>
</g>
<!-- Node2&#45;&gt;Node5 -->
<g id="edge4_Node000002_Node000005" class="edge">
<title>Node2&#45;&gt;Node5</title>
<g id="a_edge4_Node000002_Node000005"><a xlink:title=" ">
<path fill="none" stroke="#63b8ff" d="M1271.45,-182.55C1310.59,-171.83 1373.27,-154.65 1415.18,-143.16"/>
<polygon fill="#63b8ff" stroke="#63b8ff" points="1415.97,-146.57 1424.69,-140.55 1414.12,-139.82 1415.97,-146.57"/>
</a>
</g>
</g>
<!-- Node6 -->
<g id="Node000006" class="node">
<title>Node6</title>
<g id="a_Node000006"><a xlink:title=" ">
<polygon fill="#e0e0e0" stroke="#999999" points="1332.88,-140.62 1264.38,-140.62 1264.38,-119.88 1332.88,-119.88 1332.88,-140.62"/>
<text text-anchor="middle" x="1298.62" y="-127.12" font-family="Helvetica,sans-Serif" font-size="10.00">type_traits</text>
</a>
</g>
</g>
<!-- Node2&#45;&gt;Node6 -->
<g id="edge5_Node000002_Node000006" class="edge">
<title>Node2&#45;&gt;Node6</title>
<g id="a_edge5_Node000002_Node000006"><a xlink:title=" ">
<path fill="none" stroke="#63b8ff" d="M1245.75,-182.55C1255.17,-173.41 1269.43,-159.58 1280.76,-148.58"/>
<polygon fill="#63b8ff" stroke="#63b8ff" points="1282.91,-151.37 1287.65,-141.9 1278.04,-146.35 1282.91,-151.37"/>
</a>
</g>
</g>
<!-- Node7 -->
<g id="Node000007" class="node">
<title>Node7</title>
<g id="a_Node000007"><a xlink:title=" ">
<polygon fill="#e0e0e0" stroke="#999999" points="576,-140.62 529.25,-140.62 529.25,-119.88 576,-119.88 576,-140.62"/>
<text text-anchor="middle" x="552.62" y="-127.12" font-family="Helvetica,sans-Serif" font-size="10.00">vector</text>
</a>
</g>
</g>
<!-- Node2&#45;&gt;Node7 -->
<g id="edge6_Node000002_Node000007" class="edge">
<title>Node2&#45;&gt;Node7</title>
<g id="a_edge6_Node000002_Node000007"><a xlink:title=" ">
<path fill="none" stroke="#63b8ff" d="M1199.58,-191.63C1080.88,-188.9 703.08,-177.93 585.62,-147 583.81,-146.52 581.97,-145.94 580.15,-145.3"/>
<polygon fill="#63b8ff" stroke="#63b8ff" points="581.94,-142.25 571.37,-141.61 579.23,-148.71 581.94,-142.25"/>
</a>
</g>
</g>
<!-- Node8&#45;&gt;Node3 -->
<g id="edge10_Node000008_Node000003" class="edge">
<title>Node8&#45;&gt;Node3</title>
<g id="a_edge10_Node000008_Node000003"><a xlink:title=" ">
<path fill="none" stroke="#63b8ff" d="M99.55,-119.38C107.05,-117.23 115.08,-115.11 122.62,-113.5 177.18,-101.86 336.93,-81.99 412.34,-72.91"/>
<polygon fill="#63b8ff" stroke="#63b8ff" points="412.67,-76.4 422.18,-71.73 411.84,-69.45 412.67,-76.4"/>
</a>
</g>
</g>
<!-- Node9 -->
<g id="Node000009" class="node">
<title>Node9</title>
<g id="a_Node000009"><a xlink:title=" ">
<polygon fill="#e0e0e0" stroke="#999999" points="213.5,-20.75 97.75,-20.75 97.75,0 213.5,0 213.5,-20.75"/>
<text text-anchor="middle" x="155.62" y="-7.25" font-family="Helvetica,sans-Serif" font-size="10.00">G4LogicalVolume.hh</text>
</a>
</g>
</g>
<!-- Node8&#45;&gt;Node9 -->
<g id="edge8_Node000008_Node000009" class="edge">
<title>Node8&#45;&gt;Node9</title>
<g id="a_edge8_Node000008_Node000009"><a xlink:title=" ">
<path fill="none" stroke="#63b8ff" d="M70.25,-119.48C73.11,-104.7 80.13,-76.3 94.62,-56.75 103.32,-45.02 115.88,-34.96 127.36,-27.31"/>
<polygon fill="#63b8ff" stroke="#63b8ff" points="129.15,-30.32 135.75,-22.03 125.42,-24.39 129.15,-30.32"/>
</a>
</g>
</g>
<!-- Node10 -->
<g id="Node000010" class="node">
<title>Node10</title>
<g id="a_Node000010"><a xlink:title=" ">
<polygon fill="#e0e0e0" stroke="#999999" points="75.25,-20.75 0,-20.75 0,0 75.25,0 75.25,-20.75"/>
<text text-anchor="middle" x="37.62" y="-7.25" font-family="Helvetica,sans-Serif" font-size="10.00">G4VSolid.hh</text>
</a>
</g>
</g>
<!-- Node8&#45;&gt;Node10 -->
<g id="edge9_Node000008_Node000010" class="edge">
<title>Node8&#45;&gt;Node10</title>
<g id="a_edge9_Node000008_Node000010"><a xlink:title=" ">
<path fill="none" stroke="#63b8ff" d="M66.09,-119.6C61.09,-100.61 49.88,-57.97 43.11,-32.25"/>
<polygon fill="#63b8ff" stroke="#63b8ff" points="46.51,-31.4 40.58,-22.62 39.74,-33.18 46.51,-31.4"/>
</a>
</g>
</g>
<!-- Node11 -->
<g id="Node000011" class="node">
<title>Node11</title>
<g id="a_Node000011"><a xlink:href="IVolumeBuilder_8hh.html" target="_top" xlink:title="Created by.">
<polygon fill="white" stroke="#666666" points="207.88,-77.5 103.38,-77.5 103.38,-56.75 207.88,-56.75 207.88,-77.5"/>
<text text-anchor="middle" x="155.62" y="-64" font-family="Helvetica,sans-Serif" font-size="10.00">IVolumeBuilder.hh</text>
</a>
</g>
</g>
<!-- Node8&#45;&gt;Node11 -->
<g id="edge11_Node000008_Node000011" class="edge">
<title>Node8&#45;&gt;Node11</title>
<g id="a_edge11_Node000008_Node000011"><a xlink:title=" ">
<path fill="none" stroke="#63b8ff" d="M82.6,-119.43C96.05,-109.98 116.62,-95.53 132.5,-84.37"/>
<polygon fill="#63b8ff" stroke="#63b8ff" points="134.27,-87.4 140.44,-78.79 130.25,-81.68 134.27,-87.4"/>
</a>
</g>
</g>
<!-- Node11&#45;&gt;Node9 -->
<g id="edge12_Node000011_Node000009" class="edge">
<title>Node11&#45;&gt;Node9</title>
<g id="a_edge12_Node000011_Node000009"><a xlink:title=" ">
<path fill="none" stroke="#63b8ff" d="M155.62,-56.34C155.62,-49.72 155.62,-40.72 155.62,-32.52"/>
<polygon fill="#63b8ff" stroke="#63b8ff" points="159.13,-32.59 155.63,-22.59 152.13,-32.59 159.13,-32.59"/>
</a>
</g>
</g>
<!-- Node11&#45;&gt;Node10 -->
<g id="edge14_Node000011_Node000010" class="edge">
<title>Node11&#45;&gt;Node10</title>
<g id="a_edge14_Node000011_Node000010"><a xlink:title=" ">
<path fill="none" stroke="#63b8ff" d="M134.53,-56.34C116.24,-47.85 89.52,-35.45 68.77,-25.83"/>
<polygon fill="#63b8ff" stroke="#63b8ff" points="70.46,-22.75 59.91,-21.72 67.51,-29.1 70.46,-22.75"/>
</a>
</g>
</g>
<!-- Node12 -->
<g id="Node000012" class="node">
<title>Node12</title>
<g id="a_Node000012"><a xlink:title=" ">
<polygon fill="#e0e0e0" stroke="#999999" points="1414,-20.75 1307.25,-20.75 1307.25,0 1414,0 1414,-20.75"/>
<text text-anchor="middle" x="1360.62" y="-7.25" font-family="Helvetica,sans-Serif" font-size="10.00">G4Transform3D.hh</text>
</a>
</g>
</g>
<!-- Node11&#45;&gt;Node12 -->
<g id="edge13_Node000011_Node000012" class="edge">
<title>Node11&#45;&gt;Node12</title>
<g id="a_edge13_Node000011_Node000012"><a xlink:title=" ">
<path fill="none" stroke="#63b8ff" d="M208.31,-57.96C212.13,-57.5 215.94,-57.09 219.62,-56.75 627.95,-18.83 1121.36,-12.57 1295.76,-11.56"/>
<polygon fill="#63b8ff" stroke="#63b8ff" points="1295.53,-15.06 1305.51,-11.51 1295.49,-8.06 1295.53,-15.06"/>
</a>
</g>
</g>
<!-- Node13&#45;&gt;Node2 -->
<g id="edge18_Node000013_Node000002" class="edge">
<title>Node13&#45;&gt;Node2</title>
<g id="a_edge18_Node000013_Node000002"><a xlink:title=" ">
<path fill="none" stroke="#63b8ff" d="M740.99,-306.57C862.11,-306.74 1110.98,-301.85 1185.62,-260.5 1204.27,-250.17 1218.07,-229.67 1226.4,-214.22"/>
<polygon fill="#63b8ff" stroke="#63b8ff" points="1229.45,-215.94 1230.8,-205.43 1223.19,-212.8 1229.45,-215.94"/>
</a>
</g>
</g>
<!-- Node13&#45;&gt;Node3 -->
<g id="edge53_Node000013_Node000003" class="edge">
<title>Node13&#45;&gt;Node3</title>
<g id="a_edge53_Node000013_Node000003"><a xlink:title=" ">
<path fill="none" stroke="#63b8ff" d="M673.52,-296.46C672.85,-282.32 669.53,-255.57 654.62,-239.75 621.66,-204.76 591.26,-232.36 552.62,-203.75 541.28,-195.35 490.23,-122.57 465.77,-87.22"/>
<polygon fill="#63b8ff" stroke="#63b8ff" points="468.79,-85.44 460.23,-79.2 463.03,-89.41 468.79,-85.44"/>
</a>
</g>
</g>
<!-- Node13&#45;&gt;Node4 -->
<g id="edge52_Node000013_Node000004" class="edge">
<title>Node13&#45;&gt;Node4</title>
<g id="a_edge52_Node000013_Node000004"><a xlink:title=" ">
<path fill="none" stroke="#63b8ff" d="M740.86,-303.42C841.02,-298.92 1024,-287.25 1083.62,-260.5 1131.32,-239.1 1162.54,-181.94 1176.39,-151.31"/>
<polygon fill="#63b8ff" stroke="#63b8ff" points="1179.5,-152.95 1180.25,-142.38 1173.07,-150.17 1179.5,-152.95"/>
</a>
</g>
</g>
<!-- Node13&#45;&gt;Node5 -->
<g id="edge54_Node000013_Node000005" class="edge">
<title>Node13&#45;&gt;Node5</title>
<g id="a_edge54_Node000013_Node000005"><a xlink:title=" ">
<path fill="none" stroke="#63b8ff" d="M740.82,-305.91C912.9,-305.44 1359.7,-300.33 1412.62,-260.5 1446.61,-234.93 1455.57,-182.14 1457.87,-152.55"/>
<polygon fill="#63b8ff" stroke="#63b8ff" points="1461.36,-152.79 1458.44,-142.61 1454.38,-152.4 1461.36,-152.79"/>
</a>
</g>
</g>
<!-- Node13&#45;&gt;Node7 -->
<g id="edge46_Node000013_Node000007" class="edge">
<title>Node13&#45;&gt;Node7</title>
<g id="a_edge46_Node000013_Node000007"><a xlink:title=" ">
<path fill="none" stroke="#63b8ff" d="M607.81,-296.07C567.35,-288.54 520.96,-276.69 508.62,-260.5 482.78,-226.58 514.99,-176.5 536.42,-149.73"/>
<polygon fill="#63b8ff" stroke="#63b8ff" points="539.02,-152.08 542.73,-142.16 533.64,-147.6 539.02,-152.08"/>
</a>
</g>
</g>
<!-- Node13&#45;&gt;Node8 -->
<g id="edge47_Node000013_Node000008" class="edge">
<title>Node13&#45;&gt;Node8</title>
<g id="a_edge47_Node000013_Node000008"><a xlink:title=" ">
<path fill="none" stroke="#63b8ff" d="M606.59,-302.26C507.19,-296.24 325.85,-282.62 264.62,-260.5 192.44,-234.42 120.41,-176.78 87.35,-148.12"/>
<polygon fill="#63b8ff" stroke="#63b8ff" points="90.05,-145.83 80.23,-141.85 85.43,-151.08 90.05,-145.83"/>
</a>
</g>
</g>
<!-- Node13&#45;&gt;Node12 -->
<g id="edge45_Node000013_Node000012" class="edge">
<title>Node13&#45;&gt;Node12</title>
<g id="a_edge45_Node000013_Node000012"><a xlink:title=" ">
<path fill="none" stroke="#63b8ff" d="M740.98,-305.64C843.51,-304.05 1044.36,-296.16 1210.62,-260.5 1297.23,-241.93 1398.62,-282.95 1398.62,-194.38 1398.62,-194.38 1398.62,-194.38 1398.62,-129.25 1398.62,-93.38 1382.49,-54.21 1371.25,-31.27"/>
<polygon fill="#63b8ff" stroke="#63b8ff" points="1374.42,-29.79 1366.76,-22.47 1368.19,-32.97 1374.42,-29.79"/>
</a>
</g>
</g>
<!-- Node14 -->
<g id="Node000014" class="node">
<title>Node14</title>
<g id="a_Node000014"><a xlink:title=" ">
<polygon fill="#e0e0e0" stroke="#999999" points="187.5,-140.62 131.75,-140.62 131.75,-119.88 187.5,-119.88 187.5,-140.62"/>
<text text-anchor="middle" x="159.62" y="-127.12" font-family="Helvetica,sans-Serif" font-size="10.00">optional</text>
</a>
</g>
</g>
<!-- Node13&#45;&gt;Node14 -->
<g id="edge17_Node000013_Node000014" class="edge">
<title>Node13&#45;&gt;Node14</title>
<g id="a_edge17_Node000013_Node000014"><a xlink:title=" ">
<path fill="none" stroke="#63b8ff" d="M606.51,-303.27C513.08,-298.71 349.37,-287.13 296.62,-260.5 254.38,-239.17 258.32,-215.17 223.62,-183 210.27,-170.61 194.34,-157.73 181.71,-147.91"/>
<polygon fill="#63b8ff" stroke="#63b8ff" points="184.06,-145.31 174,-141.99 179.8,-150.86 184.06,-145.31"/>
</a>
</g>
</g>
<!-- Node15 -->
<g id="Node000015" class="node">
<title>Node15</title>
<g id="a_Node000015"><a xlink:href="ISolidBuilder_8hh_source.html" target="_top" xlink:title=" ">
<polygon fill="white" stroke="#666666" points="1074.5,-260.5 982.75,-260.5 982.75,-239.75 1074.5,-239.75 1074.5,-260.5"/>
<text text-anchor="middle" x="1028.62" y="-247" font-family="Helvetica,sans-Serif" font-size="10.00">ISolidBuilder.hh</text>
</a>
</g>
</g>
<!-- Node13&#45;&gt;Node15 -->
<g id="edge19_Node000013_Node000015" class="edge">
<title>Node13&#45;&gt;Node15</title>
<g id="a_edge19_Node000013_Node000015"><a xlink:title=" ">
<path fill="none" stroke="#63b8ff" d="M737.5,-296.02C804.07,-285.76 907.43,-269.82 971.41,-259.95"/>
<polygon fill="#63b8ff" stroke="#63b8ff" points="971.64,-263.45 980.99,-258.47 970.58,-256.54 971.64,-263.45"/>
</a>
</g>
</g>
<!-- Node13&#45;&gt;Node16 -->
<g id="edge48_Node000013_Node000016" class="edge">
<title>Node13&#45;&gt;Node16</title>
<g id="a_edge48_Node000013_Node000016"><a xlink:title=" ">
<path fill="none" stroke="#63b8ff" d="M606.5,-302.34C505.78,-296.34 325.19,-282.62 305.62,-260.5 292.57,-245.74 307.53,-225.8 322.35,-211.69"/>
<polygon fill="#63b8ff" stroke="#63b8ff" points="324.56,-214.4 329.71,-205.14 319.91,-209.17 324.56,-214.4"/>
</a>
</g>
</g>
<!-- Node17 -->
<g id="Node000017" class="node">
<title>Node17</title>
<g id="a_Node000017"><a xlink:title=" ">
<polygon fill="#e0e0e0" stroke="#999999" points="473.75,-140.62 371.5,-140.62 371.5,-119.88 473.75,-119.88 473.75,-140.62"/>
<text text-anchor="middle" x="422.62" y="-127.12" font-family="Helvetica,sans-Serif" font-size="10.00">G4ThreeVector.hh</text>
</a>
</g>
</g>
<!-- Node13&#45;&gt;Node17 -->
<g id="edge51_Node000013_Node000017" class="edge">
<title>Node13&#45;&gt;Node17</title>
<g id="a_edge51_Node000013_Node000017"><a xlink:title=" ">
<path fill="none" stroke="#63b8ff" d="M606.37,-301.42C570.46,-296.11 527.28,-284.72 495.62,-260.5 458.91,-232.41 437.81,-180.23 428.46,-151.51"/>
<polygon fill="#63b8ff" stroke="#63b8ff" points="431.89,-150.75 425.61,-142.22 425.2,-152.81 431.89,-150.75"/>
</a>
</g>
</g>
<!-- Node21 -->
<g id="Node000021" class="node">
<title>Node21</title>
<g id="a_Node000021"><a xlink:href="VolumeBuilderConfigs_8hh.html" target="_top" xlink:title=" ">
<polygon fill="white" stroke="#666666" points="699.75,-203.75 561.5,-203.75 561.5,-183 699.75,-183 699.75,-203.75"/>
<text text-anchor="middle" x="630.62" y="-190.25" font-family="Helvetica,sans-Serif" font-size="10.00">VolumeBuilderConfigs.hh</text>
</a>
</g>
</g>
<!-- Node13&#45;&gt;Node21 -->
<g id="edge34_Node000013_Node000021" class="edge">
<title>Node13&#45;&gt;Node21</title>
<g id="a_edge34_Node000013_Node000021"><a xlink:title=" ">
<path fill="none" stroke="#63b8ff" d="M679.26,-296.44C686.38,-283.18 696.7,-258.56 687.62,-239.75 681.78,-227.62 670.94,-217.74 660.28,-210.33"/>
<polygon fill="#63b8ff" stroke="#63b8ff" points="662.27,-207.45 651.95,-205.03 658.51,-213.35 662.27,-207.45"/>
</a>
</g>
</g>
<!-- Node22 -->
<g id="Node000022" class="node">
<title>Node22</title>
<g id="a_Node000022"><a xlink:title=" ">
<polygon fill="#e0e0e0" stroke="#999999" points="1104.25,-140.62 1029,-140.62 1029,-119.88 1104.25,-119.88 1104.25,-140.62"/>
<text text-anchor="middle" x="1066.62" y="-127.12" font-family="Helvetica,sans-Serif" font-size="10.00">G4Colour.hh</text>
</a>
</g>
</g>
<!-- Node13&#45;&gt;Node22 -->
<g id="edge49_Node000013_Node000022" class="edge">
<title>Node13&#45;&gt;Node22</title>
<g id="a_edge49_Node000013_Node000022"><a xlink:title=" ">
<path fill="none" stroke="#63b8ff" d="M695.6,-296.11C761.36,-266.89 956.9,-180 1034.43,-145.55"/>
<polygon fill="#63b8ff" stroke="#63b8ff" points="1035.47,-148.93 1043.18,-141.67 1032.62,-142.53 1035.47,-148.93"/>
</a>
</g>
</g>
<!-- Node26 -->
<g id="Node000026" class="node">
<title>Node26</title>
<g id="a_Node000026"><a xlink:title=" ">
<polygon fill="#e0e0e0" stroke="#999999" points="645.88,-260.5 517.38,-260.5 517.38,-239.75 645.88,-239.75 645.88,-260.5"/>
<text text-anchor="middle" x="581.62" y="-247" font-family="Helvetica,sans-Serif" font-size="10.00">G4VPhysicalVolume.hh</text>
</a>
</g>
</g>
<!-- Node13&#45;&gt;Node26 -->
<g id="edge50_Node000013_Node000026" class="edge">
<title>Node13&#45;&gt;Node26</title>
<g id="a_edge50_Node000013_Node000026"><a xlink:title=" ">
<path fill="none" stroke="#63b8ff" d="M657.18,-296.09C643.44,-287.91 623.61,-276.11 607.71,-266.65"/>
<polygon fill="#63b8ff" stroke="#63b8ff" points="609.61,-263.71 599.23,-261.6 606.03,-269.72 609.61,-263.71"/>
</a>
</g>
</g>
<!-- Node27 -->
<g id="Node000027" class="node">
<title>Node27</title>
<g id="a_Node000027"><a xlink:href="BuilderFactories_8hh.html" target="_top" xlink:title=" ">
<polygon fill="white" stroke="#666666" points="423.12,-260.5 314.12,-260.5 314.12,-239.75 423.12,-239.75 423.12,-260.5"/>
<text text-anchor="middle" x="368.62" y="-247" font-family="Helvetica,sans-Serif" font-size="10.00">BuilderFactories.hh</text>
</a>
</g>
</g>
<!-- Node13&#45;&gt;Node27 -->
<g id="edge55_Node000013_Node000027" class="edge">
<title>Node13&#45;&gt;Node27</title>
<g id="a_edge55_Node000013_Node000027"><a xlink:title=" ">
<path fill="none" stroke="#63b8ff" d="M618.74,-296.02C567.08,-286.75 489.62,-272.85 434.61,-262.97"/>
<polygon fill="#63b8ff" stroke="#63b8ff" points="435.53,-259.58 425.07,-261.26 434.29,-266.47 435.53,-259.58"/>
</a>
</g>
</g>
<!-- Node15&#45;&gt;Node2 -->
<g id="edge23_Node000015_Node000002" class="edge">
<title>Node15&#45;&gt;Node2</title>
<g id="a_edge23_Node000015_Node000002"><a xlink:title=" ">
<path fill="none" stroke="#63b8ff" d="M1065.63,-239.34C1099.99,-230.25 1151.3,-216.68 1188.55,-206.82"/>
<polygon fill="#63b8ff" stroke="#63b8ff" points="1189.4,-210.22 1198.17,-204.28 1187.61,-203.46 1189.4,-210.22"/>
</a>
</g>
</g>
<!-- Node15&#45;&gt;Node9 -->
<g id="edge20_Node000015_Node000009" class="edge">
<title>Node15&#45;&gt;Node9</title>
<g id="a_edge20_Node000015_Node000009"><a xlink:title=" ">
<path fill="none" stroke="#63b8ff" d="M1042.9,-239.49C1075.79,-216.15 1151.34,-155.45 1113.62,-113.5 1054.32,-47.54 435.59,-20.77 225.2,-13.53"/>
<polygon fill="#63b8ff" stroke="#63b8ff" points="225.34,-10.04 215.23,-13.2 225.1,-17.03 225.34,-10.04"/>
</a>
</g>
</g>
<!-- Node15&#45;&gt;Node10 -->
<g id="edge22_Node000015_Node000010" class="edge">
<title>Node15&#45;&gt;Node10</title>
<g id="a_edge22_Node000015_Node000010"><a xlink:title=" ">
<path fill="none" stroke="#63b8ff" d="M982.32,-248.24C791.84,-244.12 75.89,-223.6 14.62,-147 -12.36,-113.26 10.27,-59.49 25.88,-30.84"/>
<polygon fill="#63b8ff" stroke="#63b8ff" points="28.72,-32.91 30.65,-22.49 22.65,-29.44 28.72,-32.91"/>
</a>
</g>
</g>
<!-- Node15&#45;&gt;Node12 -->
<g id="edge21_Node000015_Node000012" class="edge">
<title>Node15&#45;&gt;Node12</title>
<g id="a_edge21_Node000015_Node000012"><a xlink:title=" ">
<path fill="none" stroke="#63b8ff" d="M1074.75,-248.53C1127.22,-246.15 1214.23,-236.96 1280.62,-203.75 1313.74,-187.19 1324.51,-179.84 1341.62,-147 1360.78,-110.23 1362.66,-60.62 1361.9,-32.73"/>
<polygon fill="#63b8ff" stroke="#63b8ff" points="1365.4,-32.6 1361.47,-22.76 1358.41,-32.9 1365.4,-32.6"/>
</a>
</g>
</g>
<!-- Node15&#45;&gt;Node16 -->
<g id="edge24_Node000015_Node000016" class="edge">
<title>Node15&#45;&gt;Node16</title>
<g id="a_edge24_Node000015_Node000016"><a xlink:title=" ">
<path fill="none" stroke="#63b8ff" d="M982.35,-245.43C867.27,-236.23 567.12,-212.24 423.05,-200.72"/>
<polygon fill="#63b8ff" stroke="#63b8ff" points="423.45,-197.24 413.2,-199.94 422.89,-204.22 423.45,-197.24"/>
</a>
</g>
</g>
<!-- Node16&#45;&gt;Node3 -->
<g id="edge26_Node000016_Node000003" class="edge">
<title>Node16&#45;&gt;Node3</title>
<g id="a_edge26_Node000016_Node000003"><a xlink:title=" ">
<path fill="none" stroke="#63b8ff" d="M343.46,-182.51C343.7,-166.37 346.35,-134.03 362.62,-113.5 375.31,-97.49 395.15,-86.64 412.98,-79.58"/>
<polygon fill="#63b8ff" stroke="#63b8ff" points="414.11,-82.89 422.31,-76.18 411.72,-76.31 414.11,-82.89"/>
</a>
</g>
</g>
<!-- Node16&#45;&gt;Node7 -->
<g id="edge28_Node000016_Node000007" class="edge">
<title>Node16&#45;&gt;Node7</title>
<g id="a_edge28_Node000016_Node000007"><a xlink:title=" ">
<path fill="none" stroke="#63b8ff" d="M377.2,-182.55C415.85,-171.25 479.01,-152.78 518.06,-141.36"/>
<polygon fill="#63b8ff" stroke="#63b8ff" points="518.81,-144.79 527.43,-138.62 516.85,-138.07 518.81,-144.79"/>
</a>
</g>
</g>
<!-- Node16&#45;&gt;Node8 -->
<g id="edge33_Node000016_Node000008" class="edge">
<title>Node16&#45;&gt;Node8</title>
<g id="a_edge33_Node000016_Node000008"><a xlink:title=" ">
<path fill="none" stroke="#63b8ff" d="M289.76,-182.58C244.84,-174.12 179.27,-161.05 122.62,-147 119.07,-146.12 115.4,-145.16 111.72,-144.16"/>
<polygon fill="#63b8ff" stroke="#63b8ff" points="112.81,-140.83 102.23,-141.5 110.92,-147.57 112.81,-140.83"/>
</a>
</g>
</g>
<!-- Node16&#45;&gt;Node14 -->
<g id="edge27_Node000016_Node000014" class="edge">
<title>Node16&#45;&gt;Node14</title>
<g id="a_edge27_Node000016_Node000014"><a xlink:title=" ">
<path fill="none" stroke="#63b8ff" d="M308.24,-182.56C278.25,-173.98 234.25,-160.77 196.62,-147 195.11,-146.45 193.56,-145.86 192.01,-145.26"/>
<polygon fill="#63b8ff" stroke="#63b8ff" points="193.77,-142.2 183.18,-141.69 191.14,-148.68 193.77,-142.2"/>
</a>
</g>
</g>
<!-- Node16&#45;&gt;Node17 -->
<g id="edge25_Node000016_Node000017" class="edge">
<title>Node16&#45;&gt;Node17</title>
<g id="a_edge25_Node000016_Node000017"><a xlink:title=" ">
<path fill="none" stroke="#63b8ff" d="M356.32,-182.55C368.41,-173.2 386.85,-158.93 401.22,-147.81"/>
<polygon fill="#63b8ff" stroke="#63b8ff" points="403,-150.86 408.77,-141.97 398.72,-145.32 403,-150.86"/>
</a>
</g>
</g>
<!-- Node18 -->
<g id="Node000018" class="node">
<title>Node18</title>
<g id="a_Node000018"><a xlink:href="disableable__shared__from__this_8hh.html" target="_top" xlink:title="Created by.">
<polygon fill="white" stroke="#666666" points="315.88,-147 205.38,-147 205.38,-113.5 315.88,-113.5 315.88,-147"/>
<text text-anchor="start" x="213.38" y="-133.5" font-family="Helvetica,sans-Serif" font-size="10.00">disableable_shared</text>
<text text-anchor="middle" x="260.62" y="-120.75" font-family="Helvetica,sans-Serif" font-size="10.00">_from_this.hh</text>
</a>
</g>
</g>
<!-- Node16&#45;&gt;Node18 -->
<g id="edge29_Node000016_Node000018" class="edge">
<title>Node16&#45;&gt;Node18</title>
<g id="a_edge29_Node000016_Node000018"><a xlink:title=" ">
<path fill="none" stroke="#63b8ff" d="M330.29,-182.55C319.86,-174.88 304.95,-163.89 291.59,-154.06"/>
<polygon fill="#63b8ff" stroke="#63b8ff" points="294.02,-151.49 283.89,-148.38 289.87,-157.13 294.02,-151.49"/>
</a>
</g>
</g>
<!-- Node18&#45;&gt;Node3 -->
<g id="edge32_Node000018_Node000003" class="edge">
<title>Node18&#45;&gt;Node3</title>
<g id="a_edge32_Node000018_Node000003"><a xlink:title=" ">
<path fill="none" stroke="#63b8ff" d="M311.57,-113.03C343.29,-102.93 383.5,-90.13 412.86,-80.78"/>
<polygon fill="#63b8ff" stroke="#63b8ff" points="413.64,-84.21 422.11,-77.84 411.51,-77.54 413.64,-84.21"/>
</a>
</g>
</g>
<!-- Node19 -->
<g id="Node000019" class="node">
<title>Node19</title>
<g id="a_Node000019"><a xlink:title=" ">
<polygon fill="#e0e0e0" stroke="#999999" points="356.5,-77.5 306.75,-77.5 306.75,-56.75 356.5,-56.75 356.5,-77.5"/>
<text text-anchor="middle" x="331.62" y="-64" font-family="Helvetica,sans-Serif" font-size="10.00">atomic</text>
</a>
</g>
</g>
<!-- Node18&#45;&gt;Node19 -->
<g id="edge30_Node000018_Node000019" class="edge">
<title>Node18&#45;&gt;Node19</title>
<g id="a_edge30_Node000018_Node000019"><a xlink:title=" ">
<path fill="none" stroke="#63b8ff" d="M279.28,-113.19C289.22,-104.63 301.45,-94.1 311.59,-85.37"/>
<polygon fill="#63b8ff" stroke="#63b8ff" points="313.75,-88.13 319.05,-78.95 309.18,-82.83 313.75,-88.13"/>
</a>
</g>
</g>
<!-- Node20 -->
<g id="Node000020" class="node">
<title>Node20</title>
<g id="a_Node000020"><a xlink:title=" ">
<polygon fill="#e0e0e0" stroke="#999999" points="288.38,-77.5 228.88,-77.5 228.88,-56.75 288.38,-56.75 288.38,-77.5"/>
<text text-anchor="middle" x="258.62" y="-64" font-family="Helvetica,sans-Serif" font-size="10.00">iostream</text>
</a>
</g>
</g>
<!-- Node18&#45;&gt;Node20 -->
<g id="edge31_Node000018_Node000020" class="edge">
<title>Node18&#45;&gt;Node20</title>
<g id="a_edge31_Node000018_Node000020"><a xlink:title=" ">
<path fill="none" stroke="#63b8ff" d="M260.1,-113.19C259.86,-105.85 259.57,-97.07 259.31,-89.21"/>
<polygon fill="#63b8ff" stroke="#63b8ff" points="262.82,-89.36 259,-79.48 255.83,-89.59 262.82,-89.36"/>
</a>
</g>
</g>
<!-- Node21&#45;&gt;Node3 -->
<g id="edge39_Node000021_Node000003" class="edge">
<title>Node21&#45;&gt;Node3</title>
<g id="a_edge39_Node000021_Node000003"><a xlink:title=" ">
<path fill="none" stroke="#63b8ff" d="M700.24,-188.24C797.26,-181.76 963.37,-167.77 981.62,-147 991.46,-135.82 991.69,-124.47 981.62,-113.5 948.74,-77.68 610.69,-70.08 492.86,-68.52"/>
<polygon fill="#63b8ff" stroke="#63b8ff" points="493.08,-65.02 483.04,-68.4 492.99,-72.02 493.08,-65.02"/>
</a>
</g>
</g>
<!-- Node21&#45;&gt;Node7 -->
<g id="edge41_Node000021_Node000007" class="edge">
<title>Node21&#45;&gt;Node7</title>
<g id="a_edge41_Node000021_Node000007"><a xlink:title=" ">
<path fill="none" stroke="#63b8ff" d="M618.09,-182.55C606.27,-173.29 588.29,-159.2 574.17,-148.13"/>
<polygon fill="#63b8ff" stroke="#63b8ff" points="576.35,-145.39 566.32,-141.98 572.03,-150.9 576.35,-145.39"/>
</a>
</g>
</g>
<!-- Node21&#45;&gt;Node8 -->
<g id="edge44_Node000021_Node000008" class="edge">
<title>Node21&#45;&gt;Node8</title>
<g id="a_edge44_Node000021_Node000008"><a xlink:title=" ">
<path fill="none" stroke="#63b8ff" d="M561.02,-190.44C462.6,-186.74 277.5,-176.21 122.62,-147 118.27,-146.18 113.76,-145.15 109.29,-144.02"/>
<polygon fill="#63b8ff" stroke="#63b8ff" points="110.39,-140.69 99.82,-141.45 108.55,-147.45 110.39,-140.69"/>
</a>
</g>
</g>
<!-- Node21&#45;&gt;Node14 -->
<g id="edge40_Node000021_Node000014" class="edge">
<title>Node21&#45;&gt;Node14</title>
<g id="a_edge40_Node000021_Node000014"><a xlink:title=" ">
<path fill="none" stroke="#63b8ff" d="M561.25,-187.65C456.67,-180.09 263.73,-164.37 196.62,-147 194.5,-146.45 192.33,-145.79 190.17,-145.07"/>
<polygon fill="#63b8ff" stroke="#63b8ff" points="191.6,-141.87 181.01,-141.58 189.11,-148.41 191.6,-141.87"/>
</a>
</g>
</g>
<!-- Node21&#45;&gt;Node17 -->
<g id="edge36_Node000021_Node000017" class="edge">
<title>Node21&#45;&gt;Node17</title>
<g id="a_edge36_Node000021_Node000017"><a xlink:title=" ">
<path fill="none" stroke="#63b8ff" d="M597.21,-182.55C561.88,-172.17 505.98,-155.74 466.98,-144.28"/>
<polygon fill="#63b8ff" stroke="#63b8ff" points="467.99,-140.93 457.41,-141.47 466.02,-147.65 467.99,-140.93"/>
</a>
</g>
</g>
<!-- Node21&#45;&gt;Node18 -->
<g id="edge43_Node000021_Node000018" class="edge">
<title>Node21&#45;&gt;Node18</title>
<g id="a_edge43_Node000021_Node000018"><a xlink:title=" ">
<path fill="none" stroke="#63b8ff" d="M571.18,-182.55C504.61,-171.56 396.98,-153.78 327.52,-142.3"/>
<polygon fill="#63b8ff" stroke="#63b8ff" points="328.22,-138.87 317.79,-140.69 327.08,-145.78 328.22,-138.87"/>
</a>
</g>
</g>
<!-- Node21&#45;&gt;Node22 -->
<g id="edge35_Node000021_Node000022" class="edge">
<title>Node21&#45;&gt;Node22</title>
<g id="a_edge35_Node000021_Node000022"><a xlink:title=" ">
<path fill="none" stroke="#63b8ff" d="M700.24,-187.86C777.63,-181.98 906.03,-169.68 1014.62,-147 1018.48,-146.19 1022.46,-145.23 1026.43,-144.19"/>
<polygon fill="#63b8ff" stroke="#63b8ff" points="1027.31,-147.58 1035.98,-141.49 1025.4,-140.84 1027.31,-147.58"/>
</a>
</g>
</g>
<!-- Node23 -->
<g id="Node000023" class="node">
<title>Node23</title>
<g id="a_Node000023"><a xlink:title=" ">
<polygon fill="#e0e0e0" stroke="#999999" points="666.75,-140.62 594.5,-140.62 594.5,-119.88 666.75,-119.88 666.75,-140.62"/>
<text text-anchor="middle" x="630.62" y="-127.12" font-family="Helvetica,sans-Serif" font-size="10.00">G4Types.hh</text>
</a>
</g>
</g>
<!-- Node21&#45;&gt;Node23 -->
<g id="edge37_Node000021_Node000023" class="edge">
<title>Node21&#45;&gt;Node23</title>
<g id="a_edge37_Node000021_Node000023"><a xlink:title=" ">
<path fill="none" stroke="#63b8ff" d="M630.62,-182.55C630.62,-174.4 630.62,-162.51 630.62,-152.23"/>
<polygon fill="#63b8ff" stroke="#63b8ff" points="634.13,-152.36 630.63,-142.36 627.13,-152.36 634.13,-152.36"/>
</a>
</g>
</g>
<!-- Node24 -->
<g id="Node000024" class="node">
<title>Node24</title>
<g id="a_Node000024"><a xlink:title=" ">
<polygon fill="#e0e0e0" stroke="#999999" points="792.38,-140.62 684.88,-140.62 684.88,-119.88 792.38,-119.88 792.38,-140.62"/>
<text text-anchor="middle" x="738.62" y="-127.12" font-family="Helvetica,sans-Serif" font-size="10.00">G4VisAttributes.hh</text>
</a>
</g>
</g>
<!-- Node21&#45;&gt;Node24 -->
<g id="edge38_Node000021_Node000024" class="edge">
<title>Node21&#45;&gt;Node24</title>
<g id="a_edge38_Node000021_Node000024"><a xlink:title=" ">
<path fill="none" stroke="#63b8ff" d="M647.98,-182.55C665.06,-172.89 691.41,-157.97 711.31,-146.71"/>
<polygon fill="#63b8ff" stroke="#63b8ff" points="713.02,-149.76 720,-141.79 709.57,-143.67 713.02,-149.76"/>
</a>
</g>
</g>
<!-- Node25 -->
<g id="Node000025" class="node">
<title>Node25</title>
<g id="a_Node000025"><a xlink:title=" ">
<polygon fill="#e0e0e0" stroke="#999999" points="972.38,-140.62 810.88,-140.62 810.88,-119.88 972.38,-119.88 972.38,-140.62"/>
<text text-anchor="middle" x="891.62" y="-127.12" font-family="Helvetica,sans-Serif" font-size="10.00">CLHEP/Units/SystemOfUnits.h</text>
</a>
</g>
</g>
<!-- Node21&#45;&gt;Node25 -->
<g id="edge42_Node000021_Node000025" class="edge">
<title>Node21&#45;&gt;Node25</title>
<g id="a_edge42_Node000021_Node000025"><a xlink:title=" ">
<path fill="none" stroke="#63b8ff" d="M672.56,-182.55C717.74,-171.97 789.75,-155.11 838.78,-143.63"/>
<polygon fill="#63b8ff" stroke="#63b8ff" points="839.38,-147.08 848.32,-141.39 837.79,-140.26 839.38,-147.08"/>
</a>
</g>
</g>
<!-- Node27&#45;&gt;Node16 -->
<g id="edge56_Node000027_Node000016" class="edge">
<title>Node27&#45;&gt;Node16</title>
<g id="a_edge56_Node000027_Node000016"><a xlink:title=" ">
<path fill="none" stroke="#63b8ff" d="M364.16,-239.34C360.99,-232.41 356.64,-222.87 352.75,-214.36"/>
<polygon fill="#63b8ff" stroke="#63b8ff" points="356.02,-213.1 348.68,-205.46 349.65,-216.01 356.02,-213.1"/>
</a>
</g>
</g>
</g>
</svg>
