<?xml version="1.0" encoding="UTF-8" standalone="no"?>
<!DOCTYPE svg PUBLIC "-//W3C//DTD SVG 1.1//EN"
 "http://www.w3.org/Graphics/SVG/1.1/DTD/svg11.dtd">
<!-- Generated by graphviz version 12.0.0 (20240803.0821)
 -->
<!-- Title: PlacementConfigs Pages: 1 -->
<svg width="167pt" height="182pt"
 viewBox="0.00 0.00 166.50 181.50" xmlns="http://www.w3.org/2000/svg" xmlns:xlink="http://www.w3.org/1999/xlink">
<g id="graph0" class="graph" transform="scale(1 1) rotate(0) translate(4 177.5)">
<title>PlacementConfigs</title>
<!-- Node1 -->
<g id="Node000001" class="node">
<title>Node1</title>
<g id="a_Node000001"><a xlink:title=" ">
<polygon fill="#999999" stroke="#666666" points="131.12,-20.75 27.38,-20.75 27.38,0 131.12,0 131.12,-20.75"/>
<text text-anchor="middle" x="79.25" y="-7.25" font-family="Helvetica,sans-Serif" font-size="10.00">PlacementConfigs</text>
</a>
</g>
</g>
<!-- Node2 -->
<g id="Node000002" class="node">
<title>Node2</title>
<g id="a_Node000002"><a xlink:href="classDLG4_1_1VolumeBuilders_1_1__internals___1_1i__shared__ptr.html" target="_top" xlink:title=" ">
<polygon fill="white" stroke="#666666" points="158.5,-103 0,-103 0,-69.5 158.5,-69.5 158.5,-103"/>
<text text-anchor="start" x="8" y="-89.5" font-family="Helvetica,sans-Serif" font-size="10.00">i_shared_ptr&lt; VolumeBuilder</text>
<text text-anchor="middle" x="79.25" y="-76.75" font-family="Helvetica,sans-Serif" font-size="10.00">Core &gt;</text>
</a>
</g>
</g>
<!-- Node2&#45;&gt;Node1 -->
<g id="edge1_Node000001_Node000002" class="edge">
<title>Node2&#45;&gt;Node1</title>
<g id="a_edge1_Node000001_Node000002"><a xlink:title=" ">
<path fill="none" stroke="#9a32cd" stroke-dasharray="5,2" d="M79.25,-57.95C79.25,-44.92 79.25,-30.18 79.25,-20.83"/>
<polygon fill="#9a32cd" stroke="#9a32cd" points="75.75,-57.71 79.25,-67.71 82.75,-57.71 75.75,-57.71"/>
</a>
</g>
<text text-anchor="middle" x="98.38" y="-42" font-family="Helvetica,sans-Serif" font-size="10.00" fill="grey"> mother</text>
</g>
<!-- Node3 -->
<g id="Node000003" class="node">
<title>Node3</title>
<g id="a_Node000003"><a xlink:title=" ">
<polygon fill="white" stroke="#666666" points="154.38,-173.5 4.12,-173.5 4.12,-140 154.38,-140 154.38,-173.5"/>
<text text-anchor="start" x="12.12" y="-160" font-family="Helvetica,sans-Serif" font-size="10.00">shared_ptr&lt; VolumeBuilder</text>
<text text-anchor="middle" x="79.25" y="-147.25" font-family="Helvetica,sans-Serif" font-size="10.00">Core &#160;&gt;</text>
</a>
</g>
</g>
<!-- Node3&#45;&gt;Node2 -->
<g id="edge2_Node000002_Node000003" class="edge">
<title>Node3&#45;&gt;Node2</title>
<g id="a_edge2_Node000002_Node000003"><a xlink:title=" ">
<path fill="none" stroke="#63b8ff" d="M79.25,-128.2C79.25,-119.77 79.25,-110.77 79.25,-103.37"/>
<polygon fill="#63b8ff" stroke="#63b8ff" points="75.75,-128 79.25,-138 82.75,-128 75.75,-128"/>
</a>
</g>
</g>
</g>
</svg>
