<?xml version="1.0" encoding="UTF-8" standalone="no"?>
<!DOCTYPE svg PUBLIC "-//W3C//DTD SVG 1.1//EN"
 "http://www.w3.org/Graphics/SVG/1.1/DTD/svg11.dtd">
<!-- Generated by graphviz version 12.0.0 (20240803.0821)
 -->
<!-- Title: include/StructureBuilderBase.hpp Pages: 1 -->
<svg width="1507pt" height="452pt"
 viewBox="0.00 0.00 1506.62 451.50" xmlns="http://www.w3.org/2000/svg" xmlns:xlink="http://www.w3.org/1999/xlink">
<g id="graph0" class="graph" transform="scale(1 1) rotate(0) translate(4 447.5)">
<title>include/StructureBuilderBase.hpp</title>
<!-- Node1 -->
<g id="Node000001" class="node">
<title>Node1</title>
<g id="a_Node000001"><a xlink:title="Created by.">
<polygon fill="#999999" stroke="#666666" points="552.5,-443.5 419.5,-443.5 419.5,-410 552.5,-410 552.5,-443.5"/>
<text text-anchor="start" x="427.5" y="-430" font-family="Helvetica,sans-Serif" font-size="10.00">include/StructureBuilder</text>
<text text-anchor="middle" x="486" y="-417.25" font-family="Helvetica,sans-Serif" font-size="10.00">Base.hpp</text>
</a>
</g>
</g>
<!-- Node2 -->
<g id="Node000002" class="node">
<title>Node2</title>
<g id="a_Node000002"><a xlink:href="Linkable_8hh.html" target="_top" xlink:title=" ">
<polygon fill="white" stroke="#666666" points="281.75,-203.75 210.25,-203.75 210.25,-183 281.75,-183 281.75,-203.75"/>
<text text-anchor="middle" x="246" y="-190.25" font-family="Helvetica,sans-Serif" font-size="10.00">Linkable.hh</text>
</a>
</g>
</g>
<!-- Node1&#45;&gt;Node2 -->
<g id="edge1_Node000001_Node000002" class="edge">
<title>Node1&#45;&gt;Node2</title>
<g id="a_edge1_Node000001_Node000002"><a xlink:title=" ">
<path fill="none" stroke="#63b8ff" d="M427.44,-409.55C403.37,-401.23 376.04,-389.52 354,-374 299.27,-335.46 282.68,-321.45 255,-260.5 248.54,-246.27 246.39,-228.68 245.8,-215.22"/>
<polygon fill="#63b8ff" stroke="#63b8ff" points="249.3,-215.28 245.65,-205.33 242.3,-215.39 249.3,-215.28"/>
</a>
</g>
</g>
<!-- Node8 -->
<g id="Node000008" class="node">
<title>Node8</title>
<g id="a_Node000008"><a xlink:href="VolumeBuildersTypes_8hh.html" target="_top" xlink:title=" ">
<polygon fill="white" stroke="#666666" points="865.62,-203.75 730.38,-203.75 730.38,-183 865.62,-183 865.62,-203.75"/>
<text text-anchor="middle" x="798" y="-190.25" font-family="Helvetica,sans-Serif" font-size="10.00">VolumeBuildersTypes.hh</text>
</a>
</g>
</g>
<!-- Node1&#45;&gt;Node8 -->
<g id="edge7_Node000001_Node000008" class="edge">
<title>Node1&#45;&gt;Node8</title>
<g id="a_edge7_Node000001_Node000008"><a xlink:title=" ">
<path fill="none" stroke="#63b8ff" d="M552.74,-413.7C673.88,-390.17 921.25,-333.93 962,-260.5 983.41,-221.92 929.1,-205.82 877.34,-199.12"/>
<polygon fill="#63b8ff" stroke="#63b8ff" points="877.86,-195.65 867.52,-197.96 877.04,-202.6 877.86,-195.65"/>
</a>
</g>
</g>
<!-- Node19 -->
<g id="Node000019" class="node">
<title>Node19</title>
<g id="a_Node000019"><a xlink:href="StructureBuilderCore_8hh.html" target="_top" xlink:title=" ">
<polygon fill="white" stroke="#666666" points="495.12,-374 362.88,-374 362.88,-353.25 495.12,-353.25 495.12,-374"/>
<text text-anchor="middle" x="429" y="-360.5" font-family="Helvetica,sans-Serif" font-size="10.00">StructureBuilderCore.hh</text>
</a>
</g>
</g>
<!-- Node1&#45;&gt;Node19 -->
<g id="edge24_Node000001_Node000019" class="edge">
<title>Node1&#45;&gt;Node19</title>
<g id="a_edge24_Node000001_Node000019"><a xlink:title=" ">
<path fill="none" stroke="#63b8ff" d="M471.02,-409.69C463.29,-401.39 453.82,-391.24 445.83,-382.68"/>
<polygon fill="#63b8ff" stroke="#63b8ff" points="448.59,-380.5 439.21,-375.57 443.47,-385.27 448.59,-380.5"/>
</a>
</g>
</g>
<!-- Node20 -->
<g id="Node000020" class="node">
<title>Node20</title>
<g id="a_Node000020"><a xlink:href="StructureBuilderBase_8hh.html" target="_top" xlink:title=" ">
<polygon fill="white" stroke="#666666" points="604.88,-317.25 471.12,-317.25 471.12,-296.5 604.88,-296.5 604.88,-317.25"/>
<text text-anchor="middle" x="538" y="-303.75" font-family="Helvetica,sans-Serif" font-size="10.00">StructureBuilderBase.hh</text>
</a>
</g>
</g>
<!-- Node1&#45;&gt;Node20 -->
<g id="edge61_Node000001_Node000020" class="edge">
<title>Node1&#45;&gt;Node20</title>
<g id="a_edge61_Node000001_Node000020"><a xlink:title=" ">
<path fill="none" stroke="#63b8ff" d="M493.01,-409.85C502.36,-388.67 518.89,-351.18 529.11,-328.04"/>
<polygon fill="#63b8ff" stroke="#63b8ff" points="532.23,-329.63 533.06,-319.07 525.82,-326.8 532.23,-329.63"/>
</a>
</g>
</g>
<!-- Node3 -->
<g id="Node000003" class="node">
<title>Node3</title>
<g id="a_Node000003"><a xlink:title=" ">
<polygon fill="#e0e0e0" stroke="#999999" points="669.62,-77.5 612.38,-77.5 612.38,-56.75 669.62,-56.75 669.62,-77.5"/>
<text text-anchor="middle" x="641" y="-64" font-family="Helvetica,sans-Serif" font-size="10.00">memory</text>
</a>
</g>
</g>
<!-- Node2&#45;&gt;Node3 -->
<g id="edge2_Node000002_Node000003" class="edge">
<title>Node2&#45;&gt;Node3</title>
<g id="a_edge2_Node000002_Node000003"><a xlink:title=" ">
<path fill="none" stroke="#63b8ff" d="M238.39,-182.57C226.67,-166.22 207.31,-133.23 225,-113.5 237.48,-99.58 498.87,-78.71 600.8,-71.06"/>
<polygon fill="#63b8ff" stroke="#63b8ff" points="600.91,-74.57 610.62,-70.33 600.39,-67.59 600.91,-74.57"/>
</a>
</g>
</g>
<!-- Node4 -->
<g id="Node000004" class="node">
<title>Node4</title>
<g id="a_Node000004"><a xlink:title=" ">
<polygon fill="#e0e0e0" stroke="#999999" points="281.75,-140.62 234.25,-140.62 234.25,-119.88 281.75,-119.88 281.75,-140.62"/>
<text text-anchor="middle" x="258" y="-127.12" font-family="Helvetica,sans-Serif" font-size="10.00">mutex</text>
</a>
</g>
</g>
<!-- Node2&#45;&gt;Node4 -->
<g id="edge3_Node000002_Node000004" class="edge">
<title>Node2&#45;&gt;Node4</title>
<g id="a_edge3_Node000002_Node000004"><a xlink:title=" ">
<path fill="none" stroke="#63b8ff" d="M247.93,-182.55C249.55,-174.31 251.92,-162.25 253.95,-151.89"/>
<polygon fill="#63b8ff" stroke="#63b8ff" points="257.33,-152.82 255.82,-142.33 250.46,-151.47 257.33,-152.82"/>
</a>
</g>
</g>
<!-- Node5 -->
<g id="Node000005" class="node">
<title>Node5</title>
<g id="a_Node000005"><a xlink:title=" ">
<polygon fill="#e0e0e0" stroke="#999999" points="92,-140.62 28,-140.62 28,-119.88 92,-119.88 92,-140.62"/>
<text text-anchor="middle" x="60" y="-127.12" font-family="Helvetica,sans-Serif" font-size="10.00">stdexcept</text>
</a>
</g>
</g>
<!-- Node2&#45;&gt;Node5 -->
<g id="edge4_Node000002_Node000005" class="edge">
<title>Node2&#45;&gt;Node5</title>
<g id="a_edge4_Node000002_Node000005"><a xlink:title=" ">
<path fill="none" stroke="#63b8ff" d="M212.4,-182.52C182.88,-173.71 138.86,-160.18 101,-147 99.17,-146.36 97.3,-145.7 95.41,-145.01"/>
<polygon fill="#63b8ff" stroke="#63b8ff" points="96.63,-141.73 86.04,-141.53 94.19,-148.29 96.63,-141.73"/>
</a>
</g>
</g>
<!-- Node6 -->
<g id="Node000006" class="node">
<title>Node6</title>
<g id="a_Node000006"><a xlink:title=" ">
<polygon fill="#e0e0e0" stroke="#999999" points="178.25,-140.62 109.75,-140.62 109.75,-119.88 178.25,-119.88 178.25,-140.62"/>
<text text-anchor="middle" x="144" y="-127.12" font-family="Helvetica,sans-Serif" font-size="10.00">type_traits</text>
</a>
</g>
</g>
<!-- Node2&#45;&gt;Node6 -->
<g id="edge5_Node000002_Node000006" class="edge">
<title>Node2&#45;&gt;Node6</title>
<g id="a_edge5_Node000002_Node000006"><a xlink:title=" ">
<path fill="none" stroke="#63b8ff" d="M229.61,-182.55C213.55,-172.93 188.82,-158.11 170.06,-146.87"/>
<polygon fill="#63b8ff" stroke="#63b8ff" points="172.02,-143.96 161.65,-141.82 168.42,-149.97 172.02,-143.96"/>
</a>
</g>
</g>
<!-- Node7 -->
<g id="Node000007" class="node">
<title>Node7</title>
<g id="a_Node000007"><a xlink:title=" ">
<polygon fill="#e0e0e0" stroke="#999999" points="612.38,-140.62 565.62,-140.62 565.62,-119.88 612.38,-119.88 612.38,-140.62"/>
<text text-anchor="middle" x="589" y="-127.12" font-family="Helvetica,sans-Serif" font-size="10.00">vector</text>
</a>
</g>
</g>
<!-- Node2&#45;&gt;Node7 -->
<g id="edge6_Node000002_Node000007" class="edge">
<title>Node2&#45;&gt;Node7</title>
<g id="a_edge6_Node000002_Node000007"><a xlink:title=" ">
<path fill="none" stroke="#63b8ff" d="M281.89,-187.07C334.2,-179.19 434.36,-163.54 519,-147 530.52,-144.75 543.05,-142.02 554.28,-139.47"/>
<polygon fill="#63b8ff" stroke="#63b8ff" points="554.98,-142.9 563.94,-137.25 553.41,-136.08 554.98,-142.9"/>
</a>
</g>
</g>
<!-- Node8&#45;&gt;Node3 -->
<g id="edge9_Node000008_Node000003" class="edge">
<title>Node8&#45;&gt;Node3</title>
<g id="a_edge9_Node000008_Node000003"><a xlink:title=" ">
<path fill="none" stroke="#63b8ff" d="M730.16,-184.54C704.6,-178.28 677.31,-167.06 659,-147 644.75,-131.39 641.03,-106.88 640.39,-89.32"/>
<polygon fill="#63b8ff" stroke="#63b8ff" points="643.89,-89.5 640.36,-79.51 636.89,-89.52 643.89,-89.5"/>
</a>
</g>
</g>
<!-- Node8&#45;&gt;Node7 -->
<g id="edge11_Node000008_Node000007" class="edge">
<title>Node8&#45;&gt;Node7</title>
<g id="a_edge11_Node000008_Node000007"><a xlink:title=" ">
<path fill="none" stroke="#63b8ff" d="M753.65,-182.54C718.6,-174.32 668.65,-161.62 626,-147 624.43,-146.46 622.84,-145.89 621.23,-145.29"/>
<polygon fill="#63b8ff" stroke="#63b8ff" points="622.7,-142.11 612.12,-141.67 620.12,-148.61 622.7,-142.11"/>
</a>
</g>
</g>
<!-- Node9 -->
<g id="Node000009" class="node">
<title>Node9</title>
<g id="a_Node000009"><a xlink:title=" ">
<polygon fill="#e0e0e0" stroke="#999999" points="770.12,-140.62 667.88,-140.62 667.88,-119.88 770.12,-119.88 770.12,-140.62"/>
<text text-anchor="middle" x="719" y="-127.12" font-family="Helvetica,sans-Serif" font-size="10.00">G4ThreeVector.hh</text>
</a>
</g>
</g>
<!-- Node8&#45;&gt;Node9 -->
<g id="edge8_Node000008_Node000009" class="edge">
<title>Node8&#45;&gt;Node9</title>
<g id="a_edge8_Node000008_Node000009"><a xlink:title=" ">
<path fill="none" stroke="#63b8ff" d="M785.31,-182.55C773.21,-173.2 754.77,-158.93 740.41,-147.81"/>
<polygon fill="#63b8ff" stroke="#63b8ff" points="742.91,-145.32 732.86,-141.97 738.63,-150.86 742.91,-145.32"/>
</a>
</g>
</g>
<!-- Node10 -->
<g id="Node000010" class="node">
<title>Node10</title>
<g id="a_Node000010"><a xlink:title=" ">
<polygon fill="#e0e0e0" stroke="#999999" points="843.88,-140.62 788.12,-140.62 788.12,-119.88 843.88,-119.88 843.88,-140.62"/>
<text text-anchor="middle" x="816" y="-127.12" font-family="Helvetica,sans-Serif" font-size="10.00">optional</text>
</a>
</g>
</g>
<!-- Node8&#45;&gt;Node10 -->
<g id="edge10_Node000008_Node000010" class="edge">
<title>Node8&#45;&gt;Node10</title>
<g id="a_edge10_Node000008_Node000010"><a xlink:title=" ">
<path fill="none" stroke="#63b8ff" d="M800.89,-182.55C803.32,-174.31 806.87,-162.25 809.92,-151.89"/>
<polygon fill="#63b8ff" stroke="#63b8ff" points="813.28,-152.88 812.75,-142.3 806.56,-150.9 813.28,-152.88"/>
</a>
</g>
</g>
<!-- Node11 -->
<g id="Node000011" class="node">
<title>Node11</title>
<g id="a_Node000011"><a xlink:href="disableable__shared__from__this_8hh.html" target="_top" xlink:title="Created by.">
<polygon fill="white" stroke="#666666" points="1010.25,-147 899.75,-147 899.75,-113.5 1010.25,-113.5 1010.25,-147"/>
<text text-anchor="start" x="907.75" y="-133.5" font-family="Helvetica,sans-Serif" font-size="10.00">disableable_shared</text>
<text text-anchor="middle" x="955" y="-120.75" font-family="Helvetica,sans-Serif" font-size="10.00">_from_this.hh</text>
</a>
</g>
</g>
<!-- Node8&#45;&gt;Node11 -->
<g id="edge12_Node000008_Node000011" class="edge">
<title>Node8&#45;&gt;Node11</title>
<g id="a_edge12_Node000008_Node000011"><a xlink:title=" ">
<path fill="none" stroke="#63b8ff" d="M823.22,-182.55C844.65,-174.21 876.1,-161.97 902.91,-151.53"/>
<polygon fill="#63b8ff" stroke="#63b8ff" points="903.84,-154.92 911.89,-148.03 901.3,-148.4 903.84,-154.92"/>
</a>
</g>
</g>
<!-- Node14 -->
<g id="Node000014" class="node">
<title>Node14</title>
<g id="a_Node000014"><a xlink:href="i__shared__ptr_8hh.html" target="_top" xlink:title=" ">
<polygon fill="white" stroke="#666666" points="510.12,-140.62 419.88,-140.62 419.88,-119.88 510.12,-119.88 510.12,-140.62"/>
<text text-anchor="middle" x="465" y="-127.12" font-family="Helvetica,sans-Serif" font-size="10.00">i_shared_ptr.hh</text>
</a>
</g>
</g>
<!-- Node8&#45;&gt;Node14 -->
<g id="edge16_Node000008_Node000014" class="edge">
<title>Node8&#45;&gt;Node14</title>
<g id="a_edge16_Node000008_Node000014"><a xlink:title=" ">
<path fill="none" stroke="#63b8ff" d="M744.5,-182.55C683.49,-171.36 584.15,-153.12 521.8,-141.68"/>
<polygon fill="#63b8ff" stroke="#63b8ff" points="522.56,-138.26 512.09,-139.89 521.3,-145.14 522.56,-138.26"/>
</a>
</g>
</g>
<!-- Node11&#45;&gt;Node3 -->
<g id="edge15_Node000011_Node000003" class="edge">
<title>Node11&#45;&gt;Node3</title>
<g id="a_edge15_Node000011_Node000003"><a xlink:title=" ">
<path fill="none" stroke="#63b8ff" d="M899.31,-116.33C894.81,-115.35 890.33,-114.4 886,-113.5 814.19,-98.66 730.05,-83.58 681.4,-75.08"/>
<polygon fill="#63b8ff" stroke="#63b8ff" points="682.06,-71.64 671.61,-73.38 680.86,-78.54 682.06,-71.64"/>
</a>
</g>
</g>
<!-- Node12 -->
<g id="Node000012" class="node">
<title>Node12</title>
<g id="a_Node000012"><a xlink:title=" ">
<polygon fill="#e0e0e0" stroke="#999999" points="942.88,-77.5 893.12,-77.5 893.12,-56.75 942.88,-56.75 942.88,-77.5"/>
<text text-anchor="middle" x="918" y="-64" font-family="Helvetica,sans-Serif" font-size="10.00">atomic</text>
</a>
</g>
</g>
<!-- Node11&#45;&gt;Node12 -->
<g id="edge13_Node000011_Node000012" class="edge">
<title>Node11&#45;&gt;Node12</title>
<g id="a_edge13_Node000011_Node000012"><a xlink:title=" ">
<path fill="none" stroke="#63b8ff" d="M945.28,-113.19C940.52,-105.33 934.76,-95.81 929.75,-87.54"/>
<polygon fill="#63b8ff" stroke="#63b8ff" points="932.91,-86 924.74,-79.26 926.93,-89.63 932.91,-86"/>
</a>
</g>
</g>
<!-- Node13 -->
<g id="Node000013" class="node">
<title>Node13</title>
<g id="a_Node000013"><a xlink:title=" ">
<polygon fill="#e0e0e0" stroke="#999999" points="1020.75,-77.5 961.25,-77.5 961.25,-56.75 1020.75,-56.75 1020.75,-77.5"/>
<text text-anchor="middle" x="991" y="-64" font-family="Helvetica,sans-Serif" font-size="10.00">iostream</text>
</a>
</g>
</g>
<!-- Node11&#45;&gt;Node13 -->
<g id="edge14_Node000011_Node000013" class="edge">
<title>Node11&#45;&gt;Node13</title>
<g id="a_edge14_Node000011_Node000013"><a xlink:title=" ">
<path fill="none" stroke="#63b8ff" d="M964.46,-113.19C969.04,-105.42 974.57,-96.02 979.4,-87.82"/>
<polygon fill="#63b8ff" stroke="#63b8ff" points="982.38,-89.66 984.44,-79.27 976.34,-86.11 982.38,-89.66"/>
</a>
</g>
</g>
<!-- Node14&#45;&gt;Node3 -->
<g id="edge19_Node000014_Node000003" class="edge">
<title>Node14&#45;&gt;Node3</title>
<g id="a_edge19_Node000014_Node000003"><a xlink:title=" ">
<path fill="none" stroke="#63b8ff" d="M493.28,-119.43C522.79,-109.18 569.26,-93.04 602.19,-81.6"/>
<polygon fill="#63b8ff" stroke="#63b8ff" points="603.06,-85.01 611.36,-78.42 600.77,-78.39 603.06,-85.01"/>
</a>
</g>
</g>
<!-- Node15 -->
<g id="Node000015" class="node">
<title>Node15</title>
<g id="a_Node000015"><a xlink:title=" ">
<polygon fill="#e0e0e0" stroke="#999999" points="594.88,-20.75 479.12,-20.75 479.12,0 594.88,0 594.88,-20.75"/>
<text text-anchor="middle" x="537" y="-7.25" font-family="Helvetica,sans-Serif" font-size="10.00">G4LogicalVolume.hh</text>
</a>
</g>
</g>
<!-- Node14&#45;&gt;Node15 -->
<g id="edge17_Node000014_Node000015" class="edge">
<title>Node14&#45;&gt;Node15</title>
<g id="a_edge17_Node000014_Node000015"><a xlink:title=" ">
<path fill="none" stroke="#63b8ff" d="M473.62,-119.39C482.2,-109.3 495.44,-92.95 505,-77.5 514.14,-62.74 522.61,-44.98 528.53,-31.58"/>
<polygon fill="#63b8ff" stroke="#63b8ff" points="531.7,-33.08 532.44,-22.51 525.27,-30.31 531.7,-33.08"/>
</a>
</g>
</g>
<!-- Node16 -->
<g id="Node000016" class="node">
<title>Node16</title>
<g id="a_Node000016"><a xlink:title=" ">
<polygon fill="#e0e0e0" stroke="#999999" points="460.62,-20.75 385.38,-20.75 385.38,0 460.62,0 460.62,-20.75"/>
<text text-anchor="middle" x="423" y="-7.25" font-family="Helvetica,sans-Serif" font-size="10.00">G4VSolid.hh</text>
</a>
</g>
</g>
<!-- Node14&#45;&gt;Node16 -->
<g id="edge18_Node000014_Node000016" class="edge">
<title>Node14&#45;&gt;Node16</title>
<g id="a_edge18_Node000014_Node000016"><a xlink:title=" ">
<path fill="none" stroke="#63b8ff" d="M473.03,-119.46C483.73,-105.13 500.11,-77.87 489,-56.75 482.22,-43.87 469.95,-33.93 457.81,-26.69"/>
<polygon fill="#63b8ff" stroke="#63b8ff" points="459.56,-23.65 449.1,-21.96 456.22,-29.81 459.56,-23.65"/>
</a>
</g>
</g>
<!-- Node17 -->
<g id="Node000017" class="node">
<title>Node17</title>
<g id="a_Node000017"><a xlink:href="IVolumeBuilder_8hh.html" target="_top" xlink:title="Created by.">
<polygon fill="white" stroke="#666666" points="480.25,-77.5 375.75,-77.5 375.75,-56.75 480.25,-56.75 480.25,-77.5"/>
<text text-anchor="middle" x="428" y="-64" font-family="Helvetica,sans-Serif" font-size="10.00">IVolumeBuilder.hh</text>
</a>
</g>
</g>
<!-- Node14&#45;&gt;Node17 -->
<g id="edge20_Node000014_Node000017" class="edge">
<title>Node14&#45;&gt;Node17</title>
<g id="a_edge20_Node000014_Node000017"><a xlink:title=" ">
<path fill="none" stroke="#63b8ff" d="M459.06,-119.43C453.85,-110.82 446.12,-98.06 439.68,-87.42"/>
<polygon fill="#63b8ff" stroke="#63b8ff" points="442.76,-85.76 434.59,-79.01 436.78,-89.38 442.76,-85.76"/>
</a>
</g>
</g>
<!-- Node17&#45;&gt;Node15 -->
<g id="edge21_Node000017_Node000015" class="edge">
<title>Node17&#45;&gt;Node15</title>
<g id="a_edge21_Node000017_Node000015"><a xlink:title=" ">
<path fill="none" stroke="#63b8ff" d="M447.49,-56.34C464.15,-47.97 488.38,-35.79 507.44,-26.22"/>
<polygon fill="#63b8ff" stroke="#63b8ff" points="508.96,-29.37 516.33,-21.76 505.82,-23.12 508.96,-29.37"/>
</a>
</g>
</g>
<!-- Node17&#45;&gt;Node16 -->
<g id="edge23_Node000017_Node000016" class="edge">
<title>Node17&#45;&gt;Node16</title>
<g id="a_edge23_Node000017_Node000016"><a xlink:title=" ">
<path fill="none" stroke="#63b8ff" d="M427.11,-56.34C426.5,-49.72 425.68,-40.72 424.93,-32.52"/>
<polygon fill="#63b8ff" stroke="#63b8ff" points="428.42,-32.23 424.02,-22.59 421.45,-32.86 428.42,-32.23"/>
</a>
</g>
</g>
<!-- Node18 -->
<g id="Node000018" class="node">
<title>Node18</title>
<g id="a_Node000018"><a xlink:title=" ">
<polygon fill="#e0e0e0" stroke="#999999" points="363.38,-20.75 256.62,-20.75 256.62,0 363.38,0 363.38,-20.75"/>
<text text-anchor="middle" x="310" y="-7.25" font-family="Helvetica,sans-Serif" font-size="10.00">G4Transform3D.hh</text>
</a>
</g>
</g>
<!-- Node17&#45;&gt;Node18 -->
<g id="edge22_Node000017_Node000018" class="edge">
<title>Node17&#45;&gt;Node18</title>
<g id="a_edge22_Node000017_Node000018"><a xlink:title=" ">
<path fill="none" stroke="#63b8ff" d="M406.9,-56.34C388.61,-47.85 361.9,-35.45 341.14,-25.83"/>
<polygon fill="#63b8ff" stroke="#63b8ff" points="342.83,-22.75 332.29,-21.72 339.88,-29.1 342.83,-22.75"/>
</a>
</g>
</g>
<!-- Node19&#45;&gt;Node2 -->
<g id="edge25_Node000019_Node000002" class="edge">
<title>Node19&#45;&gt;Node2</title>
<g id="a_edge25_Node000019_Node000002"><a xlink:title=" ">
<path fill="none" stroke="#63b8ff" d="M404.16,-352.79C369.43,-337.85 306.55,-306.26 270,-260.5 259.39,-247.22 253.22,-228.82 249.8,-214.81"/>
<polygon fill="#63b8ff" stroke="#63b8ff" points="253.29,-214.39 247.78,-205.34 246.44,-215.85 253.29,-214.39"/>
</a>
</g>
</g>
<!-- Node19&#45;&gt;Node5 -->
<g id="edge27_Node000019_Node000005" class="edge">
<title>Node19&#45;&gt;Node5</title>
<g id="a_edge27_Node000019_Node000005"><a xlink:title=" ">
<path fill="none" stroke="#63b8ff" d="M396.9,-352.83C371.62,-344.64 335.81,-331.94 306,-317.25 221.17,-275.43 198.49,-264.49 126,-203.75 106.34,-187.27 86.95,-165.07 74.33,-149.59"/>
<polygon fill="#63b8ff" stroke="#63b8ff" points="77.33,-147.74 68.35,-142.12 71.86,-152.11 77.33,-147.74"/>
</a>
</g>
</g>
<!-- Node19&#45;&gt;Node8 -->
<g id="edge60_Node000019_Node000008" class="edge">
<title>Node19&#45;&gt;Node8</title>
<g id="a_edge60_Node000019_Node000008"><a xlink:title=" ">
<path fill="none" stroke="#63b8ff" d="M495.24,-359.6C621.44,-352.3 888.77,-328.95 945,-260.5 969.75,-230.37 924.01,-213.45 877.19,-204.29"/>
<polygon fill="#63b8ff" stroke="#63b8ff" points="877.9,-200.86 867.43,-202.5 876.64,-207.74 877.9,-200.86"/>
</a>
</g>
</g>
<!-- Node19&#45;&gt;Node14 -->
<g id="edge26_Node000019_Node000014" class="edge">
<title>Node19&#45;&gt;Node14</title>
<g id="a_edge26_Node000019_Node000014"><a xlink:title=" ">
<path fill="none" stroke="#63b8ff" d="M430.5,-352.98C435.88,-318.43 454.24,-200.4 461.75,-152.11"/>
<polygon fill="#63b8ff" stroke="#63b8ff" points="465.18,-152.85 463.26,-142.43 458.26,-151.78 465.18,-152.85"/>
</a>
</g>
</g>
<!-- Node19&#45;&gt;Node20 -->
<g id="edge28_Node000019_Node000020" class="edge">
<title>Node19&#45;&gt;Node20</title>
<g id="a_edge28_Node000019_Node000020"><a xlink:title=" ">
<path fill="none" stroke="#63b8ff" d="M448.49,-352.84C465.15,-344.47 489.38,-332.29 508.44,-322.72"/>
<polygon fill="#63b8ff" stroke="#63b8ff" points="509.96,-325.87 517.33,-318.26 506.82,-319.62 509.96,-325.87"/>
</a>
</g>
</g>
<!-- Node20&#45;&gt;Node2 -->
<g id="edge30_Node000020_Node000002" class="edge">
<title>Node20&#45;&gt;Node2</title>
<g id="a_edge30_Node000020_Node000002"><a xlink:title=" ">
<path fill="none" stroke="#63b8ff" d="M470.78,-298.89C409.3,-291.51 323.7,-278.45 295,-260.5 277.06,-249.28 263.48,-228.92 255.22,-213.75"/>
<polygon fill="#63b8ff" stroke="#63b8ff" points="258.51,-212.48 250.85,-205.17 252.27,-215.66 258.51,-212.48"/>
</a>
</g>
</g>
<!-- Node20&#45;&gt;Node3 -->
<g id="edge56_Node000020_Node000003" class="edge">
<title>Node20&#45;&gt;Node3</title>
<g id="a_edge56_Node000020_Node000003"><a xlink:title=" ">
<path fill="none" stroke="#63b8ff" d="M536,-296.03C530.42,-265.79 517.59,-172.74 557,-113.5 567.39,-97.88 585.02,-87.2 601.45,-80.15"/>
<polygon fill="#63b8ff" stroke="#63b8ff" points="602.54,-83.48 610.58,-76.57 599.99,-76.96 602.54,-83.48"/>
</a>
</g>
</g>
<!-- Node20&#45;&gt;Node4 -->
<g id="edge55_Node000020_Node000004" class="edge">
<title>Node20&#45;&gt;Node4</title>
<g id="a_edge55_Node000020_Node000004"><a xlink:title=" ">
<path fill="none" stroke="#63b8ff" d="M522.55,-296.24C476.57,-267.56 340.31,-182.58 283.41,-147.1"/>
<polygon fill="#63b8ff" stroke="#63b8ff" points="285.37,-144.2 275.03,-141.87 281.67,-150.14 285.37,-144.2"/>
</a>
</g>
</g>
<!-- Node20&#45;&gt;Node5 -->
<g id="edge57_Node000020_Node000005" class="edge">
<title>Node20&#45;&gt;Node5</title>
<g id="a_edge57_Node000020_Node000005"><a xlink:title=" ">
<path fill="none" stroke="#63b8ff" d="M470.89,-301.67C415.53,-296.52 335.7,-285.21 270,-260.5 194.59,-232.14 116.57,-175.63 80.53,-147.68"/>
<polygon fill="#63b8ff" stroke="#63b8ff" points="83.12,-145.27 73.09,-141.85 78.8,-150.78 83.12,-145.27"/>
</a>
</g>
</g>
<!-- Node20&#45;&gt;Node7 -->
<g id="edge49_Node000020_Node000007" class="edge">
<title>Node20&#45;&gt;Node7</title>
<g id="a_edge49_Node000020_Node000007"><a xlink:title=" ">
<path fill="none" stroke="#63b8ff" d="M541.06,-296.16C543.94,-286.98 548.33,-272.83 552,-260.5 563.38,-222.24 576.07,-177.42 583.24,-151.88"/>
<polygon fill="#63b8ff" stroke="#63b8ff" points="586.55,-153.03 585.87,-142.46 579.81,-151.14 586.55,-153.03"/>
</a>
</g>
</g>
<!-- Node20&#45;&gt;Node8 -->
<g id="edge51_Node000020_Node000008" class="edge">
<title>Node20&#45;&gt;Node8</title>
<g id="a_edge51_Node000020_Node000008"><a xlink:title=" ">
<path fill="none" stroke="#63b8ff" d="M605.09,-301.06C667.34,-295.23 754.01,-283.25 779,-260.5 791.56,-249.07 796.03,-229.93 797.52,-215.18"/>
<polygon fill="#63b8ff" stroke="#63b8ff" points="800.99,-215.79 798.09,-205.6 794,-215.37 800.99,-215.79"/>
</a>
</g>
</g>
<!-- Node20&#45;&gt;Node9 -->
<g id="edge54_Node000020_Node000009" class="edge">
<title>Node20&#45;&gt;Node9</title>
<g id="a_edge54_Node000020_Node000009"><a xlink:title=" ">
<path fill="none" stroke="#63b8ff" d="M547.99,-296.24C577.22,-268.04 662.88,-185.39 700.7,-148.91"/>
<polygon fill="#63b8ff" stroke="#63b8ff" points="702.96,-151.59 707.73,-142.12 698.1,-146.55 702.96,-151.59"/>
</a>
</g>
</g>
<!-- Node20&#45;&gt;Node10 -->
<g id="edge29_Node000020_Node000010" class="edge">
<title>Node20&#45;&gt;Node10</title>
<g id="a_edge29_Node000020_Node000010"><a xlink:title=" ">
<path fill="none" stroke="#63b8ff" d="M605.05,-303.2C714.78,-298.13 922.78,-285.34 945,-260.5 951.15,-253.63 948.89,-248.11 945,-239.75 924.8,-196.37 877.78,-164.14 846.44,-146.52"/>
<polygon fill="#63b8ff" stroke="#63b8ff" points="848.26,-143.52 837.8,-141.83 844.92,-149.67 848.26,-143.52"/>
</a>
</g>
</g>
<!-- Node20&#45;&gt;Node14 -->
<g id="edge50_Node000020_Node000014" class="edge">
<title>Node20&#45;&gt;Node14</title>
<g id="a_edge50_Node000020_Node000014"><a xlink:title=" ">
<path fill="none" stroke="#63b8ff" d="M533.97,-296.24C522.43,-268.63 489.08,-188.85 473.37,-151.28"/>
<polygon fill="#63b8ff" stroke="#63b8ff" points="476.78,-150.35 469.69,-142.47 470.32,-153.05 476.78,-150.35"/>
</a>
</g>
</g>
<!-- Node20&#45;&gt;Node18 -->
<g id="edge48_Node000020_Node000018" class="edge">
<title>Node20&#45;&gt;Node18</title>
<g id="a_edge48_Node000020_Node000018"><a xlink:title=" ">
<path fill="none" stroke="#63b8ff" d="M470.68,-305.88C326.32,-304.07 0,-289.46 0,-194.38 0,-194.38 0,-194.38 0,-129.25 0,-77.28 154.16,-39.99 245.06,-22.52"/>
<polygon fill="#63b8ff" stroke="#63b8ff" points="245.69,-25.96 254.87,-20.67 244.39,-19.08 245.69,-25.96"/>
</a>
</g>
</g>
<!-- Node21 -->
<g id="Node000021" class="node">
<title>Node21</title>
<g id="a_Node000021"><a xlink:href="ISolidBuilder_8hh_source.html" target="_top" xlink:title=" ">
<polygon fill="white" stroke="#666666" points="395.88,-260.5 304.12,-260.5 304.12,-239.75 395.88,-239.75 395.88,-260.5"/>
<text text-anchor="middle" x="350" y="-247" font-family="Helvetica,sans-Serif" font-size="10.00">ISolidBuilder.hh</text>
</a>
</g>
</g>
<!-- Node20&#45;&gt;Node21 -->
<g id="edge31_Node000020_Node000021" class="edge">
<title>Node20&#45;&gt;Node21</title>
<g id="a_edge31_Node000020_Node000021"><a xlink:title=" ">
<path fill="none" stroke="#63b8ff" d="M504.39,-296.09C473.74,-287.16 428.24,-273.91 394.56,-264.1"/>
<polygon fill="#63b8ff" stroke="#63b8ff" points="395.67,-260.78 385.09,-261.34 393.71,-267.5 395.67,-260.78"/>
</a>
</g>
</g>
<!-- Node22 -->
<g id="Node000022" class="node">
<title>Node22</title>
<g id="a_Node000022"><a xlink:href="VolumeBuilderConfigs_8hh.html" target="_top" xlink:title=" ">
<polygon fill="white" stroke="#666666" points="1170.12,-203.75 1031.88,-203.75 1031.88,-183 1170.12,-183 1170.12,-203.75"/>
<text text-anchor="middle" x="1101" y="-190.25" font-family="Helvetica,sans-Serif" font-size="10.00">VolumeBuilderConfigs.hh</text>
</a>
</g>
</g>
<!-- Node20&#45;&gt;Node22 -->
<g id="edge37_Node000020_Node000022" class="edge">
<title>Node20&#45;&gt;Node22</title>
<g id="a_edge37_Node000020_Node000022"><a xlink:title=" ">
<path fill="none" stroke="#63b8ff" d="M605.2,-303.1C736.12,-297.23 1015.94,-282.31 1054,-260.5 1072.09,-250.13 1084.98,-229.64 1092.63,-214.2"/>
<polygon fill="#63b8ff" stroke="#63b8ff" points="1095.66,-215.99 1096.64,-205.44 1089.29,-213.08 1095.66,-215.99"/>
</a>
</g>
</g>
<!-- Node23 -->
<g id="Node000023" class="node">
<title>Node23</title>
<g id="a_Node000023"><a xlink:title=" ">
<polygon fill="#e0e0e0" stroke="#999999" points="1498.62,-140.62 1423.38,-140.62 1423.38,-119.88 1498.62,-119.88 1498.62,-140.62"/>
<text text-anchor="middle" x="1461" y="-127.12" font-family="Helvetica,sans-Serif" font-size="10.00">G4Colour.hh</text>
</a>
</g>
</g>
<!-- Node20&#45;&gt;Node23 -->
<g id="edge52_Node000020_Node000023" class="edge">
<title>Node20&#45;&gt;Node23</title>
<g id="a_edge52_Node000020_Node000023"><a xlink:title=" ">
<path fill="none" stroke="#63b8ff" d="M604.95,-305.44C707.9,-303.62 910.81,-295.42 1079,-260.5 1211.84,-232.92 1362.46,-173.03 1427.82,-145.55"/>
<polygon fill="#63b8ff" stroke="#63b8ff" points="1429.05,-148.83 1436.9,-141.71 1426.32,-142.39 1429.05,-148.83"/>
</a>
</g>
</g>
<!-- Node27 -->
<g id="Node000027" class="node">
<title>Node27</title>
<g id="a_Node000027"><a xlink:title=" ">
<polygon fill="#e0e0e0" stroke="#999999" points="770.25,-260.5 641.75,-260.5 641.75,-239.75 770.25,-239.75 770.25,-260.5"/>
<text text-anchor="middle" x="706" y="-247" font-family="Helvetica,sans-Serif" font-size="10.00">G4VPhysicalVolume.hh</text>
</a>
</g>
</g>
<!-- Node20&#45;&gt;Node27 -->
<g id="edge53_Node000020_Node000027" class="edge">
<title>Node20&#45;&gt;Node27</title>
<g id="a_edge53_Node000020_Node000027"><a xlink:title=" ">
<path fill="none" stroke="#63b8ff" d="M568.04,-296.09C595.19,-287.24 635.38,-274.14 665.39,-264.36"/>
<polygon fill="#63b8ff" stroke="#63b8ff" points="666.08,-267.82 674.5,-261.39 663.91,-261.16 666.08,-267.82"/>
</a>
</g>
</g>
<!-- Node28 -->
<g id="Node000028" class="node">
<title>Node28</title>
<g id="a_Node000028"><a xlink:href="BuilderFactories_8hh.html" target="_top" xlink:title=" ">
<polygon fill="white" stroke="#666666" points="935.5,-260.5 826.5,-260.5 826.5,-239.75 935.5,-239.75 935.5,-260.5"/>
<text text-anchor="middle" x="881" y="-247" font-family="Helvetica,sans-Serif" font-size="10.00">BuilderFactories.hh</text>
</a>
</g>
</g>
<!-- Node20&#45;&gt;Node28 -->
<g id="edge58_Node000020_Node000028" class="edge">
<title>Node20&#45;&gt;Node28</title>
<g id="a_edge58_Node000020_Node000028"><a xlink:title=" ">
<path fill="none" stroke="#63b8ff" d="M599.72,-296.02C660.36,-286.34 752.61,-271.62 814.76,-261.7"/>
<polygon fill="#63b8ff" stroke="#63b8ff" points="815.19,-265.17 824.51,-260.14 814.08,-258.26 815.19,-265.17"/>
</a>
</g>
</g>
<!-- Node21&#45;&gt;Node2 -->
<g id="edge35_Node000021_Node000002" class="edge">
<title>Node21&#45;&gt;Node2</title>
<g id="a_edge35_Node000021_Node000002"><a xlink:title=" ">
<path fill="none" stroke="#63b8ff" d="M331.41,-239.34C315.58,-231.01 292.6,-218.91 274.46,-209.36"/>
<polygon fill="#63b8ff" stroke="#63b8ff" points="276.25,-206.34 265.77,-204.78 272.99,-212.54 276.25,-206.34"/>
</a>
</g>
</g>
<!-- Node21&#45;&gt;Node8 -->
<g id="edge36_Node000021_Node000008" class="edge">
<title>Node21&#45;&gt;Node8</title>
<g id="a_edge36_Node000021_Node000008"><a xlink:title=" ">
<path fill="none" stroke="#63b8ff" d="M396.26,-243.47C472.44,-234.16 625.19,-215.49 718.83,-204.05"/>
<polygon fill="#63b8ff" stroke="#63b8ff" points="719.22,-207.53 728.73,-202.84 718.38,-200.58 719.22,-207.53"/>
</a>
</g>
</g>
<!-- Node21&#45;&gt;Node15 -->
<g id="edge32_Node000021_Node000015" class="edge">
<title>Node21&#45;&gt;Node15</title>
<g id="a_edge32_Node000021_Node000015"><a xlink:title=" ">
<path fill="none" stroke="#63b8ff" d="M351.86,-239.6C357.05,-215.45 373.76,-151.11 411,-113.5 437.87,-86.37 459.5,-101.73 489,-77.5 504.72,-64.58 517.9,-45.38 526.44,-30.99"/>
<polygon fill="#63b8ff" stroke="#63b8ff" points="529.41,-32.86 531.29,-22.43 523.32,-29.41 529.41,-32.86"/>
</a>
</g>
</g>
<!-- Node21&#45;&gt;Node16 -->
<g id="edge34_Node000021_Node000016" class="edge">
<title>Node21&#45;&gt;Node16</title>
<g id="a_edge34_Node000021_Node000016"><a xlink:title=" ">
<path fill="none" stroke="#63b8ff" d="M348.37,-239.59C343.86,-210.25 333.61,-119.5 367,-56.75 373.35,-44.82 384.3,-34.89 394.84,-27.38"/>
<polygon fill="#63b8ff" stroke="#63b8ff" points="396.57,-30.44 403,-22.02 392.72,-24.59 396.57,-30.44"/>
</a>
</g>
</g>
<!-- Node21&#45;&gt;Node18 -->
<g id="edge33_Node000021_Node000018" class="edge">
<title>Node21&#45;&gt;Node18</title>
<g id="a_edge33_Node000021_Node000018"><a xlink:title=" ">
<path fill="none" stroke="#63b8ff" d="M345.95,-239.57C342.28,-230.51 336.99,-216.43 334,-203.75 319.55,-142.48 313.41,-68.05 311.14,-32.4"/>
<polygon fill="#63b8ff" stroke="#63b8ff" points="314.65,-32.4 310.56,-22.62 307.66,-32.81 314.65,-32.4"/>
</a>
</g>
</g>
<!-- Node22&#45;&gt;Node3 -->
<g id="edge42_Node000022_Node000003" class="edge">
<title>Node22&#45;&gt;Node3</title>
<g id="a_edge42_Node000022_Node000003"><a xlink:title=" ">
<path fill="none" stroke="#63b8ff" d="M1039,-182.54C986.74,-173.6 916.51,-159.88 891,-147 870.9,-136.85 873.11,-123.63 853,-113.5 797.58,-85.58 725.6,-74.8 681.39,-70.67"/>
<polygon fill="#63b8ff" stroke="#63b8ff" points="681.73,-67.18 671.47,-69.82 681.14,-74.16 681.73,-67.18"/>
</a>
</g>
</g>
<!-- Node22&#45;&gt;Node7 -->
<g id="edge44_Node000022_Node000007" class="edge">
<title>Node22&#45;&gt;Node7</title>
<g id="a_edge44_Node000022_Node000007"><a xlink:title=" ">
<path fill="none" stroke="#63b8ff" d="M1031.38,-187.8C944.01,-181.47 789.76,-168.34 659,-147 647.5,-145.12 635.07,-142.52 623.91,-139.96"/>
<polygon fill="#63b8ff" stroke="#63b8ff" points="624.85,-136.59 614.31,-137.7 623.24,-143.4 624.85,-136.59"/>
</a>
</g>
</g>
<!-- Node22&#45;&gt;Node9 -->
<g id="edge39_Node000022_Node000009" class="edge">
<title>Node22&#45;&gt;Node9</title>
<g id="a_edge39_Node000022_Node000009"><a xlink:title=" ">
<path fill="none" stroke="#63b8ff" d="M1031.51,-184.96C966.03,-177.41 865.34,-164.35 779,-147 774.37,-146.07 769.56,-144.99 764.77,-143.85"/>
<polygon fill="#63b8ff" stroke="#63b8ff" points="765.76,-140.49 755.21,-141.47 764.07,-147.28 765.76,-140.49"/>
</a>
</g>
</g>
<!-- Node22&#45;&gt;Node10 -->
<g id="edge43_Node000022_Node000010" class="edge">
<title>Node22&#45;&gt;Node10</title>
<g id="a_edge43_Node000022_Node000010"><a xlink:title=" ">
<path fill="none" stroke="#63b8ff" d="M1031.4,-182.68C982.41,-175.05 915.57,-163.04 858,-147 855.56,-146.32 853.07,-145.56 850.57,-144.75"/>
<polygon fill="#63b8ff" stroke="#63b8ff" points="851.77,-141.46 841.18,-141.47 849.47,-148.07 851.77,-141.46"/>
</a>
</g>
</g>
<!-- Node22&#45;&gt;Node11 -->
<g id="edge46_Node000022_Node000011" class="edge">
<title>Node22&#45;&gt;Node11</title>
<g id="a_edge46_Node000022_Node000011"><a xlink:title=" ">
<path fill="none" stroke="#63b8ff" d="M1077.54,-182.55C1057.79,-174.29 1028.89,-162.18 1004.11,-151.81"/>
<polygon fill="#63b8ff" stroke="#63b8ff" points="1005.75,-148.7 995.17,-148.07 1003.05,-155.16 1005.75,-148.7"/>
</a>
</g>
</g>
<!-- Node22&#45;&gt;Node14 -->
<g id="edge47_Node000022_Node000014" class="edge">
<title>Node22&#45;&gt;Node14</title>
<g id="a_edge47_Node000022_Node000014"><a xlink:title=" ">
<path fill="none" stroke="#63b8ff" d="M1031.67,-188.52C928.09,-182.31 726.93,-168.59 557,-147 545.43,-145.53 533.09,-143.64 521.33,-141.68"/>
<polygon fill="#63b8ff" stroke="#63b8ff" points="522.21,-138.29 511.77,-140.05 521.04,-145.19 522.21,-138.29"/>
</a>
</g>
</g>
<!-- Node22&#45;&gt;Node23 -->
<g id="edge38_Node000022_Node000023" class="edge">
<title>Node22&#45;&gt;Node23</title>
<g id="a_edge38_Node000022_Node000023"><a xlink:title=" ">
<path fill="none" stroke="#63b8ff" d="M1170.62,-186.08C1234.72,-179.39 1332.14,-166.99 1415,-147 1417.97,-146.28 1421.03,-145.45 1424.08,-144.56"/>
<polygon fill="#63b8ff" stroke="#63b8ff" points="1425.06,-147.92 1433.53,-141.56 1422.94,-141.24 1425.06,-147.92"/>
</a>
</g>
</g>
<!-- Node24 -->
<g id="Node000024" class="node">
<title>Node24</title>
<g id="a_Node000024"><a xlink:title=" ">
<polygon fill="#e0e0e0" stroke="#999999" points="1280.12,-140.62 1207.88,-140.62 1207.88,-119.88 1280.12,-119.88 1280.12,-140.62"/>
<text text-anchor="middle" x="1244" y="-127.12" font-family="Helvetica,sans-Serif" font-size="10.00">G4Types.hh</text>
</a>
</g>
</g>
<!-- Node22&#45;&gt;Node24 -->
<g id="edge40_Node000022_Node000024" class="edge">
<title>Node22&#45;&gt;Node24</title>
<g id="a_edge40_Node000022_Node000024"><a xlink:title=" ">
<path fill="none" stroke="#63b8ff" d="M1123.98,-182.55C1147.43,-172.53 1184.07,-156.87 1210.7,-145.48"/>
<polygon fill="#63b8ff" stroke="#63b8ff" points="1211.87,-148.79 1219.69,-141.64 1209.12,-142.35 1211.87,-148.79"/>
</a>
</g>
</g>
<!-- Node25 -->
<g id="Node000025" class="node">
<title>Node25</title>
<g id="a_Node000025"><a xlink:title=" ">
<polygon fill="#e0e0e0" stroke="#999999" points="1405.75,-140.62 1298.25,-140.62 1298.25,-119.88 1405.75,-119.88 1405.75,-140.62"/>
<text text-anchor="middle" x="1352" y="-127.12" font-family="Helvetica,sans-Serif" font-size="10.00">G4VisAttributes.hh</text>
</a>
</g>
</g>
<!-- Node22&#45;&gt;Node25 -->
<g id="edge41_Node000022_Node000025" class="edge">
<title>Node22&#45;&gt;Node25</title>
<g id="a_edge41_Node000022_Node000025"><a xlink:title=" ">
<path fill="none" stroke="#63b8ff" d="M1142.1,-182.56C1180.2,-173.43 1238.46,-159.42 1289,-147 1293.25,-145.96 1297.66,-144.87 1302.09,-143.77"/>
<polygon fill="#63b8ff" stroke="#63b8ff" points="1302.7,-147.22 1311.56,-141.41 1301.01,-140.43 1302.7,-147.22"/>
</a>
</g>
</g>
<!-- Node26 -->
<g id="Node000026" class="node">
<title>Node26</title>
<g id="a_Node000026"><a xlink:title=" ">
<polygon fill="#e0e0e0" stroke="#999999" points="1189.75,-140.62 1028.25,-140.62 1028.25,-119.88 1189.75,-119.88 1189.75,-140.62"/>
<text text-anchor="middle" x="1109" y="-127.12" font-family="Helvetica,sans-Serif" font-size="10.00">CLHEP/Units/SystemOfUnits.h</text>
</a>
</g>
</g>
<!-- Node22&#45;&gt;Node26 -->
<g id="edge45_Node000022_Node000026" class="edge">
<title>Node22&#45;&gt;Node26</title>
<g id="a_edge45_Node000022_Node000026"><a xlink:title=" ">
<path fill="none" stroke="#63b8ff" d="M1102.29,-182.55C1103.35,-174.4 1104.91,-162.51 1106.25,-152.23"/>
<polygon fill="#63b8ff" stroke="#63b8ff" points="1109.72,-152.72 1107.55,-142.35 1102.78,-151.81 1109.72,-152.72"/>
</a>
</g>
</g>
<!-- Node28&#45;&gt;Node8 -->
<g id="edge59_Node000028_Node000008" class="edge">
<title>Node28&#45;&gt;Node8</title>
<g id="a_edge59_Node000028_Node000008"><a xlink:title=" ">
<path fill="none" stroke="#63b8ff" d="M866.16,-239.34C853.89,-231.24 836.21,-219.58 821.94,-210.17"/>
<polygon fill="#63b8ff" stroke="#63b8ff" points="824.25,-207.5 813.97,-204.91 820.39,-213.34 824.25,-207.5"/>
</a>
</g>
</g>
</g>
</svg>
