<?xml version="1.0" encoding="UTF-8" standalone="no"?>
<!DOCTYPE svg PUBLIC "-//W3C//DTD SVG 1.1//EN"
 "http://www.w3.org/Graphics/SVG/1.1/DTD/svg11.dtd">
<!-- Generated by graphviz version 12.0.0 (20240803.0821)
 -->
<!-- Title: include/StructureBuilderBase.hpp Pages: 1 -->
<svg width="1499pt" height="168pt"
 viewBox="0.00 0.00 1499.00 167.75" xmlns="http://www.w3.org/2000/svg" xmlns:xlink="http://www.w3.org/1999/xlink">
<g id="graph0" class="graph" transform="scale(1 1) rotate(0) translate(4 163.75)">
<title>include/StructureBuilderBase.hpp</title>
<!-- Node1 -->
<g id="Node000001" class="node">
<title>Node1</title>
<g id="a_Node000001"><a xlink:title="Created by.">
<polygon fill="#999999" stroke="#666666" points="941.25,-159.75 808.25,-159.75 808.25,-126.25 941.25,-126.25 941.25,-159.75"/>
<text text-anchor="start" x="816.25" y="-146.25" font-family="Helvetica,sans-Serif" font-size="10.00">include/StructureBuilder</text>
<text text-anchor="middle" x="874.75" y="-133.5" font-family="Helvetica,sans-Serif" font-size="10.00">Base.hpp</text>
</a>
</g>
</g>
<!-- Node2 -->
<g id="Node000002" class="node">
<title>Node2</title>
<g id="a_Node000002"><a xlink:href="VolumeBuilders_8hh.html" target="_top" xlink:title=" ">
<polygon fill="white" stroke="#666666" points="438.62,-90.25 292.88,-90.25 292.88,-69.5 438.62,-69.5 438.62,-90.25"/>
<text text-anchor="middle" x="365.75" y="-76.75" font-family="Helvetica,sans-Serif" font-size="10.00">include/VolumeBuilders.hh</text>
</a>
</g>
</g>
<!-- Node1&#45;&gt;Node2 -->
<g id="edge1_Node000001_Node000002" class="edge">
<title>Node1&#45;&gt;Node2</title>
<g id="a_edge1_Node000001_Node000002"><a xlink:title=" ">
<path fill="none" stroke="#63b8ff" d="M796.7,-132.63C699.26,-120.93 533.87,-101.06 438.81,-89.65"/>
<polygon fill="#63b8ff" stroke="#63b8ff" points="796.1,-136.08 806.44,-133.8 796.93,-129.13 796.1,-136.08"/>
</a>
</g>
</g>
<!-- Node8 -->
<g id="Node000008" class="node">
<title>Node8</title>
<g id="a_Node000008"><a xlink:href="AssemblyCore_8cc.html" target="_top" xlink:title="Created by.">
<polygon fill="white" stroke="#666666" points="574.38,-90.25 457.12,-90.25 457.12,-69.5 574.38,-69.5 574.38,-90.25"/>
<text text-anchor="middle" x="515.75" y="-76.75" font-family="Helvetica,sans-Serif" font-size="10.00">src/AssemblyCore.cc</text>
</a>
</g>
</g>
<!-- Node1&#45;&gt;Node8 -->
<g id="edge7_Node000001_Node000008" class="edge">
<title>Node1&#45;&gt;Node8</title>
<g id="a_edge7_Node000001_Node000008"><a xlink:title=" ">
<path fill="none" stroke="#63b8ff" d="M797.11,-128.78C729.88,-117.33 634.13,-101.03 573.48,-90.7"/>
<polygon fill="#63b8ff" stroke="#63b8ff" points="796.13,-132.16 806.57,-130.39 797.3,-125.26 796.13,-132.16"/>
</a>
</g>
</g>
<!-- Node9 -->
<g id="Node000009" class="node">
<title>Node9</title>
<g id="a_Node000009"><a xlink:href="BoxBuilderCore_8cc.html" target="_top" xlink:title=" ">
<polygon fill="white" stroke="#666666" points="715,-90.25 592.5,-90.25 592.5,-69.5 715,-69.5 715,-90.25"/>
<text text-anchor="middle" x="653.75" y="-76.75" font-family="Helvetica,sans-Serif" font-size="10.00">src/BoxBuilderCore.cc</text>
</a>
</g>
</g>
<!-- Node1&#45;&gt;Node9 -->
<g id="edge8_Node000001_Node000009" class="edge">
<title>Node1&#45;&gt;Node9</title>
<g id="a_edge8_Node000001_Node000009"><a xlink:title=" ">
<path fill="none" stroke="#63b8ff" d="M805.44,-122.83C766.83,-112.15 720.39,-99.31 689.15,-90.67"/>
<polygon fill="#63b8ff" stroke="#63b8ff" points="804.08,-126.08 814.65,-125.38 805.94,-119.34 804.08,-126.08"/>
</a>
</g>
</g>
<!-- Node10 -->
<g id="Node000010" class="node">
<title>Node10</title>
<g id="a_Node000010"><a xlink:href="FromG4VSolidCore_8cc.html" target="_top" xlink:title=" ">
<polygon fill="white" stroke="#666666" points="870.88,-90.25 732.62,-90.25 732.62,-69.5 870.88,-69.5 870.88,-90.25"/>
<text text-anchor="middle" x="801.75" y="-76.75" font-family="Helvetica,sans-Serif" font-size="10.00">src/FromG4VSolidCore.cc</text>
</a>
</g>
</g>
<!-- Node1&#45;&gt;Node10 -->
<g id="edge9_Node000001_Node000010" class="edge">
<title>Node1&#45;&gt;Node10</title>
<g id="a_edge9_Node000001_Node000010"><a xlink:title=" ">
<path fill="none" stroke="#63b8ff" d="M847.02,-118.78C835.41,-109.06 822.54,-98.29 813.5,-90.72"/>
<polygon fill="#63b8ff" stroke="#63b8ff" points="844.5,-121.23 854.41,-124.97 848.99,-115.87 844.5,-121.23"/>
</a>
</g>
</g>
<!-- Node11 -->
<g id="Node000011" class="node">
<title>Node11</title>
<g id="a_Node000011"><a xlink:href="RZBuilderCore_8cc.html" target="_top" xlink:title=" ">
<polygon fill="white" stroke="#666666" points="1006.38,-90.25 889.12,-90.25 889.12,-69.5 1006.38,-69.5 1006.38,-90.25"/>
<text text-anchor="middle" x="947.75" y="-76.75" font-family="Helvetica,sans-Serif" font-size="10.00">src/RZBuilderCore.cc</text>
</a>
</g>
</g>
<!-- Node1&#45;&gt;Node11 -->
<g id="edge10_Node000001_Node000011" class="edge">
<title>Node1&#45;&gt;Node11</title>
<g id="a_edge10_Node000001_Node000011"><a xlink:title=" ">
<path fill="none" stroke="#63b8ff" d="M902.48,-118.78C914.09,-109.06 926.96,-98.29 936,-90.72"/>
<polygon fill="#63b8ff" stroke="#63b8ff" points="900.51,-115.87 895.09,-124.97 905,-121.23 900.51,-115.87"/>
</a>
</g>
</g>
<!-- Node12 -->
<g id="Node000012" class="node">
<title>Node12</title>
<g id="a_Node000012"><a xlink:href="StructureBuilderCore_8cc.html" target="_top" xlink:title="Created by.">
<polygon fill="white" stroke="#666666" points="1172.75,-90.25 1024.75,-90.25 1024.75,-69.5 1172.75,-69.5 1172.75,-90.25"/>
<text text-anchor="middle" x="1098.75" y="-76.75" font-family="Helvetica,sans-Serif" font-size="10.00">src/StructureBuilderCore.cc</text>
</a>
</g>
</g>
<!-- Node1&#45;&gt;Node12 -->
<g id="edge11_Node000001_Node000012" class="edge">
<title>Node1&#45;&gt;Node12</title>
<g id="a_edge11_Node000001_Node000012"><a xlink:title=" ">
<path fill="none" stroke="#63b8ff" d="M945.25,-122.76C984.34,-112.1 1031.28,-99.29 1062.87,-90.67"/>
<polygon fill="#63b8ff" stroke="#63b8ff" points="944.38,-119.37 935.65,-125.38 946.22,-126.13 944.38,-119.37"/>
</a>
</g>
</g>
<!-- Node13 -->
<g id="Node000013" class="node">
<title>Node13</title>
<g id="a_Node000013"><a xlink:href="VolumeBuilderBase_8cc.html" target="_top" xlink:title=" ">
<polygon fill="white" stroke="#666666" points="1332.75,-90.25 1190.75,-90.25 1190.75,-69.5 1332.75,-69.5 1332.75,-90.25"/>
<text text-anchor="middle" x="1261.75" y="-76.75" font-family="Helvetica,sans-Serif" font-size="10.00">src/VolumeBuilderBase.cc</text>
</a>
</g>
</g>
<!-- Node1&#45;&gt;Node13 -->
<g id="edge12_Node000001_Node000013" class="edge">
<title>Node1&#45;&gt;Node13</title>
<g id="a_edge12_Node000001_Node000013"><a xlink:title=" ">
<path fill="none" stroke="#63b8ff" d="M953.07,-129.63C1025.72,-118.15 1132.42,-101.3 1199.44,-90.72"/>
<polygon fill="#63b8ff" stroke="#63b8ff" points="952.54,-126.17 943.21,-131.19 953.64,-133.08 952.54,-126.17"/>
</a>
</g>
</g>
<!-- Node14 -->
<g id="Node000014" class="node">
<title>Node14</title>
<g id="a_Node000014"><a xlink:href="VolumeBuilderCore_8cc.html" target="_top" xlink:title="Created by.">
<polygon fill="white" stroke="#666666" points="1491,-90.25 1350.5,-90.25 1350.5,-69.5 1491,-69.5 1491,-90.25"/>
<text text-anchor="middle" x="1420.75" y="-76.75" font-family="Helvetica,sans-Serif" font-size="10.00">src/VolumeBuilderCore.cc</text>
</a>
</g>
</g>
<!-- Node1&#45;&gt;Node14 -->
<g id="edge13_Node000001_Node000014" class="edge">
<title>Node1&#45;&gt;Node14</title>
<g id="a_edge13_Node000001_Node000014"><a xlink:title=" ">
<path fill="none" stroke="#63b8ff" d="M952.92,-133.53C1045.68,-123.42 1205.02,-105.94 1341.75,-90.25 1344.49,-89.94 1347.29,-89.61 1350.12,-89.28"/>
<polygon fill="#63b8ff" stroke="#63b8ff" points="952.73,-130.02 943.17,-134.59 953.49,-136.98 952.73,-130.02"/>
</a>
</g>
</g>
<!-- Node3 -->
<g id="Node000003" class="node">
<title>Node3</title>
<g id="a_Node000003"><a xlink:href="ConstructAssembly_8cc.html" target="_top" xlink:title="Created by.">
<polygon fill="white" stroke="#666666" points="125.5,-33.5 0,-33.5 0,0 125.5,0 125.5,-33.5"/>
<text text-anchor="start" x="8" y="-20" font-family="Helvetica,sans-Serif" font-size="10.00">demo/src/Geometries</text>
<text text-anchor="middle" x="62.75" y="-7.25" font-family="Helvetica,sans-Serif" font-size="10.00">/ConstructAssembly.cc</text>
</a>
</g>
</g>
<!-- Node2&#45;&gt;Node3 -->
<g id="edge2_Node000002_Node000003" class="edge">
<title>Node2&#45;&gt;Node3</title>
<g id="a_edge2_Node000002_Node000003"><a xlink:title=" ">
<path fill="none" stroke="#63b8ff" d="M302.74,-66.88C256.26,-57.93 191.5,-45.28 134.75,-33.5 131.87,-32.9 128.92,-32.28 125.95,-31.66"/>
<polygon fill="#63b8ff" stroke="#63b8ff" points="301.88,-70.27 312.36,-68.72 303.2,-63.4 301.88,-70.27"/>
</a>
</g>
</g>
<!-- Node4 -->
<g id="Node000004" class="node">
<title>Node4</title>
<g id="a_Node000004"><a xlink:href="ConstructBoxExample_8cc.html" target="_top" xlink:title="Created by.">
<polygon fill="white" stroke="#666666" points="284,-33.5 143.5,-33.5 143.5,0 284,0 284,-33.5"/>
<text text-anchor="start" x="151.5" y="-20" font-family="Helvetica,sans-Serif" font-size="10.00">demo/src/Geometries</text>
<text text-anchor="middle" x="213.75" y="-7.25" font-family="Helvetica,sans-Serif" font-size="10.00">/ConstructBoxExample.cc</text>
</a>
</g>
</g>
<!-- Node2&#45;&gt;Node4 -->
<g id="edge3_Node000002_Node000004" class="edge">
<title>Node2&#45;&gt;Node4</title>
<g id="a_edge3_Node000002_Node000004"><a xlink:title=" ">
<path fill="none" stroke="#63b8ff" d="M330.73,-64.79C307.88,-55.6 277.98,-43.58 254.12,-33.98"/>
<polygon fill="#63b8ff" stroke="#63b8ff" points="329.34,-68.01 339.92,-68.49 331.95,-61.51 329.34,-68.01"/>
</a>
</g>
</g>
<!-- Node5 -->
<g id="Node000005" class="node">
<title>Node5</title>
<g id="a_Node000005"><a xlink:href="ConstructExample1_8cc.html" target="_top" xlink:title="Created by.">
<polygon fill="white" stroke="#666666" points="429.62,-33.5 301.88,-33.5 301.88,0 429.62,0 429.62,-33.5"/>
<text text-anchor="start" x="309.88" y="-20" font-family="Helvetica,sans-Serif" font-size="10.00">demo/src/Geometries</text>
<text text-anchor="middle" x="365.75" y="-7.25" font-family="Helvetica,sans-Serif" font-size="10.00">/ConstructExample1.cc</text>
</a>
</g>
</g>
<!-- Node2&#45;&gt;Node5 -->
<g id="edge4_Node000002_Node000005" class="edge">
<title>Node2&#45;&gt;Node5</title>
<g id="a_edge4_Node000002_Node000005"><a xlink:title=" ">
<path fill="none" stroke="#63b8ff" d="M365.75,-57.59C365.75,-49.85 365.75,-41.22 365.75,-33.98"/>
<polygon fill="#63b8ff" stroke="#63b8ff" points="362.25,-57.54 365.75,-67.54 369.25,-57.54 362.25,-57.54"/>
</a>
</g>
</g>
<!-- Node6 -->
<g id="Node000006" class="node">
<title>Node6</title>
<g id="a_Node000006"><a xlink:href="ConstructHexPart_8cc.html" target="_top" xlink:title=" ">
<polygon fill="white" stroke="#666666" points="568.25,-33.5 447.25,-33.5 447.25,0 568.25,0 568.25,-33.5"/>
<text text-anchor="start" x="455.25" y="-20" font-family="Helvetica,sans-Serif" font-size="10.00">demo/src/Geometries</text>
<text text-anchor="middle" x="507.75" y="-7.25" font-family="Helvetica,sans-Serif" font-size="10.00">/ConstructHexPart.cc</text>
</a>
</g>
</g>
<!-- Node2&#45;&gt;Node6 -->
<g id="edge5_Node000002_Node000006" class="edge">
<title>Node2&#45;&gt;Node6</title>
<g id="a_edge5_Node000002_Node000006"><a xlink:title=" ">
<path fill="none" stroke="#63b8ff" d="M399.05,-64.54C420.32,-55.39 447.95,-43.49 470.03,-33.98"/>
<polygon fill="#63b8ff" stroke="#63b8ff" points="397.76,-61.29 389.95,-68.46 400.52,-67.72 397.76,-61.29"/>
</a>
</g>
</g>
<!-- Node7 -->
<g id="Node000007" class="node">
<title>Node7</title>
<g id="a_Node000007"><a xlink:href="ConstructWorld_8cc.html" target="_top" xlink:title=" ">
<polygon fill="white" stroke="#666666" points="707.25,-33.5 586.25,-33.5 586.25,0 707.25,0 707.25,-33.5"/>
<text text-anchor="start" x="594.25" y="-20" font-family="Helvetica,sans-Serif" font-size="10.00">demo/src/Geometries</text>
<text text-anchor="middle" x="646.75" y="-7.25" font-family="Helvetica,sans-Serif" font-size="10.00">/ConstructWorld.cc</text>
</a>
</g>
</g>
<!-- Node2&#45;&gt;Node7 -->
<g id="edge6_Node000002_Node000007" class="edge">
<title>Node2&#45;&gt;Node7</title>
<g id="a_edge6_Node000002_Node000007"><a xlink:title=" ">
<path fill="none" stroke="#63b8ff" d="M423.54,-66.73C466.19,-57.71 525.63,-45.03 577.75,-33.5 580.39,-32.92 583.08,-32.32 585.81,-31.71"/>
<polygon fill="#63b8ff" stroke="#63b8ff" points="423.07,-63.25 414.01,-68.74 424.51,-70.1 423.07,-63.25"/>
</a>
</g>
</g>
</g>
</svg>
