<?xml version="1.0" encoding="UTF-8" standalone="no"?>
<!DOCTYPE svg PUBLIC "-//W3C//DTD SVG 1.1//EN"
 "http://www.w3.org/Graphics/SVG/1.1/DTD/svg11.dtd">
<!-- Generated by graphviz version 12.0.0 (20240803.0821)
 -->
<!-- Title: include/StructureBuilderBase.hh Pages: 1 -->
<svg width="1501pt" height="338pt"
 viewBox="0.00 0.00 1500.62 338.00" xmlns="http://www.w3.org/2000/svg" xmlns:xlink="http://www.w3.org/1999/xlink">
<g id="graph0" class="graph" transform="scale(1 1) rotate(0) translate(4 334)">
<title>include/StructureBuilderBase.hh</title>
<!-- Node1 -->
<g id="Node000001" class="node">
<title>Node1</title>
<g id="a_Node000001"><a xlink:title=" ">
<polygon fill="#999999" stroke="#666666" points="566.5,-330 433.5,-330 433.5,-296.5 566.5,-296.5 566.5,-330"/>
<text text-anchor="start" x="441.5" y="-316.5" font-family="Helvetica,sans-Serif" font-size="10.00">include/StructureBuilder</text>
<text text-anchor="middle" x="500" y="-303.75" font-family="Helvetica,sans-Serif" font-size="10.00">Base.hh</text>
</a>
</g>
</g>
<!-- Node2 -->
<g id="Node000002" class="node">
<title>Node2</title>
<g id="a_Node000002"><a xlink:title=" ">
<polygon fill="#e0e0e0" stroke="#999999" points="571.88,-140.62 516.12,-140.62 516.12,-119.88 571.88,-119.88 571.88,-140.62"/>
<text text-anchor="middle" x="544" y="-127.12" font-family="Helvetica,sans-Serif" font-size="10.00">optional</text>
</a>
</g>
</g>
<!-- Node1&#45;&gt;Node2 -->
<g id="edge1_Node000001_Node000002" class="edge">
<title>Node1&#45;&gt;Node2</title>
<g id="a_edge1_Node000001_Node000002"><a xlink:title=" ">
<path fill="none" stroke="#63b8ff" d="M501.77,-296.09C504.73,-271.37 511.5,-222.86 523,-183 526.09,-172.27 530.66,-160.72 534.74,-151.26"/>
<polygon fill="#63b8ff" stroke="#63b8ff" points="537.84,-152.89 538.73,-142.34 531.45,-150.03 537.84,-152.89"/>
</a>
</g>
</g>
<!-- Node3 -->
<g id="Node000003" class="node">
<title>Node3</title>
<g id="a_Node000003"><a xlink:href="Linkable_8hh.html" target="_top" xlink:title=" ">
<polygon fill="white" stroke="#666666" points="281.75,-203.75 210.25,-203.75 210.25,-183 281.75,-183 281.75,-203.75"/>
<text text-anchor="middle" x="246" y="-190.25" font-family="Helvetica,sans-Serif" font-size="10.00">Linkable.hh</text>
</a>
</g>
</g>
<!-- Node1&#45;&gt;Node3 -->
<g id="edge2_Node000001_Node000003" class="edge">
<title>Node1&#45;&gt;Node3</title>
<g id="a_edge2_Node000001_Node000003"><a xlink:title=" ">
<path fill="none" stroke="#63b8ff" d="M433.08,-307.18C390.27,-301.25 335.24,-288.38 294,-260.5 276.79,-248.86 263.56,-228.9 255.39,-213.95"/>
<polygon fill="#63b8ff" stroke="#63b8ff" points="258.73,-212.77 251.04,-205.48 252.5,-215.97 258.73,-212.77"/>
</a>
</g>
</g>
<!-- Node4 -->
<g id="Node000004" class="node">
<title>Node4</title>
<g id="a_Node000004"><a xlink:title=" ">
<polygon fill="#e0e0e0" stroke="#999999" points="671.62,-77.5 614.38,-77.5 614.38,-56.75 671.62,-56.75 671.62,-77.5"/>
<text text-anchor="middle" x="643" y="-64" font-family="Helvetica,sans-Serif" font-size="10.00">memory</text>
</a>
</g>
</g>
<!-- Node1&#45;&gt;Node4 -->
<g id="edge49_Node000001_Node000004" class="edge">
<title>Node1&#45;&gt;Node4</title>
<g id="a_edge49_Node000001_Node000004"><a xlink:title=" ">
<path fill="none" stroke="#63b8ff" d="M486.79,-296.21C458.49,-259.8 398.09,-169.74 443,-113.5 462.62,-88.93 550.39,-76.66 602.91,-71.42"/>
<polygon fill="#63b8ff" stroke="#63b8ff" points="603.05,-74.92 612.68,-70.49 602.39,-67.95 603.05,-74.92"/>
</a>
</g>
</g>
<!-- Node5 -->
<g id="Node000005" class="node">
<title>Node5</title>
<g id="a_Node000005"><a xlink:title=" ">
<polygon fill="#e0e0e0" stroke="#999999" points="75.75,-140.62 28.25,-140.62 28.25,-119.88 75.75,-119.88 75.75,-140.62"/>
<text text-anchor="middle" x="52" y="-127.12" font-family="Helvetica,sans-Serif" font-size="10.00">mutex</text>
</a>
</g>
</g>
<!-- Node1&#45;&gt;Node5 -->
<g id="edge48_Node000001_Node000005" class="edge">
<title>Node1&#45;&gt;Node5</title>
<g id="a_edge48_Node000001_Node000005"><a xlink:title=" ">
<path fill="none" stroke="#63b8ff" d="M433.23,-307.39C377.53,-301.47 297.06,-288.53 232,-260.5 166.36,-232.22 101.19,-176.92 70.38,-148.71"/>
<polygon fill="#63b8ff" stroke="#63b8ff" points="72.78,-146.15 63.07,-141.91 68.01,-151.28 72.78,-146.15"/>
</a>
</g>
</g>
<!-- Node6 -->
<g id="Node000006" class="node">
<title>Node6</title>
<g id="a_Node000006"><a xlink:title=" ">
<polygon fill="#e0e0e0" stroke="#999999" points="158,-140.62 94,-140.62 94,-119.88 158,-119.88 158,-140.62"/>
<text text-anchor="middle" x="126" y="-127.12" font-family="Helvetica,sans-Serif" font-size="10.00">stdexcept</text>
</a>
</g>
</g>
<!-- Node1&#45;&gt;Node6 -->
<g id="edge50_Node000001_Node000006" class="edge">
<title>Node1&#45;&gt;Node6</title>
<g id="a_edge50_Node000001_Node000006"><a xlink:title=" ">
<path fill="none" stroke="#63b8ff" d="M433.25,-305.78C385.55,-299.17 320.89,-286.07 269,-260.5 213.72,-233.25 163.96,-178.31 140.4,-149.63"/>
<polygon fill="#63b8ff" stroke="#63b8ff" points="143.38,-147.76 134.39,-142.16 137.93,-152.15 143.38,-147.76"/>
</a>
</g>
</g>
<!-- Node8 -->
<g id="Node000008" class="node">
<title>Node8</title>
<g id="a_Node000008"><a xlink:title=" ">
<polygon fill="#e0e0e0" stroke="#999999" points="498.38,-140.62 451.62,-140.62 451.62,-119.88 498.38,-119.88 498.38,-140.62"/>
<text text-anchor="middle" x="475" y="-127.12" font-family="Helvetica,sans-Serif" font-size="10.00">vector</text>
</a>
</g>
</g>
<!-- Node1&#45;&gt;Node8 -->
<g id="edge42_Node000001_Node000008" class="edge">
<title>Node1&#45;&gt;Node8</title>
<g id="a_edge42_Node000001_Node000008"><a xlink:title=" ">
<path fill="none" stroke="#63b8ff" d="M494.83,-296.1C491.79,-285.98 488.13,-272.6 486,-260.5 479.34,-222.74 476.67,-178.05 475.63,-152.34"/>
<polygon fill="#63b8ff" stroke="#63b8ff" points="479.14,-152.44 475.29,-142.57 472.14,-152.69 479.14,-152.44"/>
</a>
</g>
</g>
<!-- Node9 -->
<g id="Node000009" class="node">
<title>Node9</title>
<g id="a_Node000009"><a xlink:href="ISolidBuilder_8hh_source.html" target="_top" xlink:title=" ">
<polygon fill="white" stroke="#666666" points="394.88,-260.5 303.12,-260.5 303.12,-239.75 394.88,-239.75 394.88,-260.5"/>
<text text-anchor="middle" x="349" y="-247" font-family="Helvetica,sans-Serif" font-size="10.00">ISolidBuilder.hh</text>
</a>
</g>
</g>
<!-- Node1&#45;&gt;Node9 -->
<g id="edge8_Node000001_Node000009" class="edge">
<title>Node1&#45;&gt;Node9</title>
<g id="a_edge8_Node000001_Node000009"><a xlink:title=" ">
<path fill="none" stroke="#63b8ff" d="M459.93,-296.03C436.2,-286.43 406.44,-274.38 383.72,-265.18"/>
<polygon fill="#63b8ff" stroke="#63b8ff" points="385.17,-261.99 374.59,-261.48 382.54,-268.48 385.17,-261.99"/>
</a>
</g>
</g>
<!-- Node11 -->
<g id="Node000011" class="node">
<title>Node11</title>
<g id="a_Node000011"><a xlink:title=" ">
<polygon fill="#e0e0e0" stroke="#999999" points="363.38,-20.75 256.62,-20.75 256.62,0 363.38,0 363.38,-20.75"/>
<text text-anchor="middle" x="310" y="-7.25" font-family="Helvetica,sans-Serif" font-size="10.00">G4Transform3D.hh</text>
</a>
</g>
</g>
<!-- Node1&#45;&gt;Node11 -->
<g id="edge41_Node000001_Node000011" class="edge">
<title>Node1&#45;&gt;Node11</title>
<g id="a_edge41_Node000001_Node000011"><a xlink:title=" ">
<path fill="none" stroke="#63b8ff" d="M433.09,-310.37C296.84,-304.73 0,-282.33 0,-194.38 0,-194.38 0,-194.38 0,-129.25 0,-77.28 154.16,-39.99 245.06,-22.52"/>
<polygon fill="#63b8ff" stroke="#63b8ff" points="245.69,-25.96 254.87,-20.67 244.39,-19.08 245.69,-25.96"/>
</a>
</g>
</g>
<!-- Node13 -->
<g id="Node000013" class="node">
<title>Node13</title>
<g id="a_Node000013"><a xlink:href="VolumeBuildersTypes_8hh.html" target="_top" xlink:title=" ">
<polygon fill="white" stroke="#666666" points="667.62,-203.75 532.38,-203.75 532.38,-183 667.62,-183 667.62,-203.75"/>
<text text-anchor="middle" x="600" y="-190.25" font-family="Helvetica,sans-Serif" font-size="10.00">VolumeBuildersTypes.hh</text>
</a>
</g>
</g>
<!-- Node1&#45;&gt;Node13 -->
<g id="edge44_Node000001_Node000013" class="edge">
<title>Node1&#45;&gt;Node13</title>
<g id="a_edge44_Node000001_Node000013"><a xlink:title=" ">
<path fill="none" stroke="#63b8ff" d="M566.77,-305.9C596.43,-299.36 628.71,-286.33 647,-260.5 658.95,-243.62 641.74,-224.36 624.88,-210.99"/>
<polygon fill="#63b8ff" stroke="#63b8ff" points="627.07,-208.26 616.95,-205.13 622.91,-213.89 627.07,-208.26"/>
</a>
</g>
</g>
<!-- Node14 -->
<g id="Node000014" class="node">
<title>Node14</title>
<g id="a_Node000014"><a xlink:title=" ">
<polygon fill="#e0e0e0" stroke="#999999" points="730.12,-140.62 627.88,-140.62 627.88,-119.88 730.12,-119.88 730.12,-140.62"/>
<text text-anchor="middle" x="679" y="-127.12" font-family="Helvetica,sans-Serif" font-size="10.00">G4ThreeVector.hh</text>
</a>
</g>
</g>
<!-- Node1&#45;&gt;Node14 -->
<g id="edge47_Node000001_Node000014" class="edge">
<title>Node1&#45;&gt;Node14</title>
<g id="a_edge47_Node000001_Node000014"><a xlink:title=" ">
<path fill="none" stroke="#63b8ff" d="M566.7,-305.94C599.54,-299.48 637.29,-286.5 662,-260.5 689.71,-231.35 687.14,-180.39 682.98,-151.94"/>
<polygon fill="#63b8ff" stroke="#63b8ff" points="686.49,-151.71 681.37,-142.43 679.59,-152.88 686.49,-151.71"/>
</a>
</g>
</g>
<!-- Node18 -->
<g id="Node000018" class="node">
<title>Node18</title>
<g id="a_Node000018"><a xlink:href="i__shared__ptr_8hh.html" target="_top" xlink:title=" ">
<polygon fill="white" stroke="#666666" points="1094.12,-140.62 1003.88,-140.62 1003.88,-119.88 1094.12,-119.88 1094.12,-140.62"/>
<text text-anchor="middle" x="1049" y="-127.12" font-family="Helvetica,sans-Serif" font-size="10.00">i_shared_ptr.hh</text>
</a>
</g>
</g>
<!-- Node1&#45;&gt;Node18 -->
<g id="edge43_Node000001_Node000018" class="edge">
<title>Node1&#45;&gt;Node18</title>
<g id="a_edge43_Node000001_Node000018"><a xlink:title=" ">
<path fill="none" stroke="#63b8ff" d="M566.78,-301.54C617.78,-292.62 689.51,-278.5 751,-260.5 818.61,-240.71 834.34,-231.71 899,-203.75 941.8,-185.24 990.17,-161.29 1020.13,-146.1"/>
<polygon fill="#63b8ff" stroke="#63b8ff" points="1021.62,-149.27 1028.94,-141.61 1018.45,-143.03 1021.62,-149.27"/>
</a>
</g>
</g>
<!-- Node20 -->
<g id="Node000020" class="node">
<title>Node20</title>
<g id="a_Node000020"><a xlink:href="VolumeBuilderConfigs_8hh.html" target="_top" xlink:title=" ">
<polygon fill="white" stroke="#666666" points="890.12,-203.75 751.88,-203.75 751.88,-183 890.12,-183 890.12,-203.75"/>
<text text-anchor="middle" x="821" y="-190.25" font-family="Helvetica,sans-Serif" font-size="10.00">VolumeBuilderConfigs.hh</text>
</a>
</g>
</g>
<!-- Node1&#45;&gt;Node20 -->
<g id="edge30_Node000001_Node000020" class="edge">
<title>Node1&#45;&gt;Node20</title>
<g id="a_edge30_Node000001_Node000020"><a xlink:title=" ">
<path fill="none" stroke="#63b8ff" d="M566.7,-302.44C610.83,-294.51 669.31,-281.19 718,-260.5 748.28,-247.63 779.61,-226.14 799.65,-211.16"/>
<polygon fill="#63b8ff" stroke="#63b8ff" points="801.74,-213.97 807.57,-205.12 797.5,-208.4 801.74,-213.97"/>
</a>
</g>
</g>
<!-- Node21 -->
<g id="Node000021" class="node">
<title>Node21</title>
<g id="a_Node000021"><a xlink:title=" ">
<polygon fill="#e0e0e0" stroke="#999999" points="1492.62,-140.62 1417.38,-140.62 1417.38,-119.88 1492.62,-119.88 1492.62,-140.62"/>
<text text-anchor="middle" x="1455" y="-127.12" font-family="Helvetica,sans-Serif" font-size="10.00">G4Colour.hh</text>
</a>
</g>
</g>
<!-- Node1&#45;&gt;Node21 -->
<g id="edge45_Node000001_Node000021" class="edge">
<title>Node1&#45;&gt;Node21</title>
<g id="a_edge45_Node000001_Node000021"><a xlink:title=" ">
<path fill="none" stroke="#63b8ff" d="M566.8,-311.63C675.99,-309.44 898.95,-300.01 1083,-260.5 1212.54,-232.69 1359.13,-172.92 1422.72,-145.51"/>
<polygon fill="#63b8ff" stroke="#63b8ff" points="1423.74,-148.89 1431.52,-141.7 1420.95,-142.47 1423.74,-148.89"/>
</a>
</g>
</g>
<!-- Node25 -->
<g id="Node000025" class="node">
<title>Node25</title>
<g id="a_Node000025"><a xlink:title=" ">
<polygon fill="#e0e0e0" stroke="#999999" points="1074.25,-260.5 945.75,-260.5 945.75,-239.75 1074.25,-239.75 1074.25,-260.5"/>
<text text-anchor="middle" x="1010" y="-247" font-family="Helvetica,sans-Serif" font-size="10.00">G4VPhysicalVolume.hh</text>
</a>
</g>
</g>
<!-- Node1&#45;&gt;Node25 -->
<g id="edge46_Node000001_Node000025" class="edge">
<title>Node1&#45;&gt;Node25</title>
<g id="a_edge46_Node000001_Node000025"><a xlink:title=" ">
<path fill="none" stroke="#63b8ff" d="M566.98,-304.24C651.9,-294.07 802.82,-276 932,-260.5 932.68,-260.42 933.36,-260.34 934.04,-260.26"/>
<polygon fill="#63b8ff" stroke="#63b8ff" points="934.29,-263.75 943.8,-259.08 933.46,-256.8 934.29,-263.75"/>
</a>
</g>
</g>
<!-- Node26 -->
<g id="Node000026" class="node">
<title>Node26</title>
<g id="a_Node000026"><a xlink:href="BuilderFactories_8hh.html" target="_top" xlink:title=" ">
<polygon fill="white" stroke="#666666" points="637.5,-260.5 528.5,-260.5 528.5,-239.75 637.5,-239.75 637.5,-260.5"/>
<text text-anchor="middle" x="583" y="-247" font-family="Helvetica,sans-Serif" font-size="10.00">BuilderFactories.hh</text>
</a>
</g>
</g>
<!-- Node1&#45;&gt;Node26 -->
<g id="edge51_Node000001_Node000026" class="edge">
<title>Node1&#45;&gt;Node26</title>
<g id="a_edge51_Node000001_Node000026"><a xlink:title=" ">
<path fill="none" stroke="#63b8ff" d="M521.81,-296.19C533.78,-287.37 548.61,-276.45 560.67,-267.57"/>
<polygon fill="#63b8ff" stroke="#63b8ff" points="562.44,-270.61 568.42,-261.86 558.29,-264.98 562.44,-270.61"/>
</a>
</g>
</g>
<!-- Node3&#45;&gt;Node4 -->
<g id="edge3_Node000003_Node000004" class="edge">
<title>Node3&#45;&gt;Node4</title>
<g id="a_edge3_Node000003_Node000004"><a xlink:title=" ">
<path fill="none" stroke="#63b8ff" d="M262.63,-182.59C291.6,-165.97 353.62,-132.2 410,-113.5 475.81,-91.67 555.75,-78.93 602.83,-72.77"/>
<polygon fill="#63b8ff" stroke="#63b8ff" points="603.08,-76.27 612.56,-71.53 602.2,-69.32 603.08,-76.27"/>
</a>
</g>
</g>
<!-- Node3&#45;&gt;Node5 -->
<g id="edge4_Node000003_Node000005" class="edge">
<title>Node3&#45;&gt;Node5</title>
<g id="a_edge4_Node000003_Node000005"><a xlink:title=" ">
<path fill="none" stroke="#63b8ff" d="M209.94,-184.09C176.94,-176.06 126.99,-162.81 85,-147 83.7,-146.51 82.37,-145.99 81.05,-145.44"/>
<polygon fill="#63b8ff" stroke="#63b8ff" points="82.9,-142.44 72.34,-141.59 80.07,-148.84 82.9,-142.44"/>
</a>
</g>
</g>
<!-- Node3&#45;&gt;Node6 -->
<g id="edge5_Node000003_Node000006" class="edge">
<title>Node3&#45;&gt;Node6</title>
<g id="a_edge5_Node000003_Node000006"><a xlink:title=" ">
<path fill="none" stroke="#63b8ff" d="M226.72,-182.55C207.48,-172.75 177.65,-157.56 155.44,-146.25"/>
<polygon fill="#63b8ff" stroke="#63b8ff" points="157.08,-143.15 146.58,-141.73 153.9,-149.39 157.08,-143.15"/>
</a>
</g>
</g>
<!-- Node7 -->
<g id="Node000007" class="node">
<title>Node7</title>
<g id="a_Node000007"><a xlink:title=" ">
<polygon fill="#e0e0e0" stroke="#999999" points="244.25,-140.62 175.75,-140.62 175.75,-119.88 244.25,-119.88 244.25,-140.62"/>
<text text-anchor="middle" x="210" y="-127.12" font-family="Helvetica,sans-Serif" font-size="10.00">type_traits</text>
</a>
</g>
</g>
<!-- Node3&#45;&gt;Node7 -->
<g id="edge6_Node000003_Node000007" class="edge">
<title>Node3&#45;&gt;Node7</title>
<g id="a_edge6_Node000003_Node000007"><a xlink:title=" ">
<path fill="none" stroke="#63b8ff" d="M240.22,-182.55C235.15,-173.95 227.63,-161.19 221.37,-150.55"/>
<polygon fill="#63b8ff" stroke="#63b8ff" points="224.51,-148.99 216.42,-142.15 218.48,-152.54 224.51,-148.99"/>
</a>
</g>
</g>
<!-- Node3&#45;&gt;Node8 -->
<g id="edge7_Node000003_Node000008" class="edge">
<title>Node3&#45;&gt;Node8</title>
<g id="a_edge7_Node000003_Node000008"><a xlink:title=" ">
<path fill="none" stroke="#63b8ff" d="M282.03,-182.76C325.42,-171.18 397.75,-151.87 440.46,-140.47"/>
<polygon fill="#63b8ff" stroke="#63b8ff" points="441.19,-143.9 449.95,-137.94 439.39,-137.13 441.19,-143.9"/>
</a>
</g>
</g>
<!-- Node9&#45;&gt;Node3 -->
<g id="edge12_Node000009_Node000003" class="edge">
<title>Node9&#45;&gt;Node3</title>
<g id="a_edge12_Node000009_Node000003"><a xlink:title=" ">
<path fill="none" stroke="#63b8ff" d="M330.59,-239.34C314.91,-231.01 292.15,-218.91 274.19,-209.36"/>
<polygon fill="#63b8ff" stroke="#63b8ff" points="276.06,-206.39 265.59,-204.79 272.78,-212.57 276.06,-206.39"/>
</a>
</g>
</g>
<!-- Node10 -->
<g id="Node000010" class="node">
<title>Node10</title>
<g id="a_Node000010"><a xlink:title=" ">
<polygon fill="#e0e0e0" stroke="#999999" points="1050.88,-20.75 935.12,-20.75 935.12,0 1050.88,0 1050.88,-20.75"/>
<text text-anchor="middle" x="993" y="-7.25" font-family="Helvetica,sans-Serif" font-size="10.00">G4LogicalVolume.hh</text>
</a>
</g>
</g>
<!-- Node9&#45;&gt;Node10 -->
<g id="edge9_Node000009_Node000010" class="edge">
<title>Node9&#45;&gt;Node10</title>
<g id="a_edge9_Node000009_Node000010"><a xlink:title=" ">
<path fill="none" stroke="#63b8ff" d="M351.66,-239.28C358.88,-214.37 381.28,-148.39 424,-113.5 596.91,27.69 697.61,-46.62 923.7,-20.95"/>
<polygon fill="#63b8ff" stroke="#63b8ff" points="923.89,-24.45 933.41,-19.78 923.06,-17.5 923.89,-24.45"/>
</a>
</g>
</g>
<!-- Node9&#45;&gt;Node11 -->
<g id="edge10_Node000009_Node000011" class="edge">
<title>Node9&#45;&gt;Node11</title>
<g id="a_edge10_Node000009_Node000011"><a xlink:title=" ">
<path fill="none" stroke="#63b8ff" d="M345.22,-239.54C341.79,-230.46 336.85,-216.38 334,-203.75 320.16,-142.34 313.73,-67.98 311.27,-32.37"/>
<polygon fill="#63b8ff" stroke="#63b8ff" points="314.78,-32.36 310.64,-22.61 307.8,-32.81 314.78,-32.36"/>
</a>
</g>
</g>
<!-- Node12 -->
<g id="Node000012" class="node">
<title>Node12</title>
<g id="a_Node000012"><a xlink:title=" ">
<polygon fill="#e0e0e0" stroke="#999999" points="916.62,-20.75 841.38,-20.75 841.38,0 916.62,0 916.62,-20.75"/>
<text text-anchor="middle" x="879" y="-7.25" font-family="Helvetica,sans-Serif" font-size="10.00">G4VSolid.hh</text>
</a>
</g>
</g>
<!-- Node9&#45;&gt;Node12 -->
<g id="edge11_Node000009_Node000012" class="edge">
<title>Node9&#45;&gt;Node12</title>
<g id="a_edge11_Node000009_Node000012"><a xlink:title=" ">
<path fill="none" stroke="#63b8ff" d="M346.48,-239.34C338.98,-207.63 320.35,-106.89 372,-56.75 404.41,-25.29 708.4,-15.14 829.53,-12.33"/>
<polygon fill="#63b8ff" stroke="#63b8ff" points="829.58,-15.83 839.5,-12.1 829.42,-8.83 829.58,-15.83"/>
</a>
</g>
</g>
<!-- Node9&#45;&gt;Node13 -->
<g id="edge13_Node000009_Node000013" class="edge">
<title>Node9&#45;&gt;Node13</title>
<g id="a_edge13_Node000009_Node000013"><a xlink:title=" ">
<path fill="none" stroke="#63b8ff" d="M394.16,-239.27C436.06,-230.13 498.57,-216.5 543.7,-206.66"/>
<polygon fill="#63b8ff" stroke="#63b8ff" points="544.27,-210.11 553.3,-204.56 542.78,-203.27 544.27,-210.11"/>
</a>
</g>
</g>
<!-- Node13&#45;&gt;Node2 -->
<g id="edge16_Node000013_Node000002" class="edge">
<title>Node13&#45;&gt;Node2</title>
<g id="a_edge16_Node000013_Node000002"><a xlink:title=" ">
<path fill="none" stroke="#63b8ff" d="M591,-182.55C582.79,-173.59 570.45,-160.12 560.47,-149.23"/>
<polygon fill="#63b8ff" stroke="#63b8ff" points="563.15,-146.97 553.81,-141.96 557.99,-151.7 563.15,-146.97"/>
</a>
</g>
</g>
<!-- Node13&#45;&gt;Node4 -->
<g id="edge15_Node000013_Node000004" class="edge">
<title>Node13&#45;&gt;Node4</title>
<g id="a_edge15_Node000013_Node000004"><a xlink:title=" ">
<path fill="none" stroke="#63b8ff" d="M601.53,-182.67C604.09,-167.56 609.88,-137.61 619,-113.5 622.3,-104.77 626.91,-95.6 631.21,-87.8"/>
<polygon fill="#63b8ff" stroke="#63b8ff" points="634.21,-89.61 636.16,-79.19 628.14,-86.12 634.21,-89.61"/>
</a>
</g>
</g>
<!-- Node13&#45;&gt;Node8 -->
<g id="edge17_Node000013_Node000008" class="edge">
<title>Node13&#45;&gt;Node8</title>
<g id="a_edge17_Node000013_Node000008"><a xlink:title=" ">
<path fill="none" stroke="#63b8ff" d="M580.03,-182.66C561.2,-173.48 532.17,-159.33 507,-147 506.39,-146.7 505.78,-146.4 505.16,-146.1"/>
<polygon fill="#63b8ff" stroke="#63b8ff" points="506.84,-143.03 496.33,-141.76 503.76,-149.31 506.84,-143.03"/>
</a>
</g>
</g>
<!-- Node13&#45;&gt;Node14 -->
<g id="edge14_Node000013_Node000014" class="edge">
<title>Node13&#45;&gt;Node14</title>
<g id="a_edge14_Node000013_Node000014"><a xlink:title=" ">
<path fill="none" stroke="#63b8ff" d="M612.69,-182.55C624.79,-173.2 643.23,-158.93 657.59,-147.81"/>
<polygon fill="#63b8ff" stroke="#63b8ff" points="659.37,-150.86 665.14,-141.97 655.09,-145.32 659.37,-150.86"/>
</a>
</g>
</g>
<!-- Node15 -->
<g id="Node000015" class="node">
<title>Node15</title>
<g id="a_Node000015"><a xlink:href="disableable__shared__from__this_8hh.html" target="_top" xlink:title="Created by.">
<polygon fill="white" stroke="#666666" points="896.25,-147 785.75,-147 785.75,-113.5 896.25,-113.5 896.25,-147"/>
<text text-anchor="start" x="793.75" y="-133.5" font-family="Helvetica,sans-Serif" font-size="10.00">disableable_shared</text>
<text text-anchor="middle" x="841" y="-120.75" font-family="Helvetica,sans-Serif" font-size="10.00">_from_this.hh</text>
</a>
</g>
</g>
<!-- Node13&#45;&gt;Node15 -->
<g id="edge18_Node000013_Node000015" class="edge">
<title>Node13&#45;&gt;Node15</title>
<g id="a_edge18_Node000013_Node000015"><a xlink:title=" ">
<path fill="none" stroke="#63b8ff" d="M638.72,-182.55C675.2,-173.3 730.6,-159.25 774.21,-148.19"/>
<polygon fill="#63b8ff" stroke="#63b8ff" points="775.01,-151.6 783.84,-145.75 773.29,-144.81 775.01,-151.6"/>
</a>
</g>
</g>
<!-- Node13&#45;&gt;Node18 -->
<g id="edge22_Node000013_Node000018" class="edge">
<title>Node13&#45;&gt;Node18</title>
<g id="a_edge22_Node000013_Node000018"><a xlink:title=" ">
<path fill="none" stroke="#63b8ff" d="M667.99,-188.08C747.14,-182.27 881.49,-169.9 995,-147 999.12,-146.17 1003.38,-145.17 1007.62,-144.09"/>
<polygon fill="#63b8ff" stroke="#63b8ff" points="1008.48,-147.48 1017.21,-141.47 1006.64,-140.73 1008.48,-147.48"/>
</a>
</g>
</g>
<!-- Node15&#45;&gt;Node4 -->
<g id="edge21_Node000015_Node000004" class="edge">
<title>Node15&#45;&gt;Node4</title>
<g id="a_edge21_Node000015_Node000004"><a xlink:title=" ">
<path fill="none" stroke="#63b8ff" d="M788.46,-113.03C755.2,-102.76 712.88,-89.7 682.48,-80.31"/>
<polygon fill="#63b8ff" stroke="#63b8ff" points="683.89,-77.09 673.3,-77.48 681.82,-83.77 683.89,-77.09"/>
</a>
</g>
</g>
<!-- Node16 -->
<g id="Node000016" class="node">
<title>Node16</title>
<g id="a_Node000016"><a xlink:title=" ">
<polygon fill="#e0e0e0" stroke="#999999" points="787.88,-77.5 738.12,-77.5 738.12,-56.75 787.88,-56.75 787.88,-77.5"/>
<text text-anchor="middle" x="763" y="-64" font-family="Helvetica,sans-Serif" font-size="10.00">atomic</text>
</a>
</g>
</g>
<!-- Node15&#45;&gt;Node16 -->
<g id="edge19_Node000015_Node000016" class="edge">
<title>Node15&#45;&gt;Node16</title>
<g id="a_edge19_Node000015_Node000016"><a xlink:title=" ">
<path fill="none" stroke="#63b8ff" d="M820.51,-113.19C809.36,-104.46 795.6,-93.67 784.33,-84.84"/>
<polygon fill="#63b8ff" stroke="#63b8ff" points="786.78,-82.31 776.75,-78.9 782.46,-87.82 786.78,-82.31"/>
</a>
</g>
</g>
<!-- Node17 -->
<g id="Node000017" class="node">
<title>Node17</title>
<g id="a_Node000017"><a xlink:title=" ">
<polygon fill="#e0e0e0" stroke="#999999" points="865.75,-77.5 806.25,-77.5 806.25,-56.75 865.75,-56.75 865.75,-77.5"/>
<text text-anchor="middle" x="836" y="-64" font-family="Helvetica,sans-Serif" font-size="10.00">iostream</text>
</a>
</g>
</g>
<!-- Node15&#45;&gt;Node17 -->
<g id="edge20_Node000015_Node000017" class="edge">
<title>Node15&#45;&gt;Node17</title>
<g id="a_edge20_Node000015_Node000017"><a xlink:title=" ">
<path fill="none" stroke="#63b8ff" d="M839.69,-113.19C839.09,-105.85 838.37,-97.07 837.72,-89.21"/>
<polygon fill="#63b8ff" stroke="#63b8ff" points="841.23,-89.16 836.93,-79.48 834.26,-89.73 841.23,-89.16"/>
</a>
</g>
</g>
<!-- Node18&#45;&gt;Node4 -->
<g id="edge25_Node000018_Node000004" class="edge">
<title>Node18&#45;&gt;Node4</title>
<g id="a_edge25_Node000018_Node000004"><a xlink:title=" ">
<path fill="none" stroke="#63b8ff" d="M1018.37,-119.42C1010.79,-117.24 1002.65,-115.1 995,-113.5 936.08,-101.19 762.04,-81.24 682.94,-72.48"/>
<polygon fill="#63b8ff" stroke="#63b8ff" points="683.81,-69.06 673.49,-71.44 683.04,-76.01 683.81,-69.06"/>
</a>
</g>
</g>
<!-- Node18&#45;&gt;Node10 -->
<g id="edge23_Node000018_Node000010" class="edge">
<title>Node18&#45;&gt;Node10</title>
<g id="a_edge23_Node000018_Node000010"><a xlink:title=" ">
<path fill="none" stroke="#63b8ff" d="M1047.78,-119.4C1045.69,-104.99 1040.61,-77.63 1030,-56.75 1024.97,-46.85 1017.49,-37.14 1010.58,-29.25"/>
<polygon fill="#63b8ff" stroke="#63b8ff" points="1013.28,-27.02 1003.92,-22.05 1008.14,-31.77 1013.28,-27.02"/>
</a>
</g>
</g>
<!-- Node18&#45;&gt;Node12 -->
<g id="edge24_Node000018_Node000012" class="edge">
<title>Node18&#45;&gt;Node12</title>
<g id="a_edge24_Node000018_Node000012"><a xlink:title=" ">
<path fill="none" stroke="#63b8ff" d="M1044.33,-119.41C1036.55,-104.01 1019.55,-74.18 997,-56.75 976.7,-41.07 950.34,-30.25 927.69,-23.12"/>
<polygon fill="#63b8ff" stroke="#63b8ff" points="928.94,-19.84 918.36,-20.34 926.94,-26.55 928.94,-19.84"/>
</a>
</g>
</g>
<!-- Node19 -->
<g id="Node000019" class="node">
<title>Node19</title>
<g id="a_Node000019"><a xlink:href="IVolumeBuilder_8hh.html" target="_top" xlink:title="Created by.">
<polygon fill="white" stroke="#666666" points="988.25,-77.5 883.75,-77.5 883.75,-56.75 988.25,-56.75 988.25,-77.5"/>
<text text-anchor="middle" x="936" y="-64" font-family="Helvetica,sans-Serif" font-size="10.00">IVolumeBuilder.hh</text>
</a>
</g>
</g>
<!-- Node18&#45;&gt;Node19 -->
<g id="edge26_Node000018_Node000019" class="edge">
<title>Node18&#45;&gt;Node19</title>
<g id="a_edge26_Node000018_Node000019"><a xlink:title=" ">
<path fill="none" stroke="#63b8ff" d="M1030.84,-119.43C1012.81,-109.67 984.89,-94.57 964.01,-83.28"/>
<polygon fill="#63b8ff" stroke="#63b8ff" points="965.9,-80.32 955.44,-78.64 962.57,-86.48 965.9,-80.32"/>
</a>
</g>
</g>
<!-- Node19&#45;&gt;Node10 -->
<g id="edge27_Node000019_Node000010" class="edge">
<title>Node19&#45;&gt;Node10</title>
<g id="a_edge27_Node000019_Node000010"><a xlink:title=" ">
<path fill="none" stroke="#63b8ff" d="M946.19,-56.34C954.13,-48.71 965.37,-37.92 974.84,-28.82"/>
<polygon fill="#63b8ff" stroke="#63b8ff" points="977.02,-31.58 981.81,-22.13 972.17,-26.53 977.02,-31.58"/>
</a>
</g>
</g>
<!-- Node19&#45;&gt;Node11 -->
<g id="edge28_Node000019_Node000011" class="edge">
<title>Node19&#45;&gt;Node11</title>
<g id="a_edge28_Node000019_Node000011"><a xlink:title=" ">
<path fill="none" stroke="#63b8ff" d="M883.46,-57.8C880.6,-57.43 877.77,-57.07 875,-56.75 694.35,-35.64 480.05,-21.36 374.85,-15.05"/>
<polygon fill="#63b8ff" stroke="#63b8ff" points="375.19,-11.57 365,-14.47 374.77,-18.55 375.19,-11.57"/>
</a>
</g>
</g>
<!-- Node19&#45;&gt;Node12 -->
<g id="edge29_Node000019_Node000012" class="edge">
<title>Node19&#45;&gt;Node12</title>
<g id="a_edge29_Node000019_Node000012"><a xlink:title=" ">
<path fill="none" stroke="#63b8ff" d="M925.81,-56.34C917.87,-48.71 906.63,-37.92 897.16,-28.82"/>
<polygon fill="#63b8ff" stroke="#63b8ff" points="899.83,-26.53 890.19,-22.13 894.98,-31.58 899.83,-26.53"/>
</a>
</g>
</g>
<!-- Node20&#45;&gt;Node2 -->
<g id="edge36_Node000020_Node000002" class="edge">
<title>Node20&#45;&gt;Node2</title>
<g id="a_edge36_Node000020_Node000002"><a xlink:title=" ">
<path fill="none" stroke="#63b8ff" d="M776.5,-182.55C723.15,-170.78 634.57,-151.24 583.54,-139.97"/>
<polygon fill="#63b8ff" stroke="#63b8ff" points="584.32,-136.56 573.8,-137.83 582.81,-143.4 584.32,-136.56"/>
</a>
</g>
</g>
<!-- Node20&#45;&gt;Node4 -->
<g id="edge35_Node000020_Node000004" class="edge">
<title>Node20&#45;&gt;Node4</title>
<g id="a_edge35_Node000020_Node000004"><a xlink:title=" ">
<path fill="none" stroke="#63b8ff" d="M811.68,-182.65C793.73,-164.07 754.77,-124.38 739,-113.5 720.73,-100.9 698.42,-90.12 679.9,-82.23"/>
<polygon fill="#63b8ff" stroke="#63b8ff" points="681.48,-79.09 670.9,-78.51 678.8,-85.56 681.48,-79.09"/>
</a>
</g>
</g>
<!-- Node20&#45;&gt;Node8 -->
<g id="edge37_Node000020_Node000008" class="edge">
<title>Node20&#45;&gt;Node8</title>
<g id="a_edge37_Node000020_Node000008"><a xlink:title=" ">
<path fill="none" stroke="#63b8ff" d="M751.64,-188.61C687.09,-183.64 588.81,-172.35 507,-147 505.64,-146.58 504.26,-146.1 502.88,-145.59"/>
<polygon fill="#63b8ff" stroke="#63b8ff" points="504.49,-142.47 493.92,-141.71 501.7,-148.89 504.49,-142.47"/>
</a>
</g>
</g>
<!-- Node20&#45;&gt;Node14 -->
<g id="edge32_Node000020_Node000014" class="edge">
<title>Node20&#45;&gt;Node14</title>
<g id="a_edge32_Node000020_Node000014"><a xlink:title=" ">
<path fill="none" stroke="#63b8ff" d="M798.19,-182.55C774.9,-172.53 738.51,-156.87 712.06,-145.48"/>
<polygon fill="#63b8ff" stroke="#63b8ff" points="713.72,-142.38 703.15,-141.64 710.95,-148.81 713.72,-142.38"/>
</a>
</g>
</g>
<!-- Node20&#45;&gt;Node15 -->
<g id="edge39_Node000020_Node000015" class="edge">
<title>Node20&#45;&gt;Node15</title>
<g id="a_edge39_Node000020_Node000015"><a xlink:title=" ">
<path fill="none" stroke="#63b8ff" d="M824.21,-182.55C826.36,-175.98 829.31,-166.99 832.13,-158.37"/>
<polygon fill="#63b8ff" stroke="#63b8ff" points="835.43,-159.52 835.22,-148.92 828.78,-157.34 835.43,-159.52"/>
</a>
</g>
</g>
<!-- Node20&#45;&gt;Node18 -->
<g id="edge40_Node000020_Node000018" class="edge">
<title>Node20&#45;&gt;Node18</title>
<g id="a_edge40_Node000020_Node000018"><a xlink:title=" ">
<path fill="none" stroke="#63b8ff" d="M860.13,-182.51C895.45,-173.53 948.81,-159.76 995,-147 998.28,-146.09 1001.67,-145.14 1005.08,-144.17"/>
<polygon fill="#63b8ff" stroke="#63b8ff" points="1005.82,-147.6 1014.46,-141.48 1003.88,-140.88 1005.82,-147.6"/>
</a>
</g>
</g>
<!-- Node20&#45;&gt;Node21 -->
<g id="edge31_Node000020_Node000021" class="edge">
<title>Node20&#45;&gt;Node21</title>
<g id="a_edge31_Node000020_Node000021"><a xlink:title=" ">
<path fill="none" stroke="#63b8ff" d="M890.59,-192.66C1001.45,-191.85 1224.49,-185.06 1409,-147 1412.36,-146.31 1415.82,-145.43 1419.25,-144.46"/>
<polygon fill="#63b8ff" stroke="#63b8ff" points="1420.07,-147.87 1428.57,-141.54 1417.98,-141.19 1420.07,-147.87"/>
</a>
</g>
</g>
<!-- Node22 -->
<g id="Node000022" class="node">
<title>Node22</title>
<g id="a_Node000022"><a xlink:title=" ">
<polygon fill="#e0e0e0" stroke="#999999" points="986.12,-140.62 913.88,-140.62 913.88,-119.88 986.12,-119.88 986.12,-140.62"/>
<text text-anchor="middle" x="950" y="-127.12" font-family="Helvetica,sans-Serif" font-size="10.00">G4Types.hh</text>
</a>
</g>
</g>
<!-- Node20&#45;&gt;Node22 -->
<g id="edge33_Node000020_Node000022" class="edge">
<title>Node20&#45;&gt;Node22</title>
<g id="a_edge33_Node000020_Node000022"><a xlink:title=" ">
<path fill="none" stroke="#63b8ff" d="M841.73,-182.55C862.6,-172.66 895.06,-157.28 919,-145.94"/>
<polygon fill="#63b8ff" stroke="#63b8ff" points="920.42,-149.14 927.96,-141.69 917.42,-142.81 920.42,-149.14"/>
</a>
</g>
</g>
<!-- Node23 -->
<g id="Node000023" class="node">
<title>Node23</title>
<g id="a_Node000023"><a xlink:title=" ">
<polygon fill="#e0e0e0" stroke="#999999" points="1219.75,-140.62 1112.25,-140.62 1112.25,-119.88 1219.75,-119.88 1219.75,-140.62"/>
<text text-anchor="middle" x="1166" y="-127.12" font-family="Helvetica,sans-Serif" font-size="10.00">G4VisAttributes.hh</text>
</a>
</g>
</g>
<!-- Node20&#45;&gt;Node23 -->
<g id="edge34_Node000020_Node000023" class="edge">
<title>Node20&#45;&gt;Node23</title>
<g id="a_edge34_Node000020_Node000023"><a xlink:title=" ">
<path fill="none" stroke="#63b8ff" d="M890.55,-182.87C947.81,-174.65 1030.98,-161.77 1103,-147 1107.85,-146 1112.9,-144.89 1117.92,-143.72"/>
<polygon fill="#63b8ff" stroke="#63b8ff" points="1118.43,-147.2 1127.34,-141.46 1116.8,-140.39 1118.43,-147.2"/>
</a>
</g>
</g>
<!-- Node24 -->
<g id="Node000024" class="node">
<title>Node24</title>
<g id="a_Node000024"><a xlink:title=" ">
<polygon fill="#e0e0e0" stroke="#999999" points="1399.75,-140.62 1238.25,-140.62 1238.25,-119.88 1399.75,-119.88 1399.75,-140.62"/>
<text text-anchor="middle" x="1319" y="-127.12" font-family="Helvetica,sans-Serif" font-size="10.00">CLHEP/Units/SystemOfUnits.h</text>
</a>
</g>
</g>
<!-- Node20&#45;&gt;Node24 -->
<g id="edge38_Node000020_Node000024" class="edge">
<title>Node20&#45;&gt;Node24</title>
<g id="a_edge38_Node000020_Node000024"><a xlink:title=" ">
<path fill="none" stroke="#63b8ff" d="M890.47,-185.98C971.8,-178.19 1110.47,-163.95 1229,-147 1237.41,-145.8 1246.23,-144.41 1254.94,-142.97"/>
<polygon fill="#63b8ff" stroke="#63b8ff" points="1255.5,-146.42 1264.77,-141.3 1254.33,-139.52 1255.5,-146.42"/>
</a>
</g>
</g>
<!-- Node26&#45;&gt;Node13 -->
<g id="edge52_Node000026_Node000013" class="edge">
<title>Node26&#45;&gt;Node13</title>
<g id="a_edge52_Node000026_Node000013"><a xlink:title=" ">
<path fill="none" stroke="#63b8ff" d="M586.04,-239.34C588.14,-232.56 591.02,-223.3 593.61,-214.94"/>
<polygon fill="#63b8ff" stroke="#63b8ff" points="596.92,-216.11 596.54,-205.52 590.23,-214.04 596.92,-216.11"/>
</a>
</g>
</g>
</g>
</svg>
