<?xml version="1.0" encoding="UTF-8" standalone="no"?>
<!DOCTYPE svg PUBLIC "-//W3C//DTD SVG 1.1//EN"
 "http://www.w3.org/Graphics/SVG/1.1/DTD/svg11.dtd">
<!-- Generated by graphviz version 12.0.0 (20240803.0821)
 -->
<!-- Title: include/StructureBuilderBase.hh Pages: 1 -->
<svg width="1702pt" height="364pt"
 viewBox="0.00 0.00 1702.16 363.50" xmlns="http://www.w3.org/2000/svg" xmlns:xlink="http://www.w3.org/1999/xlink">
<g id="graph0" class="graph" transform="scale(1 1) rotate(0) translate(4 359.5)">
<title>include/StructureBuilderBase.hh</title>
<!-- Node1 -->
<g id="Node000001" class="node">
<title>Node1</title>
<g id="a_Node000001"><a xlink:title=" ">
<polygon fill="#999999" stroke="#666666" points="1184.78,-355.5 1051.78,-355.5 1051.78,-322 1184.78,-322 1184.78,-355.5"/>
<text text-anchor="start" x="1059.78" y="-342" font-family="Helvetica,sans-Serif" font-size="10.00">include/StructureBuilder</text>
<text text-anchor="middle" x="1118.28" y="-329.25" font-family="Helvetica,sans-Serif" font-size="10.00">Base.hh</text>
</a>
</g>
</g>
<!-- Node2 -->
<g id="Node000002" class="node">
<title>Node2</title>
<g id="a_Node000002"><a xlink:href="AssemblyCore_8hh.html" target="_top" xlink:title=" ">
<polygon fill="white" stroke="#666666" points="476.16,-286 336.41,-286 336.41,-265.25 476.16,-265.25 476.16,-286"/>
<text text-anchor="middle" x="406.28" y="-272.5" font-family="Helvetica,sans-Serif" font-size="10.00">include/AssemblyCore.hh</text>
</a>
</g>
</g>
<!-- Node1&#45;&gt;Node2 -->
<g id="edge1_Node000001_Node000002" class="edge">
<title>Node1&#45;&gt;Node2</title>
<g id="a_edge1_Node000001_Node000002"><a xlink:title=" ">
<path fill="none" stroke="#63b8ff" d="M1039.88,-331.02C900.12,-319.02 610.12,-294.12 476.49,-282.65"/>
<polygon fill="#63b8ff" stroke="#63b8ff" points="1039.53,-334.5 1049.79,-331.87 1040.13,-327.53 1039.53,-334.5"/>
</a>
</g>
</g>
<!-- Node5 -->
<g id="Node000005" class="node">
<title>Node5</title>
<g id="a_Node000005"><a xlink:href="VolumeBuilders_8hh.html" target="_top" xlink:title=" ">
<polygon fill="white" stroke="#666666" points="1400.16,-90.25 1254.41,-90.25 1254.41,-69.5 1400.16,-69.5 1400.16,-90.25"/>
<text text-anchor="middle" x="1327.28" y="-76.75" font-family="Helvetica,sans-Serif" font-size="10.00">include/VolumeBuilders.hh</text>
</a>
</g>
</g>
<!-- Node1&#45;&gt;Node5 -->
<g id="edge54_Node000001_Node000005" class="edge">
<title>Node1&#45;&gt;Node5</title>
<g id="a_edge54_Node000001_Node000005"><a xlink:title=" ">
<path fill="none" stroke="#63b8ff" d="M1176.91,-317.55C1240.86,-291.98 1339.89,-241.18 1383.28,-159.75 1390.29,-146.61 1389.69,-139.69 1383.28,-126.25 1375.74,-110.44 1359.7,-98.35 1346.71,-90.64"/>
<polygon fill="#63b8ff" stroke="#63b8ff" points="1176.03,-314.13 1167.98,-321.03 1178.57,-320.65 1176.03,-314.13"/>
</a>
</g>
</g>
<!-- Node12 -->
<g id="Node000012" class="node">
<title>Node12</title>
<g id="a_Node000012"><a xlink:href="VolumeBuilderBase_8cc.html" target="_top" xlink:title=" ">
<polygon fill="white" stroke="#666666" points="779.28,-27.12 637.28,-27.12 637.28,-6.38 779.28,-6.38 779.28,-27.12"/>
<text text-anchor="middle" x="708.28" y="-13.62" font-family="Helvetica,sans-Serif" font-size="10.00">src/VolumeBuilderBase.cc</text>
</a>
</g>
</g>
<!-- Node1&#45;&gt;Node12 -->
<g id="edge58_Node000001_Node000012" class="edge">
<title>Node1&#45;&gt;Node12</title>
<g id="a_edge58_Node000001_Node000012"><a xlink:title=" ">
<path fill="none" stroke="#63b8ff" d="M1196.32,-332.07C1324.18,-320.59 1564.28,-288.99 1564.28,-213.5 1564.28,-213.5 1564.28,-213.5 1564.28,-142 1564.28,-108.69 1571.01,-90.65 1545.28,-69.5 1541.6,-66.47 981.4,-33.63 779.65,-21.89"/>
<polygon fill="#63b8ff" stroke="#63b8ff" points="1196.22,-328.56 1186.56,-332.92 1196.83,-335.54 1196.22,-328.56"/>
</a>
</g>
</g>
<!-- Node14 -->
<g id="Node000014" class="node">
<title>Node14</title>
<g id="a_Node000014"><a xlink:href="FromG4VSolidCore_8cc.html" target="_top" xlink:title=" ">
<polygon fill="white" stroke="#666666" points="165.41,-90.25 27.16,-90.25 27.16,-69.5 165.41,-69.5 165.41,-90.25"/>
<text text-anchor="middle" x="96.28" y="-76.75" font-family="Helvetica,sans-Serif" font-size="10.00">src/FromG4VSolidCore.cc</text>
</a>
</g>
</g>
<!-- Node1&#45;&gt;Node14 -->
<g id="edge55_Node000001_Node000014" class="edge">
<title>Node1&#45;&gt;Node14</title>
<g id="a_edge55_Node000001_Node000014"><a xlink:title=" ">
<path fill="none" stroke="#63b8ff" d="M1039.84,-335.03C867.87,-328.67 462.3,-311.43 327.28,-286 245.27,-270.55 216.54,-277.28 148.28,-229.25 116.51,-206.9 107.71,-196.55 95.28,-159.75 87.26,-136.01 91.22,-105.9 94.13,-90.67"/>
<polygon fill="#63b8ff" stroke="#63b8ff" points="1039.68,-338.53 1049.8,-335.39 1039.94,-331.53 1039.68,-338.53"/>
</a>
</g>
</g>
<!-- Node16 -->
<g id="Node000016" class="node">
<title>Node16</title>
<g id="a_Node000016"><a xlink:href="RZBuilderCore_8cc.html" target="_top" xlink:title=" ">
<polygon fill="white" stroke="#666666" points="1535.91,-90.25 1418.66,-90.25 1418.66,-69.5 1535.91,-69.5 1535.91,-90.25"/>
<text text-anchor="middle" x="1477.28" y="-76.75" font-family="Helvetica,sans-Serif" font-size="10.00">src/RZBuilderCore.cc</text>
</a>
</g>
</g>
<!-- Node1&#45;&gt;Node16 -->
<g id="edge56_Node000001_Node000016" class="edge">
<title>Node1&#45;&gt;Node16</title>
<g id="a_edge56_Node000001_Node000016"><a xlink:title=" ">
<path fill="none" stroke="#63b8ff" d="M1191.1,-318.22C1217.91,-309.85 1248.1,-298.97 1274.28,-286 1314.32,-266.16 1324.44,-259.55 1357.28,-229.25 1407.2,-183.19 1454.12,-115.75 1470.84,-90.71"/>
<polygon fill="#63b8ff" stroke="#63b8ff" points="1190.22,-314.83 1181.68,-321.1 1192.27,-321.53 1190.22,-314.83"/>
</a>
</g>
</g>
<!-- Node20 -->
<g id="Node000020" class="node">
<title>Node20</title>
<g id="a_Node000020"><a xlink:href="StructureBuilderCore_8cc.html" target="_top" xlink:title="Created by.">
<polygon fill="white" stroke="#666666" points="1160.28,-90.25 1012.28,-90.25 1012.28,-69.5 1160.28,-69.5 1160.28,-90.25"/>
<text text-anchor="middle" x="1086.28" y="-76.75" font-family="Helvetica,sans-Serif" font-size="10.00">src/StructureBuilderCore.cc</text>
</a>
</g>
</g>
<!-- Node1&#45;&gt;Node20 -->
<g id="edge57_Node000001_Node000020" class="edge">
<title>Node1&#45;&gt;Node20</title>
<g id="a_edge57_Node000001_Node000020"><a xlink:title=" ">
<path fill="none" stroke="#63b8ff" d="M1120.14,-310.12C1122.16,-269.26 1123.22,-190.62 1107.28,-126.25 1104.07,-113.27 1097.12,-99.49 1092.1,-90.57"/>
<polygon fill="#63b8ff" stroke="#63b8ff" points="1116.65,-309.84 1119.59,-320.02 1123.64,-310.23 1116.65,-309.84"/>
</a>
</g>
</g>
<!-- Node22 -->
<g id="Node000022" class="node">
<title>Node22</title>
<g id="a_Node000022"><a xlink:href="StructureBuilderBase_8hpp.html" target="_top" xlink:title="Created by.">
<polygon fill="white" stroke="#666666" points="884.78,-159.75 751.78,-159.75 751.78,-126.25 884.78,-126.25 884.78,-159.75"/>
<text text-anchor="start" x="759.78" y="-146.25" font-family="Helvetica,sans-Serif" font-size="10.00">include/StructureBuilder</text>
<text text-anchor="middle" x="818.28" y="-133.5" font-family="Helvetica,sans-Serif" font-size="10.00">Base.hpp</text>
</a>
</g>
</g>
<!-- Node1&#45;&gt;Node22 -->
<g id="edge38_Node000001_Node000022" class="edge">
<title>Node1&#45;&gt;Node22</title>
<g id="a_edge38_Node000001_Node000022"><a xlink:title=" ">
<path fill="none" stroke="#63b8ff" d="M1082.13,-315.75C1046.77,-294.1 991.49,-259.92 944.28,-229.25 907.96,-205.65 866.47,-177.3 841.33,-159.97"/>
<polygon fill="#63b8ff" stroke="#63b8ff" points="1079.91,-318.49 1090.27,-320.72 1083.56,-312.52 1079.91,-318.49"/>
</a>
</g>
</g>
<!-- Node23 -->
<g id="Node000023" class="node">
<title>Node23</title>
<g id="a_Node000023"><a xlink:href="StructureBuilderCore_8hh.html" target="_top" xlink:title=" ">
<polygon fill="white" stroke="#666666" points="1085.78,-229.25 952.78,-229.25 952.78,-195.75 1085.78,-195.75 1085.78,-229.25"/>
<text text-anchor="start" x="960.78" y="-215.75" font-family="Helvetica,sans-Serif" font-size="10.00">include/StructureBuilder</text>
<text text-anchor="middle" x="1019.28" y="-203" font-family="Helvetica,sans-Serif" font-size="10.00">Core.hh</text>
</a>
</g>
</g>
<!-- Node1&#45;&gt;Node23 -->
<g id="edge47_Node000001_Node000023" class="edge">
<title>Node1&#45;&gt;Node23</title>
<g id="a_edge47_Node000001_Node000023"><a xlink:title=" ">
<path fill="none" stroke="#63b8ff" d="M1098.32,-312.69C1078.61,-287.96 1049.05,-250.86 1032.23,-229.75"/>
<polygon fill="#63b8ff" stroke="#63b8ff" points="1095.43,-314.68 1104.4,-320.32 1100.9,-310.32 1095.43,-314.68"/>
</a>
</g>
</g>
<!-- Node3 -->
<g id="Node000003" class="node">
<title>Node3</title>
<g id="a_Node000003"><a xlink:href="VolumeBuilderBase_8hh.html" target="_top" xlink:title=" ">
<polygon fill="white" stroke="#666666" points="543.53,-222.88 379.03,-222.88 379.03,-202.12 543.53,-202.12 543.53,-222.88"/>
<text text-anchor="middle" x="461.28" y="-209.38" font-family="Helvetica,sans-Serif" font-size="10.00">include/VolumeBuilderBase.hh</text>
</a>
</g>
</g>
<!-- Node2&#45;&gt;Node3 -->
<g id="edge2_Node000002_Node000003" class="edge">
<title>Node2&#45;&gt;Node3</title>
<g id="a_edge2_Node000002_Node000003"><a xlink:title=" ">
<path fill="none" stroke="#63b8ff" d="M422.71,-256.37C432.55,-245.44 444.65,-231.98 452.65,-223.09"/>
<polygon fill="#63b8ff" stroke="#63b8ff" points="420.22,-253.9 416.13,-263.68 425.42,-258.59 420.22,-253.9"/>
</a>
</g>
</g>
<!-- Node2&#45;&gt;Node5 -->
<g id="edge35_Node000002_Node000005" class="edge">
<title>Node2&#45;&gt;Node5</title>
<g id="a_edge35_Node000002_Node000005"><a xlink:title=" ">
<path fill="none" stroke="#63b8ff" d="M487.55,-274.11C616.96,-272.2 877.52,-263.94 1095.28,-229.25 1218.5,-209.62 1290.75,-258.3 1367.28,-159.75 1384.71,-137.32 1356.06,-106.12 1338.83,-90.53"/>
<polygon fill="#63b8ff" stroke="#63b8ff" points="487.66,-270.61 477.71,-274.24 487.75,-277.61 487.66,-270.61"/>
</a>
</g>
</g>
<!-- Node2&#45;&gt;Node12 -->
<g id="edge37_Node000002_Node000012" class="edge">
<title>Node2&#45;&gt;Node12</title>
<g id="a_edge37_Node000002_Node000012"><a xlink:title=" ">
<path fill="none" stroke="#63b8ff" d="M324.69,-273.44C271.63,-269.6 202.49,-258.61 148.28,-229.25 67.8,-185.65 -43.98,-136.6 18.28,-69.5 59.72,-24.84 468.82,-18.46 636.83,-17.74"/>
<polygon fill="#63b8ff" stroke="#63b8ff" points="324.38,-276.93 334.58,-274.08 324.83,-269.95 324.38,-276.93"/>
</a>
</g>
</g>
<!-- Node17 -->
<g id="Node000017" class="node">
<title>Node17</title>
<g id="a_Node000017"><a xlink:href="VolumeBuilderBase_8hpp.html" target="_top" xlink:title=" ">
<polygon fill="white" stroke="#666666" points="446.53,-90.25 276.03,-90.25 276.03,-69.5 446.53,-69.5 446.53,-90.25"/>
<text text-anchor="middle" x="361.28" y="-76.75" font-family="Helvetica,sans-Serif" font-size="10.00">include/VolumeBuilderBase.hpp</text>
</a>
</g>
</g>
<!-- Node2&#45;&gt;Node17 -->
<g id="edge34_Node000002_Node000017" class="edge">
<title>Node2&#45;&gt;Node17</title>
<g id="a_edge34_Node000002_Node000017"><a xlink:title=" ">
<path fill="none" stroke="#63b8ff" d="M324.86,-266.92C256.44,-255.67 162.63,-227.96 116.28,-159.75 74.66,-98.49 189.64,-83.49 275.88,-80.53"/>
<polygon fill="#63b8ff" stroke="#63b8ff" points="324.12,-270.35 334.54,-268.42 325.19,-263.43 324.12,-270.35"/>
</a>
</g>
</g>
<!-- Node19 -->
<g id="Node000019" class="node">
<title>Node19</title>
<g id="a_Node000019"><a xlink:href="AssemblyCore_8cc.html" target="_top" xlink:title="Created by.">
<polygon fill="white" stroke="#666666" points="581.91,-90.25 464.66,-90.25 464.66,-69.5 581.91,-69.5 581.91,-90.25"/>
<text text-anchor="middle" x="523.28" y="-76.75" font-family="Helvetica,sans-Serif" font-size="10.00">src/AssemblyCore.cc</text>
</a>
</g>
</g>
<!-- Node2&#45;&gt;Node19 -->
<g id="edge36_Node000002_Node000019" class="edge">
<title>Node2&#45;&gt;Node19</title>
<g id="a_edge36_Node000002_Node000019"><a xlink:title=" ">
<path fill="none" stroke="#63b8ff" d="M387.65,-256.91C380.8,-249.15 373.85,-239.49 370.28,-229.25 365.38,-215.19 363.63,-209.07 370.28,-195.75 397.23,-141.82 462.87,-106.62 498.8,-90.7"/>
<polygon fill="#63b8ff" stroke="#63b8ff" points="384.95,-259.15 394.39,-263.96 390.01,-254.31 384.95,-259.15"/>
</a>
</g>
</g>
<!-- Node4 -->
<g id="Node000004" class="node">
<title>Node4</title>
<g id="a_Node000004"><a xlink:href="BoxBuilderCore_8hh.html" target="_top" xlink:title=" ">
<polygon fill="white" stroke="#666666" points="1047.78,-153.38 902.78,-153.38 902.78,-132.62 1047.78,-132.62 1047.78,-153.38"/>
<text text-anchor="middle" x="975.28" y="-139.88" font-family="Helvetica,sans-Serif" font-size="10.00">include/BoxBuilderCore.hh</text>
</a>
</g>
</g>
<!-- Node3&#45;&gt;Node4 -->
<g id="edge3_Node000003_Node000004" class="edge">
<title>Node3&#45;&gt;Node4</title>
<g id="a_edge3_Node000003_Node000004"><a xlink:title=" ">
<path fill="none" stroke="#63b8ff" d="M555.01,-202.3C642.9,-193.19 777.84,-178 894.28,-159.75 905.18,-158.04 916.85,-155.94 927.84,-153.83"/>
<polygon fill="#63b8ff" stroke="#63b8ff" points="554.83,-198.8 545.24,-203.3 555.54,-205.76 554.83,-198.8"/>
</a>
</g>
</g>
<!-- Node3&#45;&gt;Node12 -->
<g id="edge32_Node000003_Node000012" class="edge">
<title>Node3&#45;&gt;Node12</title>
<g id="a_edge32_Node000003_Node000012"><a xlink:title=" ">
<path fill="none" stroke="#63b8ff" d="M430.03,-196.89C368.55,-167.21 240.07,-100.1 267.28,-69.5 291.4,-42.39 518.51,-27.17 637.04,-21.01"/>
<polygon fill="#63b8ff" stroke="#63b8ff" points="428.44,-200.01 438.97,-201.16 431.46,-193.69 428.44,-200.01"/>
</a>
</g>
</g>
<!-- Node13 -->
<g id="Node000013" class="node">
<title>Node13</title>
<g id="a_Node000013"><a xlink:href="FromG4VSolidCore_8hh.html" target="_top" xlink:title=" ">
<polygon fill="white" stroke="#666666" points="285.66,-153.38 124.91,-153.38 124.91,-132.62 285.66,-132.62 285.66,-153.38"/>
<text text-anchor="middle" x="205.28" y="-139.88" font-family="Helvetica,sans-Serif" font-size="10.00">include/FromG4VSolidCore.hh</text>
</a>
</g>
</g>
<!-- Node3&#45;&gt;Node13 -->
<g id="edge12_Node000003_Node000013" class="edge">
<title>Node3&#45;&gt;Node13</title>
<g id="a_edge12_Node000003_Node000013"><a xlink:title=" ">
<path fill="none" stroke="#63b8ff" d="M413,-198.77C363.51,-185.72 287.6,-165.71 242.55,-153.83"/>
<polygon fill="#63b8ff" stroke="#63b8ff" points="412.03,-202.13 422.59,-201.3 413.82,-195.37 412.03,-202.13"/>
</a>
</g>
</g>
<!-- Node3&#45;&gt;Node14 -->
<g id="edge30_Node000003_Node000014" class="edge">
<title>Node3&#45;&gt;Node14</title>
<g id="a_edge30_Node000003_Node000014"><a xlink:title=" ">
<path fill="none" stroke="#63b8ff" d="M367.53,-208.86C278.23,-204.37 152.24,-192.3 116.28,-159.75 96.49,-141.83 95.02,-107.38 95.61,-90.57"/>
<polygon fill="#63b8ff" stroke="#63b8ff" points="367.11,-212.34 377.26,-209.32 367.44,-205.35 367.11,-212.34"/>
</a>
</g>
</g>
<!-- Node15 -->
<g id="Node000015" class="node">
<title>Node15</title>
<g id="a_Node000015"><a xlink:href="RZBuilderCore_8hh.html" target="_top" xlink:title=" ">
<polygon fill="white" stroke="#666666" points="1358.16,-153.38 1218.41,-153.38 1218.41,-132.62 1358.16,-132.62 1358.16,-153.38"/>
<text text-anchor="middle" x="1288.28" y="-139.88" font-family="Helvetica,sans-Serif" font-size="10.00">include/RZBuilderCore.hh</text>
</a>
</g>
</g>
<!-- Node3&#45;&gt;Node15 -->
<g id="edge16_Node000003_Node000015" class="edge">
<title>Node3&#45;&gt;Node15</title>
<g id="a_edge16_Node000003_Node000015"><a xlink:title=" ">
<path fill="none" stroke="#63b8ff" d="M555.24,-203.83C722.72,-190.16 1069.21,-161.88 1217.95,-149.74"/>
<polygon fill="#63b8ff" stroke="#63b8ff" points="555.17,-200.32 545.49,-204.63 555.74,-207.3 555.17,-200.32"/>
</a>
</g>
</g>
<!-- Node3&#45;&gt;Node17 -->
<g id="edge20_Node000003_Node000017" class="edge">
<title>Node3&#45;&gt;Node17</title>
<g id="a_edge20_Node000003_Node000017"><a xlink:title=" ">
<path fill="none" stroke="#63b8ff" d="M446.96,-192.79C425.33,-164.53 385.1,-111.98 368.61,-90.45"/>
<polygon fill="#63b8ff" stroke="#63b8ff" points="443.99,-194.67 452.85,-200.48 449.55,-190.41 443.99,-194.67"/>
</a>
</g>
</g>
<!-- Node18 -->
<g id="Node000018" class="node">
<title>Node18</title>
<g id="a_Node000018"><a xlink:href="VolumeBuilderCore_8hh.html" target="_top" xlink:title=" ">
<polygon fill="white" stroke="#666666" points="656.78,-153.38 493.78,-153.38 493.78,-132.62 656.78,-132.62 656.78,-153.38"/>
<text text-anchor="middle" x="575.28" y="-139.88" font-family="Helvetica,sans-Serif" font-size="10.00">include/VolumeBuilderCore.hh</text>
</a>
</g>
</g>
<!-- Node3&#45;&gt;Node18 -->
<g id="edge22_Node000003_Node000018" class="edge">
<title>Node3&#45;&gt;Node18</title>
<g id="a_edge22_Node000003_Node000018"><a xlink:title=" ">
<path fill="none" stroke="#63b8ff" d="M487.28,-196.11C509.18,-183.14 539.86,-164.97 558.61,-153.87"/>
<polygon fill="#63b8ff" stroke="#63b8ff" points="485.74,-192.95 478.92,-201.06 489.31,-198.97 485.74,-192.95"/>
</a>
</g>
</g>
<!-- Node3&#45;&gt;Node19 -->
<g id="edge29_Node000003_Node000019" class="edge">
<title>Node3&#45;&gt;Node19</title>
<g id="a_edge29_Node000003_Node000019"><a xlink:title=" ">
<path fill="none" stroke="#63b8ff" d="M464.24,-190.64C467.38,-172.76 473.44,-146.74 484.28,-126.25 491.57,-112.48 503.71,-99.27 512.51,-90.69"/>
<polygon fill="#63b8ff" stroke="#63b8ff" points="460.82,-189.86 462.71,-200.29 467.73,-190.96 460.82,-189.86"/>
</a>
</g>
</g>
<!-- Node3&#45;&gt;Node20 -->
<g id="edge31_Node000003_Node000020" class="edge">
<title>Node3&#45;&gt;Node20</title>
<g id="a_edge31_Node000003_Node000020"><a xlink:title=" ">
<path fill="none" stroke="#63b8ff" d="M555.07,-208.82C712.92,-203.51 1018.35,-189.5 1057.28,-159.75 1079.31,-142.92 1084.61,-107.62 1085.89,-90.54"/>
<polygon fill="#63b8ff" stroke="#63b8ff" points="555.36,-205.31 545.48,-209.14 555.59,-212.31 555.36,-205.31"/>
</a>
</g>
</g>
<!-- Node21 -->
<g id="Node000021" class="node">
<title>Node21</title>
<g id="a_Node000021"><a xlink:href="VolumeBuilderCore_8cc.html" target="_top" xlink:title="Created by.">
<polygon fill="white" stroke="#666666" points="778.53,-90.25 638.03,-90.25 638.03,-69.5 778.53,-69.5 778.53,-90.25"/>
<text text-anchor="middle" x="708.28" y="-76.75" font-family="Helvetica,sans-Serif" font-size="10.00">src/VolumeBuilderCore.cc</text>
</a>
</g>
</g>
<!-- Node3&#45;&gt;Node21 -->
<g id="edge33_Node000003_Node000021" class="edge">
<title>Node3&#45;&gt;Node21</title>
<g id="a_edge33_Node000003_Node000021"><a xlink:title=" ">
<path fill="none" stroke="#63b8ff" d="M554.95,-204.02C592.35,-197.12 633.89,-184.12 665.28,-159.75 688.57,-141.68 700.91,-107.3 705.77,-90.54"/>
<polygon fill="#63b8ff" stroke="#63b8ff" points="554.77,-200.5 545.5,-205.63 555.95,-207.4 554.77,-200.5"/>
</a>
</g>
</g>
<!-- Node4&#45;&gt;Node5 -->
<g id="edge4_Node000004_Node000005" class="edge">
<title>Node4&#45;&gt;Node5</title>
<g id="a_edge4_Node000004_Node000005"><a xlink:title=" ">
<path fill="none" stroke="#63b8ff" d="M1042.96,-130.25C1109.06,-118.77 1208.51,-101.5 1270.58,-90.72"/>
<polygon fill="#63b8ff" stroke="#63b8ff" points="1042.58,-126.76 1033.33,-131.92 1043.78,-133.66 1042.58,-126.76"/>
</a>
</g>
</g>
<!-- Node11 -->
<g id="Node000011" class="node">
<title>Node11</title>
<g id="a_Node000011"><a xlink:href="BoxBuilderCore_8cc.html" target="_top" xlink:title=" ">
<polygon fill="white" stroke="#666666" points="956.53,-90.25 834.03,-90.25 834.03,-69.5 956.53,-69.5 956.53,-90.25"/>
<text text-anchor="middle" x="895.28" y="-76.75" font-family="Helvetica,sans-Serif" font-size="10.00">src/BoxBuilderCore.cc</text>
</a>
</g>
</g>
<!-- Node4&#45;&gt;Node11 -->
<g id="edge10_Node000004_Node000011" class="edge">
<title>Node4&#45;&gt;Node11</title>
<g id="a_edge10_Node000004_Node000011"><a xlink:title=" ">
<path fill="none" stroke="#63b8ff" d="M953.57,-125.41C939.01,-114.29 920.34,-100.02 908.1,-90.67"/>
<polygon fill="#63b8ff" stroke="#63b8ff" points="951.16,-127.97 961.23,-131.26 955.41,-122.41 951.16,-127.97"/>
</a>
</g>
</g>
<!-- Node4&#45;&gt;Node12 -->
<g id="edge11_Node000004_Node000012" class="edge">
<title>Node4&#45;&gt;Node12</title>
<g id="a_edge11_Node000004_Node000012"><a xlink:title=" ">
<path fill="none" stroke="#63b8ff" d="M978.32,-121.56C979.5,-105.36 978.18,-83.22 965.28,-69.5 940.42,-43.06 846.77,-29.47 779.71,-22.99"/>
<polygon fill="#63b8ff" stroke="#63b8ff" points="974.89,-120.73 977.25,-131.06 981.85,-121.51 974.89,-120.73"/>
</a>
</g>
</g>
<!-- Node6 -->
<g id="Node000006" class="node">
<title>Node6</title>
<g id="a_Node000006"><a xlink:href="ConstructAssembly_8cc.html" target="_top" xlink:title="Created by.">
<polygon fill="white" stroke="#666666" points="1390.03,-33.5 1264.53,-33.5 1264.53,0 1390.03,0 1390.03,-33.5"/>
<text text-anchor="start" x="1272.53" y="-20" font-family="Helvetica,sans-Serif" font-size="10.00">demo/src/Geometries</text>
<text text-anchor="middle" x="1327.28" y="-7.25" font-family="Helvetica,sans-Serif" font-size="10.00">/ConstructAssembly.cc</text>
</a>
</g>
</g>
<!-- Node5&#45;&gt;Node6 -->
<g id="edge5_Node000005_Node000006" class="edge">
<title>Node5&#45;&gt;Node6</title>
<g id="a_edge5_Node000005_Node000006"><a xlink:title=" ">
<path fill="none" stroke="#63b8ff" d="M1327.28,-57.59C1327.28,-49.85 1327.28,-41.22 1327.28,-33.98"/>
<polygon fill="#63b8ff" stroke="#63b8ff" points="1323.78,-57.54 1327.28,-67.54 1330.78,-57.54 1323.78,-57.54"/>
</a>
</g>
</g>
<!-- Node7 -->
<g id="Node000007" class="node">
<title>Node7</title>
<g id="a_Node000007"><a xlink:href="ConstructBoxExample_8cc.html" target="_top" xlink:title="Created by.">
<polygon fill="white" stroke="#666666" points="1548.53,-33.5 1408.03,-33.5 1408.03,0 1548.53,0 1548.53,-33.5"/>
<text text-anchor="start" x="1416.03" y="-20" font-family="Helvetica,sans-Serif" font-size="10.00">demo/src/Geometries</text>
<text text-anchor="middle" x="1478.28" y="-7.25" font-family="Helvetica,sans-Serif" font-size="10.00">/ConstructBoxExample.cc</text>
</a>
</g>
</g>
<!-- Node5&#45;&gt;Node7 -->
<g id="edge6_Node000005_Node000007" class="edge">
<title>Node5&#45;&gt;Node7</title>
<g id="a_edge6_Node000005_Node000007"><a xlink:title=" ">
<path fill="none" stroke="#63b8ff" d="M1362.07,-64.79C1384.77,-55.6 1414.48,-43.58 1438.18,-33.98"/>
<polygon fill="#63b8ff" stroke="#63b8ff" points="1360.9,-61.49 1352.95,-68.49 1363.53,-67.98 1360.9,-61.49"/>
</a>
</g>
</g>
<!-- Node8 -->
<g id="Node000008" class="node">
<title>Node8</title>
<g id="a_Node000008"><a xlink:href="ConstructExample1_8cc.html" target="_top" xlink:title="Created by.">
<polygon fill="white" stroke="#666666" points="1694.16,-33.5 1566.41,-33.5 1566.41,0 1694.16,0 1694.16,-33.5"/>
<text text-anchor="start" x="1574.41" y="-20" font-family="Helvetica,sans-Serif" font-size="10.00">demo/src/Geometries</text>
<text text-anchor="middle" x="1630.28" y="-7.25" font-family="Helvetica,sans-Serif" font-size="10.00">/ConstructExample1.cc</text>
</a>
</g>
</g>
<!-- Node5&#45;&gt;Node8 -->
<g id="edge7_Node000005_Node000008" class="edge">
<title>Node5&#45;&gt;Node8</title>
<g id="a_edge7_Node000005_Node000008"><a xlink:title=" ">
<path fill="none" stroke="#63b8ff" d="M1389.56,-66.9C1435.86,-57.92 1500.58,-45.21 1557.28,-33.5 1560.2,-32.9 1563.19,-32.28 1566.2,-31.64"/>
<polygon fill="#63b8ff" stroke="#63b8ff" points="1389.13,-63.42 1379.98,-68.75 1390.46,-70.29 1389.13,-63.42"/>
</a>
</g>
</g>
<!-- Node9 -->
<g id="Node000009" class="node">
<title>Node9</title>
<g id="a_Node000009"><a xlink:href="ConstructHexPart_8cc.html" target="_top" xlink:title=" ">
<polygon fill="white" stroke="#666666" points="1107.78,-33.5 986.78,-33.5 986.78,0 1107.78,0 1107.78,-33.5"/>
<text text-anchor="start" x="994.78" y="-20" font-family="Helvetica,sans-Serif" font-size="10.00">demo/src/Geometries</text>
<text text-anchor="middle" x="1047.28" y="-7.25" font-family="Helvetica,sans-Serif" font-size="10.00">/ConstructHexPart.cc</text>
</a>
</g>
</g>
<!-- Node5&#45;&gt;Node9 -->
<g id="edge8_Node000005_Node000009" class="edge">
<title>Node5&#45;&gt;Node9</title>
<g id="a_edge8_Node000005_Node000009"><a xlink:title=" ">
<path fill="none" stroke="#63b8ff" d="M1270.2,-66.68C1227.95,-57.62 1169,-44.91 1117.28,-33.5 1114.24,-32.83 1111.13,-32.14 1107.98,-31.44"/>
<polygon fill="#63b8ff" stroke="#63b8ff" points="1269.39,-70.08 1279.9,-68.76 1270.85,-63.24 1269.39,-70.08"/>
</a>
</g>
</g>
<!-- Node10 -->
<g id="Node000010" class="node">
<title>Node10</title>
<g id="a_Node000010"><a xlink:href="ConstructWorld_8cc.html" target="_top" xlink:title=" ">
<polygon fill="white" stroke="#666666" points="1246.78,-33.5 1125.78,-33.5 1125.78,0 1246.78,0 1246.78,-33.5"/>
<text text-anchor="start" x="1133.78" y="-20" font-family="Helvetica,sans-Serif" font-size="10.00">demo/src/Geometries</text>
<text text-anchor="middle" x="1186.28" y="-7.25" font-family="Helvetica,sans-Serif" font-size="10.00">/ConstructWorld.cc</text>
</a>
</g>
</g>
<!-- Node5&#45;&gt;Node10 -->
<g id="edge9_Node000005_Node000010" class="edge">
<title>Node5&#45;&gt;Node10</title>
<g id="a_edge9_Node000005_Node000010"><a xlink:title=" ">
<path fill="none" stroke="#63b8ff" d="M1294.22,-64.54C1273.1,-55.39 1245.66,-43.49 1223.73,-33.98"/>
<polygon fill="#63b8ff" stroke="#63b8ff" points="1292.67,-67.69 1303.24,-68.45 1295.46,-61.26 1292.67,-67.69"/>
</a>
</g>
</g>
<!-- Node13&#45;&gt;Node5 -->
<g id="edge13_Node000013_Node000005" class="edge">
<title>Node13&#45;&gt;Node5</title>
<g id="a_edge13_Node000013_Node000005"><a xlink:title=" ">
<path fill="none" stroke="#63b8ff" d="M297.22,-136.72C351.62,-133.62 421.87,-129.65 484.28,-126.25 788.7,-109.66 864.89,-107.28 1169.28,-90.25 1196.99,-88.7 1227.43,-86.91 1254.13,-85.32"/>
<polygon fill="#63b8ff" stroke="#63b8ff" points="297.15,-133.22 287.37,-137.28 297.55,-140.21 297.15,-133.22"/>
</a>
</g>
</g>
<!-- Node13&#45;&gt;Node12 -->
<g id="edge15_Node000013_Node000012" class="edge">
<title>Node13&#45;&gt;Node12</title>
<g id="a_edge15_Node000013_Node000012"><a xlink:title=" ">
<path fill="none" stroke="#63b8ff" d="M207.72,-121.49C210.87,-104.72 218.04,-81.84 234.28,-69.5 295.92,-22.69 520.43,-16.65 636.98,-16.8"/>
<polygon fill="#63b8ff" stroke="#63b8ff" points="204.34,-120.47 206.3,-130.88 211.26,-121.52 204.34,-120.47"/>
</a>
</g>
</g>
<!-- Node13&#45;&gt;Node14 -->
<g id="edge14_Node000013_Node000014" class="edge">
<title>Node13&#45;&gt;Node14</title>
<g id="a_edge14_Node000013_Node000014"><a xlink:title=" ">
<path fill="none" stroke="#63b8ff" d="M177.94,-126.67C157.81,-115.38 131.06,-100.38 113.75,-90.67"/>
<polygon fill="#63b8ff" stroke="#63b8ff" points="176.02,-129.6 186.45,-131.44 179.44,-123.49 176.02,-129.6"/>
</a>
</g>
</g>
<!-- Node15&#45;&gt;Node5 -->
<g id="edge17_Node000015_Node000005" class="edge">
<title>Node15&#45;&gt;Node5</title>
<g id="a_edge17_Node000015_Node000005"><a xlink:title=" ">
<path fill="none" stroke="#63b8ff" d="M1300.56,-122.75C1307.42,-112.01 1315.66,-99.09 1321.16,-90.47"/>
<polygon fill="#63b8ff" stroke="#63b8ff" points="1297.79,-120.59 1295.36,-130.9 1303.69,-124.36 1297.79,-120.59"/>
</a>
</g>
</g>
<!-- Node15&#45;&gt;Node12 -->
<g id="edge19_Node000015_Node000012" class="edge">
<title>Node15&#45;&gt;Node12</title>
<g id="a_edge19_Node000015_Node000012"><a xlink:title=" ">
<path fill="none" stroke="#63b8ff" d="M1272.98,-123.98C1257.19,-106.76 1230.9,-81.68 1202.28,-69.5 1164.3,-53.33 906.71,-32.39 779.32,-22.87"/>
<polygon fill="#63b8ff" stroke="#63b8ff" points="1269.97,-125.87 1279.23,-131.02 1275.21,-121.22 1269.97,-125.87"/>
</a>
</g>
</g>
<!-- Node15&#45;&gt;Node16 -->
<g id="edge18_Node000015_Node000016" class="edge">
<title>Node15&#45;&gt;Node16</title>
<g id="a_edge18_Node000015_Node000016"><a xlink:title=" ">
<path fill="none" stroke="#63b8ff" d="M1329.59,-128.64C1365,-117.19 1415.2,-100.95 1446.99,-90.67"/>
<polygon fill="#63b8ff" stroke="#63b8ff" points="1328.53,-125.31 1320.09,-131.71 1330.68,-131.97 1328.53,-125.31"/>
</a>
</g>
</g>
<!-- Node17&#45;&gt;Node12 -->
<g id="edge21_Node000017_Node000012" class="edge">
<title>Node17&#45;&gt;Node12</title>
<g id="a_edge21_Node000017_Node000012"><a xlink:title=" ">
<path fill="none" stroke="#63b8ff" d="M428,-67.12C493.16,-55.64 591.2,-38.37 652.38,-27.6"/>
<polygon fill="#63b8ff" stroke="#63b8ff" points="427.77,-63.61 418.53,-68.79 428.98,-70.5 427.77,-63.61"/>
</a>
</g>
</g>
<!-- Node18&#45;&gt;Node5 -->
<g id="edge24_Node000018_Node000005" class="edge">
<title>Node18&#45;&gt;Node5</title>
<g id="a_edge24_Node000018_Node000005"><a xlink:title=" ">
<path fill="none" stroke="#63b8ff" d="M668.3,-133.01C692.69,-130.73 718.97,-128.33 743.28,-126.25 926.93,-110.51 1143.28,-94.31 1253.96,-86.2"/>
<polygon fill="#63b8ff" stroke="#63b8ff" points="668,-129.53 658.37,-133.95 668.65,-136.5 668,-129.53"/>
</a>
</g>
</g>
<!-- Node18&#45;&gt;Node12 -->
<g id="edge27_Node000018_Node000012" class="edge">
<title>Node18&#45;&gt;Node12</title>
<g id="a_edge27_Node000018_Node000012"><a xlink:title=" ">
<path fill="none" stroke="#63b8ff" d="M587,-122.64C596.99,-107.13 612.39,-85.41 629.28,-69.5 647.67,-52.19 672.52,-36.98 689.41,-27.61"/>
<polygon fill="#63b8ff" stroke="#63b8ff" points="584.14,-120.62 581.8,-130.95 590.07,-124.33 584.14,-120.62"/>
</a>
</g>
</g>
<!-- Node18&#45;&gt;Node17 -->
<g id="edge23_Node000018_Node000017" class="edge">
<title>Node18&#45;&gt;Node17</title>
<g id="a_edge23_Node000018_Node000017"><a xlink:title=" ">
<path fill="none" stroke="#63b8ff" d="M530.07,-129.09C489.9,-117.61 432.05,-101.09 395.58,-90.67"/>
<polygon fill="#63b8ff" stroke="#63b8ff" points="528.87,-132.38 539.44,-131.76 530.79,-125.65 528.87,-132.38"/>
</a>
</g>
</g>
<!-- Node18&#45;&gt;Node19 -->
<g id="edge25_Node000018_Node000019" class="edge">
<title>Node18&#45;&gt;Node19</title>
<g id="a_edge25_Node000018_Node000019"><a xlink:title=" ">
<path fill="none" stroke="#63b8ff" d="M559.47,-123.42C550.22,-112.54 538.93,-99.27 531.45,-90.47"/>
<polygon fill="#63b8ff" stroke="#63b8ff" points="556.8,-125.68 565.95,-131.03 562.13,-121.14 556.8,-125.68"/>
</a>
</g>
</g>
<!-- Node18&#45;&gt;Node20 -->
<g id="edge26_Node000018_Node000020" class="edge">
<title>Node18&#45;&gt;Node20</title>
<g id="a_edge26_Node000018_Node000020"><a xlink:title=" ">
<path fill="none" stroke="#63b8ff" d="M668.27,-130.88C767.06,-119.06 921.27,-100.61 1012.18,-89.74"/>
<polygon fill="#63b8ff" stroke="#63b8ff" points="668.12,-127.37 658.6,-132.03 668.95,-134.32 668.12,-127.37"/>
</a>
</g>
</g>
<!-- Node18&#45;&gt;Node21 -->
<g id="edge28_Node000018_Node000021" class="edge">
<title>Node18&#45;&gt;Node21</title>
<g id="a_edge28_Node000018_Node000021"><a xlink:title=" ">
<path fill="none" stroke="#63b8ff" d="M606.97,-127.44C631.7,-116.07 665.37,-100.6 686.97,-90.67"/>
<polygon fill="#63b8ff" stroke="#63b8ff" points="605.65,-124.19 598.03,-131.55 608.58,-130.55 605.65,-124.19"/>
</a>
</g>
</g>
<!-- Node22&#45;&gt;Node5 -->
<g id="edge39_Node000022_Node000005" class="edge">
<title>Node22&#45;&gt;Node5</title>
<g id="a_edge39_Node000022_Node000005"><a xlink:title=" ">
<path fill="none" stroke="#63b8ff" d="M896.06,-126.08C1028.16,-105.94 1170.26,-93.02 1254.21,-86.29"/>
<polygon fill="#63b8ff" stroke="#63b8ff" points="895.79,-122.58 886.44,-127.56 896.86,-129.5 895.79,-122.58"/>
</a>
</g>
</g>
<!-- Node22&#45;&gt;Node11 -->
<g id="edge41_Node000022_Node000011" class="edge">
<title>Node22&#45;&gt;Node11</title>
<g id="a_edge41_Node000022_Node000011"><a xlink:title=" ">
<path fill="none" stroke="#63b8ff" d="M847.53,-118.78C859.78,-109.06 873.35,-98.29 882.88,-90.72"/>
<polygon fill="#63b8ff" stroke="#63b8ff" points="845.36,-116.04 839.7,-125 849.71,-121.52 845.36,-116.04"/>
</a>
</g>
</g>
<!-- Node22&#45;&gt;Node12 -->
<g id="edge45_Node000022_Node000012" class="edge">
<title>Node22&#45;&gt;Node12</title>
<g id="a_edge45_Node000022_Node000012"><a xlink:title=" ">
<path fill="none" stroke="#63b8ff" d="M810.93,-114.94C805.98,-100.34 798.31,-82.66 787.28,-69.5 771.59,-50.78 747.4,-36.32 729.93,-27.5"/>
<polygon fill="#63b8ff" stroke="#63b8ff" points="807.56,-115.9 813.87,-124.4 814.24,-113.81 807.56,-115.9"/>
</a>
</g>
</g>
<!-- Node22&#45;&gt;Node14 -->
<g id="edge42_Node000022_Node000014" class="edge">
<title>Node22&#45;&gt;Node14</title>
<g id="a_edge42_Node000022_Node000014"><a xlink:title=" ">
<path fill="none" stroke="#63b8ff" d="M740.09,-133.6C716.1,-131.12 689.62,-128.47 665.28,-126.25 485.18,-109.8 272.69,-93.74 165.52,-85.88"/>
<polygon fill="#63b8ff" stroke="#63b8ff" points="739.47,-137.06 749.78,-134.61 740.2,-130.09 739.47,-137.06"/>
</a>
</g>
</g>
<!-- Node22&#45;&gt;Node16 -->
<g id="edge43_Node000022_Node000016" class="edge">
<title>Node22&#45;&gt;Node16</title>
<g id="a_edge43_Node000022_Node000016"><a xlink:title=" ">
<path fill="none" stroke="#63b8ff" d="M896.23,-126.12C1123.54,-95.5 1184.74,-113.55 1409.28,-90.25 1412.25,-89.94 1415.28,-89.61 1418.34,-89.25"/>
<polygon fill="#63b8ff" stroke="#63b8ff" points="895.86,-122.64 886.42,-127.46 896.8,-129.57 895.86,-122.64"/>
</a>
</g>
</g>
<!-- Node22&#45;&gt;Node19 -->
<g id="edge40_Node000022_Node000019" class="edge">
<title>Node22&#45;&gt;Node19</title>
<g id="a_edge40_Node000022_Node000019"><a xlink:title=" ">
<path fill="none" stroke="#63b8ff" d="M740.1,-125.8C686.2,-114.63 616.32,-100.15 570.67,-90.69"/>
<polygon fill="#63b8ff" stroke="#63b8ff" points="739.36,-129.22 749.86,-127.82 740.78,-122.37 739.36,-129.22"/>
</a>
</g>
</g>
<!-- Node22&#45;&gt;Node20 -->
<g id="edge44_Node000022_Node000020" class="edge">
<title>Node22&#45;&gt;Node20</title>
<g id="a_edge44_Node000022_Node000020"><a xlink:title=" ">
<path fill="none" stroke="#63b8ff" d="M896.18,-124.23C944.08,-113.31 1003.64,-99.72 1043.2,-90.7"/>
<polygon fill="#63b8ff" stroke="#63b8ff" points="895.67,-120.76 886.7,-126.4 897.22,-127.59 895.67,-120.76"/>
</a>
</g>
</g>
<!-- Node22&#45;&gt;Node21 -->
<g id="edge46_Node000022_Node000021" class="edge">
<title>Node22&#45;&gt;Node21</title>
<g id="a_edge46_Node000022_Node000021"><a xlink:title=" ">
<path fill="none" stroke="#63b8ff" d="M779.03,-120.19C760.86,-110.09 740.19,-98.6 725.9,-90.67"/>
<polygon fill="#63b8ff" stroke="#63b8ff" points="777.33,-123.25 787.77,-125.04 780.73,-117.13 777.33,-123.25"/>
</a>
</g>
</g>
<!-- Node23&#45;&gt;Node12 -->
<g id="edge52_Node000023_Node000012" class="edge">
<title>Node23&#45;&gt;Node12</title>
<g id="a_edge52_Node000023_Node000012"><a xlink:title=" ">
<path fill="none" stroke="#63b8ff" d="M1069.77,-190.81C1127.94,-164.13 1210.54,-115.65 1169.28,-69.5 1156.45,-55.15 905.5,-33.36 779.38,-23.25"/>
<polygon fill="#63b8ff" stroke="#63b8ff" points="1068.66,-187.48 1060.97,-194.76 1071.53,-193.86 1068.66,-187.48"/>
</a>
</g>
</g>
<!-- Node23&#45;&gt;Node15 -->
<g id="edge48_Node000023_Node000015" class="edge">
<title>Node23&#45;&gt;Node15</title>
<g id="a_edge48_Node000023_Node000015"><a xlink:title=" ">
<path fill="none" stroke="#63b8ff" d="M1094.83,-192.54C1144.93,-179.97 1208.64,-163.99 1248.95,-153.87"/>
<polygon fill="#63b8ff" stroke="#63b8ff" points="1094.03,-189.14 1085.18,-194.96 1095.73,-195.92 1094.03,-189.14"/>
</a>
</g>
</g>
<!-- Node23&#45;&gt;Node17 -->
<g id="edge50_Node000023_Node000017" class="edge">
<title>Node23&#45;&gt;Node17</title>
<g id="a_edge50_Node000023_Node000017"><a xlink:title=" ">
<path fill="none" stroke="#63b8ff" d="M941.32,-208.46C813.83,-202.73 566.67,-188.28 484.28,-159.75 460.79,-151.62 401.17,-109.7 374.51,-90.5"/>
<polygon fill="#63b8ff" stroke="#63b8ff" points="940.87,-211.94 951.02,-208.88 941.18,-204.95 940.87,-211.94"/>
</a>
</g>
</g>
<!-- Node23&#45;&gt;Node20 -->
<g id="edge51_Node000023_Node000020" class="edge">
<title>Node23&#45;&gt;Node20</title>
<g id="a_edge51_Node000023_Node000020"><a xlink:title=" ">
<path fill="none" stroke="#63b8ff" d="M1063.53,-188.98C1074.23,-181.26 1084.29,-171.53 1090.28,-159.75 1101.72,-137.26 1094.65,-106.35 1089.77,-90.75"/>
<polygon fill="#63b8ff" stroke="#63b8ff" points="1061.72,-185.98 1055.32,-194.42 1065.59,-191.82 1061.72,-185.98"/>
</a>
</g>
</g>
<!-- Node23&#45;&gt;Node21 -->
<g id="edge53_Node000023_Node000021" class="edge">
<title>Node23&#45;&gt;Node21</title>
<g id="a_edge53_Node000023_Node000021"><a xlink:title=" ">
<path fill="none" stroke="#63b8ff" d="M941.29,-204.97C870.72,-197.64 773.36,-183.54 743.28,-159.75 721.08,-142.18 712.58,-107.56 709.66,-90.65"/>
<polygon fill="#63b8ff" stroke="#63b8ff" points="940.57,-208.41 950.87,-205.93 941.27,-201.45 940.57,-208.41"/>
</a>
</g>
</g>
<!-- Node23&#45;&gt;Node22 -->
<g id="edge49_Node000023_Node000022" class="edge">
<title>Node23&#45;&gt;Node22</title>
<g id="a_edge49_Node000023_Node000022"><a xlink:title=" ">
<path fill="none" stroke="#63b8ff" d="M960.41,-191.73C930.5,-181.69 894.61,-169.63 866.38,-160.15"/>
<polygon fill="#63b8ff" stroke="#63b8ff" points="959.11,-194.98 969.7,-194.85 961.34,-188.35 959.11,-194.98"/>
</a>
</g>
</g>
</g>
</svg>
