<?xml version="1.0" encoding="UTF-8" standalone="no"?>
<!DOCTYPE svg PUBLIC "-//W3C//DTD SVG 1.1//EN"
 "http://www.w3.org/Graphics/SVG/1.1/DTD/svg11.dtd">
<!-- Generated by graphviz version 12.0.0 (20240803.0821)
 -->
<!-- Title: BuilderConfigs Pages: 1 -->
<svg width="349pt" height="182pt"
 viewBox="0.00 0.00 349.25 181.50" xmlns="http://www.w3.org/2000/svg" xmlns:xlink="http://www.w3.org/1999/xlink">
<g id="graph0" class="graph" transform="scale(1 1) rotate(0) translate(4 177.5)">
<title>BuilderConfigs</title>
<!-- Node1 -->
<g id="Node000001" class="node">
<title>Node1</title>
<g id="a_Node000001"><a xlink:title=" ">
<polygon fill="#999999" stroke="#666666" points="215.25,-20.75 128.75,-20.75 128.75,0 215.25,0 215.25,-20.75"/>
<text text-anchor="middle" x="172" y="-7.25" font-family="Helvetica,sans-Serif" font-size="10.00">BuilderConfigs</text>
</a>
</g>
</g>
<!-- Node2 -->
<g id="Node000002" class="node">
<title>Node2</title>
<g id="a_Node000002"><a xlink:href="classDLG4_1_1VolumeBuilders_1_1__internals___1_1i__shared__ptr.html" target="_top" xlink:title=" ">
<polygon fill="white" stroke="#666666" points="157.25,-103 22.75,-103 22.75,-69.5 157.25,-69.5 157.25,-103"/>
<text text-anchor="start" x="30.75" y="-89.5" font-family="Helvetica,sans-Serif" font-size="10.00">i_shared_ptr&lt; IStructure</text>
<text text-anchor="middle" x="90" y="-76.75" font-family="Helvetica,sans-Serif" font-size="10.00">Builder &gt;</text>
</a>
</g>
</g>
<!-- Node2&#45;&gt;Node1 -->
<g id="edge1_Node000001_Node000002" class="edge">
<title>Node2&#45;&gt;Node1</title>
<g id="a_edge1_Node000001_Node000002"><a xlink:title=" ">
<path fill="none" stroke="#9a32cd" stroke-dasharray="5,2" d="M115.95,-61.87C131.36,-47.98 150.07,-31.13 161.5,-20.83"/>
<polygon fill="#9a32cd" stroke="#9a32cd" points="114,-58.91 108.92,-68.21 118.69,-64.11 114,-58.91"/>
</a>
</g>
<text text-anchor="middle" x="175.12" y="-42" font-family="Helvetica,sans-Serif" font-size="10.00" fill="grey"> istructure_ptr</text>
</g>
<!-- Node3 -->
<g id="Node000003" class="node">
<title>Node3</title>
<g id="a_Node000003"><a xlink:title=" ">
<polygon fill="white" stroke="#666666" points="172,-167.12 0,-167.12 0,-146.38 172,-146.38 172,-167.12"/>
<text text-anchor="middle" x="86" y="-153.62" font-family="Helvetica,sans-Serif" font-size="10.00">shared_ptr&lt; IStructureBuilder &gt;</text>
</a>
</g>
</g>
<!-- Node3&#45;&gt;Node2 -->
<g id="edge2_Node000002_Node000003" class="edge">
<title>Node3&#45;&gt;Node2</title>
<g id="a_edge2_Node000002_Node000003"><a xlink:title=" ">
<path fill="none" stroke="#63b8ff" d="M87.24,-134.48C87.83,-124.45 88.52,-112.68 89.06,-103.39"/>
<polygon fill="#63b8ff" stroke="#63b8ff" points="83.75,-134.24 86.66,-144.42 90.74,-134.65 83.75,-134.24"/>
</a>
</g>
</g>
<!-- Node4 -->
<g id="Node000004" class="node">
<title>Node4</title>
<g id="a_Node000004"><a xlink:href="classDLG4_1_1VolumeBuilders_1_1__internals___1_1i__shared__ptr.html" target="_top" xlink:title=" ">
<polygon fill="white" stroke="#666666" points="341.25,-103 182.75,-103 182.75,-69.5 341.25,-69.5 341.25,-103"/>
<text text-anchor="start" x="190.75" y="-89.5" font-family="Helvetica,sans-Serif" font-size="10.00">i_shared_ptr&lt; VolumeBuilder</text>
<text text-anchor="middle" x="262" y="-76.75" font-family="Helvetica,sans-Serif" font-size="10.00">Core &gt;</text>
</a>
</g>
</g>
<!-- Node4&#45;&gt;Node1 -->
<g id="edge3_Node000001_Node000004" class="edge">
<title>Node4&#45;&gt;Node1</title>
<g id="a_edge3_Node000001_Node000004"><a xlink:title=" ">
<path fill="none" stroke="#9a32cd" stroke-dasharray="5,2" d="M238.32,-61.22C230.51,-53.73 221.61,-45.63 213,-38.75 205.11,-32.45 195.78,-26.14 188.02,-21.17"/>
<polygon fill="#9a32cd" stroke="#9a32cd" points="235.62,-63.48 245.21,-67.97 240.51,-58.47 235.62,-63.48"/>
</a>
</g>
<text text-anchor="middle" x="260.62" y="-42" font-family="Helvetica,sans-Serif" font-size="10.00" fill="grey"> builder_view</text>
</g>
<!-- Node5 -->
<g id="Node000005" class="node">
<title>Node5</title>
<g id="a_Node000005"><a xlink:title=" ">
<polygon fill="white" stroke="#666666" points="340.12,-173.5 189.88,-173.5 189.88,-140 340.12,-140 340.12,-173.5"/>
<text text-anchor="start" x="197.88" y="-160" font-family="Helvetica,sans-Serif" font-size="10.00">shared_ptr&lt; VolumeBuilder</text>
<text text-anchor="middle" x="265" y="-147.25" font-family="Helvetica,sans-Serif" font-size="10.00">Core &#160;&gt;</text>
</a>
</g>
</g>
<!-- Node5&#45;&gt;Node4 -->
<g id="edge4_Node000004_Node000005" class="edge">
<title>Node5&#45;&gt;Node4</title>
<g id="a_edge4_Node000004_Node000005"><a xlink:title=" ">
<path fill="none" stroke="#63b8ff" d="M263.79,-128.2C263.42,-119.77 263.03,-110.77 262.71,-103.37"/>
<polygon fill="#63b8ff" stroke="#63b8ff" points="260.29,-128.17 264.22,-138 267.28,-127.86 260.29,-128.17"/>
</a>
</g>
</g>
</g>
</svg>
