<?xml version="1.0" encoding="UTF-8" standalone="no"?>
<!DOCTYPE svg PUBLIC "-//W3C//DTD SVG 1.1//EN"
 "http://www.w3.org/Graphics/SVG/1.1/DTD/svg11.dtd">
<!-- Generated by graphviz version 12.0.0 (20240803.0821)
 -->
<!-- Title: include/VolumeBuilderConfigs.hh Pages: 1 -->
<svg width="1763pt" height="420pt"
 viewBox="0.00 0.00 1763.45 420.25" xmlns="http://www.w3.org/2000/svg" xmlns:xlink="http://www.w3.org/1999/xlink">
<g id="graph0" class="graph" transform="scale(1 1) rotate(0) translate(4 416.25)">
<title>include/VolumeBuilderConfigs.hh</title>
<!-- Node1 -->
<g id="Node000001" class="node">
<title>Node1</title>
<g id="a_Node000001"><a xlink:title=" ">
<polygon fill="#999999" stroke="#666666" points="909.95,-412.25 733.45,-412.25 733.45,-391.5 909.95,-391.5 909.95,-412.25"/>
<text text-anchor="middle" x="821.7" y="-398.75" font-family="Helvetica,sans-Serif" font-size="10.00">include/VolumeBuilderConfigs.hh</text>
</a>
</g>
</g>
<!-- Node2 -->
<g id="Node000002" class="node">
<title>Node2</title>
<g id="a_Node000002"><a xlink:href="StructureBuilderBase_8hh.html" target="_top" xlink:title=" ">
<polygon fill="white" stroke="#666666" points="888.2,-355.5 755.2,-355.5 755.2,-322 888.2,-322 888.2,-355.5"/>
<text text-anchor="start" x="763.2" y="-342" font-family="Helvetica,sans-Serif" font-size="10.00">include/StructureBuilder</text>
<text text-anchor="middle" x="821.7" y="-329.25" font-family="Helvetica,sans-Serif" font-size="10.00">Base.hh</text>
</a>
</g>
</g>
<!-- Node1&#45;&gt;Node2 -->
<g id="edge1_Node000001_Node000002" class="edge">
<title>Node1&#45;&gt;Node2</title>
<g id="a_edge1_Node000001_Node000002"><a xlink:title=" ">
<path fill="none" stroke="#63b8ff" d="M821.7,-379.59C821.7,-371.85 821.7,-363.22 821.7,-355.98"/>
<polygon fill="#63b8ff" stroke="#63b8ff" points="818.2,-379.54 821.7,-389.54 825.2,-379.54 818.2,-379.54"/>
</a>
</g>
</g>
<!-- Node4 -->
<g id="Node000004" class="node">
<title>Node4</title>
<g id="a_Node000004"><a xlink:href="VolumeBuilderBase_8hh.html" target="_top" xlink:title=" ">
<polygon fill="white" stroke="#666666" points="569.95,-222.88 405.45,-222.88 405.45,-202.12 569.95,-202.12 569.95,-222.88"/>
<text text-anchor="middle" x="487.7" y="-209.38" font-family="Helvetica,sans-Serif" font-size="10.00">include/VolumeBuilderBase.hh</text>
</a>
</g>
</g>
<!-- Node1&#45;&gt;Node4 -->
<g id="edge60_Node000001_Node000004" class="edge">
<title>Node1&#45;&gt;Node4</title>
<g id="a_edge60_Node000001_Node000004"><a xlink:title=" ">
<path fill="none" stroke="#63b8ff" d="M768.85,-388.16C709.33,-371.9 611.91,-339.29 542.7,-286 519.66,-268.26 501.33,-238.57 492.84,-223.27"/>
<polygon fill="#63b8ff" stroke="#63b8ff" points="767.84,-391.51 778.4,-390.71 769.64,-384.75 767.84,-391.51"/>
</a>
</g>
</g>
<!-- Node12 -->
<g id="Node000012" class="node">
<title>Node12</title>
<g id="a_Node000012"><a xlink:href="BoxBuilderCore_8cc.html" target="_top" xlink:title=" ">
<polygon fill="white" stroke="#666666" points="1625.95,-90.25 1503.45,-90.25 1503.45,-69.5 1625.95,-69.5 1625.95,-90.25"/>
<text text-anchor="middle" x="1564.7" y="-76.75" font-family="Helvetica,sans-Serif" font-size="10.00">src/BoxBuilderCore.cc</text>
</a>
</g>
</g>
<!-- Node1&#45;&gt;Node12 -->
<g id="edge61_Node000001_Node000012" class="edge">
<title>Node1&#45;&gt;Node12</title>
<g id="a_edge61_Node000001_Node000012"><a xlink:title=" ">
<path fill="none" stroke="#63b8ff" d="M921.38,-394.97C1129.22,-381.33 1589.7,-343.56 1589.7,-276.62 1589.7,-276.62 1589.7,-276.62 1589.7,-211.5 1589.7,-165.55 1574.59,-112.11 1567.86,-90.58"/>
<polygon fill="#63b8ff" stroke="#63b8ff" points="921.43,-391.46 911.68,-395.6 921.89,-398.45 921.43,-391.46"/>
</a>
</g>
</g>
<!-- Node3 -->
<g id="Node000003" class="node">
<title>Node3</title>
<g id="a_Node000003"><a xlink:href="AssemblyCore_8hh.html" target="_top" xlink:title=" ">
<polygon fill="white" stroke="#666666" points="691.57,-286 551.82,-286 551.82,-265.25 691.57,-265.25 691.57,-286"/>
<text text-anchor="middle" x="621.7" y="-272.5" font-family="Helvetica,sans-Serif" font-size="10.00">include/AssemblyCore.hh</text>
</a>
</g>
</g>
<!-- Node2&#45;&gt;Node3 -->
<g id="edge2_Node000002_Node000003" class="edge">
<title>Node2&#45;&gt;Node3</title>
<g id="a_edge2_Node000002_Node000003"><a xlink:title=" ">
<path fill="none" stroke="#63b8ff" d="M757.63,-318.17C722.96,-307.57 681.64,-294.94 653.73,-286.42"/>
<polygon fill="#63b8ff" stroke="#63b8ff" points="756.59,-321.51 767.18,-321.09 758.64,-314.82 756.59,-321.51"/>
</a>
</g>
</g>
<!-- Node6 -->
<g id="Node000006" class="node">
<title>Node6</title>
<g id="a_Node000006"><a xlink:href="VolumeBuilders_8hh.html" target="_top" xlink:title=" ">
<polygon fill="white" stroke="#666666" points="1485.57,-90.25 1339.82,-90.25 1339.82,-69.5 1485.57,-69.5 1485.57,-90.25"/>
<text text-anchor="middle" x="1412.7" y="-76.75" font-family="Helvetica,sans-Serif" font-size="10.00">include/VolumeBuilders.hh</text>
</a>
</g>
</g>
<!-- Node2&#45;&gt;Node6 -->
<g id="edge55_Node000002_Node000006" class="edge">
<title>Node2&#45;&gt;Node6</title>
<g id="a_edge55_Node000002_Node000006"><a xlink:title=" ">
<path fill="none" stroke="#63b8ff" d="M899.51,-329.71C1064.05,-310.91 1438.2,-258.06 1511.7,-159.75 1520.61,-147.83 1519.74,-138.78 1511.7,-126.25 1500.16,-108.27 1479.52,-97.32 1460.06,-90.7"/>
<polygon fill="#63b8ff" stroke="#63b8ff" points="899.56,-326.18 890.01,-330.78 900.34,-333.14 899.56,-326.18"/>
</a>
</g>
</g>
<!-- Node13 -->
<g id="Node000013" class="node">
<title>Node13</title>
<g id="a_Node000013"><a xlink:href="VolumeBuilderBase_8cc.html" target="_top" xlink:title=" ">
<polygon fill="white" stroke="#666666" points="932.7,-27.12 790.7,-27.12 790.7,-6.38 932.7,-6.38 932.7,-27.12"/>
<text text-anchor="middle" x="861.7" y="-13.62" font-family="Helvetica,sans-Serif" font-size="10.00">src/VolumeBuilderBase.cc</text>
</a>
</g>
</g>
<!-- Node2&#45;&gt;Node13 -->
<g id="edge59_Node000002_Node000013" class="edge">
<title>Node2&#45;&gt;Node13</title>
<g id="a_edge59_Node000002_Node000013"><a xlink:title=" ">
<path fill="none" stroke="#63b8ff" d="M899.91,-329.5C997.63,-314.52 1161.09,-273.04 1235.7,-159.75 1261.92,-119.93 1220.24,-91.03 1177.7,-69.5 1135.97,-48.39 1012.59,-32.67 932.92,-24.38"/>
<polygon fill="#63b8ff" stroke="#63b8ff" points="899.5,-326.02 890.11,-330.93 900.52,-332.95 899.5,-326.02"/>
</a>
</g>
</g>
<!-- Node15 -->
<g id="Node000015" class="node">
<title>Node15</title>
<g id="a_Node000015"><a xlink:href="FromG4VSolidCore_8cc.html" target="_top" xlink:title=" ">
<polygon fill="white" stroke="#666666" points="929.82,-90.25 791.57,-90.25 791.57,-69.5 929.82,-69.5 929.82,-90.25"/>
<text text-anchor="middle" x="860.7" y="-76.75" font-family="Helvetica,sans-Serif" font-size="10.00">src/FromG4VSolidCore.cc</text>
</a>
</g>
</g>
<!-- Node2&#45;&gt;Node15 -->
<g id="edge56_Node000002_Node000015" class="edge">
<title>Node2&#45;&gt;Node15</title>
<g id="a_edge56_Node000002_Node000015"><a xlink:title=" ">
<path fill="none" stroke="#63b8ff" d="M825.84,-310.48C834.4,-254.09 853.7,-126.94 859.21,-90.69"/>
<polygon fill="#63b8ff" stroke="#63b8ff" points="822.4,-309.77 824.36,-320.18 829.33,-310.82 822.4,-309.77"/>
</a>
</g>
</g>
<!-- Node17 -->
<g id="Node000017" class="node">
<title>Node17</title>
<g id="a_Node000017"><a xlink:href="RZBuilderCore_8cc.html" target="_top" xlink:title=" ">
<polygon fill="white" stroke="#666666" points="1109.32,-90.25 992.07,-90.25 992.07,-69.5 1109.32,-69.5 1109.32,-90.25"/>
<text text-anchor="middle" x="1050.7" y="-76.75" font-family="Helvetica,sans-Serif" font-size="10.00">src/RZBuilderCore.cc</text>
</a>
</g>
</g>
<!-- Node2&#45;&gt;Node17 -->
<g id="edge57_Node000002_Node000017" class="edge">
<title>Node2&#45;&gt;Node17</title>
<g id="a_edge57_Node000002_Node000017"><a xlink:title=" ">
<path fill="none" stroke="#63b8ff" d="M899.46,-327.79C993.15,-311.17 1146.67,-268.11 1216.7,-159.75 1245.23,-115.6 1168.29,-95.61 1109.81,-86.97"/>
<polygon fill="#63b8ff" stroke="#63b8ff" points="899.11,-324.3 889.84,-329.44 900.28,-331.2 899.11,-324.3"/>
</a>
</g>
</g>
<!-- Node21 -->
<g id="Node000021" class="node">
<title>Node21</title>
<g id="a_Node000021"><a xlink:href="StructureBuilderCore_8cc.html" target="_top" xlink:title="Created by.">
<polygon fill="white" stroke="#666666" points="731.7,-90.25 583.7,-90.25 583.7,-69.5 731.7,-69.5 731.7,-90.25"/>
<text text-anchor="middle" x="657.7" y="-76.75" font-family="Helvetica,sans-Serif" font-size="10.00">src/StructureBuilderCore.cc</text>
</a>
</g>
</g>
<!-- Node2&#45;&gt;Node21 -->
<g id="edge58_Node000002_Node000021" class="edge">
<title>Node2&#45;&gt;Node21</title>
<g id="a_edge58_Node000002_Node000021"><a xlink:title=" ">
<path fill="none" stroke="#63b8ff" d="M788.16,-314.87C747.4,-284.81 680.72,-227.75 653.7,-159.75 644.38,-136.3 650.52,-105.82 654.71,-90.52"/>
<polygon fill="#63b8ff" stroke="#63b8ff" points="786.05,-317.67 796.2,-320.69 790.15,-311.99 786.05,-317.67"/>
</a>
</g>
</g>
<!-- Node23 -->
<g id="Node000023" class="node">
<title>Node23</title>
<g id="a_Node000023"><a xlink:href="StructureBuilderBase_8hpp.html" target="_top" xlink:title="Created by.">
<polygon fill="white" stroke="#666666" points="795.2,-159.75 662.2,-159.75 662.2,-126.25 795.2,-126.25 795.2,-159.75"/>
<text text-anchor="start" x="670.2" y="-146.25" font-family="Helvetica,sans-Serif" font-size="10.00">include/StructureBuilder</text>
<text text-anchor="middle" x="728.7" y="-133.5" font-family="Helvetica,sans-Serif" font-size="10.00">Base.hpp</text>
</a>
</g>
</g>
<!-- Node2&#45;&gt;Node23 -->
<g id="edge39_Node000002_Node000023" class="edge">
<title>Node2&#45;&gt;Node23</title>
<g id="a_edge39_Node000002_Node000023"><a xlink:title=" ">
<path fill="none" stroke="#63b8ff" d="M809.01,-311.31C789.41,-270.49 752.38,-193.34 736.38,-160"/>
<polygon fill="#63b8ff" stroke="#63b8ff" points="805.79,-312.7 813.27,-320.2 812.1,-309.67 805.79,-312.7"/>
</a>
</g>
</g>
<!-- Node24 -->
<g id="Node000024" class="node">
<title>Node24</title>
<g id="a_Node000024"><a xlink:href="StructureBuilderCore_8hh.html" target="_top" xlink:title=" ">
<polygon fill="white" stroke="#666666" points="387.2,-229.25 254.2,-229.25 254.2,-195.75 387.2,-195.75 387.2,-229.25"/>
<text text-anchor="start" x="262.2" y="-215.75" font-family="Helvetica,sans-Serif" font-size="10.00">include/StructureBuilder</text>
<text text-anchor="middle" x="320.7" y="-203" font-family="Helvetica,sans-Serif" font-size="10.00">Core.hh</text>
</a>
</g>
</g>
<!-- Node2&#45;&gt;Node24 -->
<g id="edge48_Node000002_Node000024" class="edge">
<title>Node2&#45;&gt;Node24</title>
<g id="a_edge48_Node000002_Node000024"><a xlink:title=" ">
<path fill="none" stroke="#63b8ff" d="M743.6,-326.1C687.33,-317.02 609.8,-303.1 542.7,-286 479.83,-269.98 408.83,-245.66 364.42,-229.68"/>
<polygon fill="#63b8ff" stroke="#63b8ff" points="743,-329.55 753.43,-327.67 744.1,-322.64 743,-329.55"/>
</a>
</g>
</g>
<!-- Node3&#45;&gt;Node4 -->
<g id="edge3_Node000003_Node000004" class="edge">
<title>Node3&#45;&gt;Node4</title>
<g id="a_edge3_Node000003_Node000004"><a xlink:title=" ">
<path fill="none" stroke="#63b8ff" d="M589.77,-260.06C564.86,-248.7 530.94,-233.22 509.17,-223.3"/>
<polygon fill="#63b8ff" stroke="#63b8ff" points="588.24,-263.21 598.79,-264.18 591.14,-256.84 588.24,-263.21"/>
</a>
</g>
</g>
<!-- Node3&#45;&gt;Node6 -->
<g id="edge36_Node000003_Node000006" class="edge">
<title>Node3&#45;&gt;Node6</title>
<g id="a_edge36_Node000003_Node000006"><a xlink:title=" ">
<path fill="none" stroke="#63b8ff" d="M703.45,-269.91C910.5,-257.16 1442.85,-218.86 1494.7,-159.75 1504.51,-148.56 1502.26,-139.08 1494.7,-126.25 1484.37,-108.73 1464.58,-97.5 1447.02,-90.6"/>
<polygon fill="#63b8ff" stroke="#63b8ff" points="703.34,-266.42 693.57,-270.52 703.77,-273.4 703.34,-266.42"/>
</a>
</g>
</g>
<!-- Node3&#45;&gt;Node13 -->
<g id="edge38_Node000003_Node000013" class="edge">
<title>Node3&#45;&gt;Node13</title>
<g id="a_edge38_Node000003_Node000013"><a xlink:title=" ">
<path fill="none" stroke="#63b8ff" d="M703.18,-271.25C850.64,-263.25 1152.49,-237.54 1216.7,-159.75 1262.72,-104 1155.16,-76.6 1138.7,-69.5 1072.43,-40.95 990.57,-28.12 933.08,-22.37"/>
<polygon fill="#63b8ff" stroke="#63b8ff" points="703.29,-267.74 693.48,-271.76 703.65,-274.73 703.29,-267.74"/>
</a>
</g>
</g>
<!-- Node18 -->
<g id="Node000018" class="node">
<title>Node18</title>
<g id="a_Node000018"><a xlink:href="VolumeBuilderBase_8hpp.html" target="_top" xlink:title=" ">
<polygon fill="white" stroke="#666666" points="195.95,-90.25 25.45,-90.25 25.45,-69.5 195.95,-69.5 195.95,-90.25"/>
<text text-anchor="middle" x="110.7" y="-76.75" font-family="Helvetica,sans-Serif" font-size="10.00">include/VolumeBuilderBase.hpp</text>
</a>
</g>
</g>
<!-- Node3&#45;&gt;Node18 -->
<g id="edge35_Node000003_Node000018" class="edge">
<title>Node3&#45;&gt;Node18</title>
<g id="a_edge35_Node000003_Node000018"><a xlink:title=" ">
<path fill="none" stroke="#63b8ff" d="M540.53,-273.34C462.96,-270.15 343.52,-260.06 244.7,-229.25 181.4,-209.52 147.68,-216.07 112.7,-159.75 99.33,-138.22 104.24,-106.62 107.99,-90.74"/>
<polygon fill="#63b8ff" stroke="#63b8ff" points="540.03,-276.82 550.16,-273.7 540.3,-269.83 540.03,-276.82"/>
</a>
</g>
</g>
<!-- Node20 -->
<g id="Node000020" class="node">
<title>Node20</title>
<g id="a_Node000020"><a xlink:href="AssemblyCore_8cc.html" target="_top" xlink:title="Created by.">
<polygon fill="white" stroke="#666666" points="565.32,-90.25 448.07,-90.25 448.07,-69.5 565.32,-69.5 565.32,-90.25"/>
<text text-anchor="middle" x="506.7" y="-76.75" font-family="Helvetica,sans-Serif" font-size="10.00">src/AssemblyCore.cc</text>
</a>
</g>
</g>
<!-- Node3&#45;&gt;Node20 -->
<g id="edge37_Node000003_Node000020" class="edge">
<title>Node3&#45;&gt;Node20</title>
<g id="a_edge37_Node000003_Node000020"><a xlink:title=" ">
<path fill="none" stroke="#63b8ff" d="M611.4,-254.95C602.88,-238.88 590.35,-215.65 578.7,-195.75 555.51,-156.14 525.87,-110.22 513.06,-90.59"/>
<polygon fill="#63b8ff" stroke="#63b8ff" points="608.13,-256.25 615.88,-263.47 614.32,-252.99 608.13,-256.25"/>
</a>
</g>
</g>
<!-- Node5 -->
<g id="Node000005" class="node">
<title>Node5</title>
<g id="a_Node000005"><a xlink:href="BoxBuilderCore_8hh.html" target="_top" xlink:title=" ">
<polygon fill="white" stroke="#666666" points="1485.2,-153.38 1340.2,-153.38 1340.2,-132.62 1485.2,-132.62 1485.2,-153.38"/>
<text text-anchor="middle" x="1412.7" y="-139.88" font-family="Helvetica,sans-Serif" font-size="10.00">include/BoxBuilderCore.hh</text>
</a>
</g>
</g>
<!-- Node4&#45;&gt;Node5 -->
<g id="edge4_Node000004_Node000005" class="edge">
<title>Node4&#45;&gt;Node5</title>
<g id="a_edge4_Node000004_Node000005"><a xlink:title=" ">
<path fill="none" stroke="#63b8ff" d="M581.66,-205.11C720.52,-195.6 988.73,-177 1216.7,-159.75 1257.55,-156.66 1303.16,-153.01 1340.11,-150"/>
<polygon fill="#63b8ff" stroke="#63b8ff" points="581.5,-201.61 571.77,-205.79 581.98,-208.6 581.5,-201.61"/>
</a>
</g>
</g>
<!-- Node4&#45;&gt;Node13 -->
<g id="edge33_Node000004_Node000013" class="edge">
<title>Node4&#45;&gt;Node13</title>
<g id="a_edge33_Node000004_Node000013"><a xlink:title=" ">
<path fill="none" stroke="#63b8ff" d="M424.77,-199.44C365.3,-187.56 283.47,-169.78 271.7,-159.75 239.62,-132.44 214.17,-100.51 242.7,-69.5 279.16,-29.87 635.58,-20.58 790.46,-18.41"/>
<polygon fill="#63b8ff" stroke="#63b8ff" points="423.99,-202.85 434.48,-201.36 425.35,-195.98 423.99,-202.85"/>
</a>
</g>
</g>
<!-- Node14 -->
<g id="Node000014" class="node">
<title>Node14</title>
<g id="a_Node000014"><a xlink:href="FromG4VSolidCore_8hh.html" target="_top" xlink:title=" ">
<polygon fill="white" stroke="#666666" points="1050.07,-153.38 889.32,-153.38 889.32,-132.62 1050.07,-132.62 1050.07,-153.38"/>
<text text-anchor="middle" x="969.7" y="-139.88" font-family="Helvetica,sans-Serif" font-size="10.00">include/FromG4VSolidCore.hh</text>
</a>
</g>
</g>
<!-- Node4&#45;&gt;Node14 -->
<g id="edge13_Node000004_Node000014" class="edge">
<title>Node4&#45;&gt;Node14</title>
<g id="a_edge13_Node000004_Node000014"><a xlink:title=" ">
<path fill="none" stroke="#63b8ff" d="M569.33,-200.07C661.95,-187.1 811.49,-166.16 899.22,-153.87"/>
<polygon fill="#63b8ff" stroke="#63b8ff" points="568.96,-196.59 559.54,-201.44 569.93,-203.52 568.96,-196.59"/>
</a>
</g>
</g>
<!-- Node4&#45;&gt;Node15 -->
<g id="edge31_Node000004_Node000015" class="edge">
<title>Node4&#45;&gt;Node15</title>
<g id="a_edge31_Node000004_Node000015"><a xlink:title=" ">
<path fill="none" stroke="#63b8ff" d="M581.21,-204.22C660.94,-196.58 768.26,-182.47 804.7,-159.75 831.77,-142.87 849.5,-107.6 856.85,-90.53"/>
<polygon fill="#63b8ff" stroke="#63b8ff" points="581.29,-200.7 571.66,-205.12 581.94,-207.67 581.29,-200.7"/>
</a>
</g>
</g>
<!-- Node16 -->
<g id="Node000016" class="node">
<title>Node16</title>
<g id="a_Node000016"><a xlink:href="RZBuilderCore_8hh.html" target="_top" xlink:title=" ">
<polygon fill="white" stroke="#666666" points="1207.57,-153.38 1067.82,-153.38 1067.82,-132.62 1207.57,-132.62 1207.57,-153.38"/>
<text text-anchor="middle" x="1137.7" y="-139.88" font-family="Helvetica,sans-Serif" font-size="10.00">include/RZBuilderCore.hh</text>
</a>
</g>
</g>
<!-- Node4&#45;&gt;Node16 -->
<g id="edge17_Node000004_Node000016" class="edge">
<title>Node4&#45;&gt;Node16</title>
<g id="a_edge17_Node000004_Node000016"><a xlink:title=" ">
<path fill="none" stroke="#63b8ff" d="M581.79,-203.52C731.76,-190.73 1012.85,-166.38 1058.7,-159.75 1069.77,-158.15 1081.64,-156.01 1092.72,-153.83"/>
<polygon fill="#63b8ff" stroke="#63b8ff" points="581.51,-200.04 571.85,-204.37 582.11,-207.01 581.51,-200.04"/>
</a>
</g>
</g>
<!-- Node4&#45;&gt;Node18 -->
<g id="edge21_Node000004_Node000018" class="edge">
<title>Node4&#45;&gt;Node18</title>
<g id="a_edge21_Node000004_Node000018"><a xlink:title=" ">
<path fill="none" stroke="#63b8ff" d="M420.2,-199.78C341.03,-185.91 219.28,-164.13 209.7,-159.75 171.92,-142.5 135.96,-107.73 119.73,-90.71"/>
<polygon fill="#63b8ff" stroke="#63b8ff" points="419.13,-203.14 429.58,-201.42 420.33,-196.25 419.13,-203.14"/>
</a>
</g>
</g>
<!-- Node19 -->
<g id="Node000019" class="node">
<title>Node19</title>
<g id="a_Node000019"><a xlink:href="VolumeBuilderCore_8hh.html" target="_top" xlink:title=" ">
<polygon fill="white" stroke="#666666" points="453.2,-153.38 290.2,-153.38 290.2,-132.62 453.2,-132.62 453.2,-153.38"/>
<text text-anchor="middle" x="371.7" y="-139.88" font-family="Helvetica,sans-Serif" font-size="10.00">include/VolumeBuilderCore.hh</text>
</a>
</g>
</g>
<!-- Node4&#45;&gt;Node19 -->
<g id="edge23_Node000004_Node000019" class="edge">
<title>Node4&#45;&gt;Node19</title>
<g id="a_edge23_Node000004_Node000019"><a xlink:title=" ">
<path fill="none" stroke="#63b8ff" d="M461.24,-196.11C438.96,-183.14 407.74,-164.97 388.66,-153.87"/>
<polygon fill="#63b8ff" stroke="#63b8ff" points="459.37,-199.06 469.77,-201.07 462.89,-193.01 459.37,-199.06"/>
</a>
</g>
</g>
<!-- Node4&#45;&gt;Node20 -->
<g id="edge30_Node000004_Node000020" class="edge">
<title>Node4&#45;&gt;Node20</title>
<g id="a_edge30_Node000004_Node000020"><a xlink:title=" ">
<path fill="none" stroke="#63b8ff" d="M490.75,-190.52C494.93,-161.8 502.25,-111.42 505.3,-90.45"/>
<polygon fill="#63b8ff" stroke="#63b8ff" points="487.32,-189.78 489.34,-200.18 494.25,-190.79 487.32,-189.78"/>
</a>
</g>
</g>
<!-- Node4&#45;&gt;Node21 -->
<g id="edge32_Node000004_Node000021" class="edge">
<title>Node4&#45;&gt;Node21</title>
<g id="a_edge32_Node000004_Node000021"><a xlink:title=" ">
<path fill="none" stroke="#63b8ff" d="M509.22,-194.96C545.21,-167.31 616.48,-112.55 645.23,-90.45"/>
<polygon fill="#63b8ff" stroke="#63b8ff" points="507.47,-191.89 501.67,-200.76 511.74,-197.44 507.47,-191.89"/>
</a>
</g>
</g>
<!-- Node22 -->
<g id="Node000022" class="node">
<title>Node22</title>
<g id="a_Node000022"><a xlink:href="VolumeBuilderCore_8cc.html" target="_top" xlink:title="Created by.">
<polygon fill="white" stroke="#666666" points="391.95,-90.25 251.45,-90.25 251.45,-69.5 391.95,-69.5 391.95,-90.25"/>
<text text-anchor="middle" x="321.7" y="-76.75" font-family="Helvetica,sans-Serif" font-size="10.00">src/VolumeBuilderCore.cc</text>
</a>
</g>
</g>
<!-- Node4&#45;&gt;Node22 -->
<g id="edge34_Node000004_Node000022" class="edge">
<title>Node4&#45;&gt;Node22</title>
<g id="a_edge34_Node000004_Node000022"><a xlink:title=" ">
<path fill="none" stroke="#63b8ff" d="M423.07,-199.47C365.73,-188.13 289.66,-171.23 280.7,-159.75 263.13,-137.25 292.36,-106.08 309.93,-90.52"/>
<polygon fill="#63b8ff" stroke="#63b8ff" points="422.3,-202.88 432.78,-201.37 423.64,-196.01 422.3,-202.88"/>
</a>
</g>
</g>
<!-- Node5&#45;&gt;Node6 -->
<g id="edge5_Node000005_Node000006" class="edge">
<title>Node5&#45;&gt;Node6</title>
<g id="a_edge5_Node000005_Node000006"><a xlink:title=" ">
<path fill="none" stroke="#63b8ff" d="M1412.7,-120.74C1412.7,-110.43 1412.7,-98.56 1412.7,-90.47"/>
<polygon fill="#63b8ff" stroke="#63b8ff" points="1409.2,-120.67 1412.7,-130.67 1416.2,-120.67 1409.2,-120.67"/>
</a>
</g>
</g>
<!-- Node5&#45;&gt;Node12 -->
<g id="edge11_Node000005_Node000012" class="edge">
<title>Node5&#45;&gt;Node12</title>
<g id="a_edge11_Node000005_Node000012"><a xlink:title=" ">
<path fill="none" stroke="#63b8ff" d="M1447.78,-127.89C1476.14,-116.49 1515.32,-100.73 1540.34,-90.67"/>
<polygon fill="#63b8ff" stroke="#63b8ff" points="1446.49,-124.64 1438.52,-131.61 1449.11,-131.13 1446.49,-124.64"/>
</a>
</g>
</g>
<!-- Node5&#45;&gt;Node13 -->
<g id="edge12_Node000005_Node000013" class="edge">
<title>Node5&#45;&gt;Node13</title>
<g id="a_edge12_Node000005_Node000013"><a xlink:title=" ">
<path fill="none" stroke="#63b8ff" d="M1388.5,-126.38C1358.35,-107.22 1308.32,-76.41 1287.7,-69.5 1254.89,-58.51 1045.41,-36.22 932.92,-24.82"/>
<polygon fill="#63b8ff" stroke="#63b8ff" points="1386.3,-129.13 1396.61,-131.57 1390.07,-123.24 1386.3,-129.13"/>
</a>
</g>
</g>
<!-- Node7 -->
<g id="Node000007" class="node">
<title>Node7</title>
<g id="a_Node000007"><a xlink:href="ConstructAssembly_8cc.html" target="_top" xlink:title="Created by.">
<polygon fill="white" stroke="#666666" points="1755.45,-33.5 1629.95,-33.5 1629.95,0 1755.45,0 1755.45,-33.5"/>
<text text-anchor="start" x="1637.95" y="-20" font-family="Helvetica,sans-Serif" font-size="10.00">demo/src/Geometries</text>
<text text-anchor="middle" x="1692.7" y="-7.25" font-family="Helvetica,sans-Serif" font-size="10.00">/ConstructAssembly.cc</text>
</a>
</g>
</g>
<!-- Node6&#45;&gt;Node7 -->
<g id="edge6_Node000006_Node000007" class="edge">
<title>Node6&#45;&gt;Node7</title>
<g id="a_edge6_Node000006_Node000007"><a xlink:title=" ">
<path fill="none" stroke="#63b8ff" d="M1469.5,-66.62C1511.54,-57.52 1570.2,-44.8 1621.7,-33.5 1624.29,-32.93 1626.93,-32.35 1629.6,-31.76"/>
<polygon fill="#63b8ff" stroke="#63b8ff" points="1468.89,-63.17 1459.85,-68.7 1470.37,-70.01 1468.89,-63.17"/>
</a>
</g>
</g>
<!-- Node8 -->
<g id="Node000008" class="node">
<title>Node8</title>
<g id="a_Node000008"><a xlink:href="ConstructBoxExample_8cc.html" target="_top" xlink:title="Created by.">
<polygon fill="white" stroke="#666666" points="1188.95,-33.5 1048.45,-33.5 1048.45,0 1188.95,0 1188.95,-33.5"/>
<text text-anchor="start" x="1056.45" y="-20" font-family="Helvetica,sans-Serif" font-size="10.00">demo/src/Geometries</text>
<text text-anchor="middle" x="1118.7" y="-7.25" font-family="Helvetica,sans-Serif" font-size="10.00">/ConstructBoxExample.cc</text>
</a>
</g>
</g>
<!-- Node6&#45;&gt;Node8 -->
<g id="edge7_Node000006_Node000008" class="edge">
<title>Node6&#45;&gt;Node8</title>
<g id="a_edge7_Node000006_Node000008"><a xlink:title=" ">
<path fill="none" stroke="#63b8ff" d="M1354.45,-66.77C1307.03,-56.91 1239.91,-42.95 1189.41,-32.45"/>
<polygon fill="#63b8ff" stroke="#63b8ff" points="1353.48,-70.14 1363.98,-68.75 1354.9,-63.28 1353.48,-70.14"/>
</a>
</g>
</g>
<!-- Node9 -->
<g id="Node000009" class="node">
<title>Node9</title>
<g id="a_Node000009"><a xlink:href="ConstructExample1_8cc.html" target="_top" xlink:title="Created by.">
<polygon fill="white" stroke="#666666" points="1334.57,-33.5 1206.82,-33.5 1206.82,0 1334.57,0 1334.57,-33.5"/>
<text text-anchor="start" x="1214.82" y="-20" font-family="Helvetica,sans-Serif" font-size="10.00">demo/src/Geometries</text>
<text text-anchor="middle" x="1270.7" y="-7.25" font-family="Helvetica,sans-Serif" font-size="10.00">/ConstructExample1.cc</text>
</a>
</g>
</g>
<!-- Node6&#45;&gt;Node9 -->
<g id="edge8_Node000006_Node000009" class="edge">
<title>Node6&#45;&gt;Node9</title>
<g id="a_edge8_Node000006_Node000009"><a xlink:title=" ">
<path fill="none" stroke="#63b8ff" d="M1379.4,-64.54C1358.13,-55.39 1330.49,-43.49 1308.41,-33.98"/>
<polygon fill="#63b8ff" stroke="#63b8ff" points="1377.92,-67.72 1388.49,-68.46 1380.69,-61.29 1377.92,-67.72"/>
</a>
</g>
</g>
<!-- Node10 -->
<g id="Node000010" class="node">
<title>Node10</title>
<g id="a_Node000010"><a xlink:href="ConstructHexPart_8cc.html" target="_top" xlink:title=" ">
<polygon fill="white" stroke="#666666" points="1473.2,-33.5 1352.2,-33.5 1352.2,0 1473.2,0 1473.2,-33.5"/>
<text text-anchor="start" x="1360.2" y="-20" font-family="Helvetica,sans-Serif" font-size="10.00">demo/src/Geometries</text>
<text text-anchor="middle" x="1412.7" y="-7.25" font-family="Helvetica,sans-Serif" font-size="10.00">/ConstructHexPart.cc</text>
</a>
</g>
</g>
<!-- Node6&#45;&gt;Node10 -->
<g id="edge9_Node000006_Node000010" class="edge">
<title>Node6&#45;&gt;Node10</title>
<g id="a_edge9_Node000006_Node000010"><a xlink:title=" ">
<path fill="none" stroke="#63b8ff" d="M1412.7,-57.59C1412.7,-49.85 1412.7,-41.22 1412.7,-33.98"/>
<polygon fill="#63b8ff" stroke="#63b8ff" points="1409.2,-57.54 1412.7,-67.54 1416.2,-57.54 1409.2,-57.54"/>
</a>
</g>
</g>
<!-- Node11 -->
<g id="Node000011" class="node">
<title>Node11</title>
<g id="a_Node000011"><a xlink:href="ConstructWorld_8cc.html" target="_top" xlink:title=" ">
<polygon fill="white" stroke="#666666" points="1612.2,-33.5 1491.2,-33.5 1491.2,0 1612.2,0 1612.2,-33.5"/>
<text text-anchor="start" x="1499.2" y="-20" font-family="Helvetica,sans-Serif" font-size="10.00">demo/src/Geometries</text>
<text text-anchor="middle" x="1551.7" y="-7.25" font-family="Helvetica,sans-Serif" font-size="10.00">/ConstructWorld.cc</text>
</a>
</g>
</g>
<!-- Node6&#45;&gt;Node11 -->
<g id="edge10_Node000006_Node000011" class="edge">
<title>Node6&#45;&gt;Node11</title>
<g id="a_edge10_Node000006_Node000011"><a xlink:title=" ">
<path fill="none" stroke="#63b8ff" d="M1445.29,-64.54C1466.11,-55.39 1493.16,-43.49 1514.78,-33.98"/>
<polygon fill="#63b8ff" stroke="#63b8ff" points="1444.16,-61.22 1436.42,-68.44 1446.98,-67.62 1444.16,-61.22"/>
</a>
</g>
</g>
<!-- Node14&#45;&gt;Node6 -->
<g id="edge14_Node000014_Node000006" class="edge">
<title>Node14&#45;&gt;Node6</title>
<g id="a_edge14_Node000014_Node000006"><a xlink:title=" ">
<path fill="none" stroke="#63b8ff" d="M1034.02,-130.24C1042.31,-128.84 1050.7,-127.47 1058.7,-126.25 1155.48,-111.49 1267.64,-97.67 1339.33,-89.24"/>
<polygon fill="#63b8ff" stroke="#63b8ff" points="1033.56,-126.77 1024.3,-131.92 1034.75,-133.67 1033.56,-126.77"/>
</a>
</g>
</g>
<!-- Node14&#45;&gt;Node13 -->
<g id="edge16_Node000014_Node000013" class="edge">
<title>Node14&#45;&gt;Node13</title>
<g id="a_edge16_Node000014_Node000013"><a xlink:title=" ">
<path fill="none" stroke="#63b8ff" d="M964.27,-121.1C959.46,-105.61 951.23,-84.64 938.7,-69.5 923.29,-50.89 899.5,-36.32 882.44,-27.45"/>
<polygon fill="#63b8ff" stroke="#63b8ff" points="960.89,-122.02 966.99,-130.68 967.62,-120.11 960.89,-122.02"/>
</a>
</g>
</g>
<!-- Node14&#45;&gt;Node15 -->
<g id="edge15_Node000014_Node000015" class="edge">
<title>Node14&#45;&gt;Node15</title>
<g id="a_edge15_Node000014_Node000015"><a xlink:title=" ">
<path fill="none" stroke="#63b8ff" d="M942.35,-126.67C922.23,-115.38 895.47,-100.38 878.17,-90.67"/>
<polygon fill="#63b8ff" stroke="#63b8ff" points="940.43,-129.6 950.86,-131.44 943.85,-123.49 940.43,-129.6"/>
</a>
</g>
</g>
<!-- Node16&#45;&gt;Node6 -->
<g id="edge18_Node000016_Node000006" class="edge">
<title>Node16&#45;&gt;Node6</title>
<g id="a_edge18_Node000016_Node000006"><a xlink:title=" ">
<path fill="none" stroke="#63b8ff" d="M1192.84,-129.74C1244.55,-118.25 1320.86,-101.29 1368.62,-90.67"/>
<polygon fill="#63b8ff" stroke="#63b8ff" points="1192.36,-126.26 1183.36,-131.85 1193.88,-133.1 1192.36,-126.26"/>
</a>
</g>
</g>
<!-- Node16&#45;&gt;Node13 -->
<g id="edge20_Node000016_Node000013" class="edge">
<title>Node16&#45;&gt;Node13</title>
<g id="a_edge20_Node000016_Node000013"><a xlink:title=" ">
<path fill="none" stroke="#63b8ff" d="M1137.89,-121.31C1136.88,-104.95 1132.72,-82.74 1118.7,-69.5 1092.39,-44.66 999.62,-30.71 933.1,-23.71"/>
<polygon fill="#63b8ff" stroke="#63b8ff" points="1134.38,-121 1138.12,-130.92 1141.38,-120.83 1134.38,-121"/>
</a>
</g>
</g>
<!-- Node16&#45;&gt;Node17 -->
<g id="edge19_Node000016_Node000017" class="edge">
<title>Node16&#45;&gt;Node17</title>
<g id="a_edge19_Node000016_Node000017"><a xlink:title=" ">
<path fill="none" stroke="#63b8ff" d="M1114.53,-125.73C1098.64,-114.56 1078.07,-100.11 1064.64,-90.67"/>
<polygon fill="#63b8ff" stroke="#63b8ff" points="1112.29,-128.42 1122.48,-131.31 1116.31,-122.7 1112.29,-128.42"/>
</a>
</g>
</g>
<!-- Node18&#45;&gt;Node13 -->
<g id="edge22_Node000018_Node000013" class="edge">
<title>Node18&#45;&gt;Node13</title>
<g id="a_edge22_Node000018_Node000013"><a xlink:title=" ">
<path fill="none" stroke="#63b8ff" d="M207.63,-69.68C208.32,-69.62 209.01,-69.56 209.7,-69.5 420.67,-51.14 670.29,-32.07 790.27,-23.06"/>
<polygon fill="#63b8ff" stroke="#63b8ff" points="207.44,-66.18 197.79,-70.55 208.06,-73.16 207.44,-66.18"/>
</a>
</g>
</g>
<!-- Node19&#45;&gt;Node6 -->
<g id="edge25_Node000019_Node000006" class="edge">
<title>Node19&#45;&gt;Node6</title>
<g id="a_edge25_Node000019_Node000006"><a xlink:title=" ">
<path fill="none" stroke="#63b8ff" d="M464.68,-136.54C669.2,-124.53 1154.59,-96.03 1339.46,-85.18"/>
<polygon fill="#63b8ff" stroke="#63b8ff" points="464.67,-133.03 454.89,-137.11 465.08,-140.02 464.67,-133.03"/>
</a>
</g>
</g>
<!-- Node19&#45;&gt;Node13 -->
<g id="edge28_Node000019_Node000013" class="edge">
<title>Node19&#45;&gt;Node13</title>
<g id="a_edge28_Node000019_Node000013"><a xlink:title=" ">
<path fill="none" stroke="#63b8ff" d="M383.75,-122.66C395.51,-105.59 415.07,-81.6 438.7,-69.5 498.46,-38.9 686.1,-25.68 790.26,-20.57"/>
<polygon fill="#63b8ff" stroke="#63b8ff" points="380.86,-120.68 378.29,-130.96 386.71,-124.52 380.86,-120.68"/>
</a>
</g>
</g>
<!-- Node19&#45;&gt;Node18 -->
<g id="edge24_Node000019_Node000018" class="edge">
<title>Node19&#45;&gt;Node18</title>
<g id="a_edge24_Node000019_Node000018"><a xlink:title=" ">
<path fill="none" stroke="#63b8ff" d="M318.74,-129.6C269.68,-118.11 197.67,-101.24 152.53,-90.67"/>
<polygon fill="#63b8ff" stroke="#63b8ff" points="317.75,-132.96 328.29,-131.83 319.35,-126.15 317.75,-132.96"/>
</a>
</g>
</g>
<!-- Node19&#45;&gt;Node20 -->
<g id="edge26_Node000019_Node000020" class="edge">
<title>Node19&#45;&gt;Node20</title>
<g id="a_edge26_Node000019_Node000020"><a xlink:title=" ">
<path fill="none" stroke="#63b8ff" d="M403.86,-127.44C428.96,-116.07 463.14,-100.6 485.06,-90.67"/>
<polygon fill="#63b8ff" stroke="#63b8ff" points="402.43,-124.24 394.77,-131.55 405.32,-130.62 402.43,-124.24"/>
</a>
</g>
</g>
<!-- Node19&#45;&gt;Node21 -->
<g id="edge27_Node000019_Node000021" class="edge">
<title>Node19&#45;&gt;Node21</title>
<g id="a_edge27_Node000019_Node000021"><a xlink:title=" ">
<path fill="none" stroke="#63b8ff" d="M428.71,-129.81C482.49,-118.32 562.08,-101.31 611.86,-90.67"/>
<polygon fill="#63b8ff" stroke="#63b8ff" points="428.18,-126.35 419.13,-131.86 429.64,-133.2 428.18,-126.35"/>
</a>
</g>
</g>
<!-- Node19&#45;&gt;Node22 -->
<g id="edge29_Node000019_Node000022" class="edge">
<title>Node19&#45;&gt;Node22</title>
<g id="a_edge29_Node000019_Node000022"><a xlink:title=" ">
<path fill="none" stroke="#63b8ff" d="M356.5,-123.42C347.6,-112.54 336.74,-99.27 329.55,-90.47"/>
<polygon fill="#63b8ff" stroke="#63b8ff" points="353.66,-125.48 362.71,-131.01 359.08,-121.05 353.66,-125.48"/>
</a>
</g>
</g>
<!-- Node23&#45;&gt;Node6 -->
<g id="edge40_Node000023_Node000006" class="edge">
<title>Node23&#45;&gt;Node6</title>
<g id="a_edge40_Node000023_Node000006"><a xlink:title=" ">
<path fill="none" stroke="#63b8ff" d="M807.04,-133.61C830.7,-131.15 856.75,-128.51 880.7,-126.25 1044.5,-110.78 1236.91,-94.95 1339.51,-86.69"/>
<polygon fill="#63b8ff" stroke="#63b8ff" points="806.72,-130.12 797.14,-134.64 807.45,-137.08 806.72,-130.12"/>
</a>
</g>
</g>
<!-- Node23&#45;&gt;Node12 -->
<g id="edge42_Node000023_Node000012" class="edge">
<title>Node23&#45;&gt;Node12</title>
<g id="a_edge42_Node000023_Node000012"><a xlink:title=" ">
<path fill="none" stroke="#63b8ff" d="M807.01,-133.21C830.66,-130.74 856.72,-128.19 880.7,-126.25 1153.16,-104.16 1222.59,-116.41 1494.7,-90.25 1497.5,-89.98 1500.37,-89.68 1503.27,-89.37"/>
<polygon fill="#63b8ff" stroke="#63b8ff" points="806.69,-129.72 797.11,-134.26 807.42,-136.69 806.69,-129.72"/>
</a>
</g>
</g>
<!-- Node23&#45;&gt;Node13 -->
<g id="edge46_Node000023_Node000013" class="edge">
<title>Node23&#45;&gt;Node13</title>
<g id="a_edge46_Node000023_Node000013"><a xlink:title=" ">
<path fill="none" stroke="#63b8ff" d="M744.45,-116.49C754.32,-101.73 767.93,-83.4 782.7,-69.5 801.08,-52.19 825.94,-36.98 842.82,-27.61"/>
<polygon fill="#63b8ff" stroke="#63b8ff" points="741.59,-114.47 739.08,-124.76 747.46,-118.28 741.59,-114.47"/>
</a>
</g>
</g>
<!-- Node23&#45;&gt;Node15 -->
<g id="edge43_Node000023_Node000015" class="edge">
<title>Node23&#45;&gt;Node15</title>
<g id="a_edge43_Node000023_Node000015"><a xlink:title=" ">
<path fill="none" stroke="#63b8ff" d="M773.98,-121.03C796.21,-110.74 821.93,-98.83 839.56,-90.67"/>
<polygon fill="#63b8ff" stroke="#63b8ff" points="772.7,-117.77 765.1,-125.14 775.64,-124.12 772.7,-117.77"/>
</a>
</g>
</g>
<!-- Node23&#45;&gt;Node17 -->
<g id="edge44_Node000023_Node000017" class="edge">
<title>Node23&#45;&gt;Node17</title>
<g id="a_edge44_Node000023_Node000017"><a xlink:title=" ">
<path fill="none" stroke="#63b8ff" d="M806.68,-127.2C866.35,-115.87 946.96,-100.57 998.9,-90.71"/>
<polygon fill="#63b8ff" stroke="#63b8ff" points="806.07,-123.75 796.9,-129.05 807.38,-130.63 806.07,-123.75"/>
</a>
</g>
</g>
<!-- Node23&#45;&gt;Node20 -->
<g id="edge41_Node000023_Node000020" class="edge">
<title>Node23&#45;&gt;Node20</title>
<g id="a_edge41_Node000023_Node000020"><a xlink:title=" ">
<path fill="none" stroke="#63b8ff" d="M659.08,-122.83C620.29,-112.15 573.63,-99.31 542.25,-90.67"/>
<polygon fill="#63b8ff" stroke="#63b8ff" points="657.76,-126.1 668.33,-125.38 659.62,-119.35 657.76,-126.1"/>
</a>
</g>
</g>
<!-- Node23&#45;&gt;Node21 -->
<g id="edge45_Node000023_Node000021" class="edge">
<title>Node23&#45;&gt;Node21</title>
<g id="a_edge45_Node000023_Node000021"><a xlink:title=" ">
<path fill="none" stroke="#63b8ff" d="M701.4,-118.5C690.19,-108.85 677.84,-98.21 669.13,-90.72"/>
<polygon fill="#63b8ff" stroke="#63b8ff" points="699.03,-121.08 708.9,-124.95 703.6,-115.78 699.03,-121.08"/>
</a>
</g>
</g>
<!-- Node23&#45;&gt;Node22 -->
<g id="edge47_Node000023_Node000022" class="edge">
<title>Node23&#45;&gt;Node22</title>
<g id="a_edge47_Node000023_Node000022"><a xlink:title=" ">
<path fill="none" stroke="#63b8ff" d="M650.96,-130.32C574.49,-118.84 459.05,-101.5 387.14,-90.7"/>
<polygon fill="#63b8ff" stroke="#63b8ff" points="650.04,-133.73 660.45,-131.75 651.08,-126.8 650.04,-133.73"/>
</a>
</g>
</g>
<!-- Node24&#45;&gt;Node13 -->
<g id="edge53_Node000024_Node000013" class="edge">
<title>Node24&#45;&gt;Node13</title>
<g id="a_edge53_Node000024_Node000013"><a xlink:title=" ">
<path fill="none" stroke="#63b8ff" d="M242.76,-202.38C130.32,-186.33 -56.33,-147.13 16.7,-69.5 43.05,-41.48 591.53,-24.68 790.44,-19.49"/>
<polygon fill="#63b8ff" stroke="#63b8ff" points="242.18,-205.83 252.57,-203.74 243.14,-198.9 242.18,-205.83"/>
</a>
</g>
</g>
<!-- Node24&#45;&gt;Node16 -->
<g id="edge49_Node000024_Node000016" class="edge">
<title>Node24&#45;&gt;Node16</title>
<g id="a_edge49_Node000024_Node000016"><a xlink:title=" ">
<path fill="none" stroke="#63b8ff" d="M398.71,-195.64C690.89,-158.72 770.07,-196.18 1058.7,-159.75 1070.21,-158.3 1082.57,-156.13 1094,-153.87"/>
<polygon fill="#63b8ff" stroke="#63b8ff" points="398.3,-192.16 388.83,-196.91 399.19,-199.11 398.3,-192.16"/>
</a>
</g>
</g>
<!-- Node24&#45;&gt;Node18 -->
<g id="edge51_Node000024_Node000018" class="edge">
<title>Node24&#45;&gt;Node18</title>
<g id="a_edge51_Node000024_Node000018"><a xlink:title=" ">
<path fill="none" stroke="#63b8ff" d="M242.94,-207.26C205.46,-201.31 162.51,-188.17 133.7,-159.75 114.61,-140.92 111.15,-107.21 110.66,-90.63"/>
<polygon fill="#63b8ff" stroke="#63b8ff" points="241.97,-210.65 252.36,-208.6 242.96,-203.72 241.97,-210.65"/>
</a>
</g>
</g>
<!-- Node24&#45;&gt;Node21 -->
<g id="edge52_Node000024_Node000021" class="edge">
<title>Node24&#45;&gt;Node21</title>
<g id="a_edge52_Node000024_Node000021"><a xlink:title=" ">
<path fill="none" stroke="#63b8ff" d="M376.75,-191.58C402.94,-182.14 434.5,-170.59 462.7,-159.75 524.91,-135.84 597.52,-105.94 634.09,-90.73"/>
<polygon fill="#63b8ff" stroke="#63b8ff" points="375.9,-188.17 367.68,-194.84 378.27,-194.75 375.9,-188.17"/>
</a>
</g>
</g>
<!-- Node24&#45;&gt;Node22 -->
<g id="edge54_Node000024_Node000022" class="edge">
<title>Node24&#45;&gt;Node22</title>
<g id="a_edge54_Node000024_Node000022"><a xlink:title=" ">
<path fill="none" stroke="#63b8ff" d="M275.56,-189.45C264.44,-181.69 253.94,-171.83 247.7,-159.75 240.86,-146.52 240.42,-139.24 247.7,-126.25 257.27,-109.16 276.2,-97.72 292.52,-90.61"/>
<polygon fill="#63b8ff" stroke="#63b8ff" points="273.39,-192.21 283.7,-194.65 277.16,-186.32 273.39,-192.21"/>
</a>
</g>
</g>
<!-- Node24&#45;&gt;Node23 -->
<g id="edge50_Node000024_Node000023" class="edge">
<title>Node24&#45;&gt;Node23</title>
<g id="a_edge50_Node000024_Node000023"><a xlink:title=" ">
<path fill="none" stroke="#63b8ff" d="M398.64,-195.45C496.09,-177.96 597.09,-162.78 661.76,-153.44"/>
<polygon fill="#63b8ff" stroke="#63b8ff" points="398.1,-191.99 388.88,-197.21 399.34,-198.88 398.1,-191.99"/>
</a>
</g>
</g>
</g>
</svg>
