<?xml version="1.0" encoding="UTF-8" standalone="no"?>
<!DOCTYPE svg PUBLIC "-//W3C//DTD SVG 1.1//EN"
 "http://www.w3.org/Graphics/SVG/1.1/DTD/svg11.dtd">
<!-- Generated by graphviz version 12.0.0 (20240803.0821)
 -->
<!-- Title: include/VolumeBuilderBase.hh Pages: 1 -->
<svg width="2073pt" height="439pt"
 viewBox="0.00 0.00 2073.02 438.75" xmlns="http://www.w3.org/2000/svg" xmlns:xlink="http://www.w3.org/1999/xlink">
<g id="graph0" class="graph" transform="scale(1 1) rotate(0) translate(4 434.75)">
<title>include/VolumeBuilderBase.hh</title>
<!-- Node1 -->
<g id="Node000001" class="node">
<title>Node1</title>
<g id="a_Node000001"><a xlink:title=" ">
<polygon fill="#999999" stroke="#666666" points="1499.77,-430.75 1335.27,-430.75 1335.27,-410 1499.77,-410 1499.77,-430.75"/>
<text text-anchor="middle" x="1417.52" y="-417.25" font-family="Helvetica,sans-Serif" font-size="10.00">include/VolumeBuilderBase.hh</text>
</a>
</g>
</g>
<!-- Node2 -->
<g id="Node000002" class="node">
<title>Node2</title>
<g id="a_Node000002"><a xlink:title=" ">
<polygon fill="#e0e0e0" stroke="#999999" points="961.39,-140.62 905.64,-140.62 905.64,-119.88 961.39,-119.88 961.39,-140.62"/>
<text text-anchor="middle" x="933.52" y="-127.12" font-family="Helvetica,sans-Serif" font-size="10.00">optional</text>
</a>
</g>
</g>
<!-- Node1&#45;&gt;Node2 -->
<g id="edge1_Node000001_Node000002" class="edge">
<title>Node1&#45;&gt;Node2</title>
<g id="a_edge1_Node000001_Node000002"><a xlink:title=" ">
<path fill="none" stroke="#63b8ff" d="M1334.92,-412.59C1174.06,-397.39 828.86,-354.31 764.52,-260.5 724.49,-202.15 803.1,-246.35 867.52,-203.75 889.38,-189.29 908.83,-165.98 920.85,-149.71"/>
<polygon fill="#63b8ff" stroke="#63b8ff" points="923.49,-152.04 926.45,-141.86 917.8,-147.97 923.49,-152.04"/>
</a>
</g>
</g>
<!-- Node3 -->
<g id="Node000003" class="node">
<title>Node3</title>
<g id="a_Node000003"><a xlink:href="Linkable_8hh.html" target="_top" xlink:title=" ">
<polygon fill="white" stroke="#666666" points="1565.27,-203.75 1493.77,-203.75 1493.77,-183 1565.27,-183 1565.27,-203.75"/>
<text text-anchor="middle" x="1529.52" y="-190.25" font-family="Helvetica,sans-Serif" font-size="10.00">Linkable.hh</text>
</a>
</g>
</g>
<!-- Node1&#45;&gt;Node3 -->
<g id="edge2_Node000001_Node000003" class="edge">
<title>Node1&#45;&gt;Node3</title>
<g id="a_edge2_Node000001_Node000003"><a xlink:title=" ">
<path fill="none" stroke="#63b8ff" d="M1499.96,-419.65C1585.44,-417.96 1710.81,-409.3 1741.52,-374 1803.22,-303.05 1648.07,-236.01 1570.51,-208.06"/>
<polygon fill="#63b8ff" stroke="#63b8ff" points="1571.68,-204.76 1561.09,-204.73 1569.35,-211.36 1571.68,-204.76"/>
</a>
</g>
</g>
<!-- Node4 -->
<g id="Node000004" class="node">
<title>Node4</title>
<g id="a_Node000004"><a xlink:title=" ">
<polygon fill="#e0e0e0" stroke="#999999" points="906.14,-77.5 848.89,-77.5 848.89,-56.75 906.14,-56.75 906.14,-77.5"/>
<text text-anchor="middle" x="877.52" y="-64" font-family="Helvetica,sans-Serif" font-size="10.00">memory</text>
</a>
</g>
</g>
<!-- Node1&#45;&gt;Node4 -->
<g id="edge55_Node000001_Node000004" class="edge">
<title>Node1&#45;&gt;Node4</title>
<g id="a_edge55_Node000001_Node000004"><a xlink:title=" ">
<path fill="none" stroke="#63b8ff" d="M1334.79,-418.74C1138.44,-416.69 648.7,-408.2 488.52,-374 352.75,-345.01 324.92,-315.64 197.52,-260.5 106.89,-221.28 49.61,-235.84 6.52,-147 0.02,-133.6 -3.74,-124.3 6.52,-113.5 13.77,-105.86 667.29,-77.18 837.4,-69.84"/>
<polygon fill="#63b8ff" stroke="#63b8ff" points="837.45,-73.35 847.29,-69.42 837.15,-66.35 837.45,-73.35"/>
</a>
</g>
</g>
<!-- Node5 -->
<g id="Node000005" class="node">
<title>Node5</title>
<g id="a_Node000005"><a xlink:title=" ">
<polygon fill="#e0e0e0" stroke="#999999" points="1695.27,-140.62 1647.77,-140.62 1647.77,-119.88 1695.27,-119.88 1695.27,-140.62"/>
<text text-anchor="middle" x="1671.52" y="-127.12" font-family="Helvetica,sans-Serif" font-size="10.00">mutex</text>
</a>
</g>
</g>
<!-- Node1&#45;&gt;Node5 -->
<g id="edge54_Node000001_Node000005" class="edge">
<title>Node1&#45;&gt;Node5</title>
<g id="a_edge54_Node000001_Node000005"><a xlink:title=" ">
<path fill="none" stroke="#63b8ff" d="M1499.93,-416.77C1587.57,-412.56 1719.16,-401.71 1760.52,-374 1788.67,-355.13 1798.52,-341.77 1798.52,-307.88 1798.52,-307.88 1798.52,-307.88 1798.52,-249.12 1798.52,-198.39 1743.4,-163.35 1705.79,-145.34"/>
<polygon fill="#63b8ff" stroke="#63b8ff" points="1707.63,-142.33 1697.08,-141.34 1704.71,-148.69 1707.63,-142.33"/>
</a>
</g>
</g>
<!-- Node8 -->
<g id="Node000008" class="node">
<title>Node8</title>
<g id="a_Node000008"><a xlink:title=" ">
<polygon fill="#e0e0e0" stroke="#999999" points="1209.89,-140.62 1163.14,-140.62 1163.14,-119.88 1209.89,-119.88 1209.89,-140.62"/>
<text text-anchor="middle" x="1186.52" y="-127.12" font-family="Helvetica,sans-Serif" font-size="10.00">vector</text>
</a>
</g>
</g>
<!-- Node1&#45;&gt;Node8 -->
<g id="edge42_Node000001_Node000008" class="edge">
<title>Node1&#45;&gt;Node8</title>
<g id="a_edge42_Node000001_Node000008"><a xlink:title=" ">
<path fill="none" stroke="#63b8ff" d="M1445.18,-409.51C1460.93,-402.3 1479.31,-390.81 1488.52,-374 1517.18,-321.67 1516.65,-292.37 1488.52,-239.75 1437.46,-144.28 1289.89,-131.23 1221.76,-130.48"/>
<polygon fill="#63b8ff" stroke="#63b8ff" points="1221.9,-126.98 1211.9,-130.47 1221.89,-133.98 1221.9,-126.98"/>
</a>
</g>
</g>
<!-- Node9 -->
<g id="Node000009" class="node">
<title>Node9</title>
<g id="a_Node000009"><a xlink:href="IVolumeBuilder_8hh.html" target="_top" xlink:title="Created by.">
<polygon fill="white" stroke="#666666" points="1107.77,-77.5 1003.27,-77.5 1003.27,-56.75 1107.77,-56.75 1107.77,-77.5"/>
<text text-anchor="middle" x="1055.52" y="-64" font-family="Helvetica,sans-Serif" font-size="10.00">IVolumeBuilder.hh</text>
</a>
</g>
</g>
<!-- Node1&#45;&gt;Node9 -->
<g id="edge8_Node000001_Node000009" class="edge">
<title>Node1&#45;&gt;Node9</title>
<g id="a_edge8_Node000001_Node000009"><a xlink:title=" ">
<path fill="none" stroke="#63b8ff" d="M1500.03,-416.65C1593.59,-412.29 1739.26,-401.24 1786.52,-374 1818.44,-355.6 1836.52,-344.72 1836.52,-307.88 1836.52,-307.88 1836.52,-307.88 1836.52,-192.38 1836.52,-124.03 1769.72,-133.97 1704.52,-113.5 1596.69,-79.65 1260.83,-70.99 1119.36,-68.83"/>
<polygon fill="#63b8ff" stroke="#63b8ff" points="1119.46,-65.33 1109.41,-68.68 1119.36,-72.33 1119.46,-65.33"/>
</a>
</g>
</g>
<!-- Node13 -->
<g id="Node000013" class="node">
<title>Node13</title>
<g id="a_Node000013"><a xlink:href="ISolidBuilder_8hh_source.html" target="_top" xlink:title=" ">
<polygon fill="white" stroke="#666666" points="678.39,-260.5 586.64,-260.5 586.64,-239.75 678.39,-239.75 678.39,-260.5"/>
<text text-anchor="middle" x="632.52" y="-247" font-family="Helvetica,sans-Serif" font-size="10.00">ISolidBuilder.hh</text>
</a>
</g>
</g>
<!-- Node1&#45;&gt;Node13 -->
<g id="edge12_Node000001_Node000013" class="edge">
<title>Node1&#45;&gt;Node13</title>
<g id="a_edge12_Node000001_Node000013"><a xlink:title=" ">
<path fill="none" stroke="#63b8ff" d="M1334.81,-417.64C1163.79,-413.52 782.85,-401.36 730.52,-374 686.95,-351.22 656.16,-299.64 641.75,-271.08"/>
<polygon fill="#63b8ff" stroke="#63b8ff" points="644.9,-269.56 637.39,-262.09 638.6,-272.61 644.9,-269.56"/>
</a>
</g>
</g>
<!-- Node14 -->
<g id="Node000014" class="node">
<title>Node14</title>
<g id="a_Node000014"><a xlink:href="VolumeBuildersTypes_8hh.html" target="_top" xlink:title=" ">
<polygon fill="white" stroke="#666666" points="858.14,-203.75 722.89,-203.75 722.89,-183 858.14,-183 858.14,-203.75"/>
<text text-anchor="middle" x="790.52" y="-190.25" font-family="Helvetica,sans-Serif" font-size="10.00">VolumeBuildersTypes.hh</text>
</a>
</g>
</g>
<!-- Node1&#45;&gt;Node14 -->
<g id="edge44_Node000001_Node000014" class="edge">
<title>Node1&#45;&gt;Node14</title>
<g id="a_edge44_Node000001_Node000014"><a xlink:title=" ">
<path fill="none" stroke="#63b8ff" d="M1334.95,-417.3C1158.41,-412.42 755.63,-398.7 698.52,-374 624.79,-342.11 526.98,-302.19 577.52,-239.75 586.3,-228.9 655.81,-215.47 713.07,-206.05"/>
<polygon fill="#63b8ff" stroke="#63b8ff" points="713.54,-209.52 722.85,-204.46 712.42,-202.61 713.54,-209.52"/>
</a>
</g>
</g>
<!-- Node15 -->
<g id="Node000015" class="node">
<title>Node15</title>
<g id="a_Node000015"><a xlink:title=" ">
<polygon fill="#e0e0e0" stroke="#999999" points="849.64,-140.62 747.39,-140.62 747.39,-119.88 849.64,-119.88 849.64,-140.62"/>
<text text-anchor="middle" x="798.52" y="-127.12" font-family="Helvetica,sans-Serif" font-size="10.00">G4ThreeVector.hh</text>
</a>
</g>
</g>
<!-- Node1&#45;&gt;Node15 -->
<g id="edge53_Node000001_Node000015" class="edge">
<title>Node1&#45;&gt;Node15</title>
<g id="a_edge53_Node000001_Node000015"><a xlink:title=" ">
<path fill="none" stroke="#63b8ff" d="M1334.96,-420.1C1163.27,-420.69 773.36,-417.07 648.52,-374 606.62,-359.55 588.79,-355.57 566.52,-317.25 549.17,-287.41 542.87,-268.8 561.52,-239.75 583.77,-205.08 694.25,-164.85 756.2,-144.5"/>
<polygon fill="#63b8ff" stroke="#63b8ff" points="756.94,-147.94 765.37,-141.52 754.77,-141.28 756.94,-147.94"/>
</a>
</g>
</g>
<!-- Node19 -->
<g id="Node000019" class="node">
<title>Node19</title>
<g id="a_Node000019"><a xlink:href="i__shared__ptr_8hh.html" target="_top" xlink:title=" ">
<polygon fill="white" stroke="#666666" points="1107.64,-140.62 1017.39,-140.62 1017.39,-119.88 1107.64,-119.88 1107.64,-140.62"/>
<text text-anchor="middle" x="1062.52" y="-127.12" font-family="Helvetica,sans-Serif" font-size="10.00">i_shared_ptr.hh</text>
</a>
</g>
</g>
<!-- Node1&#45;&gt;Node19 -->
<g id="edge43_Node000001_Node000019" class="edge">
<title>Node1&#45;&gt;Node19</title>
<g id="a_edge43_Node000001_Node000019"><a xlink:title=" ">
<path fill="none" stroke="#63b8ff" d="M1421.98,-409.87C1434.61,-381.47 1467.47,-295.77 1432.52,-239.75 1402.13,-191.06 1370.85,-201.49 1316.52,-183 1280.7,-170.81 1182.34,-152.31 1119.06,-141.04"/>
<polygon fill="#63b8ff" stroke="#63b8ff" points="1120.01,-137.66 1109.55,-139.36 1118.79,-144.55 1120.01,-137.66"/>
</a>
</g>
</g>
<!-- Node20 -->
<g id="Node000020" class="node">
<title>Node20</title>
<g id="a_Node000020"><a xlink:href="VolumeBuilderConfigs_8hh.html" target="_top" xlink:title=" ">
<polygon fill="white" stroke="#666666" points="585.64,-203.75 447.39,-203.75 447.39,-183 585.64,-183 585.64,-203.75"/>
<text text-anchor="middle" x="516.52" y="-190.25" font-family="Helvetica,sans-Serif" font-size="10.00">VolumeBuilderConfigs.hh</text>
</a>
</g>
</g>
<!-- Node1&#45;&gt;Node20 -->
<g id="edge31_Node000001_Node000020" class="edge">
<title>Node1&#45;&gt;Node20</title>
<g id="a_edge31_Node000001_Node000020"><a xlink:title=" ">
<path fill="none" stroke="#63b8ff" d="M1334.86,-418.31C1115.76,-415.09 534.83,-403.76 506.52,-374 465.33,-330.71 491.28,-251.82 507.03,-214.7"/>
<polygon fill="#63b8ff" stroke="#63b8ff" points="510.21,-216.16 511.07,-205.6 503.81,-213.32 510.21,-216.16"/>
</a>
</g>
</g>
<!-- Node21 -->
<g id="Node000021" class="node">
<title>Node21</title>
<g id="a_Node000021"><a xlink:title=" ">
<polygon fill="#e0e0e0" stroke="#999999" points="91.14,-140.62 15.89,-140.62 15.89,-119.88 91.14,-119.88 91.14,-140.62"/>
<text text-anchor="middle" x="53.52" y="-127.12" font-family="Helvetica,sans-Serif" font-size="10.00">G4Colour.hh</text>
</a>
</g>
</g>
<!-- Node1&#45;&gt;Node21 -->
<g id="edge50_Node000001_Node000021" class="edge">
<title>Node1&#45;&gt;Node21</title>
<g id="a_edge50_Node000001_Node000021"><a xlink:title=" ">
<path fill="none" stroke="#63b8ff" d="M1334.87,-419.8C1042.91,-420.92 75.05,-421.05 29.52,-374 -29.94,-312.57 19.29,-197.09 42.77,-150.99"/>
<polygon fill="#63b8ff" stroke="#63b8ff" points="45.73,-152.89 47.28,-142.41 39.53,-149.64 45.73,-152.89"/>
</a>
</g>
</g>
<!-- Node25 -->
<g id="Node000025" class="node">
<title>Node25</title>
<g id="a_Node000025"><a xlink:href="PlacementNameRegistry_8hh_source.html" target="_top" xlink:title=" ">
<polygon fill="white" stroke="#666666" points="1732.02,-374 1581.02,-374 1581.02,-353.25 1732.02,-353.25 1732.02,-374"/>
<text text-anchor="middle" x="1656.52" y="-360.5" font-family="Helvetica,sans-Serif" font-size="10.00">PlacementNameRegistry.hh</text>
</a>
</g>
</g>
<!-- Node1&#45;&gt;Node25 -->
<g id="edge45_Node000001_Node000025" class="edge">
<title>Node1&#45;&gt;Node25</title>
<g id="a_edge45_Node000001_Node000025"><a xlink:title=" ">
<path fill="none" stroke="#63b8ff" d="M1460.52,-409.52C1500.24,-400.42 1559.43,-386.87 1602.36,-377.03"/>
<polygon fill="#63b8ff" stroke="#63b8ff" points="1603.01,-380.47 1611.98,-374.83 1601.45,-373.65 1603.01,-380.47"/>
</a>
</g>
</g>
<!-- Node27 -->
<g id="Node000027" class="node">
<title>Node27</title>
<g id="a_Node000027"><a xlink:title=" ">
<polygon fill="#e0e0e0" stroke="#999999" points="1632.77,-317.25 1540.27,-317.25 1540.27,-296.5 1632.77,-296.5 1632.77,-317.25"/>
<text text-anchor="middle" x="1586.52" y="-303.75" font-family="Helvetica,sans-Serif" font-size="10.00">unordered_map</text>
</a>
</g>
</g>
<!-- Node1&#45;&gt;Node27 -->
<g id="edge56_Node000001_Node000027" class="edge">
<title>Node1&#45;&gt;Node27</title>
<g id="a_edge56_Node000001_Node000027"><a xlink:title=" ">
<path fill="none" stroke="#63b8ff" d="M1451.4,-409.57C1473.96,-402.04 1503.57,-390.18 1526.52,-374 1545.04,-360.93 1561.98,-341.22 1573.1,-326.71"/>
<polygon fill="#63b8ff" stroke="#63b8ff" points="1575.78,-328.98 1578.92,-318.86 1570.15,-324.81 1575.78,-328.98"/>
</a>
</g>
</g>
<!-- Node28 -->
<g id="Node000028" class="node">
<title>Node28</title>
<g id="a_Node000028"><a xlink:title=" ">
<polygon fill="#e0e0e0" stroke="#999999" points="1950.02,-374 1865.02,-374 1865.02,-353.25 1950.02,-353.25 1950.02,-374"/>
<text text-anchor="middle" x="1907.52" y="-360.5" font-family="Helvetica,sans-Serif" font-size="10.00">G4Material.hh</text>
</a>
</g>
</g>
<!-- Node1&#45;&gt;Node28 -->
<g id="edge49_Node000001_Node000028" class="edge">
<title>Node1&#45;&gt;Node28</title>
<g id="a_edge49_Node000001_Node000028"><a xlink:title=" ">
<path fill="none" stroke="#63b8ff" d="M1499.89,-412.19C1587.13,-404.24 1728.79,-390.37 1850.52,-374 1851.52,-373.87 1852.53,-373.73 1853.54,-373.59"/>
<polygon fill="#63b8ff" stroke="#63b8ff" points="1853.72,-377.1 1863.11,-372.18 1852.7,-370.17 1853.72,-377.1"/>
</a>
</g>
</g>
<!-- Node29 -->
<g id="Node000029" class="node">
<title>Node29</title>
<g id="a_Node000029"><a xlink:title=" ">
<polygon fill="#e0e0e0" stroke="#999999" points="1408.77,-260.5 1280.27,-260.5 1280.27,-239.75 1408.77,-239.75 1408.77,-260.5"/>
<text text-anchor="middle" x="1344.52" y="-247" font-family="Helvetica,sans-Serif" font-size="10.00">G4VPhysicalVolume.hh</text>
</a>
</g>
</g>
<!-- Node1&#45;&gt;Node29 -->
<g id="edge51_Node000001_Node000029" class="edge">
<title>Node1&#45;&gt;Node29</title>
<g id="a_edge51_Node000001_Node000029"><a xlink:title=" ">
<path fill="none" stroke="#63b8ff" d="M1413.38,-409.85C1401.84,-383.25 1369.09,-307.77 1353.28,-271.32"/>
<polygon fill="#63b8ff" stroke="#63b8ff" points="1356.58,-270.14 1349.39,-262.36 1350.16,-272.92 1356.58,-270.14"/>
</a>
</g>
</g>
<!-- Node30 -->
<g id="Node000030" class="node">
<title>Node30</title>
<g id="a_Node000030"><a xlink:title=" ">
<polygon fill="#e0e0e0" stroke="#999999" points="2065.02,-374 1968.02,-374 1968.02,-353.25 2065.02,-353.25 2065.02,-374"/>
<text text-anchor="middle" x="2016.52" y="-360.5" font-family="Helvetica,sans-Serif" font-size="10.00">G4UnionSolid.hh</text>
</a>
</g>
</g>
<!-- Node1&#45;&gt;Node30 -->
<g id="edge52_Node000001_Node000030" class="edge">
<title>Node1&#45;&gt;Node30</title>
<g id="a_edge52_Node000001_Node000030"><a xlink:title=" ">
<path fill="none" stroke="#63b8ff" d="M1499.91,-414.52C1603.98,-407.93 1788.82,-394.71 1956.46,-374.3"/>
<polygon fill="#63b8ff" stroke="#63b8ff" points="1956.73,-377.79 1966.23,-373.09 1955.88,-370.84 1956.73,-377.79"/>
</a>
</g>
</g>
<!-- Node31 -->
<g id="Node000031" class="node">
<title>Node31</title>
<g id="a_Node000031"><a xlink:href="AssemblyCore_8hh.html" target="_top" xlink:title=" ">
<polygon fill="white" stroke="#666666" points="1332.27,-374 1230.77,-374 1230.77,-353.25 1332.27,-353.25 1332.27,-374"/>
<text text-anchor="middle" x="1281.52" y="-360.5" font-family="Helvetica,sans-Serif" font-size="10.00">AssemblyCore.hh</text>
</a>
</g>
</g>
<!-- Node1&#45;&gt;Node31 -->
<g id="edge57_Node000001_Node000031" class="edge">
<title>Node1&#45;&gt;Node31</title>
<g id="a_edge57_Node000001_Node000031"><a xlink:title=" ">
<path fill="none" stroke="#63b8ff" d="M1393.2,-409.59C1371.73,-400.94 1340.19,-388.25 1316.1,-378.55"/>
<polygon fill="#63b8ff" stroke="#63b8ff" points="1317.61,-375.38 1307.02,-374.89 1314.99,-381.88 1317.61,-375.38"/>
</a>
</g>
</g>
<!-- Node3&#45;&gt;Node4 -->
<g id="edge3_Node000003_Node000004" class="edge">
<title>Node3&#45;&gt;Node4</title>
<g id="a_edge3_Node000003_Node000004"><a xlink:title=" ">
<path fill="none" stroke="#63b8ff" d="M1520.41,-182.68C1501.35,-162.5 1458.3,-117.51 1449.52,-113.5 1357.26,-71.34 1095.62,-85.55 994.52,-77.5 968.91,-75.46 940.16,-73.16 917.57,-71.34"/>
<polygon fill="#63b8ff" stroke="#63b8ff" points="918.12,-67.88 907.87,-70.57 917.56,-74.86 918.12,-67.88"/>
</a>
</g>
</g>
<!-- Node3&#45;&gt;Node5 -->
<g id="edge4_Node000003_Node000005" class="edge">
<title>Node3&#45;&gt;Node5</title>
<g id="a_edge4_Node000003_Node000005"><a xlink:title=" ">
<path fill="none" stroke="#63b8ff" d="M1552.33,-182.55C1575.62,-172.53 1612.01,-156.87 1638.45,-145.48"/>
<polygon fill="#63b8ff" stroke="#63b8ff" points="1639.57,-148.81 1647.37,-141.64 1636.8,-142.38 1639.57,-148.81"/>
</a>
</g>
</g>
<!-- Node6 -->
<g id="Node000006" class="node">
<title>Node6</title>
<g id="a_Node000006"><a xlink:title=" ">
<polygon fill="#e0e0e0" stroke="#999999" points="1440.52,-140.62 1376.52,-140.62 1376.52,-119.88 1440.52,-119.88 1440.52,-140.62"/>
<text text-anchor="middle" x="1408.52" y="-127.12" font-family="Helvetica,sans-Serif" font-size="10.00">stdexcept</text>
</a>
</g>
</g>
<!-- Node3&#45;&gt;Node6 -->
<g id="edge5_Node000003_Node000006" class="edge">
<title>Node3&#45;&gt;Node6</title>
<g id="a_edge5_Node000003_Node000006"><a xlink:title=" ">
<path fill="none" stroke="#63b8ff" d="M1510.07,-182.55C1490.58,-172.71 1460.32,-157.42 1437.9,-146.09"/>
<polygon fill="#63b8ff" stroke="#63b8ff" points="1439.76,-143.11 1429.26,-141.73 1436.61,-149.36 1439.76,-143.11"/>
</a>
</g>
</g>
<!-- Node7 -->
<g id="Node000007" class="node">
<title>Node7</title>
<g id="a_Node000007"><a xlink:title=" ">
<polygon fill="#e0e0e0" stroke="#999999" points="1564.77,-140.62 1496.27,-140.62 1496.27,-119.88 1564.77,-119.88 1564.77,-140.62"/>
<text text-anchor="middle" x="1530.52" y="-127.12" font-family="Helvetica,sans-Serif" font-size="10.00">type_traits</text>
</a>
</g>
</g>
<!-- Node3&#45;&gt;Node7 -->
<g id="edge6_Node000003_Node000007" class="edge">
<title>Node3&#45;&gt;Node7</title>
<g id="a_edge6_Node000003_Node000007"><a xlink:title=" ">
<path fill="none" stroke="#63b8ff" d="M1529.68,-182.55C1529.81,-174.4 1530,-162.51 1530.17,-152.23"/>
<polygon fill="#63b8ff" stroke="#63b8ff" points="1533.67,-152.41 1530.33,-142.36 1526.67,-152.3 1533.67,-152.41"/>
</a>
</g>
</g>
<!-- Node3&#45;&gt;Node8 -->
<g id="edge7_Node000003_Node000008" class="edge">
<title>Node3&#45;&gt;Node8</title>
<g id="a_edge7_Node000003_Node000008"><a xlink:title=" ">
<path fill="none" stroke="#63b8ff" d="M1493.47,-185.57C1488.78,-184.7 1484.03,-183.82 1479.52,-183 1386.24,-166.02 1276.11,-146.79 1221.24,-137.26"/>
<polygon fill="#63b8ff" stroke="#63b8ff" points="1222.02,-133.84 1211.57,-135.58 1220.82,-140.74 1222.02,-133.84"/>
</a>
</g>
</g>
<!-- Node10 -->
<g id="Node000010" class="node">
<title>Node10</title>
<g id="a_Node000010"><a xlink:title=" ">
<polygon fill="#e0e0e0" stroke="#999999" points="945.39,-20.75 829.64,-20.75 829.64,0 945.39,0 945.39,-20.75"/>
<text text-anchor="middle" x="887.52" y="-7.25" font-family="Helvetica,sans-Serif" font-size="10.00">G4LogicalVolume.hh</text>
</a>
</g>
</g>
<!-- Node9&#45;&gt;Node10 -->
<g id="edge9_Node000009_Node000010" class="edge">
<title>Node9&#45;&gt;Node10</title>
<g id="a_edge9_Node000009_Node000010"><a xlink:title=" ">
<path fill="none" stroke="#63b8ff" d="M1025.48,-56.34C998.33,-47.49 958.14,-34.39 928.13,-24.61"/>
<polygon fill="#63b8ff" stroke="#63b8ff" points="929.6,-21.41 919.01,-21.64 927.44,-28.07 929.6,-21.41"/>
</a>
</g>
</g>
<!-- Node11 -->
<g id="Node000011" class="node">
<title>Node11</title>
<g id="a_Node000011"><a xlink:title=" ">
<polygon fill="#e0e0e0" stroke="#999999" points="1188.89,-20.75 1082.14,-20.75 1082.14,0 1188.89,0 1188.89,-20.75"/>
<text text-anchor="middle" x="1135.52" y="-7.25" font-family="Helvetica,sans-Serif" font-size="10.00">G4Transform3D.hh</text>
</a>
</g>
</g>
<!-- Node9&#45;&gt;Node11 -->
<g id="edge10_Node000009_Node000011" class="edge">
<title>Node9&#45;&gt;Node11</title>
<g id="a_edge10_Node000009_Node000011"><a xlink:title=" ">
<path fill="none" stroke="#63b8ff" d="M1069.82,-56.34C1081.54,-48.32 1098.35,-36.81 1112.04,-27.44"/>
<polygon fill="#63b8ff" stroke="#63b8ff" points="1113.81,-30.47 1120.09,-21.93 1109.86,-24.69 1113.81,-30.47"/>
</a>
</g>
</g>
<!-- Node12 -->
<g id="Node000012" class="node">
<title>Node12</title>
<g id="a_Node000012"><a xlink:title=" ">
<polygon fill="#e0e0e0" stroke="#999999" points="1039.14,-20.75 963.89,-20.75 963.89,0 1039.14,0 1039.14,-20.75"/>
<text text-anchor="middle" x="1001.52" y="-7.25" font-family="Helvetica,sans-Serif" font-size="10.00">G4VSolid.hh</text>
</a>
</g>
</g>
<!-- Node9&#45;&gt;Node12 -->
<g id="edge11_Node000009_Node000012" class="edge">
<title>Node9&#45;&gt;Node12</title>
<g id="a_edge11_Node000009_Node000012"><a xlink:title=" ">
<path fill="none" stroke="#63b8ff" d="M1045.86,-56.34C1038.41,-48.78 1027.91,-38.14 1018.99,-29.1"/>
<polygon fill="#63b8ff" stroke="#63b8ff" points="1021.66,-26.82 1012.15,-22.16 1016.68,-31.73 1021.66,-26.82"/>
</a>
</g>
</g>
<!-- Node13&#45;&gt;Node3 -->
<g id="edge16_Node000013_Node000003" class="edge">
<title>Node13&#45;&gt;Node3</title>
<g id="a_edge16_Node000013_Node000003"><a xlink:title=" ">
<path fill="none" stroke="#63b8ff" d="M678.63,-245.72C703.97,-243.88 735.97,-241.61 764.52,-239.75 1035.94,-222.06 1361.74,-203.69 1481.95,-197"/>
<polygon fill="#63b8ff" stroke="#63b8ff" points="1481.97,-200.51 1491.76,-196.46 1481.58,-193.52 1481.97,-200.51"/>
</a>
</g>
</g>
<!-- Node13&#45;&gt;Node10 -->
<g id="edge13_Node000013_Node000010" class="edge">
<title>Node13&#45;&gt;Node10</title>
<g id="a_edge13_Node000013_Node000010"><a xlink:title=" ">
<path fill="none" stroke="#63b8ff" d="M586.22,-246.74C474.44,-239.93 194.86,-216.18 138.52,-147 129.11,-135.46 128.83,-124.81 138.52,-113.5 182.49,-62.18 640.59,-27.33 817.93,-15.67"/>
<polygon fill="#63b8ff" stroke="#63b8ff" points="817.94,-19.18 827.69,-15.03 817.49,-12.19 817.94,-19.18"/>
</a>
</g>
</g>
<!-- Node13&#45;&gt;Node11 -->
<g id="edge14_Node000013_Node000011" class="edge">
<title>Node13&#45;&gt;Node11</title>
<g id="a_edge14_Node000013_Node000011"><a xlink:title=" ">
<path fill="none" stroke="#63b8ff" d="M678.58,-246.06C787.76,-237.8 1057.55,-211.2 1116.52,-147 1145.37,-115.59 1143.11,-61.61 1139.18,-32.11"/>
<polygon fill="#63b8ff" stroke="#63b8ff" points="1142.7,-31.95 1137.71,-22.6 1135.78,-33.02 1142.7,-31.95"/>
</a>
</g>
</g>
<!-- Node13&#45;&gt;Node12 -->
<g id="edge15_Node000013_Node000012" class="edge">
<title>Node13&#45;&gt;Node12</title>
<g id="a_edge15_Node000013_Node000012"><a xlink:title=" ">
<path fill="none" stroke="#63b8ff" d="M638.13,-239.53C652.42,-215.76 692.27,-153.22 738.52,-113.5 777.57,-79.95 791.94,-76.45 839.52,-56.75 876.33,-41.51 919.91,-29.63 952.59,-21.85"/>
<polygon fill="#63b8ff" stroke="#63b8ff" points="953.25,-25.29 962.19,-19.62 951.66,-18.47 953.25,-25.29"/>
</a>
</g>
</g>
<!-- Node13&#45;&gt;Node14 -->
<g id="edge17_Node000013_Node000014" class="edge">
<title>Node13&#45;&gt;Node14</title>
<g id="a_edge17_Node000013_Node000014"><a xlink:title=" ">
<path fill="none" stroke="#63b8ff" d="M660.76,-239.34C686.07,-230.57 723.44,-217.62 751.58,-207.87"/>
<polygon fill="#63b8ff" stroke="#63b8ff" points="752.51,-211.25 760.82,-204.67 750.22,-204.63 752.51,-211.25"/>
</a>
</g>
</g>
<!-- Node14&#45;&gt;Node2 -->
<g id="edge20_Node000014_Node000002" class="edge">
<title>Node14&#45;&gt;Node2</title>
<g id="a_edge20_Node000014_Node000002"><a xlink:title=" ">
<path fill="none" stroke="#63b8ff" d="M813.49,-182.55C836.94,-172.53 873.59,-156.87 900.22,-145.48"/>
<polygon fill="#63b8ff" stroke="#63b8ff" points="901.39,-148.79 909.21,-141.64 898.63,-142.35 901.39,-148.79"/>
</a>
</g>
</g>
<!-- Node14&#45;&gt;Node4 -->
<g id="edge19_Node000014_Node000004" class="edge">
<title>Node14&#45;&gt;Node4</title>
<g id="a_edge19_Node000014_Node000004"><a xlink:title=" ">
<path fill="none" stroke="#63b8ff" d="M813.39,-182.58C828.42,-174.99 847.31,-163.06 858.52,-147 870.46,-129.88 874.95,-106.14 876.6,-89.19"/>
<polygon fill="#63b8ff" stroke="#63b8ff" points="880.09,-89.5 877.29,-79.28 873.11,-89.02 880.09,-89.5"/>
</a>
</g>
</g>
<!-- Node14&#45;&gt;Node8 -->
<g id="edge21_Node000014_Node000008" class="edge">
<title>Node14&#45;&gt;Node8</title>
<g id="a_edge21_Node000014_Node000008"><a xlink:title=" ">
<path fill="none" stroke="#63b8ff" d="M858.52,-184.58C924.65,-176.6 1027.83,-163.12 1116.52,-147 1127.98,-144.92 1140.4,-142.25 1151.56,-139.71"/>
<polygon fill="#63b8ff" stroke="#63b8ff" points="1152.22,-143.15 1161.17,-137.48 1150.63,-136.34 1152.22,-143.15"/>
</a>
</g>
</g>
<!-- Node14&#45;&gt;Node15 -->
<g id="edge18_Node000014_Node000015" class="edge">
<title>Node14&#45;&gt;Node15</title>
<g id="a_edge18_Node000014_Node000015"><a xlink:title=" ">
<path fill="none" stroke="#63b8ff" d="M791.8,-182.55C792.87,-174.4 794.42,-162.51 795.77,-152.23"/>
<polygon fill="#63b8ff" stroke="#63b8ff" points="799.24,-152.72 797.06,-142.35 792.29,-151.81 799.24,-152.72"/>
</a>
</g>
</g>
<!-- Node16 -->
<g id="Node000016" class="node">
<title>Node16</title>
<g id="a_Node000016"><a xlink:href="disableable__shared__from__this_8hh.html" target="_top" xlink:title="Created by.">
<polygon fill="white" stroke="#666666" points="653.77,-147 543.27,-147 543.27,-113.5 653.77,-113.5 653.77,-147"/>
<text text-anchor="start" x="551.27" y="-133.5" font-family="Helvetica,sans-Serif" font-size="10.00">disableable_shared</text>
<text text-anchor="middle" x="598.52" y="-120.75" font-family="Helvetica,sans-Serif" font-size="10.00">_from_this.hh</text>
</a>
</g>
</g>
<!-- Node14&#45;&gt;Node16 -->
<g id="edge22_Node000014_Node000016" class="edge">
<title>Node14&#45;&gt;Node16</title>
<g id="a_edge22_Node000014_Node000016"><a xlink:title=" ">
<path fill="none" stroke="#63b8ff" d="M759.67,-182.55C732.88,-174.03 693.29,-161.42 660.05,-150.84"/>
<polygon fill="#63b8ff" stroke="#63b8ff" points="661.54,-147.64 650.95,-147.94 659.42,-154.31 661.54,-147.64"/>
</a>
</g>
</g>
<!-- Node14&#45;&gt;Node19 -->
<g id="edge26_Node000014_Node000019" class="edge">
<title>Node14&#45;&gt;Node19</title>
<g id="a_edge26_Node000014_Node000019"><a xlink:title=" ">
<path fill="none" stroke="#63b8ff" d="M834.22,-182.55C881.41,-171.95 956.67,-155.04 1007.77,-143.55"/>
<polygon fill="#63b8ff" stroke="#63b8ff" points="1008.46,-146.99 1017.45,-141.38 1006.92,-140.16 1008.46,-146.99"/>
</a>
</g>
</g>
<!-- Node16&#45;&gt;Node4 -->
<g id="edge25_Node000016_Node000004" class="edge">
<title>Node16&#45;&gt;Node4</title>
<g id="a_edge25_Node000016_Node000004"><a xlink:title=" ">
<path fill="none" stroke="#63b8ff" d="M653.97,-117.1C708.14,-105.23 789.28,-87.46 837.45,-76.9"/>
<polygon fill="#63b8ff" stroke="#63b8ff" points="838.17,-80.33 847.19,-74.77 836.67,-73.49 838.17,-80.33"/>
</a>
</g>
</g>
<!-- Node17 -->
<g id="Node000017" class="node">
<title>Node17</title>
<g id="a_Node000017"><a xlink:title=" ">
<polygon fill="#e0e0e0" stroke="#999999" points="563.39,-77.5 513.64,-77.5 513.64,-56.75 563.39,-56.75 563.39,-77.5"/>
<text text-anchor="middle" x="538.52" y="-64" font-family="Helvetica,sans-Serif" font-size="10.00">atomic</text>
</a>
</g>
</g>
<!-- Node16&#45;&gt;Node17 -->
<g id="edge23_Node000016_Node000017" class="edge">
<title>Node16&#45;&gt;Node17</title>
<g id="a_edge23_Node000016_Node000017"><a xlink:title=" ">
<path fill="none" stroke="#63b8ff" d="M582.75,-113.19C574.61,-104.89 564.64,-94.74 556.23,-86.18"/>
<polygon fill="#63b8ff" stroke="#63b8ff" points="558.74,-83.73 549.24,-79.05 553.74,-88.64 558.74,-83.73"/>
</a>
</g>
</g>
<!-- Node18 -->
<g id="Node000018" class="node">
<title>Node18</title>
<g id="a_Node000018"><a xlink:title=" ">
<polygon fill="#e0e0e0" stroke="#999999" points="641.27,-77.5 581.77,-77.5 581.77,-56.75 641.27,-56.75 641.27,-77.5"/>
<text text-anchor="middle" x="611.52" y="-64" font-family="Helvetica,sans-Serif" font-size="10.00">iostream</text>
</a>
</g>
</g>
<!-- Node16&#45;&gt;Node18 -->
<g id="edge24_Node000016_Node000018" class="edge">
<title>Node16&#45;&gt;Node18</title>
<g id="a_edge24_Node000016_Node000018"><a xlink:title=" ">
<path fill="none" stroke="#63b8ff" d="M601.93,-113.19C603.49,-105.85 605.36,-97.07 607.03,-89.21"/>
<polygon fill="#63b8ff" stroke="#63b8ff" points="610.45,-89.96 609.11,-79.45 603.6,-88.5 610.45,-89.96"/>
</a>
</g>
</g>
<!-- Node19&#45;&gt;Node4 -->
<g id="edge29_Node000019_Node000004" class="edge">
<title>Node19&#45;&gt;Node4</title>
<g id="a_edge29_Node000019_Node000004"><a xlink:title=" ">
<path fill="none" stroke="#63b8ff" d="M1032.79,-119.43C1001.46,-109.08 951.92,-92.71 917.25,-81.25"/>
<polygon fill="#63b8ff" stroke="#63b8ff" points="918.59,-78.01 907.99,-78.19 916.39,-84.66 918.59,-78.01"/>
</a>
</g>
</g>
<!-- Node19&#45;&gt;Node9 -->
<g id="edge30_Node000019_Node000009" class="edge">
<title>Node19&#45;&gt;Node9</title>
<g id="a_edge30_Node000019_Node000009"><a xlink:title=" ">
<path fill="none" stroke="#63b8ff" d="M1061.39,-119.43C1060.46,-111.27 1059.09,-99.38 1057.92,-89.1"/>
<polygon fill="#63b8ff" stroke="#63b8ff" points="1061.4,-88.76 1056.79,-79.22 1054.45,-89.56 1061.4,-88.76"/>
</a>
</g>
</g>
<!-- Node19&#45;&gt;Node10 -->
<g id="edge27_Node000019_Node000010" class="edge">
<title>Node19&#45;&gt;Node10</title>
<g id="a_edge27_Node000019_Node000010"><a xlink:title=" ">
<path fill="none" stroke="#63b8ff" d="M1048.03,-119.53C1032.55,-109.13 1007.29,-92.16 985.52,-77.5 960.29,-60.51 931.43,-41.04 911.6,-27.65"/>
<polygon fill="#63b8ff" stroke="#63b8ff" points="913.62,-24.79 903.37,-22.09 909.7,-30.59 913.62,-24.79"/>
</a>
</g>
</g>
<!-- Node19&#45;&gt;Node12 -->
<g id="edge28_Node000019_Node000012" class="edge">
<title>Node19&#45;&gt;Node12</title>
<g id="a_edge28_Node000019_Node000012"><a xlink:title=" ">
<path fill="none" stroke="#63b8ff" d="M1040.97,-119.55C1024.9,-111.01 1004.13,-96.91 994.52,-77.5 987.46,-63.26 990.02,-45.21 993.89,-31.57"/>
<polygon fill="#63b8ff" stroke="#63b8ff" points="997.12,-32.95 996.94,-22.36 990.47,-30.75 997.12,-32.95"/>
</a>
</g>
</g>
<!-- Node20&#45;&gt;Node2 -->
<g id="edge37_Node000020_Node000002" class="edge">
<title>Node20&#45;&gt;Node2</title>
<g id="a_edge37_Node000020_Node000002"><a xlink:title=" ">
<path fill="none" stroke="#63b8ff" d="M585.85,-184.72C655.11,-176.72 764.5,-163.09 858.52,-147 870.22,-145 882.88,-142.48 894.4,-140.04"/>
<polygon fill="#63b8ff" stroke="#63b8ff" points="894.96,-143.5 904,-137.98 893.48,-136.66 894.96,-143.5"/>
</a>
</g>
</g>
<!-- Node20&#45;&gt;Node4 -->
<g id="edge36_Node000020_Node000004" class="edge">
<title>Node20&#45;&gt;Node4</title>
<g id="a_edge36_Node000020_Node000004"><a xlink:title=" ">
<path fill="none" stroke="#63b8ff" d="M552,-182.57C581.8,-174.05 625.35,-160.91 662.52,-147 697.09,-134.06 704.04,-126.69 738.52,-113.5 771.44,-100.91 809.55,-88.62 837.52,-80.02"/>
<polygon fill="#63b8ff" stroke="#63b8ff" points="838.48,-83.39 847.02,-77.12 836.44,-76.69 838.48,-83.39"/>
</a>
</g>
</g>
<!-- Node20&#45;&gt;Node8 -->
<g id="edge38_Node000020_Node000008" class="edge">
<title>Node20&#45;&gt;Node8</title>
<g id="a_edge38_Node000020_Node000008"><a xlink:title=" ">
<path fill="none" stroke="#63b8ff" d="M586.1,-188.39C721.52,-180.43 1015.98,-162.03 1116.52,-147 1128.04,-145.28 1140.48,-142.71 1151.64,-140.15"/>
<polygon fill="#63b8ff" stroke="#63b8ff" points="1152.31,-143.59 1161.23,-137.86 1150.69,-136.78 1152.31,-143.59"/>
</a>
</g>
</g>
<!-- Node20&#45;&gt;Node15 -->
<g id="edge33_Node000020_Node000015" class="edge">
<title>Node20&#45;&gt;Node15</title>
<g id="a_edge33_Node000020_Node000015"><a xlink:title=" ">
<path fill="none" stroke="#63b8ff" d="M565.74,-182.54C609.78,-173.64 676.07,-159.96 733.52,-147 738.1,-145.96 742.87,-144.86 747.63,-143.74"/>
<polygon fill="#63b8ff" stroke="#63b8ff" points="748.3,-147.18 757.21,-141.46 746.68,-140.37 748.3,-147.18"/>
</a>
</g>
</g>
<!-- Node20&#45;&gt;Node16 -->
<g id="edge40_Node000020_Node000016" class="edge">
<title>Node20&#45;&gt;Node16</title>
<g id="a_edge40_Node000020_Node000016"><a xlink:title=" ">
<path fill="none" stroke="#63b8ff" d="M529.69,-182.55C539.89,-174.95 554.44,-164.1 567.54,-154.34"/>
<polygon fill="#63b8ff" stroke="#63b8ff" points="569.6,-157.17 575.52,-148.39 565.41,-151.56 569.6,-157.17"/>
</a>
</g>
</g>
<!-- Node20&#45;&gt;Node19 -->
<g id="edge41_Node000020_Node000019" class="edge">
<title>Node20&#45;&gt;Node19</title>
<g id="a_edge41_Node000020_Node000019"><a xlink:title=" ">
<path fill="none" stroke="#63b8ff" d="M585.92,-186.96C675.13,-179.64 834.72,-165.39 970.52,-147 982.08,-145.43 994.41,-143.5 1006.17,-141.54"/>
<polygon fill="#63b8ff" stroke="#63b8ff" points="1006.46,-145.04 1015.73,-139.91 1005.28,-138.14 1006.46,-145.04"/>
</a>
</g>
</g>
<!-- Node20&#45;&gt;Node21 -->
<g id="edge32_Node000020_Node000021" class="edge">
<title>Node20&#45;&gt;Node21</title>
<g id="a_edge32_Node000020_Node000021"><a xlink:title=" ">
<path fill="none" stroke="#63b8ff" d="M447.01,-185.37C371.05,-177.41 245.84,-163.37 138.52,-147 126.82,-145.22 114.27,-143.04 102.5,-140.88"/>
<polygon fill="#63b8ff" stroke="#63b8ff" points="103.47,-137.5 93,-139.1 102.18,-144.38 103.47,-137.5"/>
</a>
</g>
</g>
<!-- Node22 -->
<g id="Node000022" class="node">
<title>Node22</title>
<g id="a_Node000022"><a xlink:title=" ">
<polygon fill="#e0e0e0" stroke="#999999" points="219.64,-140.62 147.39,-140.62 147.39,-119.88 219.64,-119.88 219.64,-140.62"/>
<text text-anchor="middle" x="183.52" y="-127.12" font-family="Helvetica,sans-Serif" font-size="10.00">G4Types.hh</text>
</a>
</g>
</g>
<!-- Node20&#45;&gt;Node22 -->
<g id="edge34_Node000020_Node000022" class="edge">
<title>Node20&#45;&gt;Node22</title>
<g id="a_edge34_Node000020_Node000022"><a xlink:title=" ">
<path fill="none" stroke="#63b8ff" d="M447.15,-185.01C388.37,-177.92 302.15,-165.52 228.52,-147 225.61,-146.27 222.62,-145.43 219.63,-144.52"/>
<polygon fill="#63b8ff" stroke="#63b8ff" points="221,-141.29 210.41,-141.52 218.84,-147.95 221,-141.29"/>
</a>
</g>
</g>
<!-- Node23 -->
<g id="Node000023" class="node">
<title>Node23</title>
<g id="a_Node000023"><a xlink:title=" ">
<polygon fill="#e0e0e0" stroke="#999999" points="345.27,-140.62 237.77,-140.62 237.77,-119.88 345.27,-119.88 345.27,-140.62"/>
<text text-anchor="middle" x="291.52" y="-127.12" font-family="Helvetica,sans-Serif" font-size="10.00">G4VisAttributes.hh</text>
</a>
</g>
</g>
<!-- Node20&#45;&gt;Node23 -->
<g id="edge35_Node000020_Node000023" class="edge">
<title>Node20&#45;&gt;Node23</title>
<g id="a_edge35_Node000020_Node000023"><a xlink:title=" ">
<path fill="none" stroke="#63b8ff" d="M480.37,-182.55C441.9,-172.11 380.9,-155.53 338.68,-144.06"/>
<polygon fill="#63b8ff" stroke="#63b8ff" points="339.6,-140.69 329.04,-141.44 337.77,-147.44 339.6,-140.69"/>
</a>
</g>
</g>
<!-- Node24 -->
<g id="Node000024" class="node">
<title>Node24</title>
<g id="a_Node000024"><a xlink:title=" ">
<polygon fill="#e0e0e0" stroke="#999999" points="525.27,-140.62 363.77,-140.62 363.77,-119.88 525.27,-119.88 525.27,-140.62"/>
<text text-anchor="middle" x="444.52" y="-127.12" font-family="Helvetica,sans-Serif" font-size="10.00">CLHEP/Units/SystemOfUnits.h</text>
</a>
</g>
</g>
<!-- Node20&#45;&gt;Node24 -->
<g id="edge39_Node000020_Node000024" class="edge">
<title>Node20&#45;&gt;Node24</title>
<g id="a_edge39_Node000020_Node000024"><a xlink:title=" ">
<path fill="none" stroke="#63b8ff" d="M504.95,-182.55C494.07,-173.32 477.56,-159.31 464.55,-148.26"/>
<polygon fill="#63b8ff" stroke="#63b8ff" points="466.86,-145.63 456.97,-141.82 462.33,-150.96 466.86,-145.63"/>
</a>
</g>
</g>
<!-- Node25&#45;&gt;Node5 -->
<g id="edge46_Node000025_Node000005" class="edge">
<title>Node25&#45;&gt;Node5</title>
<g id="a_edge46_Node000025_Node000005"><a xlink:title=" ">
<path fill="none" stroke="#63b8ff" d="M1671.97,-352.8C1683.06,-344.76 1697.13,-332.28 1703.52,-317.25 1727.78,-260.1 1698.59,-185.64 1681.79,-150.82"/>
<polygon fill="#63b8ff" stroke="#63b8ff" points="1685.14,-149.7 1677.53,-142.33 1678.88,-152.83 1685.14,-149.7"/>
</a>
</g>
</g>
<!-- Node26 -->
<g id="Node000026" class="node">
<title>Node26</title>
<g id="a_Node000026"><a xlink:title=" ">
<polygon fill="#e0e0e0" stroke="#999999" points="1694.39,-317.25 1650.64,-317.25 1650.64,-296.5 1694.39,-296.5 1694.39,-317.25"/>
<text text-anchor="middle" x="1672.52" y="-303.75" font-family="Helvetica,sans-Serif" font-size="10.00">string</text>
</a>
</g>
</g>
<!-- Node25&#45;&gt;Node26 -->
<g id="edge47_Node000025_Node000026" class="edge">
<title>Node25&#45;&gt;Node26</title>
<g id="a_edge47_Node000025_Node000026"><a xlink:title=" ">
<path fill="none" stroke="#63b8ff" d="M1659.38,-352.84C1661.36,-346.06 1664.06,-336.8 1666.51,-328.44"/>
<polygon fill="#63b8ff" stroke="#63b8ff" points="1669.81,-329.61 1669.26,-319.03 1663.09,-327.65 1669.81,-329.61"/>
</a>
</g>
</g>
<!-- Node25&#45;&gt;Node27 -->
<g id="edge48_Node000025_Node000027" class="edge">
<title>Node25&#45;&gt;Node27</title>
<g id="a_edge48_Node000025_Node000027"><a xlink:title=" ">
<path fill="none" stroke="#63b8ff" d="M1644,-352.84C1633.95,-344.97 1619.6,-333.75 1607.76,-324.49"/>
<polygon fill="#63b8ff" stroke="#63b8ff" points="1610.15,-321.91 1600.11,-318.51 1605.83,-327.43 1610.15,-321.91"/>
</a>
</g>
</g>
<!-- Node31&#45;&gt;Node3 -->
<g id="edge58_Node000031_Node000003" class="edge">
<title>Node31&#45;&gt;Node3</title>
<g id="a_edge58_Node000031_Node000003"><a xlink:title=" ">
<path fill="none" stroke="#63b8ff" d="M1332.71,-357.83C1391.14,-349.3 1484.09,-325.67 1526.52,-260.5 1535.16,-247.23 1535.36,-229.08 1533.71,-215.16"/>
<polygon fill="#63b8ff" stroke="#63b8ff" points="1537.17,-214.62 1532.11,-205.31 1530.26,-215.74 1537.17,-214.62"/>
</a>
</g>
</g>
<!-- Node31&#45;&gt;Node6 -->
<g id="edge60_Node000031_Node000006" class="edge">
<title>Node31&#45;&gt;Node6</title>
<g id="a_edge60_Node000031_Node000006"><a xlink:title=" ">
<path fill="none" stroke="#63b8ff" d="M1316.58,-352.86C1357.13,-339.47 1421.97,-311.11 1450.52,-260.5 1471.18,-223.87 1442.71,-175.6 1423.51,-149.65"/>
<polygon fill="#63b8ff" stroke="#63b8ff" points="1426.53,-147.84 1417.65,-142.06 1420.99,-152.12 1426.53,-147.84"/>
</a>
</g>
</g>
<!-- Node31&#45;&gt;Node14 -->
<g id="edge61_Node000031_Node000014" class="edge">
<title>Node31&#45;&gt;Node14</title>
<g id="a_edge61_Node000031_Node000014"><a xlink:title=" ">
<path fill="none" stroke="#63b8ff" d="M1230.52,-360.34C1158.49,-356.23 1023.27,-345.22 911.52,-317.25 843.58,-300.25 804.13,-318.25 764.52,-260.5 754.42,-245.79 764.03,-226.59 774.3,-212.68"/>
<polygon fill="#63b8ff" stroke="#63b8ff" points="776.79,-215.17 780.34,-205.19 771.34,-210.78 776.79,-215.17"/>
</a>
</g>
</g>
<!-- Node31&#45;&gt;Node19 -->
<g id="edge59_Node000031_Node000019" class="edge">
<title>Node31&#45;&gt;Node19</title>
<g id="a_edge59_Node000031_Node000019"><a xlink:title=" ">
<path fill="none" stroke="#63b8ff" d="M1298.04,-352.84C1331.36,-332.73 1404.55,-286.45 1417.52,-260.5 1421.64,-252.25 1423,-247.16 1417.52,-239.75 1399.16,-214.95 1209.68,-166.56 1115.32,-143.73"/>
<polygon fill="#63b8ff" stroke="#63b8ff" points="1116.31,-140.37 1105.77,-141.43 1114.68,-147.18 1116.31,-140.37"/>
</a>
</g>
</g>
<!-- Node32 -->
<g id="Node000032" class="node">
<title>Node32</title>
<g id="a_Node000032"><a xlink:href="StructureBuilderBase_8hh.html" target="_top" xlink:title=" ">
<polygon fill="white" stroke="#666666" points="1110.39,-317.25 976.64,-317.25 976.64,-296.5 1110.39,-296.5 1110.39,-317.25"/>
<text text-anchor="middle" x="1043.52" y="-303.75" font-family="Helvetica,sans-Serif" font-size="10.00">StructureBuilderBase.hh</text>
</a>
</g>
</g>
<!-- Node31&#45;&gt;Node32 -->
<g id="edge62_Node000031_Node000032" class="edge">
<title>Node31&#45;&gt;Node32</title>
<g id="a_edge62_Node000031_Node000032"><a xlink:title=" ">
<path fill="none" stroke="#63b8ff" d="M1238.69,-352.77C1199.13,-343.67 1140.2,-330.12 1097.45,-320.28"/>
<polygon fill="#63b8ff" stroke="#63b8ff" points="1098.4,-316.91 1087.87,-318.08 1096.83,-323.73 1098.4,-316.91"/>
</a>
</g>
</g>
<!-- Node33 -->
<g id="Node000033" class="node">
<title>Node33</title>
<g id="a_Node000033"><a xlink:href="BuilderFactories_8hh.html" target="_top" xlink:title=" ">
<polygon fill="white" stroke="#666666" points="882.02,-260.5 773.02,-260.5 773.02,-239.75 882.02,-239.75 882.02,-260.5"/>
<text text-anchor="middle" x="827.52" y="-247" font-family="Helvetica,sans-Serif" font-size="10.00">BuilderFactories.hh</text>
</a>
</g>
</g>
<!-- Node31&#45;&gt;Node33 -->
<g id="edge79_Node000031_Node000033" class="edge">
<title>Node31&#45;&gt;Node33</title>
<g id="a_edge79_Node000031_Node000033"><a xlink:title=" ">
<path fill="none" stroke="#63b8ff" d="M1230.48,-359.92C1167.51,-355.52 1057.7,-344.4 967.52,-317.25 926.16,-304.8 881.57,-281.93 854.09,-266.63"/>
<polygon fill="#63b8ff" stroke="#63b8ff" points="855.85,-263.6 845.42,-261.72 852.4,-269.69 855.85,-263.6"/>
</a>
</g>
</g>
<!-- Node32&#45;&gt;Node2 -->
<g id="edge63_Node000032_Node000002" class="edge">
<title>Node32&#45;&gt;Node2</title>
<g id="a_edge63_Node000032_Node000002"><a xlink:title=" ">
<path fill="none" stroke="#63b8ff" d="M1036.17,-296.32C1029.31,-287.26 1018.88,-273.19 1010.52,-260.5 985.46,-222.51 958.85,-176.37 944.4,-150.76"/>
<polygon fill="#63b8ff" stroke="#63b8ff" points="947.52,-149.17 939.57,-142.16 941.41,-152.59 947.52,-149.17"/>
</a>
</g>
</g>
<!-- Node32&#45;&gt;Node3 -->
<g id="edge64_Node000032_Node000003" class="edge">
<title>Node32&#45;&gt;Node3</title>
<g id="a_edge64_Node000032_Node000003"><a xlink:title=" ">
<path fill="none" stroke="#63b8ff" d="M1067.37,-296.05C1089.48,-286.93 1123.27,-272.91 1152.52,-260.5 1173.91,-251.42 1178.13,-246.01 1200.52,-239.75 1298.27,-212.43 1417.16,-201.23 1481.89,-196.89"/>
<polygon fill="#63b8ff" stroke="#63b8ff" points="1482.06,-200.39 1491.82,-196.26 1481.61,-193.4 1482.06,-200.39"/>
</a>
</g>
</g>
<!-- Node32&#45;&gt;Node4 -->
<g id="edge75_Node000032_Node000004" class="edge">
<title>Node32&#45;&gt;Node4</title>
<g id="a_edge75_Node000032_Node000004"><a xlink:title=" ">
<path fill="none" stroke="#63b8ff" d="M1042.37,-296.17C1038.28,-265.56 1021.81,-169.7 970.52,-113.5 956.31,-97.93 935.59,-87.1 917.31,-79.94"/>
<polygon fill="#63b8ff" stroke="#63b8ff" points="918.63,-76.7 908.04,-76.56 916.24,-83.27 918.63,-76.7"/>
</a>
</g>
</g>
<!-- Node32&#45;&gt;Node5 -->
<g id="edge74_Node000032_Node000005" class="edge">
<title>Node32&#45;&gt;Node5</title>
<g id="a_edge74_Node000032_Node000005"><a xlink:title=" ">
<path fill="none" stroke="#63b8ff" d="M1096.21,-296.01C1133.7,-288.26 1184.95,-276.16 1228.52,-260.5 1248.48,-253.32 1251.11,-245.58 1271.52,-239.75 1415.93,-198.51 1474.1,-272.73 1607.52,-203.75 1630.61,-191.81 1649.18,-167.79 1660.25,-150.67"/>
<polygon fill="#63b8ff" stroke="#63b8ff" points="1663.11,-152.71 1665.36,-142.36 1657.14,-149.05 1663.11,-152.71"/>
</a>
</g>
</g>
<!-- Node32&#45;&gt;Node6 -->
<g id="edge76_Node000032_Node000006" class="edge">
<title>Node32&#45;&gt;Node6</title>
<g id="a_edge76_Node000032_Node000006"><a xlink:title=" ">
<path fill="none" stroke="#63b8ff" d="M1057.94,-296.2C1078.45,-282.66 1117.44,-257.7 1152.52,-239.75 1228.02,-201.1 1320.48,-164.39 1371.05,-145.17"/>
<polygon fill="#63b8ff" stroke="#63b8ff" points="1372.24,-148.46 1380.36,-141.65 1369.77,-141.91 1372.24,-148.46"/>
</a>
</g>
</g>
<!-- Node32&#45;&gt;Node8 -->
<g id="edge68_Node000032_Node000008" class="edge">
<title>Node32&#45;&gt;Node8</title>
<g id="a_edge68_Node000032_Node000008"><a xlink:title=" ">
<path fill="none" stroke="#63b8ff" d="M1052.22,-296.19C1068.25,-278.25 1103.4,-238.51 1131.52,-203.75 1146.05,-185.79 1161.92,-164.68 1172.87,-149.89"/>
<polygon fill="#63b8ff" stroke="#63b8ff" points="1175.57,-152.13 1178.68,-142 1169.94,-147.98 1175.57,-152.13"/>
</a>
</g>
</g>
<!-- Node32&#45;&gt;Node11 -->
<g id="edge67_Node000032_Node000011" class="edge">
<title>Node32&#45;&gt;Node11</title>
<g id="a_edge67_Node000032_Node000011"><a xlink:title=" ">
<path fill="none" stroke="#63b8ff" d="M1082.96,-296.01C1113,-287.95 1155.08,-275.46 1190.52,-260.5 1208.24,-253.01 1210.14,-245.47 1228.52,-239.75 1302.33,-216.78 1522.76,-261.17 1574.52,-203.75 1687.18,-78.75 1347.89,-31.19 1200.39,-16.73"/>
<polygon fill="#63b8ff" stroke="#63b8ff" points="1201.06,-13.27 1190.77,-15.81 1200.39,-20.24 1201.06,-13.27"/>
</a>
</g>
</g>
<!-- Node32&#45;&gt;Node13 -->
<g id="edge65_Node000032_Node000013" class="edge">
<title>Node32&#45;&gt;Node13</title>
<g id="a_edge65_Node000032_Node000013"><a xlink:title=" ">
<path fill="none" stroke="#63b8ff" d="M976.57,-296.96C896.84,-286.34 765.03,-268.78 689.81,-258.76"/>
<polygon fill="#63b8ff" stroke="#63b8ff" points="690.57,-255.33 680.19,-257.48 689.64,-262.27 690.57,-255.33"/>
</a>
</g>
</g>
<!-- Node32&#45;&gt;Node14 -->
<g id="edge70_Node000032_Node000014" class="edge">
<title>Node32&#45;&gt;Node14</title>
<g id="a_edge70_Node000032_Node000014"><a xlink:title=" ">
<path fill="none" stroke="#63b8ff" d="M1019.11,-296.16C996.91,-287.22 963.31,-273.43 934.52,-260.5 915.16,-251.81 910.75,-248.71 891.52,-239.75 868.73,-229.13 842.86,-217.52 823.01,-208.7"/>
<polygon fill="#63b8ff" stroke="#63b8ff" points="824.61,-205.58 814.05,-204.73 821.77,-211.98 824.61,-205.58"/>
</a>
</g>
</g>
<!-- Node32&#45;&gt;Node15 -->
<g id="edge73_Node000032_Node000015" class="edge">
<title>Node32&#45;&gt;Node15</title>
<g id="a_edge73_Node000032_Node000015"><a xlink:title=" ">
<path fill="none" stroke="#63b8ff" d="M1029.99,-296.24C989.93,-267.68 871.53,-183.29 821.37,-147.54"/>
<polygon fill="#63b8ff" stroke="#63b8ff" points="823.7,-144.91 813.53,-141.95 819.64,-150.61 823.7,-144.91"/>
</a>
</g>
</g>
<!-- Node32&#45;&gt;Node19 -->
<g id="edge69_Node000032_Node000019" class="edge">
<title>Node32&#45;&gt;Node19</title>
<g id="a_edge69_Node000032_Node000019"><a xlink:title=" ">
<path fill="none" stroke="#63b8ff" d="M1044.56,-296.24C1047.54,-268.87 1056.1,-190.22 1060.23,-152.26"/>
<polygon fill="#63b8ff" stroke="#63b8ff" points="1063.68,-152.9 1061.28,-142.58 1056.72,-152.14 1063.68,-152.9"/>
</a>
</g>
</g>
<!-- Node32&#45;&gt;Node20 -->
<g id="edge66_Node000032_Node000020" class="edge">
<title>Node32&#45;&gt;Node20</title>
<g id="a_edge66_Node000032_Node000020"><a xlink:title=" ">
<path fill="none" stroke="#63b8ff" d="M976.38,-305.16C864.6,-303.02 645.84,-294.47 577.52,-260.5 556.41,-250.01 538.98,-228.9 528.24,-213.34"/>
<polygon fill="#63b8ff" stroke="#63b8ff" points="531.41,-211.8 523,-205.35 525.56,-215.64 531.41,-211.8"/>
</a>
</g>
</g>
<!-- Node32&#45;&gt;Node21 -->
<g id="edge71_Node000032_Node000021" class="edge">
<title>Node32&#45;&gt;Node21</title>
<g id="a_edge71_Node000032_Node000021"><a xlink:title=" ">
<path fill="none" stroke="#63b8ff" d="M976.16,-305.7C786.58,-304.09 252.74,-291.69 105.52,-203.75 85.12,-191.57 70.49,-167.95 62.05,-150.98"/>
<polygon fill="#63b8ff" stroke="#63b8ff" points="65.42,-149.94 58.03,-142.35 59.08,-152.89 65.42,-149.94"/>
</a>
</g>
</g>
<!-- Node32&#45;&gt;Node29 -->
<g id="edge72_Node000032_Node000029" class="edge">
<title>Node32&#45;&gt;Node29</title>
<g id="a_edge72_Node000032_Node000029"><a xlink:title=" ">
<path fill="none" stroke="#63b8ff" d="M1097.68,-296.02C1148.56,-286.77 1224.78,-272.9 1279.05,-263.03"/>
<polygon fill="#63b8ff" stroke="#63b8ff" points="1279.58,-266.49 1288.79,-261.26 1278.33,-259.61 1279.58,-266.49"/>
</a>
</g>
</g>
<!-- Node32&#45;&gt;Node33 -->
<g id="edge77_Node000032_Node000033" class="edge">
<title>Node32&#45;&gt;Node33</title>
<g id="a_edge77_Node000032_Node000033"><a xlink:title=" ">
<path fill="none" stroke="#63b8ff" d="M1004.9,-296.09C969.23,-287.04 916.04,-273.56 877.21,-263.72"/>
<polygon fill="#63b8ff" stroke="#63b8ff" points="878.18,-260.36 867.63,-261.29 876.46,-267.14 878.18,-260.36"/>
</a>
</g>
</g>
<!-- Node33&#45;&gt;Node14 -->
<g id="edge78_Node000033_Node000014" class="edge">
<title>Node33&#45;&gt;Node14</title>
<g id="a_edge78_Node000033_Node000014"><a xlink:title=" ">
<path fill="none" stroke="#63b8ff" d="M820.9,-239.34C816.06,-232.17 809.34,-222.23 803.44,-213.51"/>
<polygon fill="#63b8ff" stroke="#63b8ff" points="806.42,-211.66 797.92,-205.33 800.62,-215.58 806.42,-211.66"/>
</a>
</g>
</g>
</g>
</svg>
