<?xml version="1.0" encoding="UTF-8" standalone="no"?>
<!DOCTYPE svg PUBLIC "-//W3C//DTD SVG 1.1//EN"
 "http://www.w3.org/Graphics/SVG/1.1/DTD/svg11.dtd">
<!-- Generated by graphviz version 12.0.0 (20240803.0821)
 -->
<!-- Title: include/VolumeBuilderConfigs.hh Pages: 1 -->
<svg width="1011pt" height="212pt"
 viewBox="0.00 0.00 1011.38 211.75" xmlns="http://www.w3.org/2000/svg" xmlns:xlink="http://www.w3.org/1999/xlink">
<g id="graph0" class="graph" transform="scale(1 1) rotate(0) translate(4 207.75)">
<title>include/VolumeBuilderConfigs.hh</title>
<!-- Node1 -->
<g id="Node000001" class="node">
<title>Node1</title>
<g id="a_Node000001"><a xlink:title=" ">
<polygon fill="#999999" stroke="#666666" points="613.88,-203.75 437.38,-203.75 437.38,-183 613.88,-183 613.88,-203.75"/>
<text text-anchor="middle" x="525.62" y="-190.25" font-family="Helvetica,sans-Serif" font-size="10.00">include/VolumeBuilderConfigs.hh</text>
</a>
</g>
</g>
<!-- Node2 -->
<g id="Node000002" class="node">
<title>Node2</title>
<g id="a_Node000002"><a xlink:title=" ">
<polygon fill="#e0e0e0" stroke="#999999" points="75.25,-140.62 0,-140.62 0,-119.88 75.25,-119.88 75.25,-140.62"/>
<text text-anchor="middle" x="37.62" y="-127.12" font-family="Helvetica,sans-Serif" font-size="10.00">G4Colour.hh</text>
</a>
</g>
</g>
<!-- Node1&#45;&gt;Node2 -->
<g id="edge1_Node000001_Node000002" class="edge">
<title>Node1&#45;&gt;Node2</title>
<g id="a_edge1_Node000001_Node000002"><a xlink:title=" ">
<path fill="none" stroke="#63b8ff" d="M437.29,-189.02C347.61,-184.28 205.18,-173.07 84.62,-147 81.28,-146.28 77.85,-145.4 74.43,-144.43"/>
<polygon fill="#63b8ff" stroke="#63b8ff" points="75.72,-141.17 65.13,-141.57 73.66,-147.86 75.72,-141.17"/>
</a>
</g>
</g>
<!-- Node3 -->
<g id="Node000003" class="node">
<title>Node3</title>
<g id="a_Node000003"><a xlink:title=" ">
<polygon fill="#e0e0e0" stroke="#999999" points="195.75,-140.62 93.5,-140.62 93.5,-119.88 195.75,-119.88 195.75,-140.62"/>
<text text-anchor="middle" x="144.62" y="-127.12" font-family="Helvetica,sans-Serif" font-size="10.00">G4ThreeVector.hh</text>
</a>
</g>
</g>
<!-- Node1&#45;&gt;Node3 -->
<g id="edge2_Node000001_Node000003" class="edge">
<title>Node1&#45;&gt;Node3</title>
<g id="a_edge2_Node000001_Node000003"><a xlink:title=" ">
<path fill="none" stroke="#63b8ff" d="M436.94,-182.65C372.22,-174.87 282.56,-162.68 204.62,-147 199.99,-146.07 195.19,-144.99 190.4,-143.85"/>
<polygon fill="#63b8ff" stroke="#63b8ff" points="191.38,-140.49 180.83,-141.47 189.69,-147.28 191.38,-140.49"/>
</a>
</g>
</g>
<!-- Node4 -->
<g id="Node000004" class="node">
<title>Node4</title>
<g id="a_Node000004"><a xlink:title=" ">
<polygon fill="#e0e0e0" stroke="#999999" points="285.75,-140.62 213.5,-140.62 213.5,-119.88 285.75,-119.88 285.75,-140.62"/>
<text text-anchor="middle" x="249.62" y="-127.12" font-family="Helvetica,sans-Serif" font-size="10.00">G4Types.hh</text>
</a>
</g>
</g>
<!-- Node1&#45;&gt;Node4 -->
<g id="edge3_Node000001_Node000004" class="edge">
<title>Node1&#45;&gt;Node4</title>
<g id="a_edge3_Node000001_Node000004"><a xlink:title=" ">
<path fill="none" stroke="#63b8ff" d="M462.81,-182.53C416.04,-174.6 350.83,-162.27 294.62,-147 291.9,-146.26 289.1,-145.44 286.3,-144.57"/>
<polygon fill="#63b8ff" stroke="#63b8ff" points="287.63,-141.32 277.04,-141.52 285.45,-147.97 287.63,-141.32"/>
</a>
</g>
</g>
<!-- Node5 -->
<g id="Node000005" class="node">
<title>Node5</title>
<g id="a_Node000005"><a xlink:title=" ">
<polygon fill="#e0e0e0" stroke="#999999" points="411.38,-140.62 303.88,-140.62 303.88,-119.88 411.38,-119.88 411.38,-140.62"/>
<text text-anchor="middle" x="357.62" y="-127.12" font-family="Helvetica,sans-Serif" font-size="10.00">G4VisAttributes.hh</text>
</a>
</g>
</g>
<!-- Node1&#45;&gt;Node5 -->
<g id="edge4_Node000001_Node000005" class="edge">
<title>Node1&#45;&gt;Node5</title>
<g id="a_edge4_Node000001_Node000005"><a xlink:title=" ">
<path fill="none" stroke="#63b8ff" d="M498.63,-182.55C470.59,-172.35 426.49,-156.31 395.08,-144.88"/>
<polygon fill="#63b8ff" stroke="#63b8ff" points="396.57,-141.69 385.97,-141.56 394.17,-148.27 396.57,-141.69"/>
</a>
</g>
</g>
<!-- Node6 -->
<g id="Node000006" class="node">
<title>Node6</title>
<g id="a_Node000006"><a xlink:title=" ">
<polygon fill="#e0e0e0" stroke="#999999" points="594.25,-77.5 537,-77.5 537,-56.75 594.25,-56.75 594.25,-77.5"/>
<text text-anchor="middle" x="565.62" y="-64" font-family="Helvetica,sans-Serif" font-size="10.00">memory</text>
</a>
</g>
</g>
<!-- Node1&#45;&gt;Node6 -->
<g id="edge5_Node000001_Node000006" class="edge">
<title>Node1&#45;&gt;Node6</title>
<g id="a_edge5_Node000001_Node000006"><a xlink:title=" ">
<path fill="none" stroke="#63b8ff" d="M531.5,-182.61C536.68,-173.64 544.08,-159.82 548.62,-147 555.38,-127.94 559.93,-105.28 562.6,-89.16"/>
<polygon fill="#63b8ff" stroke="#63b8ff" points="566.06,-89.73 564.12,-79.31 559.14,-88.66 566.06,-89.73"/>
</a>
</g>
</g>
<!-- Node7 -->
<g id="Node000007" class="node">
<title>Node7</title>
<g id="a_Node000007"><a xlink:title=" ">
<polygon fill="#e0e0e0" stroke="#999999" points="759.5,-140.62 703.75,-140.62 703.75,-119.88 759.5,-119.88 759.5,-140.62"/>
<text text-anchor="middle" x="731.62" y="-127.12" font-family="Helvetica,sans-Serif" font-size="10.00">optional</text>
</a>
</g>
</g>
<!-- Node1&#45;&gt;Node7 -->
<g id="edge6_Node000001_Node000007" class="edge">
<title>Node1&#45;&gt;Node7</title>
<g id="a_edge6_Node000001_Node000007"><a xlink:title=" ">
<path fill="none" stroke="#63b8ff" d="M568.84,-182.54C603.29,-174.28 652.55,-161.52 694.62,-147 696.19,-146.46 697.79,-145.88 699.39,-145.28"/>
<polygon fill="#63b8ff" stroke="#63b8ff" points="700.51,-148.6 708.5,-141.65 697.92,-142.1 700.51,-148.6"/>
</a>
</g>
</g>
<!-- Node8 -->
<g id="Node000008" class="node">
<title>Node8</title>
<g id="a_Node000008"><a xlink:title=" ">
<polygon fill="#e0e0e0" stroke="#999999" points="824,-140.62 777.25,-140.62 777.25,-119.88 824,-119.88 824,-140.62"/>
<text text-anchor="middle" x="800.62" y="-127.12" font-family="Helvetica,sans-Serif" font-size="10.00">vector</text>
</a>
</g>
</g>
<!-- Node1&#45;&gt;Node8 -->
<g id="edge7_Node000001_Node000008" class="edge">
<title>Node1&#45;&gt;Node8</title>
<g id="a_edge7_Node000001_Node000008"><a xlink:title=" ">
<path fill="none" stroke="#63b8ff" d="M609.15,-182.52C656.7,-175.5 716.9,-164.2 768.62,-147 769.98,-146.55 771.35,-146.05 772.72,-145.52"/>
<polygon fill="#63b8ff" stroke="#63b8ff" points="773.93,-148.82 781.66,-141.58 771.1,-142.41 773.93,-148.82"/>
</a>
</g>
</g>
<!-- Node9 -->
<g id="Node000009" class="node">
<title>Node9</title>
<g id="a_Node000009"><a xlink:title=" ">
<polygon fill="#e0e0e0" stroke="#999999" points="1003.38,-140.62 841.88,-140.62 841.88,-119.88 1003.38,-119.88 1003.38,-140.62"/>
<text text-anchor="middle" x="922.62" y="-127.12" font-family="Helvetica,sans-Serif" font-size="10.00">CLHEP/Units/SystemOfUnits.h</text>
</a>
</g>
</g>
<!-- Node1&#45;&gt;Node9 -->
<g id="edge8_Node000001_Node000009" class="edge">
<title>Node1&#45;&gt;Node9</title>
<g id="a_edge8_Node000001_Node000009"><a xlink:title=" ">
<path fill="none" stroke="#63b8ff" d="M595.82,-182.54C658.09,-173.69 751.51,-160.09 832.62,-147 840.39,-145.75 848.53,-144.39 856.61,-143.01"/>
<polygon fill="#63b8ff" stroke="#63b8ff" points="857.18,-146.46 866.44,-141.32 855.99,-139.56 857.18,-146.46"/>
</a>
</g>
</g>
<!-- Node10 -->
<g id="Node000010" class="node">
<title>Node10</title>
<g id="a_Node000010"><a xlink:href="disableable__shared__from__this_8hh.html" target="_top" xlink:title="Created by.">
<polygon fill="white" stroke="#666666" points="539.88,-147 429.38,-147 429.38,-113.5 539.88,-113.5 539.88,-147"/>
<text text-anchor="start" x="437.38" y="-133.5" font-family="Helvetica,sans-Serif" font-size="10.00">disableable_shared</text>
<text text-anchor="middle" x="484.62" y="-120.75" font-family="Helvetica,sans-Serif" font-size="10.00">_from_this.hh</text>
</a>
</g>
</g>
<!-- Node1&#45;&gt;Node10 -->
<g id="edge9_Node000001_Node000010" class="edge">
<title>Node1&#45;&gt;Node10</title>
<g id="a_edge9_Node000001_Node000010"><a xlink:title=" ">
<path fill="none" stroke="#63b8ff" d="M519.04,-182.55C514.38,-175.61 507.92,-165.97 501.84,-156.92"/>
<polygon fill="#63b8ff" stroke="#63b8ff" points="504.84,-155.1 496.36,-148.74 499.02,-159 504.84,-155.1"/>
</a>
</g>
</g>
<!-- Node13 -->
<g id="Node000013" class="node">
<title>Node13</title>
<g id="a_Node000013"><a xlink:href="i__shared__ptr_8hh.html" target="_top" xlink:title=" ">
<polygon fill="white" stroke="#666666" points="685.75,-140.62 595.5,-140.62 595.5,-119.88 685.75,-119.88 685.75,-140.62"/>
<text text-anchor="middle" x="640.62" y="-127.12" font-family="Helvetica,sans-Serif" font-size="10.00">i_shared_ptr.hh</text>
</a>
</g>
</g>
<!-- Node1&#45;&gt;Node13 -->
<g id="edge13_Node000001_Node000013" class="edge">
<title>Node1&#45;&gt;Node13</title>
<g id="a_edge13_Node000001_Node000013"><a xlink:title=" ">
<path fill="none" stroke="#63b8ff" d="M544.1,-182.55C562.46,-172.8 590.87,-157.7 612.12,-146.4"/>
<polygon fill="#63b8ff" stroke="#63b8ff" points="613.67,-149.54 620.86,-141.76 610.38,-143.36 613.67,-149.54"/>
</a>
</g>
</g>
<!-- Node10&#45;&gt;Node6 -->
<g id="edge12_Node000010_Node000006" class="edge">
<title>Node10&#45;&gt;Node6</title>
<g id="a_edge12_Node000010_Node000006"><a xlink:title=" ">
<path fill="none" stroke="#63b8ff" d="M505.91,-113.19C517.48,-104.46 531.78,-93.67 543.48,-84.84"/>
<polygon fill="#63b8ff" stroke="#63b8ff" points="545.5,-87.7 551.37,-78.88 541.28,-82.11 545.5,-87.7"/>
</a>
</g>
</g>
<!-- Node11 -->
<g id="Node000011" class="node">
<title>Node11</title>
<g id="a_Node000011"><a xlink:title=" ">
<polygon fill="#e0e0e0" stroke="#999999" points="438.5,-77.5 388.75,-77.5 388.75,-56.75 438.5,-56.75 438.5,-77.5"/>
<text text-anchor="middle" x="413.62" y="-64" font-family="Helvetica,sans-Serif" font-size="10.00">atomic</text>
</a>
</g>
</g>
<!-- Node10&#45;&gt;Node11 -->
<g id="edge10_Node000010_Node000011" class="edge">
<title>Node10&#45;&gt;Node11</title>
<g id="a_edge10_Node000010_Node000011"><a xlink:title=" ">
<path fill="none" stroke="#63b8ff" d="M465.97,-113.19C456.03,-104.63 443.8,-94.1 433.66,-85.37"/>
<polygon fill="#63b8ff" stroke="#63b8ff" points="436.07,-82.83 426.2,-78.95 431.5,-88.13 436.07,-82.83"/>
</a>
</g>
</g>
<!-- Node12 -->
<g id="Node000012" class="node">
<title>Node12</title>
<g id="a_Node000012"><a xlink:title=" ">
<polygon fill="#e0e0e0" stroke="#999999" points="516.38,-77.5 456.88,-77.5 456.88,-56.75 516.38,-56.75 516.38,-77.5"/>
<text text-anchor="middle" x="486.62" y="-64" font-family="Helvetica,sans-Serif" font-size="10.00">iostream</text>
</a>
</g>
</g>
<!-- Node10&#45;&gt;Node12 -->
<g id="edge11_Node000010_Node000012" class="edge">
<title>Node10&#45;&gt;Node12</title>
<g id="a_edge11_Node000010_Node000012"><a xlink:title=" ">
<path fill="none" stroke="#63b8ff" d="M485.15,-113.19C485.39,-105.85 485.68,-97.07 485.94,-89.21"/>
<polygon fill="#63b8ff" stroke="#63b8ff" points="489.42,-89.59 486.25,-79.48 482.43,-89.36 489.42,-89.59"/>
</a>
</g>
</g>
<!-- Node13&#45;&gt;Node6 -->
<g id="edge16_Node000013_Node000006" class="edge">
<title>Node13&#45;&gt;Node6</title>
<g id="a_edge16_Node000013_Node000006"><a xlink:title=" ">
<path fill="none" stroke="#63b8ff" d="M628.57,-119.43C617.14,-110.11 599.72,-95.91 586.1,-84.81"/>
<polygon fill="#63b8ff" stroke="#63b8ff" points="588.53,-82.28 578.57,-78.68 584.11,-87.71 588.53,-82.28"/>
</a>
</g>
</g>
<!-- Node14 -->
<g id="Node000014" class="node">
<title>Node14</title>
<g id="a_Node000014"><a xlink:title=" ">
<polygon fill="#e0e0e0" stroke="#999999" points="631.5,-20.75 515.75,-20.75 515.75,0 631.5,0 631.5,-20.75"/>
<text text-anchor="middle" x="573.62" y="-7.25" font-family="Helvetica,sans-Serif" font-size="10.00">G4LogicalVolume.hh</text>
</a>
</g>
</g>
<!-- Node13&#45;&gt;Node14 -->
<g id="edge14_Node000013_Node000014" class="edge">
<title>Node13&#45;&gt;Node14</title>
<g id="a_edge14_Node000013_Node000014"><a xlink:title=" ">
<path fill="none" stroke="#63b8ff" d="M636.17,-119.68C629.53,-105.64 616.44,-78.72 603.62,-56.75 598.46,-47.9 592.29,-38.41 586.89,-30.4"/>
<polygon fill="#63b8ff" stroke="#63b8ff" points="589.78,-28.43 581.24,-22.16 584.01,-32.39 589.78,-28.43"/>
</a>
</g>
</g>
<!-- Node15 -->
<g id="Node000015" class="node">
<title>Node15</title>
<g id="a_Node000015"><a xlink:title=" ">
<polygon fill="#e0e0e0" stroke="#999999" points="849.25,-20.75 774,-20.75 774,0 849.25,0 849.25,-20.75"/>
<text text-anchor="middle" x="811.62" y="-7.25" font-family="Helvetica,sans-Serif" font-size="10.00">G4VSolid.hh</text>
</a>
</g>
</g>
<!-- Node13&#45;&gt;Node15 -->
<g id="edge15_Node000013_Node000015" class="edge">
<title>Node13&#45;&gt;Node15</title>
<g id="a_edge15_Node000013_Node000015"><a xlink:title=" ">
<path fill="none" stroke="#63b8ff" d="M668.83,-119.4C700.17,-108.1 748.38,-89.59 763.62,-77.5 779.57,-64.86 792.71,-45.62 801.19,-31.15"/>
<polygon fill="#63b8ff" stroke="#63b8ff" points="804.19,-32.96 806,-22.53 798.07,-29.56 804.19,-32.96"/>
</a>
</g>
</g>
<!-- Node16 -->
<g id="Node000016" class="node">
<title>Node16</title>
<g id="a_Node000016"><a xlink:href="IVolumeBuilder_8hh.html" target="_top" xlink:title="Created by.">
<polygon fill="white" stroke="#666666" points="754.88,-77.5 650.38,-77.5 650.38,-56.75 754.88,-56.75 754.88,-77.5"/>
<text text-anchor="middle" x="702.62" y="-64" font-family="Helvetica,sans-Serif" font-size="10.00">IVolumeBuilder.hh</text>
</a>
</g>
</g>
<!-- Node13&#45;&gt;Node16 -->
<g id="edge17_Node000013_Node000016" class="edge">
<title>Node13&#45;&gt;Node16</title>
<g id="a_edge17_Node000013_Node000016"><a xlink:title=" ">
<path fill="none" stroke="#63b8ff" d="M650.59,-119.43C659.77,-110.38 673.62,-96.72 684.72,-85.78"/>
<polygon fill="#63b8ff" stroke="#63b8ff" points="687.15,-88.3 691.81,-78.78 682.24,-83.31 687.15,-88.3"/>
</a>
</g>
</g>
<!-- Node16&#45;&gt;Node14 -->
<g id="edge18_Node000016_Node000014" class="edge">
<title>Node16&#45;&gt;Node14</title>
<g id="a_edge18_Node000016_Node000014"><a xlink:title=" ">
<path fill="none" stroke="#63b8ff" d="M679.56,-56.34C659.38,-47.77 629.82,-35.23 607.05,-25.56"/>
<polygon fill="#63b8ff" stroke="#63b8ff" points="608.45,-22.35 597.88,-21.67 605.72,-28.8 608.45,-22.35"/>
</a>
</g>
</g>
<!-- Node16&#45;&gt;Node15 -->
<g id="edge20_Node000016_Node000015" class="edge">
<title>Node16&#45;&gt;Node15</title>
<g id="a_edge20_Node000016_Node000015"><a xlink:title=" ">
<path fill="none" stroke="#63b8ff" d="M722.11,-56.34C738.77,-47.97 763.01,-35.79 782.06,-26.22"/>
<polygon fill="#63b8ff" stroke="#63b8ff" points="783.59,-29.37 790.95,-21.76 780.45,-23.12 783.59,-29.37"/>
</a>
</g>
</g>
<!-- Node17 -->
<g id="Node000017" class="node">
<title>Node17</title>
<g id="a_Node000017"><a xlink:title=" ">
<polygon fill="#e0e0e0" stroke="#999999" points="756,-20.75 649.25,-20.75 649.25,0 756,0 756,-20.75"/>
<text text-anchor="middle" x="702.62" y="-7.25" font-family="Helvetica,sans-Serif" font-size="10.00">G4Transform3D.hh</text>
</a>
</g>
</g>
<!-- Node16&#45;&gt;Node17 -->
<g id="edge19_Node000016_Node000017" class="edge">
<title>Node16&#45;&gt;Node17</title>
<g id="a_edge19_Node000016_Node000017"><a xlink:title=" ">
<path fill="none" stroke="#63b8ff" d="M702.62,-56.34C702.62,-49.72 702.62,-40.72 702.62,-32.52"/>
<polygon fill="#63b8ff" stroke="#63b8ff" points="706.13,-32.59 702.63,-22.59 699.13,-32.59 706.13,-32.59"/>
</a>
</g>
</g>
</g>
</svg>
