<?xml version="1.0" encoding="UTF-8" standalone="no"?>
<!DOCTYPE svg PUBLIC "-//W3C//DTD SVG 1.1//EN"
 "http://www.w3.org/Graphics/SVG/1.1/DTD/svg11.dtd">
<!-- Generated by graphviz version 12.0.0 (20240803.0821)
 -->
<!-- Title: include/VolumeBuilderCore.hh Pages: 1 -->
<svg width="915pt" height="155pt"
 viewBox="0.00 0.00 915.25 155.00" xmlns="http://www.w3.org/2000/svg" xmlns:xlink="http://www.w3.org/1999/xlink">
<g id="graph0" class="graph" transform="scale(1 1) rotate(0) translate(4 151)">
<title>include/VolumeBuilderCore.hh</title>
<!-- Node1 -->
<g id="Node000001" class="node">
<title>Node1</title>
<g id="a_Node000001"><a xlink:title=" ">
<polygon fill="#999999" stroke="#666666" points="530.5,-147 367.5,-147 367.5,-126.25 530.5,-126.25 530.5,-147"/>
<text text-anchor="middle" x="449" y="-133.5" font-family="Helvetica,sans-Serif" font-size="10.00">include/VolumeBuilderCore.hh</text>
</a>
</g>
</g>
<!-- Node2 -->
<g id="Node000002" class="node">
<title>Node2</title>
<g id="a_Node000002"><a xlink:href="VolumeBuilderBase_8hpp.html" target="_top" xlink:title=" ">
<polygon fill="white" stroke="#666666" points="179.25,-90.25 8.75,-90.25 8.75,-69.5 179.25,-69.5 179.25,-90.25"/>
<text text-anchor="middle" x="94" y="-76.75" font-family="Helvetica,sans-Serif" font-size="10.00">include/VolumeBuilderBase.hpp</text>
</a>
</g>
</g>
<!-- Node1&#45;&gt;Node2 -->
<g id="edge1_Node000001_Node000002" class="edge">
<title>Node1&#45;&gt;Node2</title>
<g id="a_edge1_Node000001_Node000002"><a xlink:title=" ">
<path fill="none" stroke="#63b8ff" d="M373.88,-124.04C309.79,-114.15 218.63,-100.1 157.96,-90.74"/>
<polygon fill="#63b8ff" stroke="#63b8ff" points="373.21,-127.48 383.63,-125.54 374.28,-120.56 373.21,-127.48"/>
</a>
</g>
</g>
<!-- Node3 -->
<g id="Node000003" class="node">
<title>Node3</title>
<g id="a_Node000003"><a xlink:href="VolumeBuilderBase_8cc.html" target="_top" xlink:title=" ">
<polygon fill="white" stroke="#666666" points="142,-27.12 0,-27.12 0,-6.38 142,-6.38 142,-27.12"/>
<text text-anchor="middle" x="71" y="-13.62" font-family="Helvetica,sans-Serif" font-size="10.00">src/VolumeBuilderBase.cc</text>
</a>
</g>
</g>
<!-- Node1&#45;&gt;Node3 -->
<g id="edge11_Node000001_Node000003" class="edge">
<title>Node1&#45;&gt;Node3</title>
<g id="a_edge11_Node000001_Node000003"><a xlink:title=" ">
<path fill="none" stroke="#63b8ff" d="M402.65,-122.7C371.32,-113.84 329.07,-101.68 292,-90.25 222.74,-68.89 141.95,-41.84 99.86,-27.58"/>
<polygon fill="#63b8ff" stroke="#63b8ff" points="401.63,-126.05 412.21,-125.39 403.53,-119.31 401.63,-126.05"/>
</a>
</g>
</g>
<!-- Node4 -->
<g id="Node000004" class="node">
<title>Node4</title>
<g id="a_Node000004"><a xlink:href="VolumeBuilders_8hh.html" target="_top" xlink:title=" ">
<polygon fill="white" stroke="#666666" points="446.88,-90.25 301.12,-90.25 301.12,-69.5 446.88,-69.5 446.88,-90.25"/>
<text text-anchor="middle" x="374" y="-76.75" font-family="Helvetica,sans-Serif" font-size="10.00">include/VolumeBuilders.hh</text>
</a>
</g>
</g>
<!-- Node1&#45;&gt;Node4 -->
<g id="edge3_Node000001_Node000004" class="edge">
<title>Node1&#45;&gt;Node4</title>
<g id="a_edge3_Node000001_Node000004"><a xlink:title=" ">
<path fill="none" stroke="#63b8ff" d="M426.48,-119.19C413.7,-109.86 398.14,-98.5 387.29,-90.58"/>
<polygon fill="#63b8ff" stroke="#63b8ff" points="424.23,-121.88 434.37,-124.94 428.36,-116.22 424.23,-121.88"/>
</a>
</g>
</g>
<!-- Node10 -->
<g id="Node000010" class="node">
<title>Node10</title>
<g id="a_Node000010"><a xlink:href="AssemblyCore_8cc.html" target="_top" xlink:title="Created by.">
<polygon fill="white" stroke="#666666" points="582.62,-90.25 465.38,-90.25 465.38,-69.5 582.62,-69.5 582.62,-90.25"/>
<text text-anchor="middle" x="524" y="-76.75" font-family="Helvetica,sans-Serif" font-size="10.00">src/AssemblyCore.cc</text>
</a>
</g>
</g>
<!-- Node1&#45;&gt;Node10 -->
<g id="edge9_Node000001_Node000010" class="edge">
<title>Node1&#45;&gt;Node10</title>
<g id="a_edge9_Node000001_Node000010"><a xlink:title=" ">
<path fill="none" stroke="#63b8ff" d="M471.52,-119.19C484.3,-109.86 499.86,-98.5 510.71,-90.58"/>
<polygon fill="#63b8ff" stroke="#63b8ff" points="469.64,-116.22 463.63,-124.94 473.77,-121.88 469.64,-116.22"/>
</a>
</g>
</g>
<!-- Node11 -->
<g id="Node000011" class="node">
<title>Node11</title>
<g id="a_Node000011"><a xlink:href="StructureBuilderCore_8cc.html" target="_top" xlink:title="Created by.">
<polygon fill="white" stroke="#666666" points="749,-90.25 601,-90.25 601,-69.5 749,-69.5 749,-90.25"/>
<text text-anchor="middle" x="675" y="-76.75" font-family="Helvetica,sans-Serif" font-size="10.00">src/StructureBuilderCore.cc</text>
</a>
</g>
</g>
<!-- Node1&#45;&gt;Node11 -->
<g id="edge10_Node000001_Node000011" class="edge">
<title>Node1&#45;&gt;Node11</title>
<g id="a_edge10_Node000001_Node000011"><a xlink:title=" ">
<path fill="none" stroke="#63b8ff" d="M500.67,-123.11C541.21,-113.29 596.86,-99.81 634.28,-90.74"/>
<polygon fill="#63b8ff" stroke="#63b8ff" points="500.03,-119.66 491.14,-125.42 501.68,-126.46 500.03,-119.66"/>
</a>
</g>
</g>
<!-- Node12 -->
<g id="Node000012" class="node">
<title>Node12</title>
<g id="a_Node000012"><a xlink:href="VolumeBuilderCore_8cc.html" target="_top" xlink:title="Created by.">
<polygon fill="white" stroke="#666666" points="907.25,-90.25 766.75,-90.25 766.75,-69.5 907.25,-69.5 907.25,-90.25"/>
<text text-anchor="middle" x="837" y="-76.75" font-family="Helvetica,sans-Serif" font-size="10.00">src/VolumeBuilderCore.cc</text>
</a>
</g>
</g>
<!-- Node1&#45;&gt;Node12 -->
<g id="edge12_Node000001_Node000012" class="edge">
<title>Node1&#45;&gt;Node12</title>
<g id="a_edge12_Node000001_Node000012"><a xlink:title=" ">
<path fill="none" stroke="#63b8ff" d="M529.8,-124.22C599.91,-114.33 700.37,-100.15 767.09,-90.74"/>
<polygon fill="#63b8ff" stroke="#63b8ff" points="529.73,-120.7 520.31,-125.56 530.7,-127.63 529.73,-120.7"/>
</a>
</g>
</g>
<!-- Node2&#45;&gt;Node3 -->
<g id="edge2_Node000002_Node000003" class="edge">
<title>Node2&#45;&gt;Node3</title>
<g id="a_edge2_Node000002_Node000003"><a xlink:title=" ">
<path fill="none" stroke="#63b8ff" d="M86.25,-58.29C82.32,-47.83 77.72,-35.61 74.61,-27.34"/>
<polygon fill="#63b8ff" stroke="#63b8ff" points="82.97,-59.51 89.77,-67.64 89.53,-57.05 82.97,-59.51"/>
</a>
</g>
</g>
<!-- Node5 -->
<g id="Node000005" class="node">
<title>Node5</title>
<g id="a_Node000005"><a xlink:href="ConstructAssembly_8cc.html" target="_top" xlink:title="Created by.">
<polygon fill="white" stroke="#666666" points="285.75,-33.5 160.25,-33.5 160.25,0 285.75,0 285.75,-33.5"/>
<text text-anchor="start" x="168.25" y="-20" font-family="Helvetica,sans-Serif" font-size="10.00">demo/src/Geometries</text>
<text text-anchor="middle" x="223" y="-7.25" font-family="Helvetica,sans-Serif" font-size="10.00">/ConstructAssembly.cc</text>
</a>
</g>
</g>
<!-- Node4&#45;&gt;Node5 -->
<g id="edge4_Node000004_Node000005" class="edge">
<title>Node4&#45;&gt;Node5</title>
<g id="a_edge4_Node000004_Node000005"><a xlink:title=" ">
<path fill="none" stroke="#63b8ff" d="M339.21,-64.79C316.51,-55.6 286.8,-43.58 263.11,-33.98"/>
<polygon fill="#63b8ff" stroke="#63b8ff" points="337.75,-67.98 348.34,-68.49 340.38,-61.49 337.75,-67.98"/>
</a>
</g>
</g>
<!-- Node6 -->
<g id="Node000006" class="node">
<title>Node6</title>
<g id="a_Node000006"><a xlink:href="ConstructBoxExample_8cc.html" target="_top" xlink:title="Created by.">
<polygon fill="white" stroke="#666666" points="444.25,-33.5 303.75,-33.5 303.75,0 444.25,0 444.25,-33.5"/>
<text text-anchor="start" x="311.75" y="-20" font-family="Helvetica,sans-Serif" font-size="10.00">demo/src/Geometries</text>
<text text-anchor="middle" x="374" y="-7.25" font-family="Helvetica,sans-Serif" font-size="10.00">/ConstructBoxExample.cc</text>
</a>
</g>
</g>
<!-- Node4&#45;&gt;Node6 -->
<g id="edge5_Node000004_Node000006" class="edge">
<title>Node4&#45;&gt;Node6</title>
<g id="a_edge5_Node000004_Node000006"><a xlink:title=" ">
<path fill="none" stroke="#63b8ff" d="M374,-57.59C374,-49.85 374,-41.22 374,-33.98"/>
<polygon fill="#63b8ff" stroke="#63b8ff" points="370.5,-57.54 374,-67.54 377.5,-57.54 370.5,-57.54"/>
</a>
</g>
</g>
<!-- Node7 -->
<g id="Node000007" class="node">
<title>Node7</title>
<g id="a_Node000007"><a xlink:href="ConstructExample1_8cc.html" target="_top" xlink:title="Created by.">
<polygon fill="white" stroke="#666666" points="589.88,-33.5 462.12,-33.5 462.12,0 589.88,0 589.88,-33.5"/>
<text text-anchor="start" x="470.12" y="-20" font-family="Helvetica,sans-Serif" font-size="10.00">demo/src/Geometries</text>
<text text-anchor="middle" x="526" y="-7.25" font-family="Helvetica,sans-Serif" font-size="10.00">/ConstructExample1.cc</text>
</a>
</g>
</g>
<!-- Node4&#45;&gt;Node7 -->
<g id="edge6_Node000004_Node000007" class="edge">
<title>Node4&#45;&gt;Node7</title>
<g id="a_edge6_Node000004_Node000007"><a xlink:title=" ">
<path fill="none" stroke="#63b8ff" d="M409.02,-64.79C431.87,-55.6 461.77,-43.58 485.63,-33.98"/>
<polygon fill="#63b8ff" stroke="#63b8ff" points="407.8,-61.51 399.83,-68.49 410.41,-68.01 407.8,-61.51"/>
</a>
</g>
</g>
<!-- Node8 -->
<g id="Node000008" class="node">
<title>Node8</title>
<g id="a_Node000008"><a xlink:href="ConstructHexPart_8cc.html" target="_top" xlink:title=" ">
<polygon fill="white" stroke="#666666" points="728.5,-33.5 607.5,-33.5 607.5,0 728.5,0 728.5,-33.5"/>
<text text-anchor="start" x="615.5" y="-20" font-family="Helvetica,sans-Serif" font-size="10.00">demo/src/Geometries</text>
<text text-anchor="middle" x="668" y="-7.25" font-family="Helvetica,sans-Serif" font-size="10.00">/ConstructHexPart.cc</text>
</a>
</g>
</g>
<!-- Node4&#45;&gt;Node8 -->
<g id="edge7_Node000004_Node000008" class="edge">
<title>Node4&#45;&gt;Node8</title>
<g id="a_edge7_Node000004_Node000008"><a xlink:title=" ">
<path fill="none" stroke="#63b8ff" d="M435.68,-66.88C480.94,-57.96 543.87,-45.35 599,-33.5 601.64,-32.93 604.34,-32.35 607.07,-31.75"/>
<polygon fill="#63b8ff" stroke="#63b8ff" points="435.19,-63.4 426.05,-68.77 436.54,-70.27 435.19,-63.4"/>
</a>
</g>
</g>
<!-- Node9 -->
<g id="Node000009" class="node">
<title>Node9</title>
<g id="a_Node000009"><a xlink:href="ConstructWorld_8cc.html" target="_top" xlink:title=" ">
<polygon fill="white" stroke="#666666" points="867.5,-33.5 746.5,-33.5 746.5,0 867.5,0 867.5,-33.5"/>
<text text-anchor="start" x="754.5" y="-20" font-family="Helvetica,sans-Serif" font-size="10.00">demo/src/Geometries</text>
<text text-anchor="middle" x="807" y="-7.25" font-family="Helvetica,sans-Serif" font-size="10.00">/ConstructWorld.cc</text>
</a>
</g>
</g>
<!-- Node4&#45;&gt;Node9 -->
<g id="edge8_Node000004_Node000009" class="edge">
<title>Node4&#45;&gt;Node9</title>
<g id="a_edge8_Node000004_Node000009"><a xlink:title=" ">
<path fill="none" stroke="#63b8ff" d="M458.19,-68.83C557.08,-56.97 711.13,-38.23 738,-33.5 740.66,-33.03 743.38,-32.53 746.11,-32"/>
<polygon fill="#63b8ff" stroke="#63b8ff" points="458.03,-65.33 448.51,-69.99 458.86,-72.28 458.03,-65.33"/>
</a>
</g>
</g>
</g>
</svg>
