<?xml version="1.0" encoding="UTF-8" standalone="no"?>
<!DOCTYPE svg PUBLIC "-//W3C//DTD SVG 1.1//EN"
 "http://www.w3.org/Graphics/SVG/1.1/DTD/svg11.dtd">
<!-- Generated by graphviz version 12.0.0 (20240803.0821)
 -->
<!-- Title: include/VolumeBuilderConfigs.hh Pages: 1 -->
<svg width="1888pt" height="420pt"
 viewBox="0.00 0.00 1887.69 420.25" xmlns="http://www.w3.org/2000/svg" xmlns:xlink="http://www.w3.org/1999/xlink">
<g id="graph0" class="graph" transform="scale(1 1) rotate(0) translate(4 416.25)">
<title>include/VolumeBuilderConfigs.hh</title>
<!-- Node1 -->
<g id="Node000001" class="node">
<title>Node1</title>
<g id="a_Node000001"><a xlink:title=" ">
<polygon fill="#999999" stroke="#666666" points="909.94,-412.25 733.44,-412.25 733.44,-391.5 909.94,-391.5 909.94,-412.25"/>
<text text-anchor="middle" x="821.69" y="-398.75" font-family="Helvetica,sans-Serif" font-size="10.00">include/VolumeBuilderConfigs.hh</text>
</a>
</g>
</g>
<!-- Node2 -->
<g id="Node000002" class="node">
<title>Node2</title>
<g id="a_Node000002"><a xlink:href="StructureBuilderBase_8hh.html" target="_top" xlink:title=" ">
<polygon fill="white" stroke="#666666" points="888.19,-355.5 755.19,-355.5 755.19,-322 888.19,-322 888.19,-355.5"/>
<text text-anchor="start" x="763.19" y="-342" font-family="Helvetica,sans-Serif" font-size="10.00">include/StructureBuilder</text>
<text text-anchor="middle" x="821.69" y="-329.25" font-family="Helvetica,sans-Serif" font-size="10.00">Base.hh</text>
</a>
</g>
</g>
<!-- Node1&#45;&gt;Node2 -->
<g id="edge1_Node000001_Node000002" class="edge">
<title>Node1&#45;&gt;Node2</title>
<g id="a_edge1_Node000001_Node000002"><a xlink:title=" ">
<path fill="none" stroke="#63b8ff" d="M821.69,-379.59C821.69,-371.85 821.69,-363.22 821.69,-355.98"/>
<polygon fill="#63b8ff" stroke="#63b8ff" points="818.19,-379.54 821.69,-389.54 825.19,-379.54 818.19,-379.54"/>
</a>
</g>
</g>
<!-- Node4 -->
<g id="Node000004" class="node">
<title>Node4</title>
<g id="a_Node000004"><a xlink:href="VolumeBuilderBase_8hh.html" target="_top" xlink:title=" ">
<polygon fill="white" stroke="#666666" points="569.94,-222.88 405.44,-222.88 405.44,-202.12 569.94,-202.12 569.94,-222.88"/>
<text text-anchor="middle" x="487.69" y="-209.38" font-family="Helvetica,sans-Serif" font-size="10.00">include/VolumeBuilderBase.hh</text>
</a>
</g>
</g>
<!-- Node1&#45;&gt;Node4 -->
<g id="edge61_Node000001_Node000004" class="edge">
<title>Node1&#45;&gt;Node4</title>
<g id="a_edge61_Node000001_Node000004"><a xlink:title=" ">
<path fill="none" stroke="#63b8ff" d="M768.84,-388.16C709.32,-371.9 611.89,-339.29 542.69,-286 519.65,-268.26 501.32,-238.57 492.82,-223.27"/>
<polygon fill="#63b8ff" stroke="#63b8ff" points="767.83,-391.51 778.39,-390.71 769.63,-384.75 767.83,-391.51"/>
</a>
</g>
</g>
<!-- Node13 -->
<g id="Node000013" class="node">
<title>Node13</title>
<g id="a_Node000013"><a xlink:href="BoxBuilderCore_8cc.html" target="_top" xlink:title=" ">
<polygon fill="white" stroke="#666666" points="1625.94,-90.25 1503.44,-90.25 1503.44,-69.5 1625.94,-69.5 1625.94,-90.25"/>
<text text-anchor="middle" x="1564.69" y="-76.75" font-family="Helvetica,sans-Serif" font-size="10.00">src/BoxBuilderCore.cc</text>
</a>
</g>
</g>
<!-- Node1&#45;&gt;Node13 -->
<g id="edge62_Node000001_Node000013" class="edge">
<title>Node1&#45;&gt;Node13</title>
<g id="a_edge62_Node000001_Node000013"><a xlink:title=" ">
<path fill="none" stroke="#63b8ff" d="M921.37,-394.97C1129.21,-381.33 1589.69,-343.56 1589.69,-276.62 1589.69,-276.62 1589.69,-276.62 1589.69,-211.5 1589.69,-165.55 1574.58,-112.11 1567.85,-90.58"/>
<polygon fill="#63b8ff" stroke="#63b8ff" points="921.42,-391.46 911.67,-395.6 921.88,-398.45 921.42,-391.46"/>
</a>
</g>
</g>
<!-- Node3 -->
<g id="Node000003" class="node">
<title>Node3</title>
<g id="a_Node000003"><a xlink:href="AssemblyCore_8hh.html" target="_top" xlink:title=" ">
<polygon fill="white" stroke="#666666" points="691.56,-286 551.81,-286 551.81,-265.25 691.56,-265.25 691.56,-286"/>
<text text-anchor="middle" x="621.69" y="-272.5" font-family="Helvetica,sans-Serif" font-size="10.00">include/AssemblyCore.hh</text>
</a>
</g>
</g>
<!-- Node2&#45;&gt;Node3 -->
<g id="edge2_Node000002_Node000003" class="edge">
<title>Node2&#45;&gt;Node3</title>
<g id="a_edge2_Node000002_Node000003"><a xlink:title=" ">
<path fill="none" stroke="#63b8ff" d="M757.62,-318.17C722.95,-307.57 681.63,-294.94 653.72,-286.42"/>
<polygon fill="#63b8ff" stroke="#63b8ff" points="756.58,-321.51 767.17,-321.09 758.63,-314.82 756.58,-321.51"/>
</a>
</g>
</g>
<!-- Node6 -->
<g id="Node000006" class="node">
<title>Node6</title>
<g id="a_Node000006"><a xlink:href="VolumeBuilders_8hh.html" target="_top" xlink:title=" ">
<polygon fill="white" stroke="#666666" points="1485.56,-90.25 1339.81,-90.25 1339.81,-69.5 1485.56,-69.5 1485.56,-90.25"/>
<text text-anchor="middle" x="1412.69" y="-76.75" font-family="Helvetica,sans-Serif" font-size="10.00">include/VolumeBuilders.hh</text>
</a>
</g>
</g>
<!-- Node2&#45;&gt;Node6 -->
<g id="edge56_Node000002_Node000006" class="edge">
<title>Node2&#45;&gt;Node6</title>
<g id="a_edge56_Node000002_Node000006"><a xlink:title=" ">
<path fill="none" stroke="#63b8ff" d="M899.5,-329.71C1064.03,-310.91 1438.19,-258.06 1511.69,-159.75 1520.6,-147.83 1519.73,-138.78 1511.69,-126.25 1500.15,-108.27 1479.51,-97.32 1460.05,-90.7"/>
<polygon fill="#63b8ff" stroke="#63b8ff" points="899.54,-326.18 890,-330.78 900.33,-333.14 899.54,-326.18"/>
</a>
</g>
</g>
<!-- Node14 -->
<g id="Node000014" class="node">
<title>Node14</title>
<g id="a_Node000014"><a xlink:href="VolumeBuilderBase_8cc.html" target="_top" xlink:title=" ">
<polygon fill="white" stroke="#666666" points="921.69,-27.12 779.69,-27.12 779.69,-6.38 921.69,-6.38 921.69,-27.12"/>
<text text-anchor="middle" x="850.69" y="-13.62" font-family="Helvetica,sans-Serif" font-size="10.00">src/VolumeBuilderBase.cc</text>
</a>
</g>
</g>
<!-- Node2&#45;&gt;Node14 -->
<g id="edge60_Node000002_Node000014" class="edge">
<title>Node2&#45;&gt;Node14</title>
<g id="a_edge60_Node000002_Node000014"><a xlink:title=" ">
<path fill="none" stroke="#63b8ff" d="M899.9,-329.5C997.62,-314.52 1161.08,-273.04 1235.69,-159.75 1261.91,-119.93 1220.31,-90.86 1177.69,-69.5 1084.79,-22.95 1049.29,-49.91 946.69,-33.5 934.93,-31.62 922.37,-29.58 910.33,-27.61"/>
<polygon fill="#63b8ff" stroke="#63b8ff" points="899.49,-326.02 890.1,-330.93 900.51,-332.95 899.49,-326.02"/>
</a>
</g>
</g>
<!-- Node16 -->
<g id="Node000016" class="node">
<title>Node16</title>
<g id="a_Node000016"><a xlink:href="FromG4VSolidCore_8cc.html" target="_top" xlink:title=" ">
<polygon fill="white" stroke="#666666" points="929.81,-90.25 791.56,-90.25 791.56,-69.5 929.81,-69.5 929.81,-90.25"/>
<text text-anchor="middle" x="860.69" y="-76.75" font-family="Helvetica,sans-Serif" font-size="10.00">src/FromG4VSolidCore.cc</text>
</a>
</g>
</g>
<!-- Node2&#45;&gt;Node16 -->
<g id="edge57_Node000002_Node000016" class="edge">
<title>Node2&#45;&gt;Node16</title>
<g id="a_edge57_Node000002_Node000016"><a xlink:title=" ">
<path fill="none" stroke="#63b8ff" d="M825.83,-310.48C834.39,-254.09 853.69,-126.94 859.2,-90.69"/>
<polygon fill="#63b8ff" stroke="#63b8ff" points="822.39,-309.77 824.35,-320.18 829.31,-310.82 822.39,-309.77"/>
</a>
</g>
</g>
<!-- Node18 -->
<g id="Node000018" class="node">
<title>Node18</title>
<g id="a_Node000018"><a xlink:href="RZBuilderCore_8cc.html" target="_top" xlink:title=" ">
<polygon fill="white" stroke="#666666" points="1109.31,-90.25 992.06,-90.25 992.06,-69.5 1109.31,-69.5 1109.31,-90.25"/>
<text text-anchor="middle" x="1050.69" y="-76.75" font-family="Helvetica,sans-Serif" font-size="10.00">src/RZBuilderCore.cc</text>
</a>
</g>
</g>
<!-- Node2&#45;&gt;Node18 -->
<g id="edge58_Node000002_Node000018" class="edge">
<title>Node2&#45;&gt;Node18</title>
<g id="a_edge58_Node000002_Node000018"><a xlink:title=" ">
<path fill="none" stroke="#63b8ff" d="M899.45,-327.79C993.14,-311.17 1146.66,-268.11 1216.69,-159.75 1245.22,-115.6 1168.27,-95.61 1109.8,-86.97"/>
<polygon fill="#63b8ff" stroke="#63b8ff" points="899.09,-324.3 889.83,-329.44 900.27,-331.2 899.09,-324.3"/>
</a>
</g>
</g>
<!-- Node22 -->
<g id="Node000022" class="node">
<title>Node22</title>
<g id="a_Node000022"><a xlink:href="StructureBuilderCore_8cc.html" target="_top" xlink:title="Created by.">
<polygon fill="white" stroke="#666666" points="731.69,-90.25 583.69,-90.25 583.69,-69.5 731.69,-69.5 731.69,-90.25"/>
<text text-anchor="middle" x="657.69" y="-76.75" font-family="Helvetica,sans-Serif" font-size="10.00">src/StructureBuilderCore.cc</text>
</a>
</g>
</g>
<!-- Node2&#45;&gt;Node22 -->
<g id="edge59_Node000002_Node000022" class="edge">
<title>Node2&#45;&gt;Node22</title>
<g id="a_edge59_Node000002_Node000022"><a xlink:title=" ">
<path fill="none" stroke="#63b8ff" d="M788.15,-314.87C747.39,-284.81 680.71,-227.75 653.69,-159.75 644.37,-136.3 650.51,-105.82 654.7,-90.52"/>
<polygon fill="#63b8ff" stroke="#63b8ff" points="786.04,-317.67 796.19,-320.69 790.14,-311.99 786.04,-317.67"/>
</a>
</g>
</g>
<!-- Node24 -->
<g id="Node000024" class="node">
<title>Node24</title>
<g id="a_Node000024"><a xlink:href="StructureBuilderBase_8hpp.html" target="_top" xlink:title="Created by.">
<polygon fill="white" stroke="#666666" points="795.19,-159.75 662.19,-159.75 662.19,-126.25 795.19,-126.25 795.19,-159.75"/>
<text text-anchor="start" x="670.19" y="-146.25" font-family="Helvetica,sans-Serif" font-size="10.00">include/StructureBuilder</text>
<text text-anchor="middle" x="728.69" y="-133.5" font-family="Helvetica,sans-Serif" font-size="10.00">Base.hpp</text>
</a>
</g>
</g>
<!-- Node2&#45;&gt;Node24 -->
<g id="edge40_Node000002_Node000024" class="edge">
<title>Node2&#45;&gt;Node24</title>
<g id="a_edge40_Node000002_Node000024"><a xlink:title=" ">
<path fill="none" stroke="#63b8ff" d="M809,-311.31C789.4,-270.49 752.37,-193.34 736.37,-160"/>
<polygon fill="#63b8ff" stroke="#63b8ff" points="805.78,-312.7 813.26,-320.2 812.09,-309.67 805.78,-312.7"/>
</a>
</g>
</g>
<!-- Node25 -->
<g id="Node000025" class="node">
<title>Node25</title>
<g id="a_Node000025"><a xlink:href="StructureBuilderCore_8hh.html" target="_top" xlink:title=" ">
<polygon fill="white" stroke="#666666" points="387.19,-229.25 254.19,-229.25 254.19,-195.75 387.19,-195.75 387.19,-229.25"/>
<text text-anchor="start" x="262.19" y="-215.75" font-family="Helvetica,sans-Serif" font-size="10.00">include/StructureBuilder</text>
<text text-anchor="middle" x="320.69" y="-203" font-family="Helvetica,sans-Serif" font-size="10.00">Core.hh</text>
</a>
</g>
</g>
<!-- Node2&#45;&gt;Node25 -->
<g id="edge49_Node000002_Node000025" class="edge">
<title>Node2&#45;&gt;Node25</title>
<g id="a_edge49_Node000002_Node000025"><a xlink:title=" ">
<path fill="none" stroke="#63b8ff" d="M743.59,-326.1C687.32,-317.02 609.79,-303.1 542.69,-286 479.82,-269.98 408.82,-245.66 364.41,-229.68"/>
<polygon fill="#63b8ff" stroke="#63b8ff" points="742.99,-329.55 753.42,-327.67 744.09,-322.64 742.99,-329.55"/>
</a>
</g>
</g>
<!-- Node3&#45;&gt;Node4 -->
<g id="edge3_Node000003_Node000004" class="edge">
<title>Node3&#45;&gt;Node4</title>
<g id="a_edge3_Node000003_Node000004"><a xlink:title=" ">
<path fill="none" stroke="#63b8ff" d="M589.76,-260.06C564.85,-248.7 530.92,-233.22 509.16,-223.3"/>
<polygon fill="#63b8ff" stroke="#63b8ff" points="588.23,-263.21 598.78,-264.18 591.13,-256.84 588.23,-263.21"/>
</a>
</g>
</g>
<!-- Node3&#45;&gt;Node6 -->
<g id="edge37_Node000003_Node000006" class="edge">
<title>Node3&#45;&gt;Node6</title>
<g id="a_edge37_Node000003_Node000006"><a xlink:title=" ">
<path fill="none" stroke="#63b8ff" d="M703.44,-269.91C910.49,-257.16 1442.84,-218.86 1494.69,-159.75 1504.5,-148.56 1502.25,-139.08 1494.69,-126.25 1484.36,-108.73 1464.56,-97.5 1447.01,-90.6"/>
<polygon fill="#63b8ff" stroke="#63b8ff" points="703.33,-266.42 693.56,-270.52 703.76,-273.4 703.33,-266.42"/>
</a>
</g>
</g>
<!-- Node3&#45;&gt;Node14 -->
<g id="edge39_Node000003_Node000014" class="edge">
<title>Node3&#45;&gt;Node14</title>
<g id="a_edge39_Node000003_Node000014"><a xlink:title=" ">
<path fill="none" stroke="#63b8ff" d="M703.17,-271.25C850.63,-263.25 1152.48,-237.54 1216.69,-159.75 1262.72,-103.98 1155.19,-76.55 1138.69,-69.5 1128.19,-65.02 990.44,-41.32 909.32,-27.6"/>
<polygon fill="#63b8ff" stroke="#63b8ff" points="703.28,-267.74 693.47,-271.76 703.64,-274.73 703.28,-267.74"/>
</a>
</g>
</g>
<!-- Node19 -->
<g id="Node000019" class="node">
<title>Node19</title>
<g id="a_Node000019"><a xlink:href="VolumeBuilderBase_8hpp.html" target="_top" xlink:title=" ">
<polygon fill="white" stroke="#666666" points="195.94,-90.25 25.44,-90.25 25.44,-69.5 195.94,-69.5 195.94,-90.25"/>
<text text-anchor="middle" x="110.69" y="-76.75" font-family="Helvetica,sans-Serif" font-size="10.00">include/VolumeBuilderBase.hpp</text>
</a>
</g>
</g>
<!-- Node3&#45;&gt;Node19 -->
<g id="edge36_Node000003_Node000019" class="edge">
<title>Node3&#45;&gt;Node19</title>
<g id="a_edge36_Node000003_Node000019"><a xlink:title=" ">
<path fill="none" stroke="#63b8ff" d="M540.52,-273.34C462.95,-270.15 343.51,-260.06 244.69,-229.25 181.39,-209.52 147.67,-216.07 112.69,-159.75 99.32,-138.22 104.23,-106.62 107.98,-90.74"/>
<polygon fill="#63b8ff" stroke="#63b8ff" points="540.02,-276.82 550.14,-273.7 540.28,-269.83 540.02,-276.82"/>
</a>
</g>
</g>
<!-- Node21 -->
<g id="Node000021" class="node">
<title>Node21</title>
<g id="a_Node000021"><a xlink:href="AssemblyCore_8cc.html" target="_top" xlink:title="Created by.">
<polygon fill="white" stroke="#666666" points="565.31,-90.25 448.06,-90.25 448.06,-69.5 565.31,-69.5 565.31,-90.25"/>
<text text-anchor="middle" x="506.69" y="-76.75" font-family="Helvetica,sans-Serif" font-size="10.00">src/AssemblyCore.cc</text>
</a>
</g>
</g>
<!-- Node3&#45;&gt;Node21 -->
<g id="edge38_Node000003_Node000021" class="edge">
<title>Node3&#45;&gt;Node21</title>
<g id="a_edge38_Node000003_Node000021"><a xlink:title=" ">
<path fill="none" stroke="#63b8ff" d="M611.39,-254.95C602.87,-238.88 590.34,-215.65 578.69,-195.75 555.5,-156.14 525.86,-110.22 513.05,-90.59"/>
<polygon fill="#63b8ff" stroke="#63b8ff" points="608.12,-256.25 615.87,-263.47 614.31,-252.99 608.12,-256.25"/>
</a>
</g>
</g>
<!-- Node5 -->
<g id="Node000005" class="node">
<title>Node5</title>
<g id="a_Node000005"><a xlink:href="BoxBuilderCore_8hh.html" target="_top" xlink:title=" ">
<polygon fill="white" stroke="#666666" points="1485.19,-153.38 1340.19,-153.38 1340.19,-132.62 1485.19,-132.62 1485.19,-153.38"/>
<text text-anchor="middle" x="1412.69" y="-139.88" font-family="Helvetica,sans-Serif" font-size="10.00">include/BoxBuilderCore.hh</text>
</a>
</g>
</g>
<!-- Node4&#45;&gt;Node5 -->
<g id="edge4_Node000004_Node000005" class="edge">
<title>Node4&#45;&gt;Node5</title>
<g id="a_edge4_Node000004_Node000005"><a xlink:title=" ">
<path fill="none" stroke="#63b8ff" d="M581.65,-205.11C720.51,-195.6 988.72,-177 1216.69,-159.75 1257.53,-156.66 1303.15,-153.01 1340.1,-150"/>
<polygon fill="#63b8ff" stroke="#63b8ff" points="581.49,-201.61 571.76,-205.79 581.97,-208.6 581.49,-201.61"/>
</a>
</g>
</g>
<!-- Node4&#45;&gt;Node14 -->
<g id="edge34_Node000004_Node000014" class="edge">
<title>Node4&#45;&gt;Node14</title>
<g id="a_edge34_Node000004_Node000014"><a xlink:title=" ">
<path fill="none" stroke="#63b8ff" d="M424.75,-199.44C365.29,-187.56 283.46,-169.78 271.69,-159.75 239.61,-132.44 214.19,-100.53 242.69,-69.5 278.36,-30.66 626.39,-20.93 779.27,-18.53"/>
<polygon fill="#63b8ff" stroke="#63b8ff" points="423.97,-202.85 434.46,-201.36 425.34,-195.98 423.97,-202.85"/>
</a>
</g>
</g>
<!-- Node15 -->
<g id="Node000015" class="node">
<title>Node15</title>
<g id="a_Node000015"><a xlink:href="FromG4VSolidCore_8hh.html" target="_top" xlink:title=" ">
<polygon fill="white" stroke="#666666" points="1050.06,-153.38 889.31,-153.38 889.31,-132.62 1050.06,-132.62 1050.06,-153.38"/>
<text text-anchor="middle" x="969.69" y="-139.88" font-family="Helvetica,sans-Serif" font-size="10.00">include/FromG4VSolidCore.hh</text>
</a>
</g>
</g>
<!-- Node4&#45;&gt;Node15 -->
<g id="edge14_Node000004_Node000015" class="edge">
<title>Node4&#45;&gt;Node15</title>
<g id="a_edge14_Node000004_Node000015"><a xlink:title=" ">
<path fill="none" stroke="#63b8ff" d="M569.31,-200.07C661.93,-187.1 811.47,-166.16 899.2,-153.87"/>
<polygon fill="#63b8ff" stroke="#63b8ff" points="568.95,-196.59 559.53,-201.44 569.92,-203.52 568.95,-196.59"/>
</a>
</g>
</g>
<!-- Node4&#45;&gt;Node16 -->
<g id="edge32_Node000004_Node000016" class="edge">
<title>Node4&#45;&gt;Node16</title>
<g id="a_edge32_Node000004_Node000016"><a xlink:title=" ">
<path fill="none" stroke="#63b8ff" d="M581.2,-204.22C660.93,-196.58 768.25,-182.47 804.69,-159.75 831.76,-142.87 849.49,-107.6 856.84,-90.53"/>
<polygon fill="#63b8ff" stroke="#63b8ff" points="581.28,-200.7 571.65,-205.12 581.93,-207.67 581.28,-200.7"/>
</a>
</g>
</g>
<!-- Node17 -->
<g id="Node000017" class="node">
<title>Node17</title>
<g id="a_Node000017"><a xlink:href="RZBuilderCore_8hh.html" target="_top" xlink:title=" ">
<polygon fill="white" stroke="#666666" points="1207.56,-153.38 1067.81,-153.38 1067.81,-132.62 1207.56,-132.62 1207.56,-153.38"/>
<text text-anchor="middle" x="1137.69" y="-139.88" font-family="Helvetica,sans-Serif" font-size="10.00">include/RZBuilderCore.hh</text>
</a>
</g>
</g>
<!-- Node4&#45;&gt;Node17 -->
<g id="edge18_Node000004_Node000017" class="edge">
<title>Node4&#45;&gt;Node17</title>
<g id="a_edge18_Node000004_Node000017"><a xlink:title=" ">
<path fill="none" stroke="#63b8ff" d="M581.78,-203.52C731.75,-190.73 1012.84,-166.38 1058.69,-159.75 1069.76,-158.15 1081.63,-156.01 1092.71,-153.83"/>
<polygon fill="#63b8ff" stroke="#63b8ff" points="581.5,-200.04 571.84,-204.37 582.1,-207.01 581.5,-200.04"/>
</a>
</g>
</g>
<!-- Node4&#45;&gt;Node19 -->
<g id="edge22_Node000004_Node000019" class="edge">
<title>Node4&#45;&gt;Node19</title>
<g id="a_edge22_Node000004_Node000019"><a xlink:title=" ">
<path fill="none" stroke="#63b8ff" d="M420.19,-199.78C341.02,-185.91 219.27,-164.13 209.69,-159.75 171.91,-142.5 135.95,-107.73 119.72,-90.71"/>
<polygon fill="#63b8ff" stroke="#63b8ff" points="419.11,-203.14 429.57,-201.42 420.32,-196.25 419.11,-203.14"/>
</a>
</g>
</g>
<!-- Node20 -->
<g id="Node000020" class="node">
<title>Node20</title>
<g id="a_Node000020"><a xlink:href="VolumeBuilderCore_8hh.html" target="_top" xlink:title=" ">
<polygon fill="white" stroke="#666666" points="453.19,-153.38 290.19,-153.38 290.19,-132.62 453.19,-132.62 453.19,-153.38"/>
<text text-anchor="middle" x="371.69" y="-139.88" font-family="Helvetica,sans-Serif" font-size="10.00">include/VolumeBuilderCore.hh</text>
</a>
</g>
</g>
<!-- Node4&#45;&gt;Node20 -->
<g id="edge24_Node000004_Node000020" class="edge">
<title>Node4&#45;&gt;Node20</title>
<g id="a_edge24_Node000004_Node000020"><a xlink:title=" ">
<path fill="none" stroke="#63b8ff" d="M461.23,-196.11C438.95,-183.14 407.73,-164.97 388.65,-153.87"/>
<polygon fill="#63b8ff" stroke="#63b8ff" points="459.35,-199.06 469.76,-201.07 462.87,-193.01 459.35,-199.06"/>
</a>
</g>
</g>
<!-- Node4&#45;&gt;Node21 -->
<g id="edge31_Node000004_Node000021" class="edge">
<title>Node4&#45;&gt;Node21</title>
<g id="a_edge31_Node000004_Node000021"><a xlink:title=" ">
<path fill="none" stroke="#63b8ff" d="M490.74,-190.52C494.91,-161.8 502.24,-111.42 505.29,-90.45"/>
<polygon fill="#63b8ff" stroke="#63b8ff" points="487.31,-189.78 489.33,-200.18 494.23,-190.79 487.31,-189.78"/>
</a>
</g>
</g>
<!-- Node4&#45;&gt;Node22 -->
<g id="edge33_Node000004_Node000022" class="edge">
<title>Node4&#45;&gt;Node22</title>
<g id="a_edge33_Node000004_Node000022"><a xlink:title=" ">
<path fill="none" stroke="#63b8ff" d="M509.21,-194.96C545.2,-167.31 616.47,-112.55 645.22,-90.45"/>
<polygon fill="#63b8ff" stroke="#63b8ff" points="507.46,-191.89 501.66,-200.76 511.73,-197.44 507.46,-191.89"/>
</a>
</g>
</g>
<!-- Node23 -->
<g id="Node000023" class="node">
<title>Node23</title>
<g id="a_Node000023"><a xlink:href="VolumeBuilderCore_8cc.html" target="_top" xlink:title="Created by.">
<polygon fill="white" stroke="#666666" points="391.94,-90.25 251.44,-90.25 251.44,-69.5 391.94,-69.5 391.94,-90.25"/>
<text text-anchor="middle" x="321.69" y="-76.75" font-family="Helvetica,sans-Serif" font-size="10.00">src/VolumeBuilderCore.cc</text>
</a>
</g>
</g>
<!-- Node4&#45;&gt;Node23 -->
<g id="edge35_Node000004_Node000023" class="edge">
<title>Node4&#45;&gt;Node23</title>
<g id="a_edge35_Node000004_Node000023"><a xlink:title=" ">
<path fill="none" stroke="#63b8ff" d="M423.06,-199.47C365.72,-188.13 289.65,-171.23 280.69,-159.75 263.12,-137.25 292.35,-106.08 309.92,-90.52"/>
<polygon fill="#63b8ff" stroke="#63b8ff" points="422.29,-202.88 432.77,-201.37 423.63,-196.01 422.29,-202.88"/>
</a>
</g>
</g>
<!-- Node5&#45;&gt;Node6 -->
<g id="edge5_Node000005_Node000006" class="edge">
<title>Node5&#45;&gt;Node6</title>
<g id="a_edge5_Node000005_Node000006"><a xlink:title=" ">
<path fill="none" stroke="#63b8ff" d="M1412.69,-120.74C1412.69,-110.43 1412.69,-98.56 1412.69,-90.47"/>
<polygon fill="#63b8ff" stroke="#63b8ff" points="1409.19,-120.67 1412.69,-130.67 1416.19,-120.67 1409.19,-120.67"/>
</a>
</g>
</g>
<!-- Node5&#45;&gt;Node13 -->
<g id="edge12_Node000005_Node000013" class="edge">
<title>Node5&#45;&gt;Node13</title>
<g id="a_edge12_Node000005_Node000013"><a xlink:title=" ">
<path fill="none" stroke="#63b8ff" d="M1447.77,-127.89C1476.12,-116.49 1515.31,-100.73 1540.33,-90.67"/>
<polygon fill="#63b8ff" stroke="#63b8ff" points="1446.48,-124.64 1438.51,-131.61 1449.1,-131.13 1446.48,-124.64"/>
</a>
</g>
</g>
<!-- Node5&#45;&gt;Node14 -->
<g id="edge13_Node000005_Node000014" class="edge">
<title>Node5&#45;&gt;Node14</title>
<g id="a_edge13_Node000005_Node000014"><a xlink:title=" ">
<path fill="none" stroke="#63b8ff" d="M1388.5,-126.33C1358.38,-107.12 1308.36,-76.25 1287.69,-69.5 1142.8,-22.23 1097.72,-53.84 946.69,-33.5 933.96,-31.79 920.34,-29.7 907.46,-27.62"/>
<polygon fill="#63b8ff" stroke="#63b8ff" points="1386.3,-129.08 1396.61,-131.54 1390.08,-123.19 1386.3,-129.08"/>
</a>
</g>
</g>
<!-- Node7 -->
<g id="Node000007" class="node">
<title>Node7</title>
<g id="a_Node000007"><a xlink:href="AssemblyGeoModule_8cc.html" target="_top" xlink:title="Created by.">
<polygon fill="white" stroke="#666666" points="1879.69,-33.5 1743.69,-33.5 1743.69,0 1879.69,0 1879.69,-33.5"/>
<text text-anchor="start" x="1751.69" y="-20" font-family="Helvetica,sans-Serif" font-size="10.00">demo/src/Geometries</text>
<text text-anchor="middle" x="1811.69" y="-7.25" font-family="Helvetica,sans-Serif" font-size="10.00">/AssemblyGeoModule.cc</text>
</a>
</g>
</g>
<!-- Node6&#45;&gt;Node7 -->
<g id="edge6_Node000006_Node000007" class="edge">
<title>Node6&#45;&gt;Node7</title>
<g id="a_edge6_Node000006_Node000007"><a xlink:title=" ">
<path fill="none" stroke="#63b8ff" d="M1496.8,-68.47C1561.9,-60.06 1654.22,-47.38 1734.69,-33.5 1737.51,-33.01 1740.39,-32.5 1743.29,-31.97"/>
<polygon fill="#63b8ff" stroke="#63b8ff" points="1496.75,-64.94 1487.28,-69.69 1497.65,-71.89 1496.75,-64.94"/>
</a>
</g>
</g>
<!-- Node8 -->
<g id="Node000008" class="node">
<title>Node8</title>
<g id="a_Node000008"><a xlink:href="BoxExampleGeoModule_8cc.html" target="_top" xlink:title="Created by.">
<polygon fill="white" stroke="#666666" points="1105.44,-33.5 955.94,-33.5 955.94,0 1105.44,0 1105.44,-33.5"/>
<text text-anchor="start" x="963.94" y="-20" font-family="Helvetica,sans-Serif" font-size="10.00">demo/src/Geometries</text>
<text text-anchor="middle" x="1030.69" y="-7.25" font-family="Helvetica,sans-Serif" font-size="10.00">/BoxExampleGeoModule.cc</text>
</a>
</g>
</g>
<!-- Node6&#45;&gt;Node8 -->
<g id="edge7_Node000006_Node000008" class="edge">
<title>Node6&#45;&gt;Node8</title>
<g id="a_edge7_Node000006_Node000008"><a xlink:title=" ">
<path fill="none" stroke="#63b8ff" d="M1332.03,-67.36C1272.01,-58.6 1188.12,-45.97 1114.69,-33.5 1111.76,-33 1108.78,-32.49 1105.77,-31.96"/>
<polygon fill="#63b8ff" stroke="#63b8ff" points="1331.43,-70.81 1341.83,-68.78 1332.44,-63.88 1331.43,-70.81"/>
</a>
</g>
</g>
<!-- Node9 -->
<g id="Node000009" class="node">
<title>Node9</title>
<g id="a_Node000009"><a xlink:href="Example1GeoModule_8cc.html" target="_top" xlink:title="Created by.">
<polygon fill="white" stroke="#666666" points="1260.06,-33.5 1123.31,-33.5 1123.31,0 1260.06,0 1260.06,-33.5"/>
<text text-anchor="start" x="1131.31" y="-20" font-family="Helvetica,sans-Serif" font-size="10.00">demo/src/Geometries</text>
<text text-anchor="middle" x="1191.69" y="-7.25" font-family="Helvetica,sans-Serif" font-size="10.00">/Example1GeoModule.cc</text>
</a>
</g>
</g>
<!-- Node6&#45;&gt;Node9 -->
<g id="edge8_Node000006_Node000009" class="edge">
<title>Node6&#45;&gt;Node9</title>
<g id="a_edge8_Node000006_Node000009"><a xlink:title=" ">
<path fill="none" stroke="#63b8ff" d="M1366.24,-66.03C1332.52,-56.7 1286.64,-44.01 1250.38,-33.98"/>
<polygon fill="#63b8ff" stroke="#63b8ff" points="1365.15,-69.36 1375.72,-68.65 1367.01,-62.61 1365.15,-69.36"/>
</a>
</g>
</g>
<!-- Node10 -->
<g id="Node000010" class="node">
<title>Node10</title>
<g id="a_Node000010"><a xlink:href="HexPartGeoModule_8cc.html" target="_top" xlink:title="Created by.">
<polygon fill="white" stroke="#666666" points="1404.81,-33.5 1278.56,-33.5 1278.56,0 1404.81,0 1404.81,-33.5"/>
<text text-anchor="start" x="1286.56" y="-20" font-family="Helvetica,sans-Serif" font-size="10.00">demo/src/Geometries</text>
<text text-anchor="middle" x="1341.69" y="-7.25" font-family="Helvetica,sans-Serif" font-size="10.00">/HexPartGeoModule.cc</text>
</a>
</g>
</g>
<!-- Node6&#45;&gt;Node10 -->
<g id="edge9_Node000006_Node000010" class="edge">
<title>Node6&#45;&gt;Node10</title>
<g id="a_edge9_Node000006_Node000010"><a xlink:title=" ">
<path fill="none" stroke="#63b8ff" d="M1392.73,-61.69C1382.64,-53.01 1370.47,-42.53 1360.54,-33.98"/>
<polygon fill="#63b8ff" stroke="#63b8ff" points="1390.27,-64.19 1400.13,-68.07 1394.84,-58.89 1390.27,-64.19"/>
</a>
</g>
</g>
<!-- Node11 -->
<g id="Node000011" class="node">
<title>Node11</title>
<g id="a_Node000011"><a xlink:href="WorldGeoModule_8cc.html" target="_top" xlink:title="Created by.">
<polygon fill="white" stroke="#666666" points="1544.19,-33.5 1423.19,-33.5 1423.19,0 1544.19,0 1544.19,-33.5"/>
<text text-anchor="start" x="1431.19" y="-20" font-family="Helvetica,sans-Serif" font-size="10.00">demo/src/Geometries</text>
<text text-anchor="middle" x="1483.69" y="-7.25" font-family="Helvetica,sans-Serif" font-size="10.00">/WorldGeoModule.cc</text>
</a>
</g>
</g>
<!-- Node6&#45;&gt;Node11 -->
<g id="edge10_Node000006_Node000011" class="edge">
<title>Node6&#45;&gt;Node11</title>
<g id="a_edge10_Node000006_Node000011"><a xlink:title=" ">
<path fill="none" stroke="#63b8ff" d="M1432.65,-61.69C1442.73,-53.01 1454.9,-42.53 1464.83,-33.98"/>
<polygon fill="#63b8ff" stroke="#63b8ff" points="1430.54,-58.89 1425.24,-68.07 1435.1,-64.19 1430.54,-58.89"/>
</a>
</g>
</g>
<!-- Node12 -->
<g id="Node000012" class="node">
<title>Node12</title>
<g id="a_Node000012"><a xlink:href="BoxTestGeoModule_8cc.html" target="_top" xlink:title=" ">
<polygon fill="white" stroke="#666666" points="1725.19,-33.5 1562.19,-33.5 1562.19,0 1725.19,0 1725.19,-33.5"/>
<text text-anchor="start" x="1570.19" y="-20" font-family="Helvetica,sans-Serif" font-size="10.00">demo/src/Geometries</text>
<text text-anchor="middle" x="1643.69" y="-7.25" font-family="Helvetica,sans-Serif" font-size="10.00">/testing/BoxTestGeoModule.cc</text>
</a>
</g>
</g>
<!-- Node6&#45;&gt;Node12 -->
<g id="edge11_Node000006_Node000012" class="edge">
<title>Node6&#45;&gt;Node12</title>
<g id="a_edge11_Node000006_Node000012"><a xlink:title=" ">
<path fill="none" stroke="#63b8ff" d="M1460.77,-66.15C1496.06,-56.81 1544.27,-44.06 1582.33,-33.98"/>
<polygon fill="#63b8ff" stroke="#63b8ff" points="1460.04,-62.73 1451.26,-68.67 1461.83,-69.49 1460.04,-62.73"/>
</a>
</g>
</g>
<!-- Node15&#45;&gt;Node6 -->
<g id="edge15_Node000015_Node000006" class="edge">
<title>Node15&#45;&gt;Node6</title>
<g id="a_edge15_Node000015_Node000006"><a xlink:title=" ">
<path fill="none" stroke="#63b8ff" d="M1034.01,-130.24C1042.3,-128.84 1050.69,-127.47 1058.69,-126.25 1155.47,-111.49 1267.63,-97.67 1339.32,-89.24"/>
<polygon fill="#63b8ff" stroke="#63b8ff" points="1033.55,-126.77 1024.29,-131.92 1034.74,-133.67 1033.55,-126.77"/>
</a>
</g>
</g>
<!-- Node15&#45;&gt;Node14 -->
<g id="edge17_Node000015_Node000014" class="edge">
<title>Node15&#45;&gt;Node14</title>
<g id="a_edge17_Node000015_Node000014"><a xlink:title=" ">
<path fill="none" stroke="#63b8ff" d="M964.73,-121.6C960.1,-105.92 951.87,-84.49 938.69,-69.5 921.71,-50.21 895.73,-36.17 876.4,-27.62"/>
<polygon fill="#63b8ff" stroke="#63b8ff" points="961.23,-122.05 967.21,-130.8 967.99,-120.24 961.23,-122.05"/>
</a>
</g>
</g>
<!-- Node15&#45;&gt;Node16 -->
<g id="edge16_Node000015_Node000016" class="edge">
<title>Node15&#45;&gt;Node16</title>
<g id="a_edge16_Node000015_Node000016"><a xlink:title=" ">
<path fill="none" stroke="#63b8ff" d="M942.34,-126.67C922.22,-115.38 895.46,-100.38 878.16,-90.67"/>
<polygon fill="#63b8ff" stroke="#63b8ff" points="940.42,-129.6 950.85,-131.44 943.84,-123.49 940.42,-129.6"/>
</a>
</g>
</g>
<!-- Node17&#45;&gt;Node6 -->
<g id="edge19_Node000017_Node000006" class="edge">
<title>Node17&#45;&gt;Node6</title>
<g id="a_edge19_Node000017_Node000006"><a xlink:title=" ">
<path fill="none" stroke="#63b8ff" d="M1192.83,-129.74C1244.54,-118.25 1320.85,-101.29 1368.61,-90.67"/>
<polygon fill="#63b8ff" stroke="#63b8ff" points="1192.35,-126.26 1183.35,-131.85 1193.87,-133.1 1192.35,-126.26"/>
</a>
</g>
</g>
<!-- Node17&#45;&gt;Node14 -->
<g id="edge21_Node000017_Node000014" class="edge">
<title>Node17&#45;&gt;Node14</title>
<g id="a_edge21_Node000017_Node000014"><a xlink:title=" ">
<path fill="none" stroke="#63b8ff" d="M1137.9,-121.28C1136.91,-104.9 1132.76,-82.68 1118.69,-69.5 1111.07,-62.36 986.91,-40.52 910.29,-27.61"/>
<polygon fill="#63b8ff" stroke="#63b8ff" points="1134.4,-120.98 1138.13,-130.9 1141.39,-120.82 1134.4,-120.98"/>
</a>
</g>
</g>
<!-- Node17&#45;&gt;Node18 -->
<g id="edge20_Node000017_Node000018" class="edge">
<title>Node17&#45;&gt;Node18</title>
<g id="a_edge20_Node000017_Node000018"><a xlink:title=" ">
<path fill="none" stroke="#63b8ff" d="M1114.52,-125.73C1098.63,-114.56 1078.06,-100.11 1064.63,-90.67"/>
<polygon fill="#63b8ff" stroke="#63b8ff" points="1112.27,-128.42 1122.47,-131.31 1116.3,-122.7 1112.27,-128.42"/>
</a>
</g>
</g>
<!-- Node19&#45;&gt;Node14 -->
<g id="edge23_Node000019_Node000014" class="edge">
<title>Node19&#45;&gt;Node14</title>
<g id="a_edge23_Node000019_Node000014"><a xlink:title=" ">
<path fill="none" stroke="#63b8ff" d="M207.62,-69.68C208.31,-69.62 209,-69.56 209.69,-69.5 416.55,-51.36 661.2,-32.26 779.52,-23.17"/>
<polygon fill="#63b8ff" stroke="#63b8ff" points="207.42,-66.19 197.78,-70.56 208.05,-73.16 207.42,-66.19"/>
</a>
</g>
</g>
<!-- Node20&#45;&gt;Node6 -->
<g id="edge26_Node000020_Node000006" class="edge">
<title>Node20&#45;&gt;Node6</title>
<g id="a_edge26_Node000020_Node000006"><a xlink:title=" ">
<path fill="none" stroke="#63b8ff" d="M464.67,-136.54C669.19,-124.53 1154.57,-96.03 1339.45,-85.18"/>
<polygon fill="#63b8ff" stroke="#63b8ff" points="464.66,-133.03 454.88,-137.11 465.07,-140.02 464.66,-133.03"/>
</a>
</g>
</g>
<!-- Node20&#45;&gt;Node14 -->
<g id="edge29_Node000020_Node000014" class="edge">
<title>Node20&#45;&gt;Node14</title>
<g id="a_edge29_Node000020_Node000014"><a xlink:title=" ">
<path fill="none" stroke="#63b8ff" d="M383.74,-122.68C395.52,-105.62 415.08,-81.64 438.69,-69.5 496.55,-39.75 677.64,-26.23 779.42,-20.84"/>
<polygon fill="#63b8ff" stroke="#63b8ff" points="380.86,-120.69 378.28,-130.97 386.71,-124.54 380.86,-120.69"/>
</a>
</g>
</g>
<!-- Node20&#45;&gt;Node19 -->
<g id="edge25_Node000020_Node000019" class="edge">
<title>Node20&#45;&gt;Node19</title>
<g id="a_edge25_Node000020_Node000019"><a xlink:title=" ">
<path fill="none" stroke="#63b8ff" d="M318.73,-129.6C269.67,-118.11 197.66,-101.24 152.52,-90.67"/>
<polygon fill="#63b8ff" stroke="#63b8ff" points="317.74,-132.96 328.28,-131.83 319.34,-126.15 317.74,-132.96"/>
</a>
</g>
</g>
<!-- Node20&#45;&gt;Node21 -->
<g id="edge27_Node000020_Node000021" class="edge">
<title>Node20&#45;&gt;Node21</title>
<g id="a_edge27_Node000020_Node000021"><a xlink:title=" ">
<path fill="none" stroke="#63b8ff" d="M403.85,-127.44C428.95,-116.07 463.12,-100.6 485.05,-90.67"/>
<polygon fill="#63b8ff" stroke="#63b8ff" points="402.42,-124.24 394.75,-131.55 405.31,-130.62 402.42,-124.24"/>
</a>
</g>
</g>
<!-- Node20&#45;&gt;Node22 -->
<g id="edge28_Node000020_Node000022" class="edge">
<title>Node20&#45;&gt;Node22</title>
<g id="a_edge28_Node000020_Node000022"><a xlink:title=" ">
<path fill="none" stroke="#63b8ff" d="M428.7,-129.81C482.48,-118.32 562.07,-101.31 611.85,-90.67"/>
<polygon fill="#63b8ff" stroke="#63b8ff" points="428.16,-126.35 419.12,-131.86 429.63,-133.2 428.16,-126.35"/>
</a>
</g>
</g>
<!-- Node20&#45;&gt;Node23 -->
<g id="edge30_Node000020_Node000023" class="edge">
<title>Node20&#45;&gt;Node23</title>
<g id="a_edge30_Node000020_Node000023"><a xlink:title=" ">
<path fill="none" stroke="#63b8ff" d="M356.48,-123.42C347.59,-112.54 336.73,-99.27 329.53,-90.47"/>
<polygon fill="#63b8ff" stroke="#63b8ff" points="353.65,-125.48 362.69,-131.01 359.07,-121.05 353.65,-125.48"/>
</a>
</g>
</g>
<!-- Node24&#45;&gt;Node6 -->
<g id="edge41_Node000024_Node000006" class="edge">
<title>Node24&#45;&gt;Node6</title>
<g id="a_edge41_Node000024_Node000006"><a xlink:title=" ">
<path fill="none" stroke="#63b8ff" d="M807.03,-133.61C830.69,-131.15 856.74,-128.51 880.69,-126.25 1044.49,-110.78 1236.9,-94.95 1339.5,-86.69"/>
<polygon fill="#63b8ff" stroke="#63b8ff" points="806.71,-130.12 797.13,-134.64 807.44,-137.08 806.71,-130.12"/>
</a>
</g>
</g>
<!-- Node24&#45;&gt;Node13 -->
<g id="edge43_Node000024_Node000013" class="edge">
<title>Node24&#45;&gt;Node13</title>
<g id="a_edge43_Node000024_Node000013"><a xlink:title=" ">
<path fill="none" stroke="#63b8ff" d="M806.99,-133.21C830.65,-130.74 856.71,-128.19 880.69,-126.25 1153.15,-104.16 1222.58,-116.41 1494.69,-90.25 1497.49,-89.98 1500.36,-89.68 1503.26,-89.37"/>
<polygon fill="#63b8ff" stroke="#63b8ff" points="806.67,-129.72 797.1,-134.26 807.41,-136.69 806.67,-129.72"/>
</a>
</g>
</g>
<!-- Node24&#45;&gt;Node14 -->
<g id="edge47_Node000024_Node000014" class="edge">
<title>Node24&#45;&gt;Node14</title>
<g id="a_edge47_Node000024_Node000014"><a xlink:title=" ">
<path fill="none" stroke="#63b8ff" d="M745,-116.59C754.98,-102.01 768.51,-83.82 782.69,-69.5 799.07,-52.95 820.93,-37.23 835.39,-27.55"/>
<polygon fill="#63b8ff" stroke="#63b8ff" points="742.19,-114.49 739.54,-124.75 748.01,-118.38 742.19,-114.49"/>
</a>
</g>
</g>
<!-- Node24&#45;&gt;Node16 -->
<g id="edge44_Node000024_Node000016" class="edge">
<title>Node24&#45;&gt;Node16</title>
<g id="a_edge44_Node000024_Node000016"><a xlink:title=" ">
<path fill="none" stroke="#63b8ff" d="M773.97,-121.03C796.2,-110.74 821.92,-98.83 839.54,-90.67"/>
<polygon fill="#63b8ff" stroke="#63b8ff" points="772.69,-117.77 765.09,-125.14 775.63,-124.12 772.69,-117.77"/>
</a>
</g>
</g>
<!-- Node24&#45;&gt;Node18 -->
<g id="edge45_Node000024_Node000018" class="edge">
<title>Node24&#45;&gt;Node18</title>
<g id="a_edge45_Node000024_Node000018"><a xlink:title=" ">
<path fill="none" stroke="#63b8ff" d="M806.67,-127.2C866.34,-115.87 946.95,-100.57 998.88,-90.71"/>
<polygon fill="#63b8ff" stroke="#63b8ff" points="806.06,-123.75 796.89,-129.05 807.37,-130.63 806.06,-123.75"/>
</a>
</g>
</g>
<!-- Node24&#45;&gt;Node21 -->
<g id="edge42_Node000024_Node000021" class="edge">
<title>Node24&#45;&gt;Node21</title>
<g id="a_edge42_Node000024_Node000021"><a xlink:title=" ">
<path fill="none" stroke="#63b8ff" d="M659.06,-122.83C620.28,-112.15 573.62,-99.31 542.24,-90.67"/>
<polygon fill="#63b8ff" stroke="#63b8ff" points="657.75,-126.1 668.32,-125.38 659.61,-119.35 657.75,-126.1"/>
</a>
</g>
</g>
<!-- Node24&#45;&gt;Node22 -->
<g id="edge46_Node000024_Node000022" class="edge">
<title>Node24&#45;&gt;Node22</title>
<g id="a_edge46_Node000024_Node000022"><a xlink:title=" ">
<path fill="none" stroke="#63b8ff" d="M701.38,-118.5C690.18,-108.85 677.82,-98.21 669.12,-90.72"/>
<polygon fill="#63b8ff" stroke="#63b8ff" points="699.02,-121.08 708.88,-124.95 703.59,-115.78 699.02,-121.08"/>
</a>
</g>
</g>
<!-- Node24&#45;&gt;Node23 -->
<g id="edge48_Node000024_Node000023" class="edge">
<title>Node24&#45;&gt;Node23</title>
<g id="a_edge48_Node000024_Node000023"><a xlink:title=" ">
<path fill="none" stroke="#63b8ff" d="M650.94,-130.32C574.47,-118.84 459.04,-101.5 387.13,-90.7"/>
<polygon fill="#63b8ff" stroke="#63b8ff" points="650.03,-133.73 660.44,-131.75 651.07,-126.8 650.03,-133.73"/>
</a>
</g>
</g>
<!-- Node25&#45;&gt;Node14 -->
<g id="edge54_Node000025_Node000014" class="edge">
<title>Node25&#45;&gt;Node14</title>
<g id="a_edge54_Node000025_Node000014"><a xlink:title=" ">
<path fill="none" stroke="#63b8ff" d="M242.75,-202.39C130.33,-186.35 -56.31,-147.16 16.69,-69.5 42.64,-41.88 582.09,-24.87 779.3,-19.55"/>
<polygon fill="#63b8ff" stroke="#63b8ff" points="242.18,-205.84 252.56,-203.75 243.14,-198.91 242.18,-205.84"/>
</a>
</g>
</g>
<!-- Node25&#45;&gt;Node17 -->
<g id="edge50_Node000025_Node000017" class="edge">
<title>Node25&#45;&gt;Node17</title>
<g id="a_edge50_Node000025_Node000017"><a xlink:title=" ">
<path fill="none" stroke="#63b8ff" d="M398.7,-195.64C690.88,-158.72 770.06,-196.18 1058.69,-159.75 1070.2,-158.3 1082.56,-156.13 1093.99,-153.87"/>
<polygon fill="#63b8ff" stroke="#63b8ff" points="398.29,-192.16 388.82,-196.91 399.18,-199.11 398.29,-192.16"/>
</a>
</g>
</g>
<!-- Node25&#45;&gt;Node19 -->
<g id="edge52_Node000025_Node000019" class="edge">
<title>Node25&#45;&gt;Node19</title>
<g id="a_edge52_Node000025_Node000019"><a xlink:title=" ">
<path fill="none" stroke="#63b8ff" d="M242.93,-207.26C205.45,-201.31 162.5,-188.17 133.69,-159.75 114.59,-140.92 111.14,-107.21 110.65,-90.63"/>
<polygon fill="#63b8ff" stroke="#63b8ff" points="241.96,-210.65 252.35,-208.6 242.95,-203.72 241.96,-210.65"/>
</a>
</g>
</g>
<!-- Node25&#45;&gt;Node22 -->
<g id="edge53_Node000025_Node000022" class="edge">
<title>Node25&#45;&gt;Node22</title>
<g id="a_edge53_Node000025_Node000022"><a xlink:title=" ">
<path fill="none" stroke="#63b8ff" d="M376.74,-191.58C402.93,-182.14 434.49,-170.59 462.69,-159.75 524.9,-135.84 597.51,-105.94 634.08,-90.73"/>
<polygon fill="#63b8ff" stroke="#63b8ff" points="375.89,-188.17 367.67,-194.84 378.26,-194.75 375.89,-188.17"/>
</a>
</g>
</g>
<!-- Node25&#45;&gt;Node23 -->
<g id="edge55_Node000025_Node000023" class="edge">
<title>Node25&#45;&gt;Node23</title>
<g id="a_edge55_Node000025_Node000023"><a xlink:title=" ">
<path fill="none" stroke="#63b8ff" d="M275.55,-189.45C264.43,-181.69 253.93,-171.83 247.69,-159.75 240.85,-146.52 240.41,-139.24 247.69,-126.25 257.26,-109.16 276.19,-97.72 292.51,-90.61"/>
<polygon fill="#63b8ff" stroke="#63b8ff" points="273.38,-192.21 283.69,-194.65 277.15,-186.32 273.38,-192.21"/>
</a>
</g>
</g>
<!-- Node25&#45;&gt;Node24 -->
<g id="edge51_Node000025_Node000024" class="edge">
<title>Node25&#45;&gt;Node24</title>
<g id="a_edge51_Node000025_Node000024"><a xlink:title=" ">
<path fill="none" stroke="#63b8ff" d="M398.63,-195.45C496.07,-177.96 597.08,-162.78 661.75,-153.44"/>
<polygon fill="#63b8ff" stroke="#63b8ff" points="398.09,-191.99 388.87,-197.21 399.33,-198.88 398.09,-191.99"/>
</a>
</g>
</g>
</g>
</svg>
