<?xml version="1.0" encoding="UTF-8" standalone="no"?>
<!DOCTYPE svg PUBLIC "-//W3C//DTD SVG 1.1//EN"
 "http://www.w3.org/Graphics/SVG/1.1/DTD/svg11.dtd">
<!-- Generated by graphviz version 12.0.0 (20240803.0821)
 -->
<!-- Title: include/VolumeBuilderBase.hh Pages: 1 -->
<svg width="1552pt" height="212pt"
 viewBox="0.00 0.00 1551.75 211.75" xmlns="http://www.w3.org/2000/svg" xmlns:xlink="http://www.w3.org/1999/xlink">
<g id="graph0" class="graph" transform="scale(1 1) rotate(0) translate(4 207.75)">
<title>include/VolumeBuilderBase.hh</title>
<!-- Node1 -->
<g id="Node000001" class="node">
<title>Node1</title>
<g id="a_Node000001"><a xlink:title=" ">
<polygon fill="#999999" stroke="#666666" points="975.75,-203.75 811.25,-203.75 811.25,-183 975.75,-183 975.75,-203.75"/>
<text text-anchor="middle" x="893.5" y="-190.25" font-family="Helvetica,sans-Serif" font-size="10.00">include/VolumeBuilderBase.hh</text>
</a>
</g>
</g>
<!-- Node2 -->
<g id="Node000002" class="node">
<title>Node2</title>
<g id="a_Node000002"><a xlink:href="BoxBuilderCore_8hh.html" target="_top" xlink:title=" ">
<polygon fill="white" stroke="#666666" points="415,-147 270,-147 270,-126.25 415,-126.25 415,-147"/>
<text text-anchor="middle" x="342.5" y="-133.5" font-family="Helvetica,sans-Serif" font-size="10.00">include/BoxBuilderCore.hh</text>
</a>
</g>
</g>
<!-- Node1&#45;&gt;Node2 -->
<g id="edge1_Node000001_Node000002" class="edge">
<title>Node1&#45;&gt;Node2</title>
<g id="a_edge1_Node000001_Node000002"><a xlink:title=" ">
<path fill="none" stroke="#63b8ff" d="M799.74,-183.06C691.07,-172.26 514.32,-154.7 415.42,-144.87"/>
<polygon fill="#63b8ff" stroke="#63b8ff" points="799.21,-186.52 809.5,-184.03 799.9,-179.56 799.21,-186.52"/>
</a>
</g>
</g>
<!-- Node10 -->
<g id="Node000010" class="node">
<title>Node10</title>
<g id="a_Node000010"><a xlink:href="VolumeBuilderBase_8cc.html" target="_top" xlink:title=" ">
<polygon fill="white" stroke="#666666" points="893.5,-27.12 751.5,-27.12 751.5,-6.38 893.5,-6.38 893.5,-27.12"/>
<text text-anchor="middle" x="822.5" y="-13.62" font-family="Helvetica,sans-Serif" font-size="10.00">src/VolumeBuilderBase.cc</text>
</a>
</g>
</g>
<!-- Node1&#45;&gt;Node10 -->
<g id="edge30_Node000001_Node000010" class="edge">
<title>Node1&#45;&gt;Node10</title>
<g id="a_edge30_Node000001_Node000010"><a xlink:title=" ">
<path fill="none" stroke="#63b8ff" d="M885.26,-172.11C869.98,-134.52 837.76,-55.29 826.49,-27.57"/>
<polygon fill="#63b8ff" stroke="#63b8ff" points="882,-173.39 889.01,-181.34 888.49,-170.75 882,-173.39"/>
</a>
</g>
</g>
<!-- Node11 -->
<g id="Node000011" class="node">
<title>Node11</title>
<g id="a_Node000011"><a xlink:href="FromG4VSolidCore_8hh.html" target="_top" xlink:title=" ">
<polygon fill="white" stroke="#666666" points="609.88,-147 449.12,-147 449.12,-126.25 609.88,-126.25 609.88,-147"/>
<text text-anchor="middle" x="529.5" y="-133.5" font-family="Helvetica,sans-Serif" font-size="10.00">include/FromG4VSolidCore.hh</text>
</a>
</g>
</g>
<!-- Node1&#45;&gt;Node11 -->
<g id="edge10_Node000001_Node000011" class="edge">
<title>Node1&#45;&gt;Node11</title>
<g id="a_edge10_Node000001_Node000011"><a xlink:title=" ">
<path fill="none" stroke="#63b8ff" d="M816.89,-180.85C751.15,-170.96 657.42,-156.87 595.08,-147.49"/>
<polygon fill="#63b8ff" stroke="#63b8ff" points="816.1,-184.27 826.51,-182.3 817.14,-177.35 816.1,-184.27"/>
</a>
</g>
</g>
<!-- Node12 -->
<g id="Node000012" class="node">
<title>Node12</title>
<g id="a_Node000012"><a xlink:href="FromG4VSolidCore_8cc.html" target="_top" xlink:title=" ">
<polygon fill="white" stroke="#666666" points="645.62,-90.25 507.38,-90.25 507.38,-69.5 645.62,-69.5 645.62,-90.25"/>
<text text-anchor="middle" x="576.5" y="-76.75" font-family="Helvetica,sans-Serif" font-size="10.00">src/FromG4VSolidCore.cc</text>
</a>
</g>
</g>
<!-- Node1&#45;&gt;Node12 -->
<g id="edge28_Node000001_Node000012" class="edge">
<title>Node1&#45;&gt;Node12</title>
<g id="a_edge28_Node000001_Node000012"><a xlink:title=" ">
<path fill="none" stroke="#63b8ff" d="M799.59,-182.5C758.17,-175.88 709.66,-164.94 668.5,-147 635.68,-132.69 603.03,-105.31 586.89,-90.67"/>
<polygon fill="#63b8ff" stroke="#63b8ff" points="798.88,-185.94 809.3,-183.99 799.94,-179.02 798.88,-185.94"/>
</a>
</g>
</g>
<!-- Node13 -->
<g id="Node000013" class="node">
<title>Node13</title>
<g id="a_Node000013"><a xlink:href="RZBuilderCore_8hh.html" target="_top" xlink:title=" ">
<polygon fill="white" stroke="#666666" points="817.38,-147 677.62,-147 677.62,-126.25 817.38,-126.25 817.38,-147"/>
<text text-anchor="middle" x="747.5" y="-133.5" font-family="Helvetica,sans-Serif" font-size="10.00">include/RZBuilderCore.hh</text>
</a>
</g>
</g>
<!-- Node1&#45;&gt;Node13 -->
<g id="edge14_Node000001_Node000013" class="edge">
<title>Node1&#45;&gt;Node13</title>
<g id="a_edge14_Node000001_Node000013"><a xlink:title=" ">
<path fill="none" stroke="#63b8ff" d="M856.81,-178.62C830.81,-168.87 796.56,-156.02 773.38,-147.33"/>
<polygon fill="#63b8ff" stroke="#63b8ff" points="855.39,-181.82 865.98,-182.06 857.85,-175.27 855.39,-181.82"/>
</a>
</g>
</g>
<!-- Node15 -->
<g id="Node000015" class="node">
<title>Node15</title>
<g id="a_Node000015"><a xlink:href="VolumeBuilderBase_8hpp.html" target="_top" xlink:title=" ">
<polygon fill="white" stroke="#666666" points="1045.75,-90.25 875.25,-90.25 875.25,-69.5 1045.75,-69.5 1045.75,-90.25"/>
<text text-anchor="middle" x="960.5" y="-76.75" font-family="Helvetica,sans-Serif" font-size="10.00">include/VolumeBuilderBase.hpp</text>
</a>
</g>
</g>
<!-- Node1&#45;&gt;Node15 -->
<g id="edge18_Node000001_Node000015" class="edge">
<title>Node1&#45;&gt;Node15</title>
<g id="a_edge18_Node000001_Node000015"><a xlink:title=" ">
<path fill="none" stroke="#63b8ff" d="M905.07,-173.12C919.48,-149.13 943.55,-109.08 954.61,-90.68"/>
<polygon fill="#63b8ff" stroke="#63b8ff" points="902.14,-171.2 899.99,-181.57 908.14,-174.8 902.14,-171.2"/>
</a>
</g>
</g>
<!-- Node16 -->
<g id="Node000016" class="node">
<title>Node16</title>
<g id="a_Node000016"><a xlink:href="VolumeBuilderCore_8hh.html" target="_top" xlink:title=" ">
<polygon fill="white" stroke="#666666" points="1132,-147 969,-147 969,-126.25 1132,-126.25 1132,-147"/>
<text text-anchor="middle" x="1050.5" y="-133.5" font-family="Helvetica,sans-Serif" font-size="10.00">include/VolumeBuilderCore.hh</text>
</a>
</g>
</g>
<!-- Node1&#45;&gt;Node16 -->
<g id="edge20_Node000001_Node000016" class="edge">
<title>Node1&#45;&gt;Node16</title>
<g id="a_edge20_Node000001_Node000016"><a xlink:title=" ">
<path fill="none" stroke="#63b8ff" d="M932.17,-178.89C960.13,-169.14 997.25,-156.19 1022.41,-147.42"/>
<polygon fill="#63b8ff" stroke="#63b8ff" points="931.29,-175.49 923,-182.09 933.59,-182.1 931.29,-175.49"/>
</a>
</g>
</g>
<!-- Node17 -->
<g id="Node000017" class="node">
<title>Node17</title>
<g id="a_Node000017"><a xlink:href="AssemblyCore_8cc.html" target="_top" xlink:title="Created by.">
<polygon fill="white" stroke="#666666" points="1219.12,-90.25 1101.88,-90.25 1101.88,-69.5 1219.12,-69.5 1219.12,-90.25"/>
<text text-anchor="middle" x="1160.5" y="-76.75" font-family="Helvetica,sans-Serif" font-size="10.00">src/AssemblyCore.cc</text>
</a>
</g>
</g>
<!-- Node1&#45;&gt;Node17 -->
<g id="edge27_Node000001_Node000017" class="edge">
<title>Node1&#45;&gt;Node17</title>
<g id="a_edge27_Node000001_Node000017"><a xlink:title=" ">
<path fill="none" stroke="#63b8ff" d="M987.31,-185.41C1047.68,-179.06 1118.94,-167.44 1141.5,-147 1157.61,-132.41 1160.42,-105.14 1160.69,-90.6"/>
<polygon fill="#63b8ff" stroke="#63b8ff" points="987.28,-181.9 977.68,-186.39 987.98,-188.86 987.28,-181.9"/>
</a>
</g>
</g>
<!-- Node18 -->
<g id="Node000018" class="node">
<title>Node18</title>
<g id="a_Node000018"><a xlink:href="StructureBuilderCore_8cc.html" target="_top" xlink:title="Created by.">
<polygon fill="white" stroke="#666666" points="1385.5,-90.25 1237.5,-90.25 1237.5,-69.5 1385.5,-69.5 1385.5,-90.25"/>
<text text-anchor="middle" x="1311.5" y="-76.75" font-family="Helvetica,sans-Serif" font-size="10.00">src/StructureBuilderCore.cc</text>
</a>
</g>
</g>
<!-- Node1&#45;&gt;Node18 -->
<g id="edge29_Node000001_Node000018" class="edge">
<title>Node1&#45;&gt;Node18</title>
<g id="a_edge29_Node000001_Node000018"><a xlink:title=" ">
<path fill="none" stroke="#63b8ff" d="M987.44,-182.26C1039.46,-175.22 1104.86,-163.99 1161.5,-147 1211.11,-132.12 1266,-104.97 1293.58,-90.53"/>
<polygon fill="#63b8ff" stroke="#63b8ff" points="987.18,-178.76 977.72,-183.54 988.09,-185.7 987.18,-178.76"/>
</a>
</g>
</g>
<!-- Node19 -->
<g id="Node000019" class="node">
<title>Node19</title>
<g id="a_Node000019"><a xlink:href="VolumeBuilderCore_8cc.html" target="_top" xlink:title="Created by.">
<polygon fill="white" stroke="#666666" points="1543.75,-90.25 1403.25,-90.25 1403.25,-69.5 1543.75,-69.5 1543.75,-90.25"/>
<text text-anchor="middle" x="1473.5" y="-76.75" font-family="Helvetica,sans-Serif" font-size="10.00">src/VolumeBuilderCore.cc</text>
</a>
</g>
</g>
<!-- Node1&#45;&gt;Node19 -->
<g id="edge31_Node000001_Node000019" class="edge">
<title>Node1&#45;&gt;Node19</title>
<g id="a_edge31_Node000001_Node000019"><a xlink:title=" ">
<path fill="none" stroke="#63b8ff" d="M986.1,-181.08C1047.68,-173 1130.23,-161.09 1202.5,-147 1287.59,-130.41 1386.18,-104.69 1437.79,-90.72"/>
<polygon fill="#63b8ff" stroke="#63b8ff" points="985.82,-177.59 976.35,-182.35 986.72,-184.53 985.82,-177.59"/>
</a>
</g>
</g>
<!-- Node3 -->
<g id="Node000003" class="node">
<title>Node3</title>
<g id="a_Node000003"><a xlink:href="VolumeBuilders_8hh.html" target="_top" xlink:title=" ">
<polygon fill="white" stroke="#666666" points="413.38,-90.25 267.62,-90.25 267.62,-69.5 413.38,-69.5 413.38,-90.25"/>
<text text-anchor="middle" x="340.5" y="-76.75" font-family="Helvetica,sans-Serif" font-size="10.00">include/VolumeBuilders.hh</text>
</a>
</g>
</g>
<!-- Node2&#45;&gt;Node3 -->
<g id="edge2_Node000002_Node000003" class="edge">
<title>Node2&#45;&gt;Node3</title>
<g id="a_edge2_Node000002_Node000003"><a xlink:title=" ">
<path fill="none" stroke="#63b8ff" d="M341.72,-114.38C341.42,-106.16 341.1,-97.18 340.85,-90.58"/>
<polygon fill="#63b8ff" stroke="#63b8ff" points="338.22,-114.46 342.09,-124.32 345.22,-114.2 338.22,-114.46"/>
</a>
</g>
</g>
<!-- Node9 -->
<g id="Node000009" class="node">
<title>Node9</title>
<g id="a_Node000009"><a xlink:href="BoxBuilderCore_8cc.html" target="_top" xlink:title=" ">
<polygon fill="white" stroke="#666666" points="249.75,-90.25 127.25,-90.25 127.25,-69.5 249.75,-69.5 249.75,-90.25"/>
<text text-anchor="middle" x="188.5" y="-76.75" font-family="Helvetica,sans-Serif" font-size="10.00">src/BoxBuilderCore.cc</text>
</a>
</g>
</g>
<!-- Node2&#45;&gt;Node9 -->
<g id="edge8_Node000002_Node000009" class="edge">
<title>Node2&#45;&gt;Node9</title>
<g id="a_edge8_Node000002_Node000009"><a xlink:title=" ">
<path fill="none" stroke="#63b8ff" d="M304.21,-122.01C276.83,-112.28 240.62,-99.4 216.05,-90.67"/>
<polygon fill="#63b8ff" stroke="#63b8ff" points="302.95,-125.28 313.54,-125.33 305.29,-118.68 302.95,-125.28"/>
</a>
</g>
</g>
<!-- Node2&#45;&gt;Node10 -->
<g id="edge9_Node000002_Node000010" class="edge">
<title>Node2&#45;&gt;Node10</title>
<g id="a_edge9_Node000002_Node000010"><a xlink:title=" ">
<path fill="none" stroke="#63b8ff" d="M369.95,-120.46C398.67,-105.25 445.46,-82.32 488.5,-69.5 494.92,-67.59 662.38,-42.03 757.69,-27.57"/>
<polygon fill="#63b8ff" stroke="#63b8ff" points="368.37,-117.34 361.21,-125.15 371.68,-123.5 368.37,-117.34"/>
</a>
</g>
</g>
<!-- Node4 -->
<g id="Node000004" class="node">
<title>Node4</title>
<g id="a_Node000004"><a xlink:href="ConstructAssembly_8cc.html" target="_top" xlink:title="Created by.">
<polygon fill="white" stroke="#666666" points="403.25,-33.5 277.75,-33.5 277.75,0 403.25,0 403.25,-33.5"/>
<text text-anchor="start" x="285.75" y="-20" font-family="Helvetica,sans-Serif" font-size="10.00">demo/src/Geometries</text>
<text text-anchor="middle" x="340.5" y="-7.25" font-family="Helvetica,sans-Serif" font-size="10.00">/ConstructAssembly.cc</text>
</a>
</g>
</g>
<!-- Node3&#45;&gt;Node4 -->
<g id="edge3_Node000003_Node000004" class="edge">
<title>Node3&#45;&gt;Node4</title>
<g id="a_edge3_Node000003_Node000004"><a xlink:title=" ">
<path fill="none" stroke="#63b8ff" d="M340.5,-57.59C340.5,-49.85 340.5,-41.22 340.5,-33.98"/>
<polygon fill="#63b8ff" stroke="#63b8ff" points="337,-57.54 340.5,-67.54 344,-57.54 337,-57.54"/>
</a>
</g>
</g>
<!-- Node5 -->
<g id="Node000005" class="node">
<title>Node5</title>
<g id="a_Node000005"><a xlink:href="ConstructBoxExample_8cc.html" target="_top" xlink:title="Created by.">
<polygon fill="white" stroke="#666666" points="561.75,-33.5 421.25,-33.5 421.25,0 561.75,0 561.75,-33.5"/>
<text text-anchor="start" x="429.25" y="-20" font-family="Helvetica,sans-Serif" font-size="10.00">demo/src/Geometries</text>
<text text-anchor="middle" x="491.5" y="-7.25" font-family="Helvetica,sans-Serif" font-size="10.00">/ConstructBoxExample.cc</text>
</a>
</g>
</g>
<!-- Node3&#45;&gt;Node5 -->
<g id="edge4_Node000003_Node000005" class="edge">
<title>Node3&#45;&gt;Node5</title>
<g id="a_edge4_Node000003_Node000005"><a xlink:title=" ">
<path fill="none" stroke="#63b8ff" d="M375.29,-64.79C397.99,-55.6 427.7,-43.58 451.39,-33.98"/>
<polygon fill="#63b8ff" stroke="#63b8ff" points="374.12,-61.49 366.16,-68.49 376.75,-67.98 374.12,-61.49"/>
</a>
</g>
</g>
<!-- Node6 -->
<g id="Node000006" class="node">
<title>Node6</title>
<g id="a_Node000006"><a xlink:href="ConstructExample1_8cc.html" target="_top" xlink:title="Created by.">
<polygon fill="white" stroke="#666666" points="707.38,-33.5 579.62,-33.5 579.62,0 707.38,0 707.38,-33.5"/>
<text text-anchor="start" x="587.62" y="-20" font-family="Helvetica,sans-Serif" font-size="10.00">demo/src/Geometries</text>
<text text-anchor="middle" x="643.5" y="-7.25" font-family="Helvetica,sans-Serif" font-size="10.00">/ConstructExample1.cc</text>
</a>
</g>
</g>
<!-- Node3&#45;&gt;Node6 -->
<g id="edge5_Node000003_Node000006" class="edge">
<title>Node3&#45;&gt;Node6</title>
<g id="a_edge5_Node000003_Node000006"><a xlink:title=" ">
<path fill="none" stroke="#63b8ff" d="M402.77,-66.9C449.08,-57.92 513.79,-45.21 570.5,-33.5 573.42,-32.9 576.41,-32.28 579.42,-31.64"/>
<polygon fill="#63b8ff" stroke="#63b8ff" points="402.35,-63.42 393.19,-68.75 403.68,-70.29 402.35,-63.42"/>
</a>
</g>
</g>
<!-- Node7 -->
<g id="Node000007" class="node">
<title>Node7</title>
<g id="a_Node000007"><a xlink:href="ConstructHexPart_8cc.html" target="_top" xlink:title=" ">
<polygon fill="white" stroke="#666666" points="121,-33.5 0,-33.5 0,0 121,0 121,-33.5"/>
<text text-anchor="start" x="8" y="-20" font-family="Helvetica,sans-Serif" font-size="10.00">demo/src/Geometries</text>
<text text-anchor="middle" x="60.5" y="-7.25" font-family="Helvetica,sans-Serif" font-size="10.00">/ConstructHexPart.cc</text>
</a>
</g>
</g>
<!-- Node3&#45;&gt;Node7 -->
<g id="edge6_Node000003_Node000007" class="edge">
<title>Node3&#45;&gt;Node7</title>
<g id="a_edge6_Node000003_Node000007"><a xlink:title=" ">
<path fill="none" stroke="#63b8ff" d="M282.72,-66.65C240.29,-57.63 181.27,-44.97 129.5,-33.5 126.86,-32.92 124.17,-32.31 121.44,-31.7"/>
<polygon fill="#63b8ff" stroke="#63b8ff" points="281.96,-70.07 292.47,-68.73 283.41,-63.22 281.96,-70.07"/>
</a>
</g>
</g>
<!-- Node8 -->
<g id="Node000008" class="node">
<title>Node8</title>
<g id="a_Node000008"><a xlink:href="ConstructWorld_8cc.html" target="_top" xlink:title=" ">
<polygon fill="white" stroke="#666666" points="260,-33.5 139,-33.5 139,0 260,0 260,-33.5"/>
<text text-anchor="start" x="147" y="-20" font-family="Helvetica,sans-Serif" font-size="10.00">demo/src/Geometries</text>
<text text-anchor="middle" x="199.5" y="-7.25" font-family="Helvetica,sans-Serif" font-size="10.00">/ConstructWorld.cc</text>
</a>
</g>
</g>
<!-- Node3&#45;&gt;Node8 -->
<g id="edge7_Node000003_Node000008" class="edge">
<title>Node3&#45;&gt;Node8</title>
<g id="a_edge7_Node000003_Node000008"><a xlink:title=" ">
<path fill="none" stroke="#63b8ff" d="M307.44,-64.54C286.32,-55.39 258.88,-43.49 236.95,-33.98"/>
<polygon fill="#63b8ff" stroke="#63b8ff" points="305.89,-67.69 316.46,-68.45 308.67,-61.26 305.89,-67.69"/>
</a>
</g>
</g>
<!-- Node11&#45;&gt;Node3 -->
<g id="edge11_Node000011_Node000003" class="edge">
<title>Node11&#45;&gt;Node3</title>
<g id="a_edge11_Node000011_Node000003"><a xlink:title=" ">
<path fill="none" stroke="#63b8ff" d="M484.73,-122.66C450.88,-112.85 405.14,-99.6 374.31,-90.67"/>
<polygon fill="#63b8ff" stroke="#63b8ff" points="483.68,-125.99 494.26,-125.42 485.63,-119.27 483.68,-125.99"/>
</a>
</g>
</g>
<!-- Node11&#45;&gt;Node10 -->
<g id="edge13_Node000011_Node000010" class="edge">
<title>Node11&#45;&gt;Node10</title>
<g id="a_edge13_Node000011_Node000010"><a xlink:title=" ">
<path fill="none" stroke="#63b8ff" d="M511.37,-118.18C498.76,-103.93 486.24,-83.88 498.5,-69.5 500.6,-67.04 663.48,-41.92 757.46,-27.6"/>
<polygon fill="#63b8ff" stroke="#63b8ff" points="508.53,-120.27 517.97,-125.1 513.6,-115.44 508.53,-120.27"/>
</a>
</g>
</g>
<!-- Node11&#45;&gt;Node12 -->
<g id="edge12_Node000011_Node000012" class="edge">
<title>Node11&#45;&gt;Node12</title>
<g id="a_edge12_Node000011_Node000012"><a xlink:title=" ">
<path fill="none" stroke="#63b8ff" d="M545.28,-117.24C552.95,-108.31 561.84,-97.95 568.17,-90.58"/>
<polygon fill="#63b8ff" stroke="#63b8ff" points="542.75,-114.82 538.89,-124.69 548.06,-119.38 542.75,-114.82"/>
</a>
</g>
</g>
<!-- Node13&#45;&gt;Node3 -->
<g id="edge15_Node000013_Node000003" class="edge">
<title>Node13&#45;&gt;Node3</title>
<g id="a_edge15_Node000013_Node000003"><a xlink:title=" ">
<path fill="none" stroke="#63b8ff" d="M666.46,-124.72C592.72,-114.8 484.84,-100.29 413.67,-90.72"/>
<polygon fill="#63b8ff" stroke="#63b8ff" points="665.66,-128.15 676.03,-126.01 666.59,-121.21 665.66,-128.15"/>
</a>
</g>
</g>
<!-- Node13&#45;&gt;Node10 -->
<g id="edge17_Node000013_Node000010" class="edge">
<title>Node13&#45;&gt;Node10</title>
<g id="a_edge17_Node000013_Node000010"><a xlink:title=" ">
<path fill="none" stroke="#63b8ff" d="M719.43,-119.79C700.18,-106.81 680.17,-87.68 692.5,-69.5 707.43,-47.49 733.37,-34.84 758.18,-27.57"/>
<polygon fill="#63b8ff" stroke="#63b8ff" points="717.36,-122.62 727.68,-125 721.1,-116.7 717.36,-122.62"/>
</a>
</g>
</g>
<!-- Node14 -->
<g id="Node000014" class="node">
<title>Node14</title>
<g id="a_Node000014"><a xlink:href="RZBuilderCore_8cc.html" target="_top" xlink:title=" ">
<polygon fill="white" stroke="#666666" points="819.12,-90.25 701.88,-90.25 701.88,-69.5 819.12,-69.5 819.12,-90.25"/>
<text text-anchor="middle" x="760.5" y="-76.75" font-family="Helvetica,sans-Serif" font-size="10.00">src/RZBuilderCore.cc</text>
</a>
</g>
</g>
<!-- Node13&#45;&gt;Node14 -->
<g id="edge16_Node000013_Node000014" class="edge">
<title>Node13&#45;&gt;Node14</title>
<g id="a_edge16_Node000013_Node000014"><a xlink:title=" ">
<path fill="none" stroke="#63b8ff" d="M752.48,-114.67C754.44,-106.38 756.61,-97.25 758.2,-90.58"/>
<polygon fill="#63b8ff" stroke="#63b8ff" points="749.08,-113.83 750.17,-124.36 755.89,-115.44 749.08,-113.83"/>
</a>
</g>
</g>
<!-- Node15&#45;&gt;Node10 -->
<g id="edge19_Node000015_Node000010" class="edge">
<title>Node15&#45;&gt;Node10</title>
<g id="a_edge19_Node000015_Node000010"><a xlink:title=" ">
<path fill="none" stroke="#63b8ff" d="M927.96,-64.46C902.28,-53.09 867.13,-37.52 844.62,-27.55"/>
<polygon fill="#63b8ff" stroke="#63b8ff" points="926.38,-67.59 936.94,-68.44 929.22,-61.19 926.38,-67.59"/>
</a>
</g>
</g>
<!-- Node16&#45;&gt;Node3 -->
<g id="edge22_Node000016_Node000003" class="edge">
<title>Node16&#45;&gt;Node3</title>
<g id="a_edge22_Node000016_Node000003"><a xlink:title=" ">
<path fill="none" stroke="#63b8ff" d="M957.38,-128.44C814.38,-117.42 543.65,-96.54 413.71,-86.52"/>
<polygon fill="#63b8ff" stroke="#63b8ff" points="956.96,-131.92 967.2,-129.2 957.5,-124.94 956.96,-131.92"/>
</a>
</g>
</g>
<!-- Node16&#45;&gt;Node10 -->
<g id="edge25_Node000016_Node000010" class="edge">
<title>Node16&#45;&gt;Node10</title>
<g id="a_edge25_Node000016_Node000010"><a xlink:title=" ">
<path fill="none" stroke="#63b8ff" d="M1058.37,-115.13C1062.41,-100.83 1064.62,-82.12 1054.5,-69.5 1034.59,-44.67 954.45,-30.97 893.88,-24.01"/>
<polygon fill="#63b8ff" stroke="#63b8ff" points="1055.11,-113.84 1055.25,-124.44 1061.75,-116.07 1055.11,-113.84"/>
</a>
</g>
</g>
<!-- Node16&#45;&gt;Node15 -->
<g id="edge21_Node000016_Node000015" class="edge">
<title>Node16&#45;&gt;Node15</title>
<g id="a_edge21_Node000016_Node000015"><a xlink:title=" ">
<path fill="none" stroke="#63b8ff" d="M1024.82,-120.01C1009.24,-110.53 989.85,-98.73 976.45,-90.58"/>
<polygon fill="#63b8ff" stroke="#63b8ff" points="1022.75,-122.84 1033.12,-125.05 1026.39,-116.86 1022.75,-122.84"/>
</a>
</g>
</g>
<!-- Node16&#45;&gt;Node17 -->
<g id="edge23_Node000016_Node000017" class="edge">
<title>Node16&#45;&gt;Node17</title>
<g id="a_edge23_Node000016_Node000017"><a xlink:title=" ">
<path fill="none" stroke="#63b8ff" d="M1080.26,-120.81C1099.56,-111.2 1124.16,-98.96 1141,-90.58"/>
<polygon fill="#63b8ff" stroke="#63b8ff" points="1078.91,-117.57 1071.52,-125.16 1082.03,-123.84 1078.91,-117.57"/>
</a>
</g>
</g>
<!-- Node16&#45;&gt;Node18 -->
<g id="edge24_Node000016_Node000018" class="edge">
<title>Node16&#45;&gt;Node18</title>
<g id="a_edge24_Node000016_Node000018"><a xlink:title=" ">
<path fill="none" stroke="#63b8ff" d="M1108.68,-123.42C1155.62,-113.57 1220.8,-99.9 1264.47,-90.74"/>
<polygon fill="#63b8ff" stroke="#63b8ff" points="1108.01,-119.98 1098.94,-125.46 1109.45,-126.84 1108.01,-119.98"/>
</a>
</g>
</g>
<!-- Node16&#45;&gt;Node19 -->
<g id="edge26_Node000016_Node000019" class="edge">
<title>Node16&#45;&gt;Node19</title>
<g id="a_edge26_Node000016_Node000019"><a xlink:title=" ">
<path fill="none" stroke="#63b8ff" d="M1137.92,-124.31C1216.39,-114.15 1330.1,-99.44 1402.92,-90.01"/>
<polygon fill="#63b8ff" stroke="#63b8ff" points="1137.58,-120.82 1128.11,-125.58 1138.48,-127.77 1137.58,-120.82"/>
</a>
</g>
</g>
</g>
</svg>
