<?xml version="1.0" encoding="UTF-8" standalone="no"?>
<!DOCTYPE svg PUBLIC "-//W3C//DTD SVG 1.1//EN"
 "http://www.w3.org/Graphics/SVG/1.1/DTD/svg11.dtd">
<!-- Generated by graphviz version 12.0.0 (20240803.0821)
 -->
<!-- Title: fake_hierarchy Pages: 1 -->
<svg width="864pt" height="329pt"
 viewBox="0.00 0.00 864.00 329.38" xmlns="http://www.w3.org/2000/svg" xmlns:xlink="http://www.w3.org/1999/xlink">
<g id="graph0" class="graph" transform="scale(0.738935 0.738935) rotate(0) translate(4 441.75)">
<title>fake_hierarchy</title>
<polygon fill="white" stroke="none" points="-4,4 -4,-441.75 1165.25,-441.75 1165.25,4 -4,4"/>
<g id="clust1" class="cluster">
<title>cluster_row1</title>
<polygon fill="none" stroke="black" points="81,-58.75 81,-303.25 689,-303.25 689,-58.75 81,-58.75"/>
<text text-anchor="middle" x="385" y="-66.7" font-family="Times,serif" font-size="14.00">Structures</text>
</g>
<g id="clust2" class="cluster">
<title>cluster_row2</title>
<polygon fill="none" stroke="black" points="257,-138.38 257,-295.25 681,-295.25 681,-138.38 257,-138.38"/>
<text text-anchor="middle" x="469" y="-146.32" font-family="Times,serif" font-size="14.00">Builders</text>
</g>
<g id="clust3" class="cluster">
<title>cluster_row3</title>
<polygon fill="none" stroke="black" points="8,-311.25 8,-429.75 1017,-429.75 1017,-311.25 8,-311.25"/>
<text text-anchor="middle" x="512.5" y="-319.2" font-family="Times,serif" font-size="14.00">Structure Factories</text>
</g>
<g id="clust4" class="cluster">
<title>cluster_row4</title>
<polygon fill="none" stroke="black" points="169,-344.5 169,-421.75 1009,-421.75 1009,-344.5 169,-344.5"/>
<text text-anchor="middle" x="589" y="-352.45" font-family="Times,serif" font-size="14.00">Builder Factories</text>
</g>
<!-- StructureView -->
<g id="node1" class="node">
<title>StructureView</title>
<polygon fill="none" stroke="black" points="416.75,-128 297.25,-128 297.25,-92 416.75,-92 416.75,-128"/>
<text text-anchor="middle" x="357" y="-105.33" font-family="Times,serif" font-size="14.00">StructureView</text>
</g>
<!-- BuilderView -->
<g id="node2" class="node">
<title>BuilderView</title>
<polygon fill="none" stroke="black" points="535.5,-207.62 432.5,-207.62 432.5,-171.62 535.5,-171.62 535.5,-207.62"/>
<text text-anchor="middle" x="484" y="-184.95" font-family="Times,serif" font-size="14.00">BuilderView</text>
</g>
<!-- StructureView&#45;&gt;BuilderView -->
<g id="edge8" class="edge">
<title>StructureView&#45;&gt;BuilderView</title>
<path fill="none" stroke="black" d="M409.63,-128.33C416.34,-131.31 422.96,-134.66 429,-138.38 440.3,-145.33 451.38,-154.78 460.59,-163.61"/>
<polygon fill="black" stroke="black" points="457.85,-165.82 467.41,-170.39 462.79,-160.86 457.85,-165.82"/>
</g>
<!-- AssemblyPtr -->
<g id="node6" class="node">
<title>AssemblyPtr</title>
<polygon fill="none" stroke="black" points="195.38,-207.62 88.62,-207.62 88.62,-171.62 195.38,-171.62 195.38,-207.62"/>
<text text-anchor="middle" x="142" y="-184.95" font-family="Times,serif" font-size="14.00">AssemblyPtr</text>
</g>
<!-- StructureView&#45;&gt;AssemblyPtr -->
<g id="edge10" class="edge">
<title>StructureView&#45;&gt;AssemblyPtr</title>
<path fill="none" stroke="black" d="M296.8,-114.74C267.72,-118.28 232.96,-125.13 204,-138.38 190.51,-144.54 177.47,-154.34 166.85,-163.65"/>
<polygon fill="black" stroke="black" points="164.67,-160.9 159.66,-170.24 169.4,-166.06 164.67,-160.9"/>
</g>
<!-- dummy -->
<!-- StructureView&#45;&gt;dummy -->
<!-- RZBuilderPtr -->
<g id="node3" class="node">
<title>RZBuilderPtr</title>
<polygon fill="none" stroke="black" points="672.62,-287.25 561.38,-287.25 561.38,-251.25 672.62,-251.25 672.62,-287.25"/>
<text text-anchor="middle" x="617" y="-264.57" font-family="Times,serif" font-size="14.00">RZBuilderPtr</text>
</g>
<!-- BuilderView&#45;&gt;RZBuilderPtr -->
<g id="edge12" class="edge">
<title>BuilderView&#45;&gt;RZBuilderPtr</title>
<path fill="none" stroke="black" d="M513.85,-208.05C532.59,-218.98 556.97,-233.21 577.33,-245.09"/>
<polygon fill="black" stroke="black" points="575.54,-248.11 585.94,-250.12 579.07,-242.06 575.54,-248.11"/>
</g>
<!-- BoxBuilderPtr -->
<g id="node4" class="node">
<title>BoxBuilderPtr</title>
<polygon fill="none" stroke="black" points="543,-287.25 425,-287.25 425,-251.25 543,-251.25 543,-287.25"/>
<text text-anchor="middle" x="484" y="-264.57" font-family="Times,serif" font-size="14.00">BoxBuilderPtr</text>
</g>
<!-- BuilderView&#45;&gt;BoxBuilderPtr -->
<g id="edge14" class="edge">
<title>BuilderView&#45;&gt;BoxBuilderPtr</title>
<path fill="none" stroke="black" d="M484,-207.85C484,-217.13 484,-228.83 484,-239.45"/>
<polygon fill="black" stroke="black" points="480.5,-239.29 484,-249.29 487.5,-239.29 480.5,-239.29"/>
</g>
<!-- FromG4VSolidPtr -->
<g id="node5" class="node">
<title>FromG4VSolidPtr</title>
<polygon fill="none" stroke="black" points="407.38,-287.25 264.62,-287.25 264.62,-251.25 407.38,-251.25 407.38,-287.25"/>
<text text-anchor="middle" x="336" y="-264.57" font-family="Times,serif" font-size="14.00">FromG4VSolidPtr</text>
</g>
<!-- BuilderView&#45;&gt;FromG4VSolidPtr -->
<g id="edge13" class="edge">
<title>BuilderView&#45;&gt;FromG4VSolidPtr</title>
<path fill="none" stroke="black" d="M450.79,-208.05C429.72,-219.09 402.25,-233.5 379.46,-245.46"/>
<polygon fill="black" stroke="black" points="377.93,-242.31 370.7,-250.05 381.18,-248.51 377.93,-242.31"/>
</g>
<!-- CreatePolycone() -->
<g id="node10" class="node">
<title>CreatePolycone()</title>
<polygon fill="none" stroke="black" points="682.75,-413.75 545.25,-413.75 545.25,-377.75 682.75,-377.75 682.75,-413.75"/>
<text text-anchor="middle" x="614" y="-391.07" font-family="Times,serif" font-size="14.00">CreatePolycone()</text>
</g>
<!-- RZBuilderPtr&#45;&gt;CreatePolycone() -->
<g id="edge16" class="edge">
<title>RZBuilderPtr&#45;&gt;CreatePolycone()</title>
<path fill="none" stroke="black" d="M616.58,-287.56C616.09,-307.91 615.27,-341.97 614.69,-366.24"/>
<polygon fill="black" stroke="black" points="611.19,-365.99 614.45,-376.07 618.19,-366.16 611.19,-365.99"/>
</g>
<!-- CreatePolyhedra() -->
<g id="node11" class="node">
<title>CreatePolyhedra()</title>
<polygon fill="none" stroke="black" points="846.88,-413.75 701.12,-413.75 701.12,-377.75 846.88,-377.75 846.88,-413.75"/>
<text text-anchor="middle" x="774" y="-391.07" font-family="Times,serif" font-size="14.00">CreatePolyhedra()</text>
</g>
<!-- RZBuilderPtr&#45;&gt;CreatePolyhedra() -->
<g id="edge17" class="edge">
<title>RZBuilderPtr&#45;&gt;CreatePolyhedra()</title>
<path fill="none" stroke="black" d="M653.8,-287.6C666.41,-294.25 680.28,-302.39 692,-311.25 714.36,-328.15 736.43,-351.09 752.03,-368.64"/>
<polygon fill="black" stroke="black" points="749.36,-370.9 758.58,-376.13 754.63,-366.3 749.36,-370.9"/>
</g>
<!-- CreateCylinder() -->
<g id="node12" class="node">
<title>CreateCylinder()</title>
<polygon fill="none" stroke="black" points="1000.62,-413.75 865.38,-413.75 865.38,-377.75 1000.62,-377.75 1000.62,-413.75"/>
<text text-anchor="middle" x="933" y="-391.07" font-family="Times,serif" font-size="14.00">CreateCylinder()</text>
</g>
<!-- RZBuilderPtr&#45;&gt;CreateCylinder() -->
<g id="edge18" class="edge">
<title>RZBuilderPtr&#45;&gt;CreateCylinder()</title>
<path fill="none" stroke="black" d="M672.97,-286.23C696.83,-292.47 725.09,-299.1 751,-303.25 774.11,-306.95 834.94,-301.05 856,-311.25 881.54,-323.62 902.7,-348.47 916.33,-367.86"/>
<polygon fill="black" stroke="black" points="913.43,-369.81 921.91,-376.15 919.23,-365.9 913.43,-369.81"/>
</g>
<!-- CreateBoxBuilder() -->
<g id="node9" class="node">
<title>CreateBoxBuilder()</title>
<polygon fill="none" stroke="black" points="527,-413.75 373,-413.75 373,-377.75 527,-377.75 527,-413.75"/>
<text text-anchor="middle" x="450" y="-391.07" font-family="Times,serif" font-size="14.00">CreateBoxBuilder()</text>
</g>
<!-- BoxBuilderPtr&#45;&gt;CreateBoxBuilder() -->
<g id="edge19" class="edge">
<title>BoxBuilderPtr&#45;&gt;CreateBoxBuilder()</title>
<path fill="none" stroke="black" d="M479.27,-287.56C473.69,-308 464.33,-342.29 457.7,-366.57"/>
<polygon fill="black" stroke="black" points="454.34,-365.56 455.09,-376.13 461.1,-367.4 454.34,-365.56"/>
</g>
<!-- CreateFromG4VSolid() -->
<g id="node8" class="node">
<title>CreateFromG4VSolid()</title>
<polygon fill="none" stroke="black" points="355.38,-413.75 176.62,-413.75 176.62,-377.75 355.38,-377.75 355.38,-413.75"/>
<text text-anchor="middle" x="266" y="-391.07" font-family="Times,serif" font-size="14.00">CreateFromG4VSolid()</text>
</g>
<!-- FromG4VSolidPtr&#45;&gt;CreateFromG4VSolid() -->
<g id="edge15" class="edge">
<title>FromG4VSolidPtr&#45;&gt;CreateFromG4VSolid()</title>
<path fill="none" stroke="black" d="M326.27,-287.56C314.62,-308.28 294.97,-343.22 281.29,-367.56"/>
<polygon fill="black" stroke="black" points="278.24,-365.83 276.39,-376.27 284.34,-369.27 278.24,-365.83"/>
</g>
<!-- CreateAssembly() -->
<g id="node13" class="node">
<title>CreateAssembly()</title>
<polygon fill="none" stroke="black" points="158.38,-413.75 15.62,-413.75 15.62,-377.75 158.38,-377.75 158.38,-413.75"/>
<text text-anchor="middle" x="87" y="-391.07" font-family="Times,serif" font-size="14.00">CreateAssembly()</text>
</g>
<!-- AssemblyPtr&#45;&gt;CreateAssembly() -->
<g id="edge20" class="edge">
<title>AssemblyPtr&#45;&gt;CreateAssembly()</title>
<path fill="none" stroke="black" d="M137.31,-208.03C127.81,-243.28 106.22,-323.4 94.66,-366.34"/>
<polygon fill="black" stroke="black" points="91.29,-365.36 92.07,-375.93 98.05,-367.18 91.29,-365.36"/>
</g>
<!-- dummy&#45;&gt;CreateFromG4VSolid() -->
<!-- builderComment -->
<g id="node14" class="node">
<title>builderComment</title>
<text text-anchor="middle" x="929" y="-112.85" font-family="Times,serif" font-size="12.00" fill="#7f7f7f">BuilderViews allow operating on collections of different concrete builders.</text>
<text text-anchor="middle" x="929" y="-98.6" font-family="Times,serif" font-size="12.00" fill="#7f7f7f"> &#160;This view allows all operations except initial solid configuration.</text>
</g>
<!-- builderComment&#45;&gt;BuilderView -->
<g id="edge5" class="edge">
<title>builderComment&#45;&gt;BuilderView</title>
<path fill="none" stroke="#7f7f7f" d="M788.61,-128.22C766.61,-131.33 744.16,-134.75 723,-138.38 662.84,-148.68 594.76,-163.29 546.7,-174.1"/>
<polygon fill="#7f7f7f" stroke="#7f7f7f" points="545.99,-170.67 537.01,-176.29 547.54,-177.5 545.99,-170.67"/>
</g>
<!-- concreteBuilderComment -->
<g id="node15" class="node">
<title>concreteBuilderComment</title>
<text text-anchor="middle" x="929" y="-199.6" font-family="Times,serif" font-size="12.00" fill="#7f7f7f">Specialized builders are just what factories return.</text>
<text text-anchor="middle" x="929" y="-185.35" font-family="Times,serif" font-size="12.00" fill="#7f7f7f"> &#160;They do everything, solid configuration, boolean, transforms,</text>
<text text-anchor="middle" x="929" y="-171.1" font-family="Times,serif" font-size="12.00" fill="#7f7f7f"> logical construction, visAtts, ect, and placment</text>
</g>
<!-- builderComment&#45;&gt;concreteBuilderComment -->
<!-- concreteBuilderComment&#45;&gt;RZBuilderPtr -->
<g id="edge6" class="edge">
<title>concreteBuilderComment&#45;&gt;RZBuilderPtr</title>
<path fill="none" stroke="#7f7f7f" d="M831.14,-214.97C783.23,-226.89 726.8,-240.93 683.89,-251.61"/>
<polygon fill="#7f7f7f" stroke="#7f7f7f" points="683.06,-248.21 674.2,-254.02 684.75,-255 683.06,-248.21"/>
</g>
<!-- factoryComment -->
<g id="node17" class="node">
<title>factoryComment</title>
<text text-anchor="middle" x="931" y="-272.1" font-family="Times,serif" font-size="12.00" fill="#7f7f7f">Factories are the basic builder interferace,</text>
<text text-anchor="middle" x="931" y="-257.85" font-family="Times,serif" font-size="12.00" fill="#7f7f7f"> starting a fluent builder chain that can do everything.</text>
</g>
<!-- concreteBuilderComment&#45;&gt;factoryComment -->
<!-- structureComment -->
<g id="node16" class="node">
<title>structureComment</title>
<text text-anchor="middle" x="706" y="-35.35" font-family="Times,serif" font-size="12.00" fill="#7f7f7f">Structures are a common view on builders and assemblies.</text>
<text text-anchor="middle" x="706" y="-21.1" font-family="Times,serif" font-size="12.00" fill="#7f7f7f"> &#160;They can have VisAtts etc. set, hierarchical application of offset, and rotation,</text>
<text text-anchor="middle" x="706" y="-6.85" font-family="Times,serif" font-size="12.00" fill="#7f7f7f"> and finally placement</text>
</g>
<!-- structureComment&#45;&gt;StructureView -->
<g id="edge4" class="edge">
<title>structureComment&#45;&gt;StructureView</title>
<path fill="none" stroke="#7f7f7f" d="M603.18,-50.72C546.91,-64.04 478.61,-80.21 428.24,-92.13"/>
<polygon fill="#7f7f7f" stroke="#7f7f7f" points="427.53,-88.71 418.6,-94.42 429.14,-95.52 427.53,-88.71"/>
</g>
<!-- structureComment&#45;&gt;builderComment -->
<!-- factoryComment&#45;&gt;CreateCylinder() -->
<g id="edge7" class="edge">
<title>factoryComment&#45;&gt;CreateCylinder()</title>
<path fill="none" stroke="#7f7f7f" d="M931.27,-287.3C931.6,-307.58 932.15,-341.75 932.54,-366.11"/>
<polygon fill="#7f7f7f" stroke="#7f7f7f" points="929.04,-366.05 932.7,-375.99 936.04,-365.94 929.04,-366.05"/>
</g>
</g>
</svg>
