<?xml version="1.0" encoding="UTF-8" standalone="no"?>
<!DOCTYPE svg PUBLIC "-//W3C//DTD SVG 1.1//EN"
 "http://www.w3.org/Graphics/SVG/1.1/DTD/svg11.dtd">
<!-- Generated by graphviz version 12.0.0 (20240803.0821)
 -->
<!-- Title: fake_hierarchy Pages: 1 -->
<svg width="864pt" height="411pt"
 viewBox="0.00 0.00 864.00 411.42" xmlns="http://www.w3.org/2000/svg" xmlns:xlink="http://www.w3.org/1999/xlink">
<g id="graph0" class="graph" transform="scale(0.819151 0.819151) rotate(0) translate(4 498.25)">
<title>fake_hierarchy</title>
<polygon fill="white" stroke="none" points="-4,4 -4,-498.25 1050.75,-498.25 1050.75,4 -4,4"/>
<g id="clust1" class="cluster">
<title>cluster_row1</title>
<polygon fill="none" stroke="black" points="151,-71 151,-359.75 669,-359.75 669,-71 151,-71"/>
<text text-anchor="middle" x="410" y="-78.95" font-family="Times,serif" font-size="14.00">Structures</text>
</g>
<g id="clust2" class="cluster">
<title>cluster_row2</title>
<polygon fill="none" stroke="black" points="305,-172.75 305,-351.75 661,-351.75 661,-172.75 305,-172.75"/>
<text text-anchor="middle" x="483" y="-180.7" font-family="Times,serif" font-size="14.00">Builders</text>
</g>
<g id="clust3" class="cluster">
<title>cluster_row3</title>
<polygon fill="none" stroke="black" points="8,-367.75 8,-486.25 1017,-486.25 1017,-367.75 8,-367.75"/>
<text text-anchor="middle" x="512.5" y="-375.7" font-family="Times,serif" font-size="14.00">Structure Factories</text>
</g>
<g id="clust4" class="cluster">
<title>cluster_row4</title>
<polygon fill="none" stroke="black" points="169,-401 169,-478.25 1009,-478.25 1009,-401 169,-401"/>
<text text-anchor="middle" x="589" y="-408.95" font-family="Times,serif" font-size="14.00">Volume Builder Factories</text>
</g>
<!-- StructureBuilder -->
<g id="node1" class="node">
<title>StructureBuilder</title>
<polygon fill="none" stroke="black" points="457.75,-140.25 320.25,-140.25 320.25,-104.25 457.75,-104.25 457.75,-140.25"/>
<text text-anchor="middle" x="389" y="-117.58" font-family="Times,serif" font-size="14.00">StructureBuilder</text>
</g>
<!-- VolumeBuilder -->
<g id="node2" class="node">
<title>VolumeBuilder</title>
<polygon fill="none" stroke="black" points="559.5,-242 438.5,-242 438.5,-206 559.5,-206 559.5,-242"/>
<text text-anchor="middle" x="499" y="-219.32" font-family="Times,serif" font-size="14.00">VolumeBuilder</text>
</g>
<!-- StructureBuilder&#45;&gt;VolumeBuilder -->
<g id="edge8" class="edge">
<title>StructureBuilder&#45;&gt;VolumeBuilder</title>
<path fill="none" stroke="black" d="M408.16,-140.63C425.75,-156.57 451.99,-180.37 471.76,-198.3"/>
<polygon fill="black" stroke="black" points="469.18,-200.68 478.94,-204.81 473.88,-195.5 469.18,-200.68"/>
</g>
<!-- Assembly -->
<g id="node6" class="node">
<title>Assembly</title>
<polygon fill="none" stroke="black" points="243.12,-242 158.88,-242 158.88,-206 243.12,-206 243.12,-242"/>
<text text-anchor="middle" x="201" y="-219.32" font-family="Times,serif" font-size="14.00">Assembly</text>
</g>
<!-- StructureBuilder&#45;&gt;Assembly -->
<g id="edge10" class="edge">
<title>StructureBuilder&#45;&gt;Assembly</title>
<path fill="none" stroke="black" d="M322.91,-140.74C299.49,-148.55 273.61,-159.13 252,-172.75 241.43,-179.41 231.3,-188.59 222.89,-197.28"/>
<polygon fill="black" stroke="black" points="220.36,-194.86 216.14,-204.58 225.5,-199.62 220.36,-194.86"/>
</g>
<!-- dummy -->
<!-- StructureBuilder&#45;&gt;dummy -->
<!-- RZBuilder -->
<g id="node3" class="node">
<title>RZBuilder</title>
<polygon fill="none" stroke="black" points="653.38,-343.75 564.62,-343.75 564.62,-307.75 653.38,-307.75 653.38,-343.75"/>
<text text-anchor="middle" x="609" y="-321.07" font-family="Times,serif" font-size="14.00">RZBuilder</text>
</g>
<!-- VolumeBuilder&#45;&gt;RZBuilder -->
<g id="edge12" class="edge">
<title>VolumeBuilder&#45;&gt;RZBuilder</title>
<path fill="none" stroke="black" d="M518.16,-242.38C535.75,-258.32 561.99,-282.12 581.76,-300.05"/>
<polygon fill="black" stroke="black" points="579.18,-302.43 588.94,-306.56 583.88,-297.25 579.18,-302.43"/>
</g>
<!-- BoxBuilder -->
<g id="node4" class="node">
<title>BoxBuilder</title>
<polygon fill="none" stroke="black" points="546.75,-343.75 451.25,-343.75 451.25,-307.75 546.75,-307.75 546.75,-343.75"/>
<text text-anchor="middle" x="499" y="-321.07" font-family="Times,serif" font-size="14.00">BoxBuilder</text>
</g>
<!-- VolumeBuilder&#45;&gt;BoxBuilder -->
<g id="edge14" class="edge">
<title>VolumeBuilder&#45;&gt;BoxBuilder</title>
<path fill="none" stroke="black" d="M499,-242.38C499,-257.18 499,-278.75 499,-296.1"/>
<polygon fill="black" stroke="black" points="495.5,-296.06 499,-306.06 502.5,-296.06 495.5,-296.06"/>
</g>
<!-- FromG4VSolid -->
<g id="node5" class="node">
<title>FromG4VSolid</title>
<polygon fill="none" stroke="black" points="433.12,-343.75 312.88,-343.75 312.88,-307.75 433.12,-307.75 433.12,-343.75"/>
<text text-anchor="middle" x="373" y="-321.07" font-family="Times,serif" font-size="14.00">FromG4VSolid</text>
</g>
<!-- VolumeBuilder&#45;&gt;FromG4VSolid -->
<g id="edge13" class="edge">
<title>VolumeBuilder&#45;&gt;FromG4VSolid</title>
<path fill="none" stroke="black" d="M477.05,-242.38C456.73,-258.47 426.3,-282.55 403.6,-300.53"/>
<polygon fill="black" stroke="black" points="401.55,-297.68 395.88,-306.63 405.9,-303.17 401.55,-297.68"/>
</g>
<!-- CreatePolycone() -->
<g id="node10" class="node">
<title>CreatePolycone()</title>
<polygon fill="none" stroke="black" points="682.75,-470.25 545.25,-470.25 545.25,-434.25 682.75,-434.25 682.75,-470.25"/>
<text text-anchor="middle" x="614" y="-447.57" font-family="Times,serif" font-size="14.00">CreatePolycone()</text>
</g>
<!-- RZBuilder&#45;&gt;CreatePolycone() -->
<g id="edge16" class="edge">
<title>RZBuilder&#45;&gt;CreatePolycone()</title>
<path fill="none" stroke="black" d="M609.7,-344.06C610.51,-364.41 611.88,-398.47 612.86,-422.74"/>
<polygon fill="black" stroke="black" points="609.35,-422.72 613.25,-432.57 616.35,-422.44 609.35,-422.72"/>
</g>
<!-- CreatePolyhedra() -->
<g id="node11" class="node">
<title>CreatePolyhedra()</title>
<polygon fill="none" stroke="black" points="846.88,-470.25 701.12,-470.25 701.12,-434.25 846.88,-434.25 846.88,-470.25"/>
<text text-anchor="middle" x="774" y="-447.57" font-family="Times,serif" font-size="14.00">CreatePolyhedra()</text>
</g>
<!-- RZBuilder&#45;&gt;CreatePolyhedra() -->
<g id="edge17" class="edge">
<title>RZBuilder&#45;&gt;CreatePolyhedra()</title>
<path fill="none" stroke="black" d="M651.09,-344.17C664.71,-350.67 679.5,-358.7 692,-367.75 714.84,-384.29 737.02,-407.44 752.54,-425.17"/>
<polygon fill="black" stroke="black" points="749.86,-427.43 759.03,-432.74 755.18,-422.87 749.86,-427.43"/>
</g>
<!-- CreateCylinder() -->
<g id="node12" class="node">
<title>CreateCylinder()</title>
<polygon fill="none" stroke="black" points="1000.62,-470.25 865.38,-470.25 865.38,-434.25 1000.62,-434.25 1000.62,-470.25"/>
<text text-anchor="middle" x="933" y="-447.57" font-family="Times,serif" font-size="14.00">CreateCylinder()</text>
</g>
<!-- RZBuilder&#45;&gt;CreateCylinder() -->
<g id="edge18" class="edge">
<title>RZBuilder&#45;&gt;CreateCylinder()</title>
<path fill="none" stroke="black" d="M653.65,-340.32C678.3,-347.26 709.58,-355.19 738,-359.75 763.95,-363.91 832.3,-356.39 856,-367.75 881.71,-380.07 902.94,-405.1 916.55,-424.56"/>
<polygon fill="black" stroke="black" points="913.46,-426.25 921.94,-432.61 919.28,-422.35 913.46,-426.25"/>
</g>
<!-- CreateBoxBuilder() -->
<g id="node9" class="node">
<title>CreateBoxBuilder()</title>
<polygon fill="none" stroke="black" points="527,-470.25 373,-470.25 373,-434.25 527,-434.25 527,-470.25"/>
<text text-anchor="middle" x="450" y="-447.57" font-family="Times,serif" font-size="14.00">CreateBoxBuilder()</text>
</g>
<!-- BoxBuilder&#45;&gt;CreateBoxBuilder() -->
<g id="edge19" class="edge">
<title>BoxBuilder&#45;&gt;CreateBoxBuilder()</title>
<path fill="none" stroke="black" d="M492.19,-344.06C484.11,-364.6 470.53,-399.1 460.96,-423.4"/>
<polygon fill="black" stroke="black" points="457.72,-422.09 457.31,-432.68 464.23,-424.65 457.72,-422.09"/>
</g>
<!-- CreateFromG4VSolid() -->
<g id="node8" class="node">
<title>CreateFromG4VSolid()</title>
<polygon fill="none" stroke="black" points="355.38,-470.25 176.62,-470.25 176.62,-434.25 355.38,-434.25 355.38,-470.25"/>
<text text-anchor="middle" x="266" y="-447.57" font-family="Times,serif" font-size="14.00">CreateFromG4VSolid()</text>
</g>
<!-- FromG4VSolid&#45;&gt;CreateFromG4VSolid() -->
<g id="edge15" class="edge">
<title>FromG4VSolid&#45;&gt;CreateFromG4VSolid()</title>
<path fill="none" stroke="black" d="M358.12,-344.06C340,-365.15 309.2,-400.98 288.25,-425.36"/>
<polygon fill="black" stroke="black" points="285.6,-423.07 281.74,-432.94 290.91,-427.64 285.6,-423.07"/>
</g>
<!-- CreateAssembly() -->
<g id="node13" class="node">
<title>CreateAssembly()</title>
<polygon fill="none" stroke="black" points="158.38,-470.25 15.62,-470.25 15.62,-434.25 158.38,-434.25 158.38,-470.25"/>
<text text-anchor="middle" x="87" y="-447.57" font-family="Times,serif" font-size="14.00">CreateAssembly()</text>
</g>
<!-- Assembly&#45;&gt;CreateAssembly() -->
<g id="edge20" class="edge">
<title>Assembly&#45;&gt;CreateAssembly()</title>
<path fill="none" stroke="black" d="M192.24,-242.38C172.56,-281.45 124.67,-376.49 100.88,-423.7"/>
<polygon fill="black" stroke="black" points="97.84,-421.96 96.47,-432.46 104.09,-425.11 97.84,-421.96"/>
</g>
<!-- dummy&#45;&gt;CreateFromG4VSolid() -->
<!-- builderComment -->
<g id="node14" class="node">
<title>builderComment</title>
<text text-anchor="middle" x="861" y="-134.65" font-family="Times,serif" font-size="13.00" fill="#4d4d4d">VolumeBuilder allows operating on collections </text>
<text text-anchor="middle" x="861" y="-118.15" font-family="Times,serif" font-size="13.00" fill="#4d4d4d"> of different &#160;concrete builders. &#160;This view allows all </text>
<text text-anchor="middle" x="861" y="-101.65" font-family="Times,serif" font-size="13.00" fill="#4d4d4d"> operations except initial solid configuration.</text>
</g>
<!-- builderComment&#45;&gt;VolumeBuilder -->
<g id="edge5" class="edge">
<title>builderComment&#45;&gt;VolumeBuilder</title>
<path fill="none" stroke="#4d4d4d" d="M755.66,-150.93C729.29,-157.96 701.09,-165.55 675,-172.75 640.47,-182.27 602.23,-193.15 570.24,-202.34"/>
<polygon fill="#4d4d4d" stroke="#4d4d4d" points="569.3,-198.97 560.66,-205.1 571.24,-205.7 569.3,-198.97"/>
</g>
<!-- concreteBuilderComment -->
<g id="node15" class="node">
<title>concreteBuilderComment</title>
<text text-anchor="middle" x="861" y="-244.65" font-family="Times,serif" font-size="13.00" fill="#4d4d4d">Specialized builders are just what factories return.</text>
<text text-anchor="middle" x="861" y="-228.15" font-family="Times,serif" font-size="13.00" fill="#4d4d4d"> &#160;They do everything, solid configuration, boolean, </text>
<text text-anchor="middle" x="861" y="-211.65" font-family="Times,serif" font-size="13.00" fill="#4d4d4d"> transforms, logical construction, </text>
<text text-anchor="middle" x="861" y="-195.15" font-family="Times,serif" font-size="13.00" fill="#4d4d4d"> visAtts, ect, and placment</text>
</g>
<!-- builderComment&#45;&gt;concreteBuilderComment -->
<!-- concreteBuilderComment&#45;&gt;RZBuilder -->
<g id="edge6" class="edge">
<title>concreteBuilderComment&#45;&gt;RZBuilder</title>
<path fill="none" stroke="#4d4d4d" d="M770.38,-260.87C734.66,-275.01 694.81,-290.78 663.65,-303.12"/>
<polygon fill="#4d4d4d" stroke="#4d4d4d" points="662.42,-299.84 654.41,-306.77 665,-306.35 662.42,-299.84"/>
</g>
<!-- factoryComment -->
<g id="node17" class="node">
<title>factoryComment</title>
<text text-anchor="middle" x="897" y="-338.15" font-family="Times,serif" font-size="13.00" fill="#4d4d4d">Factories are the basic builder interferace,</text>
<text text-anchor="middle" x="897" y="-321.65" font-family="Times,serif" font-size="13.00" fill="#4d4d4d"> starting a fluent builder chain </text>
<text text-anchor="middle" x="897" y="-305.15" font-family="Times,serif" font-size="13.00" fill="#4d4d4d"> that can do everything.</text>
</g>
<!-- concreteBuilderComment&#45;&gt;factoryComment -->
<!-- structureComment -->
<g id="node16" class="node">
<title>structureComment</title>
<text text-anchor="middle" x="680" y="-41.15" font-family="Times,serif" font-size="13.00" fill="#4d4d4d">Structures are a common view on builders and assemblies.</text>
<text text-anchor="middle" x="680" y="-24.65" font-family="Times,serif" font-size="13.00" fill="#4d4d4d"> &#160;They can have VisAtts etc. set, hierarchical application </text>
<text text-anchor="middle" x="680" y="-8.15" font-family="Times,serif" font-size="13.00" fill="#4d4d4d"> of offset, &#160;rotation, and finally placement</text>
</g>
<!-- structureComment&#45;&gt;StructureBuilder -->
<g id="edge4" class="edge">
<title>structureComment&#45;&gt;StructureBuilder</title>
<path fill="none" stroke="#4d4d4d" d="M591.9,-57.45C547.92,-71.28 495.61,-87.73 455.12,-100.46"/>
<polygon fill="#4d4d4d" stroke="#4d4d4d" points="454.23,-97.07 445.74,-103.41 456.33,-103.75 454.23,-97.07"/>
</g>
<!-- structureComment&#45;&gt;builderComment -->
<!-- factoryComment&#45;&gt;CreateCylinder() -->
<g id="edge7" class="edge">
<title>factoryComment&#45;&gt;CreateCylinder()</title>
<path fill="none" stroke="#4d4d4d" d="M904.99,-354.38C910.9,-374.84 918.93,-402.61 924.88,-423.17"/>
<polygon fill="#4d4d4d" stroke="#4d4d4d" points="921.46,-423.96 927.6,-432.59 928.19,-422.01 921.46,-423.96"/>
</g>
</g>
</svg>
